<svg width="28" height="28" viewBox="0 0 28 28" fill="none" xmlns="http://www.w3.org/2000/svg">
<g clip-path="url(#clip0_8728_10182)">
<path style="mix-blend-mode:screen" opacity="0.68" d="M10 25.7876C14.9706 25.7876 19 20.7444 19 14.5232C19 8.30203 14.9706 3.25879 10 3.25879C5.02944 3.25879 1 8.30203 1 14.5232C1 20.7444 5.02944 25.7876 10 25.7876Z" fill="url(#paint0_radial_8728_10182)"/>
<path d="M6.36704 18.5821C5.23632 17.2971 3.92979 15.9945 3.90329 14.821C3.8768 13.6482 9.30823 6.7058 9.83988 6.7628C10.3715 6.8198 16.051 14.5457 15.7626 15.1788C15.4742 15.8119 13.0574 18.4778 12.6089 18.9599C11.9827 19.6336 10.2951 21.975 9.5876 21.9526C8.82837 21.9284 7.14313 19.4632 6.36643 18.5815L6.36704 18.5821Z" fill="url(#paint1_radial_8728_10182)"/>
<path style="mix-blend-mode:screen" d="M9.83987 6.7633C9.83987 6.7633 10.8333 11.2339 10.0729 12.9234C9.31244 14.6123 8.97166 14.7657 8.51709 14.9695C8.06251 15.1739 6.85834 16.2776 6.38329 16.1945C5.90824 16.112 3.68052 14.9034 3.94183 14.4455C4.20313 13.9877 7.57362 8.66931 9.83927 6.7627L9.83987 6.7633Z" fill="url(#paint2_radial_8728_10182)"/>
<path style="mix-blend-mode:multiply" opacity="0.53" d="M15.7632 15.1794C15.6916 14.3971 11.8202 8.50994 9.8405 6.76343C10.3547 8.22067 11.1639 10.8586 10.9393 12.1837C10.7147 13.5087 10.5618 12.9654 10.3059 13.3171C10.05 13.6688 9.811 13.875 9.69962 14.5275C9.58823 15.18 10.6684 15.4645 10.9471 15.8526C11.2253 16.2407 15.0901 15.5324 15.7638 15.1794H15.7632Z" fill="url(#paint3_radial_8728_10182)"/>
<path style="mix-blend-mode:multiply" opacity="0.8" d="M7.52666 20.0289C8.22569 20.8985 8.98853 21.8688 9.51777 21.9446C9.98619 22.0113 10.8502 21.2145 11.7575 19.9773C12.1224 19.451 14.2731 17.135 14.2731 17.135C14.2731 17.135 11.3258 20.0871 10.003 20.8106C8.69772 21.5243 8.52613 20.3988 7.52606 20.0295L7.52666 20.0289Z" fill="url(#paint4_radial_8728_10182)"/>
<path style="mix-blend-mode:multiply" opacity="0.8" d="M12.4999 19.0884C10.0428 22.3152 9.59362 21.8003 9.59362 21.8003C9.59362 21.8003 8.28167 20.9489 9.59723 18.1533C9.77304 17.7797 10.6268 15.9768 10.9459 16.0108C11.265 16.0453 13.1098 16.0447 15.6151 15.4304C13.9997 17.7361 12.8569 18.8689 12.4999 19.0884Z" fill="url(#paint5_radial_8728_10182)"/>
<path style="mix-blend-mode:multiply" opacity="0.53" d="M7.27557 17.3341C7.27557 17.3341 8.04202 18.6852 8.18411 18.7362C8.32621 18.7871 9.49004 18.2771 9.48402 18.0697C9.478 17.8623 9.78025 16.5603 9.78025 16.5603C9.78025 16.5603 8.78139 17.3165 8.4105 17.4348C8.03961 17.553 7.27496 17.3335 7.27496 17.3335L7.27557 17.3341Z" fill="url(#paint6_radial_8728_10182)"/>
<path style="mix-blend-mode:screen" opacity="0.58" d="M9.8399 6.7633C10.7015 6.99799 15.7765 14.3582 15.7626 15.1793C15.0365 15.6372 12.3976 15.8767 12.3976 15.8767C12.3976 15.8767 14.497 15.6754 14.5272 14.9355C14.5573 14.1957 11.1868 9.56439 11.0417 9.18477C10.8972 8.80575 9.8399 6.7627 9.8399 6.7627V6.7633Z" fill="url(#paint7_radial_8728_10182)"/>
<path style="mix-blend-mode:multiply" opacity="0.56" d="M11.2012 16.037C11.2012 16.037 14.3627 16.5257 13.9274 17.6464C14.6487 16.7792 15.6157 15.4299 15.6157 15.4299L11.2012 16.0364V16.037Z" fill="url(#paint8_radial_8728_10182)"/>
<path style="mix-blend-mode:screen" d="M11.4962 15.8749C11.2163 15.8525 11.0537 15.8591 11.0019 15.7269C10.9495 15.5947 9.89708 15.0592 9.74957 14.8585C9.60206 14.6578 9.7285 14.3813 9.83747 14.0301C9.94645 13.679 10.3059 13.3176 10.4173 13.2096C10.5287 13.1017 10.5461 13.1575 10.6376 13.1126C10.7292 13.0677 10.7219 13.0071 10.8147 12.7657C10.9074 12.5244 10.7033 10.4928 10.5479 9.90703C10.3932 9.32122 10.7424 8.9792 10.7081 8.5171C10.6738 8.055 9.84049 6.76392 9.84049 6.76392C9.84049 6.76392 10.041 10.0107 10.2535 11.3279C10.4667 12.6451 9.05416 14.6366 8.73806 14.6911C8.42197 14.7457 7.46043 15.6153 7.2768 15.6899C7.09316 15.7651 6.38691 15.9343 5.71077 15.8458C5.03462 15.7572 3.93762 14.6099 3.93762 14.6099C4.06286 15.1272 5.25198 15.8943 5.61564 16.0071C5.9793 16.1199 6.49107 16.5122 6.71686 16.7051C6.94264 16.8979 7.98244 19.1539 8.53335 19.5899C9.04874 20.7033 8.80851 21.5656 9.51777 21.9452C10.6021 21.6784 9.16856 21.5553 9.02827 20.9653C8.94699 20.625 9.48706 18.2891 9.60206 18.1144C9.71706 17.9398 9.90009 15.8221 10.9465 16.0113C11.9929 16.2005 15.6157 15.431 15.6157 15.431C15.6157 15.431 15.7494 15.3491 15.7632 15.1799C14.5819 15.733 11.7762 15.8973 11.4962 15.8755V15.8749ZM10.5196 15.8173C10.4462 15.9883 10.0897 16.1187 9.89226 16.277C9.69478 16.4346 9.49308 18.0259 9.3841 18.1933C9.27513 18.3606 9.01502 18.9022 8.78202 18.8985C8.54901 18.8955 8.47495 18.7591 8.21485 18.679C7.95475 18.5984 7.06065 16.6996 7.14012 16.4765C7.2196 16.2533 7.90176 15.6305 8.09383 15.3667C8.2859 15.1029 8.71278 14.9816 9.22937 15.0144C9.94224 15.0592 10.5925 15.6457 10.519 15.8173H10.5196Z" fill="url(#paint9_radial_8728_10182)"/>
<path style="mix-blend-mode:screen" opacity="0.33" d="M4.48492 16.3352C4.69264 16.7773 6.22976 18.1563 6.51696 18.4401C6.97997 18.8974 8.05529 20.6063 8.64895 21.0484C9.22756 21.4795 7.45802 18.6408 7.07148 18.5681C6.68494 18.4953 5.7216 16.8774 4.48431 16.3352H4.48492Z" fill="url(#paint10_radial_8728_10182)"/>
<path style="mix-blend-mode:screen" opacity="0.76" d="M10.0001 8.96351C10.0001 8.96351 5.42178 12.2091 4.80705 12.9617C4.19232 13.7137 9.0608 6.98534 9.8399 6.76339C9.9266 6.63543 10.0001 8.96351 10.0001 8.96351Z" fill="url(#paint11_radial_8728_10182)"/>
<path style="mix-blend-mode:multiply" opacity="0.33" d="M13.064 12.2517C13.064 12.2517 14.7523 14.5604 14.5271 14.9357C14.3013 15.3111 11.4474 15.7708 11.5949 15.5215C12.9508 13.2323 11.9971 11.0746 13.064 12.2511V12.2517Z" fill="url(#paint12_radial_8728_10182)"/>
<path style="mix-blend-mode:screen" opacity="0.33" d="M9.1908 12.3964C10.6093 12.5486 8.14858 14.719 7.52542 15.1635C6.90226 15.6081 6.13039 15.4825 5.6433 15.4516C5.15621 15.4201 4.33617 14.9561 4.3759 14.6111C4.41564 14.2654 8.51646 12.3242 9.19019 12.397L9.1908 12.3964Z" fill="url(#paint13_radial_8728_10182)"/>
<path d="M7.08835 15.7487C6.76924 15.6984 5.36698 15.6742 5.87574 15.9343C6.38451 16.1945 6.56574 16.5147 6.75118 16.4079C6.93662 16.3012 7.35086 15.79 7.08835 15.7487Z" fill="white"/>
<path d="M10.0729 12.9234C9.97055 13.0089 9.36183 13.8579 9.29079 14.1259C9.19626 14.4837 9.68877 14.2381 9.99162 13.602C10.2945 12.9652 10.2276 12.7936 10.0723 12.924L10.0729 12.9234Z" fill="white"/>
<path d="M9.88201 6.88353C10.2005 7.22253 10.4835 7.95509 10.5714 8.56516C10.6539 9.13581 10.2354 9.47965 10.2083 9.17462C10.1812 8.86898 9.77604 6.77074 9.88201 6.88353Z" fill="white"/>
<path d="M9.55149 6.93262C9.55149 6.93262 9.0048 7.93868 8.59357 8.38986C8.18235 8.84105 6.13947 11.1012 6.13947 11.1012C6.13947 11.1012 7.81929 8.8841 8.29434 8.34074C8.76938 7.79738 9.55089 6.93262 9.55089 6.93262H9.55149Z" fill="white"/>
<g opacity="0.7">
<path style="mix-blend-mode:screen" opacity="0.63" d="M10.5473 14.9004C11.1418 14.8892 11.5693 11.9519 11.5024 8.33975C11.4354 4.72758 10.8992 1.80841 10.3047 1.8196C9.71029 1.83078 9.28269 4.76808 9.34968 8.38024C9.41666 11.9924 9.95285 14.9116 10.5473 14.9004Z" fill="url(#paint14_radial_8728_10182)"/>
<path style="mix-blend-mode:screen" opacity="0.57" d="M10.5123 12.945C13.0413 12.8974 15.0536 10.8147 15.0069 8.29322C14.9601 5.77171 12.872 3.76618 10.343 3.81376C7.81388 3.86133 5.80158 5.94399 5.84833 8.46551C5.89509 10.987 7.98321 12.9926 10.5123 12.945Z" fill="url(#paint15_radial_8728_10182)"/>
<path style="mix-blend-mode:screen" opacity="0.63" d="M10.5461 9.41495C14.1324 9.34748 17.0307 8.80742 17.0196 8.20869C17.0085 7.60995 14.0922 7.17928 10.5059 7.24674C6.91961 7.31421 4.02133 7.85427 4.03243 8.453C4.04353 9.05174 6.95981 9.48242 10.5461 9.41495Z" fill="url(#paint16_radial_8728_10182)"/>
</g>
<g opacity="0.5">
<path style="mix-blend-mode:screen" opacity="0.8" d="M7.02933 7.39887C7.43814 7.65478 7.9752 7.52804 8.22929 7.11627C8.48337 6.70451 8.35753 6.16357 7.94871 5.90766C7.5399 5.65175 7.00283 5.77849 6.74875 6.19025C6.49467 6.60202 6.62051 7.14295 7.02933 7.39887Z" fill="url(#paint17_radial_8728_10182)"/>
</g>
<path d="M7.55497 6.54672C7.49657 6.51034 7.4195 6.52792 7.38338 6.58735C7.34725 6.64678 7.36471 6.7238 7.42372 6.76018C7.48272 6.79657 7.55919 6.77898 7.59531 6.71955C7.63144 6.66073 7.61398 6.58311 7.55497 6.54672Z" fill="#D9FFC2"/>
<g opacity="0.5">
<path style="mix-blend-mode:screen" opacity="0.8" d="M10.6633 3.07001C11.0787 2.82536 11.2184 2.28789 10.9755 1.86955C10.7326 1.4512 10.199 1.3104 9.78367 1.55506C9.36832 1.79971 9.22853 2.33718 9.47143 2.75552C9.71434 3.17387 10.248 3.31467 10.6633 3.07001Z" fill="url(#paint18_radial_8728_10182)"/>
</g>
<path d="M10.289 2.20541C10.2306 2.16903 10.1536 2.18661 10.1174 2.24604C10.0813 2.30487 10.0988 2.38249 10.1578 2.41888C10.2162 2.45526 10.2933 2.43768 10.3294 2.37825C10.3655 2.31942 10.348 2.2418 10.289 2.20541Z" fill="#D9FFC2"/>
<g opacity="0.5">
<path style="mix-blend-mode:screen" opacity="0.8" d="M6.59283 21.9481C7.06205 21.8408 7.35608 21.3707 7.24956 20.8981C7.14304 20.4255 6.67631 20.1294 6.20709 20.2366C5.73786 20.3439 5.44383 20.814 5.55035 21.2866C5.65687 21.7592 6.1236 22.0554 6.59283 21.9481Z" fill="url(#paint19_radial_8728_10182)"/>
</g>
<path d="M6.46458 20.9859C6.40618 20.9495 6.32911 20.9671 6.29299 21.0266C6.25686 21.0854 6.27432 21.163 6.33333 21.1994C6.39233 21.2358 6.4688 21.2182 6.50492 21.1588C6.54105 21.0999 6.52359 21.0223 6.46458 20.9859Z" fill="#D9FFC2"/>
<g opacity="0.5">
<path style="mix-blend-mode:screen" opacity="0.8" d="M11.3884 15.403C11.7972 15.6589 12.3343 15.5322 12.5884 15.1204C12.8424 14.7087 12.7166 14.1677 12.3078 13.9118C11.899 13.6559 11.3619 13.7826 11.1078 14.1944C10.8537 14.6062 10.9796 15.1471 11.3884 15.403Z" fill="url(#paint20_radial_8728_10182)"/>
</g>
<path d="M11.914 14.5509C11.8556 14.5145 11.7786 14.5321 11.7424 14.5915C11.7063 14.6503 11.7238 14.7279 11.7828 14.7643C11.8412 14.8007 11.9183 14.7831 11.9544 14.7237C11.9905 14.6649 11.973 14.5873 11.914 14.5509Z" fill="#D9FFC2"/>
<g opacity="0.5">
<path style="mix-blend-mode:screen" opacity="0.8" d="M11.1096 7.98651C11.5185 8.24243 12.0555 8.11568 12.3096 7.70392C12.5637 7.29215 12.4379 6.75122 12.029 6.49531C11.6202 6.23939 11.0832 6.36614 10.8291 6.7779C10.575 7.18967 10.7008 7.7306 11.1096 7.98651Z" fill="url(#paint21_radial_8728_10182)"/>
</g>
<path d="M11.6353 7.13437C11.5769 7.09798 11.4998 7.11557 11.4637 7.175C11.4276 7.23382 11.445 7.31145 11.504 7.34783C11.5624 7.38422 11.6395 7.36663 11.6756 7.3072C11.7118 7.24838 11.6943 7.17075 11.6353 7.13437Z" fill="#D9FFC2"/>
<g opacity="0.5">
<path style="mix-blend-mode:screen" opacity="0.8" d="M9.01387 6.3366C9.94013 6.09827 10.4992 5.14878 10.2626 4.21584C10.026 3.2829 9.08326 2.7198 8.157 2.95813C7.23074 3.19645 6.67167 4.14594 6.90829 5.07888C7.14491 6.01182 8.08761 6.57492 9.01387 6.3366Z" fill="url(#paint22_radial_8728_10182)"/>
</g>
<path d="M8.6646 4.8847C8.79405 4.84043 8.86389 4.69913 8.81994 4.56814C8.77599 4.43776 8.6357 4.36742 8.50565 4.41168C8.3762 4.45595 8.30636 4.59725 8.35031 4.72824C8.39426 4.85862 8.53455 4.92897 8.6646 4.8847Z" fill="#D9FFC2"/>
<g opacity="0.5">
<path style="mix-blend-mode:screen" opacity="0.8" d="M11.5496 15.4535C12.4803 15.2335 13.0577 14.2952 12.8393 13.3578C12.6208 12.4204 11.6892 11.8388 10.7585 12.0589C9.82779 12.2789 9.25041 13.2172 9.46887 14.1546C9.68734 15.092 10.6189 15.6736 11.5496 15.4535Z" fill="url(#paint23_radial_8728_10182)"/>
</g>
<path d="M11.2336 13.9924C11.3631 13.9481 11.4329 13.8068 11.389 13.6758C11.345 13.5454 11.2047 13.4751 11.0747 13.5194C10.9452 13.5636 10.8754 13.7049 10.9193 13.8359C10.9633 13.9663 11.1036 14.0366 11.2336 13.9924Z" fill="#D9FFC2"/>
</g>
<defs>
<radialGradient id="paint0_radial_8728_10182" cx="0" cy="0" r="1" gradientUnits="userSpaceOnUse" gradientTransform="translate(10.1192 14.6376) rotate(180) scale(9.01948 11.2868)">
<stop offset="0.29" stop-color="#31FC06"/>
<stop offset="0.56" stop-color="#1C9104"/>
<stop offset="0.77" stop-color="#0D4301"/>
<stop offset="0.93" stop-color="#031200"/>
<stop offset="1"/>
</radialGradient>
<radialGradient id="paint1_radial_8728_10182" cx="0" cy="0" r="1" gradientUnits="userSpaceOnUse" gradientTransform="translate(9.168 10.3865) rotate(6.13357) scale(24.3032 14.1796)">
<stop stop-color="#72FF2B"/>
<stop offset="0.16" stop-color="#61DE4C"/>
<stop offset="0.51" stop-color="#3F9D90"/>
<stop offset="0.67" stop-color="#3284AB"/>
</radialGradient>
<radialGradient id="paint2_radial_8728_10182" cx="0" cy="0" r="1" gradientUnits="userSpaceOnUse" gradientTransform="translate(7.23482 8.82969) rotate(6.13357) scale(15.2634 8.90536)">
<stop stop-color="#72FF2B"/>
<stop offset="0.16" stop-color="#61DE4C"/>
<stop offset="0.51" stop-color="#3F9D90"/>
<stop offset="0.67" stop-color="#3284AB"/>
</radialGradient>
<radialGradient id="paint3_radial_8728_10182" cx="0" cy="0" r="1" gradientUnits="userSpaceOnUse" gradientTransform="translate(15.327 15.797) rotate(6.13357) scale(14.1617 8.26263)">
<stop stop-color="#72FF2B"/>
<stop offset="0.24" stop-color="#61DE4C"/>
<stop offset="0.76" stop-color="#3F9D90"/>
<stop offset="1" stop-color="#3284AB"/>
</radialGradient>
<radialGradient id="paint4_radial_8728_10182" cx="0" cy="0" r="1" gradientUnits="userSpaceOnUse" gradientTransform="translate(11.4041 19.3469) rotate(6.13357) scale(3.91409 2.28367)">
<stop stop-color="#72FF2B"/>
<stop offset="0.24" stop-color="#61DE4C"/>
<stop offset="0.76" stop-color="#3F9D90"/>
<stop offset="1" stop-color="#3284AB"/>
</radialGradient>
<radialGradient id="paint5_radial_8728_10182" cx="0" cy="0" r="1" gradientUnits="userSpaceOnUse" gradientTransform="translate(12.7773 21.5732) rotate(6.13357) scale(5.39961 3.15039)">
<stop stop-color="#72FF2B"/>
<stop offset="0.24" stop-color="#61DE4C"/>
<stop offset="0.76" stop-color="#3F9D90"/>
<stop offset="1" stop-color="#3284AB"/>
</radialGradient>
<radialGradient id="paint6_radial_8728_10182" cx="0" cy="0" r="1" gradientUnits="userSpaceOnUse" gradientTransform="translate(9.03405 18.5435) rotate(6.13357) scale(2.13041 1.24298)">
<stop stop-color="#72FF2B"/>
<stop offset="0.16" stop-color="#61DE4C"/>
<stop offset="0.51" stop-color="#3F9D90"/>
<stop offset="0.67" stop-color="#3284AB"/>
</radialGradient>
<radialGradient id="paint7_radial_8728_10182" cx="0" cy="0" r="1" gradientUnits="userSpaceOnUse" gradientTransform="translate(13.1838 15.2802) rotate(6.13357) scale(6.19017 3.61163)">
<stop stop-color="#72FF2B"/>
<stop offset="0.16" stop-color="#61DE4C"/>
<stop offset="0.51" stop-color="#3F9D90"/>
<stop offset="0.67" stop-color="#3284AB"/>
</radialGradient>
<radialGradient id="paint8_radial_8728_10182" cx="0" cy="0" r="1" gradientUnits="userSpaceOnUse" gradientTransform="translate(13.9108 16.3175) rotate(6.13357) scale(2.10233 1.2266)">
<stop stop-color="#72FF2B"/>
<stop offset="0.24" stop-color="#61DE4C"/>
<stop offset="0.76" stop-color="#3F9D90"/>
<stop offset="1" stop-color="#3284AB"/>
</radialGradient>
<radialGradient id="paint9_radial_8728_10182" cx="0" cy="0" r="1" gradientUnits="userSpaceOnUse" gradientTransform="translate(9.45408 7.22953) rotate(1.83311) scale(15.9717 15.7649)">
<stop stop-color="#F5FFB2"/>
<stop offset="0.23" stop-color="#B1F9AD"/>
<stop offset="0.51" stop-color="#66F2A7"/>
<stop offset="0.74" stop-color="#2EEEA3"/>
<stop offset="0.91" stop-color="#0CEBA0"/>
<stop offset="1" stop-color="#00EAA0"/>
</radialGradient>
<radialGradient id="paint10_radial_8728_10182" cx="0" cy="0" r="1" gradientUnits="userSpaceOnUse" gradientTransform="translate(9.70005 17.0531) rotate(6.13357) scale(7.56492 4.41373)">
<stop stop-color="#72FF2B"/>
<stop offset="0.16" stop-color="#61DE4C"/>
<stop offset="0.51" stop-color="#3F9D90"/>
<stop offset="0.67" stop-color="#3284AB"/>
</radialGradient>
<radialGradient id="paint11_radial_8728_10182" cx="0" cy="0" r="1" gradientUnits="userSpaceOnUse" gradientTransform="translate(10.5852 7.19886) rotate(6.13357) scale(11.9775 6.98822)">
<stop stop-color="#72FF2B"/>
<stop offset="0.24" stop-color="#61DE4C"/>
<stop offset="0.76" stop-color="#3F9D90"/>
<stop offset="1" stop-color="#3284AB"/>
</radialGradient>
<radialGradient id="paint12_radial_8728_10182" cx="0" cy="0" r="1" gradientUnits="userSpaceOnUse" gradientTransform="translate(13.7355 15.4439) rotate(6.13357) scale(2.59093 1.51167)">
<stop stop-color="#72FF2B"/>
<stop offset="0.16" stop-color="#61DE4C"/>
<stop offset="0.51" stop-color="#3F9D90"/>
<stop offset="0.67" stop-color="#3284AB"/>
</radialGradient>
<radialGradient id="paint13_radial_8728_10182" cx="0" cy="0" r="1" gradientUnits="userSpaceOnUse" gradientTransform="translate(9.1737 15.5251) rotate(6.13357) scale(8.60129 5.0184)">
<stop stop-color="#72FF2B"/>
<stop offset="0.16" stop-color="#61DE4C"/>
<stop offset="0.51" stop-color="#3F9D90"/>
<stop offset="0.67" stop-color="#3284AB"/>
</radialGradient>
<radialGradient id="paint14_radial_8728_10182" cx="0" cy="0" r="1" gradientUnits="userSpaceOnUse" gradientTransform="translate(10.3196 8.33997) rotate(-1.07771) scale(0.961475 5.87498)">
<stop stop-color="#96FC75"/>
<stop offset="0.38" stop-color="#579144"/>
<stop offset="0.68" stop-color="#28431F"/>
<stop offset="0.9" stop-color="#0B1208"/>
<stop offset="1"/>
</radialGradient>
<radialGradient id="paint15_radial_8728_10182" cx="0" cy="0" r="1" gradientUnits="userSpaceOnUse" gradientTransform="translate(10.5058 8.4592) rotate(-1.07771) scale(4.59418 4.62728)">
<stop stop-color="#96FC75"/>
<stop offset="0.38" stop-color="#579144"/>
<stop offset="0.68" stop-color="#28431F"/>
<stop offset="0.9" stop-color="#0B1208"/>
<stop offset="1"/>
</radialGradient>
<radialGradient id="paint16_radial_8728_10182" cx="0" cy="0" r="1" gradientUnits="userSpaceOnUse" gradientTransform="translate(10.559 8.49797) rotate(88.9476) scale(0.989325 5.95897)">
<stop stop-color="#96FC75"/>
<stop offset="0.38" stop-color="#579144"/>
<stop offset="0.68" stop-color="#28431F"/>
<stop offset="0.9" stop-color="#0B1208"/>
<stop offset="1"/>
</radialGradient>
<radialGradient id="paint17_radial_8728_10182" cx="0" cy="0" r="1" gradientUnits="userSpaceOnUse" gradientTransform="translate(7.4871 6.65359) rotate(-58.3342) scale(0.875757 0.872956)">
<stop stop-color="#2FFE00"/>
<stop offset="0.08" stop-color="#2AE300"/>
<stop offset="0.34" stop-color="#1B9300"/>
<stop offset="0.57" stop-color="#0F5400"/>
<stop offset="0.77" stop-color="#072600"/>
<stop offset="0.91" stop-color="#010A00"/>
<stop offset="1"/>
</radialGradient>
<radialGradient id="paint18_radial_8728_10182" cx="0" cy="0" r="1" gradientUnits="userSpaceOnUse" gradientTransform="translate(10.2202 2.31504) rotate(-58.3342) scale(0.875757 0.872956)">
<stop stop-color="#2FFE00"/>
<stop offset="0.08" stop-color="#2AE300"/>
<stop offset="0.34" stop-color="#1B9300"/>
<stop offset="0.57" stop-color="#0F5400"/>
<stop offset="0.77" stop-color="#072600"/>
<stop offset="0.91" stop-color="#010A00"/>
<stop offset="1"/>
</radialGradient>
<radialGradient id="paint19_radial_8728_10182" cx="0" cy="0" r="1" gradientUnits="userSpaceOnUse" gradientTransform="translate(6.39888 21.0905) rotate(-58.3342) scale(0.875757 0.872956)">
<stop stop-color="#2FFE00"/>
<stop offset="0.08" stop-color="#2AE300"/>
<stop offset="0.34" stop-color="#1B9300"/>
<stop offset="0.57" stop-color="#0F5400"/>
<stop offset="0.77" stop-color="#072600"/>
<stop offset="0.91" stop-color="#010A00"/>
<stop offset="1"/>
</radialGradient>
<radialGradient id="paint20_radial_8728_10182" cx="0" cy="0" r="1" gradientUnits="userSpaceOnUse" gradientTransform="translate(11.8467 14.658) rotate(-58.3342) scale(0.875757 0.872956)">
<stop stop-color="#2FFE00"/>
<stop offset="0.08" stop-color="#2AE300"/>
<stop offset="0.34" stop-color="#1B9300"/>
<stop offset="0.57" stop-color="#0F5400"/>
<stop offset="0.77" stop-color="#072600"/>
<stop offset="0.91" stop-color="#010A00"/>
<stop offset="1"/>
</radialGradient>
<radialGradient id="paint21_radial_8728_10182" cx="0" cy="0" r="1" gradientUnits="userSpaceOnUse" gradientTransform="translate(11.5674 7.24131) rotate(-58.3342) scale(0.875757 0.872956)">
<stop stop-color="#2FFE00"/>
<stop offset="0.08" stop-color="#2AE300"/>
<stop offset="0.34" stop-color="#1B9300"/>
<stop offset="0.57" stop-color="#0F5400"/>
<stop offset="0.77" stop-color="#072600"/>
<stop offset="0.91" stop-color="#010A00"/>
<stop offset="1"/>
</radialGradient>
<radialGradient id="paint22_radial_8728_10182" cx="0" cy="0" r="1" gradientUnits="userSpaceOnUse" gradientTransform="translate(8.5815 4.64422) rotate(71.4545) scale(1.74221 1.73227)">
<stop stop-color="#2FFE00"/>
<stop offset="0.08" stop-color="#2AE300"/>
<stop offset="0.34" stop-color="#1B9300"/>
<stop offset="0.57" stop-color="#0F5400"/>
<stop offset="0.77" stop-color="#072600"/>
<stop offset="0.91" stop-color="#010A00"/>
<stop offset="1"/>
</radialGradient>
<radialGradient id="paint23_radial_8728_10182" cx="0" cy="0" r="1" gradientUnits="userSpaceOnUse" gradientTransform="translate(11.1566 13.756) rotate(71.4644) scale(1.74221 1.73227)">
<stop stop-color="#2FFE00"/>
<stop offset="0.08" stop-color="#2AE300"/>
<stop offset="0.34" stop-color="#1B9300"/>
<stop offset="0.57" stop-color="#0F5400"/>
<stop offset="0.77" stop-color="#072600"/>
<stop offset="0.91" stop-color="#010A00"/>
<stop offset="1"/>
</radialGradient>
<clipPath id="clip0_8728_10182">
<rect width="18" height="24.6755" fill="white" transform="translate(1 1.11206)"/>
</clipPath>
</defs>
</svg>
