<svg width="17" height="19" viewBox="0 0 17 19" fill="none" xmlns="http://www.w3.org/2000/svg">
<g clip-path="url(#clip0_8789_5608)">
<path d="M10.6665 15.67L12.8319 14.4151L9.75335 9.56274L8.32245 11.9909L10.6665 15.67Z" fill="#BD7B4F"/>
<path d="M14.8038 12.9391L14.8022 11.9336L11.4384 6.69434L10.1904 8.81198L13.4377 14.0638L14.6119 13.3835C14.727 13.2899 14.7967 13.1527 14.804 13.0046L14.8038 12.9391Z" fill="#BD7B4F"/>
<path d="M0.707764 13.8873L2.36579 14.8428L7.88335 5.99414L6.94693 5.96943C6.14906 5.95816 5.28957 6.16558 4.8951 6.80952L1.76186 11.6659L0.707764 13.2855V13.8873Z" fill="#BD7B4F"/>
<path d="M11.0678 5.99414L8.59982 6.0031L3.01617 15.2172L4.96784 16.3409L5.49858 15.4408L11.0678 5.99414Z" fill="#BD7B4F"/>
<path d="M15.8438 5.98142C15.8232 5.46527 15.5437 4.99278 15.106 4.71769L8.97043 1.18928C8.53742 0.97125 7.99649 0.97097 7.5627 1.18914C7.51143 1.21501 1.59603 4.64569 1.59603 4.64569C1.51416 4.68497 1.4353 4.73173 1.36113 4.78483C0.97036 5.06488 0.732169 5.5001 0.707703 5.97823V13.2855L1.7618 11.6659L1.75259 6.02762C1.75382 6.00701 1.75641 5.9867 1.76008 5.96668C1.78392 5.83402 1.85799 5.71568 1.9695 5.6357C1.99733 5.61578 8.01378 2.13322 8.03289 2.12367C8.1743 2.05265 8.35404 2.05181 8.49562 2.12146L14.5518 5.605C14.6951 5.69625 14.7849 5.85096 14.7929 6.0201V13.0045C14.7855 13.1526 14.727 13.2899 14.6118 13.3834L13.4377 14.0638L12.8319 14.4149L10.6665 15.6698L8.47056 16.9424C8.35229 16.9851 8.21399 16.9827 8.0967 16.9351L5.49855 15.4407L4.9678 16.3409L7.30267 17.6852C7.37989 17.7291 7.44867 17.768 7.50513 17.7997C7.59253 17.8487 7.6521 17.8815 7.67314 17.8917C7.83908 17.9723 8.07787 18.0192 8.29303 18.0192C8.4903 18.0192 8.68267 17.983 8.86469 17.9117L15.243 14.2179C15.6091 13.9342 15.8245 13.5064 15.8438 13.043V5.98142Z" fill="#BD7B4F"/>
</g>
<defs>
<clipPath id="clip0_8789_5608">
<rect width="16.4612" height="18" fill="white" transform="translate(0 0.5)"/>
</clipPath>
</defs>
</svg>
