<?xml version="1.0" standalone="no"?>
<!DOCTYPE svg PUBLIC "-//W3C//DTD SVG 20010904//EN"
 "http://www.w3.org/TR/2001/REC-SVG-20010904/DTD/svg10.dtd">
<svg width="512px" height="512px" viewBox="0 0 512 512" version="1.1" xmlns="http://www.w3.org/2000/svg" xmlns:xlink="http://www.w3.org/1999/xlink">
    <g id="Page-1" stroke="none" stroke-width="1" fill="none" fill-rule="evenodd">
        <g id="swap-svgrepo-com" transform="translate(-0.000000, 0.000000)" fill="#BD7C4E" fill-rule="nonzero">
            <path d="M2.84217094e-14,0 L2.84217094e-14,512 L512,512 L512,0 L2.84217094e-14,0 Z M164.416,292.416 C160.235,296.597 154.773,298.667 149.333,298.667 C143.872,298.667 138.41,296.598 134.25,292.416 L48.917,207.104 C46.954,205.141 45.397,202.773 44.309,200.149 C42.154,194.944 42.154,189.077 44.309,183.85 C45.397,181.247 46.954,178.879 48.917,176.917 L134.25,91.584 C142.57,83.264 156.074,83.264 164.415,91.584 C172.735,99.925 172.735,113.429 164.415,121.749 L115.498,170.666 L298.666,170.666 C310.442,170.666 319.999,180.223 319.999,191.999 C319.999,203.796 310.442,213.332 298.666,213.332 L115.499,213.332 L164.416,262.249 C172.736,270.592 172.736,284.096 164.416,292.416 Z M467.691,328.149 C466.603,330.773 465.046,333.141 463.062,335.104 L377.75,420.416 C373.569,424.597 368.107,426.667 362.667,426.667 C357.206,426.667 351.744,424.598 347.584,420.416 C339.243,412.096 339.243,398.592 347.584,390.251 L396.501,341.334 L213.333,341.334 C201.536,341.333 192,331.797 192,320 C192,308.224 201.536,298.667 213.333,298.667 L396.501,298.667 L347.584,249.75 C339.243,241.43 339.243,227.926 347.584,219.585 C355.904,211.265 369.408,211.265 377.749,219.585 L463.061,304.918 C465.045,306.881 466.602,309.249 467.69,311.851 C469.845,317.077 469.845,322.944 467.691,328.149 Z" id="Shape" transform="translate(256.000000, 256.000000) rotate(-90.000000) translate(-256.000000, -256.000000) "></path>
        </g>
    </g>
</svg>