<svg width="40" height="54" viewBox="0 0 40 54" fill="none" xmlns="http://www.w3.org/2000/svg">
<g filter="url(#filter0_d_11079_42495)">
<circle cx="20" cy="27" r="20" transform="rotate(-90 20 27)" fill="url(#paint0_linear_11079_42495)"/>
<circle cx="20" cy="27" r="19.5" transform="rotate(-90 20 27)" stroke="#95613F"/>
</g>
<path d="M17.01 29H11C10.45 29 10 29.45 10 30C10 30.55 10.45 31 11 31H17.01V32.79C17.01 33.24 17.55 33.46 17.86 33.14L20.64 30.35C20.83 30.15 20.83 29.84 20.64 29.64L17.86 26.85C17.55 26.53 17.01 26.76 17.01 27.2V29ZM22.99 26.79V25H29C29.55 25 30 24.55 30 24C30 23.45 29.55 23 29 23H22.99V21.21C22.99 20.76 22.45 20.54 22.14 20.86L19.36 23.65C19.17 23.85 19.17 24.16 19.36 24.36L22.14 27.15C22.45 27.46 22.99 27.24 22.99 26.79Z" fill="#FFDEC9"/>
<defs>
<filter id="filter0_d_11079_42495" x="-18" y="-9" width="80" height="80" filterUnits="userSpaceOnUse" color-interpolation-filters="sRGB">
<feFlood flood-opacity="0" result="BackgroundImageFix"/>
<feColorMatrix in="SourceAlpha" type="matrix" values="0 0 0 0 0 0 0 0 0 0 0 0 0 0 0 0 0 0 127 0" result="hardAlpha"/>
<feOffset dx="2" dy="4"/>
<feGaussianBlur stdDeviation="10"/>
<feColorMatrix type="matrix" values="0 0 0 0 0 0 0 0 0 0 0 0 0 0 0 0 0 0 0.4 0"/>
<feBlend mode="normal" in2="BackgroundImageFix" result="effect1_dropShadow_11079_42495"/>
<feBlend mode="normal" in="SourceGraphic" in2="effect1_dropShadow_11079_42495" result="shape"/>
</filter>
<linearGradient id="paint0_linear_11079_42495" x1="0" y1="27" x2="40" y2="27" gradientUnits="userSpaceOnUse">
<stop offset="0.2" stop-color="#58321A"/>
<stop offset="0.845" stop-color="#95613F"/>
</linearGradient>
</defs>
</svg>
