<svg width="24" height="24" viewBox="0 0 24 24" fill="current" stroke="current" xmlns="http://www.w3.org/2000/svg">
<rect width="2" height="5" transform="matrix(-1 0 0 1 10 10)" fill="current"/>
<path d="M9.14812 3.09354C9.1072 3.03493 9.04023 3 8.96875 3C8.89727 3 8.8303 3.03493 8.78938 3.09354C8.60563 3.35822 7 5.712 7 6.71825C7 7.24041 7.20743 7.74119 7.57664 8.11038C7.94585 8.47959 8.44662 8.68702 8.96876 8.68702C9.4909 8.68702 9.99169 8.47959 10.3609 8.11038C10.7301 7.74117 10.9375 7.2404 10.9375 6.71825C10.9375 5.712 9.3319 3.35825 9.14815 3.09354H9.14812Z" fill="current"/>
<path d="M15.5533 3.34559C16.5781 3.62149 17.3785 4.42196 17.6544 5.44662L17.8721 6.25551L18.0899 5.44662C18.3659 4.42188 19.1664 3.62144 20.1911 3.34559L21 3.12783L20.1911 2.91007C19.1664 2.63405 18.3659 1.83362 18.0901 0.808887L17.8723 0L17.6545 0.808887C17.3786 1.83362 16.5782 2.63399 15.5535 2.90992L14.7446 3.12768L15.5533 3.34559ZM13.4511 6.13403C14.0227 5.98015 14.4691 5.53377 14.623 4.96218L14.7444 4.51108L14.8659 4.96218C15.0198 5.53373 15.4661 5.98018 16.0377 6.13403L16.4888 6.25552L16.0377 6.37694C15.4662 6.53081 15.0197 6.97728 14.8659 7.54879L14.7445 8L14.6231 7.54891C14.4692 6.97735 14.0227 6.53091 13.4512 6.37706L13 6.25553L13.4511 6.13403Z" fill="current"/>
<path d="M17 16C17 17.0506 16.7931 18.0909 16.391 19.0615C15.989 20.0321 15.3997 20.914 14.6569 21.6569C13.914 22.3997 13.0321 22.989 12.0615 23.391C11.0909 23.7931 10.0506 24 9 24C7.94942 24 6.90914 23.7931 5.93853 23.391C4.96793 22.989 4.08601 22.3997 3.34315 21.6569C2.60028 20.914 2.011 20.0321 1.60896 19.0615C1.20693 18.0909 1 17.0506 1 16H2.97837C2.97837 16.7908 3.13412 17.5738 3.43674 18.3044C3.73936 19.035 4.18291 19.6988 4.74207 20.2579C5.30123 20.8171 5.96504 21.2606 6.69562 21.5633C7.4262 21.8659 8.20923 22.0216 9 22.0216C9.79077 22.0216 10.5738 21.8659 11.3044 21.5633C12.035 21.2606 12.6988 20.8171 13.2579 20.2579C13.8171 19.6988 14.2606 19.035 14.5633 18.3044C14.8659 17.5738 15.0216 16.7908 15.0216 16H17Z" fill="current"/>
<line x1="1" y1="15" x2="17" y2="15" stroke="current" stroke-width="2"/>
<path d="M19.5001 15.5985C19.9561 15.3352 20.3348 14.9565 20.5981 14.5004C20.8614 14.0444 21.0001 13.527 21.0001 13.0004C21.0001 12.4738 20.8614 11.9565 20.5981 11.5004C20.3348 11.0444 19.9561 10.6656 19.5001 10.4023C19.044 10.139 18.5267 10.0004 18.0001 10.0004C17.4735 10.0004 16.9561 10.139 16.5001 10.4023C16.044 10.6656 15.6653 11.0444 15.402 11.5004C15.1387 11.9565 15.0001 12.4738 15.0001 13.0004L16.9956 13.0004C16.9956 12.8241 17.042 12.6509 17.1302 12.4982C17.2183 12.3455 17.3451 12.2187 17.4978 12.1305C17.6505 12.0424 17.8237 11.996 18.0001 11.996C18.1764 11.996 18.3496 12.0424 18.5023 12.1305C18.655 12.2187 18.7818 12.3455 18.87 12.4982C18.9581 12.6509 19.0045 12.8241 19.0045 13.0004C19.0045 13.1767 18.9581 13.35 18.87 13.5026C18.7818 13.6553 18.655 13.7821 18.5023 13.8703L19.5001 15.5985Z" fill="current"/>
<line x1="16" y1="13" x2="16" y2="14" stroke="current" stroke-width="2"/>
</svg>
