<svg width="25" height="38" viewBox="0 0 25 38" fill="none" xmlns="http://www.w3.org/2000/svg">
<path fill-rule="evenodd" clip-rule="evenodd" d="M12.4699 0.832031L14.5451 14.4652C14.9075 14.6202 15.2491 14.8145 15.5645 15.0427L21.2266 10.5687L16.7525 16.2308C17.063 16.6598 17.3107 17.1372 17.4819 17.6497L24.8538 19.3254L17.4819 21.0012C17.3106 21.5136 17.063 21.991 16.7525 22.42L21.2265 28.0821L15.5644 23.608C15.2491 23.8363 14.9075 24.0306 14.5451 24.1855L12.4698 37.8187L10.3946 24.1855C10.0322 24.0306 9.6906 23.8363 9.37525 23.608L3.71309 28.0821L8.18719 22.4199C7.8767 21.991 7.62908 21.5135 7.45784 21.0011L0.0859375 19.3253L7.45786 17.6496C7.62911 17.1372 7.87673 16.6597 8.18722 16.2308L3.71315 10.5687L9.37529 15.0427C9.69064 14.8145 10.0322 14.6202 10.3946 14.4652L12.4699 0.832031Z" fill="#BD7B4F" fill-opacity="0.25"/>
</svg>
