<svg width="28" height="26" viewBox="0 0 28 26" fill="none" xmlns="http://www.w3.org/2000/svg">
<path style="mix-blend-mode:screen" opacity="0.79" d="M8.03571 25.3933C12.4737 25.3933 16.0714 19.9947 16.0714 13.3352C16.0714 6.6757 12.4737 1.2771 8.03571 1.2771C3.59771 1.2771 0 6.6757 0 13.3352C0 19.9947 3.59771 25.3933 8.03571 25.3933Z" fill="url(#paint0_radial_8730_44290)"/>
<path d="M6.3745 6.00704C9.58183 6.06548 11.3146 7.82764 11.3451 8.89547C11.3755 9.96331 13.541 19.248 11.6685 20.2383C9.79603 21.2287 8.00735 22.0144 6.82276 21.7241C5.63817 21.4338 4.57278 19.0047 4.55229 18.2926C4.53181 17.5805 4.48586 8.24626 4.7907 7.60403C5.06015 7.03676 4.83478 5.97845 6.3745 6.0064V6.00704Z" fill="url(#paint1_linear_8730_44290)"/>
<path style="mix-blend-mode:screen" d="M5.56835 6.86584C6.49963 7.36323 7.80963 9.2607 8.27527 10.2663C8.74153 11.2719 8.69062 15.4511 8.98304 16.1721C9.27547 16.8937 7.94063 19.7053 7.38124 20.7147C6.82185 21.7241 6.77405 21.6383 6.44934 21.3627C6.12463 21.087 4.80221 19.1571 4.75999 18.471C4.71778 17.785 4.98723 8.53271 4.95494 7.84665C4.92328 7.16123 5.2306 6.68543 5.56835 6.86584Z" fill="url(#paint2_linear_8730_44290)"/>
<path style="mix-blend-mode:multiply" d="M7.52024 21.6161C7.14835 21.5278 8.22056 20.1233 8.5254 19.0339C8.83024 17.9444 9.15681 17.1053 9.70875 16.6149C10.2607 16.1245 10.9877 15.6074 11.6787 15.852C12.3697 16.0965 12.2251 17.5493 12.1642 18.4272C12.1257 18.978 12.0065 19.9073 11.5968 20.1144C10.7996 20.5172 8.59183 21.8696 7.52086 21.6161H7.52024Z" fill="url(#paint3_linear_8730_44290)"/>
<path style="mix-blend-mode:screen" opacity="0.64" d="M6.75553 21.5432C6.311 21.5438 4.75887 19.3618 4.8104 18.7126C4.86193 18.0627 4.6943 8.5646 5.25989 8.57032C5.82611 8.57603 3.85739 17.1422 6.86108 17.1645C7.70482 17.1708 8.651 16.1278 8.82173 16.4479C8.99247 16.7681 7.0939 21.5425 6.75553 21.5432Z" fill="url(#paint4_linear_8730_44290)"/>
<path style="mix-blend-mode:screen" opacity="0.57" d="M8.29255 9.34075C7.46123 9.15335 6.89935 7.98451 7.36996 7.81617C7.84057 7.64784 8.75447 7.56017 9.5324 8.04677C10.3103 8.53336 10.5711 8.74934 9.99928 8.9469C9.42809 9.1451 8.73336 9.43985 8.29255 9.34075Z" fill="url(#paint5_linear_8730_44290)"/>
<path opacity="0.4" d="M9.13753 6.56911C9.13753 6.56911 11.0342 7.75701 10.9163 8.28045C10.7983 8.80389 9.51253 9.08657 9.2108 9.1412C8.90906 9.19583 8.35588 9.03257 8.27331 8.99509C8.19073 8.95825 7.59782 8.4742 7.45688 8.29824C7.31595 8.12164 6.7013 8.01301 6.466 7.8434C6.2307 7.67379 5.59184 6.6428 5.55707 6.49034C5.52292 6.33789 5.72097 6.08252 5.72097 6.08252C5.72097 6.08252 5.11378 6.27055 5.05418 6.6968C5.01506 6.97694 4.84619 7.45527 4.84619 7.45527C4.84619 7.45527 4.99395 6.841 5.37888 6.84925C5.76381 6.85688 6.21393 7.85738 6.37598 7.98252C6.53802 8.10766 7.21972 8.72004 7.3532 8.92077C7.48668 9.12151 7.83374 9.7091 8.05601 10.0794C8.19756 10.3158 8.23171 10.7572 8.22674 11.1187C8.22177 11.4802 8.44901 15.3253 8.19694 15.7934C8.05539 16.0564 8.27703 16.3823 8.08953 16.5087C7.90266 16.6351 7.63445 16.8924 7.15887 17.0239C6.72924 17.1427 6.17482 16.9693 6.17482 16.9693C6.17482 16.9693 6.71372 17.238 7.14273 17.1312C8.18142 16.8727 8.17832 16.463 8.44963 16.4102C8.72094 16.3575 8.82959 16.4128 8.83207 16.503C8.83456 16.5932 8.59739 17.9964 8.19942 18.9372C7.82008 19.8336 7.07816 21.2304 7.07816 21.2304C7.07816 21.2304 8.41548 19.185 8.52165 18.9328C8.62719 18.6812 9.03758 16.9165 9.39395 16.7209C9.75032 16.5259 9.79378 16.449 10.0042 16.287C10.2147 16.1257 10.8598 15.742 11.3018 15.749C11.7433 15.756 11.9159 15.8493 11.9159 15.8493C11.9159 15.8493 11.6036 15.6181 11.2205 15.6797C10.8374 15.742 9.92229 16.4897 9.33931 16.2997C8.75695 16.1098 8.51296 13.8826 8.51296 13.8826C8.51296 13.8826 8.46888 12.144 8.45149 11.1073C8.4459 10.7719 8.26399 9.68751 8.41796 9.5198C8.57132 9.35273 9.30765 9.30509 9.59883 9.19329C9.89001 9.08149 10.9691 8.81596 11.0268 8.46912C11.0845 8.12291 10.7505 7.67379 10.5531 7.47814C10.1148 7.04364 9.13753 6.56911 9.13753 6.56911Z" fill="white"/>
<path style="mix-blend-mode:multiply" d="M7.44828 21.5361C7.18876 21.4142 8.53664 19.4405 8.90853 19.1819C9.25124 18.9437 11.8253 18.2068 11.8334 18.5079C11.8483 19.0295 11.8228 19.8737 10.5675 20.5509C9.07119 21.3583 7.7674 21.6867 7.44828 21.5361Z" fill="url(#paint6_linear_8730_44290)"/>
<path style="mix-blend-mode:multiply" opacity="0.4" d="M9.01663 9.76625C8.82975 10.0114 9.3581 11.186 9.32519 11.7819C9.29229 12.3777 9.3997 15.2128 9.54063 15.491C9.68156 15.7693 10.9934 13.6476 10.629 12.6115C10.2645 11.5754 9.37921 9.29045 9.01663 9.76625Z" fill="url(#paint7_linear_8730_44290)"/>
<path d="M7.10948 8.32621C8.40644 9.0345 8.34808 9.26128 8.27668 9.73962C8.20528 10.2173 8.44928 10.5972 8.2028 10.3622C7.95632 10.1265 8.11092 9.75868 7.83215 9.49251C7.55277 9.22698 6.79222 8.15279 7.10948 8.32621Z" fill="white"/>
<path d="M5.80275 7.00373C5.59352 6.94465 5.01675 6.65054 5.23963 6.45425C5.46252 6.25796 5.59414 6.21794 5.57117 6.27511C5.54882 6.33228 5.38988 6.47839 5.49046 6.60607C5.59104 6.73439 5.9263 7.03867 5.80275 7.00373Z" fill="white"/>
<path d="M9.35942 6.67026C9.35942 6.67026 8.60136 6.36979 8.16241 6.27514C7.72285 6.18049 6.7121 6.01978 6.7121 6.01978C6.7121 6.01978 7.40559 6.01851 8.20525 6.2491C9.00491 6.47969 9.35942 6.67026 9.35942 6.67026Z" fill="white"/>
<path opacity="0.51" d="M8.3702 15.8818C8.68622 15.514 8.42856 14.6195 8.60675 14.7599C8.83212 14.9372 8.71664 15.7763 8.84454 16.0889C8.91966 16.2731 8.83584 16.3461 8.4714 16.3353C8.10696 16.3245 8.21934 16.0565 8.3702 15.8811V15.8818Z" fill="white"/>
<path style="mix-blend-mode:multiply" d="M7.85394 21.7482C7.85394 21.7482 10.5888 20.3437 11.1556 19.5223C11.7225 18.701 11.9832 14.826 11.9832 14.826L11.332 8.76074C11.332 8.76074 13.3895 18.2595 11.9553 19.9835C11.0116 21.1187 7.85394 21.7476 7.85394 21.7476V21.7482Z" fill="url(#paint8_linear_8730_44290)"/>
<g opacity="0.85">
<path style="mix-blend-mode:screen" opacity="0.63" d="M7.09163 15.5008C7.72974 15.5008 8.24704 12.3087 8.24704 8.3709C8.24704 4.43315 7.72974 1.24097 7.09163 1.24097C6.45351 1.24097 5.93622 4.43315 5.93622 8.3709C5.93622 12.3087 6.45351 15.5008 7.09163 15.5008Z" fill="url(#paint9_radial_8730_44290)"/>
<path style="mix-blend-mode:screen" opacity="0.57" d="M7.09314 13.369C9.8071 13.369 12.0072 11.1407 12.0072 8.3919C12.0072 5.64312 9.8071 3.41479 7.09314 3.41479C4.37918 3.41479 2.17908 5.64312 2.17908 8.3919C2.17908 11.1407 4.37918 13.369 7.09314 13.369Z" fill="url(#paint10_radial_8730_44290)"/>
<path style="mix-blend-mode:screen" opacity="0.63" d="M7.19955 9.5233C11.0481 9.5233 14.168 8.99402 14.168 8.34112C14.168 7.68822 11.0481 7.15894 7.19955 7.15894C3.35097 7.15894 0.231079 7.68822 0.231079 8.34112C0.231079 8.99402 3.35097 9.5233 7.19955 9.5233Z" fill="url(#paint11_radial_8730_44290)"/>
</g>
<g opacity="0.5">
<path style="mix-blend-mode:screen" opacity="0.8" d="M8.78368 5.77556C9.14269 5.42515 9.15609 4.84331 8.81361 4.47599C8.47114 4.10866 7.90248 4.09495 7.54347 4.44536C7.18446 4.79577 7.17106 5.37761 7.51354 5.74493C7.85601 6.11226 8.42467 6.12597 8.78368 5.77556Z" fill="url(#paint12_radial_8730_44290)"/>
</g>
<path d="M8.09615 4.99904C8.15638 4.96092 8.23585 4.97934 8.2731 5.0416C8.31035 5.10322 8.29234 5.18453 8.2315 5.22264C8.17128 5.26075 8.09181 5.24233 8.05456 5.18008C8.01731 5.11846 8.03531 5.03715 8.09615 4.99904Z" fill="#FFCEC2"/>
<g opacity="0.5">
<path style="mix-blend-mode:screen" opacity="0.8" d="M9.42399 8.77901C9.53687 8.28466 9.2367 7.79029 8.75355 7.6748C8.2704 7.55931 7.78723 7.86643 7.67435 8.36077C7.56148 8.85511 7.86164 9.34948 8.34479 9.46498C8.82794 9.58047 9.31111 9.27335 9.42399 8.77901Z" fill="url(#paint13_radial_8730_44290)"/>
</g>
<path d="M8.54929 8.70122C8.62027 8.70122 8.67781 8.64235 8.67781 8.56973C8.67781 8.4971 8.62027 8.43823 8.54929 8.43823C8.47831 8.43823 8.42078 8.4971 8.42078 8.56973C8.42078 8.64235 8.47831 8.70122 8.54929 8.70122Z" fill="#FFCEC2"/>
<g opacity="0.5">
<path style="mix-blend-mode:screen" opacity="0.8" d="M7.57572 12.1926C7.15416 12.4606 6.60036 12.3279 6.33836 11.8965C6.07636 11.4652 6.20611 10.8986 6.62767 10.6305C7.04923 10.3624 7.60304 10.4952 7.86504 10.9265C8.12704 11.3578 7.99728 11.9245 7.57572 12.1926Z" fill="url(#paint14_radial_8730_44290)"/>
</g>
<path d="M7.03359 11.3001C7.09382 11.2619 7.17329 11.2804 7.21054 11.3426C7.24779 11.4042 7.22978 11.4856 7.16894 11.5237C7.1081 11.5618 7.02925 11.5434 6.992 11.4811C6.95474 11.4189 6.97275 11.3382 7.03359 11.3001Z" fill="#FFCEC2"/>
<g opacity="0.5">
<path style="mix-blend-mode:screen" opacity="0.8" d="M4.52034 17.4289C4.61357 16.9303 4.29409 16.4488 3.80677 16.3534C3.31945 16.258 2.84882 16.5849 2.75559 17.0835C2.66237 17.5821 2.98184 18.0637 3.46917 18.159C3.95649 18.2544 4.42712 17.9275 4.52034 17.4289Z" fill="url(#paint15_radial_8730_44290)"/>
</g>
<path d="M3.57021 17.1448C3.63044 17.1067 3.70991 17.1251 3.74716 17.1873C3.78441 17.249 3.7664 17.3303 3.70556 17.3684C3.64534 17.4065 3.56587 17.3881 3.52862 17.3258C3.49137 17.2636 3.50937 17.1829 3.57021 17.1448Z" fill="#FFCEC2"/>
<g opacity="0.5">
<path style="mix-blend-mode:screen" opacity="0.8" d="M8.55613 3.96303C9.07018 3.10238 8.805 1.9783 7.96384 1.45234C7.12268 0.926371 6.02405 1.19769 5.51 2.05835C4.99595 2.919 5.26112 4.04308 6.10229 4.56904C6.94345 5.09501 8.04207 4.82369 8.55613 3.96303Z" fill="url(#paint16_radial_8730_44290)"/>
</g>
<path d="M6.95151 3.25839C6.81803 3.21201 6.74601 3.064 6.79133 2.92679C6.83666 2.79022 6.98131 2.71653 7.11542 2.7629C7.2489 2.80927 7.32092 2.95728 7.2756 3.0945C7.23028 3.23107 7.08562 3.30476 6.95151 3.25839Z" fill="#FFCEC2"/>
<g opacity="0.5">
<path style="mix-blend-mode:screen" opacity="0.8" d="M5.03154 9.90249C5.64764 9.11509 5.52323 7.96576 4.75366 7.33538C3.9841 6.70501 2.86079 6.8323 2.24469 7.6197C1.6286 8.4071 1.75301 9.55643 2.52257 10.1868C3.29214 10.8172 4.41544 10.6899 5.03154 9.90249Z" fill="url(#paint17_radial_8730_44290)"/>
</g>
<path d="M3.55613 9.00863C3.42264 8.96226 3.35063 8.81425 3.39595 8.67704C3.44127 8.54046 3.58593 8.46677 3.72003 8.51314C3.85352 8.55952 3.92554 8.70753 3.88021 8.84474C3.83489 8.98132 3.69023 9.055 3.55613 9.00863Z" fill="#FFCEC2"/>
<g opacity="0.5">
<path style="mix-blend-mode:screen" opacity="0.8" d="M7.88666 24.6957C8.77172 24.2515 9.13724 23.1573 8.70308 22.2517C8.26892 21.3462 7.19949 20.9722 6.31444 21.4164C5.42939 21.8606 5.06387 22.9548 5.49803 23.8604C5.93218 24.7659 7.00161 25.1399 7.88666 24.6957Z" fill="url(#paint18_radial_8730_44290)"/>
</g>
<path d="M7.01841 23.304C6.88492 23.2577 6.81291 23.1097 6.85823 22.9724C6.90355 22.8359 7.04821 22.7622 7.18231 22.8086C7.3158 22.8549 7.38782 23.0029 7.34249 23.1401C7.29717 23.2767 7.15251 23.3504 7.01841 23.304Z" fill="#FFCEC2"/>
<defs>
<radialGradient id="paint0_radial_8730_44290" cx="0" cy="0" r="1" gradientUnits="userSpaceOnUse" gradientTransform="translate(8.08364 13.4429) scale(8.0644 12.0822)">
<stop offset="0.35" stop-color="#FC4900"/>
<stop offset="0.6" stop-color="#912A00"/>
<stop offset="0.79" stop-color="#431300"/>
<stop offset="0.93" stop-color="#120500"/>
<stop offset="1"/>
</radialGradient>
<linearGradient id="paint1_linear_8730_44290" x1="9.30113" y1="7.29692" x2="8.62664" y2="19.9032" gradientUnits="userSpaceOnUse">
<stop stop-color="#FA430A"/>
<stop offset="0.37" stop-color="#E02737"/>
<stop offset="0.79" stop-color="#C60A66"/>
<stop offset="1" stop-color="#BD0078"/>
</linearGradient>
<linearGradient id="paint2_linear_8730_44290" x1="6.30002" y1="7.19285" x2="7.06546" y2="19.8829" gradientUnits="userSpaceOnUse">
<stop stop-color="#FA5D19"/>
<stop offset="0.03" stop-color="#FA5A19"/>
<stop offset="0.68" stop-color="#FD2B25"/>
<stop offset="1" stop-color="#FF1A2A"/>
</linearGradient>
<linearGradient id="paint3_linear_8730_44290" x1="9.26847" y1="21.0048" x2="9.95728" y2="15.7072" gradientUnits="userSpaceOnUse">
<stop stop-color="#FA430A"/>
<stop offset="0.37" stop-color="#E02737"/>
<stop offset="0.79" stop-color="#C60A66"/>
<stop offset="1" stop-color="#BD0078"/>
</linearGradient>
<linearGradient id="paint4_linear_8730_44290" x1="6.23189" y1="8.68861" x2="7.08923" y2="21.1774" gradientUnits="userSpaceOnUse">
<stop stop-color="#FA5D19"/>
<stop offset="0.03" stop-color="#FA5A19"/>
<stop offset="0.68" stop-color="#FD2B25"/>
<stop offset="1" stop-color="#FF1A2A"/>
</linearGradient>
<linearGradient id="paint5_linear_8730_44290" x1="8.10426" y1="9.35589" x2="8.34878" y2="7.80069" gradientUnits="userSpaceOnUse">
<stop stop-color="#FA5D19"/>
<stop offset="0.03" stop-color="#FA5A19"/>
<stop offset="0.68" stop-color="#FD2B25"/>
<stop offset="1" stop-color="#FF1A2A"/>
</linearGradient>
<linearGradient id="paint6_linear_8730_44290" x1="11.6418" y1="19.8764" x2="7.15177" y2="19.9653" gradientUnits="userSpaceOnUse">
<stop stop-color="#FA430A"/>
<stop offset="0.37" stop-color="#E02737"/>
<stop offset="0.79" stop-color="#C60A66"/>
<stop offset="1" stop-color="#BD0078"/>
</linearGradient>
<linearGradient id="paint7_linear_8730_44290" x1="8.43458" y1="13.3468" x2="9.66189" y2="9.83183" gradientUnits="userSpaceOnUse">
<stop stop-color="#FA430A"/>
<stop offset="0.37" stop-color="#E02737"/>
<stop offset="0.79" stop-color="#C60A66"/>
<stop offset="1" stop-color="#BD0078"/>
</linearGradient>
<linearGradient id="paint8_linear_8730_44290" x1="7.67592" y1="13.2217" x2="12.4638" y2="18.0735" gradientUnits="userSpaceOnUse">
<stop stop-color="#FA430A"/>
<stop offset="0.37" stop-color="#E02737"/>
<stop offset="0.79" stop-color="#C60A66"/>
<stop offset="1" stop-color="#BD0078"/>
</linearGradient>
<radialGradient id="paint9_radial_8730_44290" cx="0" cy="0" r="1" gradientUnits="userSpaceOnUse" gradientTransform="translate(7.17091 8.35186) scale(1.03149 6.40268)">
<stop stop-color="#FC9C86"/>
<stop offset="0.38" stop-color="#915A4D"/>
<stop offset="0.68" stop-color="#432923"/>
<stop offset="0.89" stop-color="#120B09"/>
<stop offset="1"/>
</radialGradient>
<radialGradient id="paint10_radial_8730_44290" cx="0" cy="0" r="1" gradientUnits="userSpaceOnUse" gradientTransform="translate(7.16699 8.47369) scale(4.92905 5.04327)">
<stop stop-color="#FC9C86"/>
<stop offset="0.38" stop-color="#915A4D"/>
<stop offset="0.68" stop-color="#432923"/>
<stop offset="0.89" stop-color="#120B09"/>
<stop offset="1"/>
</radialGradient>
<radialGradient id="paint11_radial_8730_44290" cx="0" cy="0" r="1" gradientUnits="userSpaceOnUse" gradientTransform="translate(7.24643 8.42395) rotate(90) scale(1.07826 6.39328)">
<stop stop-color="#FC9C86"/>
<stop offset="0.38" stop-color="#915A4D"/>
<stop offset="0.68" stop-color="#432923"/>
<stop offset="0.89" stop-color="#120B09"/>
<stop offset="1"/>
</radialGradient>
<radialGradient id="paint12_radial_8730_44290" cx="0" cy="0" r="1" gradientUnits="userSpaceOnUse" gradientTransform="translate(8.1588 5.10665) rotate(-121.275) scale(0.91344 0.904033)">
<stop stop-color="#FE4700"/>
<stop offset="0.08" stop-color="#E33F00"/>
<stop offset="0.34" stop-color="#932900"/>
<stop offset="0.57" stop-color="#541700"/>
<stop offset="0.77" stop-color="#260A00"/>
<stop offset="0.91" stop-color="#0A0200"/>
<stop offset="1"/>
</radialGradient>
<radialGradient id="paint13_radial_8730_44290" cx="0" cy="0" r="1" gradientUnits="userSpaceOnUse" gradientTransform="translate(8.55289 8.56918) rotate(-121.265) scale(0.913443 0.90403)">
<stop stop-color="#FE4700"/>
<stop offset="0.08" stop-color="#E33F00"/>
<stop offset="0.34" stop-color="#932900"/>
<stop offset="0.57" stop-color="#541700"/>
<stop offset="0.77" stop-color="#260A00"/>
<stop offset="0.91" stop-color="#0A0200"/>
<stop offset="1"/>
</radialGradient>
<radialGradient id="paint14_radial_8730_44290" cx="0" cy="0" r="1" gradientUnits="userSpaceOnUse" gradientTransform="translate(7.103 11.41) rotate(-121.265) scale(0.913443 0.90403)">
<stop stop-color="#FE4700"/>
<stop offset="0.08" stop-color="#E33F00"/>
<stop offset="0.34" stop-color="#932900"/>
<stop offset="0.57" stop-color="#541700"/>
<stop offset="0.77" stop-color="#260A00"/>
<stop offset="0.91" stop-color="#0A0200"/>
<stop offset="1"/>
</radialGradient>
<radialGradient id="paint15_radial_8730_44290" cx="0" cy="0" r="1" gradientUnits="userSpaceOnUse" gradientTransform="translate(3.63992 17.2557) rotate(-121.265) scale(0.913443 0.90403)">
<stop stop-color="#FE4700"/>
<stop offset="0.08" stop-color="#E33F00"/>
<stop offset="0.34" stop-color="#932900"/>
<stop offset="0.57" stop-color="#541700"/>
<stop offset="0.77" stop-color="#260A00"/>
<stop offset="0.91" stop-color="#0A0200"/>
<stop offset="1"/>
</radialGradient>
<radialGradient id="paint16_radial_8730_44290" cx="0" cy="0" r="1" gradientUnits="userSpaceOnUse" gradientTransform="translate(7.03011 3.01291) rotate(108.266) scale(1.82212 1.78906)">
<stop stop-color="#FE4700"/>
<stop offset="0.08" stop-color="#E33F00"/>
<stop offset="0.34" stop-color="#932900"/>
<stop offset="0.57" stop-color="#541700"/>
<stop offset="0.77" stop-color="#260A00"/>
<stop offset="0.91" stop-color="#0A0200"/>
<stop offset="1"/>
</radialGradient>
<radialGradient id="paint17_radial_8730_44290" cx="0" cy="0" r="1" gradientUnits="userSpaceOnUse" gradientTransform="translate(3.63832 8.75693) rotate(108.276) scale(1.82212 1.78907)">
<stop stop-color="#FE4700"/>
<stop offset="0.08" stop-color="#E33F00"/>
<stop offset="0.34" stop-color="#932900"/>
<stop offset="0.57" stop-color="#541700"/>
<stop offset="0.77" stop-color="#260A00"/>
<stop offset="0.91" stop-color="#0A0200"/>
<stop offset="1"/>
</radialGradient>
<radialGradient id="paint18_radial_8730_44290" cx="0" cy="0" r="1" gradientUnits="userSpaceOnUse" gradientTransform="translate(7.09859 23.0591) rotate(108.266) scale(1.82212 1.78906)">
<stop stop-color="#FE4700"/>
<stop offset="0.08" stop-color="#E33F00"/>
<stop offset="0.34" stop-color="#932900"/>
<stop offset="0.57" stop-color="#541700"/>
<stop offset="0.77" stop-color="#260A00"/>
<stop offset="0.91" stop-color="#0A0200"/>
<stop offset="1"/>
</radialGradient>
</defs>
</svg>
