<svg width="17" height="17" viewBox="0 0 17 17" fill="none" xmlns="http://www.w3.org/2000/svg">
<path d="M7.83333 5.16683H9.16666V6.50016H7.83333V5.16683ZM7.83333 7.8335H9.16666V11.8335H7.83333V7.8335ZM8.5 1.8335C4.81999 1.8335 1.83333 4.82016 1.83333 8.50016C1.83333 12.1802 4.81999 15.1668 8.5 15.1668C12.18 15.1668 15.1667 12.1802 15.1667 8.50016C15.1667 4.82016 12.18 1.8335 8.5 1.8335ZM8.5 13.8335C5.56 13.8335 3.16666 11.4402 3.16666 8.50016C3.16666 5.56016 5.56 3.16683 8.5 3.16683C11.44 3.16683 13.8333 5.56016 13.8333 8.50016C13.8333 11.4402 11.44 13.8335 8.5 13.8335Z" fill="#FFDEC9"/>
</svg>
