<svg width="24" height="25" fill="none" xmlns="http://www.w3.org/2000/svg"><g filter="url(#filter0_i_3925_425)"><path d="M23.763 23.04L16.139 1.082a.948.948 0 0 0-.899-.638H9.235a.954.954 0 0 0-.9.638L.719 23.039a.946.946 0 0 0 .898 1.258h21.247a.953.953 0 0 0 .941-.813.946.946 0 0 0-.042-.445z" fill="url(#paint0_linear_3925_425)"/><path fill-rule="evenodd" clip-rule="evenodd" d="M14.248 4.074h-4.015v.002a.952.952 0 0 0-.909.636L3.941 20.234a.948.948 0 0 0 .898 1.26h14.793a.952.952 0 0 0 .942-.815.945.945 0 0 0-.043-.445L15.147 4.712a.948.948 0 0 0-.899-.638zm-.875.81h-2.266a.943.943 0 0 0-.52.156.828.828 0 0 0-.322.406L5.283 19.268a.76.76 0 0 0 .123.738c.083.105.191.191.316.25.126.06.265.09.406.09h12.226c.141 0 .28-.03.405-.09a.875.875 0 0 0 .316-.25.76.76 0 0 0 .122-.738l-4.98-13.822a.83.83 0 0 0-.324-.406.946.946 0 0 0-.52-.156z" fill="#361D0C"/><path fill-rule="evenodd" clip-rule="evenodd" d="M12.147 16.502a1.895 1.895 0 1 1 0-3.79 1.895 1.895 0 0 1 0 3.79zm-3.391-1.895a3.391 3.391 0 1 0 6.782 0 3.391 3.391 0 0 0-6.782 0z" fill="#382315"/><g filter="url(#filter1_d_3925_425)"><path d="M14.128 14.605a1.98 1.98 0 1 0-3.962 0 1.98 1.98 0 0 0 3.962 0z" fill="#FFDEC9"/></g></g><defs><filter id="filter0_i_3925_425" x=".667" y=".445" width="23.148" height="23.852" filterUnits="userSpaceOnUse" color-interpolation-filters="sRGB"><feFlood flood-opacity="0" result="BackgroundImageFix"/><feBlend in="SourceGraphic" in2="BackgroundImageFix" result="shape"/><feColorMatrix in="SourceAlpha" values="0 0 0 0 0 0 0 0 0 0 0 0 0 0 0 0 0 0 127 0" result="hardAlpha"/><feOffset/><feGaussianBlur stdDeviation="7.484"/><feComposite in2="hardAlpha" operator="arithmetic" k2="-1" k3="1"/><feColorMatrix values="0 0 0 0 0 0 0 0 0 0 0 0 0 0 0 0 0 0 0.25 0"/><feBlend in2="shape" result="effect1_innerShadow_3925_425"/></filter><filter id="filter1_d_3925_425" x="4.18" y="6.638" width="15.935" height="15.935" filterUnits="userSpaceOnUse" color-interpolation-filters="sRGB"><feFlood flood-opacity="0" result="BackgroundImageFix"/><feColorMatrix in="SourceAlpha" values="0 0 0 0 0 0 0 0 0 0 0 0 0 0 0 0 0 0 127 0" result="hardAlpha"/><feOffset/><feGaussianBlur stdDeviation="2.993"/><feComposite in2="hardAlpha" operator="out"/><feColorMatrix values="0 0 0 0 1 0 0 0 0 1 0 0 0 0 1 0 0 0 1 0"/><feBlend in2="BackgroundImageFix" result="effect1_dropShadow_3925_425"/><feBlend in="SourceGraphic" in2="effect1_dropShadow_3925_425" result="shape"/></filter><linearGradient id="paint0_linear_3925_425" x1="12.241" y1="24.297" x2="12.241" y2=".445" gradientUnits="userSpaceOnUse"><stop stop-color="#FFDEC9"/><stop offset="1" stop-color="#BD7B4F"/></linearGradient></defs></svg>