<svg width="21" height="20" viewBox="0 0 21 20" fill="none" xmlns="http://www.w3.org/2000/svg">
<path d="M16.5752 14.2L15.5002 13.125V8.95833C15.5002 6.4 14.1335 4.25833 11.7502 3.69167V3.125C11.7502 2.43333 11.1918 1.875 10.5002 1.875C9.8085 1.875 9.25017 2.43333 9.25017 3.125V3.69167C6.8585 4.25833 5.50016 6.39167 5.50016 8.95833V13.125L4.42516 14.2C3.90016 14.725 4.26683 15.625 5.0085 15.625H15.9835C16.7335 15.625 17.1002 14.725 16.5752 14.2ZM13.8335 13.9583H7.16683V8.95833C7.16683 6.89167 8.42517 5.20833 10.5002 5.20833C12.5752 5.20833 13.8335 6.89167 13.8335 8.95833V13.9583ZM10.5002 18.125C11.4168 18.125 12.1668 17.375 12.1668 16.4583H8.8335C8.8335 17.375 9.57517 18.125 10.5002 18.125Z" fill="#BD7B4F"/>
</svg>
