<svg width="20" height="20" viewBox="0 0 20 20" fill="none" xmlns="http://www.w3.org/2000/svg">
<path d="M5.83332 5.83324H14.1667V7.32491C14.1667 7.69991 14.6167 7.88324 14.875 7.61658L17.2 5.29158C17.3667 5.12491 17.3667 4.86658 17.2 4.69991L14.875 2.37491C14.6167 2.11658 14.1667 2.29991 14.1667 2.67491V4.16658H4.99999C4.54165 4.16658 4.16665 4.54158 4.16665 4.99991V8.33324C4.16665 8.79158 4.54165 9.16658 4.99999 9.16658C5.45832 9.16658 5.83332 8.79158 5.83332 8.33324V5.83324ZM14.1667 14.1666H5.83332V12.6749C5.83332 12.2999 5.38332 12.1166 5.12499 12.3832L2.79999 14.7082C2.63332 14.8749 2.63332 15.1332 2.79999 15.2999L5.12499 17.6249C5.38332 17.8832 5.83332 17.6999 5.83332 17.3249V15.8332H15C15.4583 15.8332 15.8333 15.4582 15.8333 14.9999V11.6666C15.8333 11.2082 15.4583 10.8332 15 10.8332C14.5417 10.8332 14.1667 11.2082 14.1667 11.6666V14.1666Z" fill="#FFDEC9"/>
</svg>
