<?xml version="1.0" standalone="no"?>
<!DOCTYPE svg PUBLIC "-//W3C//DTD SVG 20010904//EN"
 "http://www.w3.org/TR/2001/REC-SVG-20010904/DTD/svg10.dtd">
<svg version="1.0" xmlns="http://www.w3.org/2000/svg"
 width="700.000000pt" height="700.000000pt" viewBox="0 0 700.000000 700.000000"
 preserveAspectRatio="xMidYMid meet">
<metadata>
Created by potrace 1.14, written by Peter Selinger 2001-2017
</metadata>
<g transform="translate(0.000000,700.000000) scale(0.100000,-0.100000)"
fill="#000000" stroke="none">
<path d="M3459 6982 c15 -28 41 -170 45 -241 3 -73 -12 -166 -38 -226 -9 -21
-48 -93 -86 -160 -80 -138 -108 -211 -116 -304 -4 -36 -7 -68 -7 -71 -5 -26
25 -106 76 -209 58 -116 62 -128 61 -190 -1 -86 -24 -147 -121 -324 -128 -231
-148 -291 -153 -452 l-2 -50 -29 61 c-32 65 -57 177 -53 234 10 154 12 374 3
420 -14 75 -60 166 -108 216 -21 23 -72 61 -113 85 -127 74 -159 100 -184 154
-22 46 -23 59 -19 207 4 175 -5 230 -56 333 -60 121 -190 223 -348 274 -28 9
-39 8 -58 -5 -35 -22 -39 -42 -14 -72 55 -70 124 -194 146 -265 22 -68 24 -91
21 -190 -2 -61 -7 -123 -10 -137 -4 -14 -9 -73 -13 -132 -5 -84 -2 -123 12
-180 30 -123 40 -137 213 -286 102 -87 123 -146 118 -327 -2 -66 -7 -133 -11
-150 -10 -44 -14 -72 -21 -156 -7 -82 11 -190 47 -282 19 -47 19 -47 0 -38
-72 39 -167 199 -211 356 -36 127 -90 232 -155 297 -91 93 -169 127 -325 142
-127 13 -203 79 -256 221 -48 131 -96 217 -159 280 -100 102 -239 155 -411
158 -99 2 -124 -8 -124 -48 0 -18 16 -33 78 -68 88 -51 178 -119 218 -164 37
-43 68 -119 105 -259 38 -146 73 -221 142 -305 59 -70 115 -102 237 -133 179
-45 233 -119 316 -430 19 -71 43 -149 54 -172 22 -51 111 -186 149 -228 l26
-29 -30 7 c-16 4 -59 21 -95 37 -52 24 -82 49 -155 126 -207 222 -247 258
-327 298 -107 53 -183 57 -328 20 -135 -35 -158 -37 -200 -23 -51 16 -86 42
-191 142 -126 119 -163 148 -235 179 -87 38 -156 50 -248 44 -135 -9 -296 -74
-296 -120 0 -37 14 -47 76 -57 154 -25 281 -77 367 -152 27 -22 91 -93 142
-157 98 -121 108 -132 183 -185 109 -78 178 -91 382 -72 74 7 92 5 140 -13 81
-31 163 -105 279 -254 44 -56 92 -116 108 -133 45 -48 134 -111 204 -143 63
-29 63 -30 29 -32 -137 -6 -190 7 -372 92 -81 38 -174 76 -205 85 -116 31
-249 22 -328 -23 -16 -9 -68 -46 -114 -81 -105 -79 -120 -85 -200 -78 -49 4
-90 17 -180 60 -149 71 -222 89 -326 83 -130 -7 -254 -62 -356 -159 -46 -44
-49 -49 -49 -98 0 -49 1 -51 23 -44 90 30 170 42 267 39 58 -2 121 -6 140 -10
36 -7 167 -68 230 -106 118 -72 231 -110 340 -112 55 -1 152 25 180 48 8 7 53
31 99 53 73 35 92 40 140 38 75 -4 169 -38 266 -95 234 -137 347 -177 513
-183 23 -1 42 -2 42 -4 0 -5 -100 -48 -145 -62 -37 -11 -83 -15 -175 -12 -312
7 -371 5 -443 -18 -127 -42 -174 -84 -267 -237 -101 -167 -125 -179 -339 -172
-225 7 -341 -30 -456 -147 -65 -65 -109 -135 -144 -229 -19 -53 -20 -60 -6
-87 11 -21 23 -30 39 -30 14 0 26 3 28 8 6 15 105 81 174 116 99 50 189 69
294 63 47 -3 94 -8 105 -10 39 -9 181 -20 234 -19 61 2 156 24 206 48 36 17
92 72 177 174 111 133 228 154 560 100 72 -12 185 -10 251 4 15 4 56 17 92 30
l64 23 -19 -27 c-62 -87 -158 -143 -353 -205 -160 -51 -226 -87 -309 -170 -47
-46 -92 -126 -102 -181 -3 -16 -8 -40 -11 -54 -2 -14 -7 -51 -10 -83 -10 -110
-71 -183 -193 -232 -163 -66 -253 -116 -310 -173 -98 -99 -152 -241 -155 -413
-2 -94 8 -119 49 -119 18 0 29 11 45 42 36 73 106 164 165 216 76 68 174 114
322 151 143 36 227 75 309 141 70 57 101 111 138 243 34 120 62 161 146 210
60 35 118 56 349 122 52 15 109 34 125 42 56 29 170 106 207 141 l38 36 -9
-30 c-37 -119 -79 -183 -185 -277 -44 -39 -117 -108 -162 -153 -155 -154 -192
-285 -138 -483 49 -181 39 -223 -86 -356 -41 -43 -94 -100 -118 -125 -51 -53
-118 -184 -131 -255 -13 -70 -6 -211 14 -270 28 -85 67 -156 89 -164 30 -12
56 -2 60 23 31 174 41 207 89 305 38 76 110 152 234 250 116 91 174 156 221
250 33 67 36 80 35 155 0 44 -3 117 -6 161 -11 151 46 241 260 406 165 127
223 193 283 321 31 66 32 65 33 -22 1 -106 -15 -160 -96 -330 -75 -157 -101
-245 -101 -345 1 -106 29 -175 124 -300 69 -90 74 -100 78 -155 5 -69 -5 -102
-68 -235 -100 -209 -108 -359 -25 -530 42 -87 165 -225 200 -225 31 0 46 26
33 59 -20 52 -38 175 -38 256 0 113 22 178 115 341 109 190 145 316 123 434
-4 25 -33 97 -65 160 -31 63 -60 122 -64 131 -12 26 -2 120 20 183 12 33 48
107 80 165 106 191 120 221 142 291 11 38 24 108 28 157 l7 88 26 -55 c47 -99
52 -127 49 -265 -8 -300 -6 -367 17 -440 39 -128 88 -180 272 -291 122 -72
143 -112 139 -259 -5 -203 -3 -240 20 -310 48 -150 138 -246 302 -326 73 -36
121 -45 159 -29 17 7 31 16 31 21 1 5 2 15 3 22 1 6 -15 33 -35 59 -90 115
-149 263 -151 376 -2 69 10 190 19 205 2 4 7 61 9 125 3 94 0 131 -15 183 -32
114 -54 143 -183 248 -85 68 -121 119 -138 196 -15 61 -15 195 -1 272 39 216
34 326 -21 467 -10 27 -17 50 -15 52 2 2 25 -18 52 -44 83 -81 128 -166 176
-332 49 -170 147 -313 255 -372 48 -26 176 -58 231 -58 62 0 108 -22 159 -74
41 -43 58 -72 89 -152 82 -213 153 -303 290 -368 88 -42 176 -62 287 -65 91
-2 120 10 113 46 -2 10 -4 21 -4 25 -1 4 -22 19 -48 32 -78 39 -169 112 -219
173 -61 77 -97 157 -134 300 -57 221 -147 358 -265 402 -31 12 -91 31 -133 42
-162 43 -220 122 -297 409 -20 74 -44 152 -52 174 -20 51 -93 166 -144 228
l-39 46 38 -10 c111 -30 182 -86 357 -282 92 -104 172 -166 253 -197 83 -32
162 -31 300 3 64 15 129 28 144 28 51 0 121 -43 213 -130 49 -47 106 -100 125
-118 49 -44 155 -99 228 -116 37 -8 93 -13 140 -10 132 6 312 77 312 123 0 23
-31 51 -58 51 -34 0 -149 29 -217 55 -121 45 -187 99 -308 250 -94 118 -132
155 -210 206 -93 60 -143 73 -256 64 -221 -17 -261 -7 -362 82 -66 59 -89 84
-177 199 -92 118 -179 196 -274 244 -46 23 -71 40 -63 44 30 11 169 -4 228
-25 34 -12 96 -38 137 -59 182 -90 304 -122 415 -109 88 11 132 31 241 114 53
40 114 78 135 83 57 15 149 -7 259 -61 52 -26 126 -56 163 -66 137 -37 298
-10 419 72 114 77 118 82 118 154 0 57 -2 63 -17 55 -10 -5 -36 -13 -58 -17
-22 -4 -53 -10 -70 -13 -42 -7 -161 -7 -215 0 -80 12 -143 36 -235 90 -171
101 -257 131 -381 132 -80 1 -83 0 -205 -61 -135 -67 -177 -81 -227 -77 -58 5
-156 43 -267 105 -255 142 -303 159 -483 173 -23 2 -45 6 -48 9 -3 3 32 20 78
38 78 31 91 33 203 32 66 0 167 -2 225 -4 274 -9 395 50 512 253 89 154 129
181 267 180 42 -1 114 -1 161 -2 144 -1 261 42 356 132 67 63 126 154 155 240
21 59 22 69 9 92 -19 37 -47 33 -110 -15 -151 -113 -328 -165 -481 -139 -195
32 -323 32 -428 1 -64 -20 -81 -30 -135 -84 -33 -34 -85 -90 -114 -125 -63
-73 -89 -89 -183 -107 -83 -15 -155 -13 -309 10 -63 10 -140 18 -170 19 -59 2
-180 -22 -244 -49 -21 -9 -41 -13 -45 -10 -3 4 23 34 58 66 74 69 163 114 300
154 51 15 117 37 145 50 100 44 208 142 247 224 24 51 49 158 49 212 0 113 84
203 240 259 279 98 411 272 419 551 3 100 -4 126 -36 132 -26 5 -63 -21 -63
-44 0 -25 -95 -152 -155 -207 -82 -75 -164 -114 -328 -157 -139 -37 -229 -75
-287 -122 -96 -78 -119 -114 -155 -248 -32 -116 -60 -162 -124 -207 -66 -46
-151 -79 -321 -124 -72 -19 -154 -46 -182 -60 -59 -30 -171 -106 -211 -143
l-29 -26 8 30 c27 111 77 178 242 327 262 236 301 334 238 594 -48 193 -43
205 146 403 154 163 210 286 201 445 -6 123 -71 298 -114 309 -25 7 -59 -12
-60 -33 -5 -87 -38 -208 -82 -298 -38 -79 -121 -171 -226 -249 -97 -73 -167
-146 -210 -216 -62 -105 -76 -178 -56 -303 19 -120 8 -180 -46 -259 -44 -65
-107 -126 -221 -213 -133 -103 -205 -182 -258 -283 -23 -44 -43 -79 -46 -79
-3 0 -4 35 -3 78 4 94 30 183 97 322 83 173 96 220 97 340 0 126 -15 166 -118
303 -69 92 -90 141 -82 192 13 75 19 95 56 167 85 168 111 300 83 420 -20 84
-75 185 -141 257 -54 60 -55 61 -109 61 -50 0 -54 -2 -45 -18z m188 -282 c47
-105 35 -241 -36 -394 -47 -103 -63 -156 -68 -237 -7 -95 10 -136 102 -255 75
-96 95 -136 100 -206 6 -77 -26 -178 -109 -350 -42 -87 -83 -185 -92 -218 -26
-102 -21 -229 13 -348 8 -30 13 -55 11 -57 -1 -2 -50 -6 -108 -9 -58 -3 -131
-10 -164 -16 -32 -6 -62 -8 -66 -3 -27 27 -33 221 -11 328 22 108 35 137 120
265 117 175 158 325 123 445 -8 27 -38 99 -68 160 -38 77 -55 125 -57 160 -7
98 29 193 107 279 36 41 92 146 120 226 21 60 31 137 30 239 -1 75 1 82 14 65
8 -10 25 -44 39 -74z m-1274 -184 c61 -63 102 -138 117 -214 5 -30 10 -120 9
-200 -1 -248 38 -321 226 -427 184 -103 235 -240 200 -540 -25 -216 18 -358
165 -547 l22 -28 -49 -20 c-62 -26 -116 -55 -178 -96 -46 -30 -51 -32 -67 -17
-31 28 -67 98 -99 193 -40 122 -43 224 -10 431 13 79 11 225 -5 297 -18 85
-72 164 -154 225 -36 27 -75 56 -88 65 -86 64 -119 216 -91 417 28 198 20 296
-35 433 -18 45 -29 82 -25 82 5 0 33 -24 62 -54z m2456 -107 c1 -69 -22 -151
-59 -204 -15 -22 -73 -87 -128 -143 -103 -106 -128 -142 -138 -208 -3 -22 -10
-56 -15 -76 -13 -49 -4 -105 31 -214 57 -178 26 -282 -129 -429 -205 -195
-249 -243 -289 -316 -39 -70 -75 -182 -85 -262 -3 -21 -7 -41 -10 -43 -3 -3
-22 3 -44 14 -53 27 -147 58 -221 73 l-62 13 6 44 c13 94 78 239 147 326 17
22 81 76 142 121 127 94 188 152 250 239 68 96 82 168 59 316 -4 25 -7 70 -7
100 1 110 99 246 250 348 35 24 82 62 105 85 59 59 132 175 160 252 19 55 24
62 30 43 3 -13 6 -48 7 -79z m-3539 -545 c132 -39 202 -123 284 -341 30 -80
88 -174 132 -215 51 -47 119 -71 244 -84 74 -7 143 -31 190 -65 87 -63 127
-128 190 -314 63 -183 105 -260 184 -341 57 -58 191 -154 215 -154 20 0 11
-15 -55 -85 -36 -38 -79 -91 -96 -117 -17 -27 -37 -48 -44 -48 -18 0 -124 82
-169 131 -95 104 -126 163 -165 320 -42 168 -65 232 -111 310 -63 108 -136
158 -294 199 -90 24 -150 52 -179 83 -43 49 -78 117 -102 197 -89 294 -116
350 -228 467 -38 40 -64 73 -59 73 5 0 33 -7 63 -16z m4595 -153 c-18 -71 -63
-148 -108 -186 -44 -38 -121 -77 -248 -128 -129 -51 -212 -114 -249 -187 -17
-35 -34 -103 -45 -190 -15 -113 -48 -183 -113 -242 -62 -56 -116 -83 -277
-139 -82 -28 -170 -63 -195 -77 -105 -60 -192 -148 -260 -264 l-34 -57 -70 67
c-39 37 -92 83 -118 101 -27 19 -48 38 -48 43 0 36 120 164 216 230 68 47 111
64 284 108 209 54 313 111 378 208 35 52 82 174 82 213 0 9 14 44 31 77 39 79
105 128 221 165 45 15 133 43 193 62 127 40 209 89 305 182 35 35 65 63 66 63
1 0 -4 -22 -11 -49z m-5176 -900 c74 -23 116 -55 252 -193 80 -82 119 -114
165 -135 73 -33 152 -36 216 -5 88 41 144 55 213 56 61 0 79 -5 135 -34 64
-34 107 -74 285 -262 44 -46 105 -101 135 -121 75 -50 194 -95 290 -109 44 -6
80 -14 80 -17 0 -3 -13 -38 -29 -78 -16 -39 -38 -108 -48 -152 -10 -45 -23
-81 -29 -81 -39 0 -179 46 -242 81 -111 59 -145 90 -240 217 -47 63 -104 133
-126 155 -54 53 -151 125 -195 143 -48 20 -132 24 -229 9 -116 -17 -152 -12
-233 32 -82 44 -149 111 -229 228 -44 64 -96 115 -168 164 -61 41 -184 101
-211 102 -12 0 -11 2 4 9 35 15 141 11 204 -9z m5871 -151 c-33 -62 -153 -147
-240 -170 -25 -7 -122 -13 -220 -15 -152 -2 -182 -5 -231 -23 -79 -31 -127
-76 -187 -179 -77 -131 -122 -176 -212 -206 -88 -29 -215 -37 -328 -18 -80 13
-220 6 -286 -13 -82 -24 -161 -66 -240 -126 -57 -42 -68 -47 -73 -32 -13 40
-82 181 -107 221 -27 42 -27 43 -9 63 30 34 156 91 250 114 44 11 204 13 255
4 152 -29 328 -31 425 -5 98 26 149 67 233 183 83 115 158 154 303 155 69 1
164 -7 217 -18 14 -3 66 -6 115 -7 103 -1 190 18 280 62 33 15 61 29 63 29 1
1 -2 -8 -8 -19z m-1630 -905 c93 -19 155 -48 255 -115 173 -117 329 -162 450
-129 22 6 90 35 150 65 61 30 128 57 150 59 80 11 153 -12 340 -106 210 -104
284 -126 417 -124 103 2 102 -4 -2 -53 -96 -44 -251 -33 -367 26 -112 58 -175
75 -273 76 -108 1 -130 -8 -250 -104 -85 -68 -128 -89 -191 -94 -87 -7 -172
19 -348 104 -174 84 -258 111 -350 114 -71 2 -227 -24 -294 -50 -9 -3 -12 21
-11 88 0 51 -5 124 -12 163 -7 38 -11 71 -11 72 1 0 22 5 47 10 75 16 220 15
300 -2z m-3405 -32 c28 -9 119 -50 204 -90 84 -41 179 -81 210 -90 86 -22 220
-19 326 9 l90 23 0 -85 c0 -47 4 -114 9 -150 15 -112 15 -113 -24 -122 -66
-15 -195 -16 -278 -2 -100 18 -165 45 -265 113 -182 122 -326 166 -455 137
-18 -5 -83 -32 -143 -62 -61 -30 -127 -58 -147 -62 -86 -19 -196 7 -291 68
-157 102 -296 153 -446 166 -86 7 -115 11 -122 17 -8 9 84 55 139 72 92 26
206 9 338 -53 115 -53 148 -63 236 -69 73 -5 87 -3 135 20 30 13 67 35 83 48
16 13 47 39 69 57 98 80 199 97 332 55z m3208 -428 c56 -17 154 -65 211 -105
53 -36 90 -77 162 -175 74 -102 134 -166 206 -222 110 -84 184 -102 333 -78
105 16 152 12 221 -21 69 -33 180 -139 241 -229 49 -73 80 -105 157 -162 58
-43 163 -97 214 -110 26 -6 26 -6 4 -14 -13 -5 -58 -7 -101 -6 -110 4 -182 41
-287 147 -43 45 -97 99 -119 121 -21 22 -72 56 -112 76 -95 47 -142 47 -287 3
-89 -27 -120 -32 -170 -28 -96 8 -190 65 -286 173 -118 133 -237 241 -306 277
-64 34 -178 68 -277 83 -30 5 -36 9 -28 19 9 11 64 161 69 189 1 4 5 25 8 48
l7 41 46 -7 c25 -3 68 -13 94 -20z m-2264 -290 c27 -55 61 -115 75 -134 l26
-35 -21 -22 c-28 -30 -147 -86 -229 -109 -69 -19 -201 -26 -260 -14 -78 16
-121 20 -241 24 -205 7 -302 -28 -395 -142 -24 -30 -44 -58 -44 -62 0 -19 -94
-102 -137 -122 -60 -28 -206 -35 -338 -15 -176 26 -288 15 -426 -43 -38 -16
-69 -25 -69 -19 0 20 110 115 163 140 79 39 120 46 290 46 256 0 330 35 428
204 86 149 146 197 281 223 67 12 187 13 263 0 65 -11 212 -5 270 10 79 21
167 66 246 125 35 27 65 47 66 46 1 -1 24 -47 52 -101z m2039 -117 c95 -65
198 -190 235 -286 9 -23 33 -104 52 -180 41 -162 99 -288 158 -344 50 -47 137
-90 232 -113 189 -46 231 -100 320 -405 50 -174 103 -262 219 -373 28 -26 48
-47 45 -47 -16 0 -119 35 -150 51 -82 41 -141 125 -203 285 -85 221 -168 299
-336 319 -161 20 -225 45 -290 115 -61 66 -95 129 -135 256 -41 126 -79 214
-118 272 -45 68 -143 158 -213 197 -35 20 -64 39 -64 43 0 4 17 25 38 47 21
22 64 75 96 118 31 42 59 77 62 77 3 0 26 -14 52 -32z m-1819 -190 c79 -73
115 -102 153 -128 21 -14 38 -30 38 -36 0 -17 -81 -123 -126 -166 -100 -94
-203 -143 -379 -183 -146 -33 -272 -90 -336 -152 -51 -48 -83 -112 -115 -224
-61 -213 -96 -242 -409 -334 -49 -14 -108 -34 -130 -43 -69 -28 -169 -99 -228
-161 -31 -33 -57 -53 -57 -45 0 7 9 42 21 78 39 119 120 186 324 266 98 38
155 71 207 118 61 55 86 114 103 247 17 135 41 190 112 256 71 66 105 84 269
140 172 58 250 99 328 170 53 49 166 203 166 228 0 19 11 13 59 -31z m1523
-176 c32 -59 57 -128 74 -203 14 -64 9 -202 -12 -298 -3 -14 -7 -82 -10 -151
-7 -228 38 -333 186 -432 104 -71 144 -125 161 -223 11 -66 7 -203 -8 -290 -4
-22 -7 -87 -7 -145 1 -106 17 -176 68 -293 16 -37 16 -38 -2 -28 -28 15 -111
109 -131 150 -40 78 -50 135 -49 293 0 170 -3 196 -31 261 -30 69 -80 118
-193 186 -118 72 -160 118 -190 213 -22 71 -28 197 -14 323 23 204 -18 362
-131 509 l-38 49 105 54 c58 29 118 64 135 77 16 13 34 22 40 20 6 -3 27 -35
47 -72z m-1157 -67 c33 -13 97 -34 143 -46 65 -17 81 -25 78 -38 -3 -9 -8 -36
-11 -61 -12 -86 -93 -251 -157 -321 -18 -21 -89 -79 -157 -130 -128 -96 -211
-184 -259 -274 -23 -44 -27 -61 -26 -140 0 -49 4 -127 8 -173 9 -82 8 -83 -27
-155 -50 -99 -79 -131 -212 -231 -153 -115 -198 -174 -292 -386 -13 -28 -12
-33 -17 80 -2 49 16 127 43 180 14 26 75 96 148 167 106 104 129 133 158 195
29 64 33 81 31 138 -2 39 -15 97 -32 145 -41 116 -40 189 5 280 35 71 51 88
261 290 148 141 215 268 235 443 4 34 10 62 13 62 4 0 34 -11 67 -25z m716
-104 c1 -14 3 -53 4 -86 5 -87 -21 -230 -54 -301 -16 -34 -52 -97 -81 -139
-114 -169 -156 -317 -124 -438 7 -27 35 -92 62 -146 95 -187 90 -236 -54 -520
-95 -188 -113 -253 -114 -396 l0 -90 -28 45 c-76 123 -71 254 19 453 47 106
67 183 64 258 -2 69 -27 122 -101 214 -31 39 -68 94 -81 124 -22 47 -25 63
-20 130 5 86 31 160 108 311 90 178 102 219 103 355 0 82 -5 139 -17 180 -9
32 -15 60 -14 61 1 1 45 5 97 8 110 8 187 20 197 30 11 11 33 -24 34 -53z"/>
</g>
</svg>
