<svg width="28" height="22" viewBox="0 0 28 22" fill="none" xmlns="http://www.w3.org/2000/svg">
<g clip-path="url(#clip0_8728_10198)">
<path style="mix-blend-mode:screen" d="M15.8735 14.6699C18.1525 11.0484 17.3704 6.47201 14.1265 4.44834C10.8827 2.42467 6.40557 3.72 4.12654 7.34154C1.84751 10.9631 2.62964 15.5394 5.87346 17.5631C9.11728 19.5868 13.5944 18.2914 15.8735 14.6699Z" fill="url(#paint0_radial_8728_10198)"/>
<path d="M12.7035 4.9888C11.0401 4.01879 9.17287 6.48782 6.92212 8.08116C5.67761 11.3466 3.69379 14.2873 4.24279 14.8494C5.45531 15.7624 13.8545 15.7595 14.6717 14.4269C15.3891 13.1961 14.5917 6.30254 12.7039 4.98922L12.7035 4.9888Z" fill="url(#paint1_linear_8728_10198)"/>
<path style="mix-blend-mode:multiply" d="M12.9547 5.51484C12.6317 5.11284 11.8301 11.3852 10.6374 12.3166C9.3293 13.3755 4.32008 13.8781 4.47291 14.3111C5.06611 15.9921 11.162 15.6307 14.2623 14.6276C16.324 13.9607 13.4666 6.13105 12.9547 5.51526V5.51484Z" fill="url(#paint2_linear_8728_10198)"/>
<path style="mix-blend-mode:screen" opacity="0.39" d="M11.8016 5.05895C11.0215 4.82211 10.0047 5.73007 8.85914 6.77176C7.65167 7.88638 6.50188 7.94675 8.57454 8.98927C9.34204 9.37534 10.4085 11.0827 11.1423 10.1622C11.8446 9.27306 11.8913 7.51708 11.9561 6.50809C12.0567 5.45886 12.3426 5.24633 11.8016 5.05937V5.05895Z" fill="url(#paint3_linear_8728_10198)"/>
<path opacity="0.4" d="M10.3968 5.32376C11.0944 5.10662 12.3056 4.32651 12.2067 5.52581C12.1608 6.48702 12.4467 8.06443 11.1807 10.1243C11.1575 10.1612 10.553 10.8914 9.13203 9.56261C10.0987 10.8457 11.0784 10.3641 11.2742 10.4999C11.44 10.6127 11.3259 11.1094 11.2375 11.1949C10.2397 12.1549 10.6014 12.7019 8.43905 13.0557C6.19125 13.4233 4.56024 14.1037 4.56024 14.1037C4.56024 14.1037 7.16969 13.4749 8.45294 13.2988C9.60652 13.1404 10.3189 12.6529 10.867 12.2437C11.1697 12.0212 11.2624 11.3593 11.5188 10.7334C11.68 10.3402 12.4867 10.1893 13.4588 11.1861C12.738 10.3679 11.989 10.2966 11.9225 10.1876C11.7305 9.86065 11.7587 9.60788 11.8038 9.4138C11.9865 8.65297 12.8176 5.05632 12.9548 5.51492C13.1026 5.96219 13.5325 6.53648 13.5325 6.53648C13.5325 6.53648 13.3072 5.25125 12.482 4.86056C11.5975 4.49335 10.3968 5.32376 10.3968 5.32376Z" fill="white"/>
<path d="M11.5174 4.90071C12.0066 4.80304 12.6129 4.86718 12.5131 5.72777C12.4356 6.5628 12.3822 6.96187 12.1552 7.19955C11.9228 7.44268 12.2142 6.1784 12.1085 5.57183C12.0205 4.94556 11.04 5.0118 11.5178 4.90071H11.5174Z" fill="white"/>
<path style="mix-blend-mode:multiply" d="M11.9009 15.2796C11.3514 15.3513 6.30895 15.4871 5.06949 14.8172C3.90286 14.0568 10.2703 13.7286 10.8264 13.208C11.3658 12.7083 11.4146 10.9942 12.148 10.9213C12.8633 10.8714 14.7457 12.1931 14.7166 13.3098C14.7275 14.3771 14.9574 14.9677 11.9004 15.2792L11.9009 15.2796Z" fill="url(#paint4_linear_8728_10198)"/>
<path style="mix-blend-mode:multiply" opacity="0.37" d="M10.8778 10.7427C11.2795 10.7834 10.3225 12.212 9.53565 12.5515C7.36995 13.4855 7.56025 12.4107 7.56699 11.9982C7.57878 11.5794 7.6533 8.4615 8.29661 9.08735C8.80519 9.58199 9.72721 10.6258 10.8778 10.7427Z" fill="url(#paint5_linear_8728_10198)"/>
<path opacity="0.51" d="M11.5894 10.0182C11.5044 10.2211 11.2046 10.3922 11.1086 10.3595C11.0127 10.3268 11.2779 10.1398 11.3659 9.93357C11.4539 9.72733 11.6008 9.30227 11.6913 9.34167C11.7818 9.38108 11.6749 9.81536 11.5899 10.0182H11.5894Z" fill="white"/>
<path style="mix-blend-mode:multiply" d="M5.67737 15.3142C5.67737 15.3142 12.1193 15.925 14.2218 14.7676C15.4567 14.0881 14.3347 10.1477 14.3347 10.1477C14.3347 10.1477 14.954 14.2185 13.3706 14.5773C11.705 15.0388 5.67737 15.3142 5.67737 15.3142Z" fill="url(#paint6_linear_8728_10198)"/>
<path style="mix-blend-mode:screen" opacity="0.14" d="M12.7665 6.42075C12.6326 7.18787 11.7254 9.8514 11.9855 10.0547C12.3367 10.3293 12.8528 10.5934 13.2806 10.5934C13.6271 10.5934 13.004 5.05964 12.7661 6.42075H12.7665Z" fill="url(#paint7_linear_8728_10198)"/>
<path opacity="0.62" d="M8.01758 7.23022C8.01758 7.23022 7.47321 7.70056 7.46521 7.94704C7.45679 8.19352 8.80572 9.13544 8.80572 9.13544C8.80572 9.13544 7.7675 8.37 7.20544 8.60517C6.67202 8.82859 5.52728 11.2142 5.52728 11.2142L6.9221 8.0816L8.018 7.23064L8.01758 7.23022Z" fill="white"/>
<path d="M7.80507 8.50171C7.9339 8.71717 7.46784 8.33361 7.21565 8.51931C6.9942 8.68238 6.75085 8.94437 6.75085 8.68573C6.75085 8.42709 6.94999 8.12695 7.21565 8.12695C7.48131 8.12695 7.69351 8.31559 7.80507 8.50171Z" fill="white"/>
<path style="mix-blend-mode:screen" opacity="0.29" d="M7.56776 8.12688C7.61323 7.85651 8.30159 7.19964 8.6203 7.13131C8.93901 7.06298 10.4606 9.97928 10.3646 10.2375C10.2686 10.4957 8.83628 8.90867 8.39758 8.74896C8.1896 8.67351 7.54755 8.24593 7.56734 8.12688H7.56776Z" fill="url(#paint8_linear_8728_10198)"/>
<path style="mix-blend-mode:screen" opacity="0.29" d="M6.52622 9.77213C6.29592 9.74237 4.14117 13.8311 4.72554 13.85C5.30991 13.8689 6.14941 13.5629 6.23951 13.0355C6.3296 12.5082 6.74262 9.80022 6.52622 9.77213Z" fill="url(#paint9_linear_8728_10198)"/>
<path style="mix-blend-mode:multiply" d="M12.1304 11.2286C12.5986 10.8354 14.1639 12.1546 14.5247 12.8114C15.2603 14.1503 14.102 14.865 12.5308 15.088C10.9596 15.311 10.8021 15.1279 10.9533 14.7489C11.104 14.3695 11.8589 11.3749 12.037 11.2726C12.2151 11.1707 11.6627 11.6218 12.1309 11.2286H12.1304Z" fill="url(#paint10_linear_8728_10198)"/>
<g opacity="0.5">
<path style="mix-blend-mode:screen" opacity="0.8" d="M6.99722 7.57938C7.14931 6.93123 6.74488 6.28306 6.09392 6.13163C5.44296 5.98021 4.79196 6.38288 4.63987 7.03102C4.48779 7.67917 4.89221 8.32734 5.54318 8.47877C6.19414 8.63019 6.84514 8.22752 6.99722 7.57938Z" fill="url(#paint11_radial_8728_10198)"/>
</g>
<path d="M5.72719 7.15886C5.80844 7.10856 5.91538 7.13329 5.9659 7.2142C6.01642 7.2951 5.99158 7.40157 5.91033 7.45188C5.82907 7.50218 5.72213 7.47745 5.67161 7.39654C5.62109 7.31564 5.64593 7.20917 5.72719 7.15886Z" fill="#FFE295"/>
<g opacity="0.5">
<path style="mix-blend-mode:screen" opacity="0.8" d="M14.5451 16.1787C14.6972 15.5306 14.2927 14.8824 13.6418 14.731C12.9908 14.5796 12.3398 14.9822 12.1877 15.6304C12.0356 16.2785 12.4401 16.9267 13.091 17.0781C13.742 17.2296 14.393 16.8269 14.5451 16.1787Z" fill="url(#paint12_radial_8728_10198)"/>
</g>
<path d="M13.275 15.7585C13.3563 15.7082 13.4632 15.7329 13.5138 15.8138C13.5643 15.8947 13.5394 16.0012 13.4582 16.0515C13.3769 16.1018 13.27 16.0771 13.2195 15.9962C13.1689 15.9153 13.1938 15.8088 13.275 15.7585Z" fill="#FFE295"/>
<g opacity="0.5">
<path style="mix-blend-mode:screen" opacity="0.8" d="M10.9042 3.84695C10.9807 3.52074 10.7772 3.1945 10.4495 3.11829C10.1219 3.04208 9.79424 3.24475 9.7177 3.57096C9.64115 3.89717 9.8447 4.2234 10.1723 4.29962C10.5 4.37583 10.8276 4.17316 10.9042 3.84695Z" fill="url(#paint13_radial_8728_10198)"/>
</g>
<path d="M10.3113 3.79561C10.3592 3.79561 10.398 3.75677 10.398 3.70884C10.398 3.66092 10.3592 3.62207 10.3113 3.62207C10.2633 3.62207 10.2245 3.66092 10.2245 3.70884C10.2245 3.75677 10.2633 3.79561 10.3113 3.79561Z" fill="#FFE295"/>
<g opacity="0.5">
<path style="mix-blend-mode:screen" opacity="0.8" d="M16.0104 13.1203C15.7246 13.2972 15.349 13.2096 15.1714 12.9249C14.9937 12.6403 15.0817 12.2664 15.3675 12.0895C15.6534 11.9126 16.029 12.0002 16.2066 12.2848C16.3843 12.5694 16.2963 12.9434 16.0104 13.1203Z" fill="url(#paint14_radial_8728_10198)"/>
</g>
<path d="M15.6429 12.5309C15.6836 12.5057 15.7372 12.5179 15.7624 12.559C15.7875 12.5996 15.7754 12.6533 15.7343 12.6784C15.6936 12.7036 15.64 12.6914 15.6148 12.6503C15.5897 12.6097 15.6018 12.556 15.6429 12.5309Z" fill="#FFE295"/>
<g opacity="0.5">
<path style="mix-blend-mode:screen" opacity="0.8" d="M14.8807 12.2141C15.0562 11.9283 14.9658 11.555 14.6787 11.3802C14.3917 11.2055 14.0167 11.2955 13.8412 11.5814C13.6657 11.8672 13.7561 12.2405 14.0432 12.4153C14.3303 12.59 14.7052 12.5 14.8807 12.2141Z" fill="url(#paint15_radial_8728_10198)"/>
</g>
<path d="M14.3403 11.812C14.3869 11.8007 14.4338 11.8296 14.4451 11.8762C14.4564 11.9227 14.4275 11.9696 14.381 11.981C14.3345 11.9923 14.2875 11.9634 14.2762 11.9168C14.2649 11.8703 14.2938 11.8233 14.3403 11.812Z" fill="#FFE295"/>
<g opacity="0.6">
<path style="mix-blend-mode:screen" opacity="0.63" d="M12.9632 5.34046C13.019 2.68768 12.6639 0.528835 12.1702 0.518537C11.6764 0.508239 11.2309 2.65039 11.1751 5.30317C11.1193 7.95594 11.4743 10.1148 11.9681 10.1251C12.4618 10.1354 12.9074 7.99324 12.9632 5.34046Z" fill="url(#paint16_radial_8728_10198)"/>
<path style="mix-blend-mode:screen" opacity="0.57" d="M15.8713 5.34222C15.8742 3.49013 14.1737 1.98605 12.0731 1.98276C9.97253 1.97948 8.26731 3.47823 8.26438 5.33033C8.26146 7.18242 9.96195 8.6865 12.0625 8.68979C14.1631 8.69307 15.8683 7.19432 15.8713 5.34222Z" fill="url(#paint17_radial_8728_10198)"/>
<path style="mix-blend-mode:screen" opacity="0.63" d="M17.3784 5.39005C17.3856 4.95024 14.9773 4.55367 11.9991 4.50428C9.02095 4.4549 6.60076 4.7714 6.59347 5.21122C6.58617 5.65103 8.99454 6.0476 11.9727 6.09699C14.9509 6.14637 17.3711 5.82987 17.3784 5.39005Z" fill="url(#paint18_radial_8728_10198)"/>
</g>
<g opacity="0.5">
<path style="mix-blend-mode:screen" opacity="0.8" d="M10.9918 6.33499C11.0684 6.00877 10.8648 5.68254 10.5372 5.60633C10.2095 5.53012 9.88189 5.73278 9.80534 6.059C9.7288 6.38521 9.93235 6.71144 10.26 6.78765C10.5876 6.86387 10.9153 6.6612 10.9918 6.33499Z" fill="url(#paint19_radial_8728_10198)"/>
</g>
<path d="M10.3523 6.12365C10.393 6.0985 10.4466 6.11066 10.4718 6.15174C10.4969 6.19282 10.4848 6.24606 10.4437 6.27121C10.403 6.29636 10.3494 6.2842 10.3242 6.24312C10.2991 6.20204 10.3112 6.1488 10.3523 6.12365Z" fill="#FFE295"/>
<g opacity="0.5">
<path style="mix-blend-mode:screen" opacity="0.8" d="M12.1584 4.30431C12.8256 4.26205 13.332 3.68931 13.2895 3.02505C13.2471 2.3608 12.6719 1.85657 12.0047 1.89883C11.3376 1.94109 10.8312 2.51383 10.8736 3.17808C10.916 3.84233 11.4913 4.34656 12.1584 4.30431Z" fill="url(#paint20_radial_8728_10198)"/>
</g>
<path d="M12.0258 3.26581C11.9353 3.23521 11.8865 3.13754 11.9172 3.047C11.948 2.95687 12.046 2.90824 12.137 2.93884C12.2275 2.96945 12.2763 3.06712 12.2456 3.15766C12.2149 3.24779 12.1168 3.29641 12.0258 3.26581Z" fill="#FFE295"/>
</g>
<defs>
<radialGradient id="paint0_radial_8728_10198" cx="0" cy="0" r="1" gradientUnits="userSpaceOnUse" gradientTransform="translate(9.98166 11.051) rotate(31.9581) scale(6.91458 7.75902)">
<stop offset="0.24" stop-color="#FF8C08"/>
<stop offset="0.94" stop-color="#020000"/>
</radialGradient>
<linearGradient id="paint1_linear_8728_10198" x1="4.1362" y1="10.1465" x2="14.9255" y2="10.1143" gradientUnits="userSpaceOnUse">
<stop stop-color="#FEDE0A"/>
<stop offset="0.39" stop-color="#F1AC05"/>
<stop offset="0.8" stop-color="#E57D01"/>
<stop offset="1" stop-color="#E16C00"/>
</linearGradient>
<linearGradient id="paint2_linear_8728_10198" x1="4.45916" y1="10.5039" x2="14.9942" y2="10.4725" gradientUnits="userSpaceOnUse">
<stop stop-color="#FEDE0A"/>
<stop offset="0.39" stop-color="#F1AC05"/>
<stop offset="0.8" stop-color="#E57D01"/>
<stop offset="1" stop-color="#E16C00"/>
</linearGradient>
<linearGradient id="paint3_linear_8728_10198" x1="9.6629" y1="5.3754" x2="10.0788" y2="10.3708" gradientUnits="userSpaceOnUse">
<stop stop-color="#FFE347"/>
<stop offset="0.1" stop-color="#FEDC48"/>
<stop offset="0.68" stop-color="#FCBA4D"/>
<stop offset="1" stop-color="#FCAE50"/>
</linearGradient>
<linearGradient id="paint4_linear_8728_10198" x1="4.92241" y1="13.1477" x2="14.7227" y2="13.1197" gradientUnits="userSpaceOnUse">
<stop stop-color="#FEDE0A"/>
<stop offset="0.39" stop-color="#F1AC05"/>
<stop offset="0.8" stop-color="#E57D01"/>
<stop offset="1" stop-color="#E16C00"/>
</linearGradient>
<linearGradient id="paint5_linear_8728_10198" x1="7.43166" y1="10.7023" x2="10.1938" y2="11.8068" gradientUnits="userSpaceOnUse">
<stop stop-color="#FEDE0A"/>
<stop offset="0.39" stop-color="#F1AC05"/>
<stop offset="0.8" stop-color="#E57D01"/>
<stop offset="1" stop-color="#E16C00"/>
</linearGradient>
<linearGradient id="paint6_linear_8728_10198" x1="5.67737" y1="12.8117" x2="14.8016" y2="12.8117" gradientUnits="userSpaceOnUse">
<stop stop-color="#FEDE0A"/>
<stop offset="0.39" stop-color="#F1AC05"/>
<stop offset="0.8" stop-color="#E57D01"/>
<stop offset="1" stop-color="#E16C00"/>
</linearGradient>
<linearGradient id="paint7_linear_8728_10198" x1="11.6753" y1="9.4473" x2="13.3372" y2="8.18782" gradientUnits="userSpaceOnUse">
<stop stop-color="#FFE347"/>
<stop offset="0.1" stop-color="#FEDC48"/>
<stop offset="0.68" stop-color="#FCBA4D"/>
<stop offset="1" stop-color="#FCAE50"/>
</linearGradient>
<linearGradient id="paint8_linear_8728_10198" x1="9.48253" y1="8.69866" x2="7.59521" y2="8.56716" gradientUnits="userSpaceOnUse">
<stop stop-color="#FFE347"/>
<stop offset="0.1" stop-color="#FEDC48"/>
<stop offset="0.68" stop-color="#FCBA4D"/>
<stop offset="1" stop-color="#FCAE50"/>
</linearGradient>
<linearGradient id="paint9_linear_8728_10198" x1="7.17795" y1="11.0838" x2="4.47216" y2="12.6643" gradientUnits="userSpaceOnUse">
<stop stop-color="#FFE347"/>
<stop offset="0.1" stop-color="#FEDC48"/>
<stop offset="0.68" stop-color="#FCBA4D"/>
<stop offset="1" stop-color="#FCAE50"/>
</linearGradient>
<linearGradient id="paint10_linear_8728_10198" x1="14.3079" y1="17.3152" x2="11.6878" y2="11.6303" gradientUnits="userSpaceOnUse">
<stop stop-color="#FEDE0A"/>
<stop offset="0.39" stop-color="#F1AC05"/>
<stop offset="0.8" stop-color="#E57D01"/>
<stop offset="1" stop-color="#E16C00"/>
</linearGradient>
<radialGradient id="paint11_radial_8728_10198" cx="0" cy="0" r="1" gradientUnits="userSpaceOnUse" gradientTransform="translate(5.821 7.30596) rotate(-121.962) scale(1.20663 1.20895)">
<stop stop-color="#FFBA00"/>
<stop offset="0.08" stop-color="#E3A500"/>
<stop offset="0.34" stop-color="#936B00"/>
<stop offset="0.57" stop-color="#543D00"/>
<stop offset="0.77" stop-color="#261C00"/>
<stop offset="0.91" stop-color="#0A0700"/>
<stop offset="1"/>
</radialGradient>
<radialGradient id="paint12_radial_8728_10198" cx="0" cy="0" r="1" gradientUnits="userSpaceOnUse" gradientTransform="translate(13.3686 15.9058) rotate(-121.962) scale(1.20663 1.20895)">
<stop stop-color="#FFBA00"/>
<stop offset="0.08" stop-color="#E3A500"/>
<stop offset="0.34" stop-color="#936B00"/>
<stop offset="0.57" stop-color="#543D00"/>
<stop offset="0.77" stop-color="#261C00"/>
<stop offset="0.91" stop-color="#0A0700"/>
<stop offset="1"/>
</radialGradient>
<radialGradient id="paint13_radial_8728_10198" cx="0" cy="0" r="1" gradientUnits="userSpaceOnUse" gradientTransform="translate(10.3136 3.70979) rotate(-121.962) scale(0.607304 0.608469)">
<stop stop-color="#FFBA00"/>
<stop offset="0.08" stop-color="#E3A500"/>
<stop offset="0.34" stop-color="#936B00"/>
<stop offset="0.57" stop-color="#543D00"/>
<stop offset="0.77" stop-color="#261C00"/>
<stop offset="0.91" stop-color="#0A0700"/>
<stop offset="1"/>
</radialGradient>
<radialGradient id="paint14_radial_8728_10198" cx="0" cy="0" r="1" gradientUnits="userSpaceOnUse" gradientTransform="translate(15.6902 12.6049) rotate(-121.962) scale(0.607303 0.608469)">
<stop stop-color="#FFBA00"/>
<stop offset="0.08" stop-color="#E3A500"/>
<stop offset="0.34" stop-color="#936B00"/>
<stop offset="0.57" stop-color="#543D00"/>
<stop offset="0.77" stop-color="#261C00"/>
<stop offset="0.91" stop-color="#0A0700"/>
<stop offset="1"/>
</radialGradient>
<radialGradient id="paint15_radial_8728_10198" cx="0" cy="0" r="1" gradientUnits="userSpaceOnUse" gradientTransform="translate(14.3611 11.8962) rotate(-103.617) scale(0.606713 0.609061)">
<stop stop-color="#FFBA00"/>
<stop offset="0.08" stop-color="#E3A500"/>
<stop offset="0.34" stop-color="#936B00"/>
<stop offset="0.57" stop-color="#543D00"/>
<stop offset="0.77" stop-color="#261C00"/>
<stop offset="0.91" stop-color="#0A0700"/>
<stop offset="1"/>
</radialGradient>
<radialGradient id="paint16_radial_8728_10198" cx="0" cy="0" r="1" gradientUnits="userSpaceOnUse" gradientTransform="translate(12.1851 5.33577) rotate(-179.054) scale(0.798368 4.31901)">
<stop stop-color="#FCE785"/>
<stop offset="0.38" stop-color="#91854D"/>
<stop offset="0.68" stop-color="#433D23"/>
<stop offset="0.9" stop-color="#121109"/>
<stop offset="1"/>
</radialGradient>
<radialGradient id="paint17_radial_8728_10198" cx="0" cy="0" r="1" gradientUnits="userSpaceOnUse" gradientTransform="translate(12.0113 5.33664) rotate(-179.044) scale(3.81485 3.35852)">
<stop stop-color="#FCE785"/>
<stop offset="0.38" stop-color="#91854D"/>
<stop offset="0.68" stop-color="#433D23"/>
<stop offset="0.9" stop-color="#121109"/>
<stop offset="1"/>
</radialGradient>
<radialGradient id="paint18_radial_8728_10198" cx="0" cy="0" r="1" gradientUnits="userSpaceOnUse" gradientTransform="translate(11.9569 5.52041) rotate(91.191) scale(0.730925 4.94841)">
<stop stop-color="#FCE785"/>
<stop offset="0.38" stop-color="#91854D"/>
<stop offset="0.68" stop-color="#433D23"/>
<stop offset="0.9" stop-color="#121109"/>
<stop offset="1"/>
</radialGradient>
<radialGradient id="paint19_radial_8728_10198" cx="0" cy="0" r="1" gradientUnits="userSpaceOnUse" gradientTransform="translate(10.4009 6.19795) rotate(-121.962) scale(0.607304 0.608469)">
<stop stop-color="#FFBA00"/>
<stop offset="0.08" stop-color="#E3A500"/>
<stop offset="0.34" stop-color="#936B00"/>
<stop offset="0.57" stop-color="#543D00"/>
<stop offset="0.77" stop-color="#261C00"/>
<stop offset="0.91" stop-color="#0A0700"/>
<stop offset="1"/>
</radialGradient>
<radialGradient id="paint20_radial_8728_10198" cx="0" cy="0" r="1" gradientUnits="userSpaceOnUse" gradientTransform="translate(12.0825 3.10052) rotate(108.736) scale(1.20571 1.20988)">
<stop stop-color="#FFBA00"/>
<stop offset="0.08" stop-color="#E3A500"/>
<stop offset="0.34" stop-color="#936B00"/>
<stop offset="0.57" stop-color="#543D00"/>
<stop offset="0.77" stop-color="#261C00"/>
<stop offset="0.91" stop-color="#0A0700"/>
<stop offset="1"/>
</radialGradient>
<clipPath id="clip0_8728_10198">
<rect width="20" height="20.7273" fill="white" transform="translate(0 0.5)"/>
</clipPath>
</defs>
</svg>
