<svg width="20" height="21" viewBox="0 0 20 21" fill="none" xmlns="http://www.w3.org/2000/svg">
<g clip-path="url(#clip0_8312_5748)">
<path style="mix-blend-mode:screen" d="M15.8735 14.1699C18.1525 10.5484 17.3704 5.97204 14.1265 3.94837C10.8827 1.92469 6.40557 3.22002 4.12654 6.84157C1.84751 10.4631 2.62964 15.0395 5.87346 17.0631C9.11728 19.0868 13.5944 17.7915 15.8735 14.1699Z" fill="url(#paint0_radial_8312_5748)"/>
<path d="M12.7036 4.48875C11.0401 3.51875 9.17293 5.98777 6.92219 7.58111C5.67767 10.8466 3.69385 13.7872 4.24285 14.3493C5.45537 15.2623 13.8546 15.2594 14.6718 13.9268C15.3892 12.6961 14.5918 5.80249 12.704 4.48917L12.7036 4.48875Z" fill="url(#paint1_linear_8312_5748)"/>
<path style="mix-blend-mode:multiply" d="M12.9549 5.01484C12.632 4.61283 11.8304 10.8852 10.6376 11.8166C9.32955 12.8755 4.32032 13.3781 4.47315 13.8111C5.06636 15.4921 11.1622 15.1307 14.2626 14.1276C16.3243 13.4607 13.4669 5.63104 12.9549 5.01526V5.01484Z" fill="url(#paint2_linear_8312_5748)"/>
<path style="mix-blend-mode:screen" opacity="0.39" d="M11.8017 4.55876C11.0215 4.32192 10.0048 5.22988 8.8592 6.27157C7.65173 7.38619 6.50194 7.44656 8.5746 8.48908C9.34211 8.87515 10.4085 10.5825 11.1424 9.66197C11.8446 8.77287 11.8913 7.01689 11.9562 6.0079C12.0568 4.95867 12.3427 4.74614 11.8017 4.55918V4.55876Z" fill="url(#paint3_linear_8312_5748)"/>
<path opacity="0.4" d="M10.3966 4.82368C11.0942 4.60654 12.3055 3.82643 12.2065 5.02573C12.1606 5.98694 12.4465 7.56435 11.1805 9.62424C11.1574 9.66113 10.5528 10.3914 9.13185 9.06253C10.0985 10.3457 11.0782 9.86402 11.274 9.99984C11.4399 10.1126 11.3258 10.6093 11.2373 10.6949C10.2395 11.6548 10.6012 12.2018 8.43886 12.5556C6.19107 12.9233 4.56006 13.6036 4.56006 13.6036C4.56006 13.6036 7.1695 12.9748 8.45276 12.7988C9.60633 12.6403 10.3187 12.1528 10.8669 11.7437C11.1696 11.5211 11.2622 10.8592 11.5186 10.2333C11.6798 9.84013 12.4865 9.68922 13.4586 10.6861C12.7378 9.86779 11.9889 9.79653 11.9223 9.68754C11.7304 9.36057 11.7586 9.1078 11.8036 8.91372C11.9863 8.15289 12.8174 4.55624 12.9547 5.01484C13.1024 5.46211 13.5323 6.0364 13.5323 6.0364C13.5323 6.0364 13.307 4.75116 12.4819 4.36048C11.5973 3.99327 10.3966 4.82368 10.3966 4.82368Z" fill="white"/>
<path d="M11.5174 4.40072C12.0066 4.30305 12.6129 4.36719 12.5131 5.22778C12.4356 6.06281 12.3822 6.46188 12.1552 6.69956C11.9228 6.94269 12.2142 5.67841 12.1085 5.07184C12.0205 4.44558 11.04 4.51181 11.5178 4.40072H11.5174Z" fill="white"/>
<path style="mix-blend-mode:multiply" d="M11.901 14.7794C11.3516 14.8511 6.30913 14.9869 5.06967 14.3171C3.90304 13.5567 10.2705 13.2284 10.8266 12.7078C11.3659 12.2081 11.4148 10.4941 12.1482 10.4211C12.8635 10.3712 14.7458 11.6929 14.7168 12.8097C14.7277 13.8769 14.9576 14.4676 11.9006 14.779L11.901 14.7794Z" fill="url(#paint4_linear_8312_5748)"/>
<path style="mix-blend-mode:multiply" opacity="0.37" d="M10.8778 10.2425C11.2795 10.2832 10.3225 11.7118 9.53565 12.0514C7.36995 12.9853 7.56025 11.9105 7.56699 11.498C7.57878 11.0793 7.6533 7.96132 8.29661 8.58717C8.80519 9.08181 9.72721 10.1256 10.8778 10.2425Z" fill="url(#paint5_linear_8312_5748)"/>
<path opacity="0.51" d="M11.5893 9.51819C11.5043 9.72108 11.2045 9.89211 11.1085 9.85941C11.0125 9.82671 11.2778 9.63975 11.3658 9.43351C11.4538 9.22727 11.6007 8.80221 11.6912 8.84162C11.7817 8.88102 11.6748 9.3153 11.5897 9.51819H11.5893Z" fill="white"/>
<path style="mix-blend-mode:multiply" d="M5.67725 14.8142C5.67725 14.8142 12.1192 15.425 14.2217 14.2676C15.4566 13.5881 14.3346 9.64772 14.3346 9.64772C14.3346 9.64772 14.9539 13.7185 13.3704 14.0773C11.7049 14.5388 5.67725 14.8142 5.67725 14.8142Z" fill="url(#paint6_linear_8312_5748)"/>
<path style="mix-blend-mode:screen" opacity="0.14" d="M12.7666 5.9207C12.6327 6.68782 11.7254 9.35135 11.9856 9.55466C12.3367 9.82923 12.8529 10.0933 13.2806 10.0933C13.6271 10.0933 13.004 4.55959 12.7662 5.9207H12.7666Z" fill="url(#paint7_linear_8312_5748)"/>
<path opacity="0.62" d="M8.01764 6.73016C8.01764 6.73016 7.47327 7.20049 7.46527 7.44697C7.45685 7.69346 8.80578 8.63538 8.80578 8.63538C8.80578 8.63538 7.76756 7.86994 7.20551 8.1051C6.67208 8.32853 5.52734 10.7141 5.52734 10.7141L6.92216 7.58153L8.01806 6.73058L8.01764 6.73016Z" fill="white"/>
<path d="M7.8052 8.00156C7.93403 8.21702 7.46796 7.83346 7.21578 8.01917C6.99432 8.18223 6.75098 8.44422 6.75098 8.18558C6.75098 7.92694 6.95012 7.6268 7.21578 7.6268C7.48144 7.6268 7.69363 7.81544 7.8052 8.00156Z" fill="white"/>
<path style="mix-blend-mode:screen" opacity="0.29" d="M7.56776 7.6268C7.61323 7.35643 8.30159 6.69956 8.6203 6.63123C8.93901 6.5629 10.4606 9.4792 10.3646 9.73742C10.2686 9.99564 8.83628 8.40859 8.39758 8.24888C8.1896 8.17343 7.54755 7.74585 7.56734 7.6268H7.56776Z" fill="url(#paint8_linear_8312_5748)"/>
<path style="mix-blend-mode:screen" opacity="0.29" d="M6.52628 9.27212C6.29598 9.24236 4.14123 13.3311 4.7256 13.35C5.30997 13.3689 6.14947 13.0629 6.23957 12.5355C6.32966 12.0082 6.74268 9.30021 6.52628 9.27212Z" fill="url(#paint9_linear_8312_5748)"/>
<path style="mix-blend-mode:multiply" d="M12.1306 10.7284C12.5987 10.3352 14.1641 11.6544 14.5249 12.3112C15.2604 13.6501 14.1022 14.3649 12.5309 14.5879C10.9597 14.8109 10.8023 14.6277 10.9534 14.2487C11.1041 13.8694 11.859 10.8747 12.0371 10.7724C12.2152 10.6705 11.6628 11.1216 12.131 10.7284H12.1306Z" fill="url(#paint10_linear_8312_5748)"/>
<g opacity="0.5">
<path style="mix-blend-mode:screen" opacity="0.8" d="M6.99747 7.07946C7.14955 6.43131 6.74513 5.78314 6.09416 5.63171C5.4432 5.48029 4.7922 5.88296 4.64012 6.5311C4.48803 7.17925 4.89246 7.82742 5.54342 7.97885C6.19439 8.13027 6.84539 7.7276 6.99747 7.07946Z" fill="url(#paint11_radial_8312_5748)"/>
</g>
<path d="M5.72725 6.6589C5.8085 6.6086 5.91544 6.63333 5.96596 6.71423C6.01648 6.79513 5.99164 6.90161 5.91039 6.95191C5.82913 7.00221 5.72219 6.97748 5.67167 6.89658C5.62115 6.81568 5.64599 6.7092 5.72725 6.6589Z" fill="#FFE295"/>
<g opacity="0.5">
<path style="mix-blend-mode:screen" opacity="0.8" d="M14.5453 15.6788C14.6974 15.0307 14.293 14.3825 13.642 14.2311C12.9911 14.0797 12.3401 14.4823 12.188 15.1305C12.0359 15.7786 12.4403 16.4268 13.0913 16.5782C13.7422 16.7296 14.3932 16.327 14.5453 15.6788Z" fill="url(#paint12_radial_8312_5748)"/>
</g>
<path d="M13.2751 15.2586C13.3564 15.2083 13.4633 15.233 13.5138 15.3139C13.5643 15.3948 13.5395 15.5013 13.4582 15.5516C13.377 15.6019 13.27 15.5772 13.2195 15.4963C13.169 15.4153 13.1938 15.3089 13.2751 15.2586Z" fill="#FFE295"/>
<g opacity="0.5">
<path style="mix-blend-mode:screen" opacity="0.8" d="M10.9042 3.34698C10.9807 3.02076 10.7772 2.69453 10.4495 2.61832C10.1219 2.54211 9.79424 2.74477 9.7177 3.07099C9.64115 3.3972 9.8447 3.72343 10.1723 3.79964C10.5 3.87585 10.8276 3.67319 10.9042 3.34698Z" fill="url(#paint13_radial_8312_5748)"/>
</g>
<path d="M10.3114 3.29574C10.3593 3.29574 10.3982 3.25689 10.3982 3.20897C10.3982 3.16105 10.3593 3.1222 10.3114 3.1222C10.2635 3.1222 10.2246 3.16105 10.2246 3.20897C10.2246 3.25689 10.2635 3.29574 10.3114 3.29574Z" fill="#FFE295"/>
<g opacity="0.5">
<path style="mix-blend-mode:screen" opacity="0.8" d="M16.0105 12.6202C15.7246 12.7971 15.3491 12.7095 15.1714 12.4248C14.9937 12.1402 15.0817 11.7663 15.3676 11.5894C15.6535 11.4125 16.029 11.5001 16.2067 11.7847C16.3844 12.0694 16.2964 12.4433 16.0105 12.6202Z" fill="url(#paint14_radial_8312_5748)"/>
</g>
<path d="M15.6427 12.0308C15.6834 12.0057 15.737 12.0178 15.7622 12.0589C15.7873 12.0996 15.7752 12.1532 15.7341 12.1784C15.6934 12.2035 15.6398 12.1914 15.6146 12.1503C15.5895 12.1096 15.6016 12.056 15.6427 12.0308Z" fill="#FFE295"/>
<g opacity="0.5">
<path style="mix-blend-mode:screen" opacity="0.8" d="M14.8807 11.7142C15.0562 11.4284 14.9658 11.055 14.6787 10.8803C14.3917 10.7056 14.0167 10.7956 13.8412 11.0814C13.6657 11.3672 13.7561 11.7406 14.0432 11.9153C14.3303 12.0901 14.7052 12 14.8807 11.7142Z" fill="url(#paint15_radial_8312_5748)"/>
</g>
<path d="M14.3405 11.3119C14.387 11.3006 14.434 11.3295 14.4453 11.376C14.4566 11.4226 14.4277 11.4695 14.3812 11.4808C14.3346 11.4922 14.2877 11.4632 14.2764 11.4167C14.2651 11.3702 14.294 11.3232 14.3405 11.3119Z" fill="#FFE295"/>
<g opacity="0.6">
<path style="mix-blend-mode:screen" opacity="0.63" d="M12.9629 4.84057C13.0187 2.18779 12.6636 0.0289455 12.1699 0.0186474C11.6761 0.00834937 11.2306 2.1505 11.1748 4.80328C11.119 7.45606 11.474 9.6149 11.9678 9.6252C12.4615 9.6355 12.907 7.49335 12.9629 4.84057Z" fill="url(#paint16_radial_8312_5748)"/>
<path style="mix-blend-mode:screen" opacity="0.57" d="M15.871 4.84225C15.8739 2.99015 14.1734 1.48607 12.0728 1.48278C9.97223 1.4795 8.267 2.97825 8.26408 4.83035C8.26116 6.68244 9.96165 8.18652 12.0622 8.18981C14.1628 8.19309 15.868 6.69434 15.871 4.84225Z" fill="url(#paint17_radial_8312_5748)"/>
<path style="mix-blend-mode:screen" opacity="0.63" d="M17.3782 4.89007C17.3855 4.45026 14.9771 4.05369 11.9989 4.0043C9.02077 3.95492 6.60058 4.27142 6.59328 4.71124C6.58599 5.15105 8.99436 5.54762 11.9725 5.59701C14.9507 5.64639 17.3709 5.32989 17.3782 4.89007Z" fill="url(#paint18_radial_8312_5748)"/>
</g>
<g opacity="0.5">
<path style="mix-blend-mode:screen" opacity="0.8" d="M10.9921 5.83481C11.0686 5.5086 10.865 5.18237 10.5374 5.10616C10.2098 5.02995 9.88213 5.23261 9.80559 5.55882C9.72904 5.88504 9.93259 6.21127 10.2602 6.28748C10.5879 6.36369 10.9155 6.16103 10.9921 5.83481Z" fill="url(#paint19_radial_8312_5748)"/>
</g>
<path d="M10.3527 5.6235C10.3933 5.59835 10.447 5.61051 10.4721 5.65159C10.4973 5.69267 10.4851 5.7459 10.4441 5.77106C10.4034 5.79621 10.3497 5.78405 10.3246 5.74297C10.2994 5.70189 10.3116 5.64865 10.3527 5.6235Z" fill="#FFE295"/>
<g opacity="0.5">
<path style="mix-blend-mode:screen" opacity="0.8" d="M12.1585 3.80434C12.8257 3.76208 13.3321 3.18934 13.2897 2.52509C13.2472 1.86083 12.672 1.35661 12.0048 1.39886C11.3377 1.44112 10.8313 2.01386 10.8737 2.67811C10.9162 3.34237 11.4914 3.8466 12.1585 3.80434Z" fill="url(#paint20_radial_8312_5748)"/>
</g>
<path d="M12.026 2.76588C11.9355 2.73528 11.8867 2.63761 11.9174 2.54706C11.9481 2.45694 12.0462 2.40831 12.1372 2.43891C12.2277 2.46951 12.2765 2.56719 12.2458 2.65773C12.2151 2.74786 12.117 2.79648 12.026 2.76588Z" fill="#FFE295"/>
</g>
<defs>
<radialGradient id="paint0_radial_8312_5748" cx="0" cy="0" r="1" gradientUnits="userSpaceOnUse" gradientTransform="translate(9.98166 10.551) rotate(31.9581) scale(6.91458 7.75902)">
<stop offset="0.24" stop-color="#FF8C08"/>
<stop offset="0.94" stop-color="#020000"/>
</radialGradient>
<linearGradient id="paint1_linear_8312_5748" x1="4.13626" y1="9.64643" x2="14.9255" y2="9.61427" gradientUnits="userSpaceOnUse">
<stop stop-color="#FEDE0A"/>
<stop offset="0.39" stop-color="#F1AC05"/>
<stop offset="0.8" stop-color="#E57D01"/>
<stop offset="1" stop-color="#E16C00"/>
</linearGradient>
<linearGradient id="paint2_linear_8312_5748" x1="4.45941" y1="10.0039" x2="14.9944" y2="9.97249" gradientUnits="userSpaceOnUse">
<stop stop-color="#FEDE0A"/>
<stop offset="0.39" stop-color="#F1AC05"/>
<stop offset="0.8" stop-color="#E57D01"/>
<stop offset="1" stop-color="#E16C00"/>
</linearGradient>
<linearGradient id="paint3_linear_8312_5748" x1="9.66296" y1="4.87521" x2="10.0788" y2="9.87062" gradientUnits="userSpaceOnUse">
<stop stop-color="#FFE347"/>
<stop offset="0.1" stop-color="#FEDC48"/>
<stop offset="0.68" stop-color="#FCBA4D"/>
<stop offset="1" stop-color="#FCAE50"/>
</linearGradient>
<linearGradient id="paint4_linear_8312_5748" x1="4.9226" y1="12.6476" x2="14.7228" y2="12.6195" gradientUnits="userSpaceOnUse">
<stop stop-color="#FEDE0A"/>
<stop offset="0.39" stop-color="#F1AC05"/>
<stop offset="0.8" stop-color="#E57D01"/>
<stop offset="1" stop-color="#E16C00"/>
</linearGradient>
<linearGradient id="paint5_linear_8312_5748" x1="7.43166" y1="10.2022" x2="10.1938" y2="11.3066" gradientUnits="userSpaceOnUse">
<stop stop-color="#FEDE0A"/>
<stop offset="0.39" stop-color="#F1AC05"/>
<stop offset="0.8" stop-color="#E57D01"/>
<stop offset="1" stop-color="#E16C00"/>
</linearGradient>
<linearGradient id="paint6_linear_8312_5748" x1="5.67725" y1="12.3117" x2="14.8015" y2="12.3117" gradientUnits="userSpaceOnUse">
<stop stop-color="#FEDE0A"/>
<stop offset="0.39" stop-color="#F1AC05"/>
<stop offset="0.8" stop-color="#E57D01"/>
<stop offset="1" stop-color="#E16C00"/>
</linearGradient>
<linearGradient id="paint7_linear_8312_5748" x1="11.6753" y1="8.94725" x2="13.3373" y2="7.68777" gradientUnits="userSpaceOnUse">
<stop stop-color="#FFE347"/>
<stop offset="0.1" stop-color="#FEDC48"/>
<stop offset="0.68" stop-color="#FCBA4D"/>
<stop offset="1" stop-color="#FCAE50"/>
</linearGradient>
<linearGradient id="paint8_linear_8312_5748" x1="9.48253" y1="8.19858" x2="7.59521" y2="8.06708" gradientUnits="userSpaceOnUse">
<stop stop-color="#FFE347"/>
<stop offset="0.1" stop-color="#FEDC48"/>
<stop offset="0.68" stop-color="#FCBA4D"/>
<stop offset="1" stop-color="#FCAE50"/>
</linearGradient>
<linearGradient id="paint9_linear_8312_5748" x1="7.17801" y1="10.5838" x2="4.47222" y2="12.1643" gradientUnits="userSpaceOnUse">
<stop stop-color="#FFE347"/>
<stop offset="0.1" stop-color="#FEDC48"/>
<stop offset="0.68" stop-color="#FCBA4D"/>
<stop offset="1" stop-color="#FCAE50"/>
</linearGradient>
<linearGradient id="paint10_linear_8312_5748" x1="14.308" y1="16.815" x2="11.688" y2="11.1301" gradientUnits="userSpaceOnUse">
<stop stop-color="#FEDE0A"/>
<stop offset="0.39" stop-color="#F1AC05"/>
<stop offset="0.8" stop-color="#E57D01"/>
<stop offset="1" stop-color="#E16C00"/>
</linearGradient>
<radialGradient id="paint11_radial_8312_5748" cx="0" cy="0" r="1" gradientUnits="userSpaceOnUse" gradientTransform="translate(5.82124 6.80604) rotate(-121.962) scale(1.20663 1.20895)">
<stop stop-color="#FFBA00"/>
<stop offset="0.08" stop-color="#E3A500"/>
<stop offset="0.34" stop-color="#936B00"/>
<stop offset="0.57" stop-color="#543D00"/>
<stop offset="0.77" stop-color="#261C00"/>
<stop offset="0.91" stop-color="#0A0700"/>
<stop offset="1"/>
</radialGradient>
<radialGradient id="paint12_radial_8312_5748" cx="0" cy="0" r="1" gradientUnits="userSpaceOnUse" gradientTransform="translate(13.3688 15.4059) rotate(-121.962) scale(1.20663 1.20895)">
<stop stop-color="#FFBA00"/>
<stop offset="0.08" stop-color="#E3A500"/>
<stop offset="0.34" stop-color="#936B00"/>
<stop offset="0.57" stop-color="#543D00"/>
<stop offset="0.77" stop-color="#261C00"/>
<stop offset="0.91" stop-color="#0A0700"/>
<stop offset="1"/>
</radialGradient>
<radialGradient id="paint13_radial_8312_5748" cx="0" cy="0" r="1" gradientUnits="userSpaceOnUse" gradientTransform="translate(10.3136 3.20981) rotate(-121.962) scale(0.607304 0.608469)">
<stop stop-color="#FFBA00"/>
<stop offset="0.08" stop-color="#E3A500"/>
<stop offset="0.34" stop-color="#936B00"/>
<stop offset="0.57" stop-color="#543D00"/>
<stop offset="0.77" stop-color="#261C00"/>
<stop offset="0.91" stop-color="#0A0700"/>
<stop offset="1"/>
</radialGradient>
<radialGradient id="paint14_radial_8312_5748" cx="0" cy="0" r="1" gradientUnits="userSpaceOnUse" gradientTransform="translate(15.6903 12.1048) rotate(-121.962) scale(0.607303 0.608469)">
<stop stop-color="#FFBA00"/>
<stop offset="0.08" stop-color="#E3A500"/>
<stop offset="0.34" stop-color="#936B00"/>
<stop offset="0.57" stop-color="#543D00"/>
<stop offset="0.77" stop-color="#261C00"/>
<stop offset="0.91" stop-color="#0A0700"/>
<stop offset="1"/>
</radialGradient>
<radialGradient id="paint15_radial_8312_5748" cx="0" cy="0" r="1" gradientUnits="userSpaceOnUse" gradientTransform="translate(14.3611 11.3963) rotate(-103.617) scale(0.606713 0.609061)">
<stop stop-color="#FFBA00"/>
<stop offset="0.08" stop-color="#E3A500"/>
<stop offset="0.34" stop-color="#936B00"/>
<stop offset="0.57" stop-color="#543D00"/>
<stop offset="0.77" stop-color="#261C00"/>
<stop offset="0.91" stop-color="#0A0700"/>
<stop offset="1"/>
</radialGradient>
<radialGradient id="paint16_radial_8312_5748" cx="0" cy="0" r="1" gradientUnits="userSpaceOnUse" gradientTransform="translate(12.1848 4.83588) rotate(-179.054) scale(0.798368 4.31901)">
<stop stop-color="#FCE785"/>
<stop offset="0.38" stop-color="#91854D"/>
<stop offset="0.68" stop-color="#433D23"/>
<stop offset="0.9" stop-color="#121109"/>
<stop offset="1"/>
</radialGradient>
<radialGradient id="paint17_radial_8312_5748" cx="0" cy="0" r="1" gradientUnits="userSpaceOnUse" gradientTransform="translate(12.011 4.83667) rotate(-179.044) scale(3.81485 3.35852)">
<stop stop-color="#FCE785"/>
<stop offset="0.38" stop-color="#91854D"/>
<stop offset="0.68" stop-color="#433D23"/>
<stop offset="0.9" stop-color="#121109"/>
<stop offset="1"/>
</radialGradient>
<radialGradient id="paint18_radial_8312_5748" cx="0" cy="0" r="1" gradientUnits="userSpaceOnUse" gradientTransform="translate(11.9567 5.02043) rotate(91.191) scale(0.730925 4.94841)">
<stop stop-color="#FCE785"/>
<stop offset="0.38" stop-color="#91854D"/>
<stop offset="0.68" stop-color="#433D23"/>
<stop offset="0.9" stop-color="#121109"/>
<stop offset="1"/>
</radialGradient>
<radialGradient id="paint19_radial_8312_5748" cx="0" cy="0" r="1" gradientUnits="userSpaceOnUse" gradientTransform="translate(10.4011 5.69778) rotate(-121.962) scale(0.607304 0.608469)">
<stop stop-color="#FFBA00"/>
<stop offset="0.08" stop-color="#E3A500"/>
<stop offset="0.34" stop-color="#936B00"/>
<stop offset="0.57" stop-color="#543D00"/>
<stop offset="0.77" stop-color="#261C00"/>
<stop offset="0.91" stop-color="#0A0700"/>
<stop offset="1"/>
</radialGradient>
<radialGradient id="paint20_radial_8312_5748" cx="0" cy="0" r="1" gradientUnits="userSpaceOnUse" gradientTransform="translate(12.0826 2.60055) rotate(108.736) scale(1.20571 1.20988)">
<stop stop-color="#FFBA00"/>
<stop offset="0.08" stop-color="#E3A500"/>
<stop offset="0.34" stop-color="#936B00"/>
<stop offset="0.57" stop-color="#543D00"/>
<stop offset="0.77" stop-color="#261C00"/>
<stop offset="0.91" stop-color="#0A0700"/>
<stop offset="1"/>
</radialGradient>
<clipPath id="clip0_8312_5748">
<rect width="20" height="20.7273" fill="white"/>
</clipPath>
</defs>
</svg>
