<svg width="20" height="24" viewBox="0 0 20 24" fill="none" xmlns="http://www.w3.org/2000/svg">
<g filter="url(#filter0_i_10390_19460)">
<path d="M19.2524 22.5944L12.8972 0.638004C12.8434 0.451622 12.7423 0.289982 12.608 0.175602C12.4737 0.0612221 12.313 -0.000204086 12.1481 -0.000118256L7.14272 -0.000118256C6.97766 -0.000328064 6.81665 0.0610199 6.68209 0.175388C6.54752 0.289757 6.44609 0.451458 6.39191 0.638004L0.0436583 22.5944C0.00238106 22.7372 -0.00976498 22.8898 0.00825117 23.0394C0.0262673 23.1889 0.0739218 23.3312 0.147225 23.4543C0.220529 23.5773 0.31736 23.6777 0.429651 23.7469C0.541941 23.816 0.666432 23.8521 0.79274 23.8521L18.5033 23.852C18.6296 23.8521 18.7541 23.816 18.8664 23.7469C18.9787 23.6777 19.0755 23.5773 19.1488 23.4543C19.2221 23.3312 19.2698 23.1889 19.2878 23.0394C19.3058 22.8898 19.2937 22.7372 19.2524 22.5944Z" fill="url(#paint0_linear_10390_19460)"/>
<path fill-rule="evenodd" clip-rule="evenodd" d="M11.3215 3.62842L7.97477 3.62842V3.63048C7.80869 3.62808 7.64617 3.6882 7.5102 3.80234C7.37423 3.91648 7.27169 4.07887 7.21706 4.26654L2.72944 19.788C2.68823 19.9309 2.67613 20.0836 2.69415 20.2333C2.71217 20.3829 2.75981 20.5253 2.83307 20.6485C2.90634 20.7717 3.00312 20.8722 3.11538 20.9416C3.22764 21.0111 3.35214 21.0474 3.47852 21.0477L15.8091 21.0477C15.9356 21.0479 16.0604 21.0118 16.1728 20.9425C16.2853 20.8732 16.3823 20.7727 16.4556 20.6493C16.5289 20.526 16.5765 20.3834 16.5944 20.2336C16.6122 20.0837 16.5998 19.9309 16.5582 19.788L12.0706 4.26654C12.0167 4.08016 11.9156 3.91852 11.7813 3.80414C11.6471 3.68976 11.4863 3.62833 11.3215 3.62842ZM10.5916 4.43831L8.70304 4.43831C8.54749 4.43889 8.39604 4.49343 8.27005 4.59423C8.14407 4.69502 8.04991 4.837 8.00088 5.0001L3.84846 18.8219C3.81141 18.9452 3.80138 19.0764 3.81918 19.2048C3.83698 19.3332 3.8821 19.455 3.95085 19.5604C4.0196 19.6657 4.11001 19.7515 4.21463 19.8107C4.31925 19.8699 4.43509 19.9009 4.55264 19.9009L14.744 19.9009C14.8614 19.9005 14.977 19.8693 15.0814 19.81C15.1857 19.7506 15.2759 19.6648 15.3444 19.5595C15.4129 19.4542 15.4579 19.3324 15.4755 19.2042C15.4932 19.076 15.4832 18.945 15.4462 18.8219L11.2958 5.0001C11.2464 4.83682 11.1518 4.69478 11.0255 4.59399C10.8992 4.49321 10.7474 4.43876 10.5916 4.43831Z" fill="#361D0C"/>
<path fill-rule="evenodd" clip-rule="evenodd" d="M9.56994 16.056C8.69775 16.056 7.9907 15.2078 7.9907 14.1614C7.9907 13.1151 8.69775 12.2668 9.56994 12.2668C10.4421 12.2668 11.1492 13.1151 11.1492 14.1614C11.1492 15.2078 10.4421 16.056 9.56994 16.056ZM6.7431 14.1614C6.7431 16.0344 8.00872 17.5527 9.56994 17.5527C11.1312 17.5527 12.3968 16.0344 12.3968 14.1614C12.3968 12.2885 11.1312 10.7701 9.56994 10.7701C8.00872 10.7701 6.7431 12.2885 6.7431 14.1614Z" fill="#382315"/>
<g filter="url(#filter1_d_10390_19460)">
<path d="M11.2209 14.161C11.2209 13.0671 10.4817 12.1804 9.56994 12.1804C8.65815 12.1804 7.91899 13.0671 7.91899 14.161C7.91899 15.2549 8.65815 16.1416 9.56994 16.1416C10.4817 16.1416 11.2209 15.2549 11.2209 14.161Z" fill="#FFDEC9"/>
</g>
</g>
<defs>
<filter id="filter0_i_10390_19460" x="0.000152588" y="0" width="19.2957" height="23.8521" filterUnits="userSpaceOnUse" color-interpolation-filters="sRGB">
<feFlood flood-opacity="0" result="BackgroundImageFix"/>
<feBlend mode="normal" in="SourceGraphic" in2="BackgroundImageFix" result="shape"/>
<feColorMatrix in="SourceAlpha" type="matrix" values="0 0 0 0 0 0 0 0 0 0 0 0 0 0 0 0 0 0 127 0" result="hardAlpha"/>
<feOffset/>
<feGaussianBlur stdDeviation="7.48357"/>
<feComposite in2="hardAlpha" operator="arithmetic" k2="-1" k3="1"/>
<feColorMatrix type="matrix" values="0 0 0 0 0 0 0 0 0 0 0 0 0 0 0 0 0 0 0.25 0"/>
<feBlend mode="normal" in2="shape" result="effect1_innerShadow_10390_19460"/>
</filter>
<filter id="filter1_d_10390_19460" x="1.93214" y="6.19332" width="15.2756" height="15.9351" filterUnits="userSpaceOnUse" color-interpolation-filters="sRGB">
<feFlood flood-opacity="0" result="BackgroundImageFix"/>
<feColorMatrix in="SourceAlpha" type="matrix" values="0 0 0 0 0 0 0 0 0 0 0 0 0 0 0 0 0 0 127 0" result="hardAlpha"/>
<feOffset/>
<feGaussianBlur stdDeviation="2.99343"/>
<feComposite in2="hardAlpha" operator="out"/>
<feColorMatrix type="matrix" values="0 0 0 0 1 0 0 0 0 1 0 0 0 0 1 0 0 0 1 0"/>
<feBlend mode="normal" in2="BackgroundImageFix" result="effect1_dropShadow_10390_19460"/>
<feBlend mode="normal" in="SourceGraphic" in2="effect1_dropShadow_10390_19460" result="shape"/>
</filter>
<linearGradient id="paint0_linear_10390_19460" x1="9.64803" y1="23.8521" x2="9.64803" y2="-0.000118256" gradientUnits="userSpaceOnUse">
<stop stop-color="#FFDEC9"/>
<stop offset="1" stop-color="#BD7B4F"/>
</linearGradient>
</defs>
</svg>
