<svg width="42" height="43" viewBox="0 0 42 43" fill="none" xmlns="http://www.w3.org/2000/svg">
<circle cx="21" cy="21.5" r="20.5" fill="url(#paint0_linear_8728_7422)" stroke="#95613F"/>
<path fill-rule="evenodd" clip-rule="evenodd" d="M21.4071 34.4532C21.4071 34.5 21.4535 34.5 21.5 34.5H21.5929C21.6394 34.4532 21.6859 34.4062 21.6394 34.3125C21.6394 34.3125 21.3606 33.5627 21.5465 32.8128C21.6394 32.5315 21.7788 32.2972 21.9182 32.0629C22.1506 31.6879 22.3365 31.3599 22.3829 30.7974C22.4294 30.4224 22.2435 30.0945 22.1041 29.86C22.09 29.8315 22.0758 29.8034 22.0618 29.7757C21.9383 29.5308 21.83 29.316 21.8718 29.0633C21.9501 28.6288 22.1275 28.3274 22.2926 28.0469C22.3234 27.9947 22.3537 27.9432 22.3829 27.8916C22.417 27.8228 22.4539 27.754 22.4916 27.6838C22.6078 27.4672 22.7309 27.2375 22.8011 26.9542C22.8941 26.6261 22.8941 26.345 22.8941 26.1107C23.2623 26.7141 23.2202 27.1797 23.1742 27.6894L23.1729 27.7041C23.1264 28.0791 23.1264 28.4541 23.2194 28.8759C23.3914 29.5263 23.7622 29.7354 24.0743 29.9115C24.0996 29.9257 24.1244 29.9398 24.1488 29.9538C24.1754 29.9699 24.2015 29.9854 24.2268 30.0006C24.4225 30.1172 24.5777 30.2096 24.66 30.3756C24.7709 30.5995 24.7641 30.7936 24.7568 31.0053C24.7549 31.0595 24.7529 31.115 24.7529 31.1724C24.7064 31.4536 24.7064 31.7817 24.8459 32.2034C25.1712 33.1877 26.2864 33.4689 26.3329 33.4689C26.4258 33.4689 26.4723 33.4689 26.6117 33.3752C26.6582 33.3283 26.6582 33.2346 26.6117 33.1877C26.6117 33.1877 26.0541 32.5784 25.9611 31.8285C25.9147 31.5476 25.9611 31.2666 26.0075 30.9856L26.0076 30.9849C26.014 30.9269 26.0213 30.8688 26.0286 30.8106C26.0744 30.4452 26.1214 30.0703 25.9611 29.6257C25.8774 29.2879 25.6427 29.1022 25.4271 28.9317C25.4034 28.913 25.38 28.8944 25.357 28.8759C25.1247 28.6884 24.8923 28.5009 24.8459 28.2197C24.7281 27.7842 24.7761 27.4491 24.8219 27.1295C24.8303 27.0707 24.8386 27.0125 24.8459 26.9542C24.8549 26.8907 24.8656 26.8272 24.8764 26.7634C24.9213 26.4974 24.9673 26.2256 24.8923 25.9232C24.8459 25.6421 24.753 25.4079 24.6601 25.1736C25.2177 25.5954 25.357 26.0169 25.4965 26.4856C25.5022 26.5058 25.5079 26.5261 25.5137 26.5467C25.6015 26.8596 25.6994 27.2088 25.9611 27.5166C26.3702 28.0668 26.8239 28.1237 27.1915 28.1697C27.1996 28.1708 27.2077 28.1718 27.2158 28.1728C27.4482 28.1728 27.6341 28.2197 27.82 28.3603C28.0523 28.5946 28.1452 28.7821 28.2381 29.0633C28.3311 29.3445 28.4705 29.6726 28.7493 30.0007C29.4026 30.7034 30.4231 30.6241 30.5871 30.6114C30.5981 30.6105 30.6052 30.6099 30.6082 30.6099C30.6546 30.6099 30.7475 30.5631 30.7475 30.4694C30.7475 30.3756 30.7475 30.3288 30.6546 30.2819C30.6082 30.2819 29.911 29.9538 29.5393 29.2976C29.3999 29.0165 29.307 28.7821 29.2605 28.5009C29.2568 28.4859 29.2531 28.4709 29.2494 28.4558C29.1597 28.0923 29.0598 27.6873 28.7029 27.2823C28.5141 27.0539 28.264 26.9801 28.0274 26.9102C27.9727 26.8941 27.9187 26.8782 27.8664 26.8606C27.5875 26.8136 27.3552 26.7199 27.1694 26.4856C26.8905 26.0637 26.7976 25.6888 26.7046 25.3139C26.6861 25.2484 26.6694 25.1829 26.6527 25.1174C26.5858 24.8548 26.5188 24.5923 26.3329 24.3297C26.3091 24.2936 26.286 24.2584 26.2635 24.2239C26.1105 23.9899 25.9838 23.7961 25.8217 23.6735C26.47 23.8043 26.7565 24.1378 27.0551 24.4854C27.0776 24.5116 27.1001 24.5378 27.1229 24.564C27.3551 24.845 27.5877 25.1265 27.9594 25.3607C28.5356 25.6928 28.9295 25.5837 29.2704 25.4893C29.3144 25.4771 29.3574 25.4652 29.3999 25.4545C29.4529 25.4438 29.5035 25.4307 29.5528 25.4179C29.7195 25.3746 29.8712 25.3353 30.0505 25.4077C30.3212 25.5247 30.4632 25.6741 30.6104 25.829C30.64 25.8603 30.6699 25.8917 30.7011 25.9232C30.7712 25.9797 30.837 26.0448 30.9063 26.1132C31.0667 26.2717 31.2454 26.4484 31.5375 26.5793C32.467 27.048 33.4428 26.4856 33.4893 26.4387C33.5822 26.3918 33.5822 26.345 33.5822 26.2512C33.5357 26.1575 33.4893 26.1107 33.3963 26.1107C33.3963 26.1107 32.6064 26.0637 32.0022 25.5951C31.7915 25.4251 31.6572 25.2551 31.4954 25.0501C31.4788 25.029 31.4619 25.0076 31.4446 24.9858C31.2122 24.6578 30.9334 24.3297 30.4687 24.0953C30.0969 23.9078 29.7717 23.9547 29.4929 24.0016C29.214 24.0484 28.9817 24.0484 28.7029 23.9078C28.2847 23.6267 28.0523 23.3454 27.82 23.0173C27.7883 22.9774 27.7566 22.9362 27.7243 22.894C27.5667 22.6886 27.3928 22.4619 27.1229 22.2674C26.8905 22.08 26.6582 21.9863 26.4258 21.8925C27.0764 21.7988 27.4947 21.9863 27.9128 22.2206C27.9791 22.2492 28.0453 22.2798 28.1123 22.3107C28.3744 22.4317 28.6486 22.5582 28.9817 22.5955C29.6636 22.6872 30.0342 22.3752 30.311 22.1422C30.3171 22.1371 30.3232 22.1319 30.3293 22.1269C30.3564 22.1063 30.3826 22.0858 30.4082 22.0657C30.5579 21.9482 30.6885 21.8457 30.8869 21.8457C31.2122 21.8457 31.4446 21.9394 31.6769 22.08C31.9557 22.2206 32.2346 22.3612 32.6993 22.4081C33.6868 22.4514 34.3172 21.6945 34.4442 21.5422C34.4546 21.5296 34.4616 21.5212 34.4652 21.5176C34.5116 21.4707 34.5116 21.3769 34.4652 21.3301C34.4187 21.2833 34.3721 21.2364 34.2793 21.2833C34.2793 21.2833 33.5357 21.5644 32.7922 21.3769C32.5134 21.3301 32.2811 21.1895 32.0487 21.0489C31.6769 20.8145 31.3516 20.6271 30.794 20.5802C30.4222 20.5334 30.0969 20.7208 29.8646 20.8614C29.8363 20.8757 29.8085 20.89 29.781 20.904C29.5381 21.0286 29.3251 21.1379 29.0746 21.0958C28.6436 21.0167 28.3447 20.8377 28.0665 20.6711C28.0148 20.6401 27.9638 20.6096 27.9128 20.5802C27.8445 20.5457 27.7762 20.5085 27.7065 20.4705C27.4918 20.3534 27.2641 20.2291 26.9835 20.1584C26.6582 20.0647 26.3793 20.0647 26.147 20.0647C26.7451 19.6934 27.2066 19.7357 27.7118 19.7821L27.727 19.7835C28.0987 19.8304 28.4705 19.8304 28.8887 19.7366C29.5334 19.5632 29.7409 19.1893 29.9155 18.8745C29.9297 18.849 29.9436 18.8238 29.9576 18.7992C29.9734 18.7725 29.9887 18.7464 30.0036 18.721C30.1193 18.5234 30.2111 18.3667 30.3758 18.2837C30.5976 18.1718 30.7901 18.1786 30.9999 18.1861C31.0538 18.188 31.1088 18.19 31.1658 18.19C31.4446 18.2368 31.7699 18.2368 32.1881 18.0962C33.164 17.7681 33.4428 16.6433 33.4428 16.5964C33.4428 16.5496 33.3963 16.4558 33.3499 16.409C33.3034 16.3621 33.2104 16.3621 33.164 16.409C33.164 16.409 32.5598 16.9714 31.8164 17.0651C31.5376 17.112 31.2588 17.0651 30.98 17.0183C30.9223 17.0118 30.8645 17.0044 30.8066 16.997C30.4445 16.9509 30.073 16.9035 29.6323 17.0651C29.2974 17.1496 29.1133 17.3862 28.9441 17.6036C28.9256 17.6275 28.9071 17.6512 28.8887 17.6744C28.7029 17.9086 28.5169 18.1431 28.2381 18.19C27.8065 18.3087 27.4743 18.2603 27.1575 18.2142C27.0991 18.2057 27.0413 18.1973 26.9835 18.19C26.9206 18.1809 26.8578 18.1701 26.7947 18.1592C26.5308 18.1139 26.2611 18.0675 25.9611 18.1431C25.6827 18.1899 25.4506 18.2835 25.2185 18.377L25.2176 18.3774C25.6359 17.815 26.0541 17.6744 26.5188 17.5338C26.539 17.528 26.5593 17.5222 26.5799 17.5163C26.89 17.4277 27.236 17.3289 27.5411 17.0651C28.0865 16.6526 28.1429 16.1953 28.1886 15.8246C28.1896 15.8163 28.1907 15.808 28.1917 15.7997C28.1917 15.5654 28.2381 15.3779 28.3776 15.1904C28.6099 14.9561 28.7958 14.8623 29.0746 14.7686C29.3534 14.6749 29.6787 14.5342 30.004 14.253C30.7008 13.5942 30.6222 12.5648 30.6095 12.3995C30.6087 12.3885 30.6082 12.3813 30.6082 12.3783C30.6082 12.3315 30.5616 12.2377 30.4687 12.2377C30.3758 12.2377 30.3293 12.2377 30.2829 12.3315C30.2829 12.3783 29.9576 13.0813 29.307 13.4563C29.0281 13.5969 28.7958 13.6906 28.517 13.7375C28.5022 13.7412 28.4874 13.7449 28.4725 13.7487C28.112 13.8391 27.7104 13.9398 27.3088 14.2999C27.037 14.4957 26.9599 14.7569 26.8876 15.0016C26.8734 15.0497 26.8594 15.0973 26.8441 15.1435C26.7976 15.4247 26.7046 15.6591 26.4723 15.8466C26.0542 16.1277 25.6824 16.2215 25.3108 16.3152C25.2457 16.3339 25.1804 16.3509 25.1154 16.3677C24.8552 16.4352 24.5949 16.5027 24.3347 16.6902C24.299 16.7141 24.2641 16.7373 24.2301 16.76C23.9979 16.9144 23.8056 17.0422 23.6841 17.2057C23.8137 16.5518 24.1445 16.2628 24.4892 15.9617C24.5151 15.939 24.541 15.9163 24.567 15.8934C24.8459 15.6591 25.1247 15.4247 25.357 15.0498C25.6863 14.4686 25.5781 14.0713 25.4845 13.7276C25.4724 13.6832 25.4606 13.6397 25.4499 13.5969C25.4394 13.5434 25.4263 13.4924 25.4137 13.4427C25.3708 13.2746 25.3318 13.1216 25.4035 12.9407C25.5195 12.6678 25.6676 12.5246 25.8212 12.3762C25.8522 12.3463 25.8834 12.3161 25.9146 12.2846C25.9707 12.2139 26.0352 12.1475 26.1031 12.0776C26.2602 11.9159 26.4354 11.7356 26.5652 11.441C27.0299 10.5036 26.4723 9.51938 26.4258 9.47251C26.3793 9.37877 26.3329 9.37877 26.2399 9.37877C26.147 9.42564 26.1005 9.47251 26.1005 9.56625C26.1005 9.56625 26.0541 10.363 25.5893 10.9723C25.4207 11.1849 25.2521 11.3204 25.0487 11.4837C25.0279 11.5003 25.0068 11.5173 24.9853 11.5347C24.66 11.769 24.3347 12.0502 24.1023 12.5189C23.9164 12.8939 23.9629 13.2219 24.0094 13.5032C24.0558 13.7844 24.0558 14.0187 23.9164 14.2999C23.6376 14.7217 23.3588 14.9561 23.0335 15.1904C22.994 15.2223 22.9531 15.2542 22.9113 15.2868C22.7076 15.4457 22.4828 15.6212 22.2899 15.8934C22.1041 16.1278 22.0112 16.3621 21.9182 16.5964C21.8253 15.9403 22.0112 15.5185 22.2435 15.0967C22.2719 15.0299 22.3022 14.9631 22.3329 14.8955C22.4528 14.6311 22.5783 14.3546 22.6152 14.0187C22.7062 13.331 22.3969 12.9573 22.1659 12.6781C22.1607 12.6719 22.1556 12.6657 22.1506 12.6595C22.1302 12.6322 22.1099 12.6058 22.09 12.58C21.9735 12.429 21.8718 12.2973 21.8718 12.0971C21.8718 11.769 21.9647 11.5347 22.1041 11.3004C22.2435 11.0192 22.3829 10.7379 22.4294 10.2693C22.4722 9.31837 21.7246 8.68636 21.5717 8.55703C21.5588 8.54613 21.5501 8.5388 21.5465 8.53515C21.5 8.48828 21.4071 8.48828 21.3606 8.53515C21.3142 8.58199 21.2677 8.62894 21.3141 8.72262C21.3141 8.72262 21.5929 9.47251 21.4071 10.2224C21.3143 10.5033 21.175 10.7374 21.0358 10.9715L21.0353 10.9723C20.8029 11.3472 20.617 11.6753 20.5706 12.2377C20.5242 12.6127 20.71 12.9407 20.8494 13.1751C20.8635 13.2035 20.8776 13.2314 20.8915 13.259C21.0151 13.5041 21.1235 13.719 21.0818 13.9718C21.0034 14.4066 20.8259 14.708 20.6607 14.9885C20.63 15.0407 20.5997 15.0921 20.5706 15.1435C20.5364 15.2125 20.4995 15.2814 20.4617 15.3518C20.3456 15.5683 20.2225 15.7979 20.1524 16.0809C20.0594 16.409 20.0594 16.6902 20.0594 16.9245C19.6912 16.321 19.7333 15.8555 19.7793 15.3457L19.7806 15.331C19.8271 14.9561 19.8271 14.5811 19.7341 14.1593C19.5622 13.509 19.1915 13.2999 18.8794 13.1238C18.8541 13.1095 18.8291 13.0954 18.8047 13.0813C18.7782 13.0653 18.7523 13.0499 18.7271 13.0348C18.5312 12.9181 18.3759 12.8256 18.2935 12.6595C18.1826 12.4358 18.1894 12.2417 18.1968 12.0301C18.1987 11.9757 18.2007 11.9202 18.2007 11.8628C18.2471 11.5816 18.2471 11.2535 18.1077 10.8317C17.7824 9.84746 16.6671 9.56625 16.6206 9.56625C16.5742 9.56625 16.4812 9.61312 16.4348 9.65998C16.3883 9.70685 16.3883 9.80059 16.4348 9.84746C16.4348 9.84746 16.9924 10.4567 17.0853 11.2066C17.1318 11.4878 17.0853 11.769 17.0389 12.0502C17.0325 12.1084 17.0252 12.1666 17.0179 12.225C16.9721 12.5902 16.9251 12.965 17.0853 13.4094C17.1691 13.7472 17.4037 13.9329 17.6193 14.1034C17.643 14.1222 17.6665 14.1407 17.6895 14.1593C17.9218 14.3468 18.1541 14.5343 18.2007 14.8155C18.3184 15.2508 18.2704 15.5859 18.2247 15.9053C18.2162 15.9642 18.2079 16.0226 18.2007 16.0809C18.1917 16.1443 18.181 16.2077 18.1702 16.2714C18.1252 16.5375 18.0792 16.8095 18.1541 17.112C18.2007 17.3932 18.2935 17.6276 18.3865 17.8619C17.8289 17.4401 17.6895 17.0183 17.5501 16.5496C17.5443 16.5292 17.5385 16.5087 17.5327 16.488C17.4449 16.1752 17.3469 15.8262 17.0853 15.5185C16.6763 14.9684 16.2227 14.9115 15.8552 14.8654C15.847 14.8644 15.8388 14.8633 15.8307 14.8623C15.5983 14.8623 15.4124 14.8155 15.2265 14.6749C14.9942 14.4405 14.9013 14.253 14.8083 13.9718C14.7154 13.6906 14.576 13.3626 14.2971 13.0345C13.6439 12.3317 12.6233 12.411 12.4594 12.4238C12.4484 12.4246 12.4413 12.4252 12.4383 12.4252C12.3919 12.4252 12.2989 12.4721 12.2989 12.5658C12.2525 12.6595 12.2989 12.7064 12.3919 12.7533C12.3919 12.7533 13.0889 13.0813 13.4607 13.55C13.6001 13.8312 13.693 14.0656 13.7395 14.3468C13.7432 14.3617 13.7469 14.3767 13.7506 14.3918C13.8403 14.7553 13.9402 15.1603 14.2971 15.5654C14.4913 15.8395 14.7503 15.9173 14.9929 15.9901C15.0407 16.0045 15.0878 16.0186 15.1336 16.034C15.4124 16.0809 15.6448 16.1746 15.8307 16.409C16.1094 16.8307 16.2024 17.2057 16.2953 17.5805C16.3139 17.6461 16.3307 17.7119 16.3474 17.7775C16.4143 18.0399 16.4812 18.3024 16.6671 18.5649C16.6909 18.6008 16.7139 18.636 16.7363 18.6704C16.8894 18.9045 17.0162 19.0984 17.1783 19.221C16.5299 19.0903 16.2434 18.7567 15.9448 18.409C15.9223 18.3829 15.8998 18.3567 15.8771 18.3306C15.6449 18.0495 15.4123 17.768 15.0407 17.5338C14.4644 17.2017 14.0705 17.3108 13.7296 17.4052C13.6857 17.4174 13.6426 17.4293 13.6001 17.4401C13.5471 17.4507 13.4965 17.4639 13.4472 17.4766C13.2805 17.5199 13.1289 17.5593 12.9495 17.4869C12.6788 17.3699 12.5368 17.2205 12.3897 17.0656C12.36 17.0343 12.3301 17.0029 12.2989 16.9714C12.2288 16.9148 12.163 16.8498 12.0937 16.7813C11.9333 16.6228 11.7545 16.4462 11.4625 16.3152C10.5331 15.8466 9.55719 16.409 9.51072 16.4558C9.41778 16.5027 9.41778 16.5496 9.41778 16.6433C9.46425 16.737 9.51072 16.7839 9.60367 16.7839C9.60367 16.7839 10.3937 16.8308 10.9978 17.2995C11.2086 17.4695 11.3429 17.6396 11.5048 17.8447C11.5213 17.8657 11.5382 17.887 11.5554 17.9087C11.7878 18.2368 12.0666 18.5649 12.5313 18.7992C12.903 18.9867 13.2283 18.9399 13.5072 18.893C13.786 18.8461 14.0183 18.8461 14.2971 18.9867C14.7154 19.2679 14.9477 19.5491 15.1801 19.8772C15.2117 19.9171 15.2434 19.9584 15.2757 20.0005C15.4333 20.2059 15.6072 20.4327 15.8771 20.6271C16.1095 20.8145 16.3418 20.9083 16.5742 21.002C15.9236 21.0958 15.5054 20.9083 15.0871 20.6739C15.0209 20.6453 14.9547 20.6148 14.8877 20.5838C14.6256 20.4629 14.3514 20.3363 14.0183 20.299C13.3365 20.2073 12.9659 20.5192 12.6891 20.7522C12.6829 20.7574 12.6768 20.7626 12.6707 20.7677C12.6436 20.7882 12.6174 20.8087 12.5919 20.8288C12.4421 20.9463 12.3115 21.0489 12.1131 21.0489C11.7878 21.0489 11.5554 20.9552 11.3231 20.8145C11.0442 20.6739 10.7654 20.5334 10.3007 20.4864C9.31302 20.4432 8.68248 21.2003 8.55579 21.3525C8.54539 21.365 8.53838 21.3734 8.53485 21.3769C8.48838 21.4239 8.48838 21.5176 8.53485 21.5644C8.58129 21.6112 8.62785 21.6582 8.72073 21.6113C8.72073 21.6113 9.46425 21.3301 10.2078 21.5176C10.4866 21.5644 10.7189 21.705 10.9513 21.8457C11.3231 22.08 11.6483 22.2674 12.206 22.3144C12.5778 22.3612 12.903 22.1738 13.1354 22.0331C13.1797 22.0107 13.2217 21.9884 13.2623 21.9668C13.4769 21.8525 13.6518 21.7594 13.9254 21.7988C14.3564 21.8778 14.6553 22.0568 14.9334 22.2234C14.9851 22.2544 15.0361 22.285 15.0871 22.3144C15.1555 22.3488 15.2239 22.3861 15.2936 22.4242C15.5083 22.5412 15.7359 22.6654 16.0165 22.7362C16.3418 22.8298 16.6206 22.8298 16.853 22.8298C16.2549 23.2011 15.7934 23.1588 15.2882 23.1125L15.273 23.1111C14.9013 23.0643 14.5295 23.0643 14.1113 23.1579C13.4665 23.3314 13.2591 23.7053 13.0845 24.0201C13.0703 24.0456 13.0564 24.0707 13.0425 24.0953C13.0265 24.1221 13.0112 24.1482 12.9963 24.1736C12.8806 24.3712 12.7889 24.5279 12.6242 24.6108C12.4023 24.7228 12.2099 24.7159 12 24.7085C11.9462 24.7065 11.8912 24.7046 11.8342 24.7046C11.5554 24.6578 11.2301 24.6578 10.8119 24.7983C9.83602 25.1264 9.55719 26.2512 9.55719 26.2982C9.55719 26.345 9.60367 26.4387 9.65014 26.4856C9.6966 26.5325 9.78954 26.5325 9.83602 26.4856C9.83602 26.4856 10.4401 25.9232 11.1836 25.8294C11.4625 25.7826 11.7413 25.8294 12.0201 25.8763C12.0778 25.8828 12.1355 25.8901 12.1935 25.8975C12.5555 25.9437 12.9271 25.991 13.3677 25.8294C13.7027 25.7449 13.8868 25.5083 14.0559 25.2909C14.0745 25.267 14.0929 25.2434 14.1113 25.2202C14.2971 24.9858 14.483 24.7515 14.7618 24.7046C15.1935 24.5859 15.5257 24.6342 15.8425 24.6804C15.9008 24.6889 15.9587 24.6973 16.0165 24.7046C16.0793 24.7136 16.1422 24.7244 16.2053 24.7353C16.4692 24.7807 16.7389 24.8271 17.0389 24.7515C17.3174 24.7046 17.5496 24.611 17.7817 24.5175L17.7824 24.5172C17.3642 25.0796 16.9459 25.2202 16.4812 25.3607C16.4611 25.3666 16.4407 25.3724 16.4202 25.3782C16.11 25.4668 15.764 25.5657 15.4589 25.8294C14.9134 26.242 14.8571 26.6994 14.8114 27.0702C14.8103 27.0785 14.8093 27.0867 14.8083 27.0949C14.8083 27.3292 14.7618 27.5166 14.6224 27.7041C14.3901 27.9385 14.2042 28.0322 13.9254 28.126C13.6466 28.2197 13.3213 28.3603 12.996 28.6416C12.2992 29.3004 12.3778 30.3298 12.3905 30.495C12.3913 30.5061 12.3919 30.5133 12.3919 30.5162C12.3919 30.5631 12.4383 30.6569 12.5313 30.6569C12.6242 30.6569 12.6707 30.6569 12.7172 30.5631C12.7172 30.5162 13.0425 29.8132 13.693 29.4383C13.9719 29.2976 14.2042 29.204 14.483 29.157C14.4978 29.1533 14.5127 29.1496 14.5276 29.1458C14.8881 29.0554 15.2897 28.9546 15.6912 28.5946C15.963 28.3988 16.0402 28.1376 16.1124 27.8929C16.1266 27.8448 16.1407 27.7973 16.1559 27.7511C16.2024 27.4698 16.2954 27.2355 16.5277 27.048C16.9459 26.7668 17.3177 26.6731 17.6895 26.5793C17.7546 26.5606 17.8197 26.5437 17.8848 26.5268C18.145 26.4593 18.4052 26.3918 18.6653 26.2044C18.7012 26.1803 18.7362 26.157 18.7704 26.1342C19.0023 25.98 19.1944 25.8522 19.3159 25.6888C19.1862 26.3428 18.8555 26.6318 18.5107 26.933C18.4849 26.9556 18.4589 26.9783 18.433 27.0011C18.1541 27.2355 17.8754 27.4698 17.6429 27.8447C17.3137 28.4259 17.4219 28.8233 17.5155 29.167C17.5276 29.2113 17.5395 29.2548 17.5501 29.2976C17.5607 29.3511 17.5737 29.4022 17.5864 29.4519C17.6293 29.62 17.6683 29.7729 17.5965 29.9538C17.4805 30.2269 17.3322 30.3701 17.1785 30.5186C17.1476 30.5485 17.1165 30.5786 17.0853 30.6099C17.0293 30.6806 16.9648 30.747 16.8969 30.8169C16.7397 30.9787 16.5646 31.159 16.4348 31.4536C15.9701 32.3909 16.5277 33.3752 16.5742 33.422C16.6206 33.5158 16.6671 33.5158 16.7601 33.5158C16.853 33.5158 16.8995 33.4689 16.8995 33.3752C16.8995 33.3752 16.9459 32.5784 17.4106 31.9691C17.5792 31.7566 17.7478 31.6212 17.951 31.458C17.9719 31.4412 17.9931 31.4242 18.0148 31.4067C18.3401 31.1724 18.6653 30.8912 18.8977 30.4224C19.0835 30.0475 19.0371 29.7195 18.9906 29.4383C18.9441 29.157 18.9441 28.9227 19.0835 28.6416C19.3624 28.2197 19.6412 27.9854 19.9664 27.7511C20.0059 27.7192 20.0467 27.6874 20.0884 27.6549C20.2922 27.4958 20.5171 27.3204 20.71 27.048C20.8959 26.8136 20.9889 26.5793 21.0818 26.345C21.1747 27.0011 20.9888 27.423 20.7565 27.8447C20.7282 27.9114 20.6979 27.978 20.6673 28.0454C20.5473 28.3099 20.4218 28.5866 20.3847 28.9227C20.2938 29.6104 20.6031 29.9843 20.8341 30.2634C20.8392 30.2696 20.8443 30.2758 20.8494 30.2819C20.8697 30.3092 20.89 30.3355 20.9099 30.3613C21.0265 30.5123 21.1282 30.6441 21.1282 30.8443C21.1282 31.1724 21.0353 31.4067 20.8959 31.641L20.8956 31.6416C20.7563 31.9227 20.617 32.2038 20.5706 32.6722C20.4846 33.67 21.2347 34.3064 21.3836 34.4327C21.3956 34.4428 21.4036 34.4497 21.4071 34.4532ZM20.6674 25.9601C20.2922 25.8923 19.9334 25.7769 19.5974 25.6202C19.4535 26.5747 19.0027 26.9869 18.5726 27.3802C18.557 27.3945 18.5414 27.4087 18.5259 27.423C18.5141 27.4329 18.5023 27.4427 18.4907 27.4525C18.2275 27.6734 18.0069 27.8586 17.8289 28.1728C17.5501 28.6416 17.6429 28.9695 17.7824 29.3445C17.8754 29.6257 17.9682 29.907 17.8289 30.235C17.6895 30.6099 17.4571 30.8443 17.2248 31.0318C17.1886 31.0683 17.1507 31.1047 17.1116 31.1423C16.9502 31.2975 16.7704 31.4705 16.6206 31.7348C16.4348 32.1098 16.4812 32.4847 16.5277 32.7659C16.6206 32.4847 16.7601 32.1098 16.9924 31.8285C17.1783 31.5474 17.4106 31.3599 17.6429 31.2193C17.9682 30.9849 18.2471 30.7505 18.433 30.3288C18.5724 30.0945 18.5259 29.8132 18.4794 29.5789C18.433 29.2508 18.3865 28.8759 18.6188 28.5478C18.9441 28.0322 19.2694 27.7979 19.5947 27.5636C19.8736 27.3761 20.1059 27.1886 20.2453 26.9542C20.5192 26.5398 20.6166 26.2272 20.6674 25.9601ZM19.1261 25.3643C18.7965 25.1585 18.4957 24.9104 18.2311 24.6273C17.7456 25.4579 17.2024 25.6519 16.6565 25.8469C16.629 25.8566 16.6016 25.8664 16.5742 25.8763C16.2491 25.97 15.9234 26.0639 15.6448 26.2982C15.2265 26.6261 15.1801 26.9542 15.1336 27.3292C15.1259 27.3761 15.1194 27.423 15.1129 27.4699C15.0807 27.7042 15.0484 27.9385 14.8548 28.1728C14.576 28.4541 14.2971 28.5946 14.0183 28.6884C13.9881 28.7006 13.9571 28.7128 13.9254 28.7252C13.7127 28.8089 13.4649 28.9063 13.1819 29.1102C12.8566 29.3914 12.7636 29.7195 12.7172 30.0475C12.903 29.8132 13.1819 29.532 13.5072 29.3445C13.7162 29.2039 13.9253 29.1424 14.1344 29.0809C14.2041 29.0604 14.2739 29.0399 14.3436 29.0165C14.7154 28.9227 15.0871 28.829 15.4124 28.5478C15.5983 28.3603 15.6912 28.126 15.7377 27.8447C15.8306 27.5167 15.9236 27.1885 16.2489 26.9074C16.7136 26.5793 17.1318 26.4856 17.5501 26.3918C17.6095 26.3747 17.6675 26.3591 17.7238 26.344C17.9758 26.2763 18.1966 26.217 18.3865 26.0637C18.7416 25.8358 18.9622 25.6079 19.1261 25.3643ZM17.8898 24.2155C17.6603 23.9021 17.4704 23.5574 17.3277 23.1889C16.5257 23.8014 15.8872 23.7553 15.3195 23.6735C14.9942 23.6267 14.6689 23.6267 14.2971 23.7203C13.786 23.861 13.6001 24.1891 13.4607 24.4703C13.4477 24.492 13.4348 24.5141 13.4217 24.5365C13.2938 24.7555 13.1517 24.9989 12.8566 25.1264C12.5476 25.2823 12.3028 25.2762 12.0421 25.2696C11.9892 25.2683 11.9356 25.267 11.8807 25.267C11.8257 25.267 11.7707 25.2652 11.7149 25.2633C11.4882 25.2558 11.2497 25.2479 10.9513 25.3607C10.5795 25.5013 10.3007 25.7826 10.1613 26.0169C10.4401 25.8763 10.7654 25.7357 11.1372 25.6888C11.442 25.6449 11.706 25.6833 12.0056 25.7268C12.0258 25.7298 12.0461 25.7327 12.0666 25.7357C12.4383 25.7826 12.8101 25.8294 13.2283 25.6888C13.4607 25.5951 13.6466 25.4077 13.786 25.1732C13.9719 24.8921 14.2042 24.6108 14.6224 24.5172C15.1125 24.3935 15.5308 24.451 15.8773 24.4986C15.9251 24.5051 15.9715 24.5115 16.0165 24.5172C16.037 24.5201 16.0573 24.5231 16.0775 24.526C16.3771 24.5695 16.6411 24.6079 16.9459 24.564C17.3848 24.4692 17.6757 24.353 17.8898 24.2155ZM17.1527 22.6312C17.0696 22.2894 17.0256 21.9321 17.0256 21.5644C17.0256 21.5002 17.0269 21.4363 17.0296 21.3728C16.0564 21.6257 15.5253 21.3373 14.9942 21.0489C14.9056 21.0106 14.8205 20.9688 14.7359 20.9274C14.5101 20.8166 14.2888 20.708 14.0183 20.6739C13.4949 20.5859 13.258 20.787 13.0003 21.0058C12.9835 21.0201 12.9666 21.0345 12.9495 21.0489C12.7172 21.2364 12.4848 21.4239 12.1595 21.4239C11.792 21.4239 11.5321 21.3153 11.3168 21.2253C11.2871 21.2129 11.2583 21.2009 11.2301 21.1895C10.9978 21.0489 10.7189 20.9552 10.3472 20.9083C9.97542 20.8614 9.60367 21.0489 9.37131 21.2364C9.48606 21.2529 9.6066 21.2636 9.73088 21.2747C9.95889 21.2949 10.1995 21.3163 10.4401 21.3769C10.6996 21.4517 10.9 21.5563 11.112 21.667C11.1657 21.695 11.2202 21.7235 11.2766 21.7519C11.6019 21.9863 11.8807 22.1738 12.3454 22.1738C12.6242 22.1738 12.8101 22.08 13.0425 21.9394C13.0637 21.9287 13.0851 21.9177 13.1069 21.9066C13.3713 21.7716 13.6784 21.6148 14.0648 21.6582C14.6224 21.7519 14.9942 21.9863 15.3195 22.2206C15.5983 22.4081 15.8307 22.5487 16.1559 22.5955C16.5663 22.6911 16.8694 22.6785 17.1527 22.6312ZM17.0815 20.853C17.1462 20.445 17.2658 20.0555 17.4322 19.6924C16.4858 19.5473 16.0771 19.0926 15.6871 18.6589C15.673 18.6432 15.6589 18.6275 15.6448 18.6118C15.6351 18.6001 15.6254 18.5884 15.6159 18.5768C15.3966 18.3111 15.213 18.0884 14.9013 17.9087C14.4366 17.6276 14.1113 17.7213 13.7395 17.8619C13.5072 18.0025 13.2283 18.0962 12.903 18.0025C12.5313 17.8619 12.2989 17.6276 12.1131 17.3932C12.0769 17.3568 12.0408 17.3186 12.0037 17.2793C11.8497 17.1164 11.6781 16.935 11.416 16.7839C11.0442 16.5964 10.6725 16.6433 10.3937 16.6902C10.6725 16.7839 11.0442 16.9245 11.3231 17.1589C11.6019 17.3463 11.7878 17.5806 11.9272 17.815C12.1595 18.1431 12.3919 18.4243 12.8101 18.6118C13.0425 18.7524 13.3213 18.7055 13.5536 18.6586C13.8789 18.6118 14.2507 18.5649 14.576 18.7992C15.0871 19.1273 15.3195 19.4554 15.5518 19.7835C15.7377 20.0647 15.9236 20.299 16.1559 20.4396C16.5361 20.6952 16.8299 20.7984 17.0815 20.853ZM17.6859 19.217C17.8899 18.8846 18.136 18.5812 18.4167 18.3144C17.5932 17.8248 17.4008 17.2769 17.2075 16.7262C17.1978 16.6986 17.1881 16.671 17.1783 16.6433C17.0853 16.3153 16.9924 15.9871 16.7601 15.7059C16.4348 15.2841 16.1095 15.2373 15.7377 15.1904C15.6912 15.1826 15.6448 15.1761 15.5983 15.1696C15.366 15.137 15.1336 15.1045 14.9013 14.9092C14.6224 14.628 14.483 14.3468 14.3901 14.0656C14.378 14.0351 14.3659 14.0039 14.3535 13.9718C14.2706 13.7574 14.174 13.5074 13.9719 13.2219C13.693 12.8939 13.3677 12.8001 13.0425 12.7533C13.2748 12.9407 13.5536 13.2219 13.7395 13.55C13.8789 13.7609 13.9399 13.9718 14.0009 14.1828C14.0212 14.2531 14.0416 14.3233 14.0648 14.3936C14.1577 14.7686 14.2507 15.1435 14.5295 15.4716C14.7154 15.6591 14.9477 15.7528 15.2265 15.7997C15.5518 15.8934 15.8771 15.9872 16.1559 16.3152C16.4812 16.7839 16.5742 17.2057 16.6671 17.6276C16.6841 17.6877 16.6996 17.7463 16.7147 17.8033C16.7818 18.0572 16.8406 18.2798 16.9924 18.4711C17.2184 18.8293 17.4443 19.0517 17.6859 19.217ZM18.825 17.9702C19.1357 17.7387 19.4775 17.5472 19.8429 17.4032C19.2356 16.5944 19.2813 15.9505 19.3624 15.3779C19.4088 15.0498 19.4088 14.7217 19.3159 14.3468C19.1765 13.8312 18.8512 13.6438 18.5724 13.5032C18.5508 13.4901 18.5289 13.4771 18.5067 13.4639C18.2895 13.3349 18.0483 13.1915 17.9218 12.8939C17.7661 12.5798 17.7734 12.2986 17.7799 12.0503C17.7812 12.0022 17.7824 11.9553 17.7824 11.9096C17.7824 11.8542 17.7842 11.7987 17.7861 11.7425C17.7935 11.5138 17.8013 11.2732 17.6895 10.9723C17.5501 10.5973 17.2712 10.3161 17.0389 10.1755C17.1783 10.4567 17.3177 10.7848 17.3642 11.1598C17.4077 11.4673 17.3696 11.7336 17.3264 12.036C17.3235 12.0562 17.3206 12.0766 17.3177 12.0971C17.2712 12.4721 17.2248 12.847 17.3642 13.2688C17.4571 13.5032 17.6429 13.6906 17.8754 13.8312C18.1541 14.0187 18.433 14.253 18.5259 14.6749C18.6485 15.1691 18.5915 15.591 18.5443 15.9405C18.5378 15.9887 18.5315 16.0355 18.5259 16.0809C18.523 16.1016 18.52 16.122 18.5171 16.1424C18.474 16.4446 18.4359 16.7108 18.4794 17.0183C18.5735 17.4609 18.6887 17.7542 18.825 17.9702ZM20.3959 17.2268C20.349 16.9411 20.3365 16.6353 20.4312 16.2215C20.4776 15.8934 20.617 15.6591 20.8029 15.3779C21.0353 15.0498 21.2676 14.6749 21.3606 14.1124C21.4036 13.7227 21.2481 13.413 21.1143 13.1463C21.1033 13.1244 21.0924 13.1027 21.0818 13.0813C20.9423 12.847 20.8494 12.6595 20.8494 12.3783C20.8494 11.9096 21.0353 11.6284 21.3606 11.3004C21.3889 11.2433 21.4172 11.1881 21.4451 11.1337C21.5547 10.9201 21.6583 10.7182 21.7323 10.4567C21.8253 10.0349 21.8253 9.65998 21.7788 9.37877C21.9647 9.61312 22.1506 9.94119 22.1041 10.363C22.0576 10.7379 21.9647 11.0192 21.8253 11.2535C21.814 11.2819 21.8021 11.311 21.7898 11.3409C21.7006 11.5581 21.5929 11.8202 21.5929 12.1909C21.5929 12.5189 21.7788 12.7533 21.9647 12.9876C21.979 13.0048 21.9932 13.0219 22.0074 13.0389C22.2243 13.2988 22.4237 13.5376 22.3365 14.0656C22.3026 14.3384 22.195 14.5616 22.0852 14.7894C22.0441 14.8746 22.0027 14.9605 21.9647 15.0498C21.6788 15.5855 21.3928 16.1211 21.6436 17.1026C21.5806 17.0999 21.5172 17.0986 21.4535 17.0986C21.089 17.0986 20.7348 17.143 20.3959 17.2268ZM22.159 17.155C22.5849 17.2237 22.9906 17.3538 23.3669 17.5359C23.5212 16.6284 23.961 16.2264 24.381 15.8423C24.3966 15.8281 24.4121 15.8139 24.4276 15.7997C24.4394 15.7898 24.451 15.7801 24.4626 15.7703C24.7259 15.5493 24.9466 15.3641 25.1246 15.0498C25.4035 14.5811 25.3106 14.253 25.1712 13.8781C25.0782 13.5969 24.9853 13.3157 25.1246 12.9876C25.1246 12.6045 25.3163 12.4147 25.5256 12.2075C25.5467 12.1866 25.568 12.1655 25.5893 12.144C25.6254 12.1076 25.6633 12.0712 25.7022 12.0337C25.8637 11.8784 26.0437 11.7053 26.1935 11.441C26.3793 11.066 26.3329 10.6911 26.2864 10.4099C26.1935 10.6911 26.0541 11.066 25.8217 11.3472C25.6359 11.6284 25.4035 11.8159 25.1712 11.9565C24.8459 12.1909 24.567 12.4252 24.3811 12.847C24.2417 13.0813 24.2882 13.3626 24.3347 13.5969C24.3811 13.925 24.4276 14.2999 24.1953 14.628C23.87 15.1435 23.5447 15.3779 23.2194 15.6122C22.9405 15.7997 22.7082 15.9872 22.5688 16.2215C22.3154 16.6049 22.2131 16.9012 22.159 17.155ZM23.8581 17.8138C24.1833 18.0263 24.479 18.2806 24.7379 18.5692C25.2194 17.7607 25.7569 17.5687 26.297 17.3758C26.3245 17.366 26.3519 17.3562 26.3793 17.3463C26.7046 17.2526 27.0299 17.1589 27.3088 16.9245C27.727 16.5964 27.7734 16.2684 27.82 15.8934C27.8277 15.8466 27.8341 15.7997 27.8406 15.7529C27.8728 15.5185 27.9051 15.2842 28.0987 15.0498C28.3776 14.7686 28.6564 14.628 28.9352 14.5342C28.9654 14.5221 28.9964 14.5099 29.0281 14.4974C29.2408 14.4138 29.4886 14.3164 29.7717 14.1124C30.0969 13.8312 30.1899 13.5032 30.2363 13.1751C30.0505 13.4094 29.7717 13.6906 29.4464 13.8781C29.2373 14.0187 29.0282 14.0802 28.8191 14.1417C28.7494 14.1622 28.6797 14.1827 28.6099 14.2062C28.2381 14.2999 27.8664 14.3936 27.5411 14.6749C27.3552 14.8623 27.2622 15.0967 27.2158 15.3779C27.1229 15.7059 27.0299 16.034 26.7046 16.3152C26.2399 16.6433 25.8217 16.737 25.4036 16.8308C25.3439 16.848 25.2858 16.8636 25.2292 16.8788C24.9775 16.9464 24.7568 17.0058 24.567 17.1589C24.2336 17.3728 24.0188 17.5868 23.8581 17.8138ZM25.0778 18.9982C25.3005 19.3174 25.4827 19.6674 25.617 20.0405C26.4231 19.4209 27.0642 19.467 27.6341 19.5491C27.9594 19.596 28.2847 19.596 28.6564 19.5023C29.1676 19.3616 29.3534 19.0335 29.4929 18.7524C29.5058 18.7307 29.5187 18.7085 29.5318 18.6861C29.6597 18.4671 29.8018 18.2238 30.0969 18.0962C30.4083 17.9392 30.6871 17.9466 30.9333 17.9531C30.981 17.9544 31.0276 17.9556 31.0728 17.9556C31.1278 17.9556 31.1829 17.9575 31.2386 17.9593C31.4653 17.9668 31.7038 17.9747 32.0022 17.8619C32.374 17.7213 32.6528 17.4401 32.7922 17.2057C32.5134 17.3463 32.1881 17.4869 31.8164 17.5338C31.5113 17.5777 31.2471 17.5393 30.9472 17.4956C30.9273 17.4927 30.9072 17.4898 30.8869 17.4869C30.5153 17.4401 30.1434 17.3932 29.7252 17.5338C29.4929 17.6276 29.307 17.815 29.1676 18.0494C28.9817 18.3306 28.7493 18.6118 28.3311 18.7055C27.841 18.8291 27.4227 18.7717 27.0762 18.7241C27.0285 18.7175 26.9821 18.7111 26.937 18.7055C26.9166 18.7025 26.8963 18.6996 26.8761 18.6966C26.5764 18.6531 26.3124 18.6147 26.0076 18.6586C25.5783 18.7514 25.2906 18.8646 25.0778 18.9982ZM25.777 20.5955C25.8454 20.9075 25.8815 21.2317 25.8815 21.5644C25.8815 21.6329 25.8799 21.701 25.8769 21.7687C26.8801 21.4939 27.4197 21.7869 27.9593 22.08C28.0479 22.1183 28.1331 22.1601 28.2176 22.2015C28.4434 22.3123 28.6647 22.4209 28.9352 22.4549C29.4587 22.5429 29.6955 22.3418 29.9532 22.123C29.97 22.1087 29.9869 22.0944 30.004 22.08C30.2363 21.8925 30.4687 21.705 30.794 21.705C31.1613 21.705 31.4211 21.8135 31.6363 21.9034C31.6661 21.9158 31.6951 21.9279 31.7234 21.9394C31.9558 22.08 32.2345 22.1738 32.6064 22.2206C32.9781 22.2674 33.3499 22.08 33.5822 21.8925C33.3034 21.9394 32.9317 21.9394 32.5598 21.8457C32.3006 21.771 32.1004 21.6665 31.8887 21.556C31.8347 21.5278 31.78 21.4992 31.7234 21.4707C31.3983 21.2834 31.0726 21.0958 30.6082 21.0489C30.3293 21.0489 30.1435 21.1426 29.911 21.2833C29.8899 21.2939 29.8686 21.3048 29.8469 21.3159C29.5825 21.4509 29.2753 21.6077 28.8887 21.5644C28.3311 21.4707 27.9594 21.2364 27.6341 21.002C27.3552 20.8145 27.1229 20.6739 26.7976 20.6271C26.3757 20.5289 26.0671 20.545 25.777 20.5955ZM25.827 22.2665C25.7677 22.6453 25.6612 23.0082 25.5138 23.349C26.4326 23.5004 26.8354 23.9486 27.22 24.3764C27.2341 24.3921 27.2482 24.4078 27.2622 24.4234C27.2722 24.4354 27.282 24.4474 27.2918 24.4592C27.5108 24.7245 27.6944 24.9469 28.0058 25.1264C28.4705 25.4077 28.7958 25.3139 29.1676 25.1732C29.4463 25.0796 29.7253 24.9859 30.0505 25.1264C30.4222 25.267 30.6546 25.5013 30.8405 25.7357C30.8766 25.7721 30.9128 25.8104 30.95 25.8497C31.104 26.0125 31.2755 26.194 31.5375 26.345C31.9093 26.5325 32.2811 26.4856 32.5598 26.4387C32.2811 26.345 31.9093 26.2044 31.6305 25.9701C31.3516 25.7826 31.1658 25.5482 31.0264 25.3139C30.794 24.9858 30.5616 24.7046 30.1435 24.5172C29.911 24.3765 29.6323 24.4234 29.3999 24.4703C29.0746 24.5172 28.7029 24.564 28.3776 24.3297C27.8664 24.0016 27.6341 23.6735 27.4017 23.3454C27.2158 23.0643 27.0299 22.8298 26.7976 22.6893C26.3945 22.4183 26.0885 22.3186 25.827 22.2665ZM25.2608 23.8459C25.0634 24.1803 24.824 24.4864 24.5498 24.7569C25.3234 25.2373 25.511 25.7717 25.6996 26.3089C25.7093 26.3365 25.719 26.3642 25.7288 26.3918C25.8217 26.7199 25.9146 27.048 26.147 27.3292C26.4723 27.7511 26.7976 27.7979 27.1694 27.8447C27.2159 27.8525 27.2624 27.8591 27.3089 27.8656C27.5412 27.8982 27.7735 27.9307 28.0058 28.126C28.2847 28.4071 28.424 28.6884 28.517 28.9695C28.529 28.9999 28.5411 29.0311 28.5535 29.0631C28.6364 29.2777 28.733 29.5277 28.9352 29.8132C29.214 30.1413 29.5393 30.235 29.8646 30.2819C29.6323 30.0945 29.3534 29.8132 29.1676 29.4851C29.0282 29.2743 28.9672 29.0634 28.9062 28.8526C28.8859 28.7822 28.8655 28.7119 28.8423 28.6416C28.7493 28.2666 28.6564 27.8916 28.3776 27.5636C28.1917 27.3761 27.9594 27.2823 27.6805 27.2355C27.3552 27.1417 27.0299 27.048 26.7511 26.7199C26.4259 26.2513 26.3329 25.8295 26.2399 25.4078C26.2229 25.3475 26.2074 25.2888 26.1923 25.2317C26.1252 24.9779 26.0664 24.7553 25.9146 24.564C25.7011 24.2255 25.4875 24.0083 25.2608 23.8459ZM24.1208 25.1295C23.8148 25.3627 23.4778 25.5568 23.1172 25.7044C23.6687 26.4793 23.6234 27.1019 23.5447 27.6573C23.4982 27.9854 23.4982 28.3135 23.5911 28.6884C23.7306 29.204 24.0558 29.3914 24.3347 29.532C24.3562 29.5451 24.3782 29.5581 24.4004 29.5713C24.6175 29.7003 24.8588 29.8436 24.9853 30.1413C25.141 30.4553 25.1336 30.7365 25.1271 30.9848C25.1259 31.033 25.1246 31.0799 25.1246 31.1255C25.1246 31.181 25.1228 31.2365 25.121 31.2927C25.1136 31.5213 25.1057 31.7619 25.2176 32.0629C25.357 32.4379 25.6359 32.719 25.8682 32.8596C25.7288 32.5784 25.5893 32.2504 25.5429 31.8754C25.4994 31.568 25.5374 31.3017 25.5806 30.9995C25.5835 30.9792 25.5864 30.9587 25.5893 30.938C25.6359 30.5631 25.6823 30.1881 25.5429 29.7664C25.4499 29.532 25.264 29.3445 25.0317 29.204C24.7529 29.0165 24.4741 28.7821 24.3811 28.3603C24.2587 27.8662 24.3155 27.4445 24.3626 27.0951C24.3691 27.0468 24.3755 26.9998 24.3811 26.9542C24.384 26.9338 24.3869 26.9135 24.3898 26.8934C24.4331 26.5909 24.4712 26.3245 24.4276 26.0169C24.3426 25.6168 24.2404 25.3387 24.1208 25.1295ZM22.5247 25.8987C22.5595 26.1592 22.5606 26.4431 22.4759 26.8136C22.4294 27.1417 22.2899 27.3761 22.1041 27.6573C21.8718 27.9854 21.6394 28.3603 21.5465 28.9227C21.5035 29.3125 21.659 29.6223 21.7928 29.8889C21.8038 29.9108 21.8147 29.9324 21.8253 29.9538C21.9647 30.1881 22.0576 30.3756 22.0576 30.6569C22.0112 31.1253 21.8254 31.4533 21.6397 31.7813C21.6115 31.8381 21.5831 31.8934 21.5553 31.9476C21.4455 32.1614 21.3418 32.3635 21.2676 32.6253C21.1747 33.0003 21.1747 33.3752 21.2212 33.6563C21.0353 33.422 20.8494 33.0939 20.8959 32.6722C20.9423 32.2972 21.0353 32.016 21.1747 31.7817C21.186 31.7532 21.1979 31.7241 21.2102 31.6941C21.2994 31.477 21.4071 31.2149 21.4071 30.8443C21.4071 30.5162 21.2212 30.2819 21.0353 30.0475C21.0211 30.0303 21.0068 30.0133 20.9927 29.9963C20.7757 29.7364 20.5763 29.4976 20.6636 28.9695C20.6973 28.6968 20.805 28.4736 20.9148 28.2459C20.9559 28.1607 20.9973 28.0748 21.0353 27.9854C21.3117 27.4677 21.5881 26.9499 21.3799 26.0297C21.4044 26.0301 21.4289 26.0303 21.4535 26.0303C21.8229 26.0303 22.1817 25.9847 22.5247 25.8987Z" fill="#BD7B4F"/>
<defs>
<linearGradient id="paint0_linear_8728_7422" x1="0.204475" y1="21.5" x2="42" y2="21.5" gradientUnits="userSpaceOnUse">
<stop stop-color="#C4C4C4" stop-opacity="0"/>
<stop offset="0.497916" stop-color="#595959" stop-opacity="0.48"/>
<stop offset="1" stop-color="#C4C4C4" stop-opacity="0"/>
</linearGradient>
</defs>
</svg>
