<svg width="42" height="43" viewBox="0 0 42 43" fill="none" xmlns="http://www.w3.org/2000/svg">
<circle cx="21" cy="21.5" r="20.5" fill="#351F11" stroke="#EAB85B"/>
<mask id="path-2-inside-1_8728_7448" fill="white">
<path fill-rule="evenodd" clip-rule="evenodd" d="M20.9071 34.4532C20.9071 34.5 20.9535 34.5 21 34.5H21.0929C21.1394 34.4532 21.1859 34.4062 21.1394 34.3125C21.1394 34.3125 20.8606 33.5627 21.0465 32.8128C21.1394 32.5315 21.2788 32.2972 21.4182 32.0628C21.6506 31.6879 21.8365 31.3599 21.8829 30.7974C21.9294 30.4224 21.7435 30.0945 21.6041 29.86C21.59 29.8315 21.5758 29.8034 21.5618 29.7757C21.4383 29.5308 21.33 29.316 21.3718 29.0633C21.4501 28.6288 21.6275 28.3274 21.7926 28.0469C21.8234 27.9947 21.8537 27.9432 21.8829 27.8916C21.917 27.8228 21.9539 27.754 21.9916 27.6838C22.1078 27.4672 22.2309 27.2375 22.3011 26.9542C22.3941 26.6261 22.3941 26.345 22.3941 26.1107C22.7623 26.7141 22.7202 27.1797 22.6742 27.6894L22.6729 27.7041C22.6264 28.0791 22.6264 28.4541 22.7194 28.8759C22.8914 29.5263 23.2622 29.7354 23.5743 29.9115C23.5996 29.9257 23.6244 29.9398 23.6488 29.9538C23.6754 29.9699 23.7015 29.9854 23.7268 30.0006C23.9225 30.1172 24.0777 30.2096 24.16 30.3756C24.2709 30.5995 24.2641 30.7936 24.2567 31.0053C24.2549 31.0595 24.2529 31.115 24.2529 31.1724C24.2064 31.4536 24.2064 31.7817 24.3459 32.2034C24.6712 33.1877 25.7864 33.4689 25.8329 33.4689C25.9258 33.4689 25.9723 33.4689 26.1117 33.3752C26.1582 33.3283 26.1582 33.2346 26.1117 33.1877C26.1117 33.1877 25.5541 32.5784 25.4611 31.8285C25.4147 31.5476 25.4611 31.2666 25.5075 30.9856C25.5139 30.9276 25.5213 30.8688 25.5286 30.8106C25.5744 30.4452 25.6214 30.0703 25.4611 29.6257C25.3774 29.2879 25.1427 29.1022 24.9271 28.9317C24.9034 28.913 24.88 28.8944 24.857 28.8759C24.6247 28.6884 24.3923 28.5009 24.3459 28.2197C24.2281 27.7842 24.2761 27.4491 24.3219 27.1295C24.3303 27.0707 24.3386 27.0125 24.3459 26.9542C24.3549 26.8907 24.3656 26.8272 24.3764 26.7634C24.4213 26.4974 24.4673 26.2256 24.3923 25.9232C24.3459 25.6421 24.253 25.4079 24.1601 25.1736C24.7177 25.5954 24.857 26.0169 24.9965 26.4856C25.0022 26.5058 25.0079 26.5261 25.0137 26.5466C25.1015 26.8596 25.1994 27.2088 25.4611 27.5166C25.8702 28.0668 26.3239 28.1237 26.6915 28.1697C26.6996 28.1708 26.7077 28.1718 26.7158 28.1728C26.9482 28.1728 27.1341 28.2197 27.32 28.3603C27.5523 28.5946 27.6452 28.7821 27.7381 29.0633C27.8311 29.3445 27.9705 29.6726 28.2493 30.0007C28.9026 30.7034 29.9231 30.6241 30.0871 30.6114C30.0981 30.6105 30.1052 30.6099 30.1082 30.6099C30.1546 30.6099 30.2475 30.5631 30.2475 30.4694C30.2475 30.3756 30.2475 30.3288 30.1546 30.2819C30.1082 30.2819 29.411 29.9538 29.0393 29.2976C28.8999 29.0165 28.807 28.7821 28.7605 28.5009C28.7568 28.4859 28.7531 28.4709 28.7494 28.4558C28.6597 28.0923 28.5598 27.6873 28.2029 27.2823C28.0141 27.0539 27.764 26.9801 27.5274 26.9102C27.4727 26.8941 27.4187 26.8782 27.3664 26.8606C27.0875 26.8136 26.8552 26.7199 26.6694 26.4856C26.3905 26.0637 26.2976 25.6888 26.2046 25.3139C26.1861 25.2484 26.1694 25.1829 26.1527 25.1174C26.0858 24.8548 26.0188 24.5923 25.8329 24.3297C25.8091 24.2936 25.786 24.2583 25.7635 24.2239C25.6105 23.9899 25.4838 23.7961 25.3217 23.6735C25.97 23.8043 26.2565 24.1378 26.5551 24.4854C26.5776 24.5116 26.6001 24.5378 26.6229 24.564C26.8551 24.845 27.0877 25.1265 27.4594 25.3607C28.0356 25.6928 28.4295 25.5837 28.7704 25.4893C28.8144 25.4771 28.8574 25.4652 28.8999 25.4545C28.9529 25.4438 29.0035 25.4307 29.0528 25.4179C29.2195 25.3746 29.3712 25.3353 29.5505 25.4077C29.8212 25.5247 29.9632 25.6741 30.1104 25.829C30.14 25.8603 30.1699 25.8917 30.2011 25.9232C30.2712 25.9797 30.337 26.0448 30.4063 26.1132C30.5667 26.2717 30.7454 26.4484 31.0375 26.5793C31.967 27.048 32.9428 26.4856 32.9893 26.4387C33.0822 26.3918 33.0822 26.345 33.0822 26.2512C33.0357 26.1575 32.9893 26.1107 32.8963 26.1107C32.8963 26.1107 32.1064 26.0637 31.5022 25.5951C31.2915 25.4251 31.1572 25.2551 30.9954 25.0501C30.9788 25.029 30.9619 25.0076 30.9446 24.9858C30.7122 24.6577 30.4334 24.3297 29.9687 24.0953C29.5969 23.9078 29.2717 23.9547 28.9929 24.0016C28.714 24.0484 28.4817 24.0484 28.2029 23.9078C27.7846 23.6267 27.5523 23.3454 27.32 23.0173C27.2883 22.9774 27.2566 22.9362 27.2243 22.894C27.0667 22.6886 26.8928 22.4619 26.6229 22.2674C26.3905 22.08 26.1582 21.9863 25.9258 21.8925C26.5764 21.7988 26.9947 21.9863 27.4128 22.2206C27.4791 22.2492 27.5453 22.2798 27.6123 22.3107C27.8744 22.4317 28.1486 22.5582 28.4817 22.5955C29.1636 22.6872 29.5342 22.3752 29.811 22.1422C29.8171 22.1371 29.8232 22.1319 29.8293 22.1269C29.8564 22.1063 29.8826 22.0858 29.9082 22.0657C30.0579 21.9482 30.1885 21.8457 30.3869 21.8457C30.7122 21.8457 30.9446 21.9394 31.1769 22.08C31.4557 22.2206 31.7346 22.3612 32.1993 22.4081C33.1868 22.4514 33.8172 21.6945 33.9442 21.5422C33.9546 21.5296 33.9616 21.5212 33.9652 21.5176C34.0116 21.4707 34.0116 21.3769 33.9652 21.3301C33.9187 21.2833 33.8721 21.2364 33.7793 21.2833C33.7793 21.2833 33.0357 21.5644 32.2922 21.3769C32.0134 21.3301 31.7811 21.1895 31.5487 21.0489C31.1769 20.8145 30.8516 20.6271 30.294 20.5802C29.9222 20.5334 29.5969 20.7208 29.3646 20.8614C29.3363 20.8757 29.3085 20.89 29.281 20.904C29.0381 21.0286 28.8251 21.1379 28.5746 21.0958C28.1436 21.0167 27.8447 20.8377 27.5665 20.6711C27.5148 20.6401 27.4638 20.6096 27.4128 20.5802C27.3445 20.5457 27.2762 20.5085 27.2065 20.4705C26.9918 20.3534 26.7641 20.2291 26.4835 20.1584C26.1582 20.0647 25.8793 20.0647 25.647 20.0647C26.2451 19.6934 26.7066 19.7357 27.2118 19.7821L27.227 19.7835C27.5987 19.8304 27.9705 19.8304 28.3887 19.7366C29.0334 19.5632 29.2409 19.1893 29.4155 18.8745C29.4297 18.849 29.4436 18.8238 29.4576 18.7992C29.4734 18.7725 29.4887 18.7464 29.5036 18.721C29.6193 18.5234 29.7111 18.3667 29.8758 18.2837C30.0976 18.1718 30.2901 18.1786 30.4999 18.1861C30.5538 18.188 30.6088 18.19 30.6658 18.19C30.9446 18.2368 31.2699 18.2368 31.6881 18.0962C32.664 17.7681 32.9428 16.6433 32.9428 16.5964C32.9428 16.5496 32.8963 16.4558 32.8499 16.409C32.8034 16.3621 32.7104 16.3621 32.664 16.409C32.664 16.409 32.0598 16.9714 31.3164 17.0651C31.0376 17.112 30.7588 17.0651 30.48 17.0183C30.4223 17.0118 30.3645 17.0044 30.3066 16.997C29.9445 16.9509 29.573 16.9035 29.1323 17.0651C28.7974 17.1496 28.6133 17.3862 28.4441 17.6036C28.4255 17.6275 28.4071 17.6512 28.3887 17.6744C28.2029 17.9086 28.0169 18.1431 27.7381 18.19C27.3065 18.3087 26.9743 18.2603 26.6575 18.2142C26.5991 18.2057 26.5413 18.1973 26.4835 18.19C26.4206 18.1809 26.3578 18.1701 26.2947 18.1592C26.0308 18.1139 25.7611 18.0675 25.4611 18.1431C25.1827 18.1899 24.9506 18.2835 24.7185 18.377L24.7176 18.3774C25.1359 17.815 25.5541 17.6744 26.0188 17.5338C26.039 17.528 26.0593 17.5222 26.0799 17.5163C26.39 17.4277 26.736 17.3289 27.0411 17.0651C27.5864 16.6526 27.6429 16.1953 27.6886 15.8246C27.6896 15.8163 27.6907 15.808 27.6917 15.7997C27.6917 15.5654 27.7381 15.3779 27.8776 15.1904C28.1099 14.9561 28.2958 14.8623 28.5746 14.7686C28.8534 14.6749 29.1787 14.5342 29.504 14.253C30.2008 13.5942 30.1222 12.5648 30.1095 12.3995C30.1087 12.3885 30.1082 12.3813 30.1082 12.3783C30.1082 12.3315 30.0616 12.2377 29.9687 12.2377C29.8758 12.2377 29.8293 12.2377 29.7829 12.3315C29.7829 12.3783 29.4576 13.0813 28.807 13.4563C28.5281 13.5969 28.2958 13.6906 28.017 13.7375C28.0022 13.7412 27.9874 13.7449 27.9725 13.7487C27.612 13.8391 27.2104 13.9398 26.8088 14.2999C26.537 14.4957 26.4599 14.7569 26.3876 15.0016C26.3734 15.0497 26.3594 15.0973 26.3441 15.1435C26.2976 15.4247 26.2046 15.6591 25.9723 15.8466C25.5542 16.1277 25.1824 16.2215 24.8107 16.3152C24.7457 16.3339 24.6804 16.3509 24.6154 16.3677C24.3552 16.4352 24.0949 16.5027 23.8347 16.6902C23.799 16.7141 23.7641 16.7373 23.7301 16.76C23.4979 16.9144 23.3056 17.0422 23.1841 17.2057C23.3137 16.5518 23.6445 16.2628 23.9892 15.9617C24.0151 15.939 24.041 15.9163 24.067 15.8934C24.3459 15.6591 24.6247 15.4247 24.857 15.0498C25.1863 14.4686 25.0781 14.0713 24.9845 13.7276C24.9724 13.6832 24.9606 13.6397 24.9499 13.5969C24.9394 13.5434 24.9263 13.4924 24.9137 13.4427C24.8708 13.2746 24.8318 13.1216 24.9035 12.9407C25.0195 12.6678 25.1676 12.5246 25.3212 12.3762C25.3522 12.3463 25.3834 12.3161 25.4146 12.2846C25.4707 12.2139 25.5352 12.1475 25.6031 12.0776C25.7602 11.9159 25.9354 11.7356 26.0652 11.441C26.5299 10.5036 25.9723 9.51938 25.9258 9.47251C25.8793 9.37877 25.8329 9.37877 25.7399 9.37877C25.647 9.42564 25.6005 9.47251 25.6005 9.56625C25.6005 9.56625 25.5541 10.363 25.0893 10.9723C24.9207 11.1849 24.7521 11.3204 24.5487 11.4837C24.5279 11.5003 24.5068 11.5173 24.4853 11.5347C24.16 11.769 23.8347 12.0502 23.6023 12.5189C23.4164 12.8939 23.4629 13.2219 23.5094 13.5032C23.5558 13.7844 23.5558 14.0187 23.4164 14.2999C23.1376 14.7217 22.8588 14.9561 22.5335 15.1904C22.494 15.2223 22.4531 15.2542 22.4113 15.2868C22.2076 15.4457 21.9828 15.6212 21.7899 15.8934C21.6041 16.1278 21.5112 16.3621 21.4182 16.5964C21.3253 15.9403 21.5112 15.5185 21.7435 15.0967C21.7719 15.0299 21.8022 14.9631 21.8329 14.8955C21.9528 14.6311 22.0783 14.3546 22.1152 14.0187C22.2062 13.331 21.8969 12.9573 21.6659 12.6781C21.6607 12.6719 21.6556 12.6657 21.6506 12.6595C21.6302 12.6322 21.6099 12.6058 21.59 12.58C21.4735 12.429 21.3718 12.2973 21.3718 12.0971C21.3718 11.769 21.4647 11.5347 21.6041 11.3004C21.7435 11.0192 21.8829 10.7379 21.9294 10.2693C21.9722 9.31837 21.2246 8.68636 21.0717 8.55703C21.0588 8.54613 21.0501 8.5388 21.0465 8.53515C21 8.48828 20.9071 8.48828 20.8606 8.53515C20.8142 8.58199 20.7677 8.62894 20.8141 8.72262C20.8141 8.72262 21.0929 9.47251 20.9071 10.2224C20.8143 10.5033 20.675 10.7374 20.5358 10.9715C20.3034 11.3464 20.117 11.6753 20.0706 12.2377C20.0242 12.6127 20.21 12.9407 20.3494 13.1751C20.3635 13.2035 20.3776 13.2314 20.3915 13.259C20.5151 13.5041 20.6235 13.719 20.5818 13.9718C20.5034 14.4066 20.3259 14.708 20.1607 14.9885C20.13 15.0407 20.0997 15.0921 20.0706 15.1435C20.0364 15.2125 19.9995 15.2814 19.9617 15.3518C19.8456 15.5683 19.7225 15.7979 19.6524 16.0809C19.5594 16.409 19.5594 16.6902 19.5594 16.9245C19.1912 16.321 19.2333 15.8555 19.2793 15.3457L19.2806 15.331C19.3271 14.9561 19.3271 14.5811 19.2341 14.1593C19.0622 13.509 18.6915 13.2999 18.3794 13.1238C18.3541 13.1095 18.3291 13.0954 18.3047 13.0813C18.2782 13.0653 18.2523 13.0499 18.2271 13.0348C18.0312 12.9181 17.8759 12.8256 17.7935 12.6595C17.6826 12.4358 17.6894 12.2417 17.6968 12.0301C17.6987 11.9757 17.7007 11.9202 17.7007 11.8628C17.7471 11.5816 17.7471 11.2535 17.6077 10.8317C17.2824 9.84746 16.1671 9.56625 16.1206 9.56625C16.0742 9.56625 15.9812 9.61312 15.9348 9.65998C15.8883 9.70685 15.8883 9.80059 15.9348 9.84746C15.9348 9.84746 16.4924 10.4567 16.5853 11.2066C16.6318 11.4878 16.5853 11.769 16.5389 12.0502C16.5325 12.1084 16.5252 12.1666 16.5178 12.225C16.4721 12.5902 16.4251 12.965 16.5853 13.4094C16.6691 13.7472 16.9037 13.9329 17.1193 14.1034C17.143 14.1222 17.1665 14.1407 17.1895 14.1593C17.4218 14.3468 17.6541 14.5343 17.7007 14.8155C17.8184 15.2508 17.7704 15.5859 17.7247 15.9053C17.7162 15.9642 17.7079 16.0226 17.7007 16.0809C17.6917 16.1443 17.681 16.2077 17.6702 16.2714C17.6252 16.5375 17.5792 16.8095 17.6541 17.112C17.7007 17.3932 17.7935 17.6276 17.8865 17.8619C17.3288 17.4401 17.1895 17.0183 17.0501 16.5496C17.0443 16.5292 17.0385 16.5087 17.0327 16.488C16.9449 16.1752 16.8469 15.8262 16.5853 15.5185C16.1763 14.9684 15.7227 14.9115 15.3552 14.8654C15.347 14.8644 15.3388 14.8633 15.3307 14.8623C15.0983 14.8623 14.9124 14.8155 14.7265 14.6749C14.4942 14.4405 14.4013 14.253 14.3083 13.9718C14.2154 13.6906 14.076 13.3626 13.7971 13.0345C13.1439 12.3317 12.1233 12.411 11.9594 12.4238C11.9484 12.4246 11.9413 12.4252 11.9383 12.4252C11.8919 12.4252 11.7989 12.4721 11.7989 12.5658C11.7525 12.6595 11.7989 12.7064 11.8919 12.7533C11.8919 12.7533 12.5889 13.0813 12.9607 13.55C13.1001 13.8312 13.193 14.0656 13.2395 14.3468C13.2432 14.3617 13.2469 14.3767 13.2506 14.3918C13.3403 14.7553 13.4402 15.1603 13.7971 15.5653C13.9913 15.8395 14.2503 15.9173 14.4929 15.9901C14.5407 16.0045 14.5878 16.0186 14.6336 16.034C14.9124 16.0809 15.1448 16.1746 15.3307 16.409C15.6094 16.8307 15.7024 17.2057 15.7953 17.5805C15.8139 17.6461 15.8307 17.7119 15.8474 17.7775C15.9143 18.0399 15.9812 18.3024 16.1671 18.5649C16.1909 18.6008 16.2139 18.636 16.2363 18.6704C16.3894 18.9045 16.5162 19.0984 16.6783 19.221C16.0299 19.0903 15.7434 18.7567 15.4448 18.409C15.4223 18.3829 15.3998 18.3567 15.3771 18.3306C15.1449 18.0495 14.9123 17.768 14.5407 17.5338C13.9644 17.2017 13.5705 17.3108 13.2296 17.4052C13.1857 17.4174 13.1426 17.4293 13.1001 17.4401C13.0471 17.4507 12.9965 17.4639 12.9472 17.4766C12.7805 17.5199 12.6289 17.5593 12.4495 17.4869C12.1788 17.3699 12.0368 17.2205 11.8897 17.0656C11.86 17.0343 11.8301 17.0029 11.7989 16.9714C11.7288 16.9148 11.663 16.8498 11.5937 16.7813C11.4333 16.6228 11.2545 16.4462 10.9625 16.3152C10.0331 15.8466 9.05719 16.409 9.01072 16.4558C8.91778 16.5027 8.91778 16.5496 8.91778 16.6433C8.96425 16.737 9.01072 16.7839 9.10367 16.7839C9.10367 16.7839 9.89365 16.8308 10.4978 17.2995C10.7086 17.4695 10.8429 17.6396 11.0048 17.8447C11.0213 17.8657 11.0382 17.887 11.0554 17.9087C11.2878 18.2368 11.5666 18.5649 12.0313 18.7992C12.403 18.9867 12.7283 18.9399 13.0072 18.893C13.286 18.8461 13.5183 18.8461 13.7971 18.9867C14.2154 19.2679 14.4477 19.5491 14.6801 19.8772C14.7117 19.9171 14.7434 19.9584 14.7757 20.0005C14.9333 20.2059 15.1072 20.4327 15.3771 20.6271C15.6095 20.8145 15.8418 20.9083 16.0742 21.002C15.4236 21.0958 15.0054 20.9083 14.5871 20.6739C14.5209 20.6453 14.4547 20.6148 14.3877 20.5838C14.1256 20.4629 13.8514 20.3363 13.5183 20.299C12.8365 20.2073 12.4659 20.5192 12.1891 20.7522C12.1829 20.7574 12.1768 20.7626 12.1707 20.7677C12.1436 20.7882 12.1174 20.8087 12.0919 20.8288C11.9421 20.9463 11.8115 21.0489 11.6131 21.0489C11.2878 21.0489 11.0554 20.9552 10.8231 20.8145C10.5442 20.6739 10.2654 20.5334 9.80072 20.4864C8.81302 20.4432 8.18248 21.2003 8.05579 21.3525C8.04539 21.365 8.03838 21.3734 8.03485 21.3769C7.98838 21.4239 7.98838 21.5176 8.03485 21.5644C8.08129 21.6112 8.12785 21.6582 8.22073 21.6113C8.22073 21.6113 8.96425 21.3301 9.70777 21.5176C9.98659 21.5644 10.2189 21.705 10.4513 21.8457C10.8231 22.08 11.1483 22.2674 11.706 22.3144C12.0778 22.3612 12.403 22.1738 12.6354 22.0331C12.6797 22.0107 12.7217 21.9884 12.7623 21.9668C12.9769 21.8525 13.1518 21.7594 13.4254 21.7988C13.8564 21.8778 14.1553 22.0568 14.4334 22.2234C14.4851 22.2544 14.5361 22.285 14.5871 22.3144C14.6555 22.3488 14.7239 22.3861 14.7936 22.4242C15.0083 22.5412 15.2359 22.6654 15.5165 22.7362C15.8418 22.8298 16.1206 22.8298 16.353 22.8298C15.7549 23.2011 15.2934 23.1588 14.7882 23.1125L14.773 23.1111C14.4013 23.0643 14.0295 23.0643 13.6113 23.1579C12.9665 23.3314 12.7591 23.7053 12.5845 24.0201C12.5703 24.0456 12.5564 24.0707 12.5425 24.0953C12.5265 24.1221 12.5112 24.1482 12.4963 24.1736C12.3806 24.3712 12.2889 24.5279 12.1242 24.6108C11.9023 24.7228 11.7099 24.7159 11.5 24.7085C11.4462 24.7065 11.3912 24.7046 11.3342 24.7046C11.0554 24.6578 10.7301 24.6578 10.3119 24.7983C9.33602 25.1264 9.05719 26.2512 9.05719 26.2982C9.05719 26.345 9.10367 26.4387 9.15014 26.4856C9.1966 26.5325 9.28954 26.5325 9.33602 26.4856C9.33602 26.4856 9.94012 25.9232 10.6836 25.8294C10.9625 25.7826 11.2413 25.8294 11.5201 25.8763C11.5778 25.8828 11.6355 25.8901 11.6935 25.8975C12.0555 25.9437 12.4271 25.991 12.8677 25.8294C13.2027 25.7449 13.3868 25.5083 13.5559 25.2909C13.5745 25.267 13.5929 25.2434 13.6113 25.2202C13.7971 24.9858 13.983 24.7515 14.2618 24.7046C14.6935 24.5859 15.0257 24.6342 15.3425 24.6804C15.4008 24.6889 15.4587 24.6973 15.5165 24.7046C15.5793 24.7136 15.6422 24.7244 15.7053 24.7353C15.9692 24.7807 16.2389 24.8271 16.5389 24.7515C16.8174 24.7046 17.0496 24.611 17.2817 24.5175C16.8634 25.0799 16.4459 25.2202 15.9812 25.3607C15.9611 25.3666 15.9407 25.3724 15.9202 25.3782C15.61 25.4668 15.264 25.5657 14.9589 25.8294C14.4134 26.242 14.3571 26.6994 14.3114 27.0702C14.3103 27.0785 14.3093 27.0867 14.3083 27.0949C14.3083 27.3292 14.2618 27.5166 14.1224 27.7041C13.8901 27.9385 13.7042 28.0322 13.4254 28.126C13.1466 28.2197 12.8213 28.3603 12.496 28.6416C11.7992 29.3004 11.8778 30.3297 11.8905 30.495C11.8913 30.5061 11.8919 30.5133 11.8919 30.5162C11.8919 30.5631 11.9383 30.6569 12.0313 30.6569C12.1242 30.6569 12.1707 30.6569 12.2172 30.5631C12.2172 30.5162 12.5425 29.8132 13.193 29.4383C13.4719 29.2976 13.7042 29.204 13.983 29.157C13.9978 29.1533 14.0127 29.1496 14.0276 29.1458C14.3881 29.0554 14.7897 28.9546 15.1912 28.5946C15.463 28.3988 15.5402 28.1376 15.6124 27.8929C15.6266 27.8448 15.6407 27.7973 15.6559 27.7511C15.7024 27.4698 15.7954 27.2355 16.0277 27.048C16.4459 26.7668 16.8177 26.6731 17.1895 26.5793C17.2546 26.5606 17.3197 26.5437 17.3848 26.5268C17.645 26.4593 17.9052 26.3918 18.1653 26.2044C18.2012 26.1803 18.2362 26.157 18.2704 26.1342C18.5023 25.98 18.6944 25.8522 18.8159 25.6888C18.6862 26.3428 18.3555 26.6318 18.0107 26.933C17.9849 26.9556 17.9589 26.9783 17.933 27.0011C17.6541 27.2355 17.3754 27.4698 17.1429 27.8447C16.8137 28.4259 16.9219 28.8233 17.0155 29.167C17.0276 29.2113 17.0395 29.2548 17.0501 29.2976C17.0607 29.3511 17.0737 29.4022 17.0864 29.4519C17.1293 29.62 17.1682 29.7729 17.0965 29.9538C16.9805 30.2269 16.8322 30.3701 16.6785 30.5186C16.6476 30.5485 16.6165 30.5786 16.5853 30.6099C16.5293 30.6806 16.4648 30.747 16.3969 30.8169C16.2397 30.9787 16.0646 31.159 15.9348 31.4536C15.4701 32.3909 16.0277 33.3752 16.0742 33.422C16.1206 33.5158 16.1671 33.5158 16.2601 33.5158C16.353 33.5158 16.3995 33.4689 16.3995 33.3752C16.3995 33.3752 16.4459 32.5784 16.9106 31.9691C17.0792 31.7566 17.2478 31.6212 17.451 31.458C17.4719 31.4412 17.4931 31.4242 17.5148 31.4067C17.8401 31.1724 18.1653 30.8912 18.3977 30.4224C18.5835 30.0475 18.5371 29.7195 18.4906 29.4383C18.4441 29.157 18.4441 28.9227 18.5835 28.6416C18.8624 28.2197 19.1412 27.9854 19.4664 27.7511C19.5059 27.7192 19.5467 27.6874 19.5884 27.6549C19.7922 27.4958 20.0171 27.3204 20.21 27.048C20.3959 26.8136 20.4889 26.5793 20.5818 26.345C20.6747 27.0011 20.4888 27.423 20.2565 27.8447C20.2282 27.9114 20.1979 27.978 20.1673 28.0454C20.0473 28.3099 19.9218 28.5866 19.8847 28.9227C19.7938 29.6104 20.1031 29.9843 20.3341 30.2634C20.3392 30.2696 20.3443 30.2758 20.3494 30.2819C20.3697 30.3092 20.39 30.3355 20.4099 30.3613C20.5265 30.5123 20.6282 30.6441 20.6282 30.8443C20.6282 31.1724 20.5353 31.4067 20.3959 31.641C20.2566 31.9221 20.117 32.2038 20.0706 32.6722C19.9846 33.67 20.7347 34.3064 20.8836 34.4327C20.8956 34.4428 20.9036 34.4497 20.9071 34.4532ZM20.1674 25.9601C19.7922 25.8923 19.4334 25.7769 19.0974 25.6202C18.9535 26.5747 18.5027 26.9869 18.0726 27.3802C18.057 27.3945 18.0414 27.4087 18.0259 27.423C18.0141 27.4329 18.0023 27.4427 17.9907 27.4525C17.7275 27.6734 17.5069 27.8586 17.3288 28.1728C17.0501 28.6416 17.1429 28.9695 17.2824 29.3445C17.3754 29.6257 17.4682 29.907 17.3288 30.235C17.1895 30.6099 16.9571 30.8443 16.7248 31.0318C16.6886 31.0683 16.6507 31.1047 16.6116 31.1423C16.4502 31.2975 16.2704 31.4705 16.1206 31.7348C15.9348 32.1098 15.9812 32.4847 16.0277 32.7659C16.1206 32.4847 16.2601 32.1098 16.4924 31.8285C16.6783 31.5474 16.9106 31.3599 17.1429 31.2193C17.4682 30.9849 17.7471 30.7505 17.933 30.3288C18.0724 30.0945 18.0259 29.8132 17.9794 29.5789C17.933 29.2508 17.8865 28.8759 18.1188 28.5478C18.4441 28.0322 18.7694 27.7979 19.0947 27.5636C19.3736 27.3761 19.6059 27.1886 19.7453 26.9542C20.0192 26.5398 20.1166 26.2272 20.1674 25.9601ZM18.6261 25.3643C18.2965 25.1585 17.9957 24.9104 17.7311 24.6273C17.2456 25.4579 16.7024 25.6519 16.1564 25.8469C16.129 25.8566 16.1016 25.8664 16.0742 25.8763C15.7491 25.97 15.4234 26.0639 15.1448 26.2982C14.7265 26.6261 14.6801 26.9542 14.6336 27.3292C14.6259 27.3761 14.6194 27.423 14.6129 27.4699C14.5807 27.7042 14.5484 27.9385 14.3548 28.1728C14.076 28.4541 13.7971 28.5946 13.5183 28.6884C13.4881 28.7006 13.4571 28.7128 13.4254 28.7252C13.2127 28.8089 12.9649 28.9063 12.6819 29.1102C12.3566 29.3914 12.2636 29.7195 12.2172 30.0475C12.403 29.8132 12.6819 29.532 13.0072 29.3445C13.2162 29.2039 13.4253 29.1424 13.6344 29.0809C13.7041 29.0604 13.7739 29.0399 13.8436 29.0165C14.2154 28.9227 14.5871 28.829 14.9124 28.5478C15.0983 28.3603 15.1912 28.126 15.2377 27.8447C15.3306 27.5167 15.4236 27.1885 15.7489 26.9074C16.2136 26.5793 16.6318 26.4856 17.0501 26.3918C17.1095 26.3747 17.1675 26.3591 17.2238 26.344C17.4758 26.2763 17.6966 26.217 17.8865 26.0637C18.2416 25.8358 18.4622 25.6079 18.6261 25.3643ZM17.3898 24.2155C17.1603 23.9021 16.9704 23.5574 16.8277 23.1889C16.0257 23.8014 15.3872 23.7553 14.8195 23.6735C14.4942 23.6267 14.1689 23.6267 13.7971 23.7203C13.286 23.861 13.1001 24.1891 12.9607 24.4702C12.9477 24.492 12.9348 24.5141 12.9217 24.5365C12.7938 24.7555 12.6517 24.9989 12.3566 25.1264C12.0476 25.2823 11.8028 25.2762 11.5421 25.2696C11.4892 25.2683 11.4356 25.267 11.3807 25.267C11.3257 25.267 11.2707 25.2652 11.2149 25.2633C10.9882 25.2558 10.7497 25.2479 10.4513 25.3607C10.0795 25.5013 9.80072 25.7826 9.6613 26.0169C9.94012 25.8763 10.2654 25.7357 10.6372 25.6888C10.942 25.6449 11.206 25.6833 11.5056 25.7268C11.5258 25.7298 11.5461 25.7327 11.5666 25.7357C11.9383 25.7826 12.3101 25.8294 12.7283 25.6888C12.9607 25.5951 13.1466 25.4077 13.286 25.1732C13.4719 24.8921 13.7042 24.6108 14.1224 24.5172C14.6125 24.3935 15.0308 24.451 15.3773 24.4986C15.4251 24.5051 15.4715 24.5115 15.5165 24.5172C15.537 24.5201 15.5573 24.5231 15.5775 24.526C15.8771 24.5695 16.1411 24.6079 16.4459 24.564C16.8848 24.4692 17.1757 24.353 17.3898 24.2155ZM16.6527 22.6312C16.5696 22.2894 16.5256 21.9321 16.5256 21.5644C16.5256 21.5002 16.5269 21.4363 16.5296 21.3728C15.5564 21.6257 15.0253 21.3373 14.4942 21.0489C14.4056 21.0106 14.3205 20.9688 14.2359 20.9274C14.0101 20.8166 13.7888 20.708 13.5183 20.6739C12.9949 20.5859 12.758 20.787 12.5003 21.0058C12.4835 21.0201 12.4666 21.0345 12.4495 21.0489C12.2172 21.2364 11.9848 21.4239 11.6595 21.4239C11.292 21.4239 11.0321 21.3153 10.8168 21.2253C10.7871 21.2129 10.7583 21.2009 10.7301 21.1895C10.4978 21.0489 10.2189 20.9552 9.84719 20.9083C9.47542 20.8614 9.10367 21.0489 8.87131 21.2364C8.98606 21.2529 9.1066 21.2636 9.23088 21.2747C9.45889 21.2949 9.69951 21.3163 9.94012 21.3769C10.1996 21.4517 10.4 21.5563 10.612 21.667C10.6657 21.695 10.7202 21.7235 10.7766 21.7519C11.1019 21.9863 11.3807 22.1738 11.8454 22.1738C12.1242 22.1738 12.3101 22.08 12.5425 21.9394C12.5637 21.9287 12.5851 21.9177 12.6069 21.9066C12.8713 21.7716 13.1784 21.6148 13.5648 21.6582C14.1224 21.7519 14.4942 21.9863 14.8195 22.2206C15.0983 22.4081 15.3307 22.5487 15.6559 22.5955C16.0663 22.6911 16.3694 22.6785 16.6527 22.6312ZM16.5815 20.853C16.6462 20.445 16.7658 20.0555 16.9322 19.6924C15.9858 19.5473 15.5771 19.0926 15.1871 18.6589C15.173 18.6432 15.1589 18.6275 15.1448 18.6118C15.1351 18.6001 15.1254 18.5884 15.1159 18.5768C14.8966 18.3111 14.713 18.0884 14.4013 17.9087C13.9366 17.6276 13.6113 17.7213 13.2395 17.8619C13.0072 18.0025 12.7283 18.0962 12.403 18.0025C12.0313 17.8619 11.7989 17.6276 11.6131 17.3932C11.5769 17.3568 11.5408 17.3186 11.5037 17.2793C11.3497 17.1164 11.1781 16.935 10.916 16.7839C10.5442 16.5964 10.1725 16.6433 9.89365 16.6902C10.1725 16.7839 10.5442 16.9245 10.8231 17.1589C11.1019 17.3463 11.2878 17.5806 11.4272 17.815C11.6595 18.1431 11.8919 18.4243 12.3101 18.6118C12.5425 18.7524 12.8213 18.7055 13.0536 18.6586C13.3789 18.6118 13.7507 18.5649 14.076 18.7992C14.5871 19.1273 14.8195 19.4554 15.0518 19.7835C15.2377 20.0647 15.4236 20.299 15.6559 20.4396C16.0361 20.6952 16.3299 20.7984 16.5815 20.853ZM17.1859 19.217C17.3899 18.8846 17.636 18.5812 17.9167 18.3144C17.0932 17.8248 16.9008 17.2769 16.7075 16.7262C16.6978 16.6986 16.6881 16.671 16.6783 16.6433C16.5853 16.3153 16.4924 15.9871 16.2601 15.7059C15.9348 15.2841 15.6095 15.2373 15.2377 15.1904C15.1912 15.1826 15.1448 15.1761 15.0983 15.1696C14.866 15.137 14.6336 15.1045 14.4013 14.9092C14.1224 14.628 13.983 14.3468 13.8901 14.0656C13.878 14.0351 13.8659 14.0039 13.8535 13.9718C13.7706 13.7574 13.674 13.5074 13.4719 13.2219C13.193 12.8939 12.8677 12.8001 12.5425 12.7533C12.7748 12.9407 13.0536 13.2219 13.2395 13.55C13.3789 13.7609 13.4399 13.9718 13.5009 14.1828C13.5212 14.2531 13.5416 14.3233 13.5648 14.3936C13.6577 14.7686 13.7507 15.1435 14.0295 15.4716C14.2154 15.6591 14.4477 15.7528 14.7265 15.7997C15.0518 15.8934 15.3771 15.9872 15.6559 16.3152C15.9812 16.7839 16.0742 17.2057 16.1671 17.6276C16.1841 17.6877 16.1996 17.7463 16.2147 17.8033C16.2818 18.0572 16.3406 18.2798 16.4924 18.4711C16.7184 18.8293 16.9443 19.0517 17.1859 19.217ZM18.325 17.9702C18.6357 17.7387 18.9775 17.5472 19.3428 17.4032C18.7356 16.5944 18.7813 15.9505 18.8624 15.3779C18.9088 15.0498 18.9088 14.7217 18.8159 14.3468C18.6765 13.8312 18.3512 13.6438 18.0724 13.5032C18.0508 13.4901 18.0289 13.4771 18.0067 13.4639C17.7895 13.3349 17.5483 13.1915 17.4218 12.8939C17.2661 12.5798 17.2734 12.2986 17.2799 12.0503C17.2812 12.0022 17.2824 11.9553 17.2824 11.9096C17.2824 11.8542 17.2842 11.7987 17.2861 11.7425C17.2935 11.5138 17.3013 11.2732 17.1895 10.9723C17.0501 10.5973 16.7712 10.3161 16.5389 10.1755C16.6783 10.4567 16.8177 10.7848 16.8642 11.1598C16.9077 11.4673 16.8696 11.7336 16.8264 12.036C16.8235 12.0562 16.8206 12.0766 16.8177 12.0971C16.7712 12.4721 16.7248 12.847 16.8642 13.2688C16.9571 13.5032 17.1429 13.6906 17.3754 13.8312C17.6541 14.0187 17.933 14.253 18.0259 14.6749C18.1485 15.1691 18.0915 15.591 18.0443 15.9405C18.0378 15.9887 18.0315 16.0355 18.0259 16.0809C18.0229 16.1016 18.02 16.122 18.0171 16.1424C17.974 16.4446 17.9359 16.7108 17.9794 17.0183C18.0735 17.4609 18.1887 17.7542 18.325 17.9702ZM19.8959 17.2268C19.849 16.9411 19.8365 16.6353 19.9312 16.2215C19.9776 15.8934 20.117 15.6591 20.3029 15.3779C20.5353 15.0498 20.7676 14.6749 20.8606 14.1124C20.9036 13.7227 20.7481 13.413 20.6143 13.1463C20.6033 13.1244 20.5924 13.1027 20.5818 13.0813C20.4423 12.847 20.3494 12.6595 20.3494 12.3783C20.3494 11.9096 20.5353 11.6284 20.8606 11.3004C20.8889 11.2433 20.9172 11.1881 20.9451 11.1337C21.0547 10.9201 21.1583 10.7182 21.2323 10.4567C21.3253 10.0349 21.3253 9.65998 21.2788 9.37877C21.4647 9.61312 21.6506 9.94119 21.6041 10.363C21.5576 10.7379 21.4647 11.0192 21.3253 11.2535C21.314 11.2819 21.3021 11.311 21.2898 11.3409C21.2006 11.5581 21.0929 11.8202 21.0929 12.1909C21.0929 12.5189 21.2788 12.7533 21.4647 12.9876C21.479 13.0048 21.4932 13.0219 21.5074 13.0389C21.7243 13.2988 21.9237 13.5376 21.8365 14.0656C21.8026 14.3384 21.695 14.5616 21.5852 14.7894C21.5441 14.8746 21.5027 14.9605 21.4647 15.0498C21.1788 15.5855 20.8928 16.1211 21.1436 17.1026C21.0806 17.0999 21.0172 17.0986 20.9535 17.0986C20.589 17.0986 20.2348 17.143 19.8959 17.2268ZM21.659 17.155C22.0849 17.2237 22.4906 17.3538 22.8669 17.5359C23.0212 16.6284 23.461 16.2264 23.881 15.8423C23.8966 15.8281 23.9121 15.8139 23.9276 15.7997C23.9394 15.7898 23.951 15.7801 23.9626 15.7703C24.2259 15.5493 24.4466 15.3641 24.6246 15.0498C24.9035 14.5811 24.8106 14.253 24.6712 13.8781C24.5782 13.5969 24.4853 13.3157 24.6246 12.9876C24.6246 12.6045 24.8163 12.4147 25.0256 12.2075C25.0467 12.1866 25.068 12.1655 25.0893 12.144C25.1254 12.1076 25.1633 12.0712 25.2022 12.0337C25.3637 11.8784 25.5437 11.7053 25.6935 11.441C25.8793 11.066 25.8329 10.6911 25.7864 10.4099C25.6935 10.6911 25.5541 11.066 25.3217 11.3472C25.1359 11.6284 24.9035 11.8159 24.6712 11.9565C24.3459 12.1909 24.067 12.4252 23.8811 12.847C23.7417 13.0813 23.7882 13.3626 23.8347 13.5969C23.8811 13.925 23.9276 14.2999 23.6953 14.628C23.37 15.1435 23.0447 15.3779 22.7194 15.6122C22.4405 15.7997 22.2082 15.9872 22.0688 16.2215C21.8154 16.6049 21.7131 16.9012 21.659 17.155ZM23.3581 17.8138C23.6833 18.0263 23.979 18.2806 24.2379 18.5692C24.7194 17.7607 25.2569 17.5687 25.797 17.3758C25.8245 17.366 25.8519 17.3562 25.8793 17.3463C26.2046 17.2526 26.5299 17.1589 26.8088 16.9245C27.227 16.5964 27.2734 16.2684 27.32 15.8934C27.3277 15.8466 27.3341 15.7997 27.3406 15.7529C27.3728 15.5185 27.4051 15.2842 27.5987 15.0498C27.8776 14.7686 28.1564 14.628 28.4352 14.5342C28.4654 14.5221 28.4964 14.5099 28.5281 14.4974C28.7408 14.4138 28.9886 14.3163 29.2717 14.1124C29.5969 13.8312 29.6899 13.5032 29.7363 13.1751C29.5505 13.4094 29.2717 13.6906 28.9464 13.8781C28.7373 14.0187 28.5282 14.0802 28.3191 14.1417C28.2494 14.1622 28.1797 14.1827 28.1099 14.2062C27.7381 14.2999 27.3664 14.3936 27.0411 14.6749C26.8552 14.8623 26.7622 15.0967 26.7158 15.3779C26.6229 15.7059 26.5299 16.034 26.2046 16.3152C25.7399 16.6433 25.3217 16.737 24.9036 16.8308C24.8439 16.848 24.7858 16.8636 24.7292 16.8788C24.4775 16.9464 24.2567 17.0058 24.067 17.1589C23.7336 17.3728 23.5188 17.5868 23.3581 17.8138ZM24.5778 18.9982C24.8005 19.3174 24.9827 19.6674 25.117 20.0405C25.9231 19.4209 26.5642 19.467 27.1341 19.5491C27.4594 19.596 27.7847 19.596 28.1564 19.5023C28.6676 19.3616 28.8534 19.0335 28.9929 18.7524C29.0058 18.7307 29.0187 18.7085 29.0318 18.6861C29.1597 18.4671 29.3018 18.2238 29.5969 18.0962C29.9083 17.9392 30.1871 17.9466 30.4333 17.9531C30.481 17.9544 30.5275 17.9556 30.5728 17.9556C30.6278 17.9556 30.6829 17.9575 30.7386 17.9593C30.9653 17.9668 31.2038 17.9747 31.5022 17.8619C31.874 17.7213 32.1528 17.4401 32.2922 17.2057C32.0134 17.3463 31.6881 17.4869 31.3164 17.5338C31.0113 17.5777 30.7471 17.5393 30.4472 17.4956C30.4273 17.4927 30.4072 17.4898 30.3869 17.4869C30.0153 17.4401 29.6434 17.3932 29.2252 17.5338C28.9929 17.6276 28.807 17.815 28.6676 18.0494C28.4817 18.3306 28.2493 18.6118 27.8311 18.7055C27.341 18.8291 26.9227 18.7717 26.5762 18.7241C26.5285 18.7175 26.4821 18.7111 26.437 18.7055C26.4166 18.7025 26.3963 18.6996 26.3761 18.6966C26.0764 18.6531 25.8124 18.6147 25.5076 18.6586C25.0783 18.7514 24.7906 18.8646 24.5778 18.9982ZM25.277 20.5955C25.3454 20.9075 25.3815 21.2317 25.3815 21.5644C25.3815 21.6329 25.3799 21.701 25.3769 21.7687C26.3801 21.4939 26.9197 21.7869 27.4593 22.08C27.5479 22.1183 27.6331 22.1601 27.7176 22.2015C27.9434 22.3123 28.1647 22.4209 28.4352 22.4549C28.9587 22.5429 29.1955 22.3418 29.4532 22.123C29.47 22.1087 29.4869 22.0944 29.504 22.08C29.7363 21.8925 29.9687 21.705 30.294 21.705C30.6613 21.705 30.9211 21.8135 31.1363 21.9034C31.1661 21.9158 31.1951 21.9279 31.2234 21.9394C31.4558 22.08 31.7345 22.1738 32.1064 22.2206C32.4781 22.2674 32.8499 22.08 33.0822 21.8925C32.8034 21.9394 32.4317 21.9394 32.0598 21.8457C31.8006 21.771 31.6004 21.6665 31.3887 21.556C31.3347 21.5278 31.28 21.4992 31.2234 21.4707C30.8983 21.2834 30.5726 21.0958 30.1082 21.0489C29.8293 21.0489 29.6435 21.1426 29.411 21.2833C29.3899 21.2939 29.3686 21.3048 29.3469 21.3159C29.0825 21.4509 28.7753 21.6077 28.3887 21.5644C27.8311 21.4707 27.4594 21.2364 27.1341 21.002C26.8552 20.8145 26.6229 20.6739 26.2976 20.6271C25.8757 20.5289 25.5671 20.545 25.277 20.5955ZM25.327 22.2665C25.2677 22.6453 25.1612 23.0082 25.0138 23.349C25.9326 23.5004 26.3354 23.9486 26.72 24.3764C26.7341 24.3921 26.7482 24.4078 26.7622 24.4234C26.7722 24.4354 26.782 24.4474 26.7918 24.4592C27.0108 24.7245 27.1944 24.9469 27.5058 25.1264C27.9705 25.4077 28.2958 25.3139 28.6676 25.1732C28.9463 25.0796 29.2253 24.9859 29.5505 25.1264C29.9222 25.267 30.1546 25.5013 30.3405 25.7357C30.3766 25.7721 30.4128 25.8104 30.45 25.8497C30.604 26.0125 30.7755 26.194 31.0375 26.345C31.4093 26.5325 31.7811 26.4856 32.0598 26.4387C31.7811 26.345 31.4093 26.2044 31.1305 25.9701C30.8516 25.7826 30.6658 25.5482 30.5264 25.3139C30.294 24.9858 30.0616 24.7046 29.6435 24.5172C29.411 24.3765 29.1323 24.4234 28.8999 24.4702C28.5746 24.5172 28.2029 24.564 27.8776 24.3297C27.3664 24.0016 27.1341 23.6735 26.9017 23.3454C26.7158 23.0643 26.5299 22.8298 26.2976 22.6893C25.8945 22.4183 25.5885 22.3186 25.327 22.2665ZM24.7608 23.8459C24.5634 24.1803 24.324 24.4864 24.0498 24.7569C24.8234 25.2373 25.011 25.7717 25.1996 26.3089C25.2093 26.3365 25.219 26.3642 25.2288 26.3918C25.3217 26.7199 25.4146 27.048 25.647 27.3292C25.9723 27.7511 26.2976 27.7979 26.6694 27.8447C26.7159 27.8525 26.7624 27.8591 26.8089 27.8656C27.0412 27.8982 27.2735 27.9307 27.5058 28.126C27.7847 28.4071 27.924 28.6884 28.017 28.9695C28.029 28.9999 28.0411 29.0311 28.0535 29.0631C28.1364 29.2777 28.233 29.5277 28.4352 29.8132C28.714 30.1413 29.0393 30.235 29.3646 30.2819C29.1323 30.0945 28.8534 29.8132 28.6676 29.4851C28.5282 29.2743 28.4672 29.0634 28.4062 28.8526C28.3859 28.7822 28.3655 28.7119 28.3423 28.6416C28.2493 28.2666 28.1564 27.8916 27.8776 27.5636C27.6917 27.3761 27.4594 27.2823 27.1805 27.2355C26.8552 27.1417 26.5299 27.048 26.2511 26.7199C25.9259 26.2513 25.8329 25.8295 25.7399 25.4078C25.7229 25.3475 25.7074 25.2888 25.6923 25.2317C25.6252 24.9779 25.5664 24.7553 25.4146 24.564C25.2011 24.2255 24.9875 24.0083 24.7608 23.8459ZM23.6208 25.1295C23.3148 25.3627 22.9778 25.5568 22.6172 25.7044C23.1687 26.4793 23.1234 27.1019 23.0447 27.6573C22.9982 27.9854 22.9982 28.3135 23.0911 28.6884C23.2306 29.204 23.5558 29.3914 23.8347 29.532C23.8562 29.5451 23.8782 29.5581 23.9004 29.5713C24.1175 29.7003 24.3588 29.8436 24.4853 30.1413C24.641 30.4553 24.6336 30.7365 24.6271 30.9848C24.6259 31.033 24.6246 31.0799 24.6246 31.1255C24.6246 31.181 24.6228 31.2365 24.621 31.2927C24.6136 31.5213 24.6057 31.7619 24.7176 32.0628C24.857 32.4378 25.1359 32.719 25.3682 32.8596C25.2288 32.5784 25.0893 32.2504 25.0429 31.8754C24.9994 31.568 25.0374 31.3017 25.0806 30.9995C25.0835 30.9792 25.0864 30.9587 25.0893 30.938C25.1359 30.5631 25.1823 30.1881 25.0429 29.7664C24.9499 29.532 24.764 29.3445 24.5317 29.204C24.2529 29.0165 23.9741 28.7821 23.8811 28.3603C23.7587 27.8662 23.8155 27.4445 23.8626 27.0951C23.8691 27.0468 23.8755 26.9998 23.8811 26.9542C23.884 26.9338 23.8869 26.9135 23.8898 26.8934C23.9331 26.5909 23.9712 26.3245 23.9276 26.0169C23.8426 25.6168 23.7404 25.3387 23.6208 25.1295ZM22.0247 25.8987C22.0595 26.1592 22.0606 26.4431 21.9759 26.8136C21.9294 27.1417 21.7899 27.3761 21.6041 27.6573C21.3718 27.9854 21.1394 28.3603 21.0465 28.9227C21.0035 29.3125 21.159 29.6222 21.2928 29.8889C21.3038 29.9108 21.3147 29.9324 21.3253 29.9538C21.4647 30.1881 21.5576 30.3756 21.5576 30.6569C21.5112 31.1253 21.3254 31.4533 21.1397 31.7813C21.1115 31.8381 21.0831 31.8934 21.0553 31.9476C20.9455 32.1614 20.8418 32.3635 20.7676 32.6253C20.6747 33.0003 20.6747 33.3752 20.7212 33.6563C20.5353 33.422 20.3494 33.0939 20.3959 32.6722C20.4423 32.2972 20.5353 32.016 20.6747 31.7817C20.686 31.7532 20.6979 31.7241 20.7102 31.6941C20.7994 31.477 20.9071 31.2149 20.9071 30.8443C20.9071 30.5162 20.7212 30.2819 20.5353 30.0475C20.5211 30.0303 20.5068 30.0133 20.4927 29.9963C20.2757 29.7364 20.0763 29.4976 20.1636 28.9695C20.1973 28.6968 20.305 28.4736 20.4148 28.2459C20.4559 28.1607 20.4973 28.0748 20.5353 27.9854C20.8117 27.4677 21.0881 26.9499 20.8799 26.0297C20.9044 26.0301 20.9289 26.0303 20.9535 26.0303C21.3229 26.0303 21.6817 25.9847 22.0247 25.8987Z"/>
</mask>
<path fill-rule="evenodd" clip-rule="evenodd" d="M20.9071 34.4532C20.9071 34.5 20.9535 34.5 21 34.5H21.0929C21.1394 34.4532 21.1859 34.4062 21.1394 34.3125C21.1394 34.3125 20.8606 33.5627 21.0465 32.8128C21.1394 32.5315 21.2788 32.2972 21.4182 32.0628C21.6506 31.6879 21.8365 31.3599 21.8829 30.7974C21.9294 30.4224 21.7435 30.0945 21.6041 29.86C21.59 29.8315 21.5758 29.8034 21.5618 29.7757C21.4383 29.5308 21.33 29.316 21.3718 29.0633C21.4501 28.6288 21.6275 28.3274 21.7926 28.0469C21.8234 27.9947 21.8537 27.9432 21.8829 27.8916C21.917 27.8228 21.9539 27.754 21.9916 27.6838C22.1078 27.4672 22.2309 27.2375 22.3011 26.9542C22.3941 26.6261 22.3941 26.345 22.3941 26.1107C22.7623 26.7141 22.7202 27.1797 22.6742 27.6894L22.6729 27.7041C22.6264 28.0791 22.6264 28.4541 22.7194 28.8759C22.8914 29.5263 23.2622 29.7354 23.5743 29.9115C23.5996 29.9257 23.6244 29.9398 23.6488 29.9538C23.6754 29.9699 23.7015 29.9854 23.7268 30.0006C23.9225 30.1172 24.0777 30.2096 24.16 30.3756C24.2709 30.5995 24.2641 30.7936 24.2567 31.0053C24.2549 31.0595 24.2529 31.115 24.2529 31.1724C24.2064 31.4536 24.2064 31.7817 24.3459 32.2034C24.6712 33.1877 25.7864 33.4689 25.8329 33.4689C25.9258 33.4689 25.9723 33.4689 26.1117 33.3752C26.1582 33.3283 26.1582 33.2346 26.1117 33.1877C26.1117 33.1877 25.5541 32.5784 25.4611 31.8285C25.4147 31.5476 25.4611 31.2666 25.5075 30.9856C25.5139 30.9276 25.5213 30.8688 25.5286 30.8106C25.5744 30.4452 25.6214 30.0703 25.4611 29.6257C25.3774 29.2879 25.1427 29.1022 24.9271 28.9317C24.9034 28.913 24.88 28.8944 24.857 28.8759C24.6247 28.6884 24.3923 28.5009 24.3459 28.2197C24.2281 27.7842 24.2761 27.4491 24.3219 27.1295C24.3303 27.0707 24.3386 27.0125 24.3459 26.9542C24.3549 26.8907 24.3656 26.8272 24.3764 26.7634C24.4213 26.4974 24.4673 26.2256 24.3923 25.9232C24.3459 25.6421 24.253 25.4079 24.1601 25.1736C24.7177 25.5954 24.857 26.0169 24.9965 26.4856C25.0022 26.5058 25.0079 26.5261 25.0137 26.5466C25.1015 26.8596 25.1994 27.2088 25.4611 27.5166C25.8702 28.0668 26.3239 28.1237 26.6915 28.1697C26.6996 28.1708 26.7077 28.1718 26.7158 28.1728C26.9482 28.1728 27.1341 28.2197 27.32 28.3603C27.5523 28.5946 27.6452 28.7821 27.7381 29.0633C27.8311 29.3445 27.9705 29.6726 28.2493 30.0007C28.9026 30.7034 29.9231 30.6241 30.0871 30.6114C30.0981 30.6105 30.1052 30.6099 30.1082 30.6099C30.1546 30.6099 30.2475 30.5631 30.2475 30.4694C30.2475 30.3756 30.2475 30.3288 30.1546 30.2819C30.1082 30.2819 29.411 29.9538 29.0393 29.2976C28.8999 29.0165 28.807 28.7821 28.7605 28.5009C28.7568 28.4859 28.7531 28.4709 28.7494 28.4558C28.6597 28.0923 28.5598 27.6873 28.2029 27.2823C28.0141 27.0539 27.764 26.9801 27.5274 26.9102C27.4727 26.8941 27.4187 26.8782 27.3664 26.8606C27.0875 26.8136 26.8552 26.7199 26.6694 26.4856C26.3905 26.0637 26.2976 25.6888 26.2046 25.3139C26.1861 25.2484 26.1694 25.1829 26.1527 25.1174C26.0858 24.8548 26.0188 24.5923 25.8329 24.3297C25.8091 24.2936 25.786 24.2583 25.7635 24.2239C25.6105 23.9899 25.4838 23.7961 25.3217 23.6735C25.97 23.8043 26.2565 24.1378 26.5551 24.4854C26.5776 24.5116 26.6001 24.5378 26.6229 24.564C26.8551 24.845 27.0877 25.1265 27.4594 25.3607C28.0356 25.6928 28.4295 25.5837 28.7704 25.4893C28.8144 25.4771 28.8574 25.4652 28.8999 25.4545C28.9529 25.4438 29.0035 25.4307 29.0528 25.4179C29.2195 25.3746 29.3712 25.3353 29.5505 25.4077C29.8212 25.5247 29.9632 25.6741 30.1104 25.829C30.14 25.8603 30.1699 25.8917 30.2011 25.9232C30.2712 25.9797 30.337 26.0448 30.4063 26.1132C30.5667 26.2717 30.7454 26.4484 31.0375 26.5793C31.967 27.048 32.9428 26.4856 32.9893 26.4387C33.0822 26.3918 33.0822 26.345 33.0822 26.2512C33.0357 26.1575 32.9893 26.1107 32.8963 26.1107C32.8963 26.1107 32.1064 26.0637 31.5022 25.5951C31.2915 25.4251 31.1572 25.2551 30.9954 25.0501C30.9788 25.029 30.9619 25.0076 30.9446 24.9858C30.7122 24.6577 30.4334 24.3297 29.9687 24.0953C29.5969 23.9078 29.2717 23.9547 28.9929 24.0016C28.714 24.0484 28.4817 24.0484 28.2029 23.9078C27.7846 23.6267 27.5523 23.3454 27.32 23.0173C27.2883 22.9774 27.2566 22.9362 27.2243 22.894C27.0667 22.6886 26.8928 22.4619 26.6229 22.2674C26.3905 22.08 26.1582 21.9863 25.9258 21.8925C26.5764 21.7988 26.9947 21.9863 27.4128 22.2206C27.4791 22.2492 27.5453 22.2798 27.6123 22.3107C27.8744 22.4317 28.1486 22.5582 28.4817 22.5955C29.1636 22.6872 29.5342 22.3752 29.811 22.1422C29.8171 22.1371 29.8232 22.1319 29.8293 22.1269C29.8564 22.1063 29.8826 22.0858 29.9082 22.0657C30.0579 21.9482 30.1885 21.8457 30.3869 21.8457C30.7122 21.8457 30.9446 21.9394 31.1769 22.08C31.4557 22.2206 31.7346 22.3612 32.1993 22.4081C33.1868 22.4514 33.8172 21.6945 33.9442 21.5422C33.9546 21.5296 33.9616 21.5212 33.9652 21.5176C34.0116 21.4707 34.0116 21.3769 33.9652 21.3301C33.9187 21.2833 33.8721 21.2364 33.7793 21.2833C33.7793 21.2833 33.0357 21.5644 32.2922 21.3769C32.0134 21.3301 31.7811 21.1895 31.5487 21.0489C31.1769 20.8145 30.8516 20.6271 30.294 20.5802C29.9222 20.5334 29.5969 20.7208 29.3646 20.8614C29.3363 20.8757 29.3085 20.89 29.281 20.904C29.0381 21.0286 28.8251 21.1379 28.5746 21.0958C28.1436 21.0167 27.8447 20.8377 27.5665 20.6711C27.5148 20.6401 27.4638 20.6096 27.4128 20.5802C27.3445 20.5457 27.2762 20.5085 27.2065 20.4705C26.9918 20.3534 26.7641 20.2291 26.4835 20.1584C26.1582 20.0647 25.8793 20.0647 25.647 20.0647C26.2451 19.6934 26.7066 19.7357 27.2118 19.7821L27.227 19.7835C27.5987 19.8304 27.9705 19.8304 28.3887 19.7366C29.0334 19.5632 29.2409 19.1893 29.4155 18.8745C29.4297 18.849 29.4436 18.8238 29.4576 18.7992C29.4734 18.7725 29.4887 18.7464 29.5036 18.721C29.6193 18.5234 29.7111 18.3667 29.8758 18.2837C30.0976 18.1718 30.2901 18.1786 30.4999 18.1861C30.5538 18.188 30.6088 18.19 30.6658 18.19C30.9446 18.2368 31.2699 18.2368 31.6881 18.0962C32.664 17.7681 32.9428 16.6433 32.9428 16.5964C32.9428 16.5496 32.8963 16.4558 32.8499 16.409C32.8034 16.3621 32.7104 16.3621 32.664 16.409C32.664 16.409 32.0598 16.9714 31.3164 17.0651C31.0376 17.112 30.7588 17.0651 30.48 17.0183C30.4223 17.0118 30.3645 17.0044 30.3066 16.997C29.9445 16.9509 29.573 16.9035 29.1323 17.0651C28.7974 17.1496 28.6133 17.3862 28.4441 17.6036C28.4255 17.6275 28.4071 17.6512 28.3887 17.6744C28.2029 17.9086 28.0169 18.1431 27.7381 18.19C27.3065 18.3087 26.9743 18.2603 26.6575 18.2142C26.5991 18.2057 26.5413 18.1973 26.4835 18.19C26.4206 18.1809 26.3578 18.1701 26.2947 18.1592C26.0308 18.1139 25.7611 18.0675 25.4611 18.1431C25.1827 18.1899 24.9506 18.2835 24.7185 18.377L24.7176 18.3774C25.1359 17.815 25.5541 17.6744 26.0188 17.5338C26.039 17.528 26.0593 17.5222 26.0799 17.5163C26.39 17.4277 26.736 17.3289 27.0411 17.0651C27.5864 16.6526 27.6429 16.1953 27.6886 15.8246C27.6896 15.8163 27.6907 15.808 27.6917 15.7997C27.6917 15.5654 27.7381 15.3779 27.8776 15.1904C28.1099 14.9561 28.2958 14.8623 28.5746 14.7686C28.8534 14.6749 29.1787 14.5342 29.504 14.253C30.2008 13.5942 30.1222 12.5648 30.1095 12.3995C30.1087 12.3885 30.1082 12.3813 30.1082 12.3783C30.1082 12.3315 30.0616 12.2377 29.9687 12.2377C29.8758 12.2377 29.8293 12.2377 29.7829 12.3315C29.7829 12.3783 29.4576 13.0813 28.807 13.4563C28.5281 13.5969 28.2958 13.6906 28.017 13.7375C28.0022 13.7412 27.9874 13.7449 27.9725 13.7487C27.612 13.8391 27.2104 13.9398 26.8088 14.2999C26.537 14.4957 26.4599 14.7569 26.3876 15.0016C26.3734 15.0497 26.3594 15.0973 26.3441 15.1435C26.2976 15.4247 26.2046 15.6591 25.9723 15.8466C25.5542 16.1277 25.1824 16.2215 24.8107 16.3152C24.7457 16.3339 24.6804 16.3509 24.6154 16.3677C24.3552 16.4352 24.0949 16.5027 23.8347 16.6902C23.799 16.7141 23.7641 16.7373 23.7301 16.76C23.4979 16.9144 23.3056 17.0422 23.1841 17.2057C23.3137 16.5518 23.6445 16.2628 23.9892 15.9617C24.0151 15.939 24.041 15.9163 24.067 15.8934C24.3459 15.6591 24.6247 15.4247 24.857 15.0498C25.1863 14.4686 25.0781 14.0713 24.9845 13.7276C24.9724 13.6832 24.9606 13.6397 24.9499 13.5969C24.9394 13.5434 24.9263 13.4924 24.9137 13.4427C24.8708 13.2746 24.8318 13.1216 24.9035 12.9407C25.0195 12.6678 25.1676 12.5246 25.3212 12.3762C25.3522 12.3463 25.3834 12.3161 25.4146 12.2846C25.4707 12.2139 25.5352 12.1475 25.6031 12.0776C25.7602 11.9159 25.9354 11.7356 26.0652 11.441C26.5299 10.5036 25.9723 9.51938 25.9258 9.47251C25.8793 9.37877 25.8329 9.37877 25.7399 9.37877C25.647 9.42564 25.6005 9.47251 25.6005 9.56625C25.6005 9.56625 25.5541 10.363 25.0893 10.9723C24.9207 11.1849 24.7521 11.3204 24.5487 11.4837C24.5279 11.5003 24.5068 11.5173 24.4853 11.5347C24.16 11.769 23.8347 12.0502 23.6023 12.5189C23.4164 12.8939 23.4629 13.2219 23.5094 13.5032C23.5558 13.7844 23.5558 14.0187 23.4164 14.2999C23.1376 14.7217 22.8588 14.9561 22.5335 15.1904C22.494 15.2223 22.4531 15.2542 22.4113 15.2868C22.2076 15.4457 21.9828 15.6212 21.7899 15.8934C21.6041 16.1278 21.5112 16.3621 21.4182 16.5964C21.3253 15.9403 21.5112 15.5185 21.7435 15.0967C21.7719 15.0299 21.8022 14.9631 21.8329 14.8955C21.9528 14.6311 22.0783 14.3546 22.1152 14.0187C22.2062 13.331 21.8969 12.9573 21.6659 12.6781C21.6607 12.6719 21.6556 12.6657 21.6506 12.6595C21.6302 12.6322 21.6099 12.6058 21.59 12.58C21.4735 12.429 21.3718 12.2973 21.3718 12.0971C21.3718 11.769 21.4647 11.5347 21.6041 11.3004C21.7435 11.0192 21.8829 10.7379 21.9294 10.2693C21.9722 9.31837 21.2246 8.68636 21.0717 8.55703C21.0588 8.54613 21.0501 8.5388 21.0465 8.53515C21 8.48828 20.9071 8.48828 20.8606 8.53515C20.8142 8.58199 20.7677 8.62894 20.8141 8.72262C20.8141 8.72262 21.0929 9.47251 20.9071 10.2224C20.8143 10.5033 20.675 10.7374 20.5358 10.9715C20.3034 11.3464 20.117 11.6753 20.0706 12.2377C20.0242 12.6127 20.21 12.9407 20.3494 13.1751C20.3635 13.2035 20.3776 13.2314 20.3915 13.259C20.5151 13.5041 20.6235 13.719 20.5818 13.9718C20.5034 14.4066 20.3259 14.708 20.1607 14.9885C20.13 15.0407 20.0997 15.0921 20.0706 15.1435C20.0364 15.2125 19.9995 15.2814 19.9617 15.3518C19.8456 15.5683 19.7225 15.7979 19.6524 16.0809C19.5594 16.409 19.5594 16.6902 19.5594 16.9245C19.1912 16.321 19.2333 15.8555 19.2793 15.3457L19.2806 15.331C19.3271 14.9561 19.3271 14.5811 19.2341 14.1593C19.0622 13.509 18.6915 13.2999 18.3794 13.1238C18.3541 13.1095 18.3291 13.0954 18.3047 13.0813C18.2782 13.0653 18.2523 13.0499 18.2271 13.0348C18.0312 12.9181 17.8759 12.8256 17.7935 12.6595C17.6826 12.4358 17.6894 12.2417 17.6968 12.0301C17.6987 11.9757 17.7007 11.9202 17.7007 11.8628C17.7471 11.5816 17.7471 11.2535 17.6077 10.8317C17.2824 9.84746 16.1671 9.56625 16.1206 9.56625C16.0742 9.56625 15.9812 9.61312 15.9348 9.65998C15.8883 9.70685 15.8883 9.80059 15.9348 9.84746C15.9348 9.84746 16.4924 10.4567 16.5853 11.2066C16.6318 11.4878 16.5853 11.769 16.5389 12.0502C16.5325 12.1084 16.5252 12.1666 16.5178 12.225C16.4721 12.5902 16.4251 12.965 16.5853 13.4094C16.6691 13.7472 16.9037 13.9329 17.1193 14.1034C17.143 14.1222 17.1665 14.1407 17.1895 14.1593C17.4218 14.3468 17.6541 14.5343 17.7007 14.8155C17.8184 15.2508 17.7704 15.5859 17.7247 15.9053C17.7162 15.9642 17.7079 16.0226 17.7007 16.0809C17.6917 16.1443 17.681 16.2077 17.6702 16.2714C17.6252 16.5375 17.5792 16.8095 17.6541 17.112C17.7007 17.3932 17.7935 17.6276 17.8865 17.8619C17.3288 17.4401 17.1895 17.0183 17.0501 16.5496C17.0443 16.5292 17.0385 16.5087 17.0327 16.488C16.9449 16.1752 16.8469 15.8262 16.5853 15.5185C16.1763 14.9684 15.7227 14.9115 15.3552 14.8654C15.347 14.8644 15.3388 14.8633 15.3307 14.8623C15.0983 14.8623 14.9124 14.8155 14.7265 14.6749C14.4942 14.4405 14.4013 14.253 14.3083 13.9718C14.2154 13.6906 14.076 13.3626 13.7971 13.0345C13.1439 12.3317 12.1233 12.411 11.9594 12.4238C11.9484 12.4246 11.9413 12.4252 11.9383 12.4252C11.8919 12.4252 11.7989 12.4721 11.7989 12.5658C11.7525 12.6595 11.7989 12.7064 11.8919 12.7533C11.8919 12.7533 12.5889 13.0813 12.9607 13.55C13.1001 13.8312 13.193 14.0656 13.2395 14.3468C13.2432 14.3617 13.2469 14.3767 13.2506 14.3918C13.3403 14.7553 13.4402 15.1603 13.7971 15.5653C13.9913 15.8395 14.2503 15.9173 14.4929 15.9901C14.5407 16.0045 14.5878 16.0186 14.6336 16.034C14.9124 16.0809 15.1448 16.1746 15.3307 16.409C15.6094 16.8307 15.7024 17.2057 15.7953 17.5805C15.8139 17.6461 15.8307 17.7119 15.8474 17.7775C15.9143 18.0399 15.9812 18.3024 16.1671 18.5649C16.1909 18.6008 16.2139 18.636 16.2363 18.6704C16.3894 18.9045 16.5162 19.0984 16.6783 19.221C16.0299 19.0903 15.7434 18.7567 15.4448 18.409C15.4223 18.3829 15.3998 18.3567 15.3771 18.3306C15.1449 18.0495 14.9123 17.768 14.5407 17.5338C13.9644 17.2017 13.5705 17.3108 13.2296 17.4052C13.1857 17.4174 13.1426 17.4293 13.1001 17.4401C13.0471 17.4507 12.9965 17.4639 12.9472 17.4766C12.7805 17.5199 12.6289 17.5593 12.4495 17.4869C12.1788 17.3699 12.0368 17.2205 11.8897 17.0656C11.86 17.0343 11.8301 17.0029 11.7989 16.9714C11.7288 16.9148 11.663 16.8498 11.5937 16.7813C11.4333 16.6228 11.2545 16.4462 10.9625 16.3152C10.0331 15.8466 9.05719 16.409 9.01072 16.4558C8.91778 16.5027 8.91778 16.5496 8.91778 16.6433C8.96425 16.737 9.01072 16.7839 9.10367 16.7839C9.10367 16.7839 9.89365 16.8308 10.4978 17.2995C10.7086 17.4695 10.8429 17.6396 11.0048 17.8447C11.0213 17.8657 11.0382 17.887 11.0554 17.9087C11.2878 18.2368 11.5666 18.5649 12.0313 18.7992C12.403 18.9867 12.7283 18.9399 13.0072 18.893C13.286 18.8461 13.5183 18.8461 13.7971 18.9867C14.2154 19.2679 14.4477 19.5491 14.6801 19.8772C14.7117 19.9171 14.7434 19.9584 14.7757 20.0005C14.9333 20.2059 15.1072 20.4327 15.3771 20.6271C15.6095 20.8145 15.8418 20.9083 16.0742 21.002C15.4236 21.0958 15.0054 20.9083 14.5871 20.6739C14.5209 20.6453 14.4547 20.6148 14.3877 20.5838C14.1256 20.4629 13.8514 20.3363 13.5183 20.299C12.8365 20.2073 12.4659 20.5192 12.1891 20.7522C12.1829 20.7574 12.1768 20.7626 12.1707 20.7677C12.1436 20.7882 12.1174 20.8087 12.0919 20.8288C11.9421 20.9463 11.8115 21.0489 11.6131 21.0489C11.2878 21.0489 11.0554 20.9552 10.8231 20.8145C10.5442 20.6739 10.2654 20.5334 9.80072 20.4864C8.81302 20.4432 8.18248 21.2003 8.05579 21.3525C8.04539 21.365 8.03838 21.3734 8.03485 21.3769C7.98838 21.4239 7.98838 21.5176 8.03485 21.5644C8.08129 21.6112 8.12785 21.6582 8.22073 21.6113C8.22073 21.6113 8.96425 21.3301 9.70777 21.5176C9.98659 21.5644 10.2189 21.705 10.4513 21.8457C10.8231 22.08 11.1483 22.2674 11.706 22.3144C12.0778 22.3612 12.403 22.1738 12.6354 22.0331C12.6797 22.0107 12.7217 21.9884 12.7623 21.9668C12.9769 21.8525 13.1518 21.7594 13.4254 21.7988C13.8564 21.8778 14.1553 22.0568 14.4334 22.2234C14.4851 22.2544 14.5361 22.285 14.5871 22.3144C14.6555 22.3488 14.7239 22.3861 14.7936 22.4242C15.0083 22.5412 15.2359 22.6654 15.5165 22.7362C15.8418 22.8298 16.1206 22.8298 16.353 22.8298C15.7549 23.2011 15.2934 23.1588 14.7882 23.1125L14.773 23.1111C14.4013 23.0643 14.0295 23.0643 13.6113 23.1579C12.9665 23.3314 12.7591 23.7053 12.5845 24.0201C12.5703 24.0456 12.5564 24.0707 12.5425 24.0953C12.5265 24.1221 12.5112 24.1482 12.4963 24.1736C12.3806 24.3712 12.2889 24.5279 12.1242 24.6108C11.9023 24.7228 11.7099 24.7159 11.5 24.7085C11.4462 24.7065 11.3912 24.7046 11.3342 24.7046C11.0554 24.6578 10.7301 24.6578 10.3119 24.7983C9.33602 25.1264 9.05719 26.2512 9.05719 26.2982C9.05719 26.345 9.10367 26.4387 9.15014 26.4856C9.1966 26.5325 9.28954 26.5325 9.33602 26.4856C9.33602 26.4856 9.94012 25.9232 10.6836 25.8294C10.9625 25.7826 11.2413 25.8294 11.5201 25.8763C11.5778 25.8828 11.6355 25.8901 11.6935 25.8975C12.0555 25.9437 12.4271 25.991 12.8677 25.8294C13.2027 25.7449 13.3868 25.5083 13.5559 25.2909C13.5745 25.267 13.5929 25.2434 13.6113 25.2202C13.7971 24.9858 13.983 24.7515 14.2618 24.7046C14.6935 24.5859 15.0257 24.6342 15.3425 24.6804C15.4008 24.6889 15.4587 24.6973 15.5165 24.7046C15.5793 24.7136 15.6422 24.7244 15.7053 24.7353C15.9692 24.7807 16.2389 24.8271 16.5389 24.7515C16.8174 24.7046 17.0496 24.611 17.2817 24.5175C16.8634 25.0799 16.4459 25.2202 15.9812 25.3607C15.9611 25.3666 15.9407 25.3724 15.9202 25.3782C15.61 25.4668 15.264 25.5657 14.9589 25.8294C14.4134 26.242 14.3571 26.6994 14.3114 27.0702C14.3103 27.0785 14.3093 27.0867 14.3083 27.0949C14.3083 27.3292 14.2618 27.5166 14.1224 27.7041C13.8901 27.9385 13.7042 28.0322 13.4254 28.126C13.1466 28.2197 12.8213 28.3603 12.496 28.6416C11.7992 29.3004 11.8778 30.3297 11.8905 30.495C11.8913 30.5061 11.8919 30.5133 11.8919 30.5162C11.8919 30.5631 11.9383 30.6569 12.0313 30.6569C12.1242 30.6569 12.1707 30.6569 12.2172 30.5631C12.2172 30.5162 12.5425 29.8132 13.193 29.4383C13.4719 29.2976 13.7042 29.204 13.983 29.157C13.9978 29.1533 14.0127 29.1496 14.0276 29.1458C14.3881 29.0554 14.7897 28.9546 15.1912 28.5946C15.463 28.3988 15.5402 28.1376 15.6124 27.8929C15.6266 27.8448 15.6407 27.7973 15.6559 27.7511C15.7024 27.4698 15.7954 27.2355 16.0277 27.048C16.4459 26.7668 16.8177 26.6731 17.1895 26.5793C17.2546 26.5606 17.3197 26.5437 17.3848 26.5268C17.645 26.4593 17.9052 26.3918 18.1653 26.2044C18.2012 26.1803 18.2362 26.157 18.2704 26.1342C18.5023 25.98 18.6944 25.8522 18.8159 25.6888C18.6862 26.3428 18.3555 26.6318 18.0107 26.933C17.9849 26.9556 17.9589 26.9783 17.933 27.0011C17.6541 27.2355 17.3754 27.4698 17.1429 27.8447C16.8137 28.4259 16.9219 28.8233 17.0155 29.167C17.0276 29.2113 17.0395 29.2548 17.0501 29.2976C17.0607 29.3511 17.0737 29.4022 17.0864 29.4519C17.1293 29.62 17.1682 29.7729 17.0965 29.9538C16.9805 30.2269 16.8322 30.3701 16.6785 30.5186C16.6476 30.5485 16.6165 30.5786 16.5853 30.6099C16.5293 30.6806 16.4648 30.747 16.3969 30.8169C16.2397 30.9787 16.0646 31.159 15.9348 31.4536C15.4701 32.3909 16.0277 33.3752 16.0742 33.422C16.1206 33.5158 16.1671 33.5158 16.2601 33.5158C16.353 33.5158 16.3995 33.4689 16.3995 33.3752C16.3995 33.3752 16.4459 32.5784 16.9106 31.9691C17.0792 31.7566 17.2478 31.6212 17.451 31.458C17.4719 31.4412 17.4931 31.4242 17.5148 31.4067C17.8401 31.1724 18.1653 30.8912 18.3977 30.4224C18.5835 30.0475 18.5371 29.7195 18.4906 29.4383C18.4441 29.157 18.4441 28.9227 18.5835 28.6416C18.8624 28.2197 19.1412 27.9854 19.4664 27.7511C19.5059 27.7192 19.5467 27.6874 19.5884 27.6549C19.7922 27.4958 20.0171 27.3204 20.21 27.048C20.3959 26.8136 20.4889 26.5793 20.5818 26.345C20.6747 27.0011 20.4888 27.423 20.2565 27.8447C20.2282 27.9114 20.1979 27.978 20.1673 28.0454C20.0473 28.3099 19.9218 28.5866 19.8847 28.9227C19.7938 29.6104 20.1031 29.9843 20.3341 30.2634C20.3392 30.2696 20.3443 30.2758 20.3494 30.2819C20.3697 30.3092 20.39 30.3355 20.4099 30.3613C20.5265 30.5123 20.6282 30.6441 20.6282 30.8443C20.6282 31.1724 20.5353 31.4067 20.3959 31.641C20.2566 31.9221 20.117 32.2038 20.0706 32.6722C19.9846 33.67 20.7347 34.3064 20.8836 34.4327C20.8956 34.4428 20.9036 34.4497 20.9071 34.4532ZM20.1674 25.9601C19.7922 25.8923 19.4334 25.7769 19.0974 25.6202C18.9535 26.5747 18.5027 26.9869 18.0726 27.3802C18.057 27.3945 18.0414 27.4087 18.0259 27.423C18.0141 27.4329 18.0023 27.4427 17.9907 27.4525C17.7275 27.6734 17.5069 27.8586 17.3288 28.1728C17.0501 28.6416 17.1429 28.9695 17.2824 29.3445C17.3754 29.6257 17.4682 29.907 17.3288 30.235C17.1895 30.6099 16.9571 30.8443 16.7248 31.0318C16.6886 31.0683 16.6507 31.1047 16.6116 31.1423C16.4502 31.2975 16.2704 31.4705 16.1206 31.7348C15.9348 32.1098 15.9812 32.4847 16.0277 32.7659C16.1206 32.4847 16.2601 32.1098 16.4924 31.8285C16.6783 31.5474 16.9106 31.3599 17.1429 31.2193C17.4682 30.9849 17.7471 30.7505 17.933 30.3288C18.0724 30.0945 18.0259 29.8132 17.9794 29.5789C17.933 29.2508 17.8865 28.8759 18.1188 28.5478C18.4441 28.0322 18.7694 27.7979 19.0947 27.5636C19.3736 27.3761 19.6059 27.1886 19.7453 26.9542C20.0192 26.5398 20.1166 26.2272 20.1674 25.9601ZM18.6261 25.3643C18.2965 25.1585 17.9957 24.9104 17.7311 24.6273C17.2456 25.4579 16.7024 25.6519 16.1564 25.8469C16.129 25.8566 16.1016 25.8664 16.0742 25.8763C15.7491 25.97 15.4234 26.0639 15.1448 26.2982C14.7265 26.6261 14.6801 26.9542 14.6336 27.3292C14.6259 27.3761 14.6194 27.423 14.6129 27.4699C14.5807 27.7042 14.5484 27.9385 14.3548 28.1728C14.076 28.4541 13.7971 28.5946 13.5183 28.6884C13.4881 28.7006 13.4571 28.7128 13.4254 28.7252C13.2127 28.8089 12.9649 28.9063 12.6819 29.1102C12.3566 29.3914 12.2636 29.7195 12.2172 30.0475C12.403 29.8132 12.6819 29.532 13.0072 29.3445C13.2162 29.2039 13.4253 29.1424 13.6344 29.0809C13.7041 29.0604 13.7739 29.0399 13.8436 29.0165C14.2154 28.9227 14.5871 28.829 14.9124 28.5478C15.0983 28.3603 15.1912 28.126 15.2377 27.8447C15.3306 27.5167 15.4236 27.1885 15.7489 26.9074C16.2136 26.5793 16.6318 26.4856 17.0501 26.3918C17.1095 26.3747 17.1675 26.3591 17.2238 26.344C17.4758 26.2763 17.6966 26.217 17.8865 26.0637C18.2416 25.8358 18.4622 25.6079 18.6261 25.3643ZM17.3898 24.2155C17.1603 23.9021 16.9704 23.5574 16.8277 23.1889C16.0257 23.8014 15.3872 23.7553 14.8195 23.6735C14.4942 23.6267 14.1689 23.6267 13.7971 23.7203C13.286 23.861 13.1001 24.1891 12.9607 24.4702C12.9477 24.492 12.9348 24.5141 12.9217 24.5365C12.7938 24.7555 12.6517 24.9989 12.3566 25.1264C12.0476 25.2823 11.8028 25.2762 11.5421 25.2696C11.4892 25.2683 11.4356 25.267 11.3807 25.267C11.3257 25.267 11.2707 25.2652 11.2149 25.2633C10.9882 25.2558 10.7497 25.2479 10.4513 25.3607C10.0795 25.5013 9.80072 25.7826 9.6613 26.0169C9.94012 25.8763 10.2654 25.7357 10.6372 25.6888C10.942 25.6449 11.206 25.6833 11.5056 25.7268C11.5258 25.7298 11.5461 25.7327 11.5666 25.7357C11.9383 25.7826 12.3101 25.8294 12.7283 25.6888C12.9607 25.5951 13.1466 25.4077 13.286 25.1732C13.4719 24.8921 13.7042 24.6108 14.1224 24.5172C14.6125 24.3935 15.0308 24.451 15.3773 24.4986C15.4251 24.5051 15.4715 24.5115 15.5165 24.5172C15.537 24.5201 15.5573 24.5231 15.5775 24.526C15.8771 24.5695 16.1411 24.6079 16.4459 24.564C16.8848 24.4692 17.1757 24.353 17.3898 24.2155ZM16.6527 22.6312C16.5696 22.2894 16.5256 21.9321 16.5256 21.5644C16.5256 21.5002 16.5269 21.4363 16.5296 21.3728C15.5564 21.6257 15.0253 21.3373 14.4942 21.0489C14.4056 21.0106 14.3205 20.9688 14.2359 20.9274C14.0101 20.8166 13.7888 20.708 13.5183 20.6739C12.9949 20.5859 12.758 20.787 12.5003 21.0058C12.4835 21.0201 12.4666 21.0345 12.4495 21.0489C12.2172 21.2364 11.9848 21.4239 11.6595 21.4239C11.292 21.4239 11.0321 21.3153 10.8168 21.2253C10.7871 21.2129 10.7583 21.2009 10.7301 21.1895C10.4978 21.0489 10.2189 20.9552 9.84719 20.9083C9.47542 20.8614 9.10367 21.0489 8.87131 21.2364C8.98606 21.2529 9.1066 21.2636 9.23088 21.2747C9.45889 21.2949 9.69951 21.3163 9.94012 21.3769C10.1996 21.4517 10.4 21.5563 10.612 21.667C10.6657 21.695 10.7202 21.7235 10.7766 21.7519C11.1019 21.9863 11.3807 22.1738 11.8454 22.1738C12.1242 22.1738 12.3101 22.08 12.5425 21.9394C12.5637 21.9287 12.5851 21.9177 12.6069 21.9066C12.8713 21.7716 13.1784 21.6148 13.5648 21.6582C14.1224 21.7519 14.4942 21.9863 14.8195 22.2206C15.0983 22.4081 15.3307 22.5487 15.6559 22.5955C16.0663 22.6911 16.3694 22.6785 16.6527 22.6312ZM16.5815 20.853C16.6462 20.445 16.7658 20.0555 16.9322 19.6924C15.9858 19.5473 15.5771 19.0926 15.1871 18.6589C15.173 18.6432 15.1589 18.6275 15.1448 18.6118C15.1351 18.6001 15.1254 18.5884 15.1159 18.5768C14.8966 18.3111 14.713 18.0884 14.4013 17.9087C13.9366 17.6276 13.6113 17.7213 13.2395 17.8619C13.0072 18.0025 12.7283 18.0962 12.403 18.0025C12.0313 17.8619 11.7989 17.6276 11.6131 17.3932C11.5769 17.3568 11.5408 17.3186 11.5037 17.2793C11.3497 17.1164 11.1781 16.935 10.916 16.7839C10.5442 16.5964 10.1725 16.6433 9.89365 16.6902C10.1725 16.7839 10.5442 16.9245 10.8231 17.1589C11.1019 17.3463 11.2878 17.5806 11.4272 17.815C11.6595 18.1431 11.8919 18.4243 12.3101 18.6118C12.5425 18.7524 12.8213 18.7055 13.0536 18.6586C13.3789 18.6118 13.7507 18.5649 14.076 18.7992C14.5871 19.1273 14.8195 19.4554 15.0518 19.7835C15.2377 20.0647 15.4236 20.299 15.6559 20.4396C16.0361 20.6952 16.3299 20.7984 16.5815 20.853ZM17.1859 19.217C17.3899 18.8846 17.636 18.5812 17.9167 18.3144C17.0932 17.8248 16.9008 17.2769 16.7075 16.7262C16.6978 16.6986 16.6881 16.671 16.6783 16.6433C16.5853 16.3153 16.4924 15.9871 16.2601 15.7059C15.9348 15.2841 15.6095 15.2373 15.2377 15.1904C15.1912 15.1826 15.1448 15.1761 15.0983 15.1696C14.866 15.137 14.6336 15.1045 14.4013 14.9092C14.1224 14.628 13.983 14.3468 13.8901 14.0656C13.878 14.0351 13.8659 14.0039 13.8535 13.9718C13.7706 13.7574 13.674 13.5074 13.4719 13.2219C13.193 12.8939 12.8677 12.8001 12.5425 12.7533C12.7748 12.9407 13.0536 13.2219 13.2395 13.55C13.3789 13.7609 13.4399 13.9718 13.5009 14.1828C13.5212 14.2531 13.5416 14.3233 13.5648 14.3936C13.6577 14.7686 13.7507 15.1435 14.0295 15.4716C14.2154 15.6591 14.4477 15.7528 14.7265 15.7997C15.0518 15.8934 15.3771 15.9872 15.6559 16.3152C15.9812 16.7839 16.0742 17.2057 16.1671 17.6276C16.1841 17.6877 16.1996 17.7463 16.2147 17.8033C16.2818 18.0572 16.3406 18.2798 16.4924 18.4711C16.7184 18.8293 16.9443 19.0517 17.1859 19.217ZM18.325 17.9702C18.6357 17.7387 18.9775 17.5472 19.3428 17.4032C18.7356 16.5944 18.7813 15.9505 18.8624 15.3779C18.9088 15.0498 18.9088 14.7217 18.8159 14.3468C18.6765 13.8312 18.3512 13.6438 18.0724 13.5032C18.0508 13.4901 18.0289 13.4771 18.0067 13.4639C17.7895 13.3349 17.5483 13.1915 17.4218 12.8939C17.2661 12.5798 17.2734 12.2986 17.2799 12.0503C17.2812 12.0022 17.2824 11.9553 17.2824 11.9096C17.2824 11.8542 17.2842 11.7987 17.2861 11.7425C17.2935 11.5138 17.3013 11.2732 17.1895 10.9723C17.0501 10.5973 16.7712 10.3161 16.5389 10.1755C16.6783 10.4567 16.8177 10.7848 16.8642 11.1598C16.9077 11.4673 16.8696 11.7336 16.8264 12.036C16.8235 12.0562 16.8206 12.0766 16.8177 12.0971C16.7712 12.4721 16.7248 12.847 16.8642 13.2688C16.9571 13.5032 17.1429 13.6906 17.3754 13.8312C17.6541 14.0187 17.933 14.253 18.0259 14.6749C18.1485 15.1691 18.0915 15.591 18.0443 15.9405C18.0378 15.9887 18.0315 16.0355 18.0259 16.0809C18.0229 16.1016 18.02 16.122 18.0171 16.1424C17.974 16.4446 17.9359 16.7108 17.9794 17.0183C18.0735 17.4609 18.1887 17.7542 18.325 17.9702ZM19.8959 17.2268C19.849 16.9411 19.8365 16.6353 19.9312 16.2215C19.9776 15.8934 20.117 15.6591 20.3029 15.3779C20.5353 15.0498 20.7676 14.6749 20.8606 14.1124C20.9036 13.7227 20.7481 13.413 20.6143 13.1463C20.6033 13.1244 20.5924 13.1027 20.5818 13.0813C20.4423 12.847 20.3494 12.6595 20.3494 12.3783C20.3494 11.9096 20.5353 11.6284 20.8606 11.3004C20.8889 11.2433 20.9172 11.1881 20.9451 11.1337C21.0547 10.9201 21.1583 10.7182 21.2323 10.4567C21.3253 10.0349 21.3253 9.65998 21.2788 9.37877C21.4647 9.61312 21.6506 9.94119 21.6041 10.363C21.5576 10.7379 21.4647 11.0192 21.3253 11.2535C21.314 11.2819 21.3021 11.311 21.2898 11.3409C21.2006 11.5581 21.0929 11.8202 21.0929 12.1909C21.0929 12.5189 21.2788 12.7533 21.4647 12.9876C21.479 13.0048 21.4932 13.0219 21.5074 13.0389C21.7243 13.2988 21.9237 13.5376 21.8365 14.0656C21.8026 14.3384 21.695 14.5616 21.5852 14.7894C21.5441 14.8746 21.5027 14.9605 21.4647 15.0498C21.1788 15.5855 20.8928 16.1211 21.1436 17.1026C21.0806 17.0999 21.0172 17.0986 20.9535 17.0986C20.589 17.0986 20.2348 17.143 19.8959 17.2268ZM21.659 17.155C22.0849 17.2237 22.4906 17.3538 22.8669 17.5359C23.0212 16.6284 23.461 16.2264 23.881 15.8423C23.8966 15.8281 23.9121 15.8139 23.9276 15.7997C23.9394 15.7898 23.951 15.7801 23.9626 15.7703C24.2259 15.5493 24.4466 15.3641 24.6246 15.0498C24.9035 14.5811 24.8106 14.253 24.6712 13.8781C24.5782 13.5969 24.4853 13.3157 24.6246 12.9876C24.6246 12.6045 24.8163 12.4147 25.0256 12.2075C25.0467 12.1866 25.068 12.1655 25.0893 12.144C25.1254 12.1076 25.1633 12.0712 25.2022 12.0337C25.3637 11.8784 25.5437 11.7053 25.6935 11.441C25.8793 11.066 25.8329 10.6911 25.7864 10.4099C25.6935 10.6911 25.5541 11.066 25.3217 11.3472C25.1359 11.6284 24.9035 11.8159 24.6712 11.9565C24.3459 12.1909 24.067 12.4252 23.8811 12.847C23.7417 13.0813 23.7882 13.3626 23.8347 13.5969C23.8811 13.925 23.9276 14.2999 23.6953 14.628C23.37 15.1435 23.0447 15.3779 22.7194 15.6122C22.4405 15.7997 22.2082 15.9872 22.0688 16.2215C21.8154 16.6049 21.7131 16.9012 21.659 17.155ZM23.3581 17.8138C23.6833 18.0263 23.979 18.2806 24.2379 18.5692C24.7194 17.7607 25.2569 17.5687 25.797 17.3758C25.8245 17.366 25.8519 17.3562 25.8793 17.3463C26.2046 17.2526 26.5299 17.1589 26.8088 16.9245C27.227 16.5964 27.2734 16.2684 27.32 15.8934C27.3277 15.8466 27.3341 15.7997 27.3406 15.7529C27.3728 15.5185 27.4051 15.2842 27.5987 15.0498C27.8776 14.7686 28.1564 14.628 28.4352 14.5342C28.4654 14.5221 28.4964 14.5099 28.5281 14.4974C28.7408 14.4138 28.9886 14.3163 29.2717 14.1124C29.5969 13.8312 29.6899 13.5032 29.7363 13.1751C29.5505 13.4094 29.2717 13.6906 28.9464 13.8781C28.7373 14.0187 28.5282 14.0802 28.3191 14.1417C28.2494 14.1622 28.1797 14.1827 28.1099 14.2062C27.7381 14.2999 27.3664 14.3936 27.0411 14.6749C26.8552 14.8623 26.7622 15.0967 26.7158 15.3779C26.6229 15.7059 26.5299 16.034 26.2046 16.3152C25.7399 16.6433 25.3217 16.737 24.9036 16.8308C24.8439 16.848 24.7858 16.8636 24.7292 16.8788C24.4775 16.9464 24.2567 17.0058 24.067 17.1589C23.7336 17.3728 23.5188 17.5868 23.3581 17.8138ZM24.5778 18.9982C24.8005 19.3174 24.9827 19.6674 25.117 20.0405C25.9231 19.4209 26.5642 19.467 27.1341 19.5491C27.4594 19.596 27.7847 19.596 28.1564 19.5023C28.6676 19.3616 28.8534 19.0335 28.9929 18.7524C29.0058 18.7307 29.0187 18.7085 29.0318 18.6861C29.1597 18.4671 29.3018 18.2238 29.5969 18.0962C29.9083 17.9392 30.1871 17.9466 30.4333 17.9531C30.481 17.9544 30.5275 17.9556 30.5728 17.9556C30.6278 17.9556 30.6829 17.9575 30.7386 17.9593C30.9653 17.9668 31.2038 17.9747 31.5022 17.8619C31.874 17.7213 32.1528 17.4401 32.2922 17.2057C32.0134 17.3463 31.6881 17.4869 31.3164 17.5338C31.0113 17.5777 30.7471 17.5393 30.4472 17.4956C30.4273 17.4927 30.4072 17.4898 30.3869 17.4869C30.0153 17.4401 29.6434 17.3932 29.2252 17.5338C28.9929 17.6276 28.807 17.815 28.6676 18.0494C28.4817 18.3306 28.2493 18.6118 27.8311 18.7055C27.341 18.8291 26.9227 18.7717 26.5762 18.7241C26.5285 18.7175 26.4821 18.7111 26.437 18.7055C26.4166 18.7025 26.3963 18.6996 26.3761 18.6966C26.0764 18.6531 25.8124 18.6147 25.5076 18.6586C25.0783 18.7514 24.7906 18.8646 24.5778 18.9982ZM25.277 20.5955C25.3454 20.9075 25.3815 21.2317 25.3815 21.5644C25.3815 21.6329 25.3799 21.701 25.3769 21.7687C26.3801 21.4939 26.9197 21.7869 27.4593 22.08C27.5479 22.1183 27.6331 22.1601 27.7176 22.2015C27.9434 22.3123 28.1647 22.4209 28.4352 22.4549C28.9587 22.5429 29.1955 22.3418 29.4532 22.123C29.47 22.1087 29.4869 22.0944 29.504 22.08C29.7363 21.8925 29.9687 21.705 30.294 21.705C30.6613 21.705 30.9211 21.8135 31.1363 21.9034C31.1661 21.9158 31.1951 21.9279 31.2234 21.9394C31.4558 22.08 31.7345 22.1738 32.1064 22.2206C32.4781 22.2674 32.8499 22.08 33.0822 21.8925C32.8034 21.9394 32.4317 21.9394 32.0598 21.8457C31.8006 21.771 31.6004 21.6665 31.3887 21.556C31.3347 21.5278 31.28 21.4992 31.2234 21.4707C30.8983 21.2834 30.5726 21.0958 30.1082 21.0489C29.8293 21.0489 29.6435 21.1426 29.411 21.2833C29.3899 21.2939 29.3686 21.3048 29.3469 21.3159C29.0825 21.4509 28.7753 21.6077 28.3887 21.5644C27.8311 21.4707 27.4594 21.2364 27.1341 21.002C26.8552 20.8145 26.6229 20.6739 26.2976 20.6271C25.8757 20.5289 25.5671 20.545 25.277 20.5955ZM25.327 22.2665C25.2677 22.6453 25.1612 23.0082 25.0138 23.349C25.9326 23.5004 26.3354 23.9486 26.72 24.3764C26.7341 24.3921 26.7482 24.4078 26.7622 24.4234C26.7722 24.4354 26.782 24.4474 26.7918 24.4592C27.0108 24.7245 27.1944 24.9469 27.5058 25.1264C27.9705 25.4077 28.2958 25.3139 28.6676 25.1732C28.9463 25.0796 29.2253 24.9859 29.5505 25.1264C29.9222 25.267 30.1546 25.5013 30.3405 25.7357C30.3766 25.7721 30.4128 25.8104 30.45 25.8497C30.604 26.0125 30.7755 26.194 31.0375 26.345C31.4093 26.5325 31.7811 26.4856 32.0598 26.4387C31.7811 26.345 31.4093 26.2044 31.1305 25.9701C30.8516 25.7826 30.6658 25.5482 30.5264 25.3139C30.294 24.9858 30.0616 24.7046 29.6435 24.5172C29.411 24.3765 29.1323 24.4234 28.8999 24.4702C28.5746 24.5172 28.2029 24.564 27.8776 24.3297C27.3664 24.0016 27.1341 23.6735 26.9017 23.3454C26.7158 23.0643 26.5299 22.8298 26.2976 22.6893C25.8945 22.4183 25.5885 22.3186 25.327 22.2665ZM24.7608 23.8459C24.5634 24.1803 24.324 24.4864 24.0498 24.7569C24.8234 25.2373 25.011 25.7717 25.1996 26.3089C25.2093 26.3365 25.219 26.3642 25.2288 26.3918C25.3217 26.7199 25.4146 27.048 25.647 27.3292C25.9723 27.7511 26.2976 27.7979 26.6694 27.8447C26.7159 27.8525 26.7624 27.8591 26.8089 27.8656C27.0412 27.8982 27.2735 27.9307 27.5058 28.126C27.7847 28.4071 27.924 28.6884 28.017 28.9695C28.029 28.9999 28.0411 29.0311 28.0535 29.0631C28.1364 29.2777 28.233 29.5277 28.4352 29.8132C28.714 30.1413 29.0393 30.235 29.3646 30.2819C29.1323 30.0945 28.8534 29.8132 28.6676 29.4851C28.5282 29.2743 28.4672 29.0634 28.4062 28.8526C28.3859 28.7822 28.3655 28.7119 28.3423 28.6416C28.2493 28.2666 28.1564 27.8916 27.8776 27.5636C27.6917 27.3761 27.4594 27.2823 27.1805 27.2355C26.8552 27.1417 26.5299 27.048 26.2511 26.7199C25.9259 26.2513 25.8329 25.8295 25.7399 25.4078C25.7229 25.3475 25.7074 25.2888 25.6923 25.2317C25.6252 24.9779 25.5664 24.7553 25.4146 24.564C25.2011 24.2255 24.9875 24.0083 24.7608 23.8459ZM23.6208 25.1295C23.3148 25.3627 22.9778 25.5568 22.6172 25.7044C23.1687 26.4793 23.1234 27.1019 23.0447 27.6573C22.9982 27.9854 22.9982 28.3135 23.0911 28.6884C23.2306 29.204 23.5558 29.3914 23.8347 29.532C23.8562 29.5451 23.8782 29.5581 23.9004 29.5713C24.1175 29.7003 24.3588 29.8436 24.4853 30.1413C24.641 30.4553 24.6336 30.7365 24.6271 30.9848C24.6259 31.033 24.6246 31.0799 24.6246 31.1255C24.6246 31.181 24.6228 31.2365 24.621 31.2927C24.6136 31.5213 24.6057 31.7619 24.7176 32.0628C24.857 32.4378 25.1359 32.719 25.3682 32.8596C25.2288 32.5784 25.0893 32.2504 25.0429 31.8754C24.9994 31.568 25.0374 31.3017 25.0806 30.9995C25.0835 30.9792 25.0864 30.9587 25.0893 30.938C25.1359 30.5631 25.1823 30.1881 25.0429 29.7664C24.9499 29.532 24.764 29.3445 24.5317 29.204C24.2529 29.0165 23.9741 28.7821 23.8811 28.3603C23.7587 27.8662 23.8155 27.4445 23.8626 27.0951C23.8691 27.0468 23.8755 26.9998 23.8811 26.9542C23.884 26.9338 23.8869 26.9135 23.8898 26.8934C23.9331 26.5909 23.9712 26.3245 23.9276 26.0169C23.8426 25.6168 23.7404 25.3387 23.6208 25.1295ZM22.0247 25.8987C22.0595 26.1592 22.0606 26.4431 21.9759 26.8136C21.9294 27.1417 21.7899 27.3761 21.6041 27.6573C21.3718 27.9854 21.1394 28.3603 21.0465 28.9227C21.0035 29.3125 21.159 29.6222 21.2928 29.8889C21.3038 29.9108 21.3147 29.9324 21.3253 29.9538C21.4647 30.1881 21.5576 30.3756 21.5576 30.6569C21.5112 31.1253 21.3254 31.4533 21.1397 31.7813C21.1115 31.8381 21.0831 31.8934 21.0553 31.9476C20.9455 32.1614 20.8418 32.3635 20.7676 32.6253C20.6747 33.0003 20.6747 33.3752 20.7212 33.6563C20.5353 33.422 20.3494 33.0939 20.3959 32.6722C20.4423 32.2972 20.5353 32.016 20.6747 31.7817C20.686 31.7532 20.6979 31.7241 20.7102 31.6941C20.7994 31.477 20.9071 31.2149 20.9071 30.8443C20.9071 30.5162 20.7212 30.2819 20.5353 30.0475C20.5211 30.0303 20.5068 30.0133 20.4927 29.9963C20.2757 29.7364 20.0763 29.4976 20.1636 28.9695C20.1973 28.6968 20.305 28.4736 20.4148 28.2459C20.4559 28.1607 20.4973 28.0748 20.5353 27.9854C20.8117 27.4677 21.0881 26.9499 20.8799 26.0297C20.9044 26.0301 20.9289 26.0303 20.9535 26.0303C21.3229 26.0303 21.6817 25.9847 22.0247 25.8987Z" fill="#EAB85B" stroke="#EAB85B" stroke-width="2" mask="url(#path-2-inside-1_8728_7448)"/>
</svg>
