<svg width="36" height="26" viewBox="0 0 36 26" fill="none" xmlns="http://www.w3.org/2000/svg">
<path d="M17.3882 7.938C17.3882 8.24539 17.5202 8.69814 18.6619 9.07865C19.1468 9.24028 20.6223 9.73214 20.6223 11.1721C20.6223 12.1677 19.9322 13.0047 19.0053 13.2308V13.446C19.0053 13.7234 18.7805 13.9481 18.5031 13.9481C18.2258 13.9481 18.001 13.7234 18.001 13.446V13.2308C17.074 13.0047 16.3839 12.1677 16.3839 11.1721C16.3839 10.8948 16.6087 10.67 16.886 10.67C17.1634 10.67 17.3882 10.8948 17.3882 11.1721C17.3882 11.787 17.8884 12.2871 18.5031 12.2871C19.1179 12.2871 19.618 11.7869 19.618 11.1721C19.618 10.818 19.4667 10.4056 18.3443 10.0315C17.0434 9.59783 16.3839 8.89352 16.3839 7.938C16.3839 6.94251 17.074 6.10556 18.001 5.87939V5.66426C18.001 5.38686 18.2258 5.16209 18.5031 5.16209C18.7805 5.16209 19.0053 5.38686 19.0053 5.66426V5.87939C19.9322 6.10556 20.6223 6.94251 20.6223 7.938C20.6223 8.21539 20.3975 8.44016 20.1202 8.44016C19.8428 8.44016 19.618 8.21539 19.618 7.938C19.618 7.32321 19.1179 6.82312 18.5031 6.82312C17.8884 6.82312 17.3882 7.32321 17.3882 7.938ZM36 0.796599V18.3135C36 18.5909 35.7752 18.8157 35.4978 18.8157H34.9937V21.6883C34.9937 21.8301 34.9337 21.9654 34.8287 22.0606C34.7359 22.1445 34.6156 22.1905 34.4916 22.1905C34.4751 22.1905 34.4585 22.1897 34.4419 22.188L32.9812 22.043V25.2033C32.9812 25.355 32.9126 25.4986 32.7946 25.5939C32.7045 25.6667 32.5928 25.7054 32.4791 25.7054C32.4439 25.7054 32.4084 25.7017 32.3733 25.6942L0.402 18.8057C0.40113 18.8055 0.400327 18.8053 0.399456 18.8051L0.396443 18.8045C0.388877 18.8029 0.381646 18.8006 0.374214 18.7986C0.368523 18.7972 0.362698 18.7959 0.357073 18.7942C0.350177 18.7921 0.343481 18.7896 0.336652 18.7873C0.334175 18.7864 0.33163 18.7855 0.329153 18.7846C0.324131 18.7828 0.319043 18.7812 0.314088 18.7792C0.312883 18.7788 0.311745 18.7782 0.310539 18.7778C0.304446 18.7752 0.298487 18.7723 0.292528 18.7695C0.286234 18.7666 0.279874 18.764 0.273714 18.7609C0.272174 18.7601 0.270701 18.7591 0.269161 18.7583C0.26896 18.7582 0.268759 18.7581 0.268491 18.7579C0.2628 18.7549 0.25731 18.7517 0.251752 18.7485C0.246195 18.7453 0.240571 18.7423 0.235214 18.7389C0.23267 18.7373 0.23026 18.7355 0.227715 18.7338C0.222828 18.7307 0.218074 18.7273 0.21332 18.724C0.208566 18.7206 0.203678 18.7174 0.199059 18.7138C0.195845 18.7114 0.192765 18.7088 0.189618 18.7062C0.1854 18.7029 0.181248 18.6995 0.177164 18.696C0.173214 18.6926 0.169196 18.6892 0.165313 18.6858C0.161563 18.6824 0.158015 18.6788 0.154399 18.6753C0.150784 18.6718 0.147168 18.6685 0.143686 18.6649C0.140539 18.6616 0.13746 18.6584 0.13438 18.6551C0.130295 18.6507 0.126345 18.646 0.122395 18.6414C0.119315 18.6379 0.116101 18.6345 0.113155 18.6309C0.110744 18.628 0.108535 18.6249 0.106191 18.6219C0.102174 18.6167 0.0983575 18.6114 0.0945411 18.6061C0.0919298 18.6025 0.0890507 18.599 0.0865064 18.5953C0.0844978 18.5923 0.0827569 18.5891 0.0807483 18.5861C0.0771327 18.5805 0.0737179 18.5749 0.0703032 18.5691C0.0678928 18.565 0.0652816 18.561 0.0630051 18.5568C0.0609294 18.553 0.0589877 18.5492 0.0569791 18.5453C0.0543678 18.5404 0.0518905 18.5354 0.0494801 18.5303C0.0472036 18.5256 0.0449941 18.5208 0.0428515 18.5161C0.0408428 18.5116 0.0389011 18.507 0.0370264 18.5025C0.0352855 18.4983 0.0336786 18.4941 0.0320717 18.4898C0.029996 18.4842 0.0281213 18.4787 0.0262465 18.473C0.0245057 18.4679 0.0227649 18.4629 0.0212249 18.4577C0.0202205 18.4544 0.0192832 18.451 0.0183458 18.4477C0.016471 18.441 0.014998 18.4343 0.013458 18.4275C0.0121859 18.4221 0.0107129 18.4167 0.00964158 18.4112C0.00917289 18.4089 0.00877116 18.4065 0.00830247 18.4041C0.0067625 18.3956 0.00569121 18.3869 0.00461993 18.3782C0.00395037 18.3731 0.00301299 18.3682 0.00247735 18.363C0.00234344 18.3618 0.00227649 18.3605 0.00214257 18.3593C0.000803465 18.3443 0 18.329 0 18.3135V0.796599C0 0.519203 0.224836 0.294434 0.502166 0.294434H35.4978C35.7752 0.294434 36 0.519203 36 0.796599ZM30.2868 17.8114C30.5246 15.3246 32.5089 13.3404 34.9957 13.1025V6.00754C32.5089 5.76971 30.5246 3.78549 30.2868 1.2987H5.71317C5.47535 3.78556 3.49112 5.76978 1.00433 6.00754V13.1025C3.49112 13.3404 5.47535 15.3246 5.71317 17.8114H30.2868ZM4.70262 17.8114C4.47296 15.879 2.93667 14.3428 1.00433 14.1131V17.8114H4.70262ZM4.70262 1.29877H1.00433V4.99705C2.93667 4.76732 4.47296 3.2311 4.70262 1.29877ZM34.9957 1.29877H31.2974C31.527 3.2311 33.0633 4.76739 34.9957 4.99705V1.29877ZM31.9768 21.9433L9.2675 19.6884L31.9769 24.5814V21.9433H31.9768ZM33.9894 18.8157H10.6421L33.9894 21.1338V18.8157ZM34.9957 17.8114V14.1131C33.0633 14.3428 31.527 15.879 31.2974 17.8114H34.4903C34.4907 17.8114 34.4912 17.8113 34.4916 17.8113C34.492 17.8113 34.4924 17.8114 34.4928 17.8114H34.9957ZM23.2469 5.61264C23.02 5.77219 22.9654 6.08541 23.1249 6.31225C23.7945 7.26483 24.1485 8.38613 24.1485 9.55504C24.1485 12.6679 21.616 15.2004 18.5031 15.2004C15.3902 15.2004 12.8577 12.6679 12.8577 9.55504C12.8577 6.44221 15.3902 3.90969 18.5031 3.90969C19.6721 3.90969 20.7935 4.26369 21.7461 4.93344C21.973 5.09313 22.2863 5.03849 22.4457 4.81152C22.6052 4.58467 22.5507 4.27145 22.3238 4.1119C21.2012 3.32263 19.88 2.90536 18.5031 2.90536C14.8365 2.90536 11.8534 5.88843 11.8534 9.55504C11.8534 13.2217 14.8365 16.2047 18.5031 16.2047C22.1698 16.2047 25.1528 13.2217 25.1528 9.55504C25.1528 8.17823 24.7357 6.8572 23.9464 5.73463C23.7871 5.50778 23.4738 5.45328 23.2469 5.61264Z" fill="white"/>
</svg>
