<svg width="323" height="323" viewBox="0 0 323 323" fill="none" xmlns="http://www.w3.org/2000/svg">
<g opacity="0.25" clip-path="url(#clip0)">
<path d="M312 322.3C311.9 322.3 311.8 322.3 311.7 322.2C311.6 322 311.6 321.8 311.7 321.7C315.1 318.5 318.4 315.2 321.6 311.8C321.7 311.7 322 311.6 322.1 311.8C322.3 311.9 322.3 312.2 322.1 312.3C318.9 315.7 315.6 319 312.2 322.2C312.2 322.2 312.1 322.3 312 322.3Z" fill="#BD7B4F"/>
<path d="M321.9 10.5998C321.8 10.5998 321.7 10.5998 321.6 10.4998C318.4 7.09985 315.1 3.79985 311.7 0.599845C311.5 0.499845 311.5 0.199845 311.7 0.0998451C311.8 -0.000154942 312.1 -0.100155 312.2 0.0998451C315.6 3.29985 318.9 6.59985 322.1 9.99985C322.2 10.1998 322.2 10.3998 322.1 10.4998C322.1 10.5998 322 10.5998 321.9 10.5998Z" fill="#BD7B4F"/>
<path d="M10.2999 322.3C10.1999 322.3 10.0999 322.3 9.9999 322.2C6.5999 319 3.2999 315.7 0.0999023 312.3C-9.76548e-05 312.1 -9.76548e-05 311.9 0.0999023 311.8C0.199902 311.7 0.499902 311.7 0.599902 311.8C3.7999 315.2 7.0999 318.5 10.4999 321.7C10.6999 321.8 10.6999 322.1 10.4999 322.2C10.4999 322.2 10.3999 322.3 10.2999 322.3Z" fill="#BD7B4F"/>
<path d="M0.399902 10.5999C0.299902 10.5999 0.199902 10.5999 0.0999023 10.4999C-9.76548e-05 10.3999 -9.76548e-05 10.1999 0.0999023 9.9999C3.2999 6.5999 6.5999 3.2999 9.9999 0.0999023C10.0999 -9.76548e-05 10.3999 -9.76548e-05 10.4999 0.0999023C10.5999 0.299902 10.5999 0.499902 10.4999 0.599902C7.0999 3.7999 3.7999 7.0999 0.599902 10.4999C0.599902 10.5999 0.499902 10.5999 0.399902 10.5999Z" fill="#BD7B4F"/>
<path d="M321.9 22.7998C321.8 22.7998 321.7 22.7998 321.6 22.6998C314.8 14.7998 307.4 7.3998 299.6 0.699805C299.4 0.599805 299.4 0.299805 299.6 0.199805C299.7 -0.00019531 300 -0.00019531 300.1 0.199805C308 6.9998 315.4 14.3998 322.2 22.2998C322.3 22.4998 322.3 22.6998 322.2 22.7998C322.1 22.7998 322 22.7998 321.9 22.7998Z" fill="#BD7B4F"/>
<path d="M0.399805 22.7999C0.299805 22.7999 0.199805 22.7999 0.199805 22.6999C-0.00019531 22.5999 -0.00019531 22.2999 0.199805 22.1999C6.8998 14.3999 14.2998 6.8999 22.1998 0.0999023C22.3998 -9.76548e-05 22.5998 -9.76548e-05 22.6998 0.0999023C22.7998 0.299902 22.7998 0.499902 22.6998 0.599902C14.7998 7.3999 7.3998 14.7999 0.699805 22.5999C0.599805 22.7999 0.499805 22.7999 0.399805 22.7999Z" fill="#BD7B4F"/>
<path d="M22.5 322.3C22.4 322.3 22.3 322.3 22.3 322.2C14.4 315.4 7 308 0.2 300.1C0.1 299.9 0.1 299.7 0.2 299.6C0.4 299.5 0.6 299.5 0.7 299.6C7.5 307.5 14.9 314.9 22.7 321.6C22.9 321.7 22.9 322 22.7 322.1C22.7 322.2 22.6 322.3 22.5 322.3Z" fill="#BD7B4F"/>
<path d="M299.8 322.3C299.7 322.3 299.6 322.3 299.5 322.2C299.4 322 299.4 321.8 299.5 321.7C307.4 314.9 314.8 307.5 321.5 299.7C321.6 299.5 321.9 299.5 322 299.7C322.2 299.8 322.2 300.1 322 300.2C315.2 308.1 307.8 315.5 299.9 322.3C300 322.2 299.9 322.3 299.8 322.3Z" fill="#BD7B4F"/>
<path d="M35.2999 322.3C35.1999 322.3 35.0999 322.3 35.0999 322.2C22.0999 312 10.2999 300.2 0.0999023 287.2C-9.76548e-05 287 -9.76548e-05 286.8 0.0999023 286.7C0.299902 286.6 0.499902 286.6 0.599902 286.8C10.7999 299.8 22.4999 311.5 35.4999 321.7C35.6999 321.8 35.6999 322.1 35.5999 322.2C35.4999 322.2 35.3999 322.3 35.2999 322.3Z" fill="#BD7B4F"/>
<path d="M287 322.3C286.9 322.3 286.8 322.3 286.7 322.2C286.6 322 286.6 321.8 286.8 321.7C299.8 311.5 311.5 299.8 321.7 286.8C321.8 286.6 322.1 286.6 322.2 286.7C322.4 286.8 322.4 287.1 322.3 287.2C312.1 300.2 300.3 312 287.3 322.2C287.1 322.3 287 322.3 287 322.3Z" fill="#BD7B4F"/>
<path d="M0.399865 35.6999C0.299865 35.6999 0.199865 35.6999 0.199865 35.5999C-0.000134885 35.4999 -0.000134885 35.1999 0.0998651 35.0999C10.2999 22.0999 22.0999 10.2999 35.0999 0.0999023C35.1999 -9.76548e-05 35.4999 -9.76548e-05 35.5999 0.0999023C35.6999 0.299902 35.6999 0.499902 35.4999 0.599902C22.4999 10.7999 10.7999 22.4999 0.599865 35.4999C0.599865 35.5999 0.499865 35.6999 0.399865 35.6999Z" fill="#BD7B4F"/>
<path d="M321.9 35.6999C321.8 35.6999 321.7 35.6999 321.6 35.5999C311.4 22.5999 299.7 10.8999 286.7 0.699865C286.5 0.599865 286.5 0.299865 286.6 0.199865C286.7 -0.000134885 287 -0.000134885 287.1 0.0998651C300.1 10.2999 311.9 22.0999 322.1 35.0999C322.2 35.2999 322.2 35.4999 322 35.5999C322.1 35.6999 322 35.6999 321.9 35.6999Z" fill="#BD7B4F"/>
<path d="M0.399984 49.3999C0.299984 49.3999 0.299984 49.3999 0.199984 49.2999C-1.62125e-05 49.1999 -0.100016 48.9999 0.0999838 48.7999C13.4 29.7999 29.8 13.3999 48.9 0.0998651C49 -0.000134885 49.2 -0.000134885 49.3 0.199865C49.4 0.399865 49.4 0.599865 49.2 0.699865C30.2 13.9999 13.9 30.2999 0.599984 49.2999C0.599984 49.2999 0.499984 49.3999 0.399984 49.3999Z" fill="#BD7B4F"/>
<path d="M273.2 322.3C273.1 322.3 273 322.2 272.9 322.1C272.8 321.9 272.8 321.7 273 321.6C292 308.3 308.3 292 321.6 273C321.7 272.8 322 272.8 322.1 272.9C322.3 273 322.3 273.3 322.2 273.4C308.9 292.4 292.5 308.8 273.4 322.1C273.4 322.3 273.3 322.3 273.2 322.3Z" fill="#BD7B4F"/>
<path d="M321.9 49.3999C321.8 49.3999 321.7 49.2999 321.6 49.1999C308.3 30.2999 292 13.8999 273 0.699865C272.8 0.599865 272.8 0.299865 272.9 0.199865C273 -0.000134885 273.3 -0.000134885 273.4 0.0998651C292.4 13.3999 308.8 29.7999 322.1 48.8999C322.2 49.0999 322.2 49.2999 322 49.3999C322.1 49.3999 322 49.3999 321.9 49.3999Z" fill="#BD7B4F"/>
<path d="M48.9999 322.3C48.8999 322.3 48.8999 322.3 48.7999 322.2C29.7999 308.9 13.3999 292.5 0.0998651 273.4C-0.000134885 273.2 -0.000134885 273 0.199865 272.9C0.399865 272.8 0.599865 272.8 0.699865 273C13.9999 292 30.2999 308.3 49.2999 321.6C49.4999 321.7 49.4999 322 49.3999 322.1C49.2999 322.2 49.0999 322.3 48.9999 322.3Z" fill="#BD7B4F"/>
<path d="M321.9 64.3999C321.8 64.3999 321.7 64.2999 321.6 64.1999C305.9 38.2999 284 16.3999 258.1 0.699865C257.9 0.599865 257.9 0.399865 258 0.199865C258.1 -0.000134885 258.3 -0.000134885 258.5 0.0998651C284.5 15.7999 306.5 37.8999 322.2 63.7999C322.3 63.9999 322.2 64.1999 322.1 64.2999C322 64.2999 322 64.3999 321.9 64.3999Z" fill="#BD7B4F"/>
<path d="M258.3 322.3C258.2 322.3 258.1 322.2 258 322.1C257.9 321.9 258 321.7 258.1 321.6C284 305.9 305.9 284 321.6 258.1C321.7 257.9 321.9 257.9 322.1 258C322.3 258.1 322.3 258.3 322.2 258.5C306.5 284.5 284.4 306.5 258.5 322.2C258.4 322.3 258.4 322.3 258.3 322.3Z" fill="#BD7B4F"/>
<path d="M0.399984 64.4C0.299984 64.4 0.299984 64.4 0.199984 64.3C-1.62125e-05 64.2 -0.100016 64 0.0999838 63.8C15.8 37.8 37.9 15.8 63.8 0.0999838C64 -0.100016 64.2 -1.62125e-05 64.3 0.199984C64.4 0.399984 64.3 0.599984 64.2 0.699984C38.3 16.4 16.4 38.3 0.699984 64.2C0.599984 64.3 0.499984 64.4 0.399984 64.4Z" fill="#BD7B4F"/>
<path d="M64 322.3C63.9 322.3 63.9 322.3 63.8 322.2C37.8 306.5 15.8 284.4 0.100015 258.5C1.51061e-05 258.3 0.100015 258.1 0.200015 258C0.400015 257.9 0.600015 257.9 0.700015 258.1C16.4 284 38.3 305.9 64.2 321.6C64.4 321.7 64.4 321.9 64.3 322.1C64.2 322.2 64.1 322.3 64 322.3Z" fill="#BD7B4F"/>
<path d="M80.8999 322.3C80.7999 322.3 80.7999 322.3 80.6999 322.3C45.9999 304.9 17.3999 276.2 -7.61561e-05 241.6C-0.100076 241.4 -7.61598e-05 241.2 0.199924 241.1C0.399924 241 0.599924 241.1 0.699924 241.3C17.9999 275.8 46.4999 304.3 80.9999 321.6C81.1999 321.7 81.2999 321.9 81.1999 322.1C81.0999 322.2 80.9999 322.3 80.8999 322.3Z" fill="#BD7B4F"/>
<path d="M321.9 81.1999C321.8 81.1999 321.6 81.0999 321.6 80.9999C304.3 46.4999 275.8 17.9999 241.2 0.699924C241 0.599924 240.9 0.399924 241 0.199924C241.1 -7.61598e-05 241.3 -0.100076 241.5 -7.61561e-05C276.2 17.2999 304.8 45.9999 322.2 80.6999C322.3 80.8999 322.2 81.0999 322 81.1999C322 81.1999 322 81.1999 321.9 81.1999Z" fill="#BD7B4F"/>
<path d="M241.4 322.3C241.3 322.3 241.1 322.2 241.1 322.1C241 321.9 241.1 321.7 241.3 321.6C275.8 304.3 304.4 275.8 321.6 241.3C321.7 241.1 321.9 241 322.1 241.1C322.3 241.2 322.4 241.4 322.3 241.6C305 276.3 276.3 304.9 241.6 322.3C241.5 322.3 241.5 322.3 241.4 322.3Z" fill="#BD7B4F"/>
<path d="M0.399924 81.1999C0.299924 81.1999 0.299924 81.1999 0.199924 81.1999C-7.61598e-05 81.0999 -0.100076 80.8999 -7.61561e-05 80.6999C17.3999 45.9999 45.9999 17.3999 80.6999 -7.61561e-05C80.8999 -0.100076 81.0999 -7.61598e-05 81.1999 0.199924C81.2999 0.399924 81.1999 0.599924 80.9999 0.699924C46.4999 17.9999 17.9999 46.4999 0.699924 80.9999C0.599924 81.1999 0.499924 81.1999 0.399924 81.1999Z" fill="#BD7B4F"/>
<path d="M0.400021 101.7H0.300022C0.100022 101.6 2.14987e-05 101.4 0.100022 101.2C17.5 54.2999 54.3 17.4999 101.2 -7.61561e-05C101.4 -0.100076 101.6 -7.61598e-05 101.7 0.199924C101.8 0.399924 101.7 0.599924 101.5 0.699924C54.8 18.0999 18.1 54.7999 0.700022 101.5C0.700022 101.6 0.500021 101.7 0.400021 101.7Z" fill="#BD7B4F"/>
<path d="M101.3 322.3H101.2C54.2999 304.8 17.4999 267.9 -7.61561e-05 221.1C-0.100076 220.9 -7.61598e-05 220.7 0.199924 220.6C0.399924 220.5 0.599924 220.6 0.699924 220.8C18.0999 267.4 54.7999 304.2 101.4 321.5C101.6 321.6 101.7 321.8 101.6 322C101.6 322.2 101.5 322.3 101.3 322.3Z" fill="#BD7B4F"/>
<path d="M321.9 101.7C321.7 101.7 321.6 101.6 321.6 101.5C304.2 54.7999 267.5 18.0999 220.8 0.699924C220.6 0.599924 220.5 0.399924 220.6 0.199924C220.7 -7.61598e-05 220.9 -0.100076 221.1 -7.61561e-05C268 17.3999 304.8 54.2999 322.3 101.2C322.4 101.4 322.3 101.6 322.1 101.7C322 101.7 321.9 101.7 321.9 101.7Z" fill="#BD7B4F"/>
<path d="M221 322.3C220.8 322.3 220.7 322.2 220.7 322.1C220.6 321.9 220.7 321.7 220.9 321.6C267.5 304.2 304.3 267.5 321.6 220.9C321.7 220.7 321.9 220.6 322.1 220.7C322.3 220.8 322.4 221 322.3 221.2C304.9 268.1 268 304.9 221.1 322.4C221 322.3 221 322.3 221 322.3Z" fill="#BD7B4F"/>
<path d="M132.2 322.3C65.1 310.3 12 257.2 0 190.1C0 189.9 0.1 189.7 0.3 189.7C0.5 189.7 0.7 189.8 0.7 190C12.6 256.7 65.5 309.6 132.2 321.6C132.4 321.6 132.5 321.8 132.5 322C132.5 322.2 132.4 322.3 132.2 322.3Z" fill="#BD7B4F"/>
<path d="M0.4 132.6C0.4 132.6 0.3 132.6 0.4 132.6C0.1 132.6 0 132.4 0 132.2C12 65.1 65.1 12 132.2 0C132.4 0 132.6 0.1 132.6 0.3C132.6 0.5 132.5 0.7 132.3 0.7C65.5 12.7 12.7 65.5 0.7 132.3C0.7 132.5 0.6 132.6 0.4 132.6Z" fill="#BD7B4F"/>
<path d="M190 322.3C189.8 322.3 189.7 322.2 189.6 322C189.6 321.8 189.7 321.6 189.9 321.6C256.6 309.7 309.5 256.8 321.5 190.1C321.5 189.9 321.7 189.8 321.9 189.8C322.1 189.8 322.2 190 322.2 190.2C310.3 257.2 257.2 310.3 190 322.3C190.1 322.3 190.1 322.3 190 322.3Z" fill="#BD7B4F"/>
<path d="M321.9 132.6C321.7 132.6 321.6 132.5 321.5 132.3C309.6 65.5 256.8 12.7 190 0.7C189.8 0.7 189.7 0.5 189.7 0.3C189.7 0.1 189.9 0 190.1 0C257.2 12 310.3 65.1 322.2 132.2C322.3 132.4 322.2 132.6 321.9 132.6Z" fill="#BD7B4F"/>
<path d="M161.1 316.7C120.3 316.7 81.8999 301.1 52.5999 272.6C22.7999 243.6 6.09992 204.8 5.59992 163.2C4.49992 77.3999 73.2999 6.69992 159.1 5.59992V5.99992V5.59992C244.9 4.49992 315.5 73.2999 316.7 159.1C317.8 244.9 249 315.5 163.2 316.7C162.5 316.7 161.8 316.7 161.1 316.7ZM161.2 6.29992C160.5 6.29992 159.8 6.29992 159.1 6.29992C73.7999 7.49992 5.19992 77.7999 6.39992 163.2C6.89992 204.5 23.5999 243.2 53.1999 272.1C82.7999 300.9 121.9 316.5 163.2 316C248.5 314.9 317.1 244.5 315.9 159.2C314.8 74.3999 245.6 6.29992 161.2 6.29992Z" fill="#BD7B4F"/>
<path d="M161.1 308.5C80.8999 308.5 14.9999 243.9 13.7999 163.4C13.1999 124 27.8999 86.8 55.3999 58.5C82.7999 30.2 119.6 14.3 158.9 13.7V14.1V13.7C198.3 13.1 235.5 27.8 263.8 55.3C292.1 82.7 308 119.5 308.6 158.8C309.9 240.1 244.8 307.2 163.5 308.4C162.6 308.5 161.9 308.5 161.1 308.5ZM161.2 14.5C160.4 14.5 159.7 14.5 158.9 14.5C119.7 15.1 83.1999 30.9 55.8999 59C28.5999 87.1 13.9999 124.2 14.5999 163.3C15.7999 243.4 81.3999 307.7 161.2 307.7C162 307.7 162.7 307.7 163.5 307.7C244.3 306.5 309.1 239.7 307.9 158.8C307.3 119.6 291.5 83.1 263.4 55.8C235.7 29.1 199.5 14.5 161.2 14.5Z" fill="#BD7B4F"/>
<path d="M161.1 300.4C85.4999 300.4 23.2999 239.6 21.8999 163.7C20.5999 86.9 81.8999 23.3 158.6 21.9C235.4 20.5 298.9 81.8 300.3 158.6C301 195.8 287.1 231 261.3 257.8C235.5 284.6 200.8 299.7 163.6 300.3C162.8 300.4 161.9 300.4 161.1 300.4ZM161.2 22.7C160.4 22.7 159.5 22.7 158.7 22.7C82.3999 24.1 21.3999 87.3 22.6999 163.6C24.0999 239.9 87.2999 301 163.6 299.6C200.6 298.9 235.1 283.9 260.8 257.3C286.5 230.7 300.3 195.7 299.6 158.7C298.2 83.2 236.4 22.7 161.2 22.7Z" fill="#BD7B4F"/>
<path d="M161.1 292.2C90.0999 292.2 31.5999 235.2 30.0999 163.9C28.5999 91.5998 86.1999 31.5998 158.4 30.0998C193.4 29.3998 226.6 42.2998 251.9 66.4998C277.2 90.6998 291.5 123.4 292.2 158.4C292.9 193.4 280 226.6 255.8 251.9C231.6 277.2 198.9 291.5 163.9 292.2C162.9 292.2 162 292.2 161.1 292.2ZM161.2 30.7998C160.3 30.7998 159.3 30.7998 158.4 30.7998C86.5999 32.3998 29.3999 91.9998 30.8999 163.9C32.3999 234.8 90.4999 291.5 161.1 291.5C162 291.5 162.9 291.5 163.9 291.5C198.7 290.8 231.1 276.5 255.2 251.4C279.3 226.3 292.2 193.3 291.4 158.5C290.7 123.7 276.4 91.2998 251.3 67.1998C226.9 43.5998 195 30.7998 161.2 30.7998Z" fill="#BD7B4F"/>
<path d="M161.1 284C129.4 284 99.3999 272 76.3999 250.1C52.5999 227.5 39.0999 196.9 38.2999 164.1C36.5999 96.3 90.3999 39.9 158.2 38.3C191 37.5 222.2 49.5 245.9 72.2C269.7 94.8 283.2 125.4 284 158.2C284.8 191 272.8 222.2 250.1 245.9C227.5 269.7 196.9 283.2 164.1 284V283.6V284C163.1 284 162.1 284 161.1 284ZM161.2 39C160.2 39 159.2 39 158.2 39C90.8999 40.6 37.3999 96.7 38.9999 164.1C39.7999 196.7 53.1999 227.1 76.7999 249.6C100.4 272.1 131.4 284.1 164 283.3C196.6 282.5 227 269.1 249.5 245.5C272 221.9 284 190.9 283.2 158.3C282.4 125.7 269 95.3 245.4 72.8C222.5 50.9 192.7 39 161.2 39Z" fill="#BD7B4F"/>
<path d="M161.1 275.9C99.3 275.9 48.2 226.5 46.4 164.3C44.7 101.1 94.7 48.2 158 46.4C221.2 44.7 274.1 94.7 275.9 157.9C277.7 221.1 227.6 274 164.4 275.8C163.2 275.9 162.2 275.9 161.1 275.9ZM47.2 164.3C48.9 226.1 99.7 275.1 161.1 275.1C162.2 275.1 163.2 275.1 164.3 275.1C227.1 273.4 276.8 220.8 275.1 158C274.3 127.6 261.6 99.3 239.5 78.4C217.4 57.5 188.5 46.4 158 47.3C95.1 48.9 45.4 101.5 47.2 164.3Z" fill="#BD7B4F"/>
<path d="M161.1 267.7C103.9 267.7 56.4999 222.1 54.5999 164.5C52.6999 105.8 98.9999 56.5 157.7 54.6C186.2 53.7 213.3 63.9 234 83.4C254.8 102.9 266.7 129.3 267.6 157.7C268.5 186.2 258.3 213.3 238.8 234C219.3 254.8 192.9 266.7 164.5 267.6C163.4 267.7 162.2 267.7 161.1 267.7ZM55.3999 164.5C57.2999 222.8 106.3 268.8 164.6 266.9C192.9 266 219.1 254.1 238.4 233.5C257.7 212.9 267.9 186 267 157.7C266.1 129.4 254.2 103.2 233.6 83.9C213 64.6 186.1 54.4 157.8 55.3C99.3999 57.2 53.4999 106.2 55.3999 164.5Z" fill="#BD7B4F"/>
<path d="M161.1 259.6C108.5 259.6 64.7 217.8 62.8 164.8C60.8 110.6 103.3 64.7998 157.5 62.7998C183.8 61.7998 208.9 71.0998 228.1 88.9998C247.4 106.9 258.5 131.2 259.5 157.5C260.5 183.8 251.2 208.9 233.3 228.1C215.4 247.4 191.1 258.5 164.8 259.5C163.6 259.6 162.3 259.6 161.1 259.6ZM157.5 63.0998V63.4998C103.7 65.4998 61.5 110.9 63.5 164.7C65.5 218.5 110.9 260.7 164.7 258.7C190.8 257.7 214.9 246.7 232.7 227.6C250.5 208.5 259.7 183.6 258.7 157.5C257.7 131.4 246.7 107.3 227.6 89.4998C208.5 71.6998 183.6 62.4998 157.5 63.4998V63.0998Z" fill="#BD7B4F"/>
<path d="M161.1 251.4C113.1 251.4 72.9999 213.4 70.8999 165C68.7999 115.3 107.5 73.0998 157.2 70.8998C158.5 70.7998 159.8 70.7998 161.1 70.7998C209.1 70.7998 249.2 108.8 251.3 157.2C253.4 206.9 214.7 249.1 165 251.3C163.7 251.4 162.4 251.4 161.1 251.4ZM161.2 71.5998C159.9 71.5998 158.6 71.5998 157.3 71.6998C108 73.7998 69.5999 115.7 71.6999 165C73.7999 213 113.5 250.7 161.1 250.7C162.4 250.7 163.7 250.7 165 250.6C214.3 248.5 252.7 206.6 250.6 157.3C248.5 109.3 208.8 71.5998 161.2 71.5998Z" fill="#BD7B4F"/>
<path d="M161.1 243.3C117.7 243.3 81.2999 209.1 79.0999 165.3C76.7999 120 111.8 81.4 157 79.1C178.9 78 199.9 85.5 216.2 100.2C232.5 114.9 242 135.1 243.1 157C245.4 202.2 210.4 240.9 165.2 243.1C163.9 243.2 162.5 243.3 161.1 243.3ZM161.2 79.7C159.8 79.7 158.4 79.7 157 79.8C112.2 82 77.4999 120.3 79.7999 165.2C81.9999 208.6 118 242.5 161 242.5C162.4 242.5 163.7 242.5 165.1 242.4C209.9 240.2 244.6 201.9 242.3 157C241.2 135.3 231.7 115.3 215.6 100.7C200.7 87.1 181.4 79.7 161.2 79.7Z" fill="#BD7B4F"/>
<path d="M161.1 235.1C122.3 235.1 89.5999 204.7 87.2999 165.4C84.8999 124.7 116.1 89.5998 156.8 87.1998C176.5 86.0998 195.5 92.5998 210.3 105.8C225.1 118.9 233.8 137 235 156.8C236.2 176.5 229.6 195.5 216.4 210.3C203.3 225.1 185.2 233.8 165.4 235C164 235.1 162.5 235.1 161.1 235.1ZM161.2 87.8998C159.7 87.8998 158.3 87.8998 156.8 87.9998C116.5 90.3998 85.5999 125.1 87.9999 165.4C90.2999 204.3 122.6 234.4 161.1 234.4C162.5 234.4 164 234.4 165.4 234.3C184.9 233.2 202.8 224.5 215.8 209.9C228.8 195.3 235.3 176.5 234.2 156.9C233.1 137.4 224.4 119.5 209.8 106.5C196.3 94.3998 179.2 87.8998 161.2 87.8998Z" fill="#BD7B4F"/>
<path d="M161 227C145.1 227 130 221.3 117.9 210.8C104.6 199.3 96.6999 183.2 95.3999 165.7C94.1999 148.2 99.8999 131.2 111.4 117.9C122.9 104.6 139 96.6 156.5 95.4C192.7 92.9 224.2 120.3 226.8 156.5C228 174 222.3 191 210.8 204.3C199.3 217.6 183.2 225.6 165.7 226.8V226.4V226.8C164.1 226.9 162.6 227 161 227ZM161.2 96C159.7 96 158.2 96.1 156.6 96.2C139.3 97.4 123.4 105.3 112 118.4C100.6 131.5 94.9999 148.3 96.1999 165.7C97.3999 183.1 105.3 198.9 118.4 210.3C131.5 221.7 148.3 227.3 165.7 226.1C183 224.9 198.9 217 210.3 203.9C221.7 190.8 227.3 174 226.1 156.6C223.7 122.3 195.1 96 161.2 96Z" fill="#BD7B4F"/>
<path d="M161 218.9C147.4 218.9 134.3 214.1 123.8 205.2C112 195.2 104.8 181.3 103.6 165.9C102.3 150.5 107.1 135.6 117.1 123.8C127.1 112 141 104.8 156.4 103.6C171.8 102.3 186.7 107.1 198.5 117.1C210.3 127.1 217.5 141 218.7 156.4C220 171.8 215.2 186.7 205.2 198.5C195.2 210.3 181.3 217.5 165.9 218.7C164.3 218.8 162.7 218.9 161 218.9ZM104.3 165.9C105.6 181.1 112.7 194.8 124.3 204.7C135.9 214.5 150.7 219.2 165.8 218C181 216.7 194.7 209.6 204.6 198C214.4 186.4 219.2 171.6 217.9 156.5C216.6 141.3 209.5 127.6 197.9 117.7C186.3 107.8 171.5 103.2 156.4 104.4C141.2 105.7 127.5 112.8 117.6 124.4C107.8 135.9 103.1 150.7 104.3 165.9Z" fill="#BD7B4F"/>
<path d="M161 210.8C149.6 210.8 138.7 206.9 129.7 199.6C119.4 191.2 113 179.4 111.7 166.2C110.4 153 114.2 140.1 122.6 129.8C131 119.5 142.8 113.1 156 111.8C169.2 110.5 182.1 114.3 192.4 122.7C202.7 131.1 209.1 142.9 210.4 156.1C213.2 183.3 193.3 207.7 166.1 210.5C164.5 210.7 162.7 210.8 161 210.8ZM161.2 112.3C159.5 112.3 157.8 112.4 156.2 112.6C143.2 113.9 131.5 120.2 123.3 130.3C115.1 140.4 111.2 153.1 112.6 166.1C113.9 179.1 120.2 190.8 130.3 199C140.4 207.2 153.1 211.1 166.1 209.7C192.9 207 212.5 182.9 209.8 156.1C208.5 143.1 202.2 131.4 192.1 123.2C183.2 116.1 172.4 112.3 161.2 112.3Z" fill="#BD7B4F"/>
<path d="M161.1 202.7C152 202.7 143.1 199.7 135.8 194C127 187.2 121.4 177.4 120 166.4C118.6 155.4 121.6 144.5 128.3 135.7C135.1 126.9 144.9 121.3 155.9 119.9C166.9 118.5 177.8 121.5 186.6 128.2C195.4 135 201 144.8 202.4 155.8C203.8 166.8 200.8 177.7 194.1 186.5C187.3 195.3 177.5 200.9 166.5 202.3C164.6 202.6 162.8 202.7 161.1 202.7ZM161.2 120.3C159.5 120.3 157.7 120.4 155.9 120.6C145.1 122 135.5 127.5 128.8 136.1C122.1 144.7 119.2 155.4 120.6 166.2C122 177 127.5 186.6 136.1 193.3C144.7 200 155.4 202.9 166.2 201.5C177 200.1 186.6 194.6 193.3 186C200 177.4 202.9 166.7 201.5 155.9C200.1 145.1 194.6 135.5 186 128.8C178.9 123.3 170.2 120.3 161.2 120.3Z" fill="#BD7B4F"/>
<path d="M161.1 194.6C154.2 194.6 147.5 192.5 141.7 188.4C134.4 183.2 129.6 175.5 128.1 166.7C126.6 157.9 128.7 149 133.9 141.7C139.1 134.4 146.8 129.6 155.6 128.1C173.8 125.1 191.1 137.4 194.1 155.6C195.6 164.4 193.5 173.3 188.3 180.6C183.1 187.9 175.4 192.7 166.6 194.2C164.8 194.5 162.9 194.6 161.1 194.6ZM155.8 128.8C147.2 130.2 139.6 134.9 134.5 142.1C129.4 149.2 127.4 157.9 128.8 166.5C130.2 175.1 134.9 182.7 142.1 187.8C149.2 192.9 157.9 194.9 166.5 193.5C175.1 192.1 182.7 187.4 187.8 180.2C192.9 173.1 194.9 164.4 193.5 155.8C190.5 137.9 173.6 125.9 155.8 128.8Z" fill="#BD7B4F"/>
<path d="M161.1 186.7C156.4 186.7 151.7 185.4 147.6 182.8C141.8 179.2 137.8 173.5 136.2 166.9C134.7 160.3 135.8 153.4 139.4 147.6C143 141.8 148.7 137.8 155.3 136.2C161.9 134.7 168.8 135.8 174.6 139.4C180.4 143 184.4 148.7 186 155.3C187.5 161.9 186.4 168.8 182.8 174.6C179.2 180.4 173.5 184.4 166.9 186C165 186.4 163 186.7 161.1 186.7ZM161.2 136.4C159.3 136.4 157.4 136.6 155.6 137C149.2 138.5 143.7 142.4 140.2 148C136.7 153.6 135.6 160.3 137.1 166.7C138.6 173.1 142.5 178.6 148.1 182.1C153.7 185.6 160.4 186.7 166.8 185.2C173.2 183.7 178.7 179.8 182.2 174.2C185.7 168.6 186.8 161.9 185.3 155.5C183.8 149.1 179.9 143.6 174.3 140.1C170.3 137.6 165.8 136.4 161.2 136.4Z" fill="#BD7B4F"/>
<path d="M161.1 178.9C158.5 178.9 156 178.3 153.6 177.2C149.3 175.2 146.1 171.6 144.5 167.2C142.9 162.7 143.1 157.9 145.1 153.6C147.1 149.3 150.7 146.1 155.1 144.5C159.6 142.9 164.4 143.1 168.7 145.1C173 147.1 176.2 150.7 177.8 155.1C181.1 164.3 176.3 174.5 167.1 177.8C165.2 178.5 163.2 178.9 161.1 178.9ZM161.1 144.1C159.2 144.1 157.2 144.4 155.3 145.1C151 146.6 147.6 149.8 145.7 153.9C143.8 158 143.6 162.6 145.1 166.9C146.6 171.2 149.8 174.6 153.9 176.5C158 178.4 162.6 178.6 166.9 177.1C175.7 173.9 180.3 164.2 177.1 155.3C175.6 151 172.4 147.6 168.3 145.7C166.1 144.7 163.6 144.1 161.1 144.1Z" fill="#BD7B4F"/>
<path d="M161.2 171.7C158 171.7 154.8 170.2 152.7 167.5C151 165.2 150.3 162.5 150.7 159.7C151.1 156.9 152.6 154.4 154.8 152.7C159.5 149.2 166.1 150.1 169.6 154.8C171.3 157.1 172 159.8 171.6 162.6C171.2 165.4 169.7 167.9 167.5 169.6C165.6 171 163.4 171.7 161.2 171.7ZM161.1 151.3C159 151.3 157 151.9 155.2 153.3C153.1 154.9 151.7 157.2 151.4 159.8C151 162.4 151.7 165 153.3 167.1C156.6 171.4 162.7 172.3 167.1 169.1C169.2 167.5 170.6 165.2 170.9 162.6C171.3 160 170.6 157.4 169 155.3C167.1 152.7 164.1 151.3 161.1 151.3Z" fill="#BD7B4F"/>
<path d="M161.1 164.7C159.1 164.7 157.6 163.1 157.6 161.2C157.6 159.2 159.2 157.7 161.1 157.7C163.1 157.7 164.6 159.3 164.6 161.2C164.7 163.1 163.1 164.7 161.1 164.7ZM161.1 158.3C159.6 158.3 158.3 159.6 158.3 161.1C158.3 162.6 159.6 163.9 161.1 163.9C162.6 163.9 163.9 162.6 163.9 161.1C163.9 159.6 162.7 158.3 161.1 158.3Z" fill="#BD7B4F"/>
</g>
<defs>
<clipPath id="clip0">
<rect width="322.3" height="322.3" fill="white"/>
</clipPath>
</defs>
</svg>
