<svg width="275" height="275" viewBox="0 0 275 275" fill="none" xmlns="http://www.w3.org/2000/svg">
<g clip-path="url(#clip0)">
<path d="M219.612 275C219.259 275 218.906 274.647 218.906 274.294V248.188C218.906 241.132 215.908 234.429 210.792 229.314C205.677 224.375 198.974 221.729 191.742 221.729C177.101 221.905 165.282 233.9 165.282 248.364V274.294C165.282 274.647 164.929 275 164.577 275C164.224 275 163.871 274.647 163.871 274.294V248.364C163.871 233.018 176.219 220.494 191.565 220.317C198.974 220.141 206.03 223.14 211.498 228.255C216.79 233.547 219.788 240.426 219.965 248.011V274.118C220.141 274.647 219.965 275 219.612 275Z" fill="#BC7A4E"/>
<path d="M214.144 275C213.791 275 213.438 274.647 213.438 274.294V248.012C213.262 242.367 210.969 237.075 206.912 233.194C202.855 229.314 197.386 227.197 191.742 227.373C180.276 227.55 170.927 237.075 170.927 248.541V274.471C170.927 274.824 170.574 275.176 170.221 275.176C169.869 275.176 169.516 274.824 169.516 274.471V248.541C169.516 236.369 179.394 226.315 191.565 225.962C197.563 225.786 203.384 228.079 207.617 232.312C212.027 236.546 214.497 242.014 214.497 248.188V274.471C214.673 274.647 214.497 275 214.144 275Z" fill="#BC7A4E"/>
<path d="M208.675 275C208.323 275 207.97 274.647 207.97 274.294V248.364C207.97 248.188 207.97 248.012 207.97 247.835C207.617 239.192 200.385 232.312 191.565 232.665C183.098 233.018 176.395 239.897 176.395 248.364V274.294C176.395 274.647 176.042 275 175.689 275C175.337 275 174.984 274.647 174.984 274.294V248.364C174.984 239.192 182.216 231.607 191.389 231.254C200.738 230.901 208.675 238.31 209.028 247.659C209.028 247.835 209.028 248.012 209.028 248.364V274.294C209.205 274.647 209.028 275 208.675 275Z" fill="#BC7A4E"/>
<path d="M203.207 275C202.854 275 202.502 274.647 202.502 274.294V248.364C202.502 248.188 202.502 247.835 202.502 247.659C202.149 242.014 197.21 237.781 191.565 238.133C186.097 238.486 182.04 243.072 182.04 248.364V274.294C182.04 274.647 181.687 275 181.334 275C180.981 275 180.629 274.647 180.629 274.294V248.364C180.629 242.367 185.391 237.251 191.389 236.722C197.739 236.369 203.384 241.132 203.736 247.482C203.736 247.835 203.736 248.012 203.736 248.364V274.294C203.736 274.647 203.56 275 203.207 275Z" fill="#BC7A4E"/>
<path d="M197.739 275C197.386 275 197.033 274.647 197.033 274.294V248.364C197.033 248.188 197.033 247.835 197.033 247.482C196.857 246.248 196.151 245.013 195.093 244.307C194.035 243.602 192.8 243.249 191.389 243.425C189.096 243.778 187.332 245.895 187.332 248.188V274.118C187.332 274.471 186.979 274.824 186.626 274.824C186.273 274.824 185.92 274.471 185.92 274.118V248.188C185.92 245.189 188.037 242.543 191.036 242.014C192.623 241.661 194.387 242.19 195.622 243.072C197.033 243.954 197.915 245.542 198.092 247.13C198.092 247.482 198.092 247.835 198.092 248.188V274.118C198.444 274.647 198.092 275 197.739 275Z" fill="#BC7A4E"/>
<path d="M274.294 275C273.942 275 273.589 274.647 273.589 274.294V248.188C273.412 233.547 261.418 221.729 246.953 221.729C246.777 221.729 246.777 221.729 246.6 221.729C231.96 221.905 220.141 233.9 220.141 248.364V274.294C220.141 274.647 219.788 275 219.436 275C219.083 275 218.73 274.647 218.73 274.294V248.364C218.73 233.018 231.078 220.494 246.424 220.317C246.6 220.317 246.6 220.317 246.777 220.317C262.123 220.317 274.647 232.665 274.824 248.011V274.118C275 274.647 274.647 275 274.294 275Z" fill="#BC7A4E"/>
<path d="M268.826 275C268.473 275 268.121 274.647 268.121 274.294V248.011C267.944 236.369 258.419 227.197 246.953 227.197C246.777 227.197 246.6 227.197 246.424 227.197C234.958 227.373 225.609 236.898 225.609 248.364V274.294C225.609 274.647 225.257 275 224.904 275C224.551 275 224.198 274.647 224.198 274.294V248.364C224.198 236.193 234.076 226.138 246.248 225.786C252.245 225.609 258.066 227.902 262.3 232.136C266.709 236.369 269.179 241.838 269.179 248.011V274.294C269.532 274.647 269.179 275 268.826 275Z" fill="#BC7A4E"/>
<path d="M263.358 275C263.005 275 262.652 274.647 262.652 274.294V247.835C262.3 239.192 255.067 232.312 246.248 232.665C237.781 233.018 231.078 239.897 231.078 248.364V274.294C231.078 274.647 230.725 275 230.372 275C230.019 275 229.667 274.647 229.667 274.294V248.364C229.667 239.192 236.899 231.607 246.071 231.254C255.42 230.901 263.358 238.31 263.711 247.659C263.711 247.835 263.711 248.011 263.711 248.188V274.118C264.064 274.647 263.711 275 263.358 275Z" fill="#BC7A4E"/>
<path d="M257.89 275C257.537 275 257.184 274.647 257.184 274.294V248.364C257.184 248.188 257.184 247.835 257.184 247.658C256.831 242.014 251.892 237.78 246.248 238.133C240.779 238.486 236.722 243.072 236.722 248.364V274.294C236.722 274.647 236.369 275 236.017 275C235.664 275 235.311 274.647 235.311 274.294V248.364C235.311 242.367 240.074 237.251 246.071 236.722C252.421 236.369 258.066 241.132 258.419 247.482C258.419 247.835 258.419 248.011 258.419 248.364V274.294C258.595 274.647 258.242 275 257.89 275Z" fill="#BC7A4E"/>
<path d="M252.422 275C252.069 275 251.716 274.647 251.716 274.294V248.364C251.716 248.188 251.716 247.835 251.716 247.482C251.54 246.248 250.834 245.013 249.776 244.307C248.717 243.602 247.482 243.249 246.071 243.425C243.778 243.778 242.014 245.895 242.014 248.188V274.118C242.014 274.471 241.661 274.824 241.309 274.824C240.956 274.824 240.603 274.471 240.603 274.118V248.188C240.603 245.189 242.72 242.543 245.719 242.014C247.306 241.661 249.07 242.19 250.305 243.072C251.716 243.954 252.598 245.542 252.774 247.13C252.774 247.482 252.774 247.835 252.774 248.188V274.118C253.127 274.647 252.774 275 252.422 275Z" fill="#BC7A4E"/>
<path d="M164.753 275C164.4 275 164.047 274.647 164.047 274.294V248.188C164.047 241.132 161.049 234.429 155.933 229.314C150.818 224.375 144.115 221.729 136.883 221.729C122.242 221.905 110.423 233.9 110.423 248.364V274.294C110.423 274.647 110.071 275 109.718 275C109.365 275 109.012 274.647 109.012 274.294V248.364C109.012 233.018 121.36 220.494 136.706 220.317C144.115 220.141 151.171 223.14 156.639 228.255C161.931 233.547 164.929 240.426 165.106 248.011V274.118C165.459 274.647 165.106 275 164.753 275Z" fill="#BC7A4E"/>
<path d="M159.285 275C158.932 275 158.579 274.647 158.579 274.294V248.012C158.403 242.367 156.11 237.075 152.052 233.194C147.995 229.314 142.527 227.197 136.883 227.373C125.417 227.55 116.068 237.075 116.068 248.541V274.471C116.068 274.824 115.715 275.176 115.362 275.176C115.01 275.176 114.657 274.824 114.657 274.471V248.541C114.657 236.369 124.535 226.315 136.706 225.962C149.23 225.609 159.461 235.664 159.637 248.012V274.294C159.99 274.647 159.637 275 159.285 275Z" fill="#BC7A4E"/>
<path d="M153.816 275C153.464 275 153.111 274.647 153.111 274.294V248.364C153.111 248.188 153.111 248.012 153.111 247.835C152.758 239.192 145.526 232.312 136.706 232.665C128.239 233.018 121.536 239.897 121.536 248.364V274.294C121.536 274.647 121.183 275 120.831 275C120.478 275 120.125 274.647 120.125 274.294V248.364C120.125 239.192 127.357 231.607 136.53 231.254C145.879 230.901 153.816 238.31 154.169 247.659C154.169 247.835 154.169 248.012 154.169 248.364V274.294C154.522 274.647 154.169 275 153.816 275Z" fill="#BC7A4E"/>
<path d="M148.348 275C147.996 275 147.643 274.647 147.643 274.294V248.364C147.643 248.188 147.643 247.835 147.643 247.659C147.29 242.014 142.351 237.781 136.706 238.133C131.238 238.486 127.181 243.072 127.181 248.364V274.294C127.181 274.647 126.828 275 126.475 275C126.123 275 125.77 274.647 125.77 274.294V248.364C125.77 242.367 130.532 237.251 136.53 236.722C142.88 236.369 148.525 241.132 148.878 247.482C148.878 247.835 148.878 248.012 148.878 248.364V274.294C149.054 274.647 148.878 275 148.348 275Z" fill="#BC7A4E"/>
<path d="M143.057 275C142.704 275 142.351 274.647 142.351 274.294V248.364C142.351 248.188 142.351 247.835 142.351 247.482C142.175 246.248 141.469 245.013 140.411 244.307C139.352 243.602 138.117 243.249 136.706 243.425C134.413 243.778 132.649 245.895 132.649 248.188V274.118C132.649 274.471 132.296 274.824 131.944 274.824C131.591 274.824 131.238 274.471 131.238 274.118V248.188C131.238 245.189 133.355 242.543 136.353 242.014C137.941 241.661 139.705 242.19 140.94 243.072C142.351 243.954 143.233 245.542 143.409 247.13C143.409 247.482 143.409 247.835 143.409 248.188V274.118C143.586 274.647 143.409 275 143.057 275Z" fill="#BC7A4E"/>
<path d="M110.07 275C109.718 275 109.365 274.647 109.365 274.294V248.188C109.365 241.132 106.366 234.429 101.251 229.314C96.1352 224.375 89.4322 221.729 82.2 221.729C67.5592 221.905 55.7408 233.9 55.7408 248.364V274.294C55.7408 274.647 55.388 275 55.0352 275C54.6824 275 54.3296 274.647 54.3296 274.294V248.364C54.3296 233.018 66.6772 220.494 82.0236 220.317C89.4322 220.141 96.488 223.14 101.956 228.255C107.248 233.547 110.247 240.426 110.423 248.011V274.118C110.776 274.647 110.423 275 110.07 275Z" fill="#BC7A4E"/>
<path d="M104.602 275C104.249 275 103.897 274.647 103.897 274.294V248.012C103.72 236.369 93.842 227.021 82.1999 227.197C70.7342 227.373 61.3853 236.899 61.3853 248.364V274.294C61.3853 274.647 61.0325 275 60.6797 275C60.3269 275 59.9741 274.647 59.9741 274.294V248.364C59.9741 236.193 69.8522 226.139 82.0235 225.786C94.5476 225.609 104.778 235.488 104.955 247.835V248.364V274.294C105.308 274.647 104.955 275 104.602 275Z" fill="#BC7A4E"/>
<path d="M99.1339 275C98.7811 275 98.4283 274.647 98.4283 274.294V248.364C98.4283 248.188 98.4283 248.011 98.4283 247.835C98.2519 243.602 96.4879 239.721 93.3128 236.899C90.1377 234.076 86.257 232.489 82.0235 232.665C73.5566 233.018 66.8535 239.897 66.8535 248.364V274.294C66.8535 274.647 66.5008 275 66.148 275C65.7952 275 65.4424 274.647 65.4424 274.294V248.364C65.4424 239.192 72.6746 231.607 81.8471 231.254C86.4334 231.078 90.8433 232.665 94.0184 235.84C97.3699 239.015 99.3102 243.249 99.4866 247.659C99.4866 247.835 99.4866 248.011 99.4866 248.364V274.294C99.8394 274.647 99.4866 275 99.1339 275Z" fill="#BC7A4E"/>
<path d="M93.6657 275C93.3129 275 92.9602 274.647 92.9602 274.294V248.364C92.9602 248.188 92.9602 247.835 92.9602 247.659C92.6074 242.014 87.6683 237.781 82.0237 238.133C76.5554 238.486 72.4983 243.072 72.4983 248.364V274.294C72.4983 274.647 72.1455 275 71.7927 275C71.44 275 71.0872 274.647 71.0872 274.294V248.364C71.0872 242.367 75.8498 237.251 81.8473 236.722C88.1975 236.369 93.8421 241.132 94.1949 247.482C94.1949 247.835 94.1949 248.012 94.1949 248.364V274.294C94.3713 274.647 94.0185 275 93.6657 275Z" fill="#BC7A4E"/>
<path d="M88.1974 275C87.8446 275 87.4918 274.647 87.4918 274.294V248.364C87.4918 248.188 87.4918 247.835 87.4918 247.482C87.3154 246.248 86.6098 245.013 85.5515 244.307C84.4931 243.602 83.2583 243.249 81.8472 243.425C79.554 243.778 77.7901 245.895 77.7901 248.188V274.118C77.7901 274.471 77.4373 274.824 77.0845 274.824C76.7317 274.824 76.3789 274.471 76.3789 274.118V248.188C76.3789 245.189 78.4957 242.543 81.4944 242.014C83.0819 241.661 84.8459 242.19 86.0806 243.072C87.4918 243.954 88.3738 245.542 88.5502 247.13C88.5502 247.482 88.5502 247.835 88.5502 248.188V274.118C88.903 274.647 88.7266 275 88.1974 275Z" fill="#BC7A4E"/>
<path d="M55.3881 275C55.0353 275 54.6825 274.647 54.6825 274.294V248.188C54.6825 241.132 51.6838 234.429 46.5683 229.314C41.4529 224.374 34.7498 221.729 27.5176 221.729C12.8769 221.905 1.05838 233.9 1.05838 248.364V274.294C1.05838 274.647 0.705588 275 0.352797 275C7.03335e-06 275 -0.352783 274.647 -0.352783 274.294V248.364C-0.352783 233.018 11.9949 220.494 27.3412 220.317C34.7498 220.317 41.982 223.14 47.2739 228.255C52.5658 233.547 55.5645 240.426 55.7409 248.011V274.118C56.0937 274.647 55.7409 275 55.3881 275Z" fill="#BC7A4E"/>
<path d="M49.92 275C49.5672 275 49.2144 274.647 49.2144 274.294V248.011C49.038 236.369 39.5126 227.197 28.047 227.197C27.8706 227.197 27.6942 227.197 27.5178 227.197C16.0521 227.373 6.70315 236.899 6.70315 248.364V274.294C6.70315 274.647 6.35036 275 5.99757 275C5.64478 275 5.29199 274.647 5.29199 274.294V248.364C5.29199 236.193 15.1701 226.138 27.3414 225.786C27.5178 225.786 27.6942 225.786 27.8706 225.786C40.0418 225.786 50.0964 235.664 50.4491 247.835V274.118C50.6255 274.647 50.2728 275 49.92 275Z" fill="#BC7A4E"/>
<path d="M44.4515 275C44.0987 275 43.7459 274.647 43.7459 274.294V248.364C43.7459 248.188 43.7459 248.011 43.7459 247.835C43.5695 243.602 41.8056 239.721 38.6304 236.899C35.4553 234.076 31.5746 232.489 27.3412 232.665C18.8742 233.018 12.1712 239.897 12.1712 248.364V274.294C12.1712 274.647 11.8184 275 11.4656 275C11.1128 275 10.76 274.647 10.76 274.294V248.364C10.76 239.192 17.9922 231.607 27.1648 231.254C31.751 231.078 36.1609 232.665 39.336 235.84C42.6875 239.015 44.6279 243.249 44.8043 247.659C44.8043 247.835 44.8043 248.012 44.8043 248.364V274.294C45.1571 274.647 44.8043 275 44.4515 275Z" fill="#BC7A4E"/>
<path d="M38.9834 275C38.6306 275 38.2778 274.647 38.2778 274.294V248.364C38.2778 248.188 38.2778 247.835 38.2778 247.659C38.1014 244.836 36.8666 242.367 34.7499 240.603C32.6331 238.839 29.9872 237.957 27.3413 238.133C21.873 238.486 17.8159 243.072 17.8159 248.364V274.294C17.8159 274.647 17.4632 275 17.1104 275C16.7576 275 16.4048 274.647 16.4048 274.294V248.364C16.4048 242.367 21.1675 237.251 27.1649 236.722C30.1636 236.546 33.3387 237.428 35.6319 239.544C37.925 241.661 39.3362 244.484 39.5125 247.482C39.5125 247.835 39.5125 248.011 39.5125 248.364V274.294C39.6889 274.647 39.3362 275 38.9834 275Z" fill="#BC7A4E"/>
<path d="M33.515 275C33.1622 275 32.8094 274.647 32.8094 274.294V248.364C32.8094 248.188 32.8094 247.835 32.8094 247.482C32.633 246.248 31.9274 245.013 30.8691 244.307C29.8107 243.602 28.5759 243.249 27.1648 243.425C24.8716 243.778 23.1077 245.895 23.1077 248.188V274.118C23.1077 274.471 22.7549 274.824 22.4021 274.824C22.0493 274.824 21.6965 274.471 21.6965 274.118V248.188C21.6965 245.189 23.8133 242.543 26.812 242.014C28.3995 241.661 30.1635 242.19 31.3983 243.072C32.8094 243.954 33.6914 245.542 33.8678 247.13C33.8678 247.482 33.8678 247.835 33.8678 248.188V274.118C34.2206 274.647 33.8678 275 33.515 275Z" fill="#BC7A4E"/>
<path d="M55.3881 275C55.0353 275 54.6825 274.647 54.6825 274.294V195.269C54.6825 188.214 51.6838 181.511 46.5683 176.395C41.4529 171.456 34.7498 168.81 27.5176 168.81C12.8769 168.986 1.05838 180.981 1.05838 195.446V221.376C1.05838 221.729 0.705588 222.081 0.352797 222.081C7.03335e-06 222.081 -0.352783 221.729 -0.352783 221.376V195.446C-0.352783 180.099 11.9949 167.575 27.3412 167.399C34.7498 167.399 41.982 170.221 47.2739 175.337C52.5658 180.629 55.5645 187.508 55.7409 195.093V274.118C56.0937 274.647 55.7409 275 55.3881 275Z" fill="#BC7A4E"/>
<path d="M49.92 232.665C49.5672 232.665 49.2144 232.312 49.2144 231.96V195.093C49.038 183.451 39.5126 174.278 28.047 174.278C27.8706 174.278 27.6942 174.278 27.5178 174.278C16.0521 174.455 6.70315 183.98 6.70315 195.446V231.783C6.70315 232.136 6.35036 232.489 5.99757 232.489C5.64478 232.489 5.29199 232.136 5.29199 231.783V195.446C5.29199 183.275 15.1701 173.22 27.3414 172.867C27.5178 172.867 27.6942 172.867 27.8706 172.867C40.0418 172.867 50.0964 182.745 50.4491 194.917V231.783C50.6255 232.312 50.2728 232.665 49.92 232.665Z" fill="#BC7A4E"/>
<path d="M11.6421 226.844C11.2893 226.844 10.9365 226.491 10.9365 226.139V195.446C10.9365 186.273 18.1687 178.688 27.3413 178.336C31.9275 178.159 36.3374 179.747 39.5125 182.922C42.864 186.097 44.8044 190.33 44.9808 194.74C44.9808 194.917 44.9808 195.093 44.9808 195.446V225.962C44.9808 226.315 44.628 226.668 44.2752 226.668C43.9224 226.668 43.5696 226.315 43.5696 225.962V195.446C43.5696 195.269 43.5696 195.093 43.5696 194.917C43.3932 190.683 41.6293 186.802 38.4542 183.98C35.2791 181.158 31.3984 179.57 27.1649 179.747C18.6979 180.099 11.9949 186.979 11.9949 195.446V226.139C12.1713 226.668 11.9949 226.844 11.6421 226.844Z" fill="#BC7A4E"/>
<path d="M38.9834 223.845C38.6306 223.845 38.2778 223.493 38.2778 223.14V195.446C38.2778 195.269 38.2778 194.917 38.2778 194.74C38.1014 191.918 36.8666 189.448 34.7499 187.684C32.6331 185.92 29.9872 185.038 27.3413 185.215C21.873 185.568 17.8159 190.154 17.8159 195.446V222.963C17.8159 223.316 17.4632 223.669 17.1104 223.669C16.7576 223.669 16.4048 223.316 16.4048 222.963V195.446C16.4048 189.448 21.1675 184.333 27.1649 183.804C30.1636 183.627 33.3387 184.509 35.6319 186.626C37.925 188.743 39.3362 191.565 39.5125 194.564C39.5125 194.917 39.5125 195.093 39.5125 195.446V223.14C39.6889 223.493 39.3362 223.845 38.9834 223.845Z" fill="#BC7A4E"/>
<path d="M33.515 222.082C33.1622 222.082 32.8094 221.729 32.8094 221.376V195.446C32.8094 195.269 32.8094 194.917 32.8094 194.564C32.633 193.329 31.9274 192.094 30.8691 191.389C29.8107 190.683 28.5759 190.33 27.1648 190.507C24.8716 190.86 23.1077 192.976 23.1077 195.269V221.2C23.1077 221.552 22.7549 221.905 22.4021 221.905C22.0493 221.905 21.6965 221.552 21.6965 221.2V195.269C21.6965 192.271 23.8133 189.625 26.812 189.096C28.3995 188.743 30.1635 189.272 31.3983 190.154C32.8094 191.036 33.6914 192.624 33.8678 194.211C33.8678 194.564 33.8678 194.917 33.8678 195.269V221.2C34.2206 221.729 33.8678 222.082 33.515 222.082Z" fill="#BC7A4E"/>
<path d="M110.071 274.647C109.718 274.647 109.365 274.295 109.365 273.942V195.093L110.071 194.74H109.365C109.189 180.1 97.1937 168.281 82.7293 168.281C82.5529 168.281 82.5529 168.281 82.3765 168.281C67.7357 168.457 55.9173 180.452 55.9173 194.917V220.847C55.9173 221.2 55.5645 221.552 55.2117 221.552C54.8589 221.552 54.5061 221.2 54.5061 220.847V194.917C54.5061 179.57 66.8538 167.046 82.2001 166.87C82.3765 166.87 82.3765 166.87 82.5529 166.87C97.8993 166.87 110.423 179.218 110.6 194.564V194.74V273.589C110.776 274.295 110.423 274.647 110.071 274.647Z" fill="#BC7A4E"/>
<path d="M104.602 232.312C104.25 232.312 103.897 231.96 103.897 231.607V194.74C103.72 189.096 101.427 183.804 97.3701 179.923C93.313 176.042 87.8448 173.926 82.2002 174.102C70.7345 174.278 61.3855 183.804 61.3855 195.269V231.607C61.3855 231.96 61.0327 232.312 60.6799 232.312C60.3272 232.312 59.9744 231.96 59.9744 231.607V195.269C59.9744 183.098 69.8525 173.044 82.0238 172.691C88.0212 172.514 93.8422 174.808 98.0757 179.041C102.486 183.275 104.955 188.743 104.955 194.917V231.783C105.308 231.96 104.955 232.312 104.602 232.312Z" fill="#BC7A4E"/>
<path d="M99.1341 226.844C98.7813 226.844 98.4285 226.491 98.4285 226.139V195.093C98.4285 194.917 98.4285 194.74 98.4285 194.564C98.2521 190.33 96.4882 186.45 93.3131 183.627C90.1379 180.805 86.2573 179.217 82.0238 179.394C73.5568 179.747 66.8538 186.626 66.8538 195.093V225.786C66.8538 226.139 66.501 226.491 66.1482 226.491C65.7954 226.491 65.4426 226.139 65.4426 225.786V195.093C65.4426 185.921 72.6748 178.336 81.8474 177.983C86.4337 177.806 90.8435 179.394 94.0186 182.569C97.3701 185.744 99.3105 189.978 99.4869 194.387C99.4869 194.564 99.4869 194.74 99.4869 195.093V226.139C99.8397 226.668 99.4869 226.844 99.1341 226.844Z" fill="#BC7A4E"/>
<path d="M93.6657 223.493C93.3129 223.493 92.9602 223.14 92.9602 222.787V195.093C92.9602 194.917 92.9602 194.564 92.9602 194.388C92.7838 191.565 91.549 189.096 89.4323 187.332C87.3155 185.568 84.6696 184.686 82.0237 184.862C76.5554 185.215 72.4983 189.801 72.4983 195.093V222.611C72.4983 222.964 72.1455 223.316 71.7927 223.316C71.44 223.316 71.0872 222.964 71.0872 222.611V195.093C71.0872 189.096 75.8498 183.98 81.8473 183.451C84.846 183.275 88.0211 184.157 90.3142 186.273C92.6074 188.39 94.0185 191.213 94.1949 194.211C94.1949 194.564 94.1949 194.74 94.1949 195.093V222.787C94.3713 223.14 94.0185 223.493 93.6657 223.493Z" fill="#BC7A4E"/>
<path d="M88.1976 221.729C87.8448 221.729 87.492 221.376 87.492 221.023V195.093C87.492 194.74 87.492 194.564 87.492 194.211C86.9629 191.565 84.4933 189.801 81.8474 190.154C79.5543 190.507 77.7903 192.624 77.7903 194.917V220.847C77.7903 221.2 77.4375 221.552 77.0847 221.552C76.7319 221.552 76.3792 221.2 76.3792 220.847V194.917C76.3792 191.918 78.4959 189.272 81.4946 188.743C84.8461 188.214 88.0212 190.507 88.5504 193.858C88.5504 194.211 88.5504 194.564 88.5504 194.917V220.847C88.9032 221.376 88.7268 221.729 88.1976 221.729Z" fill="#BC7A4E"/>
<path d="M164.753 275C164.4 275 164.047 274.647 164.047 274.295V195.446L164.753 195.093H164.047C163.871 180.452 151.876 168.634 137.412 168.634C137.235 168.634 137.235 168.634 137.059 168.634C122.418 168.81 110.6 180.805 110.6 195.269V221.2C110.6 221.552 110.247 221.905 109.894 221.905C109.541 221.905 109.188 221.552 109.188 221.2V195.269C109.188 179.923 121.536 167.399 136.883 167.223C137.059 167.223 137.059 167.223 137.235 167.223C152.582 167.223 165.106 179.57 165.282 194.917V195.093V273.942C165.459 274.647 165.106 275 164.753 275Z" fill="#BC7A4E"/>
<path d="M159.285 232.665C158.932 232.665 158.579 232.312 158.579 231.96V195.093C158.403 189.448 156.11 184.157 152.052 180.276C147.995 176.395 142.527 174.278 136.883 174.455C125.417 174.631 116.068 184.157 116.068 195.622V231.96C116.068 232.312 115.715 232.665 115.362 232.665C115.01 232.665 114.657 232.312 114.657 231.96V195.622C114.657 183.451 124.535 173.396 136.706 173.044C142.704 172.867 148.525 175.16 152.758 179.394C157.168 183.627 159.637 189.096 159.637 195.269V232.136C159.99 232.312 159.637 232.665 159.285 232.665Z" fill="#BC7A4E"/>
<path d="M121.007 226.844C120.654 226.844 120.301 226.491 120.301 226.139V195.446C120.301 186.273 127.533 178.688 136.706 178.336C141.292 178.159 145.702 179.747 148.877 182.922C152.229 186.097 154.169 190.33 154.346 194.74C154.346 194.917 154.346 195.093 154.346 195.269V225.786C154.346 226.139 153.993 226.491 153.64 226.491C153.287 226.491 152.934 226.139 152.934 225.786V195.269C152.934 195.093 152.934 194.917 152.934 194.74C152.758 190.507 150.994 186.626 147.819 183.804C144.644 180.981 140.763 179.394 136.53 179.57C128.063 179.923 121.36 186.802 121.36 195.269V225.962C121.712 226.668 121.36 226.844 121.007 226.844Z" fill="#BC7A4E"/>
<path d="M148.348 223.845C147.995 223.845 147.643 223.493 147.643 223.14V195.446C147.643 195.269 147.643 194.917 147.643 194.74C147.466 191.918 146.231 189.448 144.115 187.684C141.998 185.92 139.352 185.038 136.706 185.215C131.238 185.568 127.181 190.154 127.181 195.446V222.963C127.181 223.316 126.828 223.669 126.475 223.669C126.122 223.669 125.77 223.316 125.77 222.963V195.446C125.77 189.448 130.532 184.333 136.53 183.804C139.528 183.627 142.703 184.509 144.997 186.626C147.29 188.743 148.701 191.565 148.877 194.564C148.877 194.917 148.877 195.093 148.877 195.446V223.14C149.054 223.493 148.877 223.845 148.348 223.845Z" fill="#BC7A4E"/>
<path d="M143.056 222.082C142.703 222.082 142.351 221.729 142.351 221.376V195.446C142.351 195.093 142.351 194.917 142.351 194.564C141.821 191.918 139.352 190.154 136.706 190.507C134.413 190.86 132.649 192.976 132.649 195.27V221.2C132.649 221.552 132.296 221.905 131.943 221.905C131.591 221.905 131.238 221.552 131.238 221.2V195.27C131.238 192.271 133.355 189.625 136.353 189.096C139.705 188.567 142.88 190.86 143.409 194.211C143.409 194.564 143.409 194.917 143.409 195.27V221.2C143.585 221.729 143.409 222.082 143.056 222.082Z" fill="#BC7A4E"/>
<path d="M219.612 274.647C219.259 274.647 218.906 274.294 218.906 273.942V194.917C218.73 180.276 206.735 168.457 192.271 168.457C192.094 168.457 192.094 168.457 191.918 168.457C177.277 168.634 165.459 180.629 165.459 195.093V221.023C165.459 221.376 165.106 221.729 164.753 221.729C164.4 221.729 164.047 221.376 164.047 221.023V195.093C164.047 179.747 176.395 167.223 191.741 167.046C191.918 167.046 191.918 167.046 192.094 167.046C207.441 167.046 219.965 179.394 220.141 194.74V273.765C220.141 274.294 219.965 274.647 219.612 274.647Z" fill="#BC7A4E"/>
<path d="M214.144 232.312C213.791 232.312 213.438 231.96 213.438 231.607V194.74C213.262 189.096 210.969 183.804 206.911 179.923C202.854 176.042 197.386 173.926 191.741 174.102C180.276 174.278 170.927 183.804 170.927 195.269V231.607C170.927 231.96 170.574 232.312 170.221 232.312C169.868 232.312 169.516 231.96 169.516 231.607V195.269C169.516 183.098 179.394 173.044 191.565 172.691C197.562 172.514 203.383 174.808 207.617 179.041C212.027 183.275 214.496 188.743 214.496 194.917V231.783C214.673 231.96 214.496 232.312 214.144 232.312Z" fill="#BC7A4E"/>
<path d="M208.675 226.844C208.323 226.844 207.97 226.491 207.97 226.138V195.093C207.97 194.916 207.97 194.74 207.97 194.564C207.617 185.92 200.385 179.041 191.565 179.394C183.098 179.746 176.395 186.626 176.395 195.093V225.786C176.395 226.138 176.042 226.491 175.689 226.491C175.337 226.491 174.984 226.138 174.984 225.786V195.093C174.984 185.92 182.216 178.335 191.389 177.983C200.914 177.63 208.675 185.038 209.028 194.387C209.028 194.564 209.028 194.74 209.028 194.916V226.138C209.205 226.668 209.028 226.844 208.675 226.844Z" fill="#BC7A4E"/>
<path d="M203.207 223.493C202.854 223.493 202.501 223.14 202.501 222.787V195.093C202.501 194.917 202.501 194.564 202.501 194.387C202.149 188.743 197.21 184.509 191.565 184.862C186.097 185.215 182.04 189.801 182.04 195.093V222.611C182.04 222.963 181.687 223.316 181.334 223.316C180.981 223.316 180.628 222.963 180.628 222.611V195.093C180.628 189.096 185.391 183.98 191.389 183.451C197.739 182.922 203.383 187.861 203.736 194.211C203.736 194.564 203.736 194.74 203.736 195.093V222.787C203.736 223.14 203.56 223.493 203.207 223.493Z" fill="#BC7A4E"/>
<path d="M197.739 221.729C197.386 221.729 197.033 221.376 197.033 221.023V195.093C197.033 194.917 197.033 194.564 197.033 194.211C196.504 191.565 194.035 189.801 191.389 190.154C189.096 190.507 187.332 192.623 187.332 194.917V220.847C187.332 221.199 186.979 221.552 186.626 221.552C186.273 221.552 185.92 221.199 185.92 220.847V194.917C185.92 191.918 188.037 189.272 191.036 188.743C194.387 188.214 197.562 190.507 198.092 193.858C198.092 194.211 198.092 194.564 198.092 194.917V220.847C198.444 221.376 198.092 221.729 197.739 221.729Z" fill="#BC7A4E"/>
<path d="M274.294 274.647C273.942 274.647 273.589 274.295 273.589 273.942V195.093L274.294 194.74H273.589C273.412 180.1 261.418 168.281 246.953 168.281C246.777 168.281 246.777 168.281 246.6 168.281C231.96 168.457 220.141 180.452 220.141 194.917V220.847C220.141 221.2 219.788 221.552 219.436 221.552C219.083 221.552 218.73 221.2 218.73 220.847V194.917C218.73 179.57 231.078 167.046 246.424 166.87C246.6 166.87 246.6 166.87 246.777 166.87C262.123 166.87 274.647 179.218 274.824 194.564V194.74V273.589C275 274.295 274.647 274.647 274.294 274.647Z" fill="#BC7A4E"/>
<path d="M268.826 232.313C268.473 232.313 268.121 231.96 268.121 231.607V194.74C267.944 183.098 258.419 173.926 246.953 173.926C246.777 173.926 246.6 173.926 246.424 173.926C234.958 174.102 225.609 183.627 225.609 195.093V231.431C225.609 231.783 225.257 232.136 224.904 232.136C224.551 232.136 224.198 231.783 224.198 231.431V195.093C224.198 182.922 234.076 172.867 246.248 172.515C252.245 172.338 258.066 174.631 262.3 178.865C266.709 183.098 269.179 188.567 269.179 194.74V231.607C269.532 231.96 269.179 232.313 268.826 232.313Z" fill="#BC7A4E"/>
<path d="M263.358 226.844C263.005 226.844 262.652 226.491 262.652 226.139V195.093C262.652 194.917 262.652 194.74 262.652 194.564C262.476 190.33 260.712 186.45 257.537 183.627C254.362 180.805 250.481 179.217 246.248 179.394C237.781 179.747 231.078 186.626 231.078 195.093V225.786C231.078 226.139 230.725 226.491 230.372 226.491C230.019 226.491 229.667 226.139 229.667 225.786V195.093C229.667 185.921 236.899 178.336 246.071 177.983C250.658 177.806 255.067 179.394 258.243 182.569C261.594 185.744 263.534 189.978 263.711 194.387C263.711 194.564 263.711 194.74 263.711 194.917V226.139C264.064 226.668 263.711 226.844 263.358 226.844Z" fill="#BC7A4E"/>
<path d="M257.89 223.493C257.537 223.493 257.184 223.14 257.184 222.787V195.093C257.184 194.917 257.184 194.564 257.184 194.388C257.008 191.565 255.773 189.096 253.656 187.332C251.539 185.568 248.893 184.686 246.248 184.862C240.779 185.215 236.722 189.801 236.722 195.093V222.611C236.722 222.964 236.369 223.316 236.017 223.316C235.664 223.316 235.311 222.964 235.311 222.611V195.093C235.311 189.096 240.074 183.98 246.071 183.451C249.07 183.275 252.245 184.157 254.538 186.273C256.831 188.39 258.242 191.213 258.419 194.211C258.419 194.564 258.419 194.74 258.419 195.093V222.787C258.595 223.14 258.242 223.493 257.89 223.493Z" fill="#BC7A4E"/>
<path d="M252.422 221.729C252.069 221.729 251.716 221.376 251.716 221.023V195.093C251.716 194.74 251.716 194.564 251.716 194.211C251.187 191.565 248.717 189.801 246.071 190.154C243.778 190.507 242.014 192.624 242.014 194.917V220.847C242.014 221.2 241.661 221.552 241.309 221.552C240.956 221.552 240.603 221.2 240.603 220.847V194.917C240.603 191.918 242.72 189.272 245.719 188.743C249.07 188.214 252.245 190.507 252.774 193.858C252.774 194.211 252.774 194.564 252.774 194.917V220.847C253.127 221.376 252.774 221.729 252.422 221.729Z" fill="#BC7A4E"/>
<path d="M55.3881 222.081C55.0353 222.081 54.6825 221.729 54.6825 221.376V142.351C54.6825 135.295 51.6838 128.592 46.5683 123.476C41.4529 118.537 34.7498 115.891 27.5176 115.891C12.8769 116.068 1.05838 128.063 1.05838 142.527V168.457C1.05838 168.81 0.705588 169.163 0.352797 169.163C7.06315e-06 169.163 -0.352783 168.81 -0.352783 168.457V142.704C7.06315e-06 127.357 12.3477 114.833 27.694 114.657C35.1026 114.657 42.3348 117.479 47.6267 122.595C52.9185 127.886 55.9173 134.766 56.0937 142.351V221.376C56.0937 221.729 55.7409 222.081 55.3881 222.081Z" fill="#BC7A4E"/>
<path d="M49.92 179.747C49.5672 179.747 49.2144 179.394 49.2144 179.041V142.174C49.038 130.532 39.1599 121.183 27.5178 121.36C16.0521 121.536 6.70315 131.061 6.70315 142.527V178.865C6.70315 179.217 6.35036 179.57 5.99757 179.57C5.64478 179.57 5.29199 179.217 5.29199 178.865V142.704C5.29199 130.532 15.1701 120.478 27.3414 120.125C39.8654 119.772 50.0964 129.827 50.2728 142.174V179.041C50.6255 179.394 50.2728 179.747 49.92 179.747Z" fill="#BC7A4E"/>
<path d="M11.6421 174.102C11.2893 174.102 10.9365 173.749 10.9365 173.396V142.704C10.9365 133.531 18.1687 125.946 27.3413 125.593C31.9275 125.417 36.3374 127.005 39.5125 130.18C42.864 133.355 44.8044 137.588 44.9808 141.998C44.9808 142.174 44.9808 142.351 44.9808 142.704V173.22C44.9808 173.573 44.628 173.926 44.2752 173.926C43.9224 173.926 43.5696 173.573 43.5696 173.22V142.704C43.5696 142.527 43.5696 142.351 43.5696 142.174C43.3932 137.941 41.6293 134.06 38.4542 131.238C35.2791 128.416 31.3984 126.828 27.1649 127.004C18.6979 127.357 11.9949 134.237 11.9949 142.704V173.396C12.1713 173.749 11.9949 174.102 11.6421 174.102Z" fill="#BC7A4E"/>
<path d="M38.9834 170.927C38.6306 170.927 38.2778 170.574 38.2778 170.221V142.704C38.2778 142.527 38.2778 142.174 38.2778 141.998C38.1014 139.176 36.8666 136.706 34.7499 134.942C32.6331 133.178 29.9872 132.296 27.3413 132.473C21.873 132.825 17.8159 137.412 17.8159 142.704V170.221C17.8159 170.574 17.4632 170.927 17.1104 170.927C16.7576 170.927 16.4048 170.574 16.4048 170.221V142.704C16.4048 136.706 21.1675 131.591 27.1649 131.061C30.34 130.885 33.3387 131.767 35.6319 133.884C37.925 136.001 39.3362 138.823 39.5125 141.822C39.5125 142.174 39.5125 142.351 39.5125 142.704V170.398C39.6889 170.574 39.3362 170.927 38.9834 170.927Z" fill="#BC7A4E"/>
<path d="M33.515 169.163C33.1622 169.163 32.8094 168.81 32.8094 168.457V142.704C32.8094 142.351 32.8094 142.174 32.8094 141.822C32.633 140.587 31.9274 139.352 30.8691 138.646C29.8107 137.941 28.5759 137.588 27.1648 137.764C24.8716 138.117 23.1077 140.234 23.1077 142.527V168.457C23.1077 168.81 22.7549 169.163 22.4021 169.163C22.0493 169.163 21.6965 168.81 21.6965 168.457V142.704C21.6965 139.705 23.8133 137.059 26.812 136.53C28.3995 136.177 30.1635 136.706 31.3983 137.588C32.8094 138.47 33.6914 140.058 33.8678 141.645C33.8678 141.998 33.8678 142.351 33.8678 142.704V168.634C34.2206 168.81 33.8678 169.163 33.515 169.163Z" fill="#BC7A4E"/>
<path d="M110.071 221.729C109.718 221.729 109.365 221.376 109.365 221.023V142.351L110.071 141.998H109.365C109.189 127.357 97.1937 115.539 82.7293 115.539C82.5529 115.539 82.5529 115.539 82.3765 115.539C67.7357 115.715 55.9173 127.71 55.9173 142.174V168.104C55.9173 168.457 55.5645 168.81 55.2117 168.81C54.8589 168.81 54.5061 168.457 54.5061 168.104V142.351C54.5061 127.004 66.8538 114.48 82.2001 114.304C82.3765 114.304 82.3765 114.304 82.5529 114.304C97.8993 114.304 110.423 126.652 110.6 141.998V142.174V221.023C110.776 221.376 110.423 221.729 110.071 221.729Z" fill="#BC7A4E"/>
<path d="M104.602 179.394C104.25 179.394 103.897 179.041 103.897 178.688V141.822C103.72 136.177 101.427 130.885 97.3701 127.004C93.313 123.124 87.8448 121.007 82.2002 121.183C70.7345 121.36 61.3855 130.885 61.3855 142.351V178.688C61.3855 179.041 61.0327 179.394 60.6799 179.394C60.3272 179.394 59.9744 179.041 59.9744 178.688V142.351C59.9744 130.179 69.8525 120.125 82.0238 119.772C88.0212 119.596 93.8422 121.889 98.0757 126.122C102.486 130.356 104.955 135.824 104.955 141.998V178.865C105.308 179.041 104.955 179.394 104.602 179.394Z" fill="#BC7A4E"/>
<path d="M99.1341 174.102C98.7813 174.102 98.4285 173.749 98.4285 173.396V142.351C98.4285 142.174 98.4285 141.998 98.4285 141.822C98.2521 137.588 96.4882 133.708 93.3131 130.885C90.1379 128.063 86.2573 126.475 82.0238 126.652C73.5568 127.005 66.8538 133.884 66.8538 142.351V173.044C66.8538 173.396 66.501 173.749 66.1482 173.749C65.7954 173.749 65.4426 173.396 65.4426 173.044V142.351C65.4426 133.178 72.6748 125.593 81.8474 125.241C86.4337 125.064 90.8435 126.652 94.0186 129.827C97.3701 133.002 99.3105 137.235 99.4869 141.645C99.4869 141.822 99.4869 141.998 99.4869 142.351V173.396C99.8397 173.749 99.4869 174.102 99.1341 174.102Z" fill="#BC7A4E"/>
<path d="M93.6657 170.574C93.3129 170.574 92.9602 170.221 92.9602 169.868V142.351C92.9602 142.174 92.9602 141.822 92.9602 141.645C92.7838 138.823 91.549 136.353 89.4323 134.589C87.3155 132.825 84.6696 131.943 82.0237 132.12C76.5554 132.473 72.4983 137.059 72.4983 142.351V169.868C72.4983 170.221 72.1455 170.574 71.7927 170.574C71.44 170.574 71.0872 170.221 71.0872 169.868V142.351C71.0872 136.353 75.8498 131.238 81.8473 130.709C84.846 130.532 88.0211 131.414 90.3142 133.531C92.6074 135.648 94.0185 138.47 94.1949 141.469C94.1949 141.822 94.1949 141.998 94.1949 142.351V170.045C94.3713 170.221 94.0185 170.574 93.6657 170.574Z" fill="#BC7A4E"/>
<path d="M88.1976 168.81C87.8448 168.81 87.492 168.457 87.492 168.105V142.351C87.492 141.998 87.492 141.822 87.492 141.469C86.9629 138.823 84.4933 137.059 81.8474 137.412C79.5543 137.765 77.7903 139.881 77.7903 142.174V168.105C77.7903 168.457 77.4375 168.81 77.0847 168.81C76.7319 168.81 76.3792 168.457 76.3792 168.105V142.351C76.3792 139.352 78.4959 136.706 81.4946 136.177C84.8461 135.648 88.0212 137.941 88.5504 141.292C88.5504 141.645 88.5504 141.998 88.5504 142.351V168.281C88.9032 168.457 88.7268 168.81 88.1976 168.81Z" fill="#BC7A4E"/>
<path d="M164.753 222.081C164.4 222.081 164.047 221.729 164.047 221.376V142.704L164.753 142.351H164.047C163.871 127.71 151.876 115.891 137.412 115.891C137.235 115.891 137.235 115.891 137.059 115.891C122.418 116.068 110.6 128.063 110.6 142.527V168.457C110.6 168.81 110.247 169.163 109.894 169.163C109.541 169.163 109.188 168.81 109.188 168.457V142.704C109.188 127.357 121.536 114.833 136.883 114.657C137.059 114.657 137.059 114.657 137.235 114.657C152.582 114.657 165.106 127.004 165.282 142.351V142.527V221.376C165.459 221.729 165.106 222.081 164.753 222.081Z" fill="#BC7A4E"/>
<path d="M159.285 179.746C158.932 179.746 158.579 179.394 158.579 179.041V142.174C158.403 136.53 156.11 131.238 152.052 127.357C147.995 123.476 142.527 121.36 136.883 121.536C125.417 121.713 116.068 131.238 116.068 142.704V179.041C116.068 179.394 115.715 179.746 115.362 179.746C115.01 179.746 114.657 179.394 114.657 179.041V142.704C114.657 130.532 124.535 120.478 136.706 120.125C142.704 119.949 148.525 122.242 152.758 126.475C157.168 130.709 159.637 136.177 159.637 142.351V179.217C159.99 179.394 159.637 179.746 159.285 179.746Z" fill="#BC7A4E"/>
<path d="M121.007 174.102C120.654 174.102 120.301 173.749 120.301 173.396V142.704C120.301 133.531 127.533 125.946 136.706 125.593C141.292 125.417 145.702 127.005 148.877 130.18C152.229 133.355 154.169 137.588 154.346 141.998C154.346 142.174 154.346 142.351 154.346 142.527V173.044C154.346 173.396 153.993 173.749 153.64 173.749C153.287 173.749 152.934 173.396 152.934 173.044V142.704C152.934 142.527 152.934 142.351 152.934 142.174C152.758 137.941 150.994 134.06 147.819 131.238C144.644 128.416 140.763 126.828 136.53 127.004C128.415 127.181 121.712 134.06 121.712 142.704V173.396C121.712 173.749 121.36 174.102 121.007 174.102Z" fill="#BC7A4E"/>
<path d="M148.348 170.927C147.995 170.927 147.643 170.574 147.643 170.221V142.704C147.643 142.527 147.643 142.174 147.643 141.998C147.466 139.176 146.231 136.706 144.115 134.942C141.998 133.178 139.352 132.296 136.706 132.473C131.238 132.825 127.181 137.412 127.181 142.704V170.221C127.181 170.574 126.828 170.927 126.475 170.927C126.122 170.927 125.77 170.574 125.77 170.221V142.704C125.77 136.706 130.532 131.591 136.53 131.061C139.528 130.885 142.703 131.767 144.997 133.884C147.29 136.001 148.701 138.823 148.877 141.822C148.877 142.174 148.877 142.351 148.877 142.704V170.398C149.054 170.574 148.877 170.927 148.348 170.927Z" fill="#BC7A4E"/>
<path d="M143.056 169.163C142.703 169.163 142.351 168.81 142.351 168.457V142.704C142.351 142.351 142.351 142.174 142.351 141.822C141.821 139.176 139.352 137.412 136.706 137.765C134.413 138.117 132.649 140.234 132.649 142.527V168.457C132.649 168.81 132.296 169.163 131.943 169.163C131.591 169.163 131.238 168.81 131.238 168.457V142.704C131.238 139.705 133.355 137.059 136.353 136.53C139.705 136.001 142.88 138.294 143.409 141.645C143.409 141.998 143.409 142.351 143.409 142.704V168.634C143.585 168.81 143.409 169.163 143.056 169.163Z" fill="#BC7A4E"/>
<path d="M219.612 221.729C219.259 221.729 218.906 221.376 218.906 221.023V141.998C218.73 127.357 206.735 115.539 192.271 115.539C192.094 115.539 192.094 115.539 191.918 115.539C177.277 115.715 165.459 127.71 165.459 142.174V168.104C165.459 168.457 165.106 168.81 164.753 168.81C164.4 168.81 164.047 168.457 164.047 168.104V142.351C164.047 127.004 176.395 114.48 191.741 114.304C191.918 114.304 191.918 114.304 192.094 114.304C207.441 114.304 219.965 126.652 220.141 141.998V221.023C220.141 221.376 219.965 221.729 219.612 221.729Z" fill="#BC7A4E"/>
<path d="M214.144 179.394C213.791 179.394 213.438 179.041 213.438 178.688V141.822C213.262 136.177 210.969 130.885 206.911 127.004C202.854 123.124 197.386 121.007 191.741 121.183C180.276 121.36 170.927 130.885 170.927 142.351V178.688C170.927 179.041 170.574 179.394 170.221 179.394C169.868 179.394 169.516 179.041 169.516 178.688V142.351C169.516 130.179 179.394 120.125 191.565 119.772C197.562 119.596 203.383 121.889 207.617 126.122C212.027 130.356 214.496 135.824 214.496 141.998V178.865C214.673 179.041 214.496 179.394 214.144 179.394Z" fill="#BC7A4E"/>
<path d="M208.675 174.102C208.323 174.102 207.97 173.749 207.97 173.396V142.351C207.97 142.174 207.97 141.998 207.97 141.822C207.617 133.178 200.385 126.299 191.565 126.652C183.098 127.004 176.395 133.884 176.395 142.351V173.043C176.395 173.396 176.042 173.749 175.689 173.749C175.337 173.749 174.984 173.396 174.984 173.043V142.351C174.984 133.178 182.216 125.593 191.389 125.24C200.914 124.888 208.675 132.296 209.028 141.645C209.028 141.822 209.028 141.998 209.028 142.174V173.396C209.205 173.749 209.028 174.102 208.675 174.102Z" fill="#BC7A4E"/>
<path d="M203.207 170.574C202.854 170.574 202.501 170.221 202.501 169.868V142.351C202.501 142.174 202.501 141.822 202.501 141.645C202.325 138.823 201.09 136.353 198.974 134.589C196.857 132.825 194.211 131.943 191.565 132.12C186.097 132.473 182.04 137.059 182.04 142.351V169.868C182.04 170.221 181.687 170.574 181.334 170.574C180.981 170.574 180.628 170.221 180.628 169.868V142.351C180.628 136.353 185.391 131.238 191.389 130.709C194.387 130.532 197.562 131.414 199.855 133.531C202.149 135.648 203.56 138.47 203.736 141.469C203.736 141.822 203.736 141.998 203.736 142.351V170.045C203.736 170.221 203.56 170.574 203.207 170.574Z" fill="#BC7A4E"/>
<path d="M197.739 168.81C197.386 168.81 197.033 168.457 197.033 168.105V142.351C197.033 141.998 197.033 141.822 197.033 141.469C196.504 138.823 194.035 137.059 191.389 137.412C189.096 137.765 187.332 139.881 187.332 142.174V168.105C187.332 168.457 186.979 168.81 186.626 168.81C186.273 168.81 185.92 168.457 185.92 168.105V142.351C185.92 139.352 188.037 136.706 191.036 136.177C194.387 135.648 197.562 137.941 198.092 141.292C198.092 141.645 198.092 141.998 198.092 142.351V168.281C198.444 168.457 198.092 168.81 197.739 168.81Z" fill="#BC7A4E"/>
<path d="M274.294 221.729C273.942 221.729 273.589 221.376 273.589 221.023V142.351L274.294 141.998H273.589C273.412 127.357 261.418 115.539 246.953 115.539C246.777 115.539 246.777 115.539 246.6 115.539C231.96 115.715 220.141 127.71 220.141 142.174V168.104C220.141 168.457 219.788 168.81 219.436 168.81C219.083 168.81 218.73 168.457 218.73 168.104V142.351C218.73 127.004 231.078 114.48 246.424 114.304C246.6 114.304 246.6 114.304 246.777 114.304C262.123 114.304 274.647 126.652 274.824 141.998V142.174V221.023C275 221.376 274.647 221.729 274.294 221.729Z" fill="#BC7A4E"/>
<path d="M268.826 179.394C268.473 179.394 268.121 179.041 268.121 178.688V141.822C267.944 136.177 265.651 130.885 261.594 127.004C257.537 123.124 252.069 121.007 246.424 121.183C234.958 121.36 225.609 130.885 225.609 142.351V178.688C225.609 179.041 225.257 179.394 224.904 179.394C224.551 179.394 224.198 179.041 224.198 178.688V142.351C224.198 130.179 234.076 120.125 246.248 119.772C252.245 119.596 258.066 121.889 262.3 126.122C266.709 130.356 269.179 135.824 269.179 141.998V178.865C269.532 179.041 269.179 179.394 268.826 179.394Z" fill="#BC7A4E"/>
<path d="M263.358 174.102C263.005 174.102 262.652 173.749 262.652 173.396V142.351C262.652 142.174 262.652 141.998 262.652 141.822C262.476 137.588 260.712 133.708 257.537 130.885C254.362 128.063 250.481 126.475 246.248 126.652C237.781 127.005 231.078 133.884 231.078 142.351V173.044C231.078 173.396 230.725 173.749 230.372 173.749C230.019 173.749 229.667 173.396 229.667 173.044V142.351C229.667 133.178 236.899 125.593 246.071 125.241C250.658 125.064 255.067 126.652 258.243 129.827C261.594 133.002 263.534 137.235 263.711 141.645C263.711 141.822 263.711 141.998 263.711 142.174V173.396C264.064 173.749 263.711 174.102 263.358 174.102Z" fill="#BC7A4E"/>
<path d="M257.89 170.574C257.537 170.574 257.184 170.221 257.184 169.868V142.351C257.184 142.174 257.184 141.822 257.184 141.645C257.008 138.823 255.773 136.353 253.656 134.589C251.539 132.825 248.893 131.943 246.248 132.12C240.779 132.473 236.722 137.059 236.722 142.351V169.868C236.722 170.221 236.369 170.574 236.017 170.574C235.664 170.574 235.311 170.221 235.311 169.868V142.351C235.311 136.353 240.074 131.238 246.071 130.709C249.07 130.532 252.245 131.414 254.538 133.531C256.831 135.648 258.242 138.47 258.419 141.469C258.419 141.822 258.419 141.998 258.419 142.351V170.045C258.595 170.221 258.242 170.574 257.89 170.574Z" fill="#BC7A4E"/>
<path d="M252.422 168.81C252.069 168.81 251.716 168.457 251.716 168.105V142.351C251.716 141.998 251.716 141.822 251.716 141.469C251.187 138.823 248.717 137.059 246.071 137.412C243.778 137.765 242.014 139.881 242.014 142.174V168.105C242.014 168.457 241.661 168.81 241.309 168.81C240.956 168.81 240.603 168.457 240.603 168.105V142.351C240.603 139.352 242.72 136.706 245.719 136.177C249.07 135.648 252.245 137.941 252.774 141.292C252.774 141.645 252.774 141.998 252.774 142.351V168.281C253.127 168.457 252.774 168.81 252.422 168.81Z" fill="#BC7A4E"/>
<path d="M274.294 275H0.705581C0.35279 275 0 274.647 0 274.294V0.705581C0 0.35279 0.35279 0 0.705581 0H274.294C274.647 0 275 0.35279 275 0.705581V274.294C275 274.647 274.647 275 274.294 275ZM1.23477 273.589H273.589V1.23477H1.23477V273.589Z" fill="#BC7A4E"/>
<path d="M137.412 83.964C149.687 83.964 159.638 74.0132 159.638 61.7382C159.638 49.4633 149.687 39.5125 137.412 39.5125C125.137 39.5125 115.186 49.4633 115.186 61.7382C115.186 74.0132 125.137 83.964 137.412 83.964Z" fill="#BC7A4E"/>
</g>
<defs>
<clipPath id="clip0">
<rect width="275" height="275" fill="white"/>
</clipPath>
</defs>
</svg>
