<svg width="220" height="242" viewBox="0 0 220 242" fill="none" xmlns="http://www.w3.org/2000/svg">
<g filter="url(#filter0_d_1069_22930)">
<path d="M110.393 57.169C110.064 57.169 109.779 56.9057 109.735 56.5766C109.538 54.4046 109.604 52.2984 109.669 50.2581C109.713 48.8101 109.779 47.3182 109.735 45.8263C109.713 45.4534 109.998 45.1681 110.371 45.1462C110.722 45.1243 111.03 45.4095 111.052 45.7824C111.095 47.3182 111.052 48.832 110.986 50.302C110.92 52.3862 110.854 54.3607 111.03 56.4669C111.073 56.818 110.788 57.147 110.437 57.1909C110.437 57.169 110.415 57.169 110.393 57.169Z" fill="#BD7B4F"/>
<path d="M110.371 72.1536C109.998 72.1536 109.713 71.8684 109.713 71.4955C109.713 68.3581 109.735 65.2208 109.735 62.0835C109.735 61.7105 110.02 61.4253 110.393 61.4253C110.766 61.4253 111.051 61.7324 111.051 62.0835C111.051 65.2208 111.029 68.3581 111.029 71.4955C111.029 71.8465 110.744 72.1536 110.371 72.1536Z" fill="#BD7B4F"/>
<path d="M110.305 146.682C109.932 146.682 109.647 146.396 109.647 146.023C109.625 121.693 109.625 102.781 109.669 84.681C109.669 84.308 109.954 84.0228 110.327 84.0228C110.7 84.0228 110.986 84.33 110.986 84.681C110.942 102.781 110.92 121.693 110.964 146.002C110.964 146.375 110.678 146.682 110.305 146.682Z" fill="#BD7B4F"/>
<path d="M110.393 191.833C110.021 191.833 109.735 191.548 109.735 191.175C109.713 183.145 109.691 175.115 109.691 167.107C109.691 166.734 109.977 166.449 110.35 166.449C110.723 166.449 111.008 166.734 111.008 167.107C111.03 175.137 111.03 183.167 111.052 191.175C111.052 191.526 110.745 191.833 110.393 191.833Z" fill="#BD7B4F"/>
<path d="M122.065 77.4629C121.999 77.4629 121.956 77.4629 121.89 77.441C121.539 77.3532 121.341 76.9802 121.429 76.6292C122.087 74.1939 122.701 71.7148 123.294 69.3015C124.479 64.5626 125.685 59.6701 127.221 54.9531C127.331 54.6021 127.704 54.4266 128.055 54.5363C128.406 54.646 128.581 55.0189 128.472 55.37C126.958 60.043 125.751 64.9136 124.588 69.6305C123.996 72.0439 123.36 74.545 122.723 76.9802C122.636 77.2655 122.372 77.4629 122.065 77.4629Z" fill="#BD7B4F"/>
<path d="M102.034 151.815C101.968 151.815 101.924 151.815 101.858 151.793C101.507 151.706 101.288 151.333 101.398 150.982C102.363 147.34 103.328 143.654 104.25 140.1C106.685 130.797 109.208 121.166 112.016 111.491C113.333 107.454 114.32 103.373 115.263 99.446C116.031 96.2648 116.843 92.952 117.786 89.7927C117.896 89.4417 118.247 89.2442 118.598 89.3539C118.949 89.4636 119.147 89.8147 119.037 90.1657C118.093 93.303 117.347 96.4403 116.536 99.7532C115.57 103.724 114.583 107.805 113.267 111.886C110.459 121.539 107.957 131.148 105.522 140.451C104.601 144.005 103.635 147.691 102.67 151.333C102.604 151.618 102.341 151.815 102.034 151.815Z" fill="#BD7B4F"/>
<path d="M97.2076 169.915C97.1418 169.915 97.0979 169.915 97.0321 169.893C96.6811 169.806 96.4617 169.433 96.5714 169.082C97.3173 166.295 98.0633 163.443 98.7873 160.701C99.2041 159.099 99.6429 157.498 100.06 155.896C100.148 155.545 100.52 155.326 100.872 155.435C101.223 155.523 101.442 155.896 101.332 156.247C100.915 157.849 100.477 159.45 100.06 161.052C99.3357 163.794 98.5679 166.624 97.8439 169.411C97.778 169.718 97.5148 169.915 97.2076 169.915Z" fill="#BD7B4F"/>
<path d="M140.646 68.6864C140.537 68.6864 140.427 68.6645 140.317 68.5986C140.01 68.4231 139.9 68.0063 140.076 67.6991C144.025 60.8321 148.194 53.5921 152.779 45.5843C152.954 45.2771 153.371 45.1674 153.678 45.3429C153.986 45.5184 154.095 45.9353 153.92 46.2424C149.334 54.2722 145.188 61.5122 141.217 68.3792C141.107 68.5548 140.888 68.6864 140.646 68.6864Z" fill="#BD7B4F"/>
<path d="M127.219 91.833C127.109 91.833 126.999 91.8111 126.89 91.7452C126.582 91.5697 126.473 91.1529 126.648 90.8457C129.983 85.1415 133.493 79.1082 137.091 72.8993C137.267 72.5922 137.684 72.4825 137.991 72.658C138.298 72.8335 138.408 73.2503 138.232 73.5575C134.634 79.7663 131.124 85.7997 127.789 91.5039C127.657 91.7233 127.438 91.833 127.219 91.833Z" fill="#BD7B4F"/>
<path d="M82.705 169.059C82.5953 169.059 82.4856 169.037 82.3759 168.972C82.0687 168.796 81.959 168.379 82.1345 168.072C82.5514 167.348 83.0121 166.624 83.4509 165.9C84.2627 164.562 85.1183 163.18 85.8642 161.776C86.0836 161.359 86.2811 160.942 86.4785 160.481C86.7638 159.867 87.049 159.231 87.4 158.616C87.6413 158.199 87.9046 157.805 88.1459 157.388C88.5189 156.773 88.9138 156.137 89.2648 155.523C89.7036 154.755 90.1424 153.965 90.5593 153.197C91.3052 151.859 92.0731 150.477 92.8848 149.16C93.192 148.634 93.5211 148.129 93.8282 147.625C94.7497 146.133 95.715 144.575 96.5926 143.017C100.783 135.47 105.193 127.857 109.427 120.508L112.608 115.001C115.614 109.779 118.729 104.404 121.823 99.1167C121.998 98.8096 122.415 98.6999 122.722 98.8754C123.03 99.0509 123.139 99.4678 122.964 99.7749C119.87 105.062 116.755 110.459 113.749 115.659L110.568 121.166C106.334 128.515 101.946 136.107 97.7554 143.654C96.8778 145.233 95.9125 146.813 94.9691 148.327C94.6619 148.831 94.3328 149.358 94.0257 149.862C93.2359 151.179 92.468 152.539 91.744 153.855C91.3271 154.623 90.8884 155.413 90.4276 156.181C90.0547 156.817 89.6597 157.475 89.2868 158.09C89.0454 158.485 88.7822 158.902 88.5408 159.296C88.2118 159.845 87.9485 160.415 87.6852 161.03C87.4878 161.468 87.2684 161.929 87.027 162.39C86.2591 163.816 85.4035 165.22 84.5918 166.58C84.153 167.282 83.7142 168.006 83.2973 168.73C83.1657 168.95 82.9463 169.059 82.705 169.059Z" fill="#BD7B4F"/>
<path d="M67.4347 195.387C67.325 195.387 67.2153 195.365 67.1056 195.299C66.7984 195.124 66.6668 194.729 66.8423 194.4C69.9577 188.783 73.1169 183.386 75.7935 178.823C75.9691 178.515 76.3859 178.406 76.6931 178.581C77.0002 178.757 77.1099 179.174 76.9344 179.481C74.2578 184.022 71.1205 189.419 68.0051 195.014C67.8734 195.255 67.654 195.387 67.4347 195.387Z" fill="#BD7B4F"/>
<path d="M154.799 76.5417C154.623 76.5417 154.47 76.4759 154.338 76.3443C154.075 76.081 154.075 75.6642 154.338 75.4228C157.168 72.5926 159.647 70.1135 161.929 67.8757C162.192 67.6124 162.609 67.6124 162.851 67.8757C163.114 68.1389 163.114 68.5558 162.851 68.7971C160.569 71.0569 158.09 73.5141 155.26 76.3443C155.128 76.4759 154.974 76.5417 154.799 76.5417Z" fill="#BD7B4F"/>
<path d="M132.639 98.7437C132.463 98.7437 132.31 98.6778 132.178 98.5462C131.915 98.2829 131.915 97.8661 132.178 97.6247C136.829 93.0175 141.524 88.2786 146.066 83.7152C147.448 82.333 148.83 80.9289 150.212 79.5467C150.475 79.2834 150.892 79.2834 151.134 79.5467C151.397 79.81 151.397 80.2268 151.134 80.4681C149.751 81.8503 148.369 83.2544 146.987 84.6366C142.446 89.2 137.751 93.9389 133.099 98.5462C132.968 98.6778 132.792 98.7437 132.639 98.7437Z" fill="#BD7B4F"/>
<path d="M71.4726 159.867C71.2971 159.867 71.1435 159.801 71.0119 159.669C70.7486 159.406 70.7486 158.989 71.0119 158.748C87.6419 142.25 105.193 124.698 124.698 105.106C124.961 104.843 125.378 104.843 125.619 105.106C125.882 105.37 125.882 105.786 125.619 106.028C106.115 125.62 88.5634 143.171 71.9334 159.669C71.8017 159.801 71.6482 159.867 71.4726 159.867Z" fill="#BD7B4F"/>
<path d="M58.3965 172.965C58.2209 172.965 58.0674 172.899 57.9357 172.768C57.6725 172.504 57.6725 172.087 57.9357 171.846L62.6746 167.129C62.9379 166.866 63.3548 166.866 63.5961 167.129C63.8594 167.392 63.8594 167.809 63.5961 168.051L58.8572 172.768C58.7475 172.899 58.572 172.965 58.3965 172.965Z" fill="#BD7B4F"/>
<path d="M157.782 93.6539C157.541 93.6539 157.321 93.5223 157.211 93.3029C157.036 92.9738 157.168 92.5789 157.475 92.4034C160.941 90.5385 164.276 88.6298 167.808 86.5895C169.454 85.6461 171.143 84.6807 172.854 83.7154L172.876 83.6935C173.008 83.6276 173.139 83.496 173.271 83.3644C173.447 83.1889 173.644 82.9695 173.929 82.8598C174.258 82.7062 174.653 82.8598 174.785 83.1889C174.938 83.5179 174.785 83.9129 174.456 84.0664C174.412 84.0884 174.302 84.1981 174.214 84.2858C174.039 84.4833 173.798 84.7027 173.469 84.8782C171.779 85.8435 170.09 86.8089 168.444 87.7522C164.89 89.7926 161.555 91.7013 158.067 93.5662C158.001 93.632 157.892 93.6539 157.782 93.6539Z" fill="#BD7B4F"/>
<path d="M137.181 105.436C136.962 105.436 136.743 105.326 136.611 105.128C136.413 104.821 136.523 104.404 136.83 104.229C139.375 102.649 142.118 100.982 144.904 99.4461C145.847 98.9415 146.791 98.4369 147.712 97.9542C149.358 97.0986 151.047 96.1991 152.671 95.2337C152.978 95.0363 153.395 95.146 153.57 95.4531C153.767 95.7603 153.658 96.1771 153.351 96.3526C151.705 97.3399 149.994 98.2394 148.327 99.117C147.405 99.5997 146.462 100.104 145.54 100.609C142.776 102.123 140.055 103.79 137.51 105.348C137.423 105.414 137.291 105.436 137.181 105.436Z" fill="#BD7B4F"/>
<path d="M90.539 132.378C90.3196 132.378 90.1002 132.268 89.9685 132.048C89.793 131.741 89.9027 131.324 90.2099 131.149L94.5539 128.648C101.662 124.567 109.012 120.333 116.252 116.164C119.916 114.058 123.602 111.93 127.265 109.802C127.573 109.626 127.989 109.736 128.165 110.043C128.34 110.35 128.231 110.767 127.924 110.943C124.26 113.071 120.596 115.199 116.91 117.305C109.692 121.474 102.32 125.686 95.212 129.789L90.868 132.29C90.7583 132.356 90.6487 132.378 90.539 132.378Z" fill="#BD7B4F"/>
<path d="M79.7225 138.564C79.5032 138.564 79.2618 138.454 79.1521 138.235C78.9766 137.928 79.0863 137.511 79.3935 137.335C80.7537 136.567 82.092 135.799 83.4522 135.032C83.7594 134.856 84.1762 134.966 84.3518 135.273C84.5273 135.58 84.4176 135.997 84.1104 136.172C82.7502 136.94 81.4119 137.708 80.0516 138.476C79.9419 138.52 79.8322 138.564 79.7225 138.564Z" fill="#BD7B4F"/>
<path d="M57.3446 151.442C57.1252 151.442 56.9058 151.332 56.7741 151.113C56.5986 150.806 56.6864 150.389 57.0155 150.213C60.3283 148.261 63.8386 146.242 67.4147 144.18C67.7219 144.005 68.1387 144.114 68.3142 144.421C68.4897 144.729 68.3801 145.145 68.0729 145.321C64.4968 147.383 60.9865 149.402 57.6736 151.354C57.564 151.398 57.4543 151.442 57.3446 151.442Z" fill="#BD7B4F"/>
<path d="M46.5934 157.804C46.3741 157.804 46.1547 157.695 46.023 157.475C45.8256 157.168 45.9353 156.751 46.2424 156.576C48.0853 155.479 49.9502 154.36 51.815 153.263C52.1222 153.087 52.539 153.175 52.7145 153.504C52.8901 153.811 52.8023 154.228 52.4732 154.404C50.6084 155.501 48.7435 156.619 46.9006 157.716C46.8128 157.782 46.7031 157.804 46.5934 157.804Z" fill="#BD7B4F"/>
<path d="M179.458 102.452C179.173 102.452 178.909 102.254 178.822 101.969C178.734 101.618 178.931 101.267 179.282 101.158C180.643 100.785 181.739 100.499 182.727 100.258C183.078 100.17 183.429 100.39 183.517 100.741C183.604 101.092 183.385 101.443 183.034 101.53C182.047 101.794 180.95 102.079 179.589 102.43C179.567 102.43 179.524 102.452 179.458 102.452Z" fill="#BD7B4F"/>
<path d="M141.283 112.741C140.997 112.741 140.712 112.544 140.646 112.237C140.559 111.886 140.778 111.535 141.129 111.447C145.846 110.262 150.607 108.902 155.214 107.564C160.304 106.094 165.591 104.58 170.835 103.308C171.756 103.088 172.678 102.869 173.555 102.671C173.906 102.584 174.257 102.825 174.345 103.176C174.433 103.527 174.192 103.878 173.841 103.966C172.963 104.163 172.063 104.383 171.142 104.602C165.92 105.853 160.655 107.366 155.565 108.836C150.958 110.175 146.175 111.535 141.436 112.72C141.392 112.741 141.326 112.741 141.283 112.741Z" fill="#BD7B4F"/>
<path d="M89.1765 126.717C88.8913 126.717 88.628 126.519 88.5403 126.234C88.4525 125.883 88.65 125.532 89.001 125.422C98.8737 122.724 108.79 120.069 118.027 117.59L129.808 114.431C130.159 114.343 130.51 114.54 130.62 114.891C130.708 115.242 130.51 115.593 130.159 115.703L118.378 118.862C109.141 121.342 99.2248 123.996 89.352 126.695C89.2862 126.717 89.2204 126.717 89.1765 126.717Z" fill="#BD7B4F"/>
<path d="M59.7337 134.571C59.4485 134.571 59.1633 134.373 59.0975 134.066C59.0097 133.715 59.2291 133.364 59.5801 133.276C65.1308 131.85 72.4366 129.986 79.6766 128.011C80.0276 127.923 80.3787 128.121 80.4884 128.472C80.5761 128.823 80.3787 129.174 80.0276 129.283C72.7877 131.258 65.4818 133.123 59.9092 134.549C59.8215 134.571 59.7776 134.571 59.7337 134.571Z" fill="#BD7B4F"/>
<path d="M37.8822 140.407C37.5751 140.407 37.2899 140.187 37.246 139.88C37.1802 139.529 37.3996 139.178 37.7725 139.112C39.5715 138.761 41.3486 138.191 43.0599 137.642C44.0252 137.335 45.0125 137.028 45.9998 136.743C47.8866 136.216 49.8172 135.734 51.6821 135.273C52.6255 135.032 53.5689 134.812 54.5123 134.571C54.8633 134.483 55.2143 134.703 55.3021 135.054C55.3898 135.405 55.1704 135.756 54.8194 135.843C53.876 136.085 52.9326 136.304 51.9892 136.546C50.1244 137.006 48.2157 137.467 46.3508 137.994C45.3855 138.257 44.3982 138.586 43.4548 138.871C41.6997 139.442 39.8787 140.012 38.0139 140.363C37.97 140.385 37.9261 140.407 37.8822 140.407Z" fill="#BD7B4F"/>
<path d="M178.558 121.1C177.263 121.1 175.903 121.1 174.455 121.078C174.082 121.078 173.797 120.771 173.797 120.42C173.797 120.069 174.104 119.762 174.455 119.762C177.176 119.784 179.589 119.784 181.827 119.762C182.178 119.762 182.485 120.047 182.485 120.42C182.485 120.793 182.2 121.078 181.827 121.078C180.796 121.1 179.699 121.1 178.558 121.1Z" fill="#BD7B4F"/>
<path d="M167.698 120.99C167.676 120.99 167.676 120.99 167.698 120.99L165.68 120.969C158.33 120.859 150.717 120.749 143.236 120.99C142.863 120.99 142.578 120.727 142.556 120.354C142.534 119.981 142.819 119.696 143.192 119.674C150.695 119.433 158.33 119.542 165.702 119.652L167.72 119.674C168.093 119.674 168.378 119.981 168.378 120.332C168.335 120.705 168.049 120.99 167.698 120.99Z" fill="#BD7B4F"/>
<path d="M132.31 121.1C132.31 121.1 132.288 121.1 132.31 121.1C121.933 121.012 111.314 120.991 101.069 120.947C96.7467 120.947 92.4246 120.925 88.1465 120.903C87.7735 120.903 87.4883 120.596 87.4883 120.245C87.4883 119.872 87.7735 119.586 88.1465 119.586C92.4246 119.608 96.7467 119.608 101.069 119.63C111.336 119.652 121.955 119.674 132.332 119.784C132.705 119.784 132.991 120.091 132.991 120.442C132.969 120.815 132.661 121.1 132.31 121.1Z" fill="#BD7B4F"/>
<path d="M52.2754 120.903C51.9243 120.903 51.6172 120.618 51.6172 120.245C51.6172 119.872 51.9024 119.587 52.2754 119.587C59.8445 119.521 67.9401 119.521 77.7689 119.543C78.1419 119.543 78.4271 119.85 78.4271 120.201C78.4271 120.574 78.1419 120.859 77.7689 120.859C67.9401 120.837 59.8445 120.859 52.2754 120.903Z" fill="#BD7B4F"/>
<path d="M38.7168 121.078C38.3657 121.078 38.0586 120.793 38.0586 120.442C38.0586 120.069 38.3438 119.784 38.6948 119.762C40.2964 119.74 41.876 119.718 43.4776 119.696C43.8286 119.696 44.1358 119.981 44.1358 120.354C44.1358 120.727 43.8506 121.012 43.4776 121.012C41.9199 121.034 40.3183 121.056 38.7168 121.078Z" fill="#BD7B4F"/>
<path d="M185.863 141.197C185.797 141.197 185.753 141.197 185.687 141.175C177.723 139.091 169.672 136.919 162.761 135.054C162.41 134.966 162.212 134.593 162.3 134.242C162.388 133.891 162.761 133.694 163.112 133.782C170.023 135.646 178.053 137.818 186.017 139.903C186.368 139.99 186.587 140.363 186.477 140.714C186.411 141 186.148 141.197 185.863 141.197Z" fill="#BD7B4F"/>
<path d="M153.197 132.443C153.131 132.443 153.087 132.443 153.021 132.421C149.862 131.565 145.672 130.447 141.481 129.328C141.13 129.24 140.911 128.867 141.021 128.516C141.13 128.165 141.481 127.945 141.832 128.055C146.023 129.174 150.191 130.293 153.372 131.149C153.723 131.236 153.921 131.609 153.833 131.96C153.745 132.246 153.482 132.443 153.197 132.443Z" fill="#BD7B4F"/>
<path d="M131.783 126.718C131.718 126.718 131.652 126.718 131.608 126.696C123.315 124.304 114.78 122.088 106.531 119.938C100.915 118.468 95.1228 116.955 89.4405 115.419C89.0894 115.331 88.892 114.958 88.9797 114.607C89.0675 114.256 89.4405 114.059 89.7915 114.146C95.4519 115.682 101.244 117.196 106.86 118.666C115.131 120.816 123.666 123.054 131.981 125.445C132.332 125.555 132.529 125.906 132.442 126.257C132.332 126.52 132.069 126.718 131.783 126.718Z" fill="#BD7B4F"/>
<path d="M81.6955 113.291C81.6297 113.291 81.5858 113.291 81.52 113.269C76.8908 111.996 72.2396 110.746 67.6104 109.473C67.2594 109.386 67.0619 109.013 67.1497 108.662C67.2374 108.311 67.6104 108.113 67.9614 108.201C72.5906 109.473 77.2418 110.746 81.871 111.996C82.222 112.084 82.4195 112.457 82.3317 112.808C82.244 113.093 81.9807 113.291 81.6955 113.291Z" fill="#BD7B4F"/>
<path d="M61.1165 107.652C61.0507 107.652 61.0068 107.652 60.941 107.63C56.597 106.423 52.2311 105.238 47.8871 104.032C45.9564 103.505 43.9599 103.044 42.0293 102.584C39.6159 102.035 37.1368 101.443 34.7015 100.719C34.3505 100.609 34.153 100.236 34.2627 99.9071C34.3724 99.5781 34.7454 99.3587 35.0745 99.4684C37.444 100.192 39.9231 100.763 42.3145 101.311C44.2452 101.772 46.2636 102.233 48.2162 102.781C52.5602 103.988 56.9042 105.195 61.2701 106.379C61.6211 106.467 61.8186 106.84 61.7308 107.191C61.665 107.476 61.4017 107.652 61.1165 107.652Z" fill="#BD7B4F"/>
<path d="M186.303 164.781C186.193 164.781 186.083 164.759 185.996 164.694C179.26 161.118 172.547 157.147 166.075 153.307C162.104 150.96 158.001 148.524 153.942 146.221C153.635 146.045 153.525 145.628 153.701 145.321C153.876 145.014 154.293 144.904 154.6 145.08C158.681 147.405 162.784 149.819 166.755 152.188C173.227 156.028 179.918 159.977 186.632 163.553C186.961 163.728 187.071 164.123 186.895 164.452C186.764 164.672 186.522 164.781 186.303 164.781Z" fill="#BD7B4F"/>
<path d="M140.602 138.432C140.493 138.432 140.383 138.411 140.273 138.345C139.637 137.972 139.001 137.599 138.343 137.226C138.036 137.05 137.926 136.633 138.101 136.326C138.277 136.019 138.694 135.909 139.001 136.085C139.637 136.458 140.273 136.831 140.932 137.204C141.239 137.379 141.348 137.796 141.173 138.103C141.063 138.323 140.844 138.432 140.602 138.432Z" fill="#BD7B4F"/>
<path d="M130.467 132.531C130.358 132.531 130.248 132.509 130.138 132.443C126.101 130.052 121.977 127.638 117.501 125.071C108.528 119.872 99.4232 114.672 91.6786 110.284C91.3715 110.109 91.2618 109.714 91.4373 109.385C91.6128 109.078 92.0077 108.968 92.3368 109.143C100.081 113.531 109.208 118.731 118.181 123.931C122.635 126.519 126.782 128.933 130.818 131.324C131.126 131.5 131.235 131.917 131.06 132.224C130.906 132.399 130.687 132.531 130.467 132.531Z" fill="#BD7B4F"/>
<path d="M85.119 106.379C85.0093 106.379 84.8996 106.357 84.7899 106.291L51.9247 87.3136C51.6176 87.1381 51.5079 86.7212 51.6834 86.4141C51.8589 86.1069 52.2757 85.9972 52.5829 86.1728L85.4481 105.15C85.7552 105.326 85.8649 105.743 85.6894 106.05C85.5797 106.269 85.3603 106.379 85.119 106.379Z" fill="#BD7B4F"/>
<path d="M46.6148 84.1322C46.5051 84.1322 46.3954 84.1103 46.2857 84.0445L34.1532 77.0677C33.8461 76.8922 33.7364 76.4754 33.9119 76.1682C34.0874 75.8611 34.5043 75.7514 34.8114 75.9269L46.9219 82.9256C47.2291 83.1011 47.3388 83.5179 47.1633 83.8251C47.0536 84.0225 46.8342 84.1322 46.6148 84.1322Z" fill="#BD7B4F"/>
<path d="M160.414 170.991C160.238 170.991 160.085 170.925 159.953 170.794C158.417 169.258 156.882 167.722 155.346 166.186C155.083 165.923 155.083 165.506 155.346 165.265C155.609 165.002 156.026 165.002 156.267 165.265C157.803 166.801 159.339 168.336 160.875 169.872C161.138 170.135 161.138 170.552 160.875 170.794C160.765 170.925 160.589 170.991 160.414 170.991Z" fill="#BD7B4F"/>
<path d="M149.488 160.131C149.313 160.131 149.159 160.065 149.027 159.933C145.035 156.006 140.8 151.772 135.666 146.572C132.31 143.172 128.909 139.683 125.596 136.327C122.174 132.838 118.641 129.218 115.153 125.686C106.882 117.305 100.454 110.965 94.3546 105.129C94.0913 104.887 94.0913 104.471 94.3326 104.207C94.574 103.944 94.9908 103.944 95.2541 104.185C101.375 110.021 107.803 116.362 116.075 124.765C119.563 128.297 123.095 131.917 126.518 135.405C129.809 138.762 133.209 142.25 136.566 145.651C141.678 150.829 145.912 155.085 149.905 158.99C150.168 159.253 150.168 159.67 149.905 159.911C149.817 160.065 149.642 160.131 149.488 160.131Z" fill="#BD7B4F"/>
<path d="M88.7823 99.3592C88.6068 99.3592 88.4532 99.2934 88.3216 99.1617C83.6485 94.5545 78.9096 89.8375 74.2365 85.1425C73.9732 84.8792 73.9732 84.4623 74.2365 84.221C74.4998 83.9577 74.9166 83.9577 75.158 84.221C79.8311 88.8941 84.57 93.6111 89.243 98.2183C89.5063 98.4816 89.5063 98.8985 89.243 99.1398C89.1114 99.2934 88.9359 99.3592 88.7823 99.3592Z" fill="#BD7B4F"/>
<path d="M70.1121 80.7548C69.9366 80.7548 69.7831 80.689 69.6514 80.5574C66.3825 77.2665 63.0916 73.9756 59.9103 70.7285C59.6471 70.4653 59.6471 70.0484 59.9103 69.8071C60.1736 69.5438 60.5905 69.5438 60.8318 69.8071C64.0349 73.0322 67.3039 76.345 70.5729 79.6359C70.8361 79.8992 70.8361 80.316 70.5729 80.5574C70.4412 80.711 70.2877 80.7548 70.1121 80.7548Z" fill="#BD7B4F"/>
<path d="M146.57 183.649C146.329 183.649 146.11 183.518 146 183.32C144.815 181.17 143.696 179.196 142.599 177.265C142.424 176.958 142.534 176.541 142.841 176.366C143.148 176.19 143.565 176.3 143.74 176.607C144.837 178.538 145.934 180.534 147.141 182.684C147.316 182.991 147.207 183.408 146.878 183.584C146.79 183.606 146.68 183.649 146.57 183.649Z" fill="#BD7B4F"/>
<path d="M138.014 168.709C137.773 168.709 137.553 168.578 137.422 168.358C136.215 166.076 134.987 164.102 133.67 161.996C133.231 161.316 132.815 160.636 132.376 159.933L132.354 159.89C130.665 156.73 128.931 153.461 126.803 150.697L126.737 150.587L126.693 150.456C125.838 147.45 124.105 144.861 122.284 142.119C121.472 140.89 120.616 139.618 119.848 138.301L119.826 138.257C118.708 135.888 117.325 133.672 115.965 131.522C114.758 129.591 113.508 127.595 112.477 125.533L112.433 125.445C112.367 125.225 112.301 125.028 112.257 124.874C112.17 124.501 112.104 124.238 111.862 123.887C110.239 121.496 108.901 119.126 107.628 116.823C106.356 114.563 105.061 112.215 103.46 109.868L103.416 109.802C103.262 109.517 103.196 109.166 103.153 108.881C103.109 108.683 103.065 108.464 103.021 108.332C100.739 105.129 99.0499 102.321 97.558 99.2492C97.4044 98.9201 97.536 98.5252 97.8651 98.3716C98.1942 98.218 98.5891 98.3496 98.7427 98.6787C100.191 101.706 101.858 104.449 104.118 107.63L104.162 107.718C104.315 108.003 104.381 108.354 104.425 108.639C104.469 108.837 104.513 109.056 104.579 109.188C106.202 111.579 107.518 113.927 108.791 116.208C110.063 118.468 111.358 120.816 112.959 123.163C113.332 123.712 113.442 124.15 113.552 124.567C113.596 124.721 113.618 124.852 113.683 125.006C114.693 127.002 115.855 128.867 117.084 130.842C118.444 133.014 119.848 135.252 120.989 137.687C121.713 138.937 122.547 140.188 123.359 141.395C125.136 144.071 126.979 146.836 127.922 149.995C130.072 152.825 131.827 156.094 133.517 159.253C133.933 159.933 134.372 160.614 134.789 161.294C136.062 163.312 137.378 165.418 138.607 167.744C138.782 168.073 138.65 168.468 138.321 168.643C138.234 168.687 138.124 168.709 138.014 168.709Z" fill="#BD7B4F"/>
<path d="M93.28 91.3285C93.0606 91.3285 92.8193 91.2188 92.7096 90.9994L92.2927 90.2535C91.3274 88.5642 90.3621 86.8748 89.3748 85.1636C89.1993 84.8564 89.309 84.4396 89.6161 84.2641C89.9233 84.0885 90.3401 84.1982 90.5156 84.5054C91.481 86.1947 92.4463 87.8841 93.4336 89.5953L93.8504 90.3413C94.0259 90.6484 93.9162 91.0653 93.6091 91.2408C93.4994 91.3066 93.3897 91.3285 93.28 91.3285Z" fill="#BD7B4F"/>
<path d="M86.2804 79.1088C86.061 79.1088 85.8196 78.9992 85.7099 78.7798C80.9052 70.3989 77.1755 63.9707 73.6433 57.9593C73.4678 57.6521 73.5555 57.2353 73.8846 57.0598C74.1918 56.8843 74.6086 56.972 74.7841 57.3011C78.3164 63.3125 82.0461 69.7407 86.8727 78.1216C87.0482 78.4287 86.9385 78.8456 86.6314 79.0211C86.4998 79.0869 86.3901 79.1088 86.2804 79.1088Z" fill="#BD7B4F"/>
<path d="M129.567 192.513C129.282 192.513 129.018 192.315 128.93 192.03C128.075 188.981 127.241 185.909 126.407 182.86C126.32 182.509 126.517 182.158 126.868 182.048C127.219 181.96 127.57 182.158 127.68 182.509C128.514 185.558 129.369 188.63 130.203 191.679C130.291 192.03 130.093 192.381 129.742 192.491C129.676 192.513 129.633 192.513 129.567 192.513Z" fill="#BD7B4F"/>
<path d="M121.758 163.334C121.473 163.334 121.21 163.136 121.122 162.851C116.142 143.83 110.942 124.633 105.896 106.05C104.536 101.048 103.197 96.0458 101.837 91.0436C101.749 90.6925 101.947 90.3415 102.298 90.2318C102.649 90.1441 103 90.3415 103.11 90.6925C104.47 95.7167 105.808 100.719 107.168 105.699C112.193 124.282 117.392 143.501 122.394 162.522C122.482 162.873 122.285 163.224 121.934 163.334C121.89 163.334 121.824 163.334 121.758 163.334Z" fill="#BD7B4F"/>
<path d="M98.9622 78.2742C98.677 78.2742 98.4137 78.0767 98.326 77.7915C97.8872 76.168 97.4703 74.5664 97.0535 72.9429C96.3076 70.1347 95.5616 67.3264 94.8157 64.5182C94.7279 64.1672 94.9254 63.8161 95.2764 63.7064C95.6274 63.6187 95.9785 63.8161 96.0882 64.1672C96.8341 66.9754 97.58 69.7836 98.326 72.5919C98.7428 74.2154 99.1816 75.817 99.5985 77.4405C99.6862 77.7915 99.4888 78.1425 99.1377 78.2522C99.0719 78.2742 99.0061 78.2742 98.9622 78.2742Z" fill="#BD7B4F"/>
<path d="M93.3237 57.1247C93.0385 57.1247 92.7752 56.9272 92.6875 56.642C91.9415 53.8996 91.2614 51.3765 90.5813 48.9413C90.4935 48.5902 90.691 48.2392 91.042 48.1295C91.3931 48.0418 91.7441 48.2392 91.8538 48.5903C92.5339 51.0255 93.214 53.5485 93.9599 56.291C94.0477 56.642 93.8503 56.993 93.4992 57.1027C93.4334 57.1247 93.3895 57.1247 93.3237 57.1247Z" fill="#BD7B4F"/>
<path d="M110.392 207.805C110.37 207.805 110.37 207.805 110.348 207.805C109.975 207.783 109.712 207.454 109.734 207.103C109.909 204.536 109.997 201.75 110.019 198.261C110.019 197.888 110.304 197.603 110.677 197.603C111.05 197.603 111.335 197.91 111.335 198.261C111.313 201.75 111.226 204.602 111.05 207.191C111.028 207.542 110.743 207.805 110.392 207.805Z" fill="#BD7B4F"/>
<path d="M110.655 192.249C110.304 192.249 109.997 191.964 109.997 191.591C109.975 188.037 109.909 184.395 109.843 180.907C109.777 176.387 109.689 171.714 109.689 167.107C109.689 166.734 109.975 166.449 110.348 166.449C110.721 166.449 111.006 166.734 111.006 167.107C111.028 171.692 111.094 176.365 111.159 180.885C111.225 184.395 111.269 188.015 111.313 191.591C111.313 191.942 111.028 192.249 110.655 192.249Z" fill="#BD7B4F"/>
<path d="M110.303 146.681C109.952 146.681 109.645 146.396 109.645 146.023C109.558 137.313 109.601 128.516 109.667 120.003C109.755 108.441 109.821 96.4842 109.514 84.6589C109.514 84.2859 109.799 84.0007 110.15 83.9788C110.523 83.9788 110.808 84.264 110.83 84.615C111.137 96.4842 111.071 108.441 110.984 120.003C110.918 128.516 110.874 137.291 110.962 146.001C110.962 146.374 110.676 146.681 110.303 146.681Z" fill="#BD7B4F"/>
<path d="M110.305 72.1534C110.305 72.1534 110.283 72.1534 110.305 72.1534C109.932 72.1534 109.646 71.8463 109.646 71.4952C109.668 68.336 109.712 65.1767 109.734 62.0832C109.734 61.7103 110.041 61.425 110.392 61.425C110.765 61.425 111.051 61.7322 111.051 62.0832C111.007 65.1767 110.985 68.336 110.963 71.4952C110.963 71.8682 110.656 72.1534 110.305 72.1534Z" fill="#BD7B4F"/>
<path d="M110.392 57.1246C110.019 57.1246 109.734 56.8175 109.734 56.4664C109.777 53.5046 109.69 50.4989 109.624 47.581C109.558 45.2774 109.514 42.9079 109.492 40.5604C109.492 40.1874 109.777 39.9022 110.15 39.9022C110.523 39.9022 110.809 40.1874 110.809 40.5604C110.809 42.886 110.874 45.2554 110.94 47.5371C111.006 50.477 111.094 53.5046 111.05 56.4884C111.05 56.8394 110.743 57.1246 110.392 57.1246Z" fill="#BD7B4F"/>
<path d="M110.282 36.0413H110.26C109.887 36.0194 109.624 35.7122 109.646 35.3612C109.668 34.725 109.712 34.0668 109.756 33.4525C109.777 33.0795 110.107 32.8163 110.458 32.8382C110.831 32.8601 111.094 33.1892 111.072 33.5402C111.028 34.1546 110.984 34.7908 110.962 35.427C110.918 35.7561 110.633 36.0413 110.282 36.0413Z" fill="#BD7B4F"/>
<path d="M144.377 139.441L138.892 143.017C137.641 141.986 135.886 140.253 135.075 138.147C134.614 136.962 134.416 131.675 136.545 119.455C136.983 116.932 136.479 114.343 135.097 112.171C124.851 95.8698 117.655 79.503 117.589 79.3275L116.119 76.0146L112.894 77.7479C111.929 78.2744 111.117 78.779 110.415 79.3056C109.691 78.779 108.857 78.2744 107.914 77.7479L104.754 76.0146L103.284 79.3494C103.219 79.503 96.1103 95.6943 85.7549 112.171C84.3946 114.343 83.8681 116.932 84.3288 119.455C86.4569 131.675 86.2595 136.962 85.7987 138.147C84.987 140.253 83.2318 141.986 81.9813 143.017L76.4965 139.441L63.8594 160.569L94.377 179.898L106.378 159.691L105.062 157.87C105.786 157.432 106.553 156.905 107.321 156.291C108.33 155.479 109.427 154.426 110.393 153.11C111.38 154.404 112.477 155.457 113.486 156.269C114.232 156.883 115.088 157.388 115.79 157.827L114.43 159.648L126.452 179.876L157.014 160.569L144.377 139.441Z" fill="#BD7B4F"/>
<path d="M143.654 142.512L154.031 159.844L127.221 176.804L117.107 159.801L119.126 157.08C118.051 156.619 116.537 155.808 115.001 154.579C112.434 152.495 109.385 148.743 109.385 142.622V87.5981C109.385 82.8592 110.328 81.6964 114.058 79.6561L115.133 79.0637L115.616 80.1826C115.681 80.3362 122.856 96.7469 133.277 113.311C134.352 115.022 134.747 117.063 134.418 119.059C132.64 129.129 132.136 136.545 133.057 138.914C134.374 142.337 137.533 144.794 138.827 145.694L143.654 142.512ZM151.004 159.142L142.93 145.672L139.617 147.844L138.279 146.176C138.257 146.198 137.818 146.549 136.963 147.142C135.273 145.891 132.333 143.302 130.951 139.748C129.481 135.953 131.105 124.939 132.202 118.686C132.465 117.238 132.158 115.768 131.39 114.518C122.461 100.301 115.901 86.2379 114.08 82.223C111.996 83.4516 111.623 84.1756 111.623 87.6201V107.958C112.149 107.98 112.785 108.111 113.444 108.506C117.173 110.634 119.257 118.664 119.63 132.376L117.393 132.442C117.239 126.672 116.427 112.96 112.412 110.481C112.105 110.305 111.842 110.218 111.623 110.196V142.644C111.623 151.705 119.17 154.82 120.881 155.413C120.771 155.457 120.64 155.5 120.53 155.544L121.276 157.651C121.386 157.607 121.495 157.585 121.605 157.541L119.806 159.976L127.989 173.754L151.004 159.142Z" fill="black"/>
<path d="M142.929 145.65L151.003 159.12L127.967 173.688L119.783 159.91L121.582 157.475C132.64 153.482 139.375 148.107 139.66 147.866L139.594 147.8L142.929 145.65Z" fill="black"/>
<path d="M139.617 147.822L139.682 147.888C139.397 148.107 132.662 153.504 121.604 157.497L122.767 155.94L121.231 155.501C121.188 155.479 121.078 155.457 120.902 155.391C128.822 152.517 134.549 148.853 136.984 147.142C137.686 147.668 138.191 147.976 138.256 147.997L138.849 148.349L139.617 147.822Z" fill="black"/>
<path d="M139.618 147.822L138.828 148.326L138.235 147.975C138.17 147.931 137.687 147.646 136.963 147.12C137.797 146.527 138.257 146.154 138.279 146.154L139.618 147.822Z" fill="black"/>
<path d="M122.746 155.939L121.583 157.497C121.473 157.541 121.363 157.563 121.254 157.606L120.508 155.5C120.618 155.456 120.749 155.413 120.859 155.369C121.034 155.434 121.144 155.456 121.188 155.478L122.746 155.939Z" fill="black"/>
<path d="M111.622 87.6002V142.624C111.622 148.745 108.55 152.519 105.984 154.581C104.448 155.832 102.89 156.621 101.815 157.082L103.768 159.781L93.6537 176.806L66.8438 159.869L77.2211 142.536L82.0916 145.718C83.386 144.818 86.5453 142.361 87.8617 138.938C88.7612 136.569 88.2566 129.131 86.5014 119.061C86.1504 117.087 86.5672 115.046 87.6423 113.335C98.0415 96.7709 105.26 80.3603 105.325 80.2067L105.808 79.0878L106.883 79.6801C110.459 81.6327 111.622 82.6858 111.622 87.6002ZM109.384 142.624V110.176C109.143 110.198 108.836 110.286 108.485 110.483C104.382 113.028 103.57 126.674 103.417 132.422L101.179 132.357C101.552 118.732 103.658 110.702 107.432 108.508C108.112 108.114 108.792 107.96 109.384 107.938V87.6002C109.384 84.1996 108.989 83.4537 106.861 82.2032C105.04 86.1961 98.4584 100.303 89.5291 114.498C88.7392 115.748 88.454 117.218 88.6954 118.666C89.7923 124.897 91.3939 135.933 89.9459 139.728C88.5637 143.304 85.6238 145.871 83.9345 147.122C83.1008 146.529 82.6401 146.178 82.6182 146.156L81.9161 147.034L81.2799 147.824L77.967 145.652L69.8714 159.145L92.9077 173.712L101.113 159.934L99.3579 157.499C99.4676 157.543 99.5773 157.587 99.687 157.609L100.433 155.503C100.323 155.459 100.192 155.415 100.082 155.371C101.771 154.801 109.384 151.707 109.384 142.624Z" fill="black"/>
<path d="M99.3576 157.5L101.113 159.935L92.9074 173.713L69.8711 159.145L77.9448 145.674L81.2576 147.846L81.1918 147.912C81.499 148.131 88.2782 153.507 99.3576 157.5Z" fill="black"/>
<path d="M100.433 155.502L99.6867 157.609C99.577 157.565 99.4673 157.521 99.3576 157.499L98.2168 155.919L99.7526 155.48C99.7964 155.458 99.9061 155.437 100.082 155.371C100.191 155.437 100.301 155.48 100.433 155.502Z" fill="black"/>
<path d="M100.083 155.393C99.9072 155.459 99.7975 155.481 99.7536 155.503L98.2179 155.941L99.3587 157.521C88.3013 153.528 81.5001 148.153 81.2148 147.934L81.2807 147.868L82.0705 148.394L82.6628 148.043C82.7287 147.999 83.2333 147.714 83.9353 147.188C86.3925 148.855 92.1407 152.519 100.083 155.393Z" fill="black"/>
<path d="M83.934 147.122C83.21 147.648 82.7273 147.955 82.6615 147.977L82.0691 148.328L81.2793 147.802L81.9155 147.012L82.6176 146.135C82.6395 146.178 83.1003 146.551 83.934 147.122Z" fill="black"/>
<path d="M82.5966 146.156L81.8945 147.034L82.5966 146.156Z" fill="black"/>
</g>
<defs>
<filter id="filter0_d_1069_22930" x="0.828125" y="0.836914" width="219.15" height="240.968" filterUnits="userSpaceOnUse" color-interpolation-filters="sRGB">
<feFlood flood-opacity="0" result="BackgroundImageFix"/>
<feColorMatrix in="SourceAlpha" type="matrix" values="0 0 0 0 0 0 0 0 0 0 0 0 0 0 0 0 0 0 127 0" result="hardAlpha"/>
<feOffset dy="1"/>
<feGaussianBlur stdDeviation="16.5"/>
<feComposite in2="hardAlpha" operator="out"/>
<feColorMatrix type="matrix" values="0 0 0 0 0.737255 0 0 0 0 0.478431 0 0 0 0 0.305882 0 0 0 1 0"/>
<feBlend mode="normal" in2="BackgroundImageFix" result="effect1_dropShadow_1069_22930"/>
<feBlend mode="normal" in="SourceGraphic" in2="effect1_dropShadow_1069_22930" result="shape"/>
</filter>
</defs>
</svg>
