<svg width="6" height="80" viewBox="0 0 6 80" fill="none" xmlns="http://www.w3.org/2000/svg">
<path fill-rule="evenodd" clip-rule="evenodd" d="M5.51185 5.64052L3.23005 8.09323L5.35348 10.3783L5.17038 10.5485L5.35351 10.7186L3.23016 13.0036L5.51185 15.4562L3.23008 17.9089L5.35351 20.194L5.17038 20.3641L5.35351 20.5343L3.23016 22.8193L5.51185 25.2719L3.22993 27.7247L5.35368 30.0146L5.1704 30.1846L5.35351 30.3548L3.23031 32.6396L5.51185 35.0872L3.22993 37.5449L5.35351 39.8301L5.17038 40.0003L5.35351 40.1705L3.23016 42.4555L5.51185 44.9081L3.23008 47.3607L5.35351 49.6458L5.17038 49.816L5.35351 49.9862L3.23016 52.2712L5.51185 54.7238L3.23008 57.1764L5.35351 59.4615L5.17038 59.6317L5.35351 59.8019L3.23016 62.0869L5.51185 64.5394L3.22785 66.9945L5.35351 69.282L5.1704 69.4522L5.35351 69.6223L3.23016 71.9073L5.51185 74.3599L3.23007 76.8126L5.35351 79.0977L4.98724 79.438L2.88871 77.1797L0.790259 79.4379L0.423989 79.0976L2.54734 76.8126L0.265658 74.36L2.54758 71.9072L0.423822 69.6173L0.607105 69.4473L0.423989 69.2771L2.54527 66.9944L0.265813 64.5394L2.54742 62.0869L0.423988 59.8018L0.607125 59.6316L0.423989 59.4614L2.54735 57.1764L0.265657 54.7238L2.54742 52.2712L0.423988 49.9861L0.607127 49.8159L0.423989 49.6457L2.54735 47.3607L0.265657 44.9081L2.54742 42.4555L0.423988 40.1704L0.607126 40.0002L0.423989 39.83L2.54735 37.545L0.265657 35.0924L2.54758 32.6396L0.423822 30.3497L0.607104 30.1797L0.423989 30.0096L2.54719 27.7247L0.265657 25.2771L2.54758 22.8195L0.423988 20.5342L0.607127 20.3641L0.423989 20.1939L2.54734 17.9089L0.265657 15.4563L2.54742 13.0036L0.423988 10.7185L0.607124 10.5484L0.423989 10.3782L2.54731 8.09323L0.265625 5.64064L2.54742 3.18793L0.423988 0.902863L0.790258 0.5625L2.88879 2.82077L4.98721 0.562617L5.35348 0.902979L3.23016 3.18793L5.51185 5.64052ZM2.88879 3.55506L4.82893 5.64052L2.88868 7.7261L0.948539 5.64064L2.88879 3.55506ZM2.88868 8.46039L0.948401 10.5484L2.88879 12.6365L4.82907 10.5485L2.88868 8.46039ZM0.948572 15.4563L2.88879 13.3707L4.82893 15.4562L2.88871 17.5418L0.948572 15.4563ZM0.948399 20.3641L2.88871 18.276L4.8291 20.3641L2.88879 22.4522L0.948399 20.3641ZM2.88897 23.1866L0.948572 25.2765L2.88853 27.3576L4.82893 25.2719L2.88897 23.1866ZM2.88854 28.0919L0.948264 30.1799L2.88897 32.2724L4.82924 30.1845L2.88854 28.0919ZM0.948572 35.0924L2.88897 33.0067L4.82893 35.0879L2.88853 37.1777L0.948572 35.0924ZM0.9484 40.0002L2.88871 37.9122L4.8291 40.0003L2.88879 42.0883L0.9484 40.0002ZM2.88879 42.8226L0.948572 44.9081L2.88871 46.9936L4.82893 44.9081L2.88879 42.8226ZM2.88871 47.7279L0.948398 49.8159L2.88879 51.904L4.8291 49.816L2.88871 47.7279ZM0.948572 54.7238L2.88879 52.6383L4.82893 54.7238L2.88871 56.8093L0.948572 54.7238ZM0.9484 59.6316L2.88871 57.5436L4.8291 59.6317L2.88879 61.7197L0.9484 59.6316ZM2.88879 62.454L0.948417 64.5397L2.88666 66.6272L4.82893 64.5394L2.88879 62.454ZM2.88648 67.3617L0.948263 69.4474L2.88897 71.54L4.82909 69.4522L2.88648 67.3617ZM0.948572 74.36L2.88879 72.2745L4.82893 74.3599L2.88871 76.4455L0.948572 74.36Z" fill="#BD7B4F"/>
</svg>
