<svg width="6" height="80" viewBox="0 0 6 80" fill="none" xmlns="http://www.w3.org/2000/svg">
<path fill-rule="evenodd" clip-rule="evenodd" d="M5.422 5.45693L3.1402 7.90964L5.26364 10.1947L5.08054 10.3649L5.26367 10.535L3.14031 12.82L5.422 15.2726L3.14024 17.7253L5.26367 20.0104L5.08053 20.1805L5.26367 20.3507L3.14031 22.6357L5.422 25.0883L3.14008 27.5412L5.26384 29.831L5.08055 30.001L5.26367 30.1712L3.14047 32.456L5.422 34.9036L3.14008 37.3613L5.26367 39.6465L5.08053 39.8167L5.26367 39.9869L3.14031 42.2719L5.422 44.7245L3.14024 47.1771L5.26367 49.4622L5.08053 49.6324L5.26367 49.8026L3.14031 52.0876L5.422 54.5402L3.14024 56.9928L5.26367 59.2779L5.08053 59.4481L5.26367 59.6183L3.14031 61.9033L5.422 64.3559L3.138 66.8109L5.26367 69.0984L5.08055 69.2686L5.26367 69.4387L3.14032 71.7237L5.422 74.1763L3.14023 76.629L5.26367 78.9141L4.8974 79.2544L2.79886 76.9962L0.700415 79.2543L0.334145 78.914L2.4575 76.629L0.175814 74.1764L2.45773 71.7236L0.333978 69.4337L0.517261 69.2637L0.334145 69.0935L2.45542 66.8108L0.175969 64.3558L2.45758 61.9033L0.334145 59.6182L0.517281 59.448L0.334145 59.2778L2.4575 56.9928L0.175814 54.5402L2.45758 52.0876L0.334145 49.8025L0.517283 49.6323L0.334145 49.4621L2.4575 47.1771L0.175814 44.7246L2.45758 42.2719L0.334145 39.9868L0.517282 39.8166L0.334145 39.6464L2.4575 37.3615L0.175814 34.9089L2.45773 32.456L0.333978 30.1661L0.51726 29.9961L0.334145 29.826L2.45734 27.5412L0.175814 25.0935L2.45773 22.6359L0.334145 20.3507L0.517283 20.1805L0.334145 20.0103L2.4575 17.7253L0.175814 15.2727L2.45758 12.82L0.334145 10.535L0.51728 10.3648L0.334145 10.1946L2.45747 7.90964L0.175781 5.45705L2.45758 3.00434L0.334145 0.719269L0.700415 0.378906L2.79895 2.63718L4.89737 0.379023L5.26364 0.719385L3.14032 3.00434L5.422 5.45693ZM2.79895 3.37146L4.73909 5.45693L2.79883 7.54251L0.858696 5.45705L2.79895 3.37146ZM2.79883 8.2768L0.858557 10.3648L2.79894 12.4529L4.73922 10.3649L2.79883 8.2768ZM0.858728 15.2727L2.79894 13.1872L4.73909 15.2726L2.79887 17.3582L0.858728 15.2727ZM0.858555 20.1805L2.79887 18.0925L4.73926 20.1805L2.79894 22.2686L0.858555 20.1805ZM2.79913 23.003L0.858728 25.0929L2.79869 27.1741L4.73909 25.0883L2.79913 23.003ZM2.79869 27.9083L0.85842 29.9963L2.79912 32.0888L4.73939 30.0009L2.79869 27.9083ZM0.858728 34.9089L2.79913 32.8231L4.73909 34.9043L2.79869 36.9941L0.858728 34.9089ZM0.858556 39.8166L2.79887 37.7286L4.73926 39.8167L2.79894 41.9047L0.858556 39.8166ZM2.79895 42.639L0.858728 44.7246L2.79887 46.81L4.73909 44.7245L2.79895 42.639ZM2.79887 47.5443L0.858555 49.6323L2.79895 51.7204L4.73926 49.6324L2.79887 47.5443ZM0.858728 54.5402L2.79895 52.4547L4.73909 54.5402L2.79887 56.6257L0.858728 54.5402ZM0.858556 59.448L2.79887 57.36L4.73926 59.4481L2.79895 61.5361L0.858556 59.448ZM2.79895 62.2704L0.858573 64.3561L2.79681 66.4436L4.73909 64.3559L2.79895 62.2704ZM2.79663 67.1781L0.858419 69.2638L2.79913 71.3564L4.73924 69.2686L2.79663 67.1781ZM0.858728 74.1764L2.79895 72.0909L4.73909 74.1763L2.79887 76.2619L0.858728 74.1764Z" fill="#BD7B4F"/>
</svg>
