<svg width="162" height="278" viewBox="0 0 162 278" fill="none" xmlns="http://www.w3.org/2000/svg">
<g clip-path="url(#clip0_8728_4677)">
<g opacity="0.25">
<path d="M160.939 10.6389C160.839 10.6389 160.739 10.6389 160.639 10.5389C157.439 7.13891 154.139 3.83891 150.739 0.638907C150.539 0.538907 150.539 0.238908 150.739 0.138908C150.839 0.0389076 151.139 -0.0610925 151.239 0.138908C154.639 3.33891 157.939 6.63891 161.139 10.0389C161.239 10.2389 161.239 10.4389 161.139 10.5389C161.139 10.6389 161.039 10.6389 160.939 10.6389Z" fill="#BD7B4F"/>
<path d="M160.939 22.8394C160.839 22.8394 160.739 22.8394 160.639 22.7394C153.839 14.8394 146.439 7.43935 138.639 0.739356C138.439 0.639356 138.439 0.339356 138.639 0.239356C138.739 0.0393554 139.039 0.0393554 139.139 0.239356C147.039 7.03935 154.439 14.4394 161.239 22.3394C161.339 22.5394 161.339 22.7394 161.239 22.8394C161.139 22.8394 161.039 22.8394 160.939 22.8394Z" fill="#BD7B4F"/>
<path d="M160.939 35.739C160.839 35.739 160.739 35.739 160.639 35.639C150.439 22.639 138.739 10.939 125.739 0.738927C125.539 0.638927 125.539 0.338928 125.639 0.238928C125.739 0.0389276 126.039 0.0389276 126.139 0.138928C139.139 10.339 150.939 22.139 161.139 35.139C161.239 35.339 161.239 35.539 161.039 35.639C161.139 35.739 161.039 35.739 160.939 35.739Z" fill="#BD7B4F"/>
<path d="M112.239 322.339C112.139 322.339 112.039 322.239 111.939 322.139C111.839 321.939 111.839 321.739 112.039 321.639C131.039 308.339 147.339 292.039 160.639 273.039C160.739 272.839 161.039 272.839 161.139 272.939C161.339 273.039 161.339 273.339 161.239 273.439C147.939 292.439 131.539 308.839 112.439 322.139C112.439 322.339 112.339 322.339 112.239 322.339Z" fill="#BD7B4F"/>
<path d="M160.939 49.439C160.839 49.439 160.739 49.339 160.639 49.239C147.339 30.339 131.039 13.939 112.039 0.738927C111.839 0.638927 111.839 0.338928 111.939 0.238928C112.039 0.0389276 112.339 0.0389276 112.439 0.138928C131.439 13.439 147.839 29.839 161.139 48.939C161.239 49.139 161.239 49.339 161.039 49.439C161.139 49.439 161.039 49.439 160.939 49.439Z" fill="#BD7B4F"/>
<path d="M160.939 64.439C160.839 64.439 160.739 64.339 160.639 64.239C144.939 38.339 123.039 16.439 97.1393 0.738927C96.9393 0.638927 96.9393 0.438928 97.0393 0.238928C97.1393 0.0389276 97.3393 0.0389276 97.5393 0.138928C123.539 15.839 145.539 37.939 161.239 63.839C161.339 64.039 161.239 64.239 161.139 64.339C161.039 64.339 161.039 64.439 160.939 64.439Z" fill="#BD7B4F"/>
<path d="M97.3392 322.339C97.2392 322.339 97.1392 322.239 97.0392 322.139C96.9392 321.939 97.0392 321.739 97.1392 321.639C123.039 305.939 144.939 284.039 160.639 258.139C160.739 257.939 160.939 257.939 161.139 258.039C161.339 258.139 161.339 258.339 161.239 258.539C145.539 284.539 123.439 306.539 97.5392 322.239C97.4392 322.339 97.4392 322.339 97.3392 322.339Z" fill="#BD7B4F"/>
<path d="M160.939 81.2392C160.839 81.2392 160.639 81.1392 160.639 81.0392C143.339 46.5392 114.839 18.0392 80.2392 0.739231C80.0392 0.639231 79.9392 0.439231 80.0392 0.239231C80.1392 0.0392304 80.3392 -0.0607694 80.5392 0.0392304C115.239 17.3392 143.839 46.0392 161.239 80.7392C161.339 80.9392 161.239 81.1392 161.039 81.2392C161.039 81.2392 161.039 81.2392 160.939 81.2392Z" fill="#BD7B4F"/>
<path d="M80.4393 322.339C80.3393 322.339 80.1393 322.239 80.1393 322.139C80.0393 321.939 80.1393 321.739 80.3393 321.639C114.839 304.339 143.439 275.839 160.639 241.339C160.739 241.139 160.939 241.039 161.139 241.139C161.339 241.239 161.439 241.439 161.339 241.639C144.039 276.339 115.339 304.939 80.6393 322.339C80.5393 322.339 80.5393 322.339 80.4393 322.339Z" fill="#BD7B4F"/>
<path d="M160.939 101.739C160.739 101.739 160.639 101.639 160.639 101.539C143.239 54.8392 106.539 18.1392 59.8393 0.739231C59.6393 0.639231 59.5393 0.439231 59.6393 0.239231C59.7393 0.0392304 59.9393 -0.0607694 60.1393 0.0392304C107.039 17.4392 143.839 54.3392 161.339 101.239C161.439 101.439 161.339 101.639 161.139 101.739C161.039 101.739 160.939 101.739 160.939 101.739Z" fill="#BD7B4F"/>
<path d="M60.0394 322.339C59.8394 322.339 59.7394 322.239 59.7394 322.139C59.6394 321.939 59.7394 321.739 59.9394 321.639C106.539 304.239 143.339 267.539 160.639 220.939C160.739 220.739 160.939 220.639 161.139 220.739C161.339 220.839 161.439 221.039 161.339 221.239C143.939 268.139 107.039 304.939 60.1394 322.439C60.0394 322.339 60.0394 322.339 60.0394 322.339Z" fill="#BD7B4F"/>
<path d="M29.0394 322.339C28.8394 322.339 28.7394 322.239 28.6394 322.039C28.6394 321.839 28.7394 321.639 28.9394 321.639C95.6394 309.739 148.539 256.839 160.539 190.139C160.539 189.939 160.739 189.839 160.939 189.839C161.139 189.839 161.239 190.039 161.239 190.239C149.339 257.239 96.2394 310.339 29.0394 322.339C29.1394 322.339 29.1394 322.339 29.0394 322.339Z" fill="#BD7B4F"/>
<path d="M160.939 132.639C160.739 132.639 160.639 132.539 160.539 132.339C148.639 65.5391 95.8393 12.7391 29.0393 0.739062C28.8393 0.739062 28.7393 0.539062 28.7393 0.339063C28.7393 0.139063 28.9393 0.0390625 29.1393 0.0390625C96.2393 12.0391 149.339 65.1391 161.239 132.239C161.339 132.439 161.239 132.639 160.939 132.639Z" fill="#BD7B4F"/>
<path d="M0.139313 316.739C-40.6607 316.739 -79.0608 301.139 -108.361 272.639C-138.161 243.639 -154.861 204.839 -155.361 163.239C-156.461 77.439 -87.6608 6.73899 -1.86069 5.63899V6.03899V5.63899C83.9393 4.53899 154.539 73.339 155.739 159.139C156.839 244.939 88.0393 315.539 2.2393 316.739C1.53931 316.739 0.83931 316.739 0.139313 316.739ZM0.239304 6.33899C-0.460693 6.33899 -1.16069 6.33899 -1.86069 6.33899C-87.1608 7.53899 -155.761 77.839 -154.561 163.239C-154.061 204.539 -137.361 243.239 -107.761 272.139C-78.1608 300.939 -39.0607 316.539 2.2393 316.039C87.5393 314.939 156.139 244.539 154.939 159.239C153.839 74.439 84.6393 6.33899 0.239304 6.33899Z" fill="#BD7B4F"/>
<path d="M0.139313 308.539C-80.0608 308.539 -145.961 243.939 -147.161 163.439C-147.761 124.039 -133.061 86.8393 -105.561 58.5393C-78.1608 30.2393 -41.3607 14.3393 -2.0607 13.7393V14.1393V13.7393C37.3393 13.1393 74.5393 27.8393 102.839 55.3393C131.139 82.7393 147.039 119.539 147.639 158.839C148.939 240.139 83.8393 307.239 2.53931 308.439C1.63931 308.539 0.939316 308.539 0.139313 308.539ZM0.239304 14.5393C-0.560699 14.5393 -1.2607 14.5393 -2.0607 14.5393C-41.2607 15.1393 -77.7608 30.9393 -105.061 59.0393C-132.361 87.1393 -146.961 124.239 -146.361 163.339C-145.161 243.439 -79.5608 307.739 0.239304 307.739C1.03931 307.739 1.7393 307.739 2.53931 307.739C83.3393 306.539 148.139 239.739 146.939 158.839C146.339 119.639 130.539 83.1393 102.439 55.8393C74.7393 29.1393 38.5393 14.5393 0.239304 14.5393Z" fill="#BD7B4F"/>
<path d="M0.139359 300.44C-75.4607 300.44 -137.661 239.64 -139.061 163.74C-140.361 86.9395 -79.0607 23.3395 -2.36064 21.9395C74.4394 20.5395 137.939 81.8395 139.339 158.64C140.039 195.84 126.139 231.04 100.339 257.84C74.5393 284.639 39.8394 299.74 2.63936 300.34C1.83936 300.44 0.939362 300.44 0.139359 300.44ZM0.239349 22.7395C-0.560654 22.7395 -1.46065 22.7395 -2.26065 22.7395C-78.5608 24.1395 -139.561 87.3395 -138.261 163.64C-136.861 239.94 -73.6607 301.04 2.63936 299.64C39.6394 298.94 74.1393 283.94 99.8393 257.34C125.539 230.74 139.339 195.74 138.639 158.74C137.239 83.2395 75.4393 22.7395 0.239349 22.7395Z" fill="#BD7B4F"/>
<path d="M0.139343 292.239C-70.8608 292.239 -129.361 235.239 -130.861 163.939C-132.361 91.6389 -74.7608 31.6389 -2.56067 30.1389C32.4393 29.4389 65.6393 42.3389 90.9393 66.5389C116.239 90.7389 130.539 123.439 131.239 158.439C131.939 193.439 119.039 226.639 94.8393 251.939C70.6393 277.239 37.9393 291.539 2.93933 292.239C1.93933 292.239 1.03934 292.239 0.139343 292.239ZM0.239334 30.8389C-0.66066 30.8389 -1.66068 30.8389 -2.56067 30.8389C-74.3608 32.4389 -131.561 92.0389 -130.061 163.939C-128.561 234.839 -70.4608 291.539 0.139343 291.539C1.03934 291.539 1.93933 291.539 2.93933 291.539C37.7393 290.839 70.1393 276.539 94.2393 251.439C118.339 226.339 131.239 193.339 130.439 158.539C129.739 123.739 115.439 91.3389 90.3393 67.2389C65.9393 43.6389 34.0393 30.8389 0.239334 30.8389Z" fill="#BD7B4F"/>
<path d="M0.139359 284.039C-31.5606 284.039 -61.5607 272.039 -84.5607 250.139C-108.361 227.539 -121.861 196.939 -122.661 164.139C-124.361 96.3393 -70.5608 39.9393 -2.76065 38.3393C30.0394 37.5393 61.2393 49.5393 84.9393 72.2393C108.739 94.8393 122.239 125.439 123.039 158.239C123.839 191.039 111.839 222.239 89.1394 245.939C66.5394 269.739 35.9394 283.239 3.13936 284.039V283.639V284.039C2.13936 284.039 1.13936 284.039 0.139359 284.039ZM0.239349 39.0393C-0.760651 39.0393 -1.76065 39.0393 -2.76065 39.0393C-70.0608 40.6393 -123.561 96.7393 -121.961 164.139C-121.161 196.739 -107.761 227.139 -84.1608 249.639C-60.5607 272.139 -29.5606 284.139 3.03935 283.339C35.6393 282.539 66.0394 269.139 88.5394 245.539C111.039 221.939 123.039 190.939 122.239 158.339C121.439 125.739 108.039 95.3393 84.4393 72.8393C61.5394 50.9393 31.7393 39.0393 0.239349 39.0393Z" fill="#BD7B4F"/>
<path d="M0.13932 275.939C-61.6607 275.939 -112.761 226.539 -114.561 164.339C-116.261 101.139 -66.2607 48.2391 -2.96069 46.4391C60.2393 44.7391 113.139 94.7391 114.939 157.939C116.739 221.139 66.6393 274.039 3.43931 275.839C2.23931 275.939 1.23932 275.939 0.13932 275.939ZM-113.761 164.339C-112.061 226.139 -61.2607 275.139 0.13932 275.139C1.23932 275.139 2.23932 275.139 3.33932 275.139C66.1393 273.439 115.839 220.839 114.139 158.039C113.339 127.639 100.639 99.3391 78.5393 78.4391C56.4393 57.5391 27.5393 46.4391 -2.96069 47.3391C-65.8607 48.9391 -115.561 101.539 -113.761 164.339Z" fill="#BD7B4F"/>
<path d="M0.13932 267.739C-57.0607 267.739 -104.461 222.139 -106.361 164.539C-108.261 105.839 -61.9608 56.5393 -3.26069 54.6393C25.2393 53.7393 52.3393 63.9393 73.0393 83.4393C93.8393 102.939 105.739 129.339 106.639 157.739C107.539 186.239 97.3393 213.339 77.8393 234.039C58.3393 254.839 31.9393 266.739 3.53931 267.639C2.43932 267.739 1.23932 267.739 0.13932 267.739ZM-105.561 164.539C-103.661 222.839 -54.6607 268.839 3.63932 266.939C31.9393 266.039 58.1393 254.139 77.4393 233.539C96.7393 212.939 106.939 186.039 106.039 157.739C105.139 129.439 93.2393 103.239 72.6393 83.9393C52.0393 64.6393 25.1393 54.4393 -3.16068 55.3393C-61.5608 57.2393 -107.461 106.239 -105.561 164.539Z" fill="#BD7B4F"/>
<path d="M0.139282 259.639C-52.4607 259.639 -96.2607 217.839 -98.1607 164.839C-100.161 110.639 -57.6607 64.8391 -3.46072 62.8391C22.8393 61.8391 47.9393 71.1391 67.1393 89.0391C86.4393 106.939 97.5393 131.239 98.5393 157.539C99.5393 183.839 90.2393 208.939 72.3393 228.139C54.4393 247.439 30.1393 258.539 3.83928 259.539C2.63928 259.639 1.33928 259.639 0.139282 259.639ZM-3.46072 63.1391V63.5391C-57.2607 65.5391 -99.4607 110.939 -97.4607 164.739C-95.4607 218.539 -50.0607 260.739 3.73927 258.739C29.8393 257.739 53.9393 246.739 71.7393 227.639C89.5393 208.539 98.7393 183.639 97.7393 157.539C96.7393 131.439 85.7393 107.339 66.6393 89.5391C47.5393 71.7391 22.6393 62.5391 -3.46072 63.5391V63.1391Z" fill="#BD7B4F"/>
<path d="M0.139351 251.439C-47.8606 251.439 -87.9608 213.439 -90.0608 165.039C-92.1608 115.339 -53.4607 73.1389 -3.76066 70.9389C-2.46066 70.8389 -1.16065 70.8389 0.139351 70.8389C48.1393 70.8389 88.2393 108.839 90.3394 157.239C92.4394 206.939 53.7393 249.139 4.03934 251.339C2.73934 251.439 1.43935 251.439 0.139351 251.439ZM0.239342 71.6389C-1.06066 71.6389 -2.36065 71.6389 -3.66065 71.7389C-52.9607 73.8389 -91.3608 115.739 -89.2608 165.039C-87.1608 213.039 -47.4606 250.739 0.139351 250.739C1.43935 250.739 2.73934 250.739 4.03934 250.639C53.3393 248.539 91.7394 206.639 89.6394 157.339C87.5394 109.339 47.8393 71.6389 0.239342 71.6389Z" fill="#BD7B4F"/>
<path d="M0.139267 243.339C-43.2607 243.339 -79.6608 209.139 -81.8608 165.339C-84.1608 120.039 -49.1607 81.4391 -3.96074 79.1391C17.9393 78.0391 38.9393 85.5391 55.2393 100.239C71.5393 114.939 81.0393 135.139 82.1393 157.039C84.4393 202.239 49.4393 240.939 4.23926 243.139C2.93925 243.239 1.53927 243.339 0.139267 243.339ZM0.239258 79.7391C-1.16074 79.7391 -2.56074 79.7391 -3.96074 79.8391C-48.7607 82.0391 -83.4608 120.339 -81.1608 165.239C-78.9608 208.639 -42.9607 242.539 0.0392609 242.539C1.43926 242.539 2.73927 242.539 4.13927 242.439C48.9393 240.239 83.6393 201.939 81.3393 157.039C80.2393 135.339 70.7393 115.339 54.6393 100.739C39.7393 87.1391 20.4393 79.7391 0.239258 79.7391Z" fill="#BD7B4F"/>
<path d="M0.139275 235.139C-38.6607 235.139 -71.3608 204.739 -73.6608 165.439C-76.0608 124.739 -44.8607 89.6389 -4.16073 87.2389C15.5393 86.1389 34.5393 92.6389 49.3393 105.839C64.1393 118.939 72.8393 137.039 74.0393 156.839C75.2393 176.539 68.6393 195.539 55.4393 210.339C42.3393 225.139 24.2393 233.839 4.43926 235.039C3.03926 235.139 1.53928 235.139 0.139275 235.139ZM0.239265 87.9389C-1.26073 87.9389 -2.66073 87.9389 -4.16073 88.0389C-44.4607 90.4389 -75.3608 125.139 -72.9608 165.439C-70.6608 204.339 -38.3607 234.439 0.139275 234.439C1.53928 234.439 3.03926 234.439 4.43926 234.339C23.9393 233.239 41.8393 224.539 54.8393 209.939C67.8393 195.339 74.3393 176.539 73.2393 156.939C72.1393 137.439 63.4393 119.539 48.8393 106.539C35.3393 94.4389 18.2393 87.9389 0.239265 87.9389Z" fill="#BD7B4F"/>
<path d="M0.0393295 227.039C-15.8607 227.039 -30.9607 221.339 -43.0607 210.839C-56.3607 199.339 -64.2608 183.239 -65.5608 165.739C-66.7608 148.239 -61.0608 131.239 -49.5607 117.939C-38.0607 104.639 -21.9607 96.6391 -4.46067 95.4391C31.7393 92.9391 63.2393 120.339 65.8393 156.539C67.0393 174.039 61.3393 191.039 49.8393 204.339C38.3393 217.639 22.2393 225.639 4.73933 226.839V226.439V226.839C3.13933 226.939 1.63933 227.039 0.0393295 227.039ZM0.239326 96.0391C-1.26067 96.0391 -2.76066 96.1391 -4.36066 96.2391C-21.6607 97.4391 -37.5607 105.339 -48.9607 118.439C-60.3607 131.539 -65.9608 148.339 -64.7608 165.739C-63.5608 183.139 -55.6607 198.939 -42.5607 210.339C-29.4607 221.739 -12.6607 227.339 4.73933 226.139C22.0393 224.939 37.9393 217.039 49.3393 203.939C60.7393 190.839 66.3393 174.039 65.1393 156.639C62.7393 122.339 34.1393 96.0391 0.239326 96.0391Z" fill="#BD7B4F"/>
<path d="M0.0393105 218.94C-13.5607 218.94 -26.6607 214.14 -37.1607 205.24C-48.9607 195.24 -56.1607 181.34 -57.3607 165.94C-58.6607 150.54 -53.8607 135.64 -43.8607 123.84C-33.8607 112.04 -19.9607 104.84 -4.5607 103.64C10.8393 102.34 25.7393 107.14 37.5393 117.14C49.3393 127.14 56.5393 141.04 57.7393 156.44C59.0393 171.84 54.2393 186.74 44.2393 198.54C34.2393 210.34 20.3393 217.54 4.9393 218.74C3.33931 218.84 1.73931 218.94 0.0393105 218.94ZM-56.6607 165.94C-55.3607 181.14 -48.2607 194.84 -36.6607 204.74C-25.0607 214.54 -10.2607 219.24 4.83931 218.04C20.0393 216.74 33.7393 209.64 43.6393 198.04C53.4393 186.44 58.2393 171.64 56.9393 156.54C55.6393 141.34 48.5393 127.64 36.9393 117.74C25.3393 107.84 10.5393 103.24 -4.5607 104.44C-19.7607 105.74 -33.4607 112.84 -43.3607 124.44C-53.1607 135.94 -57.8607 150.74 -56.6607 165.94Z" fill="#BD7B4F"/>
<path d="M0.0393219 210.839C-11.3607 210.839 -22.2607 206.939 -31.2607 199.639C-41.5607 191.239 -47.9607 179.439 -49.2607 166.239C-50.5607 153.039 -46.7607 140.139 -38.3607 129.839C-29.9607 119.539 -18.1607 113.139 -4.96068 111.839C8.23932 110.539 21.1393 114.339 31.4393 122.739C41.7393 131.139 48.1393 142.939 49.4393 156.139C52.2393 183.339 32.3393 207.739 5.13933 210.539C3.53933 210.739 1.73932 210.839 0.0393219 210.839ZM0.239319 112.339C-1.46068 112.339 -3.16068 112.439 -4.76068 112.639C-17.7607 113.939 -29.4607 120.239 -37.6607 130.339C-45.8607 140.439 -49.7607 153.139 -48.3607 166.139C-47.0607 179.139 -40.7607 190.839 -30.6607 199.039C-20.5607 207.239 -7.86067 211.139 5.13933 209.739C31.9393 207.039 51.5393 182.939 48.8393 156.139C47.5393 143.139 41.2393 131.439 31.1393 123.239C22.2393 116.139 11.4393 112.339 0.239319 112.339Z" fill="#BD7B4F"/>
<path d="M0.139362 202.74C-8.96064 202.74 -17.8606 199.74 -25.1606 194.04C-33.9606 187.24 -39.5606 177.439 -40.9606 166.439C-42.3606 155.439 -39.3606 144.54 -32.6606 135.74C-25.8606 126.939 -16.0606 121.34 -5.06065 119.94C5.93935 118.54 16.8394 121.539 25.6394 128.239C34.4394 135.039 40.0394 144.84 41.4394 155.84C42.8394 166.84 39.8394 177.74 33.1394 186.54C26.3394 195.34 16.5394 200.94 5.53936 202.34C3.63935 202.64 1.83936 202.74 0.139362 202.74ZM0.239353 120.34C-1.46065 120.34 -3.26065 120.44 -5.06065 120.64C-15.8606 122.04 -25.4606 127.54 -32.1606 136.14C-38.8606 144.74 -41.7606 155.439 -40.3606 166.239C-38.9606 177.039 -33.4606 186.64 -24.8606 193.34C-16.2606 200.04 -5.56065 202.94 5.23935 201.54C16.0394 200.14 25.6394 194.64 32.3394 186.04C39.0394 177.44 41.9394 166.739 40.5394 155.939C39.1394 145.139 33.6394 135.54 25.0394 128.84C17.9394 123.34 9.23935 120.34 0.239353 120.34Z" fill="#BD7B4F"/>
<path d="M0.139389 194.639C-6.76061 194.639 -13.4606 192.539 -19.2606 188.439C-26.5606 183.239 -31.3606 175.539 -32.8606 166.739C-34.3606 157.939 -32.2606 149.039 -27.0606 141.739C-21.8606 134.439 -14.1606 129.639 -5.36061 128.139C12.8394 125.139 30.1394 137.439 33.1394 155.639C34.6394 164.439 32.5394 173.339 27.3394 180.639C22.1394 187.939 14.4394 192.739 5.63939 194.239C3.83939 194.539 1.93939 194.639 0.139389 194.639ZM-5.16061 128.839C-13.7606 130.239 -21.3606 134.939 -26.4606 142.139C-31.5606 149.239 -33.5606 157.939 -32.1606 166.539C-30.7606 175.139 -26.0606 182.739 -18.8606 187.839C-11.7606 192.939 -3.06062 194.939 5.53938 193.539C14.1394 192.139 21.7394 187.439 26.8394 180.239C31.9394 173.139 33.9394 164.439 32.5394 155.839C29.5394 137.939 12.6394 125.939 -5.16061 128.839Z" fill="#BD7B4F"/>
<path d="M0.139359 186.739C-4.56064 186.739 -9.26064 185.439 -13.3606 182.839C-19.1606 179.239 -23.1606 173.539 -24.7606 166.939C-26.2606 160.339 -25.1607 153.439 -21.5607 147.639C-17.9607 141.839 -12.2606 137.839 -5.66064 136.239C0.939356 134.739 7.83936 135.839 13.6394 139.439C19.4394 143.039 23.4394 148.739 25.0394 155.339C26.5394 161.939 25.4394 168.839 21.8394 174.639C18.2394 180.439 12.5393 184.439 5.93935 186.039C4.03935 186.439 2.03936 186.739 0.139359 186.739ZM0.239349 136.439C-1.66065 136.439 -3.56064 136.639 -5.36064 137.039C-11.7606 138.539 -17.2606 142.439 -20.7606 148.039C-24.2606 153.639 -25.3606 160.339 -23.8606 166.739C-22.3606 173.139 -18.4606 178.639 -12.8606 182.139C-7.26064 185.639 -0.560644 186.739 5.83936 185.239C12.2394 183.739 17.7393 179.839 21.2393 174.239C24.7393 168.639 25.8394 161.939 24.3394 155.539C22.8394 149.139 18.9394 143.639 13.3394 140.139C9.33936 137.639 4.83935 136.439 0.239349 136.439Z" fill="#BD7B4F"/>
<path d="M0.139326 178.939C-2.46067 178.939 -4.96067 178.339 -7.36067 177.239C-11.6607 175.239 -14.8607 171.639 -16.4607 167.239C-18.0607 162.739 -17.8607 157.939 -15.8607 153.639C-13.8607 149.339 -10.2607 146.139 -5.86067 144.539C-1.36067 142.939 3.43932 143.139 7.73932 145.139C12.0393 147.139 15.2393 150.739 16.8393 155.139C20.1393 164.339 15.3393 174.539 6.13933 177.839C4.23933 178.539 2.23933 178.939 0.139326 178.939ZM0.139326 144.139C-1.76067 144.139 -3.76068 144.439 -5.66068 145.139C-9.96068 146.639 -13.3607 149.839 -15.2607 153.939C-17.1607 158.039 -17.3607 162.639 -15.8607 166.939C-14.3607 171.239 -11.1607 174.639 -7.06069 176.539C-2.96069 178.439 1.63931 178.639 5.93931 177.139C14.7393 173.939 19.3393 164.239 16.1393 155.339C14.6393 151.039 11.4393 147.639 7.33932 145.739C5.13932 144.739 2.63933 144.139 0.139326 144.139Z" fill="#BD7B4F"/>
<path d="M0.239338 171.739C-2.96066 171.739 -6.16066 170.239 -8.26066 167.539C-9.96066 165.239 -10.6607 162.539 -10.2607 159.739C-9.86066 156.939 -8.36066 154.439 -6.16066 152.739C-1.46066 149.239 5.13935 150.139 8.63935 154.839C10.3393 157.139 11.0393 159.839 10.6393 162.639C10.2393 165.439 8.73934 167.939 6.53934 169.639C4.63934 171.039 2.43934 171.739 0.239338 171.739ZM0.139347 151.339C-1.96065 151.339 -3.96066 151.939 -5.76066 153.339C-7.86066 154.939 -9.26066 157.239 -9.56066 159.839C-9.96066 162.439 -9.26066 165.039 -7.66066 167.139C-4.36066 171.439 1.73935 172.339 6.13935 169.139C8.23935 167.539 9.63934 165.239 9.93933 162.639C10.3393 160.039 9.63934 157.439 8.03934 155.339C6.13934 152.739 3.13935 151.339 0.139347 151.339Z" fill="#BD7B4F"/>
<path d="M0.139404 164.739C-1.8606 164.739 -3.3606 163.139 -3.3606 161.239C-3.3606 159.239 -1.7606 157.739 0.139404 157.739C2.1394 157.739 3.6394 159.339 3.6394 161.239C3.7394 163.139 2.1394 164.739 0.139404 164.739ZM0.139404 158.339C-1.3606 158.339 -2.6606 159.639 -2.6606 161.139C-2.6606 162.639 -1.3606 163.939 0.139404 163.939C1.6394 163.939 2.93939 162.639 2.93939 161.139C2.93939 159.639 1.7394 158.339 0.139404 158.339Z" fill="#BD7B4F"/>
</g>
</g>
<defs>
<clipPath id="clip0_8728_4677">
<rect width="323" height="323" fill="white" transform="translate(-161)"/>
</clipPath>
</defs>
</svg>
