<svg width="215" height="214" viewBox="0 0 215 214" fill="none" xmlns="http://www.w3.org/2000/svg">
<g filter="url(#filter0_d_1069_22644)">
<path d="M62.9968 63.3359C62.8767 63.3359 62.7565 63.2878 62.6604 63.1917L52.6891 53.2444C52.4969 53.0522 52.4969 52.7398 52.6891 52.5476C52.8813 52.3554 53.1937 52.3554 53.3859 52.5476L63.3332 62.4949C63.5254 62.6871 63.5254 62.9995 63.3332 63.1917C63.2371 63.2878 63.1169 63.3359 62.9968 63.3359Z" fill="#BD7B4F"/>
<path d="M162.038 162.4C161.917 162.4 161.797 162.352 161.701 162.256L156.511 157.066C156.319 156.874 156.319 156.561 156.511 156.369C156.704 156.177 157.016 156.177 157.208 156.369L162.398 161.559C162.59 161.751 162.59 162.064 162.398 162.256C162.278 162.352 162.158 162.4 162.038 162.4Z" fill="#BD7B4F"/>
<path d="M154.3 154.639C154.18 154.639 154.06 154.591 153.964 154.495L151.754 152.285C151.561 152.093 151.561 151.78 151.754 151.588C151.946 151.396 152.258 151.396 152.45 151.588L154.661 153.799C154.853 153.991 154.853 154.303 154.661 154.495C154.541 154.591 154.421 154.639 154.3 154.639Z" fill="#BD7B4F"/>
<path d="M137.361 159.518C137.192 159.518 137.024 159.422 136.928 159.278L135.967 157.644C135.823 157.403 135.919 157.115 136.135 156.971C136.375 156.827 136.664 156.923 136.808 157.139L137.769 158.773C137.913 159.013 137.817 159.302 137.601 159.446C137.529 159.518 137.433 159.518 137.361 159.518Z" fill="#BD7B4F"/>
<path d="M134.142 153.967C133.974 153.967 133.805 153.87 133.709 153.726L132.748 152.092C132.604 151.852 132.7 151.564 132.916 151.42C133.157 151.275 133.445 151.372 133.589 151.588L134.55 153.222C134.694 153.462 134.598 153.75 134.382 153.894C134.31 153.942 134.214 153.967 134.142 153.967Z" fill="#BD7B4F"/>
<path d="M83.6115 66.411C83.4433 66.411 83.2751 66.3149 83.179 66.1707L80.2717 61.149C80.1275 60.9088 80.2236 60.6204 80.4399 60.4763C80.6801 60.3321 80.9685 60.4282 81.1126 60.6445L84.0199 65.6662C84.1641 65.9064 84.068 66.1948 83.8517 66.3389C83.7556 66.411 83.6836 66.411 83.6115 66.411Z" fill="#BD7B4F"/>
<path d="M78.4945 57.5931C78.3263 57.5931 78.1581 57.497 78.062 57.3528L77.2932 56.0073C77.149 55.767 77.2451 55.4787 77.4614 55.3345C77.7016 55.1904 77.99 55.2865 78.1341 55.5027L78.903 56.8483C79.0472 57.0885 78.951 57.3769 78.7348 57.521C78.6627 57.5691 78.5906 57.5931 78.4945 57.5931Z" fill="#BD7B4F"/>
<path d="M126.622 179.1C126.406 179.1 126.214 178.955 126.142 178.715C125.517 176.12 124.796 173.285 123.835 169.801C123.763 169.537 123.907 169.272 124.171 169.2C124.436 169.128 124.7 169.272 124.772 169.537C125.733 173.045 126.478 175.88 127.103 178.475C127.175 178.739 127.006 179.003 126.742 179.051C126.694 179.1 126.67 179.1 126.622 179.1Z" fill="#BD7B4F"/>
<path d="M122.801 164.852C122.585 164.852 122.393 164.708 122.345 164.492C121.095 160.071 119.798 155.505 118.693 150.916C118.62 150.652 118.789 150.388 119.053 150.339C119.317 150.267 119.582 150.436 119.63 150.7C120.735 155.265 122.008 159.83 123.258 164.227C123.33 164.492 123.186 164.756 122.921 164.828C122.897 164.852 122.849 164.852 122.801 164.852Z" fill="#BD7B4F"/>
<path d="M94.2084 58.1701C93.9921 58.1701 93.7999 58.0259 93.7518 57.8097C93.007 55.0705 92.2622 52.2593 91.5654 49.5683C90.4361 45.2434 89.2587 40.7503 87.9853 36.3052C87.9132 36.0409 88.0574 35.7766 88.3217 35.7045C88.586 35.6324 88.8503 35.7766 88.9224 36.0409C90.1718 40.486 91.3491 44.9791 92.5024 49.304C93.2233 51.995 93.9441 54.8062 94.6889 57.5454C94.761 57.8097 94.6168 58.074 94.3525 58.146C94.3045 58.1701 94.2564 58.1701 94.2084 58.1701Z" fill="#BD7B4F"/>
<path d="M107.039 179.772C106.775 179.772 106.559 179.556 106.559 179.292V175.567C106.559 175.303 106.775 175.087 107.039 175.087C107.303 175.087 107.52 175.303 107.52 175.567V179.292C107.52 179.556 107.303 179.772 107.039 179.772Z" fill="#BD7B4F"/>
<path d="M106.99 39.7416C106.726 39.7416 106.51 39.5254 106.51 39.2611V32.8458C106.51 32.5815 106.726 32.3652 106.99 32.3652C107.255 32.3652 107.471 32.5815 107.471 32.8458V39.2611C107.471 39.5254 107.255 39.7416 106.99 39.7416Z" fill="#BD7B4F"/>
<path d="M90.9164 169.921C90.8684 169.921 90.8443 169.921 90.7963 169.897C90.532 169.825 90.3878 169.561 90.4599 169.296L92.2379 162.689C92.31 162.424 92.5743 162.28 92.8386 162.352C93.1029 162.424 93.2471 162.689 93.175 162.953L91.397 169.561C91.3249 169.777 91.1327 169.921 90.9164 169.921Z" fill="#BD7B4F"/>
<path d="M93.9203 158.772C93.8723 158.772 93.8482 158.772 93.8002 158.748C93.5359 158.676 93.3917 158.412 93.4638 158.147L94.6411 153.75C94.7132 153.486 94.9775 153.342 95.2418 153.414C95.5061 153.486 95.6503 153.75 95.5782 154.015L94.4009 158.412C94.3288 158.628 94.1125 158.772 93.9203 158.772Z" fill="#BD7B4F"/>
<path d="M121.696 55.0946C121.648 55.0946 121.624 55.0946 121.576 55.0706C121.311 54.9985 121.167 54.7342 121.239 54.4699L123.714 45.2434C123.786 44.9791 124.05 44.835 124.315 44.907C124.579 44.9791 124.723 45.2434 124.651 45.5077L122.176 54.7342C122.104 54.9505 121.912 55.0946 121.696 55.0946Z" fill="#BD7B4F"/>
<path d="M70.7344 171.652C70.6623 171.652 70.5662 171.628 70.4941 171.58C70.2538 171.436 70.1818 171.148 70.3259 170.907L75.8282 161.393C75.9723 161.152 76.2607 161.08 76.5009 161.224C76.7412 161.369 76.8133 161.657 76.6691 161.897L71.1669 171.412C71.0708 171.556 70.9026 171.652 70.7344 171.652Z" fill="#BD7B4F"/>
<path d="M132.076 65.3787C132.004 65.3787 131.908 65.3546 131.836 65.3066C131.596 65.1624 131.524 64.8741 131.668 64.6338L141.615 47.4303C141.759 47.19 142.048 47.1179 142.288 47.2621C142.528 47.4062 142.6 47.6946 142.456 47.9348L132.509 65.1384C132.413 65.2826 132.244 65.3787 132.076 65.3787Z" fill="#BD7B4F"/>
<path d="M143.609 45.4352C143.537 45.4352 143.441 45.4112 143.369 45.3632C143.129 45.219 143.057 44.9307 143.201 44.6904L143.946 43.3929C144.09 43.1526 144.378 43.0806 144.619 43.2247C144.859 43.3689 144.931 43.6572 144.787 43.8975L144.042 45.195C143.922 45.3391 143.778 45.4352 143.609 45.4352Z" fill="#BD7B4F"/>
<path d="M56.461 158.964C56.3409 158.964 56.2207 158.916 56.1246 158.82C55.9324 158.628 55.9324 158.316 56.1246 158.123L59.2722 154.976C59.4644 154.783 59.7768 154.783 59.969 154.976C60.1612 155.168 60.1612 155.48 59.969 155.673L56.8214 158.82C56.7013 158.916 56.5812 158.964 56.461 158.964Z" fill="#BD7B4F"/>
<path d="M133.709 81.7164C133.589 81.7164 133.469 81.6684 133.373 81.5723C133.18 81.3801 133.18 81.0677 133.373 80.8755L139.38 74.8687C139.572 74.6764 139.884 74.6764 140.076 74.8687C140.269 75.0609 140.269 75.3732 140.076 75.5654L134.069 81.5723C133.949 81.6684 133.829 81.7164 133.709 81.7164Z" fill="#BD7B4F"/>
<path d="M142.024 73.4292C141.903 73.4292 141.783 73.3812 141.687 73.2851C141.495 73.0928 141.495 72.7805 141.687 72.5883L149.232 65.0437C149.424 64.8515 149.736 64.8515 149.928 65.0437C150.121 65.2359 150.121 65.5483 149.928 65.7405L142.384 73.2851C142.264 73.3812 142.144 73.4292 142.024 73.4292Z" fill="#BD7B4F"/>
<path d="M151.994 63.4564C151.874 63.4564 151.754 63.4083 151.658 63.3122C151.466 63.12 151.466 62.8076 151.658 62.6154L158.289 55.9839C158.482 55.7917 158.794 55.7917 158.986 55.9839C159.178 56.1761 159.178 56.4885 158.986 56.6807L152.355 63.3122C152.234 63.4083 152.114 63.4564 151.994 63.4564Z" fill="#BD7B4F"/>
<path d="M136.159 91.3509C135.991 91.3509 135.823 91.2548 135.727 91.1106C135.607 90.8703 135.679 90.582 135.919 90.4379C139.307 88.5157 142.647 86.5695 145.482 84.9116C145.722 84.7674 146.011 84.8635 146.155 85.0798C146.299 85.32 146.203 85.6084 145.987 85.7525C143.151 87.4104 139.788 89.3806 136.4 91.3028C136.328 91.3509 136.256 91.3509 136.159 91.3509Z" fill="#BD7B4F"/>
<path d="M148.991 83.9263C148.822 83.9263 148.654 83.8302 148.582 83.686C148.438 83.4458 148.534 83.1574 148.75 83.0133C152.33 80.8989 156.367 78.5202 160.332 76.2616C160.572 76.1174 160.86 76.2135 161.004 76.4538C161.149 76.6941 161.052 76.9824 160.812 77.1266C156.872 79.3851 152.811 81.7638 149.231 83.8542C149.159 83.9023 149.063 83.9263 148.991 83.9263Z" fill="#BD7B4F"/>
<path d="M163.767 75.374C163.599 75.374 163.431 75.2779 163.334 75.1338C163.214 74.8935 163.286 74.6052 163.527 74.485C164.392 74.0045 165.281 73.4999 166.17 73.0194C166.41 72.8992 166.698 72.9713 166.818 73.2116C166.939 73.4518 166.866 73.7402 166.626 73.8603C165.737 74.3409 164.872 74.8214 164.007 75.326C163.935 75.35 163.839 75.374 163.767 75.374Z" fill="#BD7B4F"/>
<path d="M48.6768 141.882C48.5086 141.882 48.3404 141.786 48.2443 141.642C48.1002 141.401 48.1963 141.113 48.4125 140.969L52.6894 138.494C52.9297 138.35 53.218 138.446 53.3621 138.662C53.5063 138.903 53.4102 139.191 53.194 139.335L48.9171 141.81C48.845 141.858 48.7729 141.882 48.6768 141.882Z" fill="#BD7B4F"/>
<path d="M36.1106 127.032C35.8943 127.032 35.7021 126.887 35.63 126.671C35.5579 126.407 35.7261 126.143 35.9904 126.094C39.1861 125.302 42.1654 124.485 45.3371 123.62C46.5624 123.283 47.7878 122.947 49.0373 122.611C49.3016 122.538 49.5659 122.683 49.6379 122.947C49.71 123.211 49.5659 123.476 49.3016 123.548C48.0521 123.884 46.8267 124.22 45.6014 124.557C42.4298 125.422 39.4504 126.239 36.2547 127.056C36.1827 127.032 36.1346 127.032 36.1106 127.032Z" fill="#BD7B4F"/>
<path d="M171.215 90.9677C170.999 90.9677 170.807 90.8235 170.759 90.6072C170.687 90.3429 170.831 90.0786 171.095 90.0066C173.93 89.2377 176.453 88.5169 178.856 87.772C179.12 87.7 179.385 87.8441 179.457 88.0844C179.529 88.3487 179.385 88.613 179.144 88.6851C176.742 89.4059 174.195 90.1507 171.359 90.9196C171.287 90.9677 171.263 90.9677 171.215 90.9677Z" fill="#BD7B4F"/>
<path d="M148.221 96.9995C148.005 96.9995 147.813 96.8553 147.765 96.639C147.693 96.3747 147.837 96.1104 148.101 96.0384C151.753 95.0532 155.477 94.0922 159.105 93.1791C161.748 92.5064 164.464 91.8096 167.155 91.0887C167.419 91.0167 167.683 91.1848 167.755 91.4251C167.827 91.6894 167.659 91.9537 167.419 92.0258C164.752 92.7226 162.013 93.4434 159.37 94.1162C155.766 95.0292 152.041 95.9903 148.389 96.9754C148.317 96.9754 148.269 96.9995 148.221 96.9995Z" fill="#BD7B4F"/>
<path d="M68.3316 108.411H46.3946C46.1303 108.411 45.9141 108.195 45.9141 107.931C45.9141 107.666 46.1303 107.45 46.3946 107.45H68.3316C68.5959 107.45 68.8121 107.666 68.8121 107.931C68.8121 108.195 68.5959 108.411 68.3316 108.411Z" fill="#BD7B4F"/>
<path d="M168.788 108.387H160.307C160.042 108.387 159.826 108.171 159.826 107.907C159.826 107.643 160.042 107.426 160.307 107.426H168.788C169.053 107.426 169.269 107.643 169.269 107.907C169.269 108.171 169.053 108.387 168.788 108.387Z" fill="#BD7B4F"/>
<path d="M173.114 125.495C173.066 125.495 173.042 125.495 172.994 125.471C170.062 124.702 166.218 123.669 162.326 122.563C162.061 122.491 161.917 122.227 161.989 121.963C162.061 121.698 162.326 121.554 162.59 121.626C166.482 122.732 170.327 123.741 173.234 124.534C173.498 124.606 173.642 124.87 173.57 125.134C173.522 125.351 173.33 125.495 173.114 125.495Z" fill="#BD7B4F"/>
<path d="M180.947 127.562C180.899 127.562 180.875 127.562 180.827 127.538L176.31 126.361C176.046 126.289 175.901 126.024 175.974 125.76C176.046 125.496 176.31 125.352 176.574 125.424L181.091 126.601C181.356 126.673 181.5 126.937 181.428 127.202C181.356 127.418 181.163 127.562 180.947 127.562Z" fill="#BD7B4F"/>
<path d="M48.0519 91.9539C48.0039 91.9539 47.9558 91.9539 47.9318 91.9298C43.4146 90.6804 38.7533 89.4069 34.02 88.1816C33.7557 88.1095 33.6115 87.8452 33.6595 87.5809C33.7076 87.3166 33.9959 87.1724 34.2602 87.2205C38.9936 88.4459 43.6549 89.7193 48.1721 90.9687C48.4364 91.0408 48.5805 91.3051 48.5084 91.5694C48.4604 91.8097 48.2682 91.9539 48.0519 91.9539Z" fill="#BD7B4F"/>
<path d="M64.5586 96.3738C64.5106 96.3738 64.4865 96.3738 64.4385 96.3498C60.1376 95.2685 55.8848 94.1152 52.2807 93.1301C52.0164 93.058 51.8722 92.7937 51.9443 92.5294C52.0164 92.2651 52.2807 92.121 52.545 92.1931C56.1491 93.1782 60.4019 94.3315 64.6788 95.4127C64.9431 95.4848 65.0872 95.7491 65.0392 96.0134C64.9671 96.2296 64.7749 96.3738 64.5586 96.3738Z" fill="#BD7B4F"/>
<path d="M79.5766 100.41C79.5285 100.41 79.5045 100.41 79.4564 100.386C78.2551 100.073 77.0297 99.7129 75.8283 99.4006C73.9542 98.896 72.032 98.3434 70.1098 97.8628C69.8455 97.7907 69.7013 97.5264 69.7494 97.2621C69.8215 96.9978 70.0858 96.8537 70.3501 96.9017C72.2723 97.3823 74.2185 97.9349 76.0926 98.4395C77.2699 98.7759 78.4953 99.1122 79.7207 99.4246C79.985 99.4967 80.1292 99.761 80.0571 100.025C79.985 100.29 79.7928 100.41 79.5766 100.41Z" fill="#BD7B4F"/>
<path d="M101.536 106.272C101.488 106.272 101.464 106.272 101.416 106.248L99.9506 105.864C99.6863 105.792 99.5421 105.528 99.6142 105.263C99.6863 104.999 99.9506 104.855 100.215 104.927L101.681 105.311C101.945 105.383 102.089 105.648 102.017 105.912C101.945 106.128 101.753 106.272 101.536 106.272Z" fill="#BD7B4F"/>
<path d="M95.9134 104.784C95.8654 104.784 95.8413 104.784 95.7933 104.759L95.1205 104.591C94.8562 104.519 94.712 104.255 94.7841 103.991C94.8562 103.726 95.1205 103.582 95.3848 103.654L96.0576 103.822C96.3219 103.895 96.466 104.159 96.394 104.423C96.3219 104.639 96.1297 104.784 95.9134 104.784Z" fill="#BD7B4F"/>
<path d="M92.3093 103.797C92.2613 103.797 92.2373 103.797 92.1892 103.773L86.4467 102.235C86.1824 102.163 86.0382 101.899 86.1103 101.635C86.1824 101.37 86.4467 101.226 86.711 101.298L92.4535 102.836C92.7178 102.908 92.862 103.172 92.7899 103.437C92.7178 103.677 92.5256 103.797 92.3093 103.797Z" fill="#BD7B4F"/>
<path d="M167.083 142.267C167.011 142.267 166.915 142.243 166.843 142.195L159.49 137.966C159.25 137.822 159.178 137.533 159.322 137.293C159.466 137.053 159.755 136.981 159.995 137.125L167.323 141.354C167.563 141.498 167.635 141.786 167.491 142.026C167.395 142.171 167.251 142.267 167.083 142.267Z" fill="#BD7B4F"/>
<path d="M82.7961 93.5625C82.724 93.5625 82.6279 93.5385 82.5558 93.4905C79.9849 92.0008 77.3419 90.5111 74.795 89.0454C70.9507 86.8589 66.9621 84.6003 63.0937 82.2937C62.8534 82.1495 62.7814 81.8612 62.9255 81.6209C63.0697 81.3807 63.358 81.3086 63.5983 81.4528C67.4427 83.7594 71.4312 86.0179 75.2756 88.2044C77.8225 89.6461 80.4655 91.1598 83.0364 92.6495C83.2767 92.7937 83.3488 93.082 83.2046 93.3223C83.1325 93.4664 82.9643 93.5625 82.7961 93.5625Z" fill="#BD7B4F"/>
<path d="M58.5526 79.6032C58.4805 79.6032 58.4084 79.5792 58.3363 79.5551C56.1739 78.4259 54.1075 77.2005 51.921 75.879C50.5755 75.0861 49.1819 74.2451 47.7884 73.4522C47.5481 73.308 47.476 73.0197 47.5961 72.7794C47.7403 72.5392 48.0286 72.4671 48.2689 72.5872C49.6865 73.4041 51.0801 74.2211 52.4256 75.038C54.5881 76.3355 56.6544 77.5609 58.7929 78.6902C59.0331 78.8103 59.1292 79.0986 59.0091 79.3389C58.913 79.5071 58.7448 79.6032 58.5526 79.6032Z" fill="#BD7B4F"/>
<path d="M82.2907 82.6536C82.1706 82.6536 82.0505 82.6055 81.9543 82.5094L72.1031 72.6582C71.9109 72.466 71.9109 72.1536 72.1031 71.9614C72.2954 71.7692 72.6077 71.7692 72.7999 71.9614L82.6511 81.8126C82.8434 82.0048 82.8434 82.3172 82.6511 82.5094C82.555 82.6055 82.4349 82.6536 82.2907 82.6536Z" fill="#BD7B4F"/>
<path d="M67.8016 68.1423C67.6815 68.1423 67.5614 68.0942 67.4652 67.9981L62.6598 63.1926C62.4676 63.0004 62.4676 62.6881 62.6598 62.4958C62.852 62.3036 63.1644 62.3036 63.3566 62.4958L68.162 67.3013C68.3543 67.4935 68.3543 67.8059 68.162 67.9981C68.0419 68.0942 67.9218 68.1423 67.8016 68.1423Z" fill="#BD7B4F"/>
<path d="M147.958 148.321C147.838 148.321 147.718 148.273 147.622 148.177L146.468 147.023C146.276 146.831 146.276 146.519 146.468 146.327C146.661 146.134 146.973 146.134 147.165 146.327L148.318 147.48C148.511 147.672 148.511 147.985 148.318 148.177C148.222 148.273 148.102 148.321 147.958 148.321Z" fill="#BD7B4F"/>
<path d="M152.09 152.429C151.97 152.429 151.85 152.381 151.754 152.285L150.072 150.603C149.88 150.411 149.88 150.099 150.072 149.906C150.264 149.714 150.576 149.714 150.769 149.906L152.451 151.588C152.643 151.781 152.643 152.093 152.451 152.285C152.33 152.381 152.21 152.429 152.09 152.429Z" fill="#BD7B4F"/>
<path d="M83.6128 66.4358C83.4446 66.4358 83.2764 66.3397 83.1803 66.1955L80.2971 61.1979C80.1529 60.9576 80.249 60.6693 80.4653 60.5251C80.7055 60.3809 80.9939 60.477 81.138 60.6933L84.0213 65.691C84.1655 65.9312 84.0693 66.2196 83.8531 66.3637C83.781 66.4118 83.6849 66.4358 83.6128 66.4358Z" fill="#BD7B4F"/>
<path d="M78.494 57.5938C78.3258 57.5938 78.1576 57.4977 78.0615 57.3535L76.8361 55.2151C76.692 54.9748 76.7881 54.6865 77.0043 54.5423C77.2446 54.3981 77.5329 54.4943 77.6771 54.7105L78.9025 56.8489C79.0466 57.0892 78.9505 57.3775 78.7343 57.5217C78.6622 57.5698 78.5901 57.5938 78.494 57.5938Z" fill="#BD7B4F"/>
<path d="M137.818 160.311C137.65 160.311 137.482 160.215 137.386 160.07L135.992 157.644C135.848 157.403 135.944 157.115 136.161 156.971C136.401 156.827 136.689 156.923 136.833 157.139L138.227 159.59C138.371 159.83 138.275 160.118 138.059 160.263C137.987 160.287 137.891 160.311 137.818 160.311Z" fill="#BD7B4F"/>
<path d="M134.141 153.944C133.973 153.944 133.805 153.847 133.709 153.703L132.772 152.069C132.628 151.829 132.724 151.541 132.94 151.397C133.18 151.253 133.468 151.349 133.613 151.565L134.55 153.199C134.694 153.439 134.598 153.727 134.382 153.871C134.285 153.92 134.213 153.944 134.141 153.944Z" fill="#BD7B4F"/>
<path d="M122.777 164.9C122.56 164.9 122.368 164.756 122.32 164.539C121.311 160.767 120.302 156.923 119.317 153.223L118.716 150.94C118.644 150.676 118.812 150.411 119.052 150.339C119.317 150.267 119.581 150.435 119.653 150.676L120.254 152.958C121.239 156.682 122.248 160.503 123.257 164.275C123.329 164.539 123.161 164.804 122.921 164.876C122.873 164.876 122.825 164.9 122.777 164.9Z" fill="#BD7B4F"/>
<path d="M125.323 174.27C125.107 174.27 124.915 174.126 124.867 173.91C124.482 172.54 124.122 171.17 123.737 169.801C123.665 169.537 123.809 169.272 124.074 169.2C124.338 169.128 124.602 169.272 124.674 169.537C125.059 170.906 125.419 172.276 125.804 173.645C125.876 173.91 125.732 174.174 125.467 174.246C125.419 174.27 125.371 174.27 125.323 174.27Z" fill="#BD7B4F"/>
<path d="M94.2081 58.17C93.9918 58.17 93.7996 58.0258 93.7515 57.8096L89.2825 41.1346C89.2104 40.8703 89.3786 40.606 89.6188 40.5339C89.8831 40.4618 90.1474 40.63 90.2195 40.8703L94.6886 57.5453C94.7607 57.8096 94.5925 58.0739 94.3522 58.1459C94.3042 58.17 94.2561 58.17 94.2081 58.17Z" fill="#BD7B4F"/>
<path d="M106.871 161.849C106.607 161.849 106.391 161.632 106.391 161.368C106.415 158.965 106.439 156.515 106.487 154.16C106.535 150.988 106.583 147.721 106.583 144.525C106.583 144.261 106.799 144.044 107.063 144.044C107.328 144.044 107.544 144.261 107.544 144.525C107.544 147.745 107.496 151.012 107.448 154.184C107.424 156.539 107.376 158.989 107.352 161.392C107.352 161.632 107.135 161.849 106.871 161.849Z" fill="#BD7B4F"/>
<path d="M107.038 176.073C106.774 176.073 106.557 175.88 106.557 175.616C106.437 172.853 106.365 169.922 106.365 166.63C106.365 166.366 106.581 166.149 106.846 166.149C107.11 166.149 107.326 166.366 107.326 166.63C107.35 169.898 107.398 172.829 107.519 175.592C107.543 175.832 107.326 176.049 107.038 176.073C107.062 176.073 107.062 176.073 107.038 176.073Z" fill="#BD7B4F"/>
<path d="M107.038 52.427C106.75 52.427 106.557 52.1867 106.557 51.9224C106.606 50.1925 106.557 48.3904 106.509 46.6605C106.437 44.1856 106.389 41.6387 106.557 39.188C106.582 38.9237 106.822 38.7074 107.086 38.7314C107.35 38.7555 107.567 38.9717 107.543 39.26C107.374 41.6628 107.422 44.1856 107.495 46.6364C107.543 48.3904 107.591 50.1925 107.543 51.9465C107.519 52.2108 107.302 52.427 107.038 52.427Z" fill="#BD7B4F"/>
<path d="M77.3426 156.298L59.3702 148.104L57.1837 139.286V139.19L56.7031 115.043L84.3826 102.044L101.082 110.189L105.719 117.686L105.31 142.77L92.696 150.843L77.3426 156.298ZM60.7157 146.999L77.4387 154.64L92.0233 149.45L103.797 141.929L104.181 118.118L100.024 111.39L84.3826 103.75L58.2889 116.004L58.7454 139.046L60.7157 146.999Z" fill="#BD7B4F"/>
<path d="M60.8105 147.6L59.2728 147.48L60.33 133.448L59.0325 115.836L57.735 116.268L57.2305 114.803L60.4261 113.745L61.8918 133.448L60.8105 147.6Z" fill="#BD7B4F"/>
<path d="M91.6389 150.459L85.4399 135.826L61.0762 134.24L61.1723 132.678L86.4971 134.36L93.0565 149.858L91.6389 150.459Z" fill="#BD7B4F"/>
<path d="M86.7137 135.346L85.248 134.841L92.0958 115.499L105.047 117.133L104.854 118.671L93.153 117.181L86.7137 135.346Z" fill="#BD7B4F"/>
<path d="M84.7369 103.598L84.0586 102.191L59.409 114.076L60.0873 115.483L84.7369 103.598Z" fill="#BD7B4F"/>
<path d="M93.0357 115.684L77.4355 105.784L76.5987 107.103L92.1989 117.003L93.0357 115.684Z" fill="#BD7B4F"/>
<path d="M127.632 149.474L109.659 141.28L107.473 132.438V132.342L106.992 108.195L134.672 95.1959L151.371 103.341L156.008 110.838L155.599 135.922L142.985 143.995L127.632 149.474ZM110.981 140.175L127.704 147.816L142.288 142.626L154.062 135.105L154.446 111.294L150.289 104.567L134.648 96.9259L108.554 109.18L109.01 132.222L110.981 140.175Z" fill="#BD7B4F"/>
<path d="M111.1 140.777L109.538 140.657L110.619 126.625L109.298 109.013L108 109.445L107.52 107.956L110.715 106.898L112.181 126.625V126.697L111.1 140.777Z" fill="#BD7B4F"/>
<path d="M141.927 143.611L135.728 129.002L111.34 127.392L111.46 125.855L136.785 127.513L143.344 143.01L141.927 143.611Z" fill="#BD7B4F"/>
<path d="M136.977 128.522L135.512 127.993L142.384 108.651L155.334 110.309L155.142 111.847L143.417 110.357L136.977 128.522Z" fill="#BD7B4F"/>
<path d="M134.684 96.9491L134.006 95.5422L109.354 107.428L110.032 108.835L134.684 96.9491Z" fill="#BD7B4F"/>
<path d="M143.335 108.843L127.734 98.9426L126.898 100.261L142.498 110.161L143.335 108.843Z" fill="#BD7B4F"/>
<path d="M105.453 105.504L89.0908 98.0317L87.0966 89.9825V89.8864L86.6641 67.9495L111.845 56.1281L127.054 63.5525L131.283 70.3763L130.898 93.2022L119.413 100.555L119.341 100.579L105.453 105.504ZM90.4123 96.9505L105.501 103.846L118.692 99.161L129.337 92.3613L129.697 70.8328L125.973 64.7539L111.845 57.858L88.2499 68.9346L88.6824 89.7903L90.4123 96.9505Z" fill="#BD7B4F"/>
<path d="M90.5332 97.5503L88.9714 97.4302L89.9565 84.6957L88.7792 68.8136L87.6739 69.1741L87.1934 67.7084L90.1727 66.7233L91.5183 84.6957L90.5332 97.5503Z" fill="#BD7B4F"/>
<path d="M118.357 100.145L112.759 86.9298L90.6777 85.4882L90.7738 83.9264L113.816 85.4401L119.775 99.5441L118.357 100.145Z" fill="#BD7B4F"/>
<path d="M114.009 86.4503L112.543 85.9217L118.79 68.3337L130.587 69.8234L130.395 71.3612L119.823 70.0397L114.009 86.4503Z" fill="#BD7B4F"/>
<path d="M112.176 57.7019L111.498 56.2952L89.1425 67.0771L89.8209 68.4838L112.176 57.7019Z" fill="#BD7B4F"/>
<path d="M152.187 102.452L134.671 93.9223L124.364 98.7518L132.052 93.8502L132.437 70.0631L127.872 62.6627L111.845 54.8298L85.4634 67.2279L85.944 90.15L88.1064 98.8719L105.382 106.753L113.311 103.966L105.791 107.474L105.959 115.859L101.922 109.3L84.4062 100.746L55.5254 114.297L56.03 139.43L58.3846 148.921L77.2941 157.547L93.2002 151.9L106.463 143.419L106.631 133.88L108.674 142.097L127.583 150.723L143.489 145.076L156.752 136.595L157.185 110.525L152.187 102.452Z" fill="#BD7B4F"/>
<path d="M119.725 68.5182L105.586 59.5452L104.749 60.8638L118.889 69.8368L119.725 68.5182Z" fill="#BD7B4F"/>
<path d="M77.3422 156.202L59.4659 148.032L57.2794 139.262V139.19L56.7988 115.115L84.3822 102.164L101.033 110.286L105.622 117.734L105.214 142.746L92.6476 150.796L92.5755 150.82L77.3422 156.202ZM60.6192 147.071L77.4143 154.736L92.0469 149.546L103.868 141.978L104.253 118.094L100.072 111.319L84.3582 103.654L58.1444 115.956L58.6009 139.07L60.6192 147.071Z" fill="black"/>
<path d="M60.7152 147.6L59.3697 147.504L60.4509 133.448L59.1054 115.716L57.6878 116.172L57.2793 114.875L60.3548 113.866L61.7964 133.448L60.7152 147.6Z" fill="black"/>
<path d="M91.735 150.411L85.512 135.754L61.0762 134.12L61.1723 132.775L86.449 134.433L92.9845 149.882L91.735 150.411Z" fill="black"/>
<path d="M86.6172 135.322L85.3438 134.866L92.1675 115.596L105.046 117.23L104.878 118.575L93.0805 117.086L86.6172 135.322Z" fill="black"/>
<path d="M84.6906 103.515L84.0957 102.281L59.4461 114.17L60.0411 115.403L84.6906 103.515Z" fill="black"/>
<path d="M92.9869 115.765L77.3867 105.865L76.6529 107.021L92.2531 116.921L92.9869 115.765Z" fill="black"/>
<path d="M127.631 149.378L109.755 141.209L107.568 132.439L107.088 108.291L134.671 95.3405L151.322 103.462L155.911 110.91L155.503 135.923L142.937 143.972L127.631 149.378ZM110.908 140.248L127.703 147.912L142.336 142.722L154.157 135.154L154.542 111.271L150.361 104.495L134.647 96.8301L108.457 109.132L108.914 132.246L110.908 140.248Z" fill="black"/>
<path d="M111.005 140.776L109.635 140.656L110.717 126.624L109.395 108.868L107.977 109.348L107.545 108.051L110.62 107.042L112.086 126.624V126.672L111.005 140.776Z" fill="black"/>
<path d="M142 143.587L135.801 128.906L111.365 127.296L111.437 125.951L136.714 127.609L143.249 143.058L142 143.587Z" fill="black"/>
<path d="M136.907 128.498L135.609 128.042L142.457 108.772L155.312 110.406L155.144 111.751L143.37 110.262L136.907 128.498Z" fill="black"/>
<path d="M134.644 96.8518L134.049 95.6183L109.399 107.507L109.994 108.74L134.644 96.8518Z" fill="black"/>
<path d="M143.284 108.924L127.684 99.0242L126.95 100.18L142.55 110.08L143.284 108.924Z" fill="black"/>
<path d="M105.455 105.407L89.1885 97.9826L87.1942 89.9815V89.9095L86.7617 68.0206L111.846 56.2472L126.983 63.6236L131.164 70.3993L130.78 93.1291L119.343 100.433L119.271 100.457L105.455 105.407ZM90.3418 96.9975L105.527 103.917L118.766 99.208L129.458 92.3602L129.819 70.7597L126.022 64.6808L111.822 57.7609L88.1072 68.8856L88.5397 89.8134L90.3418 96.9975Z" fill="black"/>
<path d="M90.4365 97.5508L89.0669 97.4307L90.052 84.6962L88.8507 68.694L87.6493 69.1025L87.2168 67.805L90.076 66.8679L91.4216 84.6962L90.4365 97.5508Z" fill="black"/>
<path d="M118.429 100.123L112.806 86.8357L90.7012 85.3941L90.7733 84.0245L113.743 85.5383L119.678 99.5942L118.429 100.123Z" fill="black"/>
<path d="M113.912 86.4257L112.639 85.9691L118.862 68.4292L130.563 69.9189L130.395 71.2644L119.775 69.9189L113.912 86.4257Z" fill="black"/>
<path d="M112.122 57.6131L111.527 56.3795L89.1718 67.1614L89.7667 68.395L112.122 57.6131Z" fill="black"/>
<path d="M119.677 68.5998L105.537 59.6267L104.803 60.783L118.943 69.7561L119.677 68.5998Z" fill="black"/>
</g>
<defs>
<filter id="filter0_d_1069_22644" x="0.650391" y="0.365234" width="213.795" height="213.407" filterUnits="userSpaceOnUse" color-interpolation-filters="sRGB">
<feFlood flood-opacity="0" result="BackgroundImageFix"/>
<feColorMatrix in="SourceAlpha" type="matrix" values="0 0 0 0 0 0 0 0 0 0 0 0 0 0 0 0 0 0 127 0" result="hardAlpha"/>
<feOffset dy="1"/>
<feGaussianBlur stdDeviation="16.5"/>
<feComposite in2="hardAlpha" operator="out"/>
<feColorMatrix type="matrix" values="0 0 0 0 0.741176 0 0 0 0 0.482353 0 0 0 0 0.309804 0 0 0 1 0"/>
<feBlend mode="normal" in2="BackgroundImageFix" result="effect1_dropShadow_1069_22644"/>
<feBlend mode="normal" in="SourceGraphic" in2="effect1_dropShadow_1069_22644" result="shape"/>
</filter>
</defs>
</svg>
