<svg fill="none" height="36" viewBox="0 0 36 36" width="36" xmlns="http://www.w3.org/2000/svg"><g fill="#fff"><path d="m17.9998 0c-5.5577 0-10.07939 4.52166-10.07939 10.0795v4.9355c0 .336.27274.6086.60884.6086h3.37905c.336 0 .6086-.2726.6086-.6086v-4.9355c0-3.02329 2.4596-5.48296 5.4829-5.48296s5.4829 2.45967 5.4829 5.48296v4.9355c0 .336.2728.6086.609.6086h3.379c.3361 0 .6086-.2726.6086-.6086v-4.9355c.0001-5.55784-4.5216-10.0795-10.0795-10.0795zm8.8623 14.4063h-2.162v-4.3268c0-3.69449-3.0057-6.70021-6.7001-6.70021s-6.7002 3.00572-6.7002 6.70021v4.3268h-2.16193v-4.3268c0-4.88664 3.97543-8.86218 8.86203-8.86218 4.8867 0 8.8622 3.97554 8.8622 8.86218z"/><path d="m28.8725 14.4064h-21.74478c-1.44176 0-2.61478 1.173-2.61478 2.6148v16.3641c0 1.4417 1.17302 2.6147 2.61478 2.6147h21.74478c1.4418 0 2.6147-1.173 2.6147-2.6148v-16.364c0-1.4418-1.1729-2.6148-2.6147-2.6148zm1.3975 18.9788c0 .7706-.6269 1.3975-1.3975 1.3975h-21.74478c-.77062 0-1.39753-.6269-1.39753-1.3975v-16.364c0-.7707.62691-1.3976 1.39753-1.3976h21.74478c.7706 0 1.3975.6269 1.3975 1.3976z"/><path d="m20.0468 26.0002c.7111-.5991 1.1248-1.475 1.1248-2.4162 0-1.7489-1.4228-3.1718-3.1717-3.1718s-3.1718 1.4229-3.1718 3.1718c0 .9412.4138 1.8171 1.125 2.4164l-.6842 3.2598c-.0376.1796.0076.3664.1232.5088.1157.1422.2892.225.4725.225h4.2706c.1834 0 .3569-.0827.4725-.225.1155-.1425.1607-.3293.1231-.5086zm-1.0026-.7706c-.2137.1361-.321.3904-.2689.6385l.6103 2.9085h-2.7713l.6104-2.9083c.0521-.2482-.055-.5025-.2688-.6385-.5701-.3629-.9105-.9782-.9105-1.6458 0-1.0777.8768-1.9544 1.9545-1.9544s1.9544.8767 1.9544 1.9544c.0002.6678-.3401 1.2829-.9101 1.6456z"/></g></svg>