<svg width="99" height="97" viewBox="0 0 99 97" fill="none" xmlns="http://www.w3.org/2000/svg">
<g filter="url(#filter0_d_946_14388)">
<path d="M80.86 16.167L49.9419 38.6664L55.6594 25.392L80.86 16.167Z" fill="#AF8868" fill-opacity="0.5" shape-rendering="crispEdges"/>
<path d="M80.86 16.167L49.9419 38.6664L55.6594 25.392L80.86 16.167Z" stroke="#A3968E" stroke-opacity="0.1" stroke-linecap="round" stroke-linejoin="round" shape-rendering="crispEdges"/>
</g>
<g filter="url(#filter1_d_946_14388)">
<path d="M9.48389 16.167L40.1534 38.8795L34.7155 25.392L9.48389 16.167Z" fill="#AF8868" fill-opacity="0.5" stroke="#A3968E" stroke-opacity="0.1" stroke-linecap="round" stroke-linejoin="round"/>
<path d="M69.7354 68.3203L61.501 80.6813L79.1196 85.4308L84.1846 68.5943L69.7354 68.3203Z" fill="#A9764B" fill-opacity="0.5" stroke="#A3968E" stroke-opacity="0.2" stroke-linecap="round" stroke-linejoin="round"/>
<path d="M6.22119 68.5943L11.2551 85.4308L28.8737 80.6813L20.6393 68.3203L6.22119 68.5943Z" fill="#A9764B" fill-opacity="0.5" stroke="#A3968E" stroke-opacity="0.2" stroke-linecap="round" stroke-linejoin="round"/>
<path d="M27.8793 47.4347L22.9697 54.7112L40.4641 55.4724L39.8426 37.0527L27.8793 47.4347Z" fill="#A9764B" fill-opacity="0.5" stroke="#A3968E" stroke-opacity="0.5" stroke-linecap="round" stroke-linejoin="round"/>
<path d="M62.464 47.4349L50.3454 36.8398L49.9414 55.4726L67.4047 54.7115L62.464 47.4349Z" fill="#A9764B" fill-opacity="0.5" stroke="#A3968E" stroke-opacity="0.5" stroke-linecap="round" stroke-linejoin="round"/>
<path d="M28.8735 80.681L39.3764 75.6574L30.3029 68.7158L28.8735 80.681Z" fill="#A9764B" fill-opacity="0.5" stroke="#A9764B" stroke-opacity="0.5" stroke-linecap="round" stroke-linejoin="round"/>
<path d="M50.9668 75.6574L61.5007 80.681L60.0402 68.7158L50.9668 75.6574Z" fill="#A9764B" fill-opacity="0.5" stroke="#A9764B" stroke-opacity="0.5" stroke-linecap="round" stroke-linejoin="round"/>
</g>
<g filter="url(#filter2_d_946_14388)">
<path d="M61.5012 80.6808L50.9673 75.6572L51.8063 82.3857L51.7131 85.2172L61.5012 80.6808Z" fill="#D7C1B3" fill-opacity="0.5" stroke="#D7C1B3" stroke-opacity="0.5" stroke-linecap="round" stroke-linejoin="round"/>
<path d="M28.874 80.6808L38.6622 85.2172L38.6 82.3857L39.3769 75.6572L28.874 80.6808Z" fill="#D7C1B3" fill-opacity="0.5" stroke="#D7C1B3" stroke-opacity="0.5" stroke-linecap="round" stroke-linejoin="round"/>
</g>
<g filter="url(#filter3_d_946_14388)">
<path d="M38.8174 64.2712L30.0547 61.7442L36.2383 58.9736L38.8174 64.2712Z" fill="#233447" fill-opacity="0.5" shape-rendering="crispEdges"/>
<path d="M38.8174 64.2712L30.0547 61.7442L36.2383 58.9736L38.8174 64.2712Z" stroke="#233447" stroke-opacity="0.5" stroke-linecap="round" stroke-linejoin="round" shape-rendering="crispEdges"/>
</g>
<g filter="url(#filter4_d_946_14388)">
<path d="M51.5264 64.2712L54.1055 58.9736L60.3202 61.7442L51.5264 64.2712Z" fill="#233447" fill-opacity="0.5" shape-rendering="crispEdges"/>
<path d="M51.5264 64.2712L54.1055 58.9736L60.3202 61.7442L51.5264 64.2712Z" stroke="#233447" stroke-opacity="0.5" stroke-linecap="round" stroke-linejoin="round" shape-rendering="crispEdges"/>
</g>
<g filter="url(#filter5_d_946_14388)">
<path d="M28.8741 80.6813L30.3656 68.3203L20.6396 68.5943L28.8741 80.6813Z" fill="#854E23" fill-opacity="0.5" stroke="#A3968E" stroke-opacity="0.1" stroke-linecap="round" stroke-linejoin="round"/>
<path d="M60.0098 68.3203L61.5013 80.6813L69.7358 68.5943L60.0098 68.3203Z" fill="#854E23" fill-opacity="0.5" stroke="#A3968E" stroke-opacity="0.1" stroke-linecap="round" stroke-linejoin="round"/>
<path d="M67.4051 54.7109L49.9419 55.4721L51.5577 64.2709L54.1368 58.9733L60.3515 61.7439L67.4051 54.7109Z" fill="#D5A381" fill-opacity="0.5" stroke="#A07F67" stroke-opacity="0.5" stroke-linecap="round" stroke-linejoin="round"/>
<path d="M30.055 61.7439L36.2697 58.9733L38.8177 64.2709L40.4646 55.4721L22.9702 54.7109L30.055 61.7439Z" fill="#D4A381" fill-opacity="0.5" stroke="#A07F67" stroke-opacity="0.5" stroke-linecap="round" stroke-linejoin="round"/>
</g>
<g filter="url(#filter6_d_946_14388)">
<path d="M22.6626 54.2734L29.9959 68.2785L29.7473 61.3064L22.6626 54.2734Z" fill="#854E23" fill-opacity="0.5" stroke="#A3968E" stroke-opacity="0.1" stroke-linecap="round" stroke-linejoin="round"/>
<path d="M60.0441 61.3064L59.7334 68.2785L67.0978 54.2734L60.0441 61.3064Z" fill="#854E23" fill-opacity="0.5" stroke="#A3968E" stroke-opacity="0.1" stroke-linecap="round" stroke-linejoin="round"/>
<path d="M40.1571 55.0342L38.5103 63.833L40.5611 74.215L41.0272 60.5448L40.1571 55.0342Z" fill="#854E23" fill-opacity="0.5" stroke="#A3968E" stroke-opacity="0.1" stroke-linecap="round" stroke-linejoin="round"/>
<path d="M49.6344 55.0342L48.7954 60.5144L49.1683 74.215L51.2502 63.833L49.6344 55.0342Z" fill="#854E23" fill-opacity="0.5" stroke="#A3968E" stroke-opacity="0.1" stroke-linecap="round" stroke-linejoin="round"/>
</g>
<g filter="url(#filter7_d_946_14388)">
<path d="M51.5575 64.2711L49.4756 74.6531L50.9671 75.6578L60.0406 68.7162L60.3513 61.7441L51.5575 64.2711Z" fill="#925B29" fill-opacity="0.5" shape-rendering="crispEdges"/>
<path d="M51.5575 64.2711L49.4756 74.6531L50.9671 75.6578L60.0406 68.7162L60.3513 61.7441L51.5575 64.2711Z" stroke="#A3968E" stroke-opacity="0.2" stroke-linecap="round" stroke-linejoin="round" shape-rendering="crispEdges"/>
</g>
<g filter="url(#filter8_d_946_14388)">
<path d="M30.0547 61.7441L30.3033 68.7162L39.3767 75.6578L40.8682 74.6531L38.8174 64.2711L30.0547 61.7441Z" fill="#925B29" fill-opacity="0.5" shape-rendering="crispEdges"/>
<path d="M30.0547 61.7441L30.3033 68.7162L39.3767 75.6578L40.8682 74.6531L38.8174 64.2711L30.0547 61.7441Z" stroke="#A3968E" stroke-opacity="0.2" stroke-linecap="round" stroke-linejoin="round" shape-rendering="crispEdges"/>
</g>
<g filter="url(#filter9_d_946_14388)">
<path d="M51.713 85.2171L51.8062 82.3856L51.0294 81.7158H39.3147L38.6 82.3856L38.6622 85.2171L28.874 80.6807L32.2921 83.4208L39.2215 88.1399H51.1226L58.0831 83.4208L61.5011 80.6807L51.713 85.2171Z" fill="#C0AD9E" fill-opacity="0.5" shape-rendering="crispEdges"/>
<path d="M51.713 85.2171L51.8062 82.3856L51.0294 81.7158H39.3147L38.6 82.3856L38.6622 85.2171L28.874 80.6807L32.2921 83.4208L39.2215 88.1399H51.1226L58.0831 83.4208L61.5011 80.6807L51.713 85.2171Z" stroke="#C0AD9E" stroke-opacity="0.5" stroke-linecap="round" stroke-linejoin="round" shape-rendering="crispEdges"/>
</g>
<g filter="url(#filter10_d_946_14388)">
<path d="M50.9673 75.658L49.4758 74.6533H40.8685L39.3769 75.658L38.6001 82.3865L39.3148 81.7167H51.0295L51.8063 82.3865L50.9673 75.658Z" fill="#161616" fill-opacity="0.4" shape-rendering="crispEdges"/>
<path d="M50.9673 75.658L49.4758 74.6533H40.8685L39.3769 75.658L38.6001 82.3865L39.3148 81.7167H51.0295L51.8063 82.3865L50.9673 75.658Z" stroke="#161616" stroke-opacity="0.1" stroke-linecap="round" stroke-linejoin="round" shape-rendering="crispEdges"/>
</g>
<g filter="url(#filter11_d_946_14388)">
<path d="M82.165 40.1277L84.8063 27.7059L80.8599 16.167L50.9673 37.9052L62.4645 47.4347L78.7159 52.0929L82.3204 47.9827L80.7667 46.8867L83.2526 44.6642L81.326 43.2028L83.8119 41.3456L82.165 40.1277Z" fill="#3A1B05" fill-opacity="0.5" stroke="#A3968E" stroke-opacity="0.1" stroke-linecap="round" stroke-linejoin="round"/>
<path d="M5.56885 27.7059L8.21009 40.1277L6.53212 41.3456L9.018 43.2028L7.12252 44.6642L9.60839 46.8867L8.05472 47.9827L11.6282 52.0929L27.8796 47.4347L39.3767 37.9052L9.4841 16.167L5.56885 27.7059Z" fill="#3A1B05" fill-opacity="0.5" stroke="#A3968E" stroke-opacity="0.1" stroke-linecap="round" stroke-linejoin="round"/>
</g>
<g filter="url(#filter12_d_946_14388)">
<path d="M78.7157 52.0928L62.4643 47.4346L67.4049 54.7111L60.0405 68.7161L69.7354 68.5943H84.1846L78.7157 52.0928Z" fill="#925B29" fill-opacity="0.5" shape-rendering="crispEdges"/>
<path d="M78.7157 52.0928L62.4643 47.4346L67.4049 54.7111L60.0405 68.7161L69.7354 68.5943H84.1846L78.7157 52.0928Z" stroke="#A3968E" stroke-opacity="0.5" stroke-linecap="round" stroke-linejoin="round" shape-rendering="crispEdges"/>
</g>
<g filter="url(#filter13_d_946_14388)">
<path d="M27.6221 47.3457L11.3706 52.0039L5.96387 68.5055H20.3819L30.0458 68.6272L22.7125 54.6222L27.6221 47.3457Z" fill="#925B29" fill-opacity="0.5" shape-rendering="crispEdges"/>
<path d="M27.6221 47.3457L11.3706 52.0039L5.96387 68.5055H20.3819L30.0458 68.6272L22.7125 54.6222L27.6221 47.3457Z" stroke="#A3968E" stroke-opacity="0.5" stroke-linecap="round" stroke-linejoin="round" shape-rendering="crispEdges"/>
</g>
<g filter="url(#filter14_d_946_14388)">
<path d="M49.9418 55.472L50.9672 37.9048L55.6904 25.3916H34.7158L39.3768 37.9048L40.4644 55.472L40.8373 61.0131L40.8684 74.6527H49.4757L49.5379 61.0131L49.9418 55.472Z" fill="#925B29" fill-opacity="0.5" shape-rendering="crispEdges"/>
<path d="M49.9418 55.472L50.9672 37.9048L55.6904 25.3916H34.7158L39.3768 37.9048L40.4644 55.472L40.8373 61.0131L40.8684 74.6527H49.4757L49.5379 61.0131L49.9418 55.472Z" stroke="#A3968E" stroke-opacity="0.2" stroke-linecap="round" stroke-linejoin="round" shape-rendering="crispEdges"/>
</g>
<defs>
<filter id="filter0_d_946_14388" x="45.4419" y="15.667" width="39.918" height="31.499" filterUnits="userSpaceOnUse" color-interpolation-filters="sRGB">
<feFlood flood-opacity="0" result="BackgroundImageFix"/>
<feColorMatrix in="SourceAlpha" type="matrix" values="0 0 0 0 0 0 0 0 0 0 0 0 0 0 0 0 0 0 127 0" result="hardAlpha"/>
<feOffset dy="4"/>
<feGaussianBlur stdDeviation="2"/>
<feComposite in2="hardAlpha" operator="out"/>
<feColorMatrix type="matrix" values="0 0 0 0 0 0 0 0 0 0 0 0 0 0 0 0 0 0 0.25 0"/>
<feBlend mode="normal" in2="BackgroundImageFix" result="effect1_dropShadow_946_14388"/>
<feBlend mode="normal" in="SourceGraphic" in2="effect1_dropShadow_946_14388" result="shape"/>
</filter>
<filter id="filter1_d_946_14388" x="1.72119" y="15.667" width="86.9634" height="78.2637" filterUnits="userSpaceOnUse" color-interpolation-filters="sRGB">
<feFlood flood-opacity="0" result="BackgroundImageFix"/>
<feColorMatrix in="SourceAlpha" type="matrix" values="0 0 0 0 0 0 0 0 0 0 0 0 0 0 0 0 0 0 127 0" result="hardAlpha"/>
<feOffset dy="4"/>
<feGaussianBlur stdDeviation="2"/>
<feComposite in2="hardAlpha" operator="out"/>
<feColorMatrix type="matrix" values="0 0 0 0 0 0 0 0 0 0 0 0 0 0 0 0 0 0 0.25 0"/>
<feBlend mode="normal" in2="BackgroundImageFix" result="effect1_dropShadow_946_14388"/>
<feBlend mode="normal" in="SourceGraphic" in2="effect1_dropShadow_946_14388" result="shape"/>
</filter>
<filter id="filter2_d_946_14388" x="24.374" y="75.1572" width="41.627" height="18.5596" filterUnits="userSpaceOnUse" color-interpolation-filters="sRGB">
<feFlood flood-opacity="0" result="BackgroundImageFix"/>
<feColorMatrix in="SourceAlpha" type="matrix" values="0 0 0 0 0 0 0 0 0 0 0 0 0 0 0 0 0 0 127 0" result="hardAlpha"/>
<feOffset dy="4"/>
<feGaussianBlur stdDeviation="2"/>
<feComposite in2="hardAlpha" operator="out"/>
<feColorMatrix type="matrix" values="0 0 0 0 0 0 0 0 0 0 0 0 0 0 0 0 0 0 0.25 0"/>
<feBlend mode="normal" in2="BackgroundImageFix" result="effect1_dropShadow_946_14388"/>
<feBlend mode="normal" in="SourceGraphic" in2="effect1_dropShadow_946_14388" result="shape"/>
</filter>
<filter id="filter3_d_946_14388" x="25.5547" y="58.4736" width="17.7627" height="14.2979" filterUnits="userSpaceOnUse" color-interpolation-filters="sRGB">
<feFlood flood-opacity="0" result="BackgroundImageFix"/>
<feColorMatrix in="SourceAlpha" type="matrix" values="0 0 0 0 0 0 0 0 0 0 0 0 0 0 0 0 0 0 127 0" result="hardAlpha"/>
<feOffset dy="4"/>
<feGaussianBlur stdDeviation="2"/>
<feComposite in2="hardAlpha" operator="out"/>
<feColorMatrix type="matrix" values="0 0 0 0 0 0 0 0 0 0 0 0 0 0 0 0 0 0 0.25 0"/>
<feBlend mode="normal" in2="BackgroundImageFix" result="effect1_dropShadow_946_14388"/>
<feBlend mode="normal" in="SourceGraphic" in2="effect1_dropShadow_946_14388" result="shape"/>
</filter>
<filter id="filter4_d_946_14388" x="47.0264" y="58.4736" width="17.7939" height="14.2979" filterUnits="userSpaceOnUse" color-interpolation-filters="sRGB">
<feFlood flood-opacity="0" result="BackgroundImageFix"/>
<feColorMatrix in="SourceAlpha" type="matrix" values="0 0 0 0 0 0 0 0 0 0 0 0 0 0 0 0 0 0 127 0" result="hardAlpha"/>
<feOffset dy="4"/>
<feGaussianBlur stdDeviation="2"/>
<feComposite in2="hardAlpha" operator="out"/>
<feColorMatrix type="matrix" values="0 0 0 0 0 0 0 0 0 0 0 0 0 0 0 0 0 0 0.25 0"/>
<feBlend mode="normal" in2="BackgroundImageFix" result="effect1_dropShadow_946_14388"/>
<feBlend mode="normal" in="SourceGraphic" in2="effect1_dropShadow_946_14388" result="shape"/>
</filter>
<filter id="filter5_d_946_14388" x="16.1396" y="54.2109" width="58.0962" height="34.9707" filterUnits="userSpaceOnUse" color-interpolation-filters="sRGB">
<feFlood flood-opacity="0" result="BackgroundImageFix"/>
<feColorMatrix in="SourceAlpha" type="matrix" values="0 0 0 0 0 0 0 0 0 0 0 0 0 0 0 0 0 0 127 0" result="hardAlpha"/>
<feOffset dy="4"/>
<feGaussianBlur stdDeviation="2"/>
<feComposite in2="hardAlpha" operator="out"/>
<feColorMatrix type="matrix" values="0 0 0 0 0 0 0 0 0 0 0 0 0 0 0 0 0 0 0.25 0"/>
<feBlend mode="normal" in2="BackgroundImageFix" result="effect1_dropShadow_946_14388"/>
<feBlend mode="normal" in="SourceGraphic" in2="effect1_dropShadow_946_14388" result="shape"/>
</filter>
<filter id="filter6_d_946_14388" x="18.1626" y="53.7734" width="53.4351" height="28.9414" filterUnits="userSpaceOnUse" color-interpolation-filters="sRGB">
<feFlood flood-opacity="0" result="BackgroundImageFix"/>
<feColorMatrix in="SourceAlpha" type="matrix" values="0 0 0 0 0 0 0 0 0 0 0 0 0 0 0 0 0 0 127 0" result="hardAlpha"/>
<feOffset dy="4"/>
<feGaussianBlur stdDeviation="2"/>
<feComposite in2="hardAlpha" operator="out"/>
<feColorMatrix type="matrix" values="0 0 0 0 0 0 0 0 0 0 0 0 0 0 0 0 0 0 0.25 0"/>
<feBlend mode="normal" in2="BackgroundImageFix" result="effect1_dropShadow_946_14388"/>
<feBlend mode="normal" in="SourceGraphic" in2="effect1_dropShadow_946_14388" result="shape"/>
</filter>
<filter id="filter7_d_946_14388" x="44.9756" y="61.2441" width="19.8755" height="22.9141" filterUnits="userSpaceOnUse" color-interpolation-filters="sRGB">
<feFlood flood-opacity="0" result="BackgroundImageFix"/>
<feColorMatrix in="SourceAlpha" type="matrix" values="0 0 0 0 0 0 0 0 0 0 0 0 0 0 0 0 0 0 127 0" result="hardAlpha"/>
<feOffset dy="4"/>
<feGaussianBlur stdDeviation="2"/>
<feComposite in2="hardAlpha" operator="out"/>
<feColorMatrix type="matrix" values="0 0 0 0 0 0 0 0 0 0 0 0 0 0 0 0 0 0 0.25 0"/>
<feBlend mode="normal" in2="BackgroundImageFix" result="effect1_dropShadow_946_14388"/>
<feBlend mode="normal" in="SourceGraphic" in2="effect1_dropShadow_946_14388" result="shape"/>
</filter>
<filter id="filter8_d_946_14388" x="25.5547" y="61.2441" width="19.8135" height="22.9141" filterUnits="userSpaceOnUse" color-interpolation-filters="sRGB">
<feFlood flood-opacity="0" result="BackgroundImageFix"/>
<feColorMatrix in="SourceAlpha" type="matrix" values="0 0 0 0 0 0 0 0 0 0 0 0 0 0 0 0 0 0 127 0" result="hardAlpha"/>
<feOffset dy="4"/>
<feGaussianBlur stdDeviation="2"/>
<feComposite in2="hardAlpha" operator="out"/>
<feColorMatrix type="matrix" values="0 0 0 0 0 0 0 0 0 0 0 0 0 0 0 0 0 0 0.25 0"/>
<feBlend mode="normal" in2="BackgroundImageFix" result="effect1_dropShadow_946_14388"/>
<feBlend mode="normal" in="SourceGraphic" in2="effect1_dropShadow_946_14388" result="shape"/>
</filter>
<filter id="filter9_d_946_14388" x="24.374" y="80.1807" width="41.627" height="16.459" filterUnits="userSpaceOnUse" color-interpolation-filters="sRGB">
<feFlood flood-opacity="0" result="BackgroundImageFix"/>
<feColorMatrix in="SourceAlpha" type="matrix" values="0 0 0 0 0 0 0 0 0 0 0 0 0 0 0 0 0 0 127 0" result="hardAlpha"/>
<feOffset dy="4"/>
<feGaussianBlur stdDeviation="2"/>
<feComposite in2="hardAlpha" operator="out"/>
<feColorMatrix type="matrix" values="0 0 0 0 0 0 0 0 0 0 0 0 0 0 0 0 0 0 0.25 0"/>
<feBlend mode="normal" in2="BackgroundImageFix" result="effect1_dropShadow_946_14388"/>
<feBlend mode="normal" in="SourceGraphic" in2="effect1_dropShadow_946_14388" result="shape"/>
</filter>
<filter id="filter10_d_946_14388" x="34.1001" y="74.1533" width="22.2061" height="16.7334" filterUnits="userSpaceOnUse" color-interpolation-filters="sRGB">
<feFlood flood-opacity="0" result="BackgroundImageFix"/>
<feColorMatrix in="SourceAlpha" type="matrix" values="0 0 0 0 0 0 0 0 0 0 0 0 0 0 0 0 0 0 127 0" result="hardAlpha"/>
<feOffset dy="4"/>
<feGaussianBlur stdDeviation="2"/>
<feComposite in2="hardAlpha" operator="out"/>
<feColorMatrix type="matrix" values="0 0 0 0 0 0 0 0 0 0 0 0 0 0 0 0 0 0 0.25 0"/>
<feBlend mode="normal" in2="BackgroundImageFix" result="effect1_dropShadow_946_14388"/>
<feBlend mode="normal" in="SourceGraphic" in2="effect1_dropShadow_946_14388" result="shape"/>
</filter>
<filter id="filter11_d_946_14388" x="1.06885" y="15.667" width="88.2373" height="44.9258" filterUnits="userSpaceOnUse" color-interpolation-filters="sRGB">
<feFlood flood-opacity="0" result="BackgroundImageFix"/>
<feColorMatrix in="SourceAlpha" type="matrix" values="0 0 0 0 0 0 0 0 0 0 0 0 0 0 0 0 0 0 127 0" result="hardAlpha"/>
<feOffset dy="4"/>
<feGaussianBlur stdDeviation="2"/>
<feComposite in2="hardAlpha" operator="out"/>
<feColorMatrix type="matrix" values="0 0 0 0 0 0 0 0 0 0 0 0 0 0 0 0 0 0 0.25 0"/>
<feBlend mode="normal" in2="BackgroundImageFix" result="effect1_dropShadow_946_14388"/>
<feBlend mode="normal" in="SourceGraphic" in2="effect1_dropShadow_946_14388" result="shape"/>
</filter>
<filter id="filter12_d_946_14388" x="55.5405" y="46.9346" width="33.144" height="30.2812" filterUnits="userSpaceOnUse" color-interpolation-filters="sRGB">
<feFlood flood-opacity="0" result="BackgroundImageFix"/>
<feColorMatrix in="SourceAlpha" type="matrix" values="0 0 0 0 0 0 0 0 0 0 0 0 0 0 0 0 0 0 127 0" result="hardAlpha"/>
<feOffset dy="4"/>
<feGaussianBlur stdDeviation="2"/>
<feComposite in2="hardAlpha" operator="out"/>
<feColorMatrix type="matrix" values="0 0 0 0 0 0 0 0 0 0 0 0 0 0 0 0 0 0 0.25 0"/>
<feBlend mode="normal" in2="BackgroundImageFix" result="effect1_dropShadow_946_14388"/>
<feBlend mode="normal" in="SourceGraphic" in2="effect1_dropShadow_946_14388" result="shape"/>
</filter>
<filter id="filter13_d_946_14388" x="1.46387" y="46.8457" width="33.082" height="30.2812" filterUnits="userSpaceOnUse" color-interpolation-filters="sRGB">
<feFlood flood-opacity="0" result="BackgroundImageFix"/>
<feColorMatrix in="SourceAlpha" type="matrix" values="0 0 0 0 0 0 0 0 0 0 0 0 0 0 0 0 0 0 127 0" result="hardAlpha"/>
<feOffset dy="4"/>
<feGaussianBlur stdDeviation="2"/>
<feComposite in2="hardAlpha" operator="out"/>
<feColorMatrix type="matrix" values="0 0 0 0 0 0 0 0 0 0 0 0 0 0 0 0 0 0 0.25 0"/>
<feBlend mode="normal" in2="BackgroundImageFix" result="effect1_dropShadow_946_14388"/>
<feBlend mode="normal" in="SourceGraphic" in2="effect1_dropShadow_946_14388" result="shape"/>
</filter>
<filter id="filter14_d_946_14388" x="30.2158" y="24.8916" width="29.9746" height="58.2607" filterUnits="userSpaceOnUse" color-interpolation-filters="sRGB">
<feFlood flood-opacity="0" result="BackgroundImageFix"/>
<feColorMatrix in="SourceAlpha" type="matrix" values="0 0 0 0 0 0 0 0 0 0 0 0 0 0 0 0 0 0 127 0" result="hardAlpha"/>
<feOffset dy="4"/>
<feGaussianBlur stdDeviation="2"/>
<feComposite in2="hardAlpha" operator="out"/>
<feColorMatrix type="matrix" values="0 0 0 0 0 0 0 0 0 0 0 0 0 0 0 0 0 0 0.25 0"/>
<feBlend mode="normal" in2="BackgroundImageFix" result="effect1_dropShadow_946_14388"/>
<feBlend mode="normal" in="SourceGraphic" in2="effect1_dropShadow_946_14388" result="shape"/>
</filter>
</defs>
</svg>
