<svg width="320" height="466" viewBox="0 0 320 466" fill="none" xmlns="http://www.w3.org/2000/svg">
<path d="M357.546 316.406V363.716L358.492 362.278V315.413L391.609 282.296C391.732 281.728 391.855 281.17 391.968 280.602L358.454 314.116V272.701L374.293 234.475L392.423 278.246C392.527 277.688 392.64 277.12 392.744 276.562L374.767 233.236L392.744 189.928C392.64 189.37 392.527 188.802 392.413 188.244L374.293 232.006L358.454 193.78V152.402L391.968 185.917C391.855 185.349 391.732 184.791 391.609 184.223L358.492 151.106V104.213L357.546 102.775V150.084L328.337 120.866L312.488 82.6018L356.24 100.721C355.918 100.239 355.578 99.7751 355.247 99.2926L311.977 81.3149L294.047 38.036C293.574 37.7048 293.101 37.3642 292.618 37.0898L310.747 80.8513L272.436 65.0404L243.179 35.7558H290.546L289.108 34.8096H242.233L209.05 1.64545L207.347 1.28589L240.89 34.8284H199.503L161.249 18.9797L205.038 0.841205L203.345 0.519531L160.018 18.4972L116.683 0.519531L114.989 0.841205L158.779 18.9797L120.534 34.8284H79.1284L112.661 1.28589L110.968 1.64545L77.7943 34.8284H30.9198C30.4373 35.1406 29.9737 35.4529 29.4817 35.7746H76.8481L47.5729 65.0404L9.33717 80.8702L27.4757 37.0898C26.9932 37.4115 26.5295 37.7522 26.0375 38.036L8.05983 81.3338L-35.238 99.3115C-35.5597 99.7941 -35.9003 100.258 -36.1842 100.75L7.5962 82.6112L-8.24306 120.847L-37.4899 150.094V102.727L-38.4361 104.165V151.04L-71.6286 184.232C-71.7421 184.8 -71.8746 185.358 -71.9881 185.926L-38.4361 152.384V193.723L-54.2849 231.987L-72.4234 188.197C-72.537 188.755 -72.641 189.323 -72.7451 189.881L-54.7674 233.217L-72.7451 276.571C-72.641 277.13 -72.5275 277.697 -72.4234 278.256L-54.2754 234.456L-38.4267 272.72V314.126L-71.9786 280.583C-71.8651 281.151 -71.7326 281.709 -71.6191 282.277L-38.4267 315.469V362.344C-38.1144 362.826 -37.8022 363.29 -37.4805 363.782V316.444L-8.14847 345.776L7.57726 383.908L-36.2221 365.769C-35.9004 366.252 -35.5597 366.715 -35.2759 367.207L8.04089 385.185L25.9713 428.483C26.4538 428.814 26.9175 429.155 27.4095 429.476L9.27092 385.696L47.4972 401.526L76.7724 430.801H29.4154L30.8536 431.747H77.7186L110.835 464.864L112.538 465.223L79.0149 431.7H120.42L158.646 447.539L114.866 465.668L116.56 465.999L159.886 448.022L203.203 465.999L204.896 465.678L161.126 447.549L199.352 431.709H240.738L207.347 465.28L209.041 464.921L242.205 431.804H289.07C289.552 431.492 290.016 431.179 290.508 430.858H243.198L272.464 401.592L310.719 385.753L292.59 429.514C293.072 429.192 293.536 428.852 294.028 428.521L311.958 385.242L355.247 367.311C355.568 366.829 355.909 366.365 356.24 365.873L312.422 383.908L328.261 345.653L357.546 316.406ZM358.492 196.24L373.811 233.226L358.492 270.213V196.24ZM-38.4456 270.251L-53.7834 233.226L-38.4456 196.202V270.251ZM357.546 315.053L329.16 343.439L357.546 275.02V315.053ZM357.546 151.447V191.49L329.283 123.156L357.546 151.447ZM311.182 82.0814L326.52 119.106L274.148 66.7436L311.182 82.0814ZM241.807 35.7179L270.146 64.0942L201.783 35.7841L241.807 35.7179ZM159.99 19.4339L197.005 34.7717H123.013L159.99 19.4339ZM78.1539 35.7179H118.282L49.8532 64.0942L78.1539 35.7179ZM8.79783 82.0814L45.794 66.7531L-6.53046 119.078L8.79783 82.0814ZM-37.5656 151.418L-9.26497 123.108L-37.5656 191.452V151.418ZM-37.5656 315.11V275.039L-9.17985 343.448L-37.5656 315.11ZM8.79783 384.466L-6.52104 347.479L45.7846 399.785L8.79783 384.466ZM78.1539 430.829L49.8154 402.5L118.216 430.829H78.1539ZM159.971 447.104L122.975 431.775H196.967L159.971 447.104ZM241.77 430.829H201.717L270.089 402.51L241.77 430.829ZM311.135 384.466L274.12 399.804L326.463 347.451L311.135 384.466ZM271.84 400.75L199.248 430.81H120.714L48.0838 400.731L-7.4483 345.199L-37.5278 272.569V193.95L-7.47665 121.386L48.0743 65.8352L120.685 35.7652H199.286L271.868 65.8257L327.466 121.424L357.517 193.988V272.522L327.428 345.161L271.84 400.75Z" fill="url(#paint0_radial_4113_16700)" fill-opacity="0.25"/>
<defs>
<radialGradient id="paint0_radial_4113_16700" cx="0" cy="0" r="1" gradientUnits="userSpaceOnUse" gradientTransform="translate(159.999 233.26) rotate(67.4996) scale(232.741 232.744)">
<stop offset="0.848358" stop-color="#BD7B4F" stop-opacity="0"/>
<stop offset="0.869927" stop-color="#3C2211"/>
<stop offset="0.926212" stop-color="#BD7B4F"/>
<stop offset="1" stop-color="#BD7B4F" stop-opacity="0"/>
</radialGradient>
</defs>
</svg>
