<svg width="275" height="275" viewBox="0 0 275 275" fill="none" xmlns="http://www.w3.org/2000/svg">
<g clip-path="url(#clip0)">
<path d="M137.412 193.858C110.247 193.858 80.789 176.219 80.2598 137.412C80.9653 98.6051 110.423 80.9656 137.412 80.9656C164.577 80.9656 194.035 98.6051 194.564 137.412C194.035 176.219 164.577 193.858 137.412 193.858ZM137.412 82.3767C110.953 82.3767 82.2001 99.6635 81.4945 137.412C82.2001 175.161 110.953 192.447 137.412 192.447C163.871 192.447 192.623 175.161 193.329 137.412C192.623 99.6635 163.871 82.3767 137.412 82.3767Z" fill="#BC7A4E"/>
<path d="M137.412 193.858C110.247 193.858 80.789 176.219 80.2598 137.412C80.9653 98.6051 110.423 80.9656 137.412 80.9656C164.577 80.9656 194.035 98.6051 194.564 137.412C194.035 176.219 164.577 193.858 137.412 193.858ZM137.412 82.3767C110.953 82.3767 82.2001 99.6635 81.4945 137.412C82.2001 175.161 110.953 192.447 137.412 192.447C163.871 192.447 192.623 175.161 193.329 137.412C192.623 99.6635 163.871 82.3767 137.412 82.3767Z" fill="#BC7A4E"/>
<path d="M137.412 82.3767C137.059 82.3767 136.706 82.0239 136.706 81.6711V0.529311C136.706 0.176521 137.059 -0.17627 137.412 -0.17627C137.764 -0.17627 138.117 0.176521 138.117 0.529311V81.6711C138.117 82.0239 137.764 82.3767 137.412 82.3767Z" fill="#BC7A4E"/>
<path d="M274.294 138.117H194.034C193.682 138.117 193.329 137.765 193.329 137.412C193.329 137.059 193.682 136.706 194.034 136.706H274.294C274.647 136.706 275 137.059 275 137.412C275 137.765 274.647 138.117 274.294 138.117Z" fill="#BC7A4E"/>
<path d="M193.682 133.179C193.329 133.179 192.976 133.002 192.976 132.649C192.976 132.297 193.152 131.944 193.505 131.944L274.118 124.888C274.471 124.888 274.823 125.064 274.823 125.417C274.823 125.77 274.647 126.123 274.294 126.123L193.682 133.179C193.858 133.179 193.682 133.179 193.682 133.179Z" fill="#BC7A4E"/>
<path d="M193.153 128.239C192.8 128.239 192.623 128.063 192.447 127.71C192.447 127.357 192.623 127.005 192.976 127.005L274.118 112.717C274.471 112.717 274.824 112.893 274.824 113.246C274.824 113.599 274.647 113.951 274.294 113.951L193.153 128.239Z" fill="#BC7A4E"/>
<path d="M192.094 123.477C191.742 123.477 191.565 123.3 191.389 122.948C191.212 122.595 191.565 122.242 191.918 122.066L273.942 100.016C274.294 99.8398 274.647 100.193 274.824 100.545C275 100.898 274.647 101.251 274.294 101.427L192.094 123.477C192.271 123.477 192.271 123.477 192.094 123.477Z" fill="#BC7A4E"/>
<path d="M190.859 118.714C190.507 118.714 190.33 118.538 190.154 118.361C189.978 118.008 190.154 117.656 190.507 117.479L273.942 87.1393C274.294 86.9629 274.647 87.1393 274.824 87.4921C275 87.8448 274.824 88.1976 274.471 88.374L191.036 118.714C190.859 118.714 190.859 118.714 190.859 118.714Z" fill="#BC7A4E"/>
<path d="M188.919 114.128C188.743 114.128 188.39 113.951 188.39 113.775C188.214 113.422 188.39 113.07 188.743 112.893L273.942 73.2042C274.294 73.0278 274.647 73.2042 274.824 73.557C275 73.9098 274.824 74.2626 274.471 74.439L189.272 114.128C189.096 114.128 189.096 114.128 188.919 114.128Z" fill="#BC7A4E"/>
<path d="M186.802 109.718C186.626 109.718 186.273 109.541 186.273 109.365C186.097 109.012 186.273 108.659 186.45 108.483L273.942 58.034C274.294 57.8576 274.647 58.034 274.824 58.2104C275 58.5632 274.824 58.916 274.647 59.0924L187.155 109.541C186.979 109.718 186.802 109.718 186.802 109.718Z" fill="#BC7A4E"/>
<path d="M184.156 105.484C183.98 105.484 183.803 105.308 183.627 105.132C183.451 104.779 183.451 104.426 183.803 104.25L273.941 41.1002C274.294 40.9238 274.647 40.9238 274.823 41.2766C275 41.6294 275 41.9822 274.647 42.1586L184.509 105.308C184.333 105.484 184.333 105.484 184.156 105.484Z" fill="#BC7A4E"/>
<path d="M181.158 101.427C180.981 101.427 180.805 101.427 180.628 101.251C180.452 100.898 180.452 100.545 180.628 100.369L273.765 22.2258C274.118 22.0494 274.471 22.0494 274.647 22.2258C274.823 22.5786 274.823 22.9314 274.647 23.1078L181.51 101.251C181.334 101.427 181.158 101.427 181.158 101.427Z" fill="#BC7A4E"/>
<path d="M177.63 97.8994C177.453 97.8994 177.277 97.8994 177.101 97.723C176.924 97.5466 176.924 97.0174 177.101 96.841L273.765 0.176486C273.941 9.06736e-05 274.471 9.06736e-05 274.647 0.176486C274.823 0.352881 274.823 0.882066 274.647 1.05846L178.159 97.723C177.983 97.8994 177.806 97.8994 177.63 97.8994Z" fill="#BC7A4E"/>
<path d="M173.925 94.5478C173.749 94.5478 173.573 94.5478 173.573 94.3715C173.22 94.1951 173.22 93.6659 173.573 93.4895L251.892 0.176458C252.069 -0.176332 252.598 -0.176332 252.774 0.176458C253.127 0.352853 253.127 0.882038 252.774 1.05843L174.455 94.3715C174.278 94.5478 174.102 94.5478 173.925 94.5478Z" fill="#BC7A4E"/>
<path d="M169.868 91.7256C169.692 91.7256 169.692 91.7256 169.516 91.5492C169.163 91.3728 169.163 90.8436 169.339 90.6672L232.665 0.176538C232.841 -0.176252 233.371 -0.176252 233.547 0.000143245C233.9 0.176538 233.9 0.705724 233.723 0.882119L170.398 91.3728C170.398 91.7256 170.221 91.7256 169.868 91.7256Z" fill="#BC7A4E"/>
<path d="M165.635 89.2561C165.458 89.2561 165.458 89.2561 165.282 89.2561C164.929 89.0797 164.929 88.7269 165.106 88.3741L215.907 0.529322C216.084 0.176531 216.437 0.176531 216.789 0.352926C217.142 0.529322 217.142 0.882112 216.966 1.2349L166.34 88.9033C166.164 89.0797 165.988 89.2561 165.635 89.2561Z" fill="#BC7A4E"/>
<path d="M161.225 87.1394C161.049 87.1394 161.049 87.1394 160.872 87.1394C160.519 86.963 160.343 86.6102 160.519 86.2575L200.561 0.529413C200.737 0.176623 201.09 0.000227399 201.443 0.176623C201.796 0.353018 201.972 0.705808 201.796 1.0586L161.754 86.7866C161.754 86.963 161.401 87.1394 161.225 87.1394Z" fill="#BC7A4E"/>
<path d="M156.639 85.3754H156.462C156.109 85.199 155.933 84.8462 156.109 84.4934L186.802 0.352899C186.979 0.000108868 187.331 -0.176286 187.684 0.000108875C188.037 0.176504 188.213 0.529294 188.037 0.882085L157.344 85.0226C157.168 85.199 156.991 85.3754 156.639 85.3754Z" fill="#BC7A4E"/>
<path d="M151.876 84.1405C151.347 83.9641 151.17 83.6113 151.17 83.2585L173.573 0.529185C173.573 0.176395 173.925 0 174.278 0C174.631 0.176395 174.807 0.529185 174.807 0.881976L152.582 83.6113C152.582 83.9641 152.229 84.1405 151.876 84.1405Z" fill="#BC7A4E"/>
<path d="M147.113 83.0821C146.584 83.0821 146.408 82.7293 146.408 82.3765L160.872 0.529185C160.872 0.176395 161.225 0 161.578 0C162.107 0 162.283 0.35279 162.283 0.705581L147.819 82.5529C147.819 82.9057 147.466 83.0821 147.113 83.0821Z" fill="#BC7A4E"/>
<path d="M142.351 82.553C141.998 82.553 141.645 82.2002 141.645 81.8474L148.701 0.529229C148.701 0.176439 149.054 -0.176351 149.407 4.36939e-05C149.759 4.36939e-05 150.112 0.352834 149.936 0.705624L142.88 82.0238C142.88 82.3766 142.704 82.553 142.351 82.553Z" fill="#BC7A4E"/>
<path d="M193.858 135.648C193.505 135.648 193.153 135.295 193.153 134.942C193.153 134.59 193.505 134.237 193.858 134.237L274.294 130.709C274.647 130.709 275 131.062 275 131.415C275 131.767 274.647 132.12 274.294 132.12L193.858 135.648Z" fill="#BC7A4E"/>
<path d="M193.505 130.709C193.153 130.709 192.976 130.532 192.8 130.18C192.8 129.827 192.976 129.474 193.329 129.474L274.118 118.89C274.471 118.89 274.824 119.067 274.824 119.42C274.824 119.772 274.647 120.125 274.294 120.125L193.505 130.709Z" fill="#BC7A4E"/>
<path d="M192.623 125.946C192.271 125.946 192.094 125.77 191.918 125.417C191.918 125.064 192.094 124.711 192.447 124.711L273.941 106.543C274.294 106.543 274.647 106.719 274.647 107.072C274.647 107.425 274.471 107.777 274.118 107.777L192.623 125.946C192.8 125.946 192.8 125.946 192.623 125.946Z" fill="#BC7A4E"/>
<path d="M191.565 121.007C191.212 121.007 191.036 120.831 190.859 120.478C190.683 120.125 190.859 119.772 191.212 119.596L273.942 93.4896C274.294 93.3132 274.647 93.4896 274.824 93.8424C275 94.1952 274.824 94.548 274.471 94.7244L191.741 120.831C191.741 121.007 191.565 121.007 191.565 121.007Z" fill="#BC7A4E"/>
<path d="M189.978 116.421C189.801 116.421 189.448 116.244 189.448 116.068C189.272 115.715 189.448 115.363 189.801 115.186L274.118 80.2599C274.471 80.0835 274.824 80.2599 275 80.6127C275.176 80.9655 275 81.3182 274.647 81.4946L190.33 116.421C190.154 116.421 189.978 116.421 189.978 116.421Z" fill="#BC7A4E"/>
<path d="M187.861 111.835C187.684 111.835 187.331 111.658 187.331 111.482C187.155 111.129 187.331 110.776 187.684 110.6L273.941 65.619C274.294 65.4426 274.647 65.619 274.823 65.9718C275 66.3246 274.823 66.6774 274.471 66.8538L188.213 111.835C188.213 111.835 188.037 111.835 187.861 111.835Z" fill="#BC7A4E"/>
<path d="M185.568 107.601C185.391 107.601 185.215 107.425 185.038 107.248C184.862 106.896 184.862 106.543 185.215 106.366L273.942 49.7436C274.294 49.5672 274.647 49.5672 274.824 49.9199C275 50.2727 275 50.6255 274.647 50.8019L185.92 107.425C185.744 107.425 185.568 107.601 185.568 107.601Z" fill="#BC7A4E"/>
<path d="M182.569 103.368C182.392 103.368 182.216 103.191 182.04 103.191C181.863 102.838 181.863 102.486 182.216 102.309L273.765 31.9276C274.118 31.7512 274.471 31.7512 274.647 32.104C274.824 32.4568 274.824 32.8096 274.471 32.986L182.922 103.368C182.922 103.368 182.745 103.368 182.569 103.368Z" fill="#BC7A4E"/>
<path d="M179.394 99.6635C179.217 99.6635 179.041 99.6635 178.864 99.4871C178.688 99.1343 178.688 98.7815 178.864 98.6051L273.765 11.6423C274.118 11.4659 274.471 11.4659 274.647 11.6423C274.823 11.9951 274.823 12.3479 274.647 12.5243L179.923 99.4871C179.746 99.6635 179.57 99.6635 179.394 99.6635Z" fill="#BC7A4E"/>
<path d="M175.866 96.1354C175.689 96.1354 175.513 96.1354 175.337 95.959C174.984 95.7826 174.984 95.2534 175.337 95.077L262.299 0.176458C262.476 -0.176332 263.005 -0.176332 263.181 0.176458C263.534 0.352853 263.534 0.882039 263.181 1.05843L176.395 95.959C176.219 96.1354 176.042 96.1354 175.866 96.1354Z" fill="#BC7A4E"/>
<path d="M171.985 93.1368C171.809 93.1368 171.632 93.1368 171.632 92.9604C171.28 92.784 171.28 92.2548 171.456 92.0784L241.838 0.176538C242.014 -0.176252 242.543 -0.176252 242.72 0.000143245C243.072 0.176538 243.072 0.705724 242.896 0.882119L172.514 92.9604C172.338 92.9604 172.162 93.1368 171.985 93.1368Z" fill="#BC7A4E"/>
<path d="M167.752 90.491C167.575 90.491 167.575 90.491 167.399 90.3146C167.046 90.1382 167.046 89.7854 167.223 89.4326L224.022 0.353052C224.198 0.00026178 224.551 0.00026178 224.904 0.176657C225.257 0.353052 225.257 0.705842 225.08 1.05863L168.457 90.1382C168.281 90.3146 168.105 90.491 167.752 90.491Z" fill="#BC7A4E"/>
<path d="M163.518 88.1977C163.342 88.1977 163.342 88.1977 163.165 88.1977C162.813 88.0213 162.636 87.6685 162.813 87.3157L208.146 0.352899C208.323 0.000108868 208.675 -0.176286 209.028 0.000108875C209.381 0.176504 209.557 0.529294 209.381 0.882085L164.047 87.8449C163.871 88.0213 163.695 88.1977 163.518 88.1977Z" fill="#BC7A4E"/>
<path d="M158.932 86.2572H158.755C158.403 86.0808 158.226 85.728 158.403 85.3752L193.505 0.529185C193.682 0 194.035 0 194.387 0C194.74 0.176395 194.916 0.529185 194.74 0.881976L159.637 85.9044C159.461 86.0808 159.285 86.2572 158.932 86.2572Z" fill="#BC7A4E"/>
<path d="M154.346 84.6699H154.169C153.817 84.4935 153.64 84.1407 153.817 83.7879L179.923 0.529413C180.099 0.176623 180.452 0.000227399 180.805 0.176623C181.158 0.353018 181.334 0.705808 181.158 1.0586L154.875 84.3171C154.875 84.4935 154.522 84.6699 154.346 84.6699Z" fill="#BC7A4E"/>
<path d="M149.583 83.6113C149.583 83.6113 149.407 83.6113 149.583 83.6113C149.054 83.4349 148.877 83.0821 148.877 82.7293L167.223 0.529185C167.223 0.176395 167.575 0 167.928 0C168.281 0 168.457 0.35279 168.457 0.705581L150.112 83.0821C150.112 83.4349 149.936 83.6113 149.583 83.6113Z" fill="#BC7A4E"/>
<path d="M144.82 82.7293C144.644 82.7293 144.644 82.7293 144.82 82.7293C144.291 82.7293 144.115 82.3765 144.115 82.0237L154.875 0.529185C154.875 0.176395 155.228 0 155.58 0C155.933 0 156.11 0.35279 156.11 0.705581L145.35 82.2001C145.35 82.5529 144.997 82.7293 144.82 82.7293Z" fill="#BC7A4E"/>
<path d="M139.881 82.3765C139.528 82.3765 139.176 82.0237 139.176 81.6709L142.703 0.529185C142.88 0.35279 143.056 0 143.409 0C143.762 0 144.115 0.35279 144.115 0.705581L140.587 81.8473C140.587 82.2001 140.234 82.3765 139.881 82.3765Z" fill="#BC7A4E"/>
<path d="M80.9654 138.117H0.705581C0.35279 138.117 0 137.765 0 137.412C0 137.059 0.35279 136.706 0.705581 136.706H80.9654C81.3182 136.706 81.6709 137.059 81.6709 137.412C81.6709 137.765 81.3182 138.117 80.9654 138.117Z" fill="#BC7A4E"/>
<path d="M81.1416 133.179L0.528985 126.123C0.176195 126.123 -0.176596 125.77 -0.000200447 125.417C-0.000200447 125.064 0.35259 124.712 0.70538 124.888L81.318 131.944C81.6708 131.944 82.0235 132.297 81.8472 132.649C81.8472 133.002 81.4944 133.179 81.1416 133.179Z" fill="#BC7A4E"/>
<path d="M81.8472 128.239C81.6708 128.239 81.6708 128.239 81.8472 128.239L0.705455 113.951C0.352665 113.951 0.17627 113.599 0.17627 113.246C0.17627 112.893 0.52906 112.717 0.88185 112.717L82.0236 127.005C82.3764 127.005 82.5528 127.357 82.5528 127.71C82.3764 128.063 82.0236 128.239 81.8472 128.239Z" fill="#BC7A4E"/>
<path d="M82.7293 123.477L0.529185 101.427C0.176395 101.427 0 101.075 0 100.722C0.176395 100.369 0.529185 100.193 0.881976 100.193L82.9057 122.242C83.2585 122.418 83.4349 122.771 83.4349 123.124C83.2585 123.3 83.0821 123.477 82.7293 123.477Z" fill="#BC7A4E"/>
<path d="M84.1405 118.714H83.9641L0.35279 88.374C0.176395 88.1976 0 87.8448 0 87.4921C0.176395 87.1393 0.529185 86.9629 0.881976 87.1393L84.3169 117.479C84.6697 117.656 84.8461 118.008 84.6697 118.361C84.6697 118.538 84.4933 118.714 84.1405 118.714Z" fill="#BC7A4E"/>
<path d="M85.9043 114.128C85.7279 114.128 85.7279 114.128 85.5515 114.128L0.352655 74.2625C-0.00013528 74.0861 -0.17653 73.7333 -0.000135273 73.3805C0.17626 73.0277 0.52905 72.8513 0.88184 73.0277L86.2571 112.893C86.6099 113.069 86.7863 113.422 86.6099 113.775C86.4335 113.951 86.2571 114.128 85.9043 114.128Z" fill="#BC7A4E"/>
<path d="M88.1974 109.718C88.021 109.718 88.021 109.718 87.8446 109.718L0.352583 59.0924C-0.000207748 58.9161 -0.176603 58.3869 0.176187 58.2105C0.352583 57.8577 0.705373 57.8577 1.05816 58.0341L88.5501 108.483C88.9029 108.659 88.9029 109.012 88.7265 109.365C88.5501 109.541 88.3738 109.718 88.1974 109.718Z" fill="#BC7A4E"/>
<path d="M90.8433 105.484C90.6669 105.484 90.6669 105.484 90.4905 105.308L0.352564 42.1586C-0.000226501 41.9822 -0.000226501 41.453 0.176169 41.2766C0.352564 40.9238 0.881749 40.9238 1.05814 41.1002L91.1961 104.25C91.5489 104.426 91.5488 104.955 91.3725 105.132C91.1961 105.308 91.0197 105.484 90.8433 105.484Z" fill="#BC7A4E"/>
<path d="M93.8421 101.427C93.6657 101.427 93.4893 101.427 93.4893 101.251L0.176242 23.108C-0.000153467 22.9316 -0.000153467 22.5788 0.176242 22.226C0.352637 21.8732 0.881822 21.8732 1.05822 22.226L94.1948 100.369C94.5476 100.545 94.5476 101.075 94.1948 101.251C94.1948 101.427 94.0184 101.427 93.8421 101.427Z" fill="#BC7A4E"/>
<path d="M97.1936 97.8994C97.0172 97.8994 96.8408 97.8994 96.6644 97.723L0.176242 1.05846C-0.000153463 0.882066 -0.000153463 0.529276 0.176242 0.176486C0.529032 9.06736e-05 0.881822 9.06736e-05 1.05822 0.176486L97.7227 96.841C97.8991 97.0174 97.8991 97.5466 97.7227 97.723C97.5463 97.8994 97.3699 97.8994 97.1936 97.8994Z" fill="#BC7A4E"/>
<path d="M100.898 94.5479C100.721 94.5479 100.545 94.5479 100.369 94.3715L22.2256 1.05846C22.0492 0.705671 22.0492 0.352881 22.2256 0.176486C22.5783 9.06736e-05 22.9311 9.06736e-05 23.1075 0.176486L101.427 93.4895C101.603 93.8423 101.603 94.1951 101.427 94.3715C101.251 94.5479 101.074 94.5479 100.898 94.5479Z" fill="#BC7A4E"/>
<path d="M104.955 91.7257C104.779 91.7257 104.602 91.5493 104.426 91.3729L41.1 1.05863C40.9236 0.705842 40.9236 0.353052 41.2764 0.176657C41.6292 0.00026178 41.982 0.00026178 42.1584 0.353052L105.484 90.8438C105.661 91.1965 105.661 91.5493 105.308 91.7257C105.308 91.7257 105.131 91.7257 104.955 91.7257Z" fill="#BC7A4E"/>
<path d="M109.188 89.2561C109.012 89.2561 108.659 89.0797 108.659 88.9033L57.8575 1.05856C57.6811 0.705766 57.8575 0.352976 58.0339 0.176581C58.3867 0.000185743 58.7395 0.176581 58.9159 0.352976L109.894 88.1978C110.07 88.5505 109.894 88.9033 109.718 89.0797C109.541 89.2561 109.365 89.2561 109.188 89.2561Z" fill="#BC7A4E"/>
<path d="M113.598 87.1393C113.422 87.1393 113.069 86.9629 113.069 86.7865L73.0275 0.882084C72.8511 0.529294 73.0274 0.176504 73.3802 0.000108868C73.733 -0.176286 74.0858 0.00010886 74.2622 0.352899L114.304 86.0809C114.48 86.4337 114.304 86.7865 113.951 86.9629C113.951 87.1393 113.775 87.1393 113.598 87.1393Z" fill="#BC7A4E"/>
<path d="M118.361 85.3754C118.008 85.3754 117.832 85.199 117.655 85.0226L87.139 0.882085C86.9626 0.529294 87.139 0.176504 87.4918 0.000108875C87.8446 -0.176286 88.1974 0.000108868 88.3738 0.352899L119.067 84.4934C119.243 84.8462 119.067 85.199 118.714 85.3754C118.361 85.3754 118.361 85.3754 118.361 85.3754Z" fill="#BC7A4E"/>
<path d="M122.947 84.1405C122.595 84.1405 122.418 83.9641 122.242 83.6113L100.192 0.882019C100.016 0.529229 100.369 0.176439 100.722 4.36939e-05C101.074 -0.176351 101.427 0.176439 101.604 0.529229L123.829 83.2585C123.653 83.6113 123.477 83.9641 122.947 84.1405C123.124 84.1405 123.124 84.1405 122.947 84.1405Z" fill="#BC7A4E"/>
<path d="M127.71 83.0821C127.357 83.0821 127.181 82.9057 127.004 82.5529L112.716 0.705581C112.716 0.35279 112.893 0 113.245 0C113.598 0 113.951 0.176395 113.951 0.529185L128.415 82.3765C128.415 82.7293 128.239 83.0821 127.71 83.0821C127.886 83.0821 127.886 83.0821 127.71 83.0821Z" fill="#BC7A4E"/>
<path d="M132.649 82.5529C132.296 82.5529 131.944 82.3765 131.944 82.0237L124.888 0.705581C124.888 0.35279 125.064 0 125.417 0C125.77 0 126.122 0.176395 126.122 0.529185L133.178 81.8474C133.355 82.2001 133.002 82.5529 132.649 82.5529Z" fill="#BC7A4E"/>
<path d="M80.9652 135.648L0.529067 132.12C0.176277 132.12 -0.176514 131.767 -0.176514 131.415C-0.176514 131.062 -0.000118554 130.709 0.529067 130.709L80.9652 134.237C81.318 134.237 81.6708 134.59 81.6708 134.942C81.6708 135.295 81.318 135.648 80.9652 135.648Z" fill="#BC7A4E"/>
<path d="M81.4944 130.709C81.4944 130.709 81.318 130.709 81.4944 130.709L0.705455 120.125C0.352665 120.125 0.17627 119.772 0.17627 119.42C0.17627 119.067 0.52906 118.714 0.88185 118.89L81.6708 129.474C82.0236 129.474 82.2 129.827 82.2 130.18C82.0236 130.533 81.8472 130.709 81.4944 130.709Z" fill="#BC7A4E"/>
<path d="M82.2001 125.946L0.529185 107.777C0.176395 107.777 0 107.425 0 107.072C0 106.719 0.35279 106.543 0.705581 106.543L82.2001 124.711C82.5529 124.711 82.7293 125.064 82.7293 125.417C82.7293 125.593 82.5529 125.946 82.2001 125.946Z" fill="#BC7A4E"/>
<path d="M83.4349 121.007H83.2585L0.529185 94.9008C0.176395 94.9008 0 94.548 0 94.1952C0.176395 93.8424 0.529185 93.666 0.881976 93.8424L83.6113 119.949C83.9641 120.125 84.1405 120.478 83.9641 120.831C83.9641 120.831 83.6113 121.007 83.4349 121.007Z" fill="#BC7A4E"/>
<path d="M85.0223 116.421H84.8459L0.352655 81.4946C-0.000135288 81.3182 -0.17653 80.9655 -0.00013528 80.6127C0.17626 80.2599 0.52905 80.0835 0.88184 80.2599L85.1987 115.186C85.5515 115.363 85.7279 115.715 85.5515 116.068C85.5515 116.244 85.1987 116.421 85.0223 116.421Z" fill="#BC7A4E"/>
<path d="M86.9627 111.835C86.7863 111.835 86.7863 111.835 86.6099 111.835L0.352655 66.8538C-0.000135288 66.6774 -0.17653 66.3246 -0.00013528 65.9718C0.17626 65.619 0.52905 65.4426 0.88184 65.619L87.1391 110.6C87.4918 110.776 87.6682 111.129 87.4918 111.482C87.4918 111.658 87.3154 111.835 86.9627 111.835Z" fill="#BC7A4E"/>
<path d="M89.4321 107.601C89.2557 107.601 89.2557 107.601 89.0793 107.425L0.352564 50.8019C-0.000226501 50.6255 -0.000226501 50.2727 0.176169 49.9199C0.352564 49.5672 0.705354 49.5672 1.05814 49.7436L89.7849 106.366C90.1377 106.543 90.1377 106.896 89.9613 107.248C89.7849 107.425 89.6085 107.601 89.4321 107.601Z" fill="#BC7A4E"/>
<path d="M92.2545 103.368C92.0781 103.368 91.9017 103.368 91.9017 103.191L0.176242 32.986C-0.000153467 32.8096 -0.000153467 32.4568 0.176242 32.104C0.352637 31.7512 0.705427 31.7512 1.05822 31.9276L92.6073 102.309C92.9601 102.486 92.9601 103.015 92.7837 103.191C92.6073 103.368 92.4309 103.368 92.2545 103.368Z" fill="#BC7A4E"/>
<path d="M95.4296 99.6634C95.2532 99.6634 95.0768 99.6635 94.9004 99.4871L0.176242 12.5243C-0.000153463 12.3479 -0.000153463 11.9951 0.176242 11.6423C0.352637 11.2895 0.881822 11.2895 1.05822 11.6423L95.9588 98.6051C96.3116 98.7815 96.3116 99.3107 95.9588 99.4871C95.7824 99.6635 95.606 99.6634 95.4296 99.6634Z" fill="#BC7A4E"/>
<path d="M99.134 96.1354C98.9576 96.1354 98.7813 96.1354 98.6049 95.959L11.6421 1.05846C11.4657 0.705671 11.4657 0.352881 11.6421 0.176486C11.9949 9.06736e-05 12.3476 9.06736e-05 12.524 0.176486L99.4868 95.0771C99.6632 95.4299 99.6632 95.7826 99.4868 95.959C99.3104 96.1354 99.134 96.1354 99.134 96.1354Z" fill="#BC7A4E"/>
<path d="M103.015 93.1367C102.838 93.1367 102.662 92.9603 102.485 92.9603L31.9274 1.05846C31.751 0.705671 31.751 0.352881 32.1038 0.176486C32.4566 9.06698e-05 32.8094 9.06698e-05 32.9858 0.176486L103.367 92.0784C103.544 92.4311 103.544 92.7839 103.191 92.9603C103.191 93.1367 103.015 93.1367 103.015 93.1367Z" fill="#BC7A4E"/>
<path d="M107.072 90.491C106.895 90.491 106.719 90.3146 106.543 90.1382L49.7433 1.05863C49.5669 0.705842 49.5669 0.353052 49.9197 0.176657C50.2725 0.00026178 50.6253 0.00026178 50.8017 0.353052L107.601 89.4326C107.777 89.7854 107.777 90.1382 107.425 90.3146C107.248 90.491 107.248 90.491 107.072 90.491Z" fill="#BC7A4E"/>
<path d="M111.481 88.1977C111.305 88.1977 110.952 88.0213 110.952 87.8449L65.6188 0.882085C65.4424 0.529294 65.6188 0.176504 65.9716 0.000108875C66.3243 -0.176286 66.6771 0.000108868 66.8535 0.352899L112.011 87.1393C112.187 87.4921 112.011 87.8449 111.658 88.0213C111.658 88.1977 111.481 88.1977 111.481 88.1977Z" fill="#BC7A4E"/>
<path d="M115.891 86.2573C115.715 86.2573 115.362 86.0809 115.362 85.9045L80.2596 0.882084C80.0832 0.529294 80.2596 0.176504 80.6124 0.000108868C80.9652 -0.176286 81.318 0.00010886 81.4944 0.352899L116.597 85.199C116.773 85.5517 116.597 85.9045 116.244 86.0809C116.068 86.2573 116.068 86.2573 115.891 86.2573Z" fill="#BC7A4E"/>
<path d="M120.654 84.6698C120.301 84.6698 120.125 84.4934 119.949 84.1406L93.6656 0.882084C93.4892 0.529294 93.6656 0.176504 94.0184 0.000108868C94.3712 -0.176286 94.724 0.00010886 94.9004 0.352899L121.183 83.7878C121.36 84.1406 121.183 84.4934 120.83 84.6698H120.654Z" fill="#BC7A4E"/>
<path d="M125.417 83.6114C125.064 83.6114 124.888 83.435 124.711 83.0822L106.542 0.882094C106.542 0.529304 106.719 0.176514 107.072 0.176514C107.424 0.176514 107.777 0.352909 107.777 0.705699L125.946 82.9058C126.122 83.0822 125.946 83.435 125.417 83.6114Z" fill="#BC7A4E"/>
<path d="M130.18 82.7293C129.827 82.7293 129.65 82.5529 129.474 82.2001L118.714 0.705581C118.714 0.35279 118.89 0 119.243 0C119.596 0 119.949 0.176395 119.949 0.529185L130.709 82.0237C130.885 82.3765 130.709 82.7293 130.18 82.7293Z" fill="#BC7A4E"/>
<path d="M135.118 82.3767C134.766 82.3767 134.413 82.0239 134.413 81.6711L130.885 0.529311C130.885 0.176521 131.238 -0.17627 131.591 -0.17627C131.943 -0.17627 132.296 0.176521 132.296 0.529311L135.824 81.6711C135.648 82.0239 135.471 82.3767 135.118 82.3767Z" fill="#BC7A4E"/>
<path d="M274.294 275H0.705581C0.35279 275 0 274.647 0 274.294V0.705581C0 0.35279 0.35279 0 0.705581 0H274.294C274.647 0 275 0.35279 275 0.705581V274.294C275 274.647 274.647 275 274.294 275ZM1.23477 273.589H273.589V1.23477H1.23477V273.589Z" fill="#BC7A4E"/>
<path d="M194.035 137.412H80.9653C82.2001 211.851 192.8 211.851 194.035 137.412Z" fill="#BC7A4E"/>
</g>
<defs>
<clipPath id="clip0">
<rect width="275" height="275" fill="white"/>
</clipPath>
</defs>
</svg>
