<svg width="105" height="126" viewBox="0 0 105 126" fill="none" xmlns="http://www.w3.org/2000/svg">
<path d="M104.782 54.7785C104.271 53.41 102.962 52.5 101.499 52.5H59.2365L83.6138 5.103C84.3803 3.612 83.9848 1.7885 82.6654 0.7525C82.0284 0.2485 81.2619 0 80.4989 0C79.6834 0 78.8679 0.287 78.2134 0.8505L52.4991 23.058L1.21392 67.3505C0.107927 68.306 -0.29107 69.8495 0.219926 71.218C0.730923 72.5865 2.03641 73.5 3.4994 73.5H45.7616L21.3843 120.897C20.6178 122.388 21.0133 124.211 22.3328 125.247C22.9698 125.751 23.7363 126 24.4993 126C25.3148 126 26.1302 125.713 26.7847 125.149L52.4991 102.942L103.784 58.6495C104.894 57.694 105.289 56.1505 104.782 54.7785Z" fill="#BD7B4F"/>
</svg>
