<svg width="147" height="70" viewBox="0 0 147 70" fill="none" xmlns="http://www.w3.org/2000/svg">
<path d="M32.4355 70.5378C32.3613 70.9349 32.0254 70.9261 31.7912 70.6284C31.6602 70.4751 31.3212 69.6992 31.0009 69.8708C30.8358 69.9521 30.7848 70.304 30.5104 70.1688C31.0615 70.6739 31.8142 70.9984 32.0958 71.7382C32.7209 71.5303 32.8354 70.9708 33.1254 72.0174C33.1903 72.243 33.8282 73.5421 33.6424 72.7571C33.5843 72.5045 32.9915 71.4129 33.2015 71.2233C33.471 70.9885 34.1036 72.0169 34.4136 71.9355C34.518 71.0511 33.7534 70.7989 33.0447 70.5646C32.8309 70.5015 32.5377 70.1497 32.4536 70.5378L32.4355 70.5378Z" fill="#985F3F"/>
<path d="M29.878 68.4094C29.7615 68.3192 29.6289 68.1478 29.5347 68.211C29.5425 68.3013 29.7301 68.6892 29.878 68.4094Z" fill="#985F3F"/>
<path d="M36.496 75.7877C36.3668 75.9682 35.9654 75.5172 35.8775 75.6526C35.7482 75.8332 36.2795 76.3202 36.186 76.6C36.029 77.0873 35.0135 76.2396 34.8561 76.0953C34.4397 75.6804 34.0501 75.1572 34.0642 74.5887C34.0712 74.1465 34.1423 73.7133 33.7254 73.3977C33.4969 73.6866 33.8393 74.0835 33.6205 74.3814C32.4357 73.4615 31.0013 73.1103 29.7467 72.3259C29.3822 72.0914 29.5835 72.0101 29.7396 71.7213C29.9737 71.288 29.5971 70.8099 29.2574 71.2793C29.095 71.496 28.9821 72.0736 28.5871 72.0106C27.9551 71.9297 27.3551 71.6954 26.703 71.6957C26.2584 71.6869 25.7134 71.6692 25.3108 71.8318C25.258 71.8499 24.6008 71.8953 24.6008 71.8953C23.7149 71.4987 23.0243 71.9954 22.1752 72.2304C21.5651 72.4022 21.099 72.7724 20.4676 72.9081C19.6583 73.0799 19.7249 73.6394 19.1336 74.0277C18.6447 74.3438 19.1656 74.6052 19.5299 74.5238C20.0541 74.4063 20.5461 74.1263 21.0035 73.8643C22.344 73.1327 23.888 73.2854 25.4367 73.4921C27.1236 73.7259 28.7485 74.1853 30.3545 74.8432C31.247 75.2128 32.1395 75.5823 33.0088 75.997C33.5281 76.2404 34.6789 76.6639 35.0043 77.1781C35.2675 77.6021 35.8814 77.683 36.2904 77.9084C36.8621 78.233 36.6708 78.6391 36.7509 79.1444C36.8517 79.7851 37.3606 78.341 37.6106 79.135C37.7729 79.6493 37.6067 80.3442 36.9367 79.9294C37.9305 80.8404 37.5798 81.9144 37.5288 82.9973C37.516 83.268 37.516 83.9989 37.9962 83.7911C38.2337 83.7098 37.5771 82.51 38.3274 82.284C38.543 82.6809 38.6168 83.114 39.0124 83.3936C39.8406 82.7073 37.072 80.2362 37.9863 79.0807C39.0903 80.0096 40.0115 80.6047 40.2769 81.9942C40.4234 82.7431 40.9217 82.5353 40.9689 81.9307C41.0094 81.3532 40.8056 80.884 40.4917 80.3969C40.0632 79.7384 39.5902 79.0889 39.0081 78.5387C38.5637 78.1148 37.6951 77.9167 37.3879 77.4025C37.2179 77.1138 36.3207 76.6901 36.7671 76.3019C37.1209 75.9949 37.4919 75.1555 36.8152 74.7678C36.5338 75.0748 36.8167 75.5168 36.5074 75.8147L36.496 75.7877ZM33.6999 75.401C33.3192 75.8163 30.632 74.2836 30.1718 74.0943C28.4064 73.3733 26.5363 73.2209 24.7922 72.5359C26.1416 72.0118 27.8643 72.3449 29.2305 72.8495C30.794 73.4353 32.7056 73.8585 33.6999 75.401Z" fill="#985F3F"/>
<path d="M25.2292 65.4612C25.6864 65.6144 26.2108 65.8126 26.6921 65.7222C26.4713 65.3703 25.5383 65.5784 25.2292 65.4612Z" fill="#985F3F"/>
<path d="M14.8125 94.2888C16.454 95.4611 18.3254 96.0467 20.1762 96.8128C21.5191 97.3626 23.416 97.4067 24.8187 97.4963C25.7571 97.559 26.6566 97.4863 27.5903 97.4949C28.053 97.5037 29.1106 97.7919 29.4789 97.5481C29.9942 97.2229 30.8952 97.1683 31.4762 96.8703C32.422 96.3915 33.4269 95.9669 34.3006 95.3889C35.878 94.3594 37.2185 92.8968 38.4173 91.4704C39.5995 90.0621 41.0564 88.3739 41.4847 86.5238C41.913 84.6737 42.2541 83.1755 42.0737 81.1994C42.0174 80.5497 41.9966 79.6834 41.7607 79.0518C41.5558 78.4654 41.1981 76.742 40.7553 76.3361C40.3617 75.9754 40.0432 75.019 39.7753 74.5408C39.2737 73.6658 38.8068 72.7726 38.2871 71.8976C37.1269 69.9039 35.8527 68.3705 34.0195 66.9727C32.7591 66.0168 31.3033 64.5827 29.6651 64.4933C28.9012 64.4576 28.1936 64.3406 27.4316 64.2237C26.4114 64.0527 25.4126 64.2337 24.4188 64.0537C22.5693 63.7208 21.1928 64.0373 19.5287 64.5886C18.6744 64.8688 17.8169 65.1129 16.9512 65.366C16.0146 65.6372 15.5389 66.3142 14.8675 66.9282C12.2911 69.2847 8.7016 71.344 8.50915 75.2875C8.42903 76.975 8.51998 79.0685 8.06975 80.666C7.65306 82.1281 7.97349 83.7342 8.33059 85.241C8.7588 87.0456 9.57392 88.5071 10.7943 89.9413C12.1063 91.4927 13.1187 93.0353 14.8373 94.2617L14.8125 94.2888ZM25.9056 96.7648C25.2975 96.8553 23.6097 96.8201 23.0515 96.4413C23.355 95.972 23.9893 96.2875 24.4484 96.3594C25.1083 96.4493 25.8627 96.0609 26.4779 96.575C26.329 96.7375 26.136 96.8098 25.9056 96.7648ZM17.6604 91.6162C17.1809 92.0406 18.0363 92.6087 18.0128 93.0689C17.9687 93.7097 16.7833 92.5732 16.7003 92.3477C16.5733 92.0319 16.6912 91.8243 16.7846 91.5445C16.8864 91.2557 16.0809 90.9493 15.8986 90.8321C15.59 90.6156 15.2668 90.3361 15.1005 89.9842C14.7366 89.2354 15.2991 89.7675 15.5236 89.6411C15.2821 89.1539 14.5904 88.8023 14.6112 88.2067C14.6398 87.7014 14.4976 87.1059 14.694 86.6546C14.912 86.1401 14.1419 84.5703 14.9237 84.2902C15.5166 85.3818 16.0723 86.6719 16.543 87.8177C16.6685 88.1155 16.7841 88.4042 16.7843 88.72C16.7793 89.081 17.3311 89.0717 17.529 89.3694C18.1688 90.2714 19.0544 91.0831 19.6398 91.9852C20.1419 92.761 18.9845 93.4114 18.4335 93.6372C18.3588 93.4027 18.2049 93.1952 18.1649 92.9425C18.1124 92.5455 18.6285 92.7528 18.633 92.4911C18.6379 92.1301 17.865 91.8869 17.6785 91.6162L17.6604 91.6162ZM12.816 82.4413C12.7462 83.3077 12.5657 84.2553 12.1014 84.9594C11.3804 84.1656 11.3435 83.2181 11.0085 82.2798C10.9142 82.7581 10.5579 83.2456 10.7435 83.7148C10.0012 83.6159 11.4792 79.4551 11.6653 79.094C11.9878 78.4261 12.1738 78.0651 12.7638 78.7055C13.1243 79.1023 13.6279 79.1653 13.7059 79.7518C13.771 80.2932 13.7853 80.7714 13.9689 81.3218C14.6058 83.2345 14.3635 84.7236 14.1029 86.6278C14.0349 87.0971 14.0228 87.5844 13.9828 88.0627C13.9566 88.3876 14.2384 88.7123 14.1697 88.965C13.9823 89.6238 14.869 90.5528 14.2799 91.1758C13.4001 90.5355 13.062 89.5611 12.6199 88.6409C12.3981 88.1718 12.2773 87.9282 12.2977 87.4318C12.3227 86.9897 12.6247 86.5022 12.5804 86.0962C12.5048 85.3292 13.9517 81.1233 13.3076 80.7987C12.8031 80.9344 12.8473 82.0713 12.8093 82.4684L12.816 82.4413ZM15.0119 90.634C15.2968 90.9948 15.5654 90.9586 15.857 91.2923C15.3831 92.3032 14.4615 91.0764 15.0119 90.634ZM19.371 93.8985C19.7118 93.5463 19.7791 92.8605 20.3199 92.7249C20.7189 92.6254 21.5298 93.2025 21.6548 93.5995C21.757 93.9424 21.0856 94.5563 20.7694 94.5655C20.346 94.5928 19.6295 94.2683 19.371 93.8985ZM22.2456 94.0414C22.7182 94.0592 23.2401 94.4379 23.5168 94.8078C23.8117 95.4934 22.0575 95.2146 21.769 94.9169C21.4215 94.5652 21.8455 94.0235 22.2358 94.0324L22.2456 94.0414ZM24.6844 95.5291C24.3272 95.4842 24.0235 95.6377 23.9426 95.331C23.9394 95.2949 24.8431 95.3756 24.9921 95.2131C25.3696 94.7617 26.0528 94.8065 26.3858 94.3642C26.8331 93.7774 25.347 94.2925 25.2596 94.3286C24.4663 94.5817 25.4405 93.2818 25.5729 93.1373C26.0446 92.6227 26.7773 90.8356 27.6363 91.3405C27.7989 91.4397 29.1121 92.3775 28.1477 92.2246C27.7709 92.1616 27.6204 92.3061 27.5135 92.64C27.373 93.1093 26.8544 93.0825 26.4456 93.173C27.1623 94.5443 26.0685 95.7179 24.6844 95.5291ZM22.8 93.4365C22.9398 92.7506 23.8675 91.5409 24.3754 91.0263C25.0752 90.3221 25.2043 89.8257 26.2265 90.6464C27.1799 91.4039 25.3171 92.9028 24.8269 93.5167C23.8961 94.6903 23.9028 93.9323 22.7918 93.4455L22.8 93.4365ZM29.1843 92.0616C29.8901 91.8447 30.2032 92.5304 29.908 92.9908C29.3274 93.9205 28.6873 94.8954 27.5856 95.2479C26.4478 95.6004 27.0239 94.9324 27.4365 94.3636C27.8409 93.804 28.4868 92.2696 29.1926 92.0526L29.1843 92.0616ZM35.263 93.4302C33.4495 94.9742 31.2461 96.4102 28.8366 96.8265C28.4444 96.8989 27.8016 97.0075 27.4706 96.6377C27.4906 96.2406 28.2946 95.798 28.5708 95.5362C28.8139 95.3105 29.8299 93.1352 30.2741 93.2432C30.5422 93.3063 30.2383 94.6059 30.8678 94.1363C31.1058 93.9557 30.9099 92.1149 31.3791 93.2427C31.7599 93.1432 32.1263 92.9806 32.4407 93.3685C32.2432 93.7025 31.81 93.7207 31.5732 94.0186C31.3694 94.2804 31.4846 94.6684 31.1856 94.8761C31.697 95.0293 32.071 94.641 32.3803 94.3431C32.7739 93.9729 33.1512 93.9366 33.5739 93.6928C34.4508 93.1509 35.5607 92.0584 36.6367 91.9316C36.3669 92.5814 35.7689 92.9968 35.263 93.4302ZM31.1752 91.7268C31.4301 91.4288 32.2632 91.8435 32.0563 92.0692C31.8065 92.322 30.7728 92.2052 31.1752 91.7268ZM35.0001 91.8602C34.3795 92.5373 33.3961 93.3139 32.4298 92.5112C32.4266 92.4751 32.7686 91.5094 32.8069 91.4281C32.9831 91.0581 33.4389 90.7781 33.6612 90.417C33.6943 90.3809 33.9877 89.5867 33.6525 89.7944C33.2743 90.0292 33.0936 90.661 32.8728 91.0401C32.2256 92.1413 31.9271 90.7879 31.8739 90.1743C31.8535 89.9397 31.6333 89.4886 31.5208 89.9669C31.3897 90.5445 31.1649 90.3551 30.6409 90.0576C29.069 89.165 27.4371 88.4169 25.8668 87.5423C24.1929 86.6227 23.1029 85.1253 21.7667 83.8175C21.3208 83.3756 20.7905 83.0058 20.4719 82.4646C20.0713 81.815 19.9875 81.0571 19.5078 80.4347C19.0572 80.6695 19.6451 82.1221 19.8233 82.4017C20.5492 83.5654 21.7262 84.3951 22.6373 85.3963C23.5074 86.3433 24.3304 87.1641 25.4389 87.8313C26.49 88.4625 27.9032 88.7776 28.8451 89.508C29.4557 89.968 30.199 90.1842 30.7961 90.6982C31.6278 91.4107 30.3195 92.3047 29.732 91.4838C29.4735 91.114 29.938 90.7257 29.5988 90.3649C29.0793 89.8057 29.0936 91.0149 28.9875 91.1503C28.3732 91.8996 27.637 90.0952 27.4765 89.9148C26.6266 90.6642 24.8845 89.1671 24.1507 88.6441C22.3845 87.3907 20.9036 85.6678 19.5294 84.0262C18.6416 82.9798 18.1974 82.1408 17.6232 80.95C17.3588 80.4087 17.1227 80.9232 17.1839 81.2119C17.2738 81.7262 17.6075 82.2314 17.8821 82.6824C18.3334 83.3951 18.8406 84.1258 19.4108 84.7482C20.8823 86.3627 22.3218 88.1307 24.131 89.357C25.2278 90.0964 23.1181 92.2993 22.5735 92.9132C22.2011 93.3195 21.4482 92.6792 21.1152 92.3906C20.5673 91.9216 21.2268 91.3798 21.3295 90.8925C21.6929 91.0096 21.9789 91.4877 22.379 91.5056C23.2764 91.5142 22.1844 90.8289 21.9758 90.7207C21.34 90.3872 20.8865 89.4399 20.441 88.8986C19.7956 88.141 19.2263 87.3201 18.5726 86.5714C18.2416 86.2016 18.7868 85.8043 18.3172 85.5067C17.8279 85.1911 17.8386 85.7326 17.9641 86.0303C18.3357 86.8693 18.9885 87.8165 19.5304 88.5291C19.8054 88.8809 20.6485 89.6205 20.6975 90.0807C20.7594 90.586 19.9156 90.3608 20.4942 90.9741C20.8137 91.3169 20.1017 91.4616 19.8458 91.2271C19.4129 90.8303 19.3333 90.2257 18.8755 89.856C18.7377 89.7297 18.6445 89.5944 18.6107 89.4139C18.5459 89.1884 17.9521 89.0262 17.8014 88.8549C17.4507 88.467 17.3119 87.4925 16.9163 87.2129C16.6651 87.0326 16.5538 86.1664 16.3181 85.8506C15.8073 85.1831 15.5826 84.2628 15.3078 83.4959C15.1662 83.117 13.8806 80.0946 14.3214 79.8507C15.4094 79.2365 16.1635 79.9942 17.0337 78.7484C17.7431 77.7374 18.5655 77.6106 19.8664 77.989C21.3433 78.4124 22.7938 78.8448 24.23 79.5299C24.976 79.8815 25.8127 80.233 26.4078 80.8282C26.9536 81.3784 27.3759 81.9648 28.021 82.4066C28.6942 82.8575 29.4288 83.182 30.087 83.6689C30.9683 84.3272 31.709 85.139 32.5422 85.8695C33.1606 86.4197 33.6134 87.1504 34.194 87.6825C34.5482 88.0072 35.0143 88.3679 35.2594 88.7919C35.377 88.9994 35.7874 89.658 35.5986 89.8837C35.4414 90.0552 35.5357 90.3078 35.3899 90.5064C35.1862 90.7682 34.8395 90.9489 34.7523 91.3008C35.0562 91.4631 35.2349 90.9126 35.5067 90.9124C35.5896 91.138 35.2597 91.6164 35.0032 91.8963L35.0001 91.8602ZM17.3303 71.096C18.0694 71.8897 16.1273 73.8308 15.5254 73.9936C14.7736 74.2015 15.2739 73.1815 15.3953 72.9108C15.816 72.0172 16.6719 71.7551 17.3205 71.087L17.3303 71.096ZM15.4799 70.9616C15.8264 70.4651 15.9093 71.4216 15.4799 70.9616V70.9616ZM16.3141 70.7626L16.0976 70.5642C16.2202 70.4107 16.347 70.4107 16.4961 70.564L16.3141 70.7626ZM18.4973 68.677C18.1882 69.2908 17.7539 69.9227 16.9962 69.9591C16.7261 69.9773 16.0674 70.3205 16.0728 69.8603C16.0809 68.8045 16.7858 68.0552 17.6296 67.5494C18.8268 66.8359 20.0859 66.6277 21.4962 66.4917C22.1239 66.4192 22.5453 66.4731 23.1706 66.5811C23.5474 66.644 24.1025 66.2557 24.4169 66.6436C24.1687 66.9145 22.9286 66.9241 22.5415 66.9514C21.9566 66.9968 21.2345 67.5476 20.6653 67.7735C20.271 67.9271 19.1864 68.8932 19.0623 68.2977C18.8914 67.4766 18.5872 68.4604 18.4875 68.668L18.4973 68.677ZM19.0457 69.7776C19.4786 70.1745 18.6603 71.6007 18.5006 71.9527C18.1828 72.6747 18.2275 73.7125 17.6813 74.3083C17.4662 74.5431 17.0406 74.3357 16.9514 74.038C16.8264 73.641 17.1314 73.1896 17.3025 72.8647C17.867 71.8537 17.9576 70.3918 19.0441 69.7596L19.0457 69.7776ZM16.1753 74.4896C17.6829 75.0573 18.1111 76.1309 17.2605 77.3947C17.0351 77.7197 15.4872 79.5072 15.0807 79.1013C14.4462 78.47 14.3535 76.7735 14.4508 76.0155C14.5244 75.4018 15.4454 74.2192 16.1836 74.4805L16.1753 74.4896ZM13.8981 78.4161C13.5671 78.0463 13.689 77.6763 13.8653 77.3062C14.0037 77.649 14.3845 78.2805 13.8981 78.4161ZM32.0732 82.549C32.5578 82.8104 32.9722 83.3065 33.3921 83.6582C34.5175 84.6232 35.5916 85.6244 36.525 86.779C37.2849 87.708 37.5182 88.2042 36.7678 89.1611C36.0175 90.1181 35.3994 88.4219 34.8886 87.7544C34.0194 86.6088 32.9752 85.5354 31.9208 84.5523C30.8482 83.5693 29.6699 83.0375 28.5193 82.1988C27.4081 81.3962 26.6703 80.3047 25.4567 79.5744C25.1216 79.367 22.2848 77.7802 22.2021 77.8705C22.5346 77.5274 24.4237 78.2123 24.843 78.3474C26.3049 78.8069 27.4882 79.7087 28.8866 80.3758C29.557 80.6913 30.1412 81.1603 30.7403 81.5931C31.3001 81.9899 30.9255 82.1615 31.1249 82.4773C31.1871 82.5675 31.8826 82.4408 32.0732 82.549ZM38.2033 90.3606C38.0179 90.9382 37.1983 91.2003 36.7635 91.9315C36.7825 91.733 36.8476 91.5434 36.9323 91.3719C37.0408 91.056 36.7917 90.7945 36.8096 90.4786C36.8434 89.9281 37.1827 88.8271 37.568 88.4659C37.9569 88.7725 38.3386 89.9364 38.1852 90.3606L38.2033 90.3606ZM37.4605 71.8709C39.1959 74.857 40.9069 77.7709 41.4019 81.1817C41.8667 84.3488 40.6406 87.4447 38.6723 89.7107C38.3031 89.4221 38.2796 88.4204 38.0247 87.9874C37.6718 87.3649 38.031 87.3287 38.3557 86.8953C38.5015 86.6967 38.9151 85.9295 38.339 85.8666C37.8814 85.8127 37.7584 86.7964 37.2458 86.5259C36.6085 86.1743 36.0147 85.2812 35.4901 84.7671C34.7982 84.0997 34.0638 83.3601 33.2658 82.8281C32.8619 82.5576 31.9564 82.1429 31.8996 81.5925C31.8366 80.9699 32.5201 80.5996 32.3747 79.968C31.7443 79.9051 32.043 81.5744 31.3654 81.3852C30.8094 81.2411 30.018 80.3662 29.4743 80.0506C28.7303 79.6179 27.9185 79.2393 27.1894 78.7704C25.7494 77.8326 24.0737 77.3101 22.4179 77.1214C21.5028 77.0136 20.597 77.014 19.711 77.0325C19.1329 77.0509 18.7218 77.6376 18.0907 77.3582C18.6037 76.7985 18.3522 75.9864 18.1659 75.3007C17.9765 74.5789 18.3277 73.4056 18.5777 72.7377C19.2395 70.9687 19.5473 68.4599 21.8743 68.4497C22.426 68.4404 23.4811 68.9091 23.6838 68.53C23.8848 68.1328 24.7973 68.8362 25.0368 68.6737C25.2251 68.5472 26.8237 69.0157 27.1363 69.0697C27.597 69.1597 27.9991 69.0963 28.433 69.2946C28.7255 69.4298 29.2313 69.7274 29.5531 69.5738C29.3199 68.3467 27.5105 68.2664 26.698 68.4021C25.6976 68.5651 23.8023 68.539 22.8595 68.007C23.7876 67.429 25.4023 67.2477 26.4963 67.1208C27.2757 67.0212 27.7637 66.9036 28.533 67.21C28.796 67.3182 28.8682 67.0023 29.0923 66.9751C29.3345 66.948 29.566 67.1103 29.7963 67.1553C31.4284 67.4883 33.5188 68.0919 34.8492 69.2282C35.4545 69.7333 35.4887 70.5454 36.0248 71.0866C36.7297 71.7991 36.2341 70.6804 36.4524 70.4817C36.8952 70.8876 37.145 71.3657 37.4227 71.8529L37.4605 71.8709ZM12.5892 91.4203C10.9477 89.5171 9.24321 86.9912 8.86735 84.5369C8.80654 84.1489 8.36959 82.4526 8.57848 82.1457C8.93833 81.595 8.89186 80.2234 8.98715 79.5466C9.20145 78.0485 9.16728 76.5054 9.2532 74.9894C9.3586 73.1755 10.5893 71.5957 11.9596 70.476C12.9083 69.7175 13.7602 68.8869 14.6794 68.1014C15.3042 67.5777 16.3813 66.1062 17.2627 66.0336C18.4225 65.9337 19.3889 65.2745 20.5098 65.0393C21.6669 64.8041 22.6574 64.6322 23.8722 64.7489C27.0114 65.018 30.7051 64.6823 33.2688 67.2979C32.6913 67.5328 31.0662 66.7576 30.4248 66.5684C29.522 66.2891 28.3789 65.9558 27.5595 65.8028C27.3752 65.7668 26.9461 66.3536 26.679 66.4078C26.1005 66.5254 25.5177 66.4897 24.927 66.3636C23.6718 66.0935 22.291 66.2566 21.0807 65.8782C21.6156 65.5712 22.2434 65.4987 22.8691 65.5074C23.3401 65.5071 23.806 65.552 24.277 65.5518C24.2951 65.5518 25.1749 65.4611 25.2406 65.4881C23.1476 64.7492 20.8506 65.4182 19.042 65.8703C18.6875 65.9607 18.6408 66.466 18.3697 66.6827C17.811 67.1342 17.1068 67.3692 16.5284 67.8026C15.3686 68.6334 14.1694 69.4281 13.2883 70.5476C13.7172 70.3759 14.9265 69.1751 15.4256 69.4997C15.356 69.9509 14.9448 70.2218 14.8799 70.7272C14.8103 71.1785 14.3045 71.6119 14.3912 72.0901C14.4619 72.4871 15.0594 72.171 15.0333 72.4958C14.7671 73.0825 14.4392 73.4797 14.0566 73.9763C13.7634 74.3554 15.1488 74.2464 14.3352 74.9958C14.1252 75.1854 13.8955 75.357 13.6855 75.5466C13.4424 75.7723 13.0242 75.0236 12.7565 75.5922C12.5818 75.9803 12.6587 76.4495 12.6223 76.8646C12.5616 77.5234 11.9618 77.6049 11.5631 78.0202C11.1296 78.4536 11.0006 78.95 10.7857 79.5006C10.5857 80.015 10.1362 80.3672 9.93937 80.9177C9.69916 81.5947 9.11004 82.9485 9.93436 83.4715C10.2217 83.6519 10.5746 84.2743 10.8155 84.5449C11.1858 84.9508 11.2768 85.5824 11.3568 86.0877C11.4208 86.5118 11.4666 86.9359 11.5668 87.36C11.7479 88.0909 12.2129 88.3343 11.675 88.9211C12.5861 89.9223 13.1371 91.1583 14.1077 92.1144C15.0389 93.0343 16.3022 93.7105 17.5626 93.9355C18.0958 94.0254 18.2364 94.6029 18.8653 94.6477C19.3114 94.6745 19.86 94.6291 20.2257 94.9809C20.6126 95.3687 20.5589 95.5853 21.1327 95.4136C21.5912 95.269 22.1545 95.6026 22.4907 95.9273C23.4597 96.8653 20.7141 96.226 20.4428 96.1268C17.5572 95.1266 14.6844 93.8557 12.6187 91.4473L12.5892 91.4203Z" fill="#985F3F"/>
<path fill-rule="evenodd" clip-rule="evenodd" d="M69.0027 51.3258C69.5694 51.2804 70.2945 50.4498 70.4531 49.9805C70.7702 49.0418 70.696 48.708 71.801 48.7074C72.4976 48.6981 72.2682 49.1855 72.4522 49.6366C72.7487 50.3403 73.5111 49.627 74.0418 49.8975C74.7253 50.2581 75.3935 50.339 75.7061 51.1239C76.0089 51.8998 76.8996 52.6664 77.488 53.2887C77.6584 53.4781 78.0194 53.7757 77.9719 54.0645C77.9122 54.5248 78.0674 54.4345 78.2582 54.8585C78.3789 55.1021 78.6519 56.997 78.0886 56.6634C77.2296 56.1585 76.2607 53.7586 75.0798 54.1382C74.3657 54.3641 73.6488 54.1389 74.2139 53.3445C74.6183 52.7848 73.526 52.5147 73.3223 52.0455C73.1316 51.6215 72.0758 50.9362 71.6251 51.1711C71.3395 51.3246 72.5738 52.6054 72.7603 52.876C72.9582 53.1737 73.2011 53.3631 73.4983 53.5524C73.9679 53.85 73.6425 54.0667 73.9274 54.4275C74.1419 54.7072 74.4894 55.0589 74.8584 55.0317C75.2999 55.0044 75.0523 55.4918 75.2061 55.6993C75.4859 55.3743 75.2634 54.6886 75.7565 54.5259C75.8563 55.0492 76.3787 55.3287 76.6253 55.7707C76.944 56.312 77.2016 56.8804 77.5203 57.4217C77.7623 57.8096 77.8593 58.1976 77.8788 58.6307C77.8951 59.0277 78.3055 58.9554 78.4537 59.3072C78.6346 59.7222 78.3989 60.1374 78.4975 60.5435C78.599 60.6697 78.6923 60.8051 78.7938 60.9313C78.8401 61.2562 78.8864 61.581 78.9409 61.8968C79.0398 62.6187 79.2924 64.279 78.753 64.8478C78.6897 64.6402 78.6099 64.4508 78.5119 64.2613C78.4106 64.4509 78.0854 65.7144 78.3846 65.8225C78.4276 65.7954 78.7027 65.4163 78.7814 65.4884C79.5303 66.2912 78.5856 69.0801 78.2134 69.8022C77.4557 71.3005 77.0452 72.8348 75.9753 74.1799C74.8159 75.6424 73.0773 76.2749 71.7853 77.566C71.4015 77.9452 70.8925 78.3425 70.5776 78.7848C70.0605 79.507 70.9025 79.3983 71.2588 78.9108C71.5654 78.4775 71.8197 77.963 72.4584 78.0169C72.9967 78.0617 73.508 77.899 73.9146 77.574C75.498 76.3008 76.6303 74.6308 77.9677 73.1321C78.9659 72.0036 79.4244 71.1281 79.971 69.702C80.1978 69.0793 80.62 68.2037 80.6527 67.5359C80.6684 66.9855 80.9328 66.0649 80.6074 65.5507C79.8673 67.1483 80.4737 70.6944 78.5019 71.5617C78.4838 70.0998 79.4627 68.854 79.6486 67.4462C79.8582 65.894 79.9958 64.2425 79.9471 62.6363C79.9332 62.0588 79.587 61.4092 79.7098 60.8406C79.8212 60.245 79.5562 59.4871 79.2904 58.9278C79.0131 58.3414 78.6881 57.7279 78.6318 57.0782C78.6083 56.8075 78.5824 55.2554 78.8365 55.156C81.1267 57.4379 82.0328 60.2619 82.6667 63.1854C82.8007 63.7899 82.5594 64.3495 82.5287 64.9361C82.477 65.8024 82.6608 66.6686 82.5185 67.535C82.2367 69.4031 81.2663 70.9557 80.3502 72.5083C79.4889 73.9616 78.4986 75.1803 77.2665 76.327C76.6215 76.9319 76.0584 77.6451 75.3134 78.1418C75.0144 78.3495 74.6159 78.3497 74.307 78.5483C74.0246 78.738 73.9208 79.108 73.5695 79.2345C72.9014 79.4695 72.2294 79.8669 71.5547 80.1289C70.7925 80.4271 70.0232 80.8516 69.191 80.9693C68.6636 81.0508 68.0189 81.2406 67.4716 80.9882C66.8488 80.6998 66.1146 81.007 65.5636 80.5019C66.2488 80.4655 66.8719 79.6079 66.6049 78.9312C66.2397 79.2111 66.1263 79.888 65.5631 79.8702C64.9358 79.8435 64.5984 79.0856 64.2363 78.6707C63.6951 78.9056 64.9801 80.2495 65.2411 80.4389C64.7582 80.5113 62.9369 79.7723 62.7276 80.1785C64.9105 81.4317 66.9257 81.8999 69.3075 81.7904C70.3716 81.7358 71.2545 81.6812 72.2081 81.2927C73.3878 80.7958 74.5199 80.2718 75.5525 79.5403C76.5421 78.836 77.8509 77.8427 78.5732 76.8768C78.898 76.4434 79.345 76.2718 79.7713 75.9647C80.3414 75.5403 80.5997 74.8634 81.0615 74.3398C81.8146 73.5182 82.0722 72.6247 82.63 71.6408C83.2757 70.5215 83.2133 69.3846 83.4149 68.1572C84.2731 63.0131 82.3735 57.4012 78.487 53.4236C77.5133 52.4314 76.9695 51.0691 76.0139 50.0769C75.5255 49.5628 74.8729 49.6624 74.3659 49.2476C74.0935 49.0311 73.1862 49.0135 73.1135 48.6977C72.9074 47.6781 70.6269 47.5981 70.1611 48.2841C69.7996 48.8167 69.928 49.5656 69.5288 50.0802C69.2604 50.4323 68.7254 50.7394 69.0276 51.2987L69.0027 51.3258Z" fill="#985F3F"/>
<path fill-rule="evenodd" clip-rule="evenodd" d="M81.2981 60.6684C81.0622 61.4987 81.7274 63.3212 82.0002 64.1693C82.3234 65.1799 81.3939 66.7866 81.9679 67.6616C82.4034 67.147 82.4483 66.3078 82.3806 65.631C82.2004 63.9707 82.5004 62.1026 81.2981 60.6684Z" fill="#985F3F"/>
<path fill-rule="evenodd" clip-rule="evenodd" d="M65.7632 77.4789C65.9124 75.4394 66.0113 73.9685 67.2488 72.3616C68.4547 70.8089 69.0997 68.7421 70.025 66.9819C70.8572 65.4023 71.4937 63.7597 72.298 62.171C72.5306 61.7197 74.326 59.4448 73.5218 58.8406C71.4745 62.1805 70.1252 65.9441 68.0944 69.266C67.58 70.1235 67.3105 71.0892 66.691 71.8836C65.9572 72.8225 65.6153 73.7882 65.3267 74.9524C65.0919 75.9001 65.3157 77.0189 64.9395 77.9035C64.8413 78.1291 64.9513 78.5622 65.2758 78.544C65.7898 78.5167 65.7205 77.8219 65.7352 77.4699L65.7632 77.4789Z" fill="#985F3F"/>
<path fill-rule="evenodd" clip-rule="evenodd" d="M76.6246 65.0564C76.8981 64.6592 77.3812 64.1716 77.2783 63.6122C77.2171 63.3235 77.2254 62.5835 76.9908 62.3851C76.8201 62.6108 76.6761 63.8742 76.4122 63.9646C76.0344 64.1001 76.2229 64.2895 76.4891 64.4338C76.8028 64.6051 76.2679 64.9122 76.6344 65.0654L76.6246 65.0564Z" fill="#985F3F"/>
<path fill-rule="evenodd" clip-rule="evenodd" d="M59.6491 79.5662C60.0577 79.8909 60.4891 80.2697 61.0005 80.4228C61.9675 80.7111 61.6581 79.9623 61.7395 79.4389C61.7786 79.1591 62.2429 79.1859 62.0584 78.8341C61.8936 78.5003 61.64 78.5004 61.334 78.4193C60.7123 78.2482 59.7684 76.868 59.2815 76.3719C56.5765 73.6932 54.1 69.2637 54.5452 65.5185C54.6034 65.0402 55.3021 62.7568 56.0736 63.2979C56.0727 63.4964 55.1305 64.6429 55.822 64.6787C56.441 64.7144 56.5305 63.1352 56.6079 62.7742C56.9602 60.9873 59.2899 60.3815 59.417 58.5045C59.4908 57.4757 60.794 55.1649 61.9974 55.2546C62.1669 55.6425 61.4549 55.7872 61.954 56.1119C62.4433 56.4274 61.839 56.7707 61.9625 57.1496C62.2463 56.6622 63.8002 54.631 64.595 55.1269C65.0548 55.4155 65.0866 54.9462 65.4757 54.8377C65.7593 54.7654 66.0704 54.8013 66.3327 54.6929C66.6214 54.5754 66.6869 55.0176 66.941 54.9182C67.8418 54.5478 68.0413 54.8635 69.0311 55.2059C69.2926 55.296 70.3994 54.8984 70.5421 54.6637C71.0761 53.8242 69.4771 54.186 69.546 54.2491C69.1949 53.9605 69.2065 54.3034 68.8225 54.3668C68.572 54.403 68.3658 54.1143 68.2167 53.961C67.9986 53.7445 67.7886 53.9342 67.5661 53.9794C67.0848 54.0699 67.1665 53.1313 66.6203 53.7272C66.3886 53.98 65.8626 54.4946 65.4484 54.3143C65.0441 54.1431 65.5804 53.5382 65.0602 53.4933C64.5407 53.6651 64.5414 54.6126 63.9883 54.9197C63.8414 55.001 62.862 55.6151 62.871 55.0917C62.8768 54.5322 64.1035 54.5767 64.4671 54.2787C63.8298 53.9271 63.4041 54.4507 62.8064 54.451C61.9912 54.4514 61.2829 54.8488 60.7124 55.3725C59.4441 56.5192 58.8304 58.216 57.8919 59.6152C57.4343 60.2922 56.9374 60.9332 56.4306 61.5651C55.8825 62.2422 55.0899 62.7118 54.5795 63.4069C53.504 64.8964 54.1198 66.358 53.9227 68.0546C53.647 67.4862 53.5916 66.638 53.5482 66.0334C53.5279 65.7988 53.7269 65.4828 53.5637 65.1671C53.4315 64.8964 53.5235 63.8677 53.5414 63.5518C53.5662 62.7938 54.1128 62.0987 54.381 61.4308C55.7296 58.1815 58.537 56.0865 61.2912 54.1089C62.5188 53.2239 64.0919 52.7719 65.5008 52.2027C66.2185 51.9136 68.9905 51.8129 68.7191 50.667C68.3942 49.3226 62.3538 52.5743 61.9414 52.7279C60.5789 53.2068 59.378 54.3986 58.2461 55.2384C56.9358 56.2136 55.9712 57.2068 55.1709 58.6329C54.3955 60.032 53.2478 61.1065 52.9011 62.749C52.5864 64.2381 52.6726 66.2775 52.9423 67.8204C53.4644 70.7078 54.8325 74.055 56.985 76.2107C57.649 76.8691 58.2534 77.5727 58.9505 78.195C59.2949 78.5106 60.7651 78.9611 60.6691 79.4213C60.3236 79.7193 59.7097 78.9075 59.442 78.7452C59.2023 78.5919 58.808 78.7455 58.9894 79.0612C59.1283 79.3048 59.4259 79.3949 59.6212 79.5572L59.6491 79.5662ZM67.5758 50.7488C67.4383 50.9384 67.2898 51.0016 67.1194 50.8122C67.2647 50.7129 67.4054 50.5594 67.5758 50.7488ZM53.9462 68.3253C54.1475 68.244 54.2425 68.7132 54.1184 68.8486C53.8673 68.6682 54.0969 68.4967 53.9462 68.3253ZM57.1185 75.4526C56.4452 74.6859 55.7504 73.5673 55.3626 72.647C54.9194 71.6095 54.7023 70.4636 54.2342 69.4531C54.7701 69.6785 54.9579 70.3822 55.1171 70.8604C55.3754 71.6454 55.7884 72.4393 56.1968 73.179C56.7212 74.1082 57.4835 74.8568 58.0938 75.7318C58.6109 76.4716 59.5345 76.8862 59.8715 77.7433C59.1232 77.8881 57.551 75.9487 57.1103 75.4616L57.1185 75.4526Z" fill="#985F3F"/>
<path fill-rule="evenodd" clip-rule="evenodd" d="M78.0657 62.0419C77.9664 62.1502 77.9675 62.2675 78.0214 62.3668C78.1125 62.2675 78.2382 62.1501 78.0657 62.0419Z" fill="#985F3F"/>
<path fill-rule="evenodd" clip-rule="evenodd" d="M67.5922 58.4554C66.3599 60.0172 65.3969 61.7593 64.1071 63.285C62.9083 64.7114 62.4064 66.4442 61.9387 68.2583C61.5768 69.6211 62.1305 70.9924 62.2018 72.337C62.2421 72.9055 62.478 73.537 62.5131 74.1506C62.5502 74.683 62.6226 76.1449 63.0571 76.5597C63.5096 75.9278 63.1093 75.5942 63.1703 74.8361C63.2596 73.672 63.4457 72.58 63.785 71.4789C64.0892 70.4951 64.3079 69.4663 64.6779 68.5096C65.0545 67.5258 64.9186 66.2715 65.6452 65.459C65.7069 65.6485 65.838 65.8018 66.0104 65.91C66.3027 65.7294 66.0189 65.4859 65.8698 65.3325C65.5419 64.9988 65.8429 64.7099 65.9892 64.412C66.5412 63.2567 67.2671 62.2276 68.0407 61.2256C68.7647 60.2777 69.4607 59.3208 70.1272 58.3368C70.303 58.066 71.6243 56.4862 71.328 56.0983C70.7056 56.4415 70.0469 57.5157 69.6063 58.0754C69.0266 58.8066 68.4013 60.1605 67.589 60.6121C67.9113 58.8974 68.9352 57.5433 70.3294 56.5951C70.8514 56.2429 71.5742 55.9087 71.8585 55.322C71.92 55.1956 72.3639 54.2569 72.0052 54.1939C71.116 54.9072 70.3283 55.7469 69.4883 56.5053C69.3031 56.6678 68.5434 56.7855 68.4819 56.9119C68.2012 57.4354 67.9501 57.986 67.5824 58.4464L67.5922 58.4554ZM67.0664 60.7478C66.8933 61.1539 66.8387 61.5691 66.8235 62.0203C66.8087 62.3722 66.1827 62.7786 66.0214 63.1126C65.4742 64.3221 64.9345 65.3059 64.5959 66.6236C64.3006 67.8149 63.9215 68.9792 63.5507 70.1344C63.3802 70.676 63.2424 72.7425 62.6733 72.9684C62.1166 72.6077 62.3515 70.9292 62.4014 70.4599C62.5186 69.3048 62.4475 68.2761 62.8494 67.1659C63.0463 66.6154 63.2151 66.0558 63.4399 65.5142C63.7014 64.8734 64.1974 64.431 64.4703 63.8172C64.7664 63.1583 65.4073 62.7158 65.7806 62.111C66.1854 61.4521 66.5395 60.73 67.1478 60.2243C67.2012 60.4228 67.1708 60.5943 67.0664 60.7478Z" fill="#985F3F"/>
<path fill-rule="evenodd" clip-rule="evenodd" d="M65.2077 70.3412C64.6714 70.2152 64.7783 71.3431 65.1717 71.388C65.7404 71.2614 65.5877 70.4403 65.2077 70.3412Z" fill="#985F3F"/>
<path fill-rule="evenodd" clip-rule="evenodd" d="M73.625 61.5928C73.3012 61.8275 73.3577 62.0621 73.0981 62.3059C73.546 62.6666 73.6174 61.8184 73.625 61.5928Z" fill="#985F3F"/>
<path fill-rule="evenodd" clip-rule="evenodd" d="M73.8514 61.0694C74.0117 60.934 74.0551 60.8076 73.9536 60.6813C73.8657 60.8167 73.5868 60.9432 73.8514 61.0694Z" fill="#985F3F"/>
<path fill-rule="evenodd" clip-rule="evenodd" d="M69.5324 63.4896C69.9658 63.0562 70.0369 62.623 69.945 62.1899C69.6295 62.4157 68.9431 63.0657 69.5324 63.4896Z" fill="#985F3F"/>
<path fill-rule="evenodd" clip-rule="evenodd" d="M68.5711 62.9578C68.593 63.2105 68.4541 63.6978 68.9019 63.7427C69.28 63.5079 69.1819 62.2717 68.7548 62.0463C68.4459 62.245 68.5528 62.642 68.5711 62.9578Z" fill="#985F3F"/>
<path fill-rule="evenodd" clip-rule="evenodd" d="M70.9879 59.1754C70.6912 59.6178 70.5558 60.0419 70.5851 60.4841C70.8012 60.0508 71.0436 59.6085 70.9879 59.1754Z" fill="#985F3F"/>
<path fill-rule="evenodd" clip-rule="evenodd" d="M56.6737 68.234C56.4651 67.3948 57.2998 66.3657 56.9292 65.644C56.6148 65.987 55.0735 70.6712 56.4909 70.4088C56.0578 69.6961 56.8647 68.9738 56.6737 68.234Z" fill="#985F3F"/>
<path fill-rule="evenodd" clip-rule="evenodd" d="M64.7029 60.0269C64.4408 60.4512 64.0814 60.9025 64.0284 61.3357C64.7149 61.7324 64.9646 60.4329 64.7029 60.0269Z" fill="#985F3F"/>
<path fill-rule="evenodd" clip-rule="evenodd" d="M68.7483 55.91C68.8214 56.1265 68.4878 56.3523 68.6696 56.5688C68.9444 56.6047 69.1339 55.8647 68.7483 55.91Z" fill="#985F3F"/>
<path fill-rule="evenodd" clip-rule="evenodd" d="M66.4148 58.456C66.8668 58.6543 67.8052 57.2551 67.3982 56.9485C67.1032 56.9938 66.19 58.2666 66.4148 58.456Z" fill="#985F3F"/>
<path fill-rule="evenodd" clip-rule="evenodd" d="M65.3307 58.9077C65.0735 58.971 64.8192 59.4855 64.9514 59.7561C65.2162 59.4672 65.5633 59.1873 65.3307 58.9077Z" fill="#985F3F"/>
<path fill-rule="evenodd" clip-rule="evenodd" d="M65.8123 57.6712C65.6758 57.978 65.439 58.2759 65.5018 58.5827C65.7832 58.2758 66.1287 57.9778 65.8123 57.6712Z" fill="#985F3F"/>
<path fill-rule="evenodd" clip-rule="evenodd" d="M69.4479 53.4279C69.3088 53.5994 69.3079 53.7979 69.4354 54.0144C69.536 53.6083 69.8048 53.157 69.5846 52.7059C69.0624 52.7423 69.4441 53.1752 69.4479 53.4279Z" fill="#985F3F"/>
<path fill-rule="evenodd" clip-rule="evenodd" d="M57.7438 62.1874C57.2659 62.6298 57.1261 63.3157 56.6974 63.8032C56.3002 64.2366 57.0113 64.2904 57.2513 64.0286C57.4251 63.839 58.0788 62.3948 57.7537 62.1964L57.7438 62.1874Z" fill="#985F3F"/>
<path fill-rule="evenodd" clip-rule="evenodd" d="M58.0415 61.862C58.2354 61.5912 58.5132 61.3474 58.2361 61.0768C57.9879 61.3477 57.7743 61.6005 58.0415 61.862Z" fill="#985F3F"/>
<path fill-rule="evenodd" clip-rule="evenodd" d="M58.4763 60.8153C58.6351 60.6618 58.7758 60.5084 58.6365 60.3641C58.4777 60.5176 58.3272 60.662 58.4763 60.8153Z" fill="#985F3F"/>
<path fill-rule="evenodd" clip-rule="evenodd" d="M75.4521 59.1642C75.1513 58.307 75.0733 57.7205 74.4254 57.1433C74.1537 57.8744 74.4249 58.7045 74.237 59.4626C74.0476 60.2026 74.5438 60.807 74.3394 61.5831C73.818 63.6138 73.6601 65.7616 73.1682 67.8193C72.631 70.0845 71.9076 71.9799 70.7574 73.9658C70.3242 74.715 67.2448 77.2252 67.8573 78.3348C68.2252 78.1903 68.4703 77.8833 68.7072 77.5854C69.1809 76.9896 69.1446 77.7206 69.6776 77.4947C70.5173 77.1514 69.2683 76.9535 69.2828 77.0166C69.1692 76.6467 70.2886 75.6625 70.4939 75.4188C71.1429 74.6514 71.4795 73.415 72.1825 72.7468C72.5844 72.3676 72.8668 71.447 72.9648 70.9056C73.1169 70.0482 73.4383 69.263 73.5739 68.4237C73.6991 67.6746 74.1728 67.0788 74.1961 66.3027C74.2353 65.292 74.2221 64.2001 74.3617 63.1984C74.4704 62.4674 74.387 61.6102 74.6158 60.9062C74.8545 60.2112 74.3725 59.3542 74.8152 58.7133C74.8371 58.9659 75.1595 59.0289 75.2591 59.2364C75.3534 59.4891 75.1971 60.193 75.2237 60.4998C75.3688 61.5465 75.3359 62.6294 75.2439 63.6582C75.0761 65.7969 74.7458 67.8365 74.4661 69.9392C74.3688 70.6973 74.1449 71.7713 73.7484 72.4212C73.2588 73.2516 73.0647 74.6685 72.2074 75.2284C71.5385 75.6619 70.9186 76.5556 70.448 77.1875C70.1481 77.5937 69.8974 78.045 69.5089 78.3701C69.332 78.5236 68.9377 78.6772 68.9545 78.975C68.9867 79.8683 70.8669 77.4219 71.0737 77.1962C72.6429 75.4448 73.8984 73.8379 74.4263 71.4643C74.9423 69.1629 75.1343 66.7805 75.6503 64.4792C75.8737 63.5045 75.664 62.548 75.815 61.5734C75.8995 61.086 75.6678 60.6079 75.652 60.1116C75.6352 59.8138 75.3508 59.3537 75.4355 59.1822L75.4521 59.1642Z" fill="#985F3F"/>
<path fill-rule="evenodd" clip-rule="evenodd" d="M60.0309 75.7129C59.8312 75.8122 59.7062 75.4152 59.5635 75.6499C59.763 75.9657 60.0568 76.534 60.4994 76.624C60.6783 76.3893 60.5808 76.1006 60.5573 75.8299C60.5119 75.3065 60.8724 75.7034 61.1524 75.6943C61.7849 75.6759 60.9867 74.828 60.8262 74.6476C59.4873 73.2045 58.6937 71.364 58.7881 69.4238C58.8299 68.5485 58.6347 67.6552 58.7144 66.7979C58.8285 65.6067 59.584 64.6046 60.0268 63.5486C60.4309 62.6731 61.5875 59.2975 63.0239 59.5675C62.959 60.0729 61.8656 61.1473 62.4167 61.6524C63.124 61.4535 63.2294 59.6396 63.5665 59.0348C63.7939 58.6287 64.1757 58.3307 64.4327 57.9515C64.7543 57.4821 64.9511 56.9316 65.3204 56.4892C65.0712 56.2276 63.959 57.0855 63.821 57.3743C63.2395 58.5026 61.9715 59.2342 61.0342 60.0197C60.5429 59.7854 62.042 57.8535 61.8579 57.4024C61.1669 57.9983 61.1149 59.2797 60.6455 60.0289C60.1362 60.8414 59.7815 61.3469 59.6026 62.3125C59.2901 64.0363 57.9599 65.4086 57.8182 67.2225C57.7381 68.179 58.1105 69.2346 58.1505 70.2182C58.1601 70.6424 58.1516 71.0665 58.0312 71.4546C57.8841 71.951 58.1661 71.8606 58.4892 72.1402C59.0107 72.6182 58.9642 73.4394 59.3652 73.9896C59.6024 74.3234 60.9503 75.2432 60.0376 75.6858L60.0309 75.7129Z" fill="#985F3F"/>
<path fill-rule="evenodd" clip-rule="evenodd" d="M66.6016 55.388C66.4603 56.0558 65.9571 56.6246 65.9834 57.3465C66.2048 57.1839 66.7201 55.3969 66.6016 55.388Z" fill="#985F3F"/>
<path fill-rule="evenodd" clip-rule="evenodd" d="M121.63 55.4229C122.093 55.4317 121.913 54.8182 121.558 54.692C121.083 54.5389 121.195 53.7447 121.183 53.4018C121.155 52.7611 120.902 52.1476 120.983 51.5069C121.043 50.9474 121.145 50.5593 120.661 50.1986C119.375 49.1524 120.15 50.3612 120.365 51.2726C120.453 51.6696 121.058 53.7357 120.53 53.9165C120.258 53.7 120.145 53.2309 119.743 53.195C119.482 53.52 119.831 54.2056 119.916 54.5665C120.039 55.0447 120.015 55.7035 119.957 56.1818C119.824 57.2557 119.64 58.1672 119.296 59.2142C118.329 62.1655 116.511 64.8014 114.071 66.6525C113.095 67.402 112.402 68.2957 111.185 68.7746C110.187 69.1721 109.109 70.1112 108.248 70.7343C107.295 71.4386 105.91 72.08 104.761 72.4055C104.248 72.5501 103.62 72.6226 103.067 72.5146C102.873 72.4696 102.481 72.2261 102.221 72.1541C102.398 72.3164 101.975 73.0746 101.866 72.7588C102.072 73.3633 103.107 72.8665 103.384 73.4529C102.94 73.76 102.34 73.4264 101.841 73.4176C101.142 73.3909 100.393 73.5356 99.7167 73.4638C99.5242 73.4368 98.718 72.9138 98.8472 73.4642C98.9686 73.9244 99.6944 74.0413 100.061 74.0953C102.541 74.4911 105.42 74.8867 107.56 73.6584C107.862 73.4868 108.582 73.6488 108.764 73.4502C108.492 73.1345 109.184 72.8544 109.359 72.7821C110.433 72.3214 111.508 71.9779 112.546 71.4179C113.264 71.0295 114.027 70.6321 114.624 70.0994C115.315 69.5035 115.716 69.0069 116.271 68.3028C116.638 67.8424 116.988 67.382 117.426 67.0028C118.101 66.4249 117.827 66.9213 118.311 67.1828C118.33 67.0835 118.698 66.4246 118.763 66.3343C118.947 66.0545 118.636 65.7027 118.851 65.3687C119.515 64.3487 120.037 63.4821 120.461 62.3088C120.906 61.0723 121.399 59.8628 121.657 58.5542C121.773 58.0127 122.177 55.8739 121.63 55.4229ZM119.916 62.3903C119.983 63.067 118.974 64.1685 118.571 64.6469C117.921 65.3963 117.342 66.2448 116.647 67.0032C115.77 67.9601 114.973 69.0073 113.896 69.7478C112.75 70.5245 111.433 71.0124 110.202 71.6447C109.117 72.1957 107.826 72.6566 106.676 73.0813C106.036 73.3253 104.82 73.8222 104.161 73.2179C104.329 72.8569 104.893 73.0912 105.178 72.9377C105.672 72.6757 106.252 72.5762 106.695 72.2511C107.129 71.935 107.673 71.8355 108.14 71.5826C108.391 71.4471 109.266 70.9864 109.419 70.7608C109.843 70.1198 110.888 70.0471 111.429 69.4964C112.403 68.5123 113.64 67.7356 114.767 66.9409C116.662 65.6044 117.577 63.2036 118.89 61.3169C119.503 60.4503 120.126 59.5927 120.33 58.5007C120.526 57.517 120.336 56.0643 120.898 55.2338C121.34 55.5223 121.074 56.0098 121.127 56.4068C121.265 57.4806 121.147 58.4191 120.827 59.4209C120.584 60.1791 119.827 61.5782 119.916 62.3903Z" fill="#985F3F"/>
<path fill-rule="evenodd" clip-rule="evenodd" d="M121.852 60.9097C121.876 61.0811 121.808 61.2346 122.022 61.2976C123.481 60.7915 121.61 58.8433 121.852 60.9097Z" fill="#985F3F"/>
<path fill-rule="evenodd" clip-rule="evenodd" d="M123.258 56.2343C123.331 55.6025 123.556 54.8625 123.337 54.2129C123.241 53.9422 123.028 53.7799 122.748 53.789C122.443 54.0419 122.842 54.3575 122.875 54.6372C122.977 55.1786 123.13 55.8012 123.029 56.3066C122.883 57.0195 123.195 56.8569 123.25 56.2433L123.258 56.2343Z" fill="#985F3F"/>
<path fill-rule="evenodd" clip-rule="evenodd" d="M114.038 65.4254C114.466 65.7681 115.158 65.6053 115.259 65.0999C115.43 64.1433 114.079 64.9652 114.038 65.4254Z" fill="#985F3F"/>
<path fill-rule="evenodd" clip-rule="evenodd" d="M108.173 68.8215C108.471 69.444 110.102 68.613 109.988 68.0265C109.862 67.4129 108.106 68.3613 108.173 68.8215Z" fill="#985F3F"/>
<path fill-rule="evenodd" clip-rule="evenodd" d="M122.579 51.9575C122.426 52.0659 121.624 52.8423 121.96 53.0678C122.081 52.9955 122.231 52.5352 122.451 52.6705C122.694 52.8598 122.475 53.1577 122.771 53.3291C123.148 52.8777 123.171 52.2009 122.579 51.9575Z" fill="#985F3F"/>
<path fill-rule="evenodd" clip-rule="evenodd" d="M102.463 70.0333C103.232 69.7081 104.019 69.5994 104.777 69.2471C105.968 68.678 107.186 68.0998 108.221 67.2872C109.042 66.628 110.077 66.1312 110.869 65.4449C111.702 64.7136 112.478 63.9462 113.34 63.2238C114.191 62.4924 115.084 61.7159 115.758 60.8222C116.303 60.1091 117.017 58.9356 117.24 58.0601C117.674 56.3815 118.037 54.7209 118.443 53.0332C118.529 52.6632 118.633 52.2931 118.794 51.9592C118.915 51.6884 119.392 51.7603 119.164 51.3183C118.65 50.2988 118.086 50.7954 117.954 51.5716C117.593 53.7826 117.288 56.111 116.358 58.1328C115.901 59.1256 115.31 60.0464 114.584 60.8589C114.211 61.2652 113.199 62.6463 112.483 62.5384C113.063 61.3921 114.137 60.5162 114.85 59.442C115.53 58.4039 115.984 57.4742 116.465 56.337C116.713 55.7503 116.792 54.9922 116.484 54.3607C116.419 54.2344 115.751 52.9082 115.549 53.1881C115.661 53.6392 116.008 53.991 116.156 54.4421C116.318 54.9564 116.112 55.4979 115.999 55.9762C115.696 57.1766 115.14 58.0793 114.457 59.0813C112.734 61.5727 110.873 63.5048 108.195 65.0041C105.724 66.377 103.397 68.58 100.569 69.2943C98.627 69.7736 96.5124 70.1446 94.6871 68.8371C94.2092 69.2795 95.3978 69.721 95.4519 70.1361C94.8477 70.4793 94.0419 69.8571 93.5092 70.3988C94.1002 71.1565 95.392 71.0115 96.1922 71.0472C98.232 71.1725 100.663 70.7922 102.489 70.0243L102.463 70.0333ZM108.186 65.9426C107.881 66.6105 105.212 68.8318 104.265 68.363C105.583 67.5772 106.773 66.575 108.186 65.9426Z" fill="#985F3F"/>
<path fill-rule="evenodd" clip-rule="evenodd" d="M107.373 69.4175C107.359 68.84 106.607 69.1471 106.253 69.3549C106.42 69.7067 107.041 69.6613 107.373 69.4175Z" fill="#985F3F"/>
<path fill-rule="evenodd" clip-rule="evenodd" d="M114.958 54.8398C114.751 55.1648 114.598 55.4897 114.853 55.8235C115.216 55.724 115.275 55.1464 114.958 54.8398Z" fill="#985F3F"/>
<path fill-rule="evenodd" clip-rule="evenodd" d="M113.083 56.6098C113.602 57.2683 114.089 56.3025 114.19 55.8964C114.237 55.7069 114.306 55.2556 114.018 55.1746C113.526 55.4545 113.37 56.1585 113.093 56.6189L113.083 56.6098Z" fill="#985F3F"/>
<path fill-rule="evenodd" clip-rule="evenodd" d="M109.148 60.3293C109.198 60.6902 109.146 61.1414 109.435 61.4391C109.625 61.2314 109.642 59.9681 109.614 59.6432C109.594 59.4086 109.229 59.1742 109.046 59.3548C108.794 59.5895 109.115 60.0496 109.148 60.3293Z" fill="#985F3F"/>
<path fill-rule="evenodd" clip-rule="evenodd" d="M111.105 58.7675C111.47 58.9027 111.674 58.3251 111.47 58.0725C111.217 57.7568 110.385 58.5062 111.105 58.7675Z" fill="#985F3F"/>
<path fill-rule="evenodd" clip-rule="evenodd" d="M106.373 62.4878C106.725 62.262 107.075 62.0182 107.426 61.7744C107.081 60.7278 105.742 62.2084 106.373 62.4878Z" fill="#985F3F"/>
<path fill-rule="evenodd" clip-rule="evenodd" d="M117.904 49.5324C117.896 49.2256 117.526 48.7204 117.19 48.7116C116.954 48.7117 117.169 49.2079 116.863 49.2261C116.186 49.2535 115.207 47.8914 114.778 48.1623C114.556 49.5702 117.945 50.6333 117.904 49.5324Z" fill="#985F3F"/>
<path fill-rule="evenodd" clip-rule="evenodd" d="M117.215 46.0766C118.076 46.401 118.8 47.2308 119.72 46.7611C120.613 46.3005 120.448 45.5515 119.524 45.1369C118.469 44.6682 117.994 43.1524 116.875 42.8913C116.015 42.6842 115.791 44.074 115.593 44.6065C115.289 45.491 116.216 45.1115 116.108 46.0591C116.05 46.5374 114.117 47.1249 115.774 47.3316C116.196 47.3856 116.067 47.7827 116.488 47.9359C116.919 48.0981 117.365 48.1249 117.722 47.854C118.831 47.0594 116.365 47.0426 117.206 46.0856L117.215 46.0766ZM117.856 44.488C118.023 44.7406 117.948 45.1377 118.209 45.3271C118.442 45.5074 118.78 45.4351 119.052 45.5342C119.846 45.8135 119.187 46.5719 118.347 45.8684C117.663 45.2913 117.194 44.6959 116.479 44.1729C116.872 43.5861 117.403 43.7573 117.864 44.479L117.856 44.488Z" fill="#985F3F"/>
<path fill-rule="evenodd" clip-rule="evenodd" d="M103.46 62.9402C103.462 63.2741 103.956 63.5445 104.131 63.7881C105.209 62.8491 103.477 61.9926 103.46 62.9402Z" fill="#985F3F"/>
<path fill-rule="evenodd" clip-rule="evenodd" d="M100.172 65.6581C100.482 65.8925 101.525 65.901 101.183 65.3056C100.763 64.5388 99.7552 65.3424 100.172 65.6581Z" fill="#985F3F"/>
<path fill-rule="evenodd" clip-rule="evenodd" d="M92.0087 69.29C92.5001 69.5244 92.9959 68.0352 93.2079 67.7644C93.8905 66.8616 94.9356 66.2745 95.8393 65.6244C98.04 64.0531 100.274 62.4457 102.043 60.3964C102.858 59.4484 103.625 58.4735 104.598 57.6879C105.749 56.7488 107.155 56.1435 108.397 55.3217C109.399 54.6625 110.215 53.516 111.353 53.0642C111.792 52.9016 112.28 52.8833 112.727 52.7116C113.568 52.3863 113.056 52.0166 112.359 52.1252C111.1 52.3334 110.301 53.0467 109.4 53.8323C108.474 54.6449 107.293 55.3403 106.17 55.8553C103.739 56.9664 102.321 59.4216 100.405 61.1372C98.5397 62.8165 96.3958 64.2073 94.3866 65.6883C94.1998 65.8327 90.8832 68.7401 92.017 69.281L92.0087 69.29Z" fill="#985F3F"/>
<path fill-rule="evenodd" clip-rule="evenodd" d="M97.077 60.0466C96.5948 61.0666 95.1651 61.5004 94.5333 62.4663C94.0209 63.2426 93.04 63.8387 92.3701 64.4707C92.1188 64.7055 90.39 66.078 90.7402 66.5651C90.8842 66.7635 94.881 63.1339 95.2104 62.7547C96.7118 61.0575 98.4743 59.1345 100.376 57.8702C101.19 57.3374 101.773 56.543 102.638 56.0733C103.589 55.5494 104.979 55.1787 105.779 54.4835C106.335 53.9959 107.455 53.6434 108.157 53.3904C108.947 53.1012 109.726 52.4692 110.545 52.3063C111.338 52.1525 112.08 51.5205 112.82 51.1682C113.064 51.0597 115.403 50.1472 114.29 49.4258C114.023 50.211 112.946 49.8055 112.523 50.3652C111.987 51.0693 111.345 51.2952 110.545 51.6746C109.624 52.1263 108.578 52.3975 107.698 52.9033C107.051 53.2736 106.156 53.4004 105.585 53.8068C105.312 54.0055 105.135 54.159 104.769 54.2223C104.377 54.2947 104.282 54.6557 103.925 54.7281C103.169 54.8819 102.739 55.6672 102.06 55.7758C101.89 55.8029 101.564 56.2182 101.409 56.3085C100.883 56.6246 100.433 57.0761 99.9493 57.4463C99.3642 57.9068 98.8183 58.8185 97.9792 58.6475C97.3161 58.5214 97.2615 59.6675 97.0786 60.0647L97.077 60.0466Z" fill="#985F3F"/>
<path fill-rule="evenodd" clip-rule="evenodd" d="M96.1456 63.9274C96.4893 64.0265 96.2187 63.413 96.0078 63.8011L96.1456 63.9274Z" fill="#985F3F"/>
<path fill-rule="evenodd" clip-rule="evenodd" d="M112.063 44.843C112.018 44.5362 112.237 44.2383 112.11 43.9225C112.014 44.1842 111.696 44.789 112.063 44.843Z" fill="#985F3F"/>
<path fill-rule="evenodd" clip-rule="evenodd" d="M109.914 45.0334C109.823 45.1327 109.698 45.2501 109.87 45.3583C109.969 45.25 109.968 45.1326 109.914 45.0334Z" fill="#985F3F"/>
<path fill-rule="evenodd" clip-rule="evenodd" d="M98.5991 54.5143C98.1143 53.937 97.4554 54.6954 97.2741 55.1105C97.7464 55.5435 98.4178 54.9295 98.5991 54.5143Z" fill="#985F3F"/>
<path fill-rule="evenodd" clip-rule="evenodd" d="M95.0007 52.296C94.5469 52.4948 94.196 53.253 94.2682 53.668C94.5845 53.6589 95.2514 52.5757 95.0007 52.296Z" fill="#985F3F"/>
<path fill-rule="evenodd" clip-rule="evenodd" d="M91.3259 52.8485C91.4114 52.1626 90.6928 52.6503 90.5631 52.9301C89.9398 54.2028 89.4672 55.6468 89.0887 57.0277C88.9447 57.5602 88.1883 58.7607 88.7145 59.2929C88.9887 59.1123 89.251 58.2729 89.389 57.9841C89.9611 56.7475 90.2045 55.3757 90.7388 54.1212C90.9119 53.715 91.2745 53.2997 91.3259 52.8485Z" fill="#985F3F"/>
<path fill-rule="evenodd" clip-rule="evenodd" d="M97.1438 44.5257C97.2223 44.2821 97.6795 43.7043 97.2695 43.6774C97.3934 43.9571 96.9837 44.2461 97.1438 44.5257Z" fill="#985F3F"/>
<path fill-rule="evenodd" clip-rule="evenodd" d="M86.0101 73.5431C86.507 73.6331 87.3727 73.38 87.8572 73.3256C88.3778 73.2712 89.2059 72.585 89.6579 72.7833C90.3827 73.0988 90.8432 73.6039 91.6543 73.7659C92.6135 73.9639 93.6756 73.9905 94.6435 74.0802C96.1859 74.2148 97.05 75.4055 98.4773 75.8831C99.2238 76.1354 99.9065 76.2794 100.598 76.7303C101.222 77.136 102.176 76.9641 102.835 76.9367C104.551 76.8817 106.055 76.6824 107.634 76.1853C108.392 75.9503 109.246 75.7694 110.044 75.6697C111.029 75.5429 111.769 75.0913 112.709 74.8562C116.583 73.8887 118.776 70.3502 121.017 67.4704C123.152 64.7261 125.388 60.6281 125.054 56.8833C124.895 55.1598 124.458 53.4636 124.203 51.7672C124.043 50.7566 123.618 48.7896 122.871 48.0049C122.253 47.3555 122.088 48.1677 122.349 48.6729C122.654 49.2683 122.662 49.8729 122.898 50.5045C123.527 52.1285 123.849 53.4368 124.042 55.1422C124.246 57.0732 124.39 58.7336 123.796 60.5477C123.191 62.3528 122.412 64.3294 121.37 65.9001C120.594 67.0826 119.499 68.2382 118.631 69.4028C117.542 70.8471 115.944 72.4723 114.303 73.2943C112.836 74.0259 111.011 74.7127 109.352 75.0023C109.004 75.0656 108.722 74.8402 108.389 74.8674C108.191 74.8855 108.116 75.1653 107.951 75.2466C107.349 75.5086 106.087 75.5815 105.403 75.6359C101.719 75.9807 98.4798 74.2407 95.1724 72.5549C94.6516 72.2935 94.0603 71.9509 93.479 71.9331C92.771 71.9154 93.1646 72.2762 93.5607 72.4565C93.8055 72.5646 94.5406 72.7898 94.4384 73.1779C94.3011 73.6833 93.2491 73.2507 92.9054 73.1516C91.1111 72.6201 91.601 70.6436 90.2061 69.9134C89.4274 69.4987 89.7257 70.5363 89.7472 70.8882C89.7964 71.6642 88.7893 71.8542 88.3723 71.2228C87.9552 70.5913 87.4938 71.0157 87.9362 71.5208C88.2474 71.8726 88.7824 72.2964 88.1144 72.5314C86.9977 72.92 86.4829 72.4149 86.7037 71.3048C86.8858 70.3753 87.3029 69.5449 87.5786 68.6514C87.9929 67.3698 86.9573 65.1414 86.5398 63.8782C85.9517 62.1098 85.9929 60.287 85.5052 58.5275C85.2312 57.5621 85.3963 56.7499 85.3496 55.7934C85.3033 54.7376 85.2882 53.7269 85.4986 52.7071C86.0589 50.0809 87.3481 47.6076 88.7595 45.3961C89.5573 44.1504 90.5027 43.0399 91.6433 42.0919C92.369 41.4779 93.4845 40.241 94.5517 40.2224C94.5654 40.4841 94.1872 40.7189 94.5419 40.9444C94.9755 40.8268 95.131 40.3214 95.3367 39.9784C95.846 39.166 96.9982 39.2917 97.7981 39.0116C98.8175 38.6501 99.8914 38.6045 100.995 38.4866C102.323 38.3415 103.492 38.1334 104.85 38.232C105.296 38.2588 111.201 38.7702 110.708 39.5646C110.103 40.5214 108.843 39.1504 108.338 39.3853C107.945 39.557 107.448 39.5662 107.006 39.4943C106.218 39.3864 106.853 38.7724 106.392 38.4658C106.18 38.3216 106.11 39.2872 106.078 39.3413C105.836 39.7836 105.026 39.6396 104.59 39.6218C104.081 39.604 104.155 38.8911 103.403 38.8824C102.614 38.8738 101.85 39.1539 101.141 39.434C100.598 39.6509 100.257 40.3188 99.6644 40.3733C98.8653 40.4549 98.0152 40.8885 97.2763 41.1415C95.6153 41.7289 93.936 42.7314 92.5807 43.815C91.199 44.9076 90.3983 46.433 89.3201 47.7871C88.3397 49.0149 88.1316 50.5852 87.2826 51.867C86.5216 53.0134 86.2677 54.8905 86.2251 56.2802C86.2202 56.6412 86.0377 56.9391 86.0871 57.3C86.1303 57.5887 86.2723 57.8684 86.2248 58.1572C86.1568 58.6265 85.752 59.2854 86.2507 59.7093C86.894 58.7705 86.2175 57.2368 86.8596 56.1806C86.9094 58.6351 86.6472 61.2522 87.8139 63.6339C88.2756 64.5722 89.125 64.653 88.557 63.5343C87.8257 62.0999 87.6773 60.7012 87.3745 59.1944C86.8433 56.5145 87.2267 54.0418 88.2271 51.686C88.7547 50.4585 89.2881 49.4024 90.0228 48.265C90.6763 47.236 91.2607 45.828 92.4767 45.331C92.4827 45.8183 92.4531 46.5222 92.1221 46.8833C91.9897 47.0278 90.524 47.7775 91.0097 48.1563C91.5824 48.5982 91.3903 48.4719 91.2391 49.1307C91.0808 49.9159 91.9096 49.4462 92.0713 49.013C92.2764 48.4534 92.3598 47.8488 92.8818 47.4966C93.7804 46.8915 92.5502 46.9102 92.7108 46.3596C92.9617 45.4932 92.9097 44.266 93.9093 43.8865C94.4702 43.6696 93.8089 44.6084 93.9974 44.7979C94.4353 44.8337 94.307 44.0848 94.7283 44.1387C95.1675 44.6078 94.2691 46.2596 94.0794 46.6838C93.5952 47.785 93.2043 49.0215 92.2556 49.7799C91.1367 50.6649 90.1484 51.8024 89.3723 52.9849C89.0921 53.4092 87.7298 55.6658 88.3678 56.234C88.6346 55.8639 88.6664 55.3946 88.8494 54.9975C89.1171 54.4289 89.5179 53.9323 89.9021 53.4539C90.6209 52.5511 91.4759 51.7566 92.1848 50.8448C92.5758 50.3393 93.4093 49.9237 93.9349 49.5084C94.1216 49.3639 95.0321 48.6867 95.3065 48.8219C95.5529 48.9481 95.3664 49.4084 95.7184 49.4985C96.0742 49.1103 95.9749 48.4877 96.3701 48.1355C96.9091 47.666 97.6149 47.4491 98.1866 47.0427C98.6392 46.7266 98.4829 47.4306 98.4276 47.6291C98.2753 48.1707 98.034 48.7303 98.6248 49.1721C99.2097 48.3958 98.6376 47.4395 99.1449 46.7083C99.5477 46.1306 100.659 45.5706 101.415 45.8319C101.342 47.0772 100.535 48.2146 100.182 49.3699C99.7604 50.7778 101.304 49.5678 101.828 49.4503C102.255 49.3598 102.479 48.701 101.856 48.7283C101.667 48.7375 101.039 49.2251 100.895 48.9273C100.581 48.2236 101.427 46.4906 101.661 45.9581C102.024 45.1277 103.001 45.425 103.7 45.6502C103.812 45.6863 104.394 45.8214 104.393 46.0199C104.39 46.2996 104.139 47.2653 104.679 47.3282C105.383 47.4091 104.344 45.9748 105.664 46.3712C106.26 46.5514 106.97 46.8037 107.594 46.7943C108.019 46.7851 108.757 46.4147 109.124 46.8838C108.33 47.8678 106.913 47.3993 105.857 47.7608C105.435 47.9054 105.168 48.3747 104.993 48.7629C104.666 49.4759 104.005 49.9004 103.287 50.1895C101.913 50.7407 100.433 50.9128 99.2239 51.7978C97.8608 52.7911 96.7767 53.9738 95.5726 55.1295C94.2444 56.4206 92.9553 57.4319 92.1454 59.1649C91.7863 59.9321 91.2267 60.5821 90.8872 61.3674C90.8123 61.5479 90.6608 61.8909 91.0484 61.7643C91.5069 61.6197 90.8717 62.9646 90.7901 63.1722C90.4257 63.9846 89.9165 64.797 89.7214 65.6814C89.4707 66.8637 90.4324 66.1503 90.6882 65.6538C91.3162 64.4353 91.4742 63.0185 91.9888 61.7458C92.257 61.0779 92.5106 60.3469 92.7311 59.6519C93.0033 58.8216 93.6609 58.361 94.3121 57.8283C95.3451 56.9975 96.1963 55.9503 96.9916 54.8851C98.1117 53.3866 99.5039 52.5196 101.172 51.7066C102.415 51.1014 103.889 50.4419 105.283 50.2246C106.132 50.0888 106.997 50.0342 107.785 49.727C108.004 49.6457 108.27 49.4741 108.53 49.5462C108.706 49.5912 108.923 50.0062 109.104 49.7895C109.515 49.302 109.822 47.9392 110.84 48.1914C111.442 48.3445 110.202 50.2311 110.798 50.6279C111.383 50.1674 111.001 49.1027 111.676 48.7414C112.506 48.2898 113.808 49.2006 114.547 48.5324C114.288 47.946 112.771 48.0009 112.274 48.0102C112.066 48.0193 111.424 48.3445 111.596 47.821C111.66 47.6135 111.444 47.2165 111.664 47.1352C112.19 46.9364 112.928 47.297 113.477 47.3689C113.606 47.3869 113.946 45.3563 113.738 45.1489C113.556 45.3475 113.637 45.6543 113.594 45.8979C113.505 46.3311 112.985 46.2863 112.657 46.3677C111.529 46.6299 112.187 45.7543 111.792 45.2762C111.547 45.5831 111.646 46.2057 111.204 46.3323C110.921 46.4046 110.472 46.3417 110.184 46.2606C109.72 46.1345 109.925 45.8908 109.665 45.6021C109.415 45.7557 109.621 46.1436 109.254 46.1889C108.931 46.2251 108.396 46.2164 108.097 46.009C107.624 45.6753 107.882 44.7818 107.953 44.3487C108.051 43.7079 108.174 43.1393 108.931 43.2021C109.168 43.2201 109.71 43.2017 109.915 43.3731C110.122 43.5625 109.906 43.8965 110.133 44.1039C110.133 44.1039 110.922 42.9665 110.822 43.4899C110.719 44.0765 112.129 43.6246 112.339 43.435C112.91 42.9114 112.4 42.2619 113.451 42.893C114.312 43.416 113.45 44.021 113.979 44.49C114.176 44.3545 113.972 43.8854 114.261 43.8672C114.422 43.8491 114.825 43.903 114.877 43.6684C114.944 43.3976 114.574 43.091 114.43 42.8925C114.215 42.6129 114.338 42.3602 114.231 42.0624C113.804 40.7903 110.187 40.765 110.884 39.2938C111.045 38.9598 114.589 40.5462 115.042 40.7626C115.183 40.8257 117.099 41.7181 116.867 41.0234C116.854 40.9782 115.316 39.9503 116.066 40.0402C116.359 40.0761 116.511 40.3648 116.857 40.3827C117.239 40.4005 117.599 40.5808 117.94 40.7611C118.719 41.1758 119.23 41.7441 119.736 42.4567C120.201 43.1152 120.736 43.7557 121.028 44.5045C121.145 44.8113 121.28 45.2173 121.308 45.5421C121.339 46.0023 120.876 46.0928 121.063 46.58C121.251 47.0852 122.234 47.6533 122.325 46.823C122.397 46.1913 122.082 45.1717 121.892 44.5492C121.452 43.1327 119.556 40.7964 118.125 40.2828C117.593 40.0935 116.705 39.6789 116.172 39.6882C115.892 39.6973 115.642 39.535 115.379 39.4269C115.041 39.2827 114.71 39.4453 114.344 39.292C112.689 38.589 110.677 38.1569 108.926 37.8148C107.213 37.4908 105.432 37.4195 103.718 37.2941C102.943 37.2313 102.286 37.5926 101.52 37.5388C101.118 37.5029 101.202 37.6292 100.911 37.7286C100.718 37.8009 100.123 37.6207 99.8628 37.6479C96.8327 38.0104 92.9067 39.1133 90.9431 41.4335C89.9413 42.6251 88.5565 43.6816 87.7894 45.0717C86.8212 46.8589 85.7703 48.7364 85.1339 50.6949C83.8215 54.6752 84.2214 59.8096 85.8167 63.8966C86.5851 65.8635 87.1142 68.3087 86.2708 70.1771C86.0661 70.6374 86.3096 71.0433 86.166 71.4766C86.0808 71.7473 85.9381 71.982 85.825 72.2438C85.6668 72.6138 85.2777 73.4533 85.9951 73.5792L86.0101 73.5431ZM90.4861 72.097C90.5194 72.3768 90.7969 72.5481 90.7271 72.6835C90.4863 73.1438 89.5271 72.2148 90.4861 72.097ZM107.957 48.8877C107.615 49.0232 105.634 49.8815 105.249 49.4125C105.466 49.1958 105.529 49.0874 105.203 48.8891C105.23 48.88 106.404 47.7966 106.384 48.2929C106.383 48.3922 106.078 48.5277 106.232 48.6359C106.485 48.735 106.508 48.3741 106.657 48.3108C107.078 48.3647 107.192 48.3196 107.537 48.1209C107.968 47.868 108.65 47.3804 109.217 47.6508C109.094 48.4179 108.605 48.6347 107.949 48.8967L107.957 48.8877ZM111.262 47C111.551 47.9294 110.489 47.587 109.964 47.8038C109.85 47.849 109.405 47.9395 109.35 47.7229C109.219 47.2537 109.992 47.3977 110.177 47.3345C110.494 47.226 110.996 47.1716 111.262 47ZM102.858 41.0575C102.762 41.9329 101.843 41.1573 101.478 40.9228C101.677 40.7061 102.91 40.507 102.858 41.0575ZM96.8347 46.2854C96.6647 45.9967 97.0315 45.7348 96.8253 45.4462C96.6216 45.708 96.4236 46.8721 95.9759 46.8272C95.3998 46.7644 95.0386 47.6128 94.5278 47.6762C94.4392 47.5951 94.5243 46.2775 94.5972 46.1782C94.9586 45.6456 95.4951 44.6256 95.4719 43.9398C95.4549 43.3262 95.2058 43.0646 95.8479 42.7395C96.1335 42.5859 96.8505 42.0802 97.2166 42.3327C96.6657 42.8744 96.1247 43.4251 95.5231 43.9037C95.9364 44.2825 97.3461 42.468 97.4894 43.1808C97.8448 42.8919 99.252 40.5269 100.151 41.2844C99.3655 41.6278 99.7102 42.2593 99.6909 42.8729C99.6605 43.7753 99.3619 44.6147 98.7878 45.2015C98.3063 45.7071 97.5497 45.8609 96.8461 46.3124L96.8347 46.2854ZM100.574 41.7715C100.706 41.9429 100.305 42.1236 100.23 42.3041C100.024 42.1147 100.402 41.7806 100.574 41.7715ZM101.268 44.4513C100.846 44.5959 100.425 44.7585 99.9686 44.8219C99.1364 44.9397 99.7155 43.9918 99.7571 43.5316C99.7951 43.1345 100.684 42.5205 101.045 42.403C101.485 42.2584 102.263 41.1931 102.709 42.1675C103.107 41.7342 102.822 40.9582 103.365 40.6421C103.788 40.3983 104.599 40.461 105.09 40.4788C105.816 40.4965 106.038 40.2347 105.854 41.1462C105.672 42.0758 105.417 42.0579 104.671 42.4372C103.978 42.7985 102.709 42.1675 102.3 42.6731C102.022 43.0161 101.8 42.8628 101.423 42.8991C100.947 42.9445 100.349 43.3599 100.092 43.739C100.329 44.0728 101.348 43.594 101.593 43.5036C102.675 43.1331 101.849 44.2525 101.268 44.4513ZM104.226 42.9428C104.344 43.051 102.792 43.8549 102.455 43.7288C102.745 42.9977 103.612 43.1777 104.226 42.9428ZM104.511 45.4964C103.686 44.7569 102.951 45.1633 102.137 44.6494C102.966 43.9812 104.095 43.8362 105.039 43.3394C105.278 43.7905 104.84 45.2165 104.501 45.4874L104.511 45.4964ZM107.63 44.3849C107.522 44.9174 107.364 46.0184 106.657 46.0187C105.679 46.0192 104.815 45.6587 105.238 44.5846C105.631 43.5828 105.643 43.0955 106.76 42.9235C108.021 42.7333 107.804 43.4644 107.62 44.3759L107.63 44.3849ZM109.368 42.489C109.282 42.7598 108.542 42.5797 108.433 42.3631C108.123 41.7136 109.197 42.083 109.368 42.489ZM108.113 41.7046C107.969 42.6521 107.446 42.1561 106.633 42.2919C105.651 42.4548 105.929 41.4801 106.061 40.9205C106.269 40.0812 107.087 40.2161 107.795 40.3331C108.767 40.477 108.208 41.0277 108.113 41.7046ZM112.052 42.4245C111.876 42.4787 111.719 42.4517 111.563 42.3255C111.207 42.1813 111.108 42.6054 110.798 42.5876C110.507 42.5697 110.764 41.8747 110.809 41.7664C111.146 42.1091 111.857 41.9463 112.042 42.4155L112.052 42.4245ZM112.168 41.5672C112.021 41.9643 111.025 41.649 110.683 41.5679C110.248 41.4689 110.231 41.6854 110.262 42.0464C110.311 42.5066 109.409 42.0288 109.23 41.9476C108.702 41.7133 108.393 40.9645 108.79 40.5311C109.252 40.1068 110.575 40.6385 110.57 41.3153C110.912 41.3963 110.72 40.9543 110.892 40.8459C111.227 40.6382 112.051 41.2604 112.168 41.5672ZM113.388 41.9546C113.14 42.2254 112.599 41.946 112.509 41.6302C112.785 41.5849 113.073 41.666 113.388 41.9546Z" fill="#985F3F"/>
</svg>
