<svg width="138" height="99" viewBox="0 0 138 99" fill="none" xmlns="http://www.w3.org/2000/svg">
<g opacity="0.6">
<path fill-rule="evenodd" clip-rule="evenodd" d="M2.21974 91.4704C2.02497 91.4704 1.75397 91.8757 1.55072 91.6865C1.30513 91.4524 0.966399 91.2633 0.763155 90.9751C0.415945 90.4888 0.780087 89.8043 1.10189 89.4261C1.83865 88.5525 3.03272 88.5975 3.30371 89.8584L1.56766 89.8584C1.7455 90.4167 2.16893 90.867 2.21974 91.4704Z" fill="#95613F"/>
<path fill-rule="evenodd" clip-rule="evenodd" d="M2.65223 87.5532C2.26268 87.292 1.89853 86.8868 2.44052 86.6346C3.22809 86.2654 3.66845 88.2376 2.65223 87.5532Z" fill="#95613F"/>
<path fill-rule="evenodd" clip-rule="evenodd" d="M44.4861 75.8635C43.6646 77.8088 43.0549 80.2133 43.6308 82.3207C43.961 83.5365 44.7063 85.6438 45.7225 86.4273C46.2814 86.8596 46.5185 87.4 46.9674 87.9673C47.4585 88.5887 48.0429 89.075 48.6611 89.5523C49.9991 90.579 51.0492 91.8218 52.4804 92.7494C53.9962 93.74 55.4105 94.9018 56.7824 96.1086C57.4006 96.6489 57.9087 97.2703 58.51 97.8197C59.1366 98.396 59.5092 98.1979 60.2545 98.0628C61.7365 97.7746 63.21 98.7383 64.7682 98.333C66.4704 97.8917 68.181 97.0812 69.663 96.0906C71.0518 95.163 71.9495 93.9112 72.9403 92.5513C73.5585 91.6957 73.5924 91.2274 73.6855 90.2278C73.7109 89.9126 73.9481 89.7325 74.0751 89.4713C74.236 89.1291 74.2106 88.6518 74.2275 88.2915C74.3376 86.4634 74.2699 84.5721 73.9396 82.771C73.6178 81.0148 72.9911 79.2227 72.1104 77.6917C71.4075 76.4579 70.1965 75.8996 69.4682 74.7828C69.1549 74.2965 68.0455 74.0624 67.5628 73.7832C66.826 73.3689 66.0723 73.0267 65.2932 72.7205C63.6165 72.0631 61.8804 71.5047 60.1359 71.0724C56.4775 70.1629 52.6497 70.4781 49.1522 71.919C47.1283 72.7565 45.443 73.6571 44.5115 75.8635L44.4861 75.8635ZM51.9045 73.2789C50.7104 72.5134 50.0668 73.9633 51.9045 73.2789V73.2789ZM51.2694 87.1208C50.3124 85.7069 49.1353 84.4461 48.4155 82.852C47.6957 81.249 47.8227 79.5199 48.2038 77.8448C48.5679 76.2598 49.5079 75.7915 50.8544 75.2511C51.5996 74.9539 52.2602 74.5127 52.98 74.1794C53.6829 73.8552 53.9454 73.9903 54.335 73.1618C54.8261 72.1441 55.3427 72.5134 56.2065 72.5764C57.0534 72.6394 57.8325 72.3152 58.6878 72.4954C60.2883 72.8376 61.8465 73.6121 63.4302 74.0624C65.0731 74.5307 66.6651 75.062 68.0794 76.0977C69.4767 77.1153 70.2219 78.3311 71.128 79.7991C72.1443 81.4561 72.356 83.3383 72.4153 85.2746C72.4745 86.9947 72.8895 88.8679 72.2205 90.498C71.7293 91.6957 70.8994 93.3438 69.9255 94.1723C68.9008 95.0459 66.9869 96.5409 65.615 96.0275C64.9037 95.7664 63.9637 95.9014 63.21 95.7664C62.3293 95.6133 61.4993 95.3341 60.6694 95.0009C59.8988 94.6947 59.1959 94.4155 58.5692 93.8301C58.095 93.3888 57.6885 92.7854 57.0534 92.6503C56.5453 92.5423 55.7831 91.7588 55.3766 91.4165C54.8346 90.9573 54.4197 90.2278 53.7422 90.0026C53.0223 89.7595 53.0901 88.8409 52.4465 88.4717C51.6928 88.0484 51.7182 87.7962 51.2609 87.1118L51.2694 87.1208ZM47.6364 74.6387C47.1283 77.8178 45.4769 80.7537 47.2807 83.8247C48.0598 85.1485 48.9998 86.2652 49.9652 87.427C50.1346 87.6251 51.515 89.7865 50.414 89.6244C48.4917 87.1568 45.9173 85.0314 45.0704 81.8074C44.5623 79.8531 45.0281 74.8819 47.6364 74.6387Z" fill="#95613F"/>
<path fill-rule="evenodd" clip-rule="evenodd" d="M136.946 56.1049C135.913 52.8538 132.322 51.521 129.383 50.9446C125.92 50.2692 122.363 50.7375 118.984 51.6921C118.044 51.9532 117.087 52.4576 116.105 52.5206C115.478 52.5566 115.258 53.106 114.699 53.2591C114.174 53.3942 113.623 53.4212 113.107 53.5923C112.582 53.7634 112.082 54.2497 111.582 54.5109C109.99 55.3214 108.822 56.8614 107.196 57.6359C106.73 57.861 106.493 58.2933 106.069 58.6175C105.443 59.0948 104.943 59.7613 104.401 60.3376C103.741 61.0491 102.945 61.6165 102.301 62.3369C101.827 62.8773 101.844 63.5617 101.48 64.1381C100.734 65.3359 99.3539 65.561 99.1083 67.1821C98.8882 68.641 99.337 70.3881 99.6588 71.802C100.006 73.306 100.599 74.7199 101.725 75.7466C102.962 76.8723 104.528 77.5567 106.061 78.0791C106.527 78.2412 109.635 78.6735 108.729 79.7542C108.06 80.5557 106.417 80.1504 105.57 79.9703C104.062 79.6461 102.919 78.7185 101.793 77.6558C101.209 77.0974 100.54 76.4941 100.201 75.7376C100.023 75.3413 99.7858 74.7289 99.2862 75.1162C99.1422 76.359 100.616 77.7459 101.31 78.6104C102.42 79.9883 103.952 81.015 105.57 81.5733C106.578 81.9246 108.39 82.3658 109.22 81.3572C110.143 80.2315 109.906 78.5294 111.82 78.6194C112.7 78.6555 111.498 80.9519 111.311 81.2311C110.88 81.8705 110.829 82.7261 110.371 83.3835C109.863 84.104 109.296 84.7614 108.762 85.4638C108.322 86.0402 107.712 86.2113 107.086 86.4455C106.501 86.6706 106.273 87.1929 105.671 87.4181C104.875 87.7243 103.91 87.9765 103.36 88.7059C102.894 89.3093 102.513 89.5074 101.827 89.7236C100.167 90.2639 98.5325 90.9754 96.8896 91.5698C93.4598 92.8306 89.8353 93.7312 86.2023 92.8756C84.7457 92.5334 83.4246 91.7319 82.4507 90.5161C81.6547 89.5254 81.0534 88.3097 79.6731 88.2646C80.2997 85.1847 82.51 83.0233 84.7965 81.2311C84.3308 81.8615 84.7542 82.8251 84.3731 83.5006C84.9405 83.2664 85.1014 82.7081 85.2538 82.1317C85.4401 81.4653 85.9144 80.9519 86.3378 80.4476C87.2609 79.3399 88.2517 78.9706 89.4119 78.2232C90.733 77.3676 91.9016 76.7012 93.3413 76.1068C93.951 75.8546 95.3314 75.6925 95.0434 74.6479C94.2051 74.5488 93.6631 75.0711 92.8924 75.2693C91.6984 75.5755 92.5029 74.5758 92.9687 74.1886C93.553 73.7023 94.0696 73.4861 94.8148 73.3961C95.3398 73.333 96.6186 73.0178 95.958 72.1893C95.0434 71.0275 92.7061 72.5315 91.9186 73.0628C90.3519 74.1345 88.2009 75.0441 87.1254 76.7732C86.6427 77.5567 85.6603 77.7729 85.2623 78.6645C85.1353 78.9346 84.805 78.5924 84.6695 79.0247C84.5679 79.3399 84.1614 79.1057 83.9412 79.448C82.8318 81.1771 81.2736 82.3838 80.0796 84.0409C78.8686 85.725 78.0217 87.9765 78.5468 90.1018C78.7754 91.0114 79.2242 91.876 79.9356 92.4433C80.4437 92.8576 80.4945 92.8486 80.8079 92.2902C80.9603 92.0201 81.0111 91.7499 80.9434 91.4437C82.8911 93.7942 86.2955 95.1631 89.2171 95.091C90.8176 95.055 92.3166 94.3165 93.9341 94.3075C94.747 94.3075 95.433 94.1905 96.1189 93.6951C96.6355 93.3169 97.1098 93.0107 97.7364 92.8846C98.1937 92.7946 99.0067 92.8756 99.337 92.4523C99.6249 92.0831 99.6842 92.002 100.184 91.966C101.412 91.894 102.36 91.1015 103.52 90.6872C104.977 90.1739 106.213 89.1472 107.441 88.2106C108.602 87.319 109.956 86.6076 110.897 85.4278C111.379 84.8154 112.006 84.122 112.268 83.3655C112.522 82.627 112.539 81.8255 112.751 81.078C113.081 79.9073 112.963 78.2052 114.225 77.881C115.8 77.4757 117.375 77.2055 118.984 76.9894C119.831 76.8813 120.754 76.8273 121.567 76.5391C122.117 76.341 122.592 75.9897 123.125 75.7556C124.446 75.1702 125.903 74.9721 127.232 74.3777C127.969 74.0535 128.663 73.6392 129.273 73.0989C129.671 72.7476 130.467 72.7116 130.755 72.2703C131.145 71.6669 131.17 71.2707 131.856 70.9195C132.39 70.6403 132.838 70.3521 133.279 69.9108C133.872 69.3164 134.397 68.632 134.879 67.9385C135.311 67.3262 135.447 66.6687 135.794 66.0293C136.624 64.4893 137.42 62.8863 137.674 61.1121C137.928 59.338 137.479 57.78 136.954 56.1229L136.946 56.1049ZM91.3935 75.7736C91.0802 75.8907 90.8515 76.1068 90.5382 76.2239C90.3773 75.7196 91.3258 75.2873 91.3935 75.7736ZM134.676 65.2548C134.176 66.3805 133.228 67.029 132.694 68.1187C132.415 68.677 131.966 68.9652 131.433 69.1363C131.094 69.2444 131.153 69.6406 130.916 69.8388C130.755 69.9829 130.51 69.7667 130.391 70.0009C130.366 70.172 130.281 70.2891 130.129 70.3431C129.654 70.3341 129.561 70.8114 129.18 71.1086C128.24 71.8561 127.224 72.4955 126.123 72.9548C124.988 73.4321 123.692 73.9094 122.49 74.1525C121.423 74.3687 120.652 75.0441 119.543 75.1072C118.29 75.1882 117.087 75.4404 115.868 75.7466C115.004 75.9717 113.945 76.1879 113.183 75.5484C112.768 75.2062 112.319 75.9177 111.769 76.0798C111.218 76.2509 110.626 76.2329 110.067 76.1428C108.974 75.9717 107.856 75.6025 106.857 75.1252C106.476 74.9451 106.188 74.5758 105.782 74.4497C105.29 74.2966 105.256 74.864 104.969 75.1162C104.393 75.6115 103.554 74.9361 103.131 74.5218C101.556 73.0178 100.641 70.0009 101.005 67.8035C102.072 68.0466 102.987 68.695 103.893 69.2984C104.486 69.6947 105.485 69.7487 105.951 70.2981C106.891 71.4148 109.22 72.5225 110.6 71.8831C110.227 70.8474 108.957 70.8924 108.119 70.6853C106.95 70.3881 106.019 69.5596 104.943 69.0372C103.986 68.5689 100.827 67.4252 101.911 65.8312C102.877 64.4083 104.003 65.516 105.087 66.1284C106.324 66.8308 107.374 67.8125 108.635 68.4789C109.762 69.0733 111.04 69.7127 112.277 70.0099C112.709 70.1089 113.149 70.0549 113.386 69.6046C113.022 69.1273 112.472 68.9292 111.921 68.8211C111.049 68.641 110.405 68.4879 109.652 67.9746C108.974 67.5243 108.144 67.3982 107.433 67.02C106.23 66.3805 104.918 65.525 103.893 64.5794C103.072 63.8139 103.876 63.4987 104.638 63.6968C105.367 63.8859 105.993 64.3362 106.671 64.6424C107.441 64.9936 108.263 64.9036 109.05 65.1738C109.897 65.4529 110.668 66.0563 111.498 66.4256C111.972 66.6417 113.293 67.3081 113.564 66.4526C113.81 65.6691 112.904 65.4259 112.395 65.2638C110.82 64.7865 109.203 64.2191 107.594 63.8499C106.95 63.7058 104.554 62.8953 104.901 62.0217C105.113 61.4904 105.587 60.959 106.019 60.6078C106.332 60.3557 107.213 60.5448 107.289 60.0765C107.424 59.2119 107.712 59.4281 108.39 58.9507C108.983 58.5365 109.542 58.0322 110.219 57.771C111.201 57.3837 113.081 59.1579 113.954 59.5361C115.351 60.1485 116.824 60.6078 118.239 61.1932C118.561 61.3283 120.737 61.5444 119.941 60.6078C119.407 59.9774 118.281 59.8243 117.536 59.6532C116.071 59.311 114.597 58.7706 113.259 58.0412C112.836 57.816 111.837 57.4198 111.887 56.7623C111.938 56.186 112.7 55.8347 113.115 55.6186C114.563 54.8621 116.13 54.4208 117.663 53.9345C117.748 55.7897 119.255 56.222 120.576 57.0055C121.677 57.6629 124.234 59.6982 125.564 59.1039C126.301 58.7796 125.428 57.9691 125.073 57.816C124.404 57.5188 123.692 57.4468 123.074 57.0325C121.872 56.231 119.873 55.9338 119.052 54.628C118.73 54.1236 118.544 53.7634 119.17 53.5833C119.602 53.4572 120.043 53.3401 120.474 53.2321C121.338 53.0069 122.21 52.8178 123.083 52.6737C124.971 52.3585 126.91 52.2955 128.799 52.6287C131.39 53.079 134.862 54.1597 135.802 57.1226C136.734 60.0405 135.853 62.5711 134.685 65.2098L134.676 65.2548Z" fill="#95613F"/>
<path fill-rule="evenodd" clip-rule="evenodd" d="M59.8063 91.6597C60.0434 92.245 59.2135 92.6773 58.5275 92.11C58.6461 91.2094 59.6454 91.2634 59.8063 91.6597Z" fill="#95613F"/>
<path fill-rule="evenodd" clip-rule="evenodd" d="M61.7282 88.9398C62.4311 89.264 63.6675 89.282 63.8623 90.2997C63.0409 90.3987 62.2872 90.1466 61.652 89.6062C60.9407 89.0118 59.9753 88.7867 59.3825 88.0302C60.2632 88.0032 60.9576 88.5886 61.7282 88.9398Z" fill="#95613F"/>
<path fill-rule="evenodd" clip-rule="evenodd" d="M60.0172 85.3108C61.4822 86.2294 62.7102 87.5622 64.2345 88.3998C64.7172 88.661 65.3015 88.8951 65.6403 89.3814C66.0976 90.0388 65.6657 90.6332 64.9713 90.1649C64.3361 89.7326 63.8365 89.0392 63.2098 88.5709C62.346 87.9225 61.4484 87.3191 60.593 86.6527C59.2974 85.653 56.8923 84.5723 56.3842 82.8162C57.0617 82.9693 57.5528 83.5186 58.044 83.996C58.6199 84.5543 59.3397 84.8965 60.0087 85.3108L60.0172 85.3108Z" fill="#95613F"/>
<path fill-rule="evenodd" clip-rule="evenodd" d="M92.249 86.6705C91.4699 85.878 91.2074 87.5261 92.249 86.6705V86.6705Z" fill="#95613F"/>
<path fill-rule="evenodd" clip-rule="evenodd" d="M63.2185 82.5821C62.6511 82.1678 61.4232 82.3119 61.5079 81.2222C62.27 81.0781 62.7443 81.8346 63.2862 82.2579C64.0399 82.8433 64.9799 83.0684 65.759 83.6268C66.445 84.1221 67.0124 84.8335 67.8254 85.1037C68.3843 85.2928 69.1126 85.482 69.1973 86.2204C68.1302 86.4276 67.4443 85.4369 66.589 84.9776C65.9623 84.6354 65.3017 84.3652 64.7174 83.951C64.167 83.5637 63.7689 82.9873 63.2185 82.5911L63.2185 82.5821Z" fill="#95613F"/>
<path fill-rule="evenodd" clip-rule="evenodd" d="M89.6826 83.0411C88.7341 83.6175 88.1244 84.5541 87.1167 85.0854C87.4808 84.0318 88.8019 82.789 89.6826 83.0411Z" fill="#95613F"/>
<path fill-rule="evenodd" clip-rule="evenodd" d="M67.1996 81.6274C66.7507 81.024 66.2003 81.024 65.7345 80.5377C65.5059 80.3035 64.1255 78.7815 64.2949 78.5024C66.1325 79.0967 67.6992 80.5737 69.249 81.7264C69.6554 82.0326 71.1374 83.2124 70.4599 83.7257C70.0619 84.0229 69.7571 83.6357 69.4691 83.3745C69.0542 83.0053 68.5461 83.1223 68.1396 82.8161C67.7415 82.5099 67.5044 82.0326 67.208 81.6274L67.1996 81.6274Z" fill="#95613F"/>
<path fill-rule="evenodd" clip-rule="evenodd" d="M100.142 83.7166C101.327 83.0052 100.836 84.4191 100.142 83.7166V83.7166Z" fill="#95613F"/>
<path fill-rule="evenodd" clip-rule="evenodd" d="M90.5381 79.1777C90.0638 80.5646 88.7343 81.0509 87.7604 81.8975C88.1584 80.4205 89.2255 79.673 90.5381 79.1777Z" fill="#95613F"/>
<path fill-rule="evenodd" clip-rule="evenodd" d="M95.0176 76.6831C93.9082 77.1694 92.6549 78.7094 91.3931 78.2681C92.5278 77.8088 93.7981 76.2959 95.0176 76.6831Z" fill="#95613F"/>
<path fill-rule="evenodd" clip-rule="evenodd" d="M74.9728 74.8281C76.7597 75.5395 78.6143 75.8998 80.5197 75.9808C81.9255 76.0439 83.9833 76.278 85.1774 75.3054C85.8803 74.729 86.7779 74.792 87.5825 74.4949C88.3107 74.2247 88.8951 73.6303 89.4455 73.0809C90.6227 71.9192 91.4526 70.9646 92.1046 69.3796C92.7821 67.7315 93.6798 66.2726 93.7814 64.4264C93.8576 62.9854 93.7052 61.1843 92.8922 59.9775C92.401 59.239 91.7066 58.7077 91.2239 57.9512C90.7836 57.2668 90.3432 56.6364 89.6827 56.168C89.0644 55.7268 88.3023 55.3485 87.5571 55.2675C86.7102 55.1774 86.1343 54.8352 85.4145 54.3939C84.0003 53.5293 82.3066 53.4483 80.723 53.2952C79.0123 53.1331 77.361 52.7008 75.6757 52.3406C73.8211 51.9443 71.8988 51.7372 70.0357 52.1515C69.0618 52.3676 66.8177 52.5837 66.2503 53.6284C66.0047 54.0787 66.174 54.628 65.8861 55.0603C65.6659 55.4025 65.3611 55.6637 65.107 55.9789C64.6666 56.5193 64.4041 57.2127 64.2093 57.8882C63.769 59.3831 63.5827 61.2113 64.3957 62.6072C65.2679 64.1022 64.9461 65.9574 65.9285 67.4703C66.4027 68.1998 66.9277 68.8842 67.4782 69.5507C67.7068 69.8298 67.9355 70.1 68.1726 70.3612C68.3335 70.5413 68.6384 70.6043 68.7739 70.7755C70.2474 72.7477 72.8134 73.9635 74.9728 74.8281ZM70.6285 69.9919C69.9933 69.5597 69.4429 68.9833 68.8924 68.4339C67.7407 67.2812 67.0971 66.1195 66.5467 64.5615C66.0385 63.1115 65.522 61.6166 65.4627 60.0586C65.4373 59.3111 65.522 58.5636 65.7845 57.8701C66.0555 57.1767 66.6568 56.6454 66.86 55.9339C66.9955 55.4476 66.6229 54.4659 67.3173 54.3399C67.9948 54.2228 68.7146 54.3399 69.409 54.2228C71.162 53.9346 72.5508 53.5564 74.3123 54.1057C77.5557 55.1144 81.0024 54.8892 84.2628 55.8078C85.7787 56.2401 87.4385 56.8075 88.7765 57.699C89.2846 58.0322 89.9113 58.2394 90.25 58.7797C90.6565 59.4462 91.1223 60.1036 91.5881 60.725C92.003 61.2743 92.2232 61.7877 92.2825 62.4991C92.3164 62.9854 91.3001 62.9764 90.9699 63.2016C89.9113 63.922 89.5472 65.0568 88.2261 65.408C87.5062 65.5971 86.8372 65.5971 86.1174 65.417C85.4823 65.2639 84.7963 65.1829 84.3475 65.7952C84.6693 66.3716 85.1943 66.2726 85.7279 66.1825C86.4307 66.0744 86.6509 66.4797 87.176 66.894C87.6925 67.2992 88.4039 67.6775 89.0644 67.6324C89.6064 67.5964 89.7335 66.8399 90.1061 66.5247C90.6057 66.0924 90.9614 65.8493 91.2832 65.2369C91.5034 64.8226 91.7828 64.4714 92.2571 64.4264C92.1893 65.5881 91.9861 66.7679 91.5288 67.8396C91.1138 68.8212 90.1908 69.3886 89.7589 70.3162C89.2931 71.3248 88.7257 71.5049 87.828 72.0543C86.8711 72.6487 85.8888 73.216 84.8217 73.5673C82.7131 74.2697 80.4435 74.2337 78.2925 73.8104C77.1577 73.5853 76.0229 73.2701 74.9898 72.7207C74.0836 72.2434 73.0589 72.0363 72.1867 71.4689C71.5939 71.0726 71.2297 70.3972 70.6285 69.9919Z" fill="#95613F"/>
<path fill-rule="evenodd" clip-rule="evenodd" d="M29.4971 53.3039C29.5902 53.5201 29.9036 53.385 30.0052 53.6822C30.1153 54.0064 30.183 54.3486 30.3101 54.6818C30.6234 55.5013 30.8182 56.3569 30.9791 57.2214C31.2416 58.6804 31.6735 60.1573 31.8598 61.6253C31.9276 62.1566 31.9191 62.751 31.6227 63.2193C31.3263 63.6696 30.6488 64.0028 30.5641 63.2013C30.4879 62.5078 30.5472 61.9495 30.3609 61.247C30.1153 60.3014 29.7342 59.3378 29.7003 58.3472C29.6749 57.7168 29.7511 56.9333 29.3362 56.4199C28.8196 55.7805 28.4893 55.006 28.2099 54.2225C27.5747 52.4484 26.7279 50.7823 26.0673 49.0172C25.4745 47.4321 24.8733 46.0362 23.7385 44.7934C22.5783 43.5236 21.2233 42.4069 19.826 41.4433C17.15 39.6061 13.6017 37.922 10.3328 38.5794C7.08092 39.2278 6.26793 44.109 6.03928 47.0269C5.88685 49.0352 6.31875 50.8543 6.99623 52.7185C7.3265 53.6281 7.69065 54.5197 8.07173 55.4113C8.32579 56.0057 8.65605 57.5186 9.28273 57.7348C9.76543 57.9059 9.76544 59.1036 10.028 59.5179C10.3413 60.0222 10.8155 60.1213 11.0696 60.7337C11.7047 62.3187 13.0851 63.8227 14.2537 64.9934C16.6588 67.398 19.8514 69.0551 23.1965 69.1181C24.5938 69.1451 26.0589 68.911 27.38 68.4066C27.9812 68.1725 28.0659 67.7852 28.4893 67.353C28.989 66.8396 29.26 67.8033 29.116 68.2175C28.7942 69.1361 27.5409 69.5414 26.7702 69.8746C25.0427 70.6131 23.2558 70.8832 21.4181 70.559C19.8938 70.2979 17.8867 69.8206 16.5572 68.956C16.0406 68.6228 15.7273 68.0194 15.1514 67.7762C14.8127 67.6321 14.5332 67.371 14.2283 67.1638C13.8473 66.9027 13.9404 66.3623 13.5847 66.1012C13.2968 65.885 12.9157 65.822 12.6617 65.5518C12.3991 65.2726 12.3399 64.8674 12.1281 64.5522C11.9418 64.264 11.62 64.3901 11.3829 64.1919C11.1797 64.0298 11.1373 63.7506 11.0442 63.5165C10.8833 63.0932 10.409 62.778 10.1889 62.3187C9.75697 61.4181 9.25732 60.5626 8.81695 59.653C8.54596 59.0946 8.01245 58.6714 7.72452 58.059C7.31803 57.1764 6.93695 56.2938 6.5728 55.3933C5.85298 53.6281 4.96378 51.7369 4.6081 49.8457C4.3117 48.2607 4.34559 46.1083 4.87063 44.5773C5.42109 42.9833 5.81911 41.1551 6.53893 39.6421C7.19101 38.2822 8.27498 36.8413 9.84165 36.8953C11.8318 36.9584 13.7372 36.7603 15.668 37.3726C16.5741 37.6518 17.5311 38.0121 18.3186 38.5794C18.8776 38.9847 19.3179 39.435 20.0123 39.444C20.2241 39.444 20.3596 39.9393 20.5882 40.0474C21.054 40.2725 21.4689 40.5067 21.8754 40.8399C22.7477 41.5513 23.5607 42.3709 24.3313 43.2084C25.5254 44.4872 26.7194 45.7931 27.2445 47.5222C27.5578 48.5669 28.1167 49.3504 28.6248 50.287C29.1414 51.2236 29.116 52.3133 29.5056 53.2949L29.4971 53.3039Z" fill="#95613F"/>
<path fill-rule="evenodd" clip-rule="evenodd" d="M77.9453 70.0999C76.6496 70.1359 75.3963 69.6856 74.27 69.0282C73.6264 68.6499 73.0166 68.1997 72.3984 67.7674C72.102 67.5512 71.7633 67.4071 71.4415 67.236C71.1366 67.0739 71.306 66.7137 71.1112 66.4795C70.9418 66.2724 70.637 66.4525 70.4676 66.2544C70.1881 65.9212 70.1543 65.4169 69.8325 65.1197C71.4161 65.2998 72.2799 66.8938 73.5163 67.7404C74.9136 68.695 76.8021 68.713 77.9453 70.1089L77.9453 70.0999Z" fill="#95613F"/>
<path fill-rule="evenodd" clip-rule="evenodd" d="M32.351 56.9153C33.1555 58.3202 34.0616 59.8782 35.1541 61.049C37.3898 63.4355 40.0658 65.1016 42.9875 66.4435C46.2732 67.9474 49.8554 68.6859 53.3953 67.8484C54.3099 67.6322 55.0382 67.1549 55.9019 66.8127C56.4778 66.5786 56.9944 66.6056 57.3585 65.9932C58.2308 64.5252 58.9506 62.9402 59.3402 61.2561C60.1701 57.6808 59.2639 54.6549 57.223 51.728C55.1398 48.7201 52.1165 47.6484 48.7799 46.8919C46.9253 46.4686 45.003 46.1804 43.0975 46.0633C42.2761 46.0093 41.4547 46.0904 40.6247 46.0633C39.8456 46.0453 39.1766 45.6851 38.4145 45.604C37.593 45.514 36.5937 46.1084 35.7807 46.2435C35.0525 46.3695 34.3242 46.4776 33.6213 46.7208C32.0546 47.2521 32.0377 48.4679 31.6058 49.9088C31.4364 50.4582 31.2162 50.9895 31.0807 51.5479C30.6404 53.367 31.4618 55.3934 32.3341 56.9153L32.351 56.9153ZM32.8676 49.6026C33.0285 49.0082 33.2825 48.2788 33.8584 48.0086C34.629 47.6484 35.0863 48.4319 35.7384 48.666C37.6184 49.3505 39.9134 49.2784 41.8696 49.4675C43.0891 49.5846 44.317 49.7287 45.5195 49.9719C46.4511 50.161 47.2387 50.7374 48.094 51.1516C49.7792 51.9531 51.4306 52.9168 52.9549 54.0245C53.9881 54.772 54.1066 56.9784 55.5378 57.2125C57.4009 57.5187 55.343 54.1506 54.8688 53.7093C54.3522 53.232 54.3268 52.5385 53.7933 52.1423C53.2259 51.728 52.396 51.674 51.9726 51.1336C51.439 50.4672 50.5668 50.4852 49.8893 50.0529C49.288 49.6747 48.746 49.4405 48.0855 49.2154C47.806 49.1163 47.0947 48.9542 47.1286 48.5129C47.154 48.1527 49.0678 48.8551 49.4151 48.9452C50.9902 49.3865 53.0311 49.7647 54.2506 51.0255C54.801 51.5839 55.089 51.9712 55.4955 52.6736C55.8511 53.295 56.4524 53.6732 56.9097 54.1866C57.8582 55.2673 58.3917 57.7169 58.307 59.1668C58.2138 60.6257 57.8074 62.3098 57.1892 63.6157C55.6902 66.7767 51.1934 66.7136 48.3734 66.2814C45.0199 65.768 41.8865 64.237 39.075 62.2648C37.6777 61.2831 36.2211 60.1484 35.4335 58.5454C35.1117 57.888 34.4258 57.5637 34.0447 56.9604C33.706 56.438 33.1386 55.6725 32.9269 55.0962C32.3002 53.4211 32.4272 51.2957 32.876 49.5756L32.8676 49.6026Z" fill="#95613F"/>
<path fill-rule="evenodd" clip-rule="evenodd" d="M20.6475 48.5488C23.0695 51.1785 25.1273 53.8802 26.7279 57.1673C27.8542 59.4818 28.8873 61.346 28.7434 64.0208C28.701 64.7863 28.6756 65.975 28.1082 66.5424C27.0497 67.5961 27.1936 64.6332 27.2614 64.2189C27.5408 62.4988 27.0073 60.9858 26.2282 59.4908C25.8387 58.7524 25.5338 58.0409 25.2035 57.2934C24.8987 56.6 24.2889 56.1047 24.0095 55.4022C23.7131 54.6457 23.6284 54.0063 23.0525 53.4029C22.6122 52.9346 22.3581 52.1871 21.8839 51.7999C21.6552 51.6108 21.3758 51.5117 21.1895 51.2775C20.9608 50.9804 21.0201 50.6201 20.7406 50.3139C20.2325 49.7646 19.7498 49.1882 19.2248 48.6659C18.7844 48.2246 18.1493 48.0084 17.7428 47.5401C17.5649 47.333 17.5311 46.9368 17.3448 46.7656C17.1246 46.5765 16.862 46.7656 16.6165 46.4594C16.1676 45.9101 15.7273 45.2076 15.1091 44.8654C14.6941 44.6313 14.1945 44.6673 13.788 44.4151C13.0427 43.9468 13.7033 43.4155 14.2453 43.2894C14.999 43.1093 15.7696 43.2444 16.4894 43.5055C17.675 43.9468 18.9622 44.7123 20.0039 45.4688C20.241 45.6399 20.8422 46.3154 20.4358 46.6215C20.1224 46.8557 19.6567 46.5765 19.3518 46.8107C19.0639 47.0358 20.4866 48.3777 20.6475 48.5578L20.6475 48.5488Z" fill="#95613F"/>
<path fill-rule="evenodd" clip-rule="evenodd" d="M67.2076 59.2657C67.233 58.7794 67.5971 58.212 68.1222 58.275C68.4948 58.3201 68.5202 59.2297 68.9098 59.4728C69.5703 59.8781 69.5618 60.5445 69.8328 61.2199C70.324 62.4447 71.7891 63.2463 72.873 63.7506C74.1348 64.345 75.5321 64.9213 76.8956 65.1645C77.8017 65.3176 79.1313 66.2632 77.4206 66.1641C76.1249 66.0831 74.9139 65.4887 73.6775 65.1105C73.2541 64.9844 71.9838 65.0024 71.8568 64.435C71.7721 64.0658 71.5181 64.1468 71.2386 64.0478C70.9253 63.9307 71.0777 63.5254 70.739 63.4444C70.0276 63.2733 70.0445 62.6699 69.7651 62.0305C69.4856 61.3911 68.8081 60.5175 68.1137 60.3824C67.4701 60.2653 67.1568 60.0492 67.1991 59.2657L67.2076 59.2657Z" fill="#95613F"/>
<path fill-rule="evenodd" clip-rule="evenodd" d="M113.056 63.6699C112.234 63.3997 111.591 62.7513 110.811 62.391C109.846 61.9407 107.983 62.0218 108.246 60.5719C109.363 60.788 110.363 61.4184 111.455 61.7246C112.141 61.9227 112.937 62.1118 113.504 62.5802C113.767 62.7963 113.953 63.0935 114.004 63.4447C114.072 64.0031 113.386 63.7689 113.056 63.6608L113.056 63.6699Z" fill="#95613F"/>
<path fill-rule="evenodd" clip-rule="evenodd" d="M85.626 62.1568C85.8293 61.3192 85.7869 60.4547 86.71 60.1485C87.6754 59.8333 88.0565 58.3653 89.0389 58.3023C89.0389 59.0858 89.547 59.7522 89.674 60.5087C89.8349 61.5354 88.8441 61.5444 88.2005 61.8146C87.8363 61.9677 87.7855 62.3279 87.523 62.5891C87.1673 62.9583 86.5406 63.0844 86.0664 63.1834C85.7954 63.2375 84.8723 63.5437 84.957 63.0303C85.0248 62.6431 85.516 62.562 85.6176 62.1568L85.626 62.1568Z" fill="#95613F"/>
<path fill-rule="evenodd" clip-rule="evenodd" d="M43.1572 57.8431C44.1734 58.5095 45.2151 59.1849 46.2059 59.9504C47.0189 60.5808 48.3738 60.4728 48.7041 61.6975C46.8918 62.0938 45.5962 59.7343 44.0633 59.275C43.6145 59.1399 43.1657 59.0408 42.8185 58.6716C42.4628 58.3024 42.2087 57.807 41.7684 57.5279C41.2772 57.2127 40.2949 57.1046 40.5913 56.24C41.6244 56.4021 42.3104 57.2757 43.1488 57.825L43.1572 57.8431Z" fill="#95613F"/>
<path fill-rule="evenodd" clip-rule="evenodd" d="M49.7794 56.7083C49.9742 57.1046 50.567 57.0866 50.6348 57.6089C50.2283 57.5639 49.2205 57.0235 49.7794 56.7083Z" fill="#95613F"/>
<path fill-rule="evenodd" clip-rule="evenodd" d="M132.847 57.5995C132.229 57.6355 131.636 57.1853 131.094 56.9331C129.917 56.4018 129.121 55.4111 128.037 54.8347C127.673 54.6456 127.893 53.9252 128.207 53.7901C128.757 53.5469 129.536 54.4655 129.934 54.7537C130.95 55.4832 132.475 55.6543 133.322 56.5999C133.804 57.1402 133.533 57.5635 132.856 57.5995L132.847 57.5995Z" fill="#95613F"/>
<path fill-rule="evenodd" clip-rule="evenodd" d="M47.6363 55.5733C48.2206 55.7174 48.6356 56.0236 48.915 56.4829C48.2799 56.4019 47.8649 56.0867 47.6363 55.5733Z" fill="#95613F"/>
<path fill-rule="evenodd" clip-rule="evenodd" d="M37.4917 53.3493C38.1015 53.8626 38.7874 54.2769 39.3209 54.8983C39.6004 55.2135 40.5319 56.105 39.7443 56.033C39.3125 55.7178 38.9398 55.1594 38.4487 54.9523C38.2285 54.8532 37.8897 54.8082 37.7542 54.565C37.5849 54.2678 37.551 53.8536 37.2715 53.6374C36.8058 53.2682 36.9582 52.899 37.4917 53.3493Z" fill="#95613F"/>
<path fill-rule="evenodd" clip-rule="evenodd" d="M20.3936 54.5199C20.0209 54.1777 19.9363 53.5833 19.5891 53.2051C18.937 52.4756 17.9038 51.485 18.1833 50.3592C18.9116 51.6741 20.1734 52.6377 21.088 53.7994C21.5114 54.3308 22.3159 54.7451 22.443 55.4835C22.6377 56.5822 21.5284 55.2404 21.3844 55.1233C21.0711 54.8891 20.6815 54.7901 20.3936 54.5199Z" fill="#95613F"/>
<path fill-rule="evenodd" clip-rule="evenodd" d="M12.2129 54.2134C11.6116 54.1774 11.2983 53.8171 11.3576 53.0786C12.0266 53.0516 12.0859 53.664 12.2129 54.2134Z" fill="#95613F"/>
<path fill-rule="evenodd" clip-rule="evenodd" d="M10.7144 51.719C10.7482 51.4578 10.6806 51.0705 10.9258 51.0345C11.0611 51.2417 11.4247 51.8721 10.7144 51.719Z" fill="#95613F"/>
<path fill-rule="evenodd" clip-rule="evenodd" d="M76.6839 26.2417C75.8201 26.0166 74.931 25.8545 74.0502 25.6923C72.0855 25.3501 70.1039 25.152 68.1053 25.125C64.2776 25.089 60.5345 25.8364 56.9184 27.1243C55.5126 27.6286 53.9883 28.0699 52.718 28.8894C52.2523 29.1866 51.9643 30.0962 51.6086 30.5555C51.1175 31.1859 50.7618 31.8793 50.3976 32.5998C49.5593 34.2479 48.9749 35.9139 49.4576 37.7871C49.8641 39.3451 50.7618 40.678 51.6849 41.9388C52.2607 42.7223 52.8366 43.5238 53.4717 44.2623C53.9629 44.8387 54.6912 45.0818 55.1485 45.6312C55.6397 46.2256 55.7752 46.5228 56.5204 46.7929C57.0878 46.9911 57.2995 47.6125 57.8838 47.8016C58.5613 48.0177 58.8831 48.6842 59.5267 48.8913C60.3905 49.1705 61.2712 49.4316 62.152 49.6568C63.9049 50.1071 65.7003 50.3863 67.4871 50.6204C71.1032 51.0977 74.787 51.3589 78.1829 49.7558C79.8003 48.9904 80.8674 48.0898 82.053 46.7029C83.0861 45.4871 84.1532 44.3434 84.746 42.7944C85.8977 39.8315 85.6098 36.3552 84.729 33.3563C84.5258 32.6538 84.475 31.6452 84.0685 31.0508C83.7043 30.5105 83.247 29.9341 82.7982 29.4658C82.2647 28.8984 81.6126 28.4571 80.9436 28.0879C80.3 27.7277 79.6564 27.6916 78.9958 27.4125C78.1913 27.0882 77.5138 26.4488 76.667 26.2237L76.6839 26.2417ZM82.053 36.4993C81.8582 35.8419 81.8751 35.1394 81.7142 34.473C81.4602 33.3923 80.4101 32.933 79.9528 31.9964C79.7241 31.5281 79.7241 31.2399 79.1991 31.0508C78.6232 30.8437 78.5809 30.2943 78.1575 29.9341C77.6578 29.5108 76.6077 29.4748 76.667 28.5652C77.8187 28.9975 79.0212 29.2586 80.1306 29.808C80.6726 30.0782 81.2061 30.4024 81.6295 30.8617C81.9768 31.2219 82.1123 31.6902 82.5611 31.9064C82.9845 32.1135 83.0184 33.4914 83.1031 33.8966C83.2555 34.6351 83.4588 35.3736 83.6112 36.1121C83.9161 37.616 84.0092 39.075 83.7128 40.5879C83.5265 41.5155 82.9252 44.0912 81.909 44.3974C80.6641 44.7756 80.3339 46.4687 79.0128 46.91C77.6493 47.3693 76.5315 48.3509 75.1003 48.7202C73.6437 49.0984 72.1787 48.9904 70.6967 48.8733C69.8329 48.8012 69.13 48.8373 68.2832 48.9813C67.521 49.1164 66.4878 48.7022 65.7341 48.5761C64.0997 48.3059 62.5584 47.9097 61.0087 47.3063C59.4844 46.7119 58.1548 46.0725 56.9862 44.8477C55.9953 43.812 54.5811 43.0285 53.7766 41.8307C53.3447 41.1913 53.0398 40.4889 52.5656 39.8765C52.2014 39.3992 51.795 38.9579 51.524 38.4085C50.7618 36.8776 51.6086 35.3826 51.8796 33.8516C52.1337 32.3927 52.3115 31.1499 53.5733 30.2943C54.6997 29.5378 56.3426 28.9164 57.6636 28.7993C57.5705 29.754 56.766 29.3847 56.1478 29.4658C55.2416 29.5829 54.4202 30.8437 53.9968 31.6002C53.3955 32.6808 51.7018 37.3729 54.1492 37.4719C54.8775 37.499 54.2085 34.6981 54.2762 34.0857C54.3948 32.924 54.7674 31.8793 55.7498 31.2399C56.6559 30.6545 57.9854 30.8166 58.7391 30.0782C59.4844 29.3397 60.3905 29.871 61.2882 29.7089C61.0426 28.7183 59.3743 29.3217 59.3658 28.1239C61.1019 27.7006 62.8633 27.4305 64.6417 27.2864C65.7765 27.1873 74.4144 26.674 74.0926 28.5742C73.7538 29.0965 73.0848 28.6823 72.636 28.6192C71.8145 28.4931 72.3057 29.4207 72.8308 29.5648C74.4313 29.9791 76.0742 30.7626 77.4884 31.6632C78.2591 32.1495 79.0212 32.7439 79.4955 33.5724C79.7072 33.9327 79.8681 34.3289 80.0713 34.6981C80.2238 34.9863 80.571 35.0674 80.7065 35.3826C81.1214 36.3372 80.8504 38.1834 82.2054 38.3365C82.5611 37.7511 82.2139 37.0847 82.0445 36.5083L82.053 36.4993Z" fill="#95613F"/>
<path fill-rule="evenodd" clip-rule="evenodd" d="M128.282 39.3271C128.502 38.2644 128.477 37.1297 128.223 36.076C127.986 35.1034 127.52 34.1488 126.927 33.3653C126.47 32.7619 125.775 32.5998 125.327 32.0775C124.353 30.9517 122.481 30.5375 121.202 29.781C120.347 29.2766 119.585 28.5742 118.611 28.331C117.569 28.0699 116.528 27.8357 115.478 27.6376C111.709 26.9171 107.814 26.6199 103.994 26.3948C102.004 26.2777 100.141 26.5569 98.1764 26.8631C96.5674 27.1153 94.6451 26.9531 93.1546 27.7276C92.367 28.1329 91.6896 28.7813 91.0883 29.4478C90.8342 29.7269 90.5802 30.0241 90.3431 30.3213C90.2499 30.4384 89.7418 30.7176 89.691 30.8256C89.0389 32.3656 88.6917 33.7705 88.7594 35.4816C88.8018 36.4723 88.7256 37.7601 89.0304 38.6967C89.2421 39.3361 89.8858 39.8314 90.1906 40.4348C90.885 41.7857 92.3924 41.9388 92.7142 43.5688C93.0615 45.352 94.1793 45.8113 95.5089 46.7569C96.8723 47.7205 98.2526 48.6031 99.777 49.2605C103.207 50.7465 107.051 50.6294 110.684 50.2962C114.123 49.981 117.925 49.5847 121.067 47.9367C122.549 47.1622 124.243 46.2976 125.428 45.0638C125.826 44.6405 125.818 44.0281 126.317 43.722C127.02 43.2987 126.944 42.6683 127.257 41.9478C127.435 41.5425 127.664 41.5516 127.816 41.0292C127.986 40.4619 128.163 39.9035 128.29 39.3181L128.282 39.3271ZM124.276 43.812C121.473 46.3426 117.679 47.6125 114.08 48.2519C112.056 48.6121 109.998 48.8553 107.941 48.7742C107.085 48.7382 105.959 49.1615 105.18 48.8733C104.248 48.522 103.512 48.6481 102.555 48.5671C100.98 48.441 99.5145 47.2342 98.1002 46.5858C96.9739 46.0725 95.5343 45.5591 95.0261 44.2443C96.9485 44.9738 98.8793 45.6582 100.819 46.2976C101.555 46.5408 102.445 47.1351 103.241 47.0541C104.138 46.955 103.147 45.9644 102.826 45.7483C102.326 45.415 101.505 44.8927 102.707 44.9467C103.579 44.9918 104.452 45.0188 105.324 45.0998C106.111 45.1719 108.127 45.8923 108.466 44.6946C106.636 44.5595 104.799 44.4244 103.02 43.9831C101.979 43.7219 99.5145 43.1456 99.2181 41.7767C99.1588 41.5245 98.9471 40.1557 98.4982 41.0562C98.2611 41.5335 98.4982 42.0919 98.6507 42.5512C99.1588 43.9921 98.3204 44.1272 97.2872 43.4788C96.0339 42.6773 94.8398 41.7407 93.7897 40.66C92.7227 39.5703 91.1222 38.0573 90.6818 36.5083C89.945 33.9236 96.7368 34.7522 97.7615 34.7252C101.522 34.6531 105.239 33.9146 109.008 33.8426C109.998 33.8246 110.998 33.6985 111.98 33.8876C112.522 33.9867 113.217 34.1308 113.598 33.5724C113.106 32.6358 111.006 32.7439 110.159 32.6628C106.442 32.3206 102.631 32.987 98.9047 33.0771C96.8384 33.1221 94.7806 33.1491 92.7142 33.2302C92.2061 33.2482 90.3007 33.6084 90.3176 33.0321C90.3346 32.4107 90.7241 31.9244 91.1391 31.5371C92.1807 30.5735 93.2901 29.4838 94.6451 29.0785C96.2371 28.5922 97.9563 28.7453 99.5907 28.5202C100.531 28.3851 101.538 28.0519 102.487 28.1329C103.241 28.205 103.876 28.7093 104.621 28.8083C105.358 28.9074 106.078 28.6102 106.806 28.5652C107.72 28.5112 108.644 28.4841 109.558 28.5652C111.379 28.7093 113.123 29.2947 114.961 29.4207C116.646 29.5378 118.018 30.1862 119.568 30.8346C120.906 31.393 122.777 31.9964 123.726 33.2212C123.938 33.4914 124.175 33.8336 124.514 33.9146C124.776 33.9777 125.056 33.9417 125.276 34.1578C125.521 34.3919 125.606 34.7342 125.708 35.0494C125.792 35.3015 126.063 35.1845 126.182 35.3916C127.638 38.0573 126.36 41.9478 124.276 43.821L124.276 43.812Z" fill="#95613F"/>
<path fill-rule="evenodd" clip-rule="evenodd" d="M76.4805 44.4602C76.3958 44.8745 75.4897 45.1266 75.1763 45.2707C73.7621 45.9011 72.0684 45.8741 70.5694 45.784C68.8927 45.685 67.0127 45.0906 65.3698 45.5139C64.6415 45.703 64.1249 45.2437 63.4389 45.1356C62.8461 45.0366 62.2449 44.9645 61.6521 44.8564C60.7544 44.6853 59.5434 44.2891 59.5942 43.0913C61.813 43.8928 64.2519 44.8835 66.6316 44.4512C66.6739 43.6226 65.3952 43.3435 64.8447 43.1634C63.7607 42.8211 62.5752 42.2177 61.5674 41.6774C61.0508 41.3982 61.2879 40.8849 60.8137 40.5607C60.3733 40.2545 60.0515 40.2185 60.2887 39.561C60.6867 38.4533 61.7791 39.6421 62.3634 39.9123C62.1348 40.0023 61.2625 39.6601 61.2964 40.1374C62.084 41.2091 63.3627 41.6594 64.5144 42.1187C66.0981 42.7491 67.5292 43.6497 69.1891 44.0819C70.9251 44.5322 72.5849 44.5412 74.3549 44.3071C74.6682 44.2621 76.5821 43.9469 76.472 44.4602L76.4805 44.4602Z" fill="#95613F"/>
<path fill-rule="evenodd" clip-rule="evenodd" d="M110.601 45.136C109.999 45.4151 109.195 45.3161 108.898 44.6767C109.542 44.7487 110.558 44.4245 110.601 45.136Z" fill="#95613F"/>
<path fill-rule="evenodd" clip-rule="evenodd" d="M80.5707 43.0106C80.1388 42.8215 79.9864 42.2721 79.6561 41.9569C79.275 41.5787 78.5298 41.5067 78.3181 40.9393C77.9963 40.0747 77.4797 39.3002 77.124 38.4537C76.8192 37.7422 76.5312 37.0578 76.1163 36.4094C75.9046 36.0762 75.1932 34.6893 76.1163 35.2116C76.9801 35.6979 77.3188 36.9677 77.8015 37.7963C78.1402 38.3816 79.4105 41.2905 80.2912 41.0474C80.3251 39.1111 79.6222 37.4901 78.4366 36.0581C77.3273 34.7163 76.0739 33.5095 75.5912 31.7354C76.7345 31.7083 77.2595 33.3114 77.9539 34.0318C78.4282 34.5362 78.9871 34.9504 79.4359 35.4908C79.944 36.0852 79.9694 36.7336 80.2912 37.418C80.4267 37.7152 80.7316 37.8773 80.884 38.2015C81.0365 38.5347 81.1635 38.886 81.2651 39.2462C81.4684 39.9937 81.5869 40.7952 81.5361 41.5787C81.4938 42.2451 81.4091 43.3709 80.5622 43.0106L80.5707 43.0106Z" fill="#95613F"/>
<path fill-rule="evenodd" clip-rule="evenodd" d="M107.831 41.2813C108.551 41.5604 109.465 41.7766 109.965 42.407C108.906 42.488 108.186 41.7406 107.246 41.4163C106.62 41.2002 105.663 41.2813 105.273 40.5968C106.23 40.4077 106.984 40.939 107.831 41.2813Z" fill="#95613F"/>
<path fill-rule="evenodd" clip-rule="evenodd" d="M67.9189 41.2815C67.3516 41.2815 66.6571 41.4076 66.6317 40.8222C67.1991 40.8222 67.8851 40.6962 67.9189 41.2815Z" fill="#95613F"/>
<path fill-rule="evenodd" clip-rule="evenodd" d="M65.7757 41.0474C65.1236 41.2095 64.9966 40.8133 64.497 40.8223C64.3699 39.9397 65.9027 40.4891 65.7757 41.0474Z" fill="#95613F"/>
<path fill-rule="evenodd" clip-rule="evenodd" d="M121.702 38.5527C121.008 38.0303 117.205 36.4723 117.646 35.3736C119.416 35.8419 121.516 36.6795 122.938 37.9223C123.582 38.4896 123.929 39.2641 123.624 40.1377C122.701 40.0296 122.388 39.057 121.702 38.5527Z" fill="#95613F"/>
<path fill-rule="evenodd" clip-rule="evenodd" d="M109.11 39.9125C108.433 39.9306 102.691 39.6964 102.92 38.3275C105.706 38.4626 108.45 39.102 111.244 39.2371C111.049 40.1197 109.898 39.9035 109.11 39.9125Z" fill="#95613F"/>
<path fill-rule="evenodd" clip-rule="evenodd" d="M97.5842 39.2367C97.3302 37.7688 96.4325 36.9763 96.0938 35.6074C97.0422 35.7965 97.5842 36.562 97.8383 37.4896C97.9399 37.8408 98.3379 39.3538 97.5842 39.2367Z" fill="#95613F"/>
<path fill-rule="evenodd" clip-rule="evenodd" d="M65.3525 37.1929C64.8021 37.7062 64.023 36.9857 63.5911 36.6345C63.337 36.4364 63.0576 36.2833 62.7442 36.1932C62.3208 36.0671 62.0668 35.6799 61.6857 35.4728C60.788 34.9864 59.9412 34.4011 59.0435 33.9057C58.4253 33.5635 57.7139 33.1583 57.4429 32.4198C58.2559 32.0596 59.3738 33.3474 60.0682 33.7076C61.2622 34.329 62.4817 34.8964 63.6334 35.5988C64.294 35.9951 65.0731 36.4544 65.3441 37.1839L65.3525 37.1929Z" fill="#95613F"/>
<path fill-rule="evenodd" clip-rule="evenodd" d="M62.5836 33.1039C63.0155 33.3921 63.5575 33.3381 63.9724 33.6623C64.3281 33.9415 64.6668 34.3287 64.9971 34.6529C65.2766 34.9231 65.7339 35.6436 65.0395 35.6436C64.5483 35.6436 64.1672 35.3103 63.8285 34.9771C63.1933 34.3557 62.3719 34.0495 61.7621 33.4281C61.5081 33.167 61.3048 32.7977 61.5166 32.4285C62.067 32.0773 62.211 32.8698 62.5836 33.1129L62.5836 33.1039Z" fill="#95613F"/>
<path fill-rule="evenodd" clip-rule="evenodd" d="M71.3317 34.4639C71.0861 36.9855 66.8095 33.5994 65.9711 33.05C65.319 32.6177 64.1335 31.9963 64.0742 31.0597C64.6416 30.8346 65.6409 31.7712 65.9965 31.2849C65.3275 29.88 63.312 29.907 62.372 28.7903C64.523 29.4477 66.6825 30.1051 68.7996 30.8796C69.9429 31.2939 71.0607 31.7802 72.1955 32.2305C72.9407 32.5277 73.8553 32.8969 74.1094 33.7885C72.9068 33.7885 71.9076 32.8249 70.6966 32.8789C70.9845 33.3652 71.4249 33.8425 71.3402 34.4639L71.3317 34.4639Z" fill="#95613F"/>
<path fill-rule="evenodd" clip-rule="evenodd" d="M67.3767 13.8406C67.4952 13.2823 67.546 12.7149 67.5122 12.1475C67.4613 11.0938 67.1141 10.0852 66.4367 9.3107C65.014 7.68965 62.7867 7.26638 60.9406 6.42884C59.7804 5.89749 58.815 5.24007 57.5362 5.09598C56.4692 4.98791 55.4445 4.46557 54.369 4.46557C51.9555 4.46557 49.6097 4.01528 47.2047 4.00628C45.24 4.00628 43.2837 4.15037 41.3444 4.50159C39.7185 4.79878 38.1772 5.47422 36.5682 5.78042C35.6536 5.96053 34.8491 5.93351 34.0869 6.58193C33.6974 6.90614 32.7235 7.06824 32.5287 7.48251C31.9952 8.60824 30.2591 9.03151 29.9966 10.3464C29.8611 11.0218 29.9966 11.7242 29.7849 12.3907C29.5817 13.0301 28.9973 12.9941 28.7179 13.5254C28.142 14.6241 28.8957 16.5333 29.1413 17.6411C29.9204 21.1353 31.8936 24.1342 34.2224 26.7099C35.3572 27.9617 37.0932 28.8713 38.6769 29.2045C40.1419 29.5197 42.0558 29.8259 43.5293 29.4387C44.3508 29.2225 45.2146 29.0604 46.036 28.8263C46.7389 28.6281 47.3317 28.0698 48.043 27.8356C48.7544 27.6105 49.3048 27.2683 49.94 26.872C50.5751 26.4668 51.3204 26.2956 51.9809 25.9264C53.5137 25.0618 54.8771 24.2243 56.52 23.6119C57.2822 23.3237 57.6209 22.6213 58.2222 22.1079C58.7811 21.6396 59.4247 21.3064 60.0345 20.9192C61.3979 20.0366 62.4649 18.7668 63.913 18.0193C64.5821 17.6681 65.4035 17.3529 65.954 16.7945C66.3774 16.3622 66.4197 15.7228 66.6484 15.1735C66.877 14.6421 67.2581 14.471 67.3851 13.8406L67.3767 13.8406ZM65.2426 14.5431C64.8361 15.3086 63.8876 15.8669 63.2864 16.4793C62.6851 17.0827 61.906 17.4339 61.237 17.9293C60.3647 18.5777 59.3824 19.046 58.5186 19.7124C57.8242 20.2437 57.3753 20.8741 56.5878 21.3244C55.6139 21.8738 54.5892 22.2971 53.5899 22.7834C52.7854 23.1706 52.1757 23.792 51.3712 24.1883C47.6704 26.0165 43.5717 28.484 39.3374 27.3673C37.3812 26.854 35.6367 25.4401 34.2648 23.9091C33.6974 23.2787 33.2655 22.252 32.588 21.8017C31.9444 21.3785 31.5718 19.7214 31.2076 19.0279C33.0114 18.9739 33.3163 17.488 32.2323 16.1461C31.3008 14.9843 32.3255 12.7509 32.8166 11.5531C34.2648 8.00485 37.6183 7.3024 40.8363 6.56392C42.7756 6.11363 44.7657 5.78042 46.7558 5.85246C48.585 5.92451 50.3973 6.23972 52.218 6.36579C54.1234 6.50088 56.0797 6.65399 57.9427 7.12229C58.5271 7.26638 58.815 7.74368 59.4163 7.90579C59.899 8.03187 60.5341 8.21199 60.6527 8.81538C54.8602 8.51818 48.9915 7.34743 43.2414 8.71631C40.8956 9.27467 38.1518 9.76999 36.2464 11.4271C35.7383 11.8683 34.468 12.895 34.7813 13.7325C35.2132 14.9123 36.1617 13.2552 36.4412 12.895C37.1186 12.0214 38.516 11.6072 39.4898 11.319C40.7686 10.9407 42.0389 10.5175 43.3261 10.2023C46.163 9.49982 48.9238 9.71595 51.8031 9.76999C54.64 9.81502 57.4007 9.54485 60.1276 10.5625C61.11 10.9317 62.1008 11.4901 63.1255 11.7333C64.0316 11.9494 64.2602 10.5715 64.9293 10.8597C66.3181 11.355 65.7676 13.5614 65.2426 14.5431Z" fill="#95613F"/>
<path fill-rule="evenodd" clip-rule="evenodd" d="M118.924 17.8931C119.416 16.5242 119.509 15.4886 119.136 14.0206C118.772 12.5887 118.12 11.3099 117.265 10.1481C116.46 9.04042 115.791 7.75259 114.876 6.74394C114.089 5.87938 113.056 5.285 112.167 4.55553C111.032 3.61892 109.948 3.40279 108.669 2.82642C107.551 2.32209 106.594 1.81777 105.366 1.63765C102.589 1.24139 99.7602 1.03426 96.9571 0.836133C95.1194 0.701046 93.087 0.565958 91.3086 1.16034C90.5634 1.4125 89.8435 1.63765 89.0814 1.80876C88.387 1.95285 88.1414 2.43016 87.5486 2.70033C85.7532 3.50185 84.0765 4.01518 82.4759 5.23096C81.8154 5.73528 81.2395 6.33867 80.6213 6.88803C80.0963 7.35633 79.5882 7.67154 79.2918 8.34697C78.97 9.09445 78.1485 9.40965 77.6319 9.97702C77.1154 10.5354 76.7173 11.2108 76.3955 11.9133C75.718 13.3902 75.2523 15.1283 75.3116 16.7854C75.3454 17.659 75.5487 18.6766 76.26 19.226C76.7851 19.6312 77.4626 19.5502 78.0215 19.8744C78.5381 20.1806 78.8175 20.766 79.1817 21.2343C79.6474 21.8377 80.3419 22.2159 80.9601 22.6031C82.4505 23.5127 83.8902 24.4944 85.55 25.0437C87.2352 25.5931 89.0052 25.6831 90.7581 25.6651C92.6212 25.6471 94.569 25.9713 96.4151 25.8272C98.1088 25.6921 99.811 25.2419 101.454 24.8366C103.232 24.4043 104.892 23.7469 106.628 23.1975C108.212 22.6932 109.999 22.8193 111.642 22.7563C113.124 22.7022 115.122 22.9724 116.333 21.8917C117.502 20.847 118.374 19.4241 118.916 17.9111L118.924 17.8931ZM117.4 17.8481C116.943 18.8297 116.172 20.0365 115.173 20.4508C113.877 20.9821 112.336 20.865 110.972 20.8921C107.255 20.9821 103.817 22.5311 100.226 23.3326C98.2613 23.7739 96.2711 23.8189 94.2726 23.8369C92.4773 23.855 90.665 23.945 88.8697 23.7739C86.9981 23.5938 85.2621 23.0895 83.6276 22.1078C82.3997 21.3694 80.7314 20.6309 79.8846 19.4151C79.0292 18.1903 77.3271 16.8845 77.1492 15.3175C76.9714 13.6784 77.9114 12.2105 78.8345 11.0127C79.9184 9.60778 80.8246 7.9417 82.3066 6.96908C83.3313 6.30265 84.3983 5.52815 85.4992 5.04184C87.2014 4.29436 88.9289 3.24068 90.7073 2.75437C92.3756 2.30408 94.1794 2.40314 95.8816 2.47519C102.623 2.75437 110.702 3.40279 115.08 9.72486C116.536 11.8142 118.662 15.1373 117.392 17.8391L117.4 17.8481Z" fill="#95613F"/>
<path fill-rule="evenodd" clip-rule="evenodd" d="M94.383 21.3066C94.7556 21.3066 95.0774 21.5588 95.45 21.5317C96.263 21.4777 97.0252 21.0724 97.8381 21.0634C98.6257 21.0544 99.4133 21.1085 100.167 20.8473C100.658 20.6852 101.463 20.2349 101.844 20.8473C98.1599 22.1081 94.2729 22.4863 90.4367 21.955C88.6667 21.7028 86.8206 21.2976 85.3132 20.2259C84.7204 19.8026 82.5779 17.9654 83.2723 16.9928C85.762 20.0818 89.5644 21.3696 93.299 21.5317C93.6716 21.5498 93.9934 21.3066 94.366 21.3066L94.383 21.3066Z" fill="#95613F"/>
<path fill-rule="evenodd" clip-rule="evenodd" d="M56.3927 17.443C56.1132 17.7672 56.3334 18.4247 55.893 18.6228C55.4103 18.8299 54.3433 18.6858 53.9876 19.0821C53.5473 19.5774 53.3186 19.4693 52.7004 19.4423C51.9383 19.4153 51.3116 20.0637 50.5494 20.1177C49.9481 20.1628 49.3638 20.0637 48.7795 20.2438C48.0512 20.46 47.5685 20.6221 46.8063 20.442C45.7986 20.2078 44.1218 21.1894 43.385 19.9286C44.5537 19.3342 46.1881 19.7665 47.4584 19.5144C48.788 19.2622 50.2191 19.0821 51.5233 18.7309C52.8867 18.3616 54.2163 17.8663 55.512 17.2989C56.1386 17.0288 56.7568 16.7136 57.2734 16.2362C57.7223 15.822 58.1626 15.3447 58.7469 15.1556C58.7978 16.5785 57.0871 16.6145 56.4012 17.425L56.3927 17.443Z" fill="#95613F"/>
<path fill-rule="evenodd" clip-rule="evenodd" d="M100.362 16.083C98.1006 16.4343 95.8056 16.4163 93.536 16.2451C92.4944 16.1731 91.4443 15.957 90.4111 15.9119C89.8353 15.8849 88.7428 16.074 88.4126 15.3986C90.7075 15.0023 93.0448 15.1284 95.3568 15.3716C96.2883 15.4706 97.2114 15.6688 98.1514 15.6328C98.8797 15.5967 99.862 15.3356 100.37 16.083L100.362 16.083Z" fill="#95613F"/>
<path fill-rule="evenodd" clip-rule="evenodd" d="M51.9048 13.3542C50.914 13.5794 49.9147 13.7144 48.9323 13.9576C48.2548 14.1197 47.1878 14.597 46.5696 14.0387C47.1878 13.6154 47.9669 13.6424 48.6698 13.5343C49.4658 13.4173 49.9994 12.7868 50.6684 12.3906C51.4559 11.9223 52.4129 12.1114 53.2767 12.0754C53.9711 12.0484 54.9111 11.2829 55.5293 11.535C55.0889 12.9219 53.0226 13.093 51.8963 13.3542L51.9048 13.3542Z" fill="#95613F"/>
<path fill-rule="evenodd" clip-rule="evenodd" d="M97.5841 13.8134C97.7196 13.8044 97.8382 13.7774 97.7958 13.5883C98.8628 13.4172 97.7111 14.633 97.5841 13.8134Z" fill="#95613F"/>
<path fill-rule="evenodd" clip-rule="evenodd" d="M110.6 13.3544C108.661 11.7244 106.349 10.7337 104.147 9.58101C103.004 8.97762 101.836 8.41926 100.608 8.04101C99.6761 7.75283 100.083 9.00464 99.3881 9.23879C98.3465 9.59001 96.9238 9.23878 95.8483 9.22077C94.578 9.20276 93.4432 9.70708 92.2068 9.7341C90.945 9.76112 89.7933 9.75212 88.5654 10.1033C87.2019 10.4906 85.9063 11.067 84.5682 11.5353C84.8054 8.67141 89.8441 8.37423 91.7326 8.20312C93.5025 8.05002 95.4164 7.87891 97.1863 8.15809C97.9231 8.27516 98.5074 8.50932 99.2611 8.30218C99.8709 8.14008 99.5829 7.78885 99.9386 7.52768C100.557 7.05938 102.132 7.59072 102.75 7.77084C104.351 8.23914 105.977 8.88756 107.484 9.62604C108.729 10.2474 110.169 10.9409 111.176 11.9675C111.566 12.3638 111.922 12.9041 111.786 13.5075C111.634 14.219 110.922 13.5976 110.617 13.3454L110.6 13.3544Z" fill="#95613F"/>
<path fill-rule="evenodd" clip-rule="evenodd" d="M95.873 85.5357C95.2972 85.4727 94.6536 86.4813 94.1709 85.7609C94.7213 85.7969 95.6021 85.0314 95.873 85.5357Z" fill="#95613F"/>
<path fill-rule="evenodd" clip-rule="evenodd" d="M24.3741 62.1567C23.5611 62.1477 23.1207 61.3462 22.6465 60.7789C21.9182 59.9143 21.0883 59.1398 20.3685 58.2572C19.6656 57.3927 19.005 56.4921 18.4376 55.5195C18.1751 55.0782 17.938 54.6189 17.7263 54.1416C17.5315 53.7183 17.0827 53.5472 16.9048 53.1599C16.8625 52.9888 16.9387 52.8898 17.125 52.8537C17.2859 53.0969 17.4468 53.3401 17.6247 53.5742C17.9719 54.0425 18.3445 54.4838 18.7256 54.9161C19.4962 55.7806 20.3177 56.6002 21.0968 57.4467C21.8335 58.2572 22.3247 59.0497 22.8751 59.9953C23.2986 60.7158 24.4418 61.1931 24.3825 62.1567L24.3741 62.1567Z" fill="#95613F"/>
<path fill-rule="evenodd" clip-rule="evenodd" d="M13.9149 56.7082C14.1012 57.0594 13.9149 57.5007 14.1266 57.8429C14.5585 58.5184 15.7695 58.8426 15.4053 59.6621C13.9995 58.3563 12.8563 56.7712 12.2042 54.6729C12.9156 54.5918 13.0172 55.5735 13.1866 56.0868C13.3136 56.447 13.7455 56.402 13.9064 56.7082L13.9149 56.7082Z" fill="#95613F"/>
<path fill-rule="evenodd" clip-rule="evenodd" d="M86.9138 7.68053C87.2865 7.52743 87.9724 6.56381 88.4043 7.23024C87.9216 7.26626 86.9985 7.97772 86.9138 7.68053Z" fill="#95613F"/>
</g>
</svg>
