<?xml version="1.0" encoding="UTF-8"?><svg id="Layer_1" xmlns="http://www.w3.org/2000/svg" viewBox="0 0 973.42 965.11"><defs><style>.cls-1{fill:#94603c;}.cls-2{fill:#bd7b4f;}</style></defs><path class="cls-2" d="M972.18,476.11c-1.65-1.66-3.61-3.31-6.92-1.66,0,0-27.98,10.23-55.8,3.31-10.53-1.65-19.1-6.92-27.83-12.18-13.99-8.57-26.17-15.64-47.08-17.3-13.99-1.8-26.17,5.11-34.9,10.38-10.38,5.11-19.25,10.38-29.63,8.72-19.25-3.61-31.29-12.33-43.47-19.25-10.68-5.26-20.91-12.33-34.9-15.64-12.03-3.31-22.56-3.31-31.29-3.31,22.56-13.69,39.86-12.03,59.11-10.38,13.84,1.96,27.83,1.96,43.47-1.65,26.17-7.07,33.24-22.71,40.16-34.9,5.26-8.88,8.72-15.94,15.64-19.25,10.38-5.26,19.25-3.61,29.63-3.61,10.38,1.96,22.56,1.96,38.21-3.31,36.7-12.33,47.08-54.15,47.08-55.8s-1.96-5.26-3.61-6.92c-1.66-1.65-5.26-1.65-6.92,0,0,0-22.71,20.91-50.54,24.22-10.38,1.66-20.91,0-31.29-1.65-15.64-1.65-31.29-5.26-50.54,1.65-13.84,3.31-20.91,13.84-27.83,22.56-6.92,8.87-13.69,17.6-24.22,19.25-19.25,5.26-33.09,1.66-47.08,0-12.03-1.65-24.22-4.96-38.21-1.65-10.53,1.8-19.1,5.41-27.83,8.72,15.64-20.91,31.44-26.02,48.74-31.29,12.03-3.31,26.02-6.92,38.21-17.3,20.61-15.79,22.56-33.09,24.22-47.08,0-8.57,1.66-15.64,6.92-22.56,8.87-8.72,15.79-12.33,26.17-15.64,10.68-3.61,22.71-8.88,34.9-19.25,27.83-26.17,22.56-67.99,22.56-69.64,0-1.96-1.96-5.26-5.26-5.26-3.61,0-5.26,0-6.92,3.31,0,1.65-12.33,27.83-36.55,41.82-10.38,5.11-19.25,8.72-29.63,10.38-13.84,3.61-29.48,6.92-45.13,20.91-12.03,8.72-13.99,20.91-17.3,31.29-1.8,10.53-5.26,19.25-13.99,26.17-15.64,10.38-29.48,13.99-43.47,17.3-12.33,3.61-24.37,5.26-36.55,13.99-10.23,7.07-18.95,12.33-24.22,19.25,5.26-26.17,19.1-36.55,33.09-48.74,10.38-8.72,20.91-17.3,29.63-31.29,13.69-24.37,6.62-40.01,3.31-54-1.65-8.57-4.96-15.49-1.65-24.22,5.26-12.03,12.33-17.3,19.25-24.22,6.92-8.72,17.3-15.64,24.22-31.29,17.3-34.9-3.61-71.45-5.26-73.1-1.65-3.31-3.61-3.31-6.92-3.31-3.61,1.65-5.26,3.61-5.26,6.92,0,0-1.96,29.63-19.25,52.19-6.92,8.72-13.84,13.99-22.56,20.91-12.18,8.72-24.37,19.25-33.09,36.55-6.92,13.99-5.26,26.17-3.61,36.55,1.96,10.38,1.96,19.1-3.31,29.63-10.53,15.79-20.91,24.37-33.09,33.09-8.57,6.92-19.1,13.99-27.83,26.17-7.07,8.88-10.68,17.45-13.99,26.17-3.46-24.52,3.46-40.16,12.18-55.81,5.26-12.33,12.33-24.52,13.99-40.16,3.61-26.32-8.57-40.16-17.3-50.54-5.11-6.92-10.38-12.18-10.38-20.91,0-12.33,3.46-20.91,8.72-29.63,5.26-10.38,10.53-20.61,12.18-38.21,1.8-38.21-31.44-62.72-33.09-64.38-1.65-1.66-5.26-1.66-6.92,0-1.65,1.65-3.31,3.61-1.65,6.92,0,0,10.23,27.98,3.31,55.8-3.61,10.53-8.72,19.1-13.99,27.83-8.87,13.99-15.94,26.17-17.6,47.08-1.81,13.99,5.11,26.17,10.38,34.9,5.11,10.38,10.38,19.25,8.72,29.63-3.61,19.25-12.33,31.29-19.25,43.47-5.11,10.68-12.33,20.91-15.64,34.9-3.61,12.03-3.61,22.56-3.61,31.29-13.69-22.56-12.03-39.86-10.38-59.11,1.96-13.84,1.96-27.83-1.66-43.47-7.07-26.17-22.71-33.24-34.9-40.16-8.72-5.26-15.94-8.72-19.25-15.64-5.26-10.38-3.61-19.25-3.61-29.63,1.96-10.38,1.96-22.56-3.31-38.21-12.33-36.7-54.15-47.08-55.8-47.08s-5.26,1.96-6.92,3.61-1.66,5.26,0,6.92c0,0,20.61,22.71,24.22,50.54,1.65,10.38,0,20.91-1.65,31.29-1.96,15.64-5.26,31.29,1.65,50.54,3.31,13.84,13.84,20.91,22.56,27.83,8.87,6.92,17.6,13.84,19.25,24.22,5.26,19.25,1.65,33.09,0,47.08-1.65,12.03-4.96,24.22-1.65,38.21,1.8,10.53,5.41,19.1,8.72,27.83-20.91-15.64-26.02-31.44-31.29-48.74-3.31-12.03-6.92-26.02-17.3-38.21-15.79-20.91-33.09-22.56-47.08-24.22-8.57,0-15.64-1.66-22.56-6.92-8.72-8.87-12.33-15.79-15.64-26.17-3.61-10.68-8.87-22.71-19.25-34.9-26.17-27.83-67.99-22.56-69.64-22.56s-5.26,1.66-5.26,5.26c-1.66,3.61,0,5.26,3.61,6.92,0,0,26.17,12.33,40.16,29.63,5.26,10.38,8.87,19.25,10.53,29.63,3.61,13.84,6.92,29.48,20.91,45.12,8.72,12.03,20.91,13.99,31.29,17.3,10.53,1.8,19.25,5.26,26.17,13.99,10.38,15.64,13.99,29.48,17.3,43.47,3.46,12.33,5.26,24.37,13.99,36.55,7.07,10.23,12.33,18.95,19.25,24.22-26.17-5.26-36.55-19.1-48.74-33.09-8.72-10.38-17.3-20.91-31.29-29.63-24.37-13.69-40.01-6.92-54-3.31-8.57,1.65-15.49,4.96-24.22,1.65-12.03-5.26-17.3-12.33-24.22-19.25-8.72-6.92-15.64-17.3-31.29-24.22-34.9-17.3-71.45,3.61-73.1,5.26-3.31,1.65-3.31,3.61-3.31,6.92,1.65,3.61,3.61,5.26,6.92,5.26,0,0,29.63,1.96,52.19,19.25,8.72,6.92,13.99,13.84,20.91,22.56,8.72,12.18,19.25,24.37,36.55,33.09,13.99,6.92,26.17,4.96,36.55,3.31,10.38-1.65,19.25-1.65,29.63,3.61,15.79,10.53,24.37,20.91,33.09,33.09,6.92,8.57,13.99,19.1,26.17,27.83,8.88,7.07,17.45,10.68,26.17,13.99-24.52,3.46-40.16-3.46-55.81-12.18-12.33-5.26-24.52-12.33-40.16-13.99-26.32-3.61-40.16,8.57-50.54,17.3-6.92,5.11-12.18,10.38-20.91,10.38-12.33,0-20.91-3.46-29.63-8.72-10.38-5.26-20.91-10.53-38.21-12.18-39.86-1.8-64.38,31.44-66.03,33.09s-1.65,5.26,0,6.92c1.66,1.65,3.31,3.31,6.92,1.65,0,0,27.98-10.23,55.81-3.31,10.53,1.81,19.1,6.92,27.83,12.18,13.99,8.57,26.17,15.64,47.08,17.3,13.99,1.8,26.17-5.11,34.9-10.38,10.38-5.11,17.45-10.38,29.63-8.72,19.25,3.61,31.29,12.33,43.47,19.25,10.68,5.26,20.91,12.33,34.9,15.64,12.03,3.31,22.56,3.31,31.29,3.31-22.56,13.84-39.86,12.18-59.11,10.53-13.84-1.66-27.83-1.66-43.47,1.65-26.17,7.07-33.24,22.71-40.16,34.9-5.26,8.87-8.72,15.94-15.64,19.25-10.38,5.26-19.25,3.61-29.63,3.61-10.38-1.96-22.56-1.96-38.21,3.31-36.7,12.33-47.08,54.15-47.08,55.8s1.66,5.26,3.31,6.92c1.65,1.66,5.26,1.66,6.92,0,0,0,22.71-20.91,50.54-24.22,10.38-1.65,20.91,0,31.29,1.66,15.64,1.65,31.29,5.26,50.54-1.66,13.84-3.31,20.91-13.84,27.83-22.56,6.92-8.87,13.84-17.6,24.22-19.25,19.25-5.26,33.09-1.65,47.08,0,12.03,1.66,24.22,5.26,38.21,1.66,10.53-1.81,19.1-5.42,27.83-8.72-15.64,20.91-31.44,26.02-48.74,31.29-12.03,3.31-26.02,6.92-38.21,17.3-20.91,15.79-22.56,33.09-24.22,47.08,0,8.57-1.65,15.64-6.92,22.56-8.87,8.72-15.79,12.33-26.17,15.64-10.68,3.61-22.71,8.72-34.9,19.25-27.83,26.17-22.56,67.99-22.56,69.64s1.96,5.26,5.26,5.26c3.61,0,5.26,0,6.92-3.61,0-1.65,12.33-27.83,36.55-41.82,10.38-5.11,19.25-8.72,29.63-10.38,13.84-3.61,29.48-6.92,45.13-20.91,12.03-8.72,13.69-20.91,17.3-31.29,1.8-10.53,5.26-19.25,13.99-26.17,15.64-10.38,29.48-13.99,43.47-17.3,12.33-3.46,24.37-5.26,36.55-13.99,10.23-7.07,18.95-12.33,24.22-19.25-5.26,26.17-19.1,36.55-33.09,48.74-10.38,8.72-20.91,17.3-29.63,31.29-13.84,24.37-6.62,40.01-3.31,54,1.65,8.57,5.26,15.49,1.65,24.22-5.26,12.03-12.33,17.3-19.25,24.22-6.92,8.72-17.3,15.64-24.22,31.29-17.3,34.9,3.61,71.45,5.26,73.1,1.65,3.61,3.31,3.61,6.92,3.61s5.26-1.96,5.26-5.26c0,0,1.96-29.63,19.25-52.19,6.92-8.72,13.84-13.99,22.56-20.91,12.18-8.72,24.37-19.25,33.09-36.55,6.92-13.99,4.96-26.17,3.31-36.55-1.65-10.38-1.65-19.25,3.61-29.63,10.53-15.79,20.91-24.37,33.09-33.09,8.57-6.92,19.1-13.99,27.83-26.17,7.07-8.87,10.38-17.45,13.99-26.17,3.46,24.52-3.46,40.16-12.18,55.8-5.26,12.33-12.33,24.52-13.99,40.16-3.61,26.32,8.57,40.16,17.3,50.54,5.26,6.92,10.53,12.18,10.53,20.91,0,12.33-3.46,20.91-8.72,29.63-5.26,10.38-10.53,20.91-12.18,38.21-3.61,39.86,29.63,64.38,31.29,66.03,0,1.66,1.66,1.66,3.31,1.66s3.61,0,3.91-.75c1.65-1.65,3.31-3.31,1.65-6.92,0,0-10.53-27.98-3.61-55.8,3.61-10.23,8.72-19.1,13.99-27.83,8.57-13.99,15.64-26.17,17.3-47.08,1.8-13.99-5.11-26.17-10.38-34.9-5.42-10.38-10.38-19.25-8.72-29.63,3.61-19.25,12.33-31.29,19.25-43.47,5.26-10.68,12.33-20.91,15.64-34.9,3.61-12.03,3.61-22.56,3.61-31.29,13.69,22.56,12.03,39.86,10.38,59.11-1.96,13.84-1.96,27.83,1.65,43.47,7.07,26.17,22.71,33.24,34.9,40.16,8.87,5.26,15.94,8.72,19.25,15.64,4.96,10.38,3.31,19.25,3.31,29.63-1.96,10.38-1.96,22.56,3.31,38.21,12.33,36.7,54.15,47.08,55.8,47.08,3.46,0,5.11,0,10.38-3.31,1.65-1.65,1.65-5.26,0-6.92,0,0-20.61-22.71-24.22-50.54-1.65-10.38,0-20.91,1.66-31.29,1.96-15.64,5.26-31.29-1.66-50.54-3.31-13.84-13.84-20.91-22.56-27.83-8.88-6.92-17.6-13.84-19.25-24.22-5.26-19.25-1.66-33.09,0-47.08,1.65-12.03,5.26-24.22,1.65-38.21-1.8-10.23-5.42-19.1-8.72-27.83,20.76,15.64,26.02,31.44,31.29,48.74,3.31,12.03,6.92,26.02,17.3,38.21,15.79,21.21,33.09,22.86,47.08,24.52,8.57,0,15.64,1.65,22.56,6.92,8.72,8.87,12.33,15.79,15.64,26.17,3.61,10.68,8.72,22.71,19.25,34.9,26.17,27.83,67.99,22.56,69.64,22.56,1.96,0,5.26-1.96,5.26-5.26s0-5.26-3.31-6.92c-1.65,0-27.83-12.33-41.82-36.55-5.11-10.38-8.72-19.1-10.38-29.63-3.61-13.84-6.92-29.48-20.91-45.13-8.72-10.38-20.91-12.33-31.29-15.64-10.53-1.8-19.25-5.26-26.17-13.99-10.38-15.64-13.99-29.48-17.3-43.47-3.61-12.33-5.26-24.37-13.99-36.55-7.07-10.23-12.33-18.95-19.25-24.22,26.17,5.26,36.55,19.1,48.74,33.09,8.72,10.38,17.3,20.91,31.29,29.63,24.37,13.99,40.01,6.92,54,3.61,8.57-1.66,15.49-4.96,24.22-1.66,12.03,5.26,17.3,12.33,24.22,19.25,8.72,6.92,15.64,17.3,31.29,24.22,34.9,17.3,71.45-3.61,73.1-5.26,3.61-1.65,3.61-3.61,3.61-6.92-1.65-3.61-3.61-5.26-6.92-5.26,0,0-29.63-1.96-52.19-19.25-8.72-6.92-13.99-13.84-20.91-22.56-8.72-12.18-19.25-24.37-36.55-33.09-13.99-6.92-26.02-5.26-36.55-3.61-10.38,1.96-19.25,1.96-29.63-3.31-15.79-10.53-24.37-20.91-33.09-33.09-6.92-8.57-13.99-19.1-26.17-27.83-8.57-7.07-17.45-10.68-26.17-13.99,24.52-3.46,40.16,3.46,55.81,12.18,12.33,5.26,24.52,12.33,40.16,13.99,26.32,3.61,40.16-8.57,50.54-17.3,6.92-5.11,12.18-10.38,20.91-10.38,12.33,0,20.91,3.46,29.63,8.72,10.38,5.26,20.91,10.53,38.21,12.18,39.86,1.8,64.38-31.44,66.03-33.09,1.65-1.65,1.65-5.26,0-6.92Zm-316.63-98.37c12.33-1.96,22.71,0,34.9,1.65,13.99,1.66,31.29,5.26,52.19,0,15.64-3.31,24.37-13.84,31.29-24.22,5.26-8.87,12.18-15.94,20.91-19.25,15.64-5.26,29.48-3.31,43.47-1.65,12.33,1.65,22.71,3.31,34.9,1.65,13.99-1.65,26.17-6.92,36.55-12.18-5.42,8.57-15.64,18.95-29.63,24.22-13.99,4.96-24.52,3.31-34.9,3.31s-22.56-1.65-36.55,5.26c-12.03,4.96-17.3,15.49-22.56,24.22-5.11,10.53-12.03,22.56-31.29,27.83-13.99,3.31-26.02,3.31-38.21,1.65-23.54-3.32-50.14-5.1-84.58,25.66-4.66-14.08-11.29-27.26-19.57-39.21,8.49-7.8,20.71-14.08,43.08-18.94Zm-54-55.65c8.72-6.92,19.1-8.87,31.29-12.18,15.64-3.61,31.44-7.07,48.74-19.25,12.33-10.68,15.94-22.71,19.25-34.9,1.8-10.53,5.26-19.25,12.18-26.17,12.33-10.38,26.17-13.69,40.16-17.3,10.38-3.46,20.91-5.26,31.29-12.18,12.33-6.92,22.71-17.45,29.63-26.17-1.66,12.33-5.11,24.52-17.3,34.9-12.03,8.72-22.56,12.33-31.29,15.64-10.38,3.61-20.91,8.72-31.29,19.25-8.72,10.38-8.72,20.91-10.38,31.29-1.96,13.99-3.61,26.02-19.25,38.21-10.68,8.72-22.71,12.33-34.9,15.64-23.43,8.48-46.59,15.34-66.85,55.33-9.64-11.26-20.87-21.11-33.36-29.21,6.63-11.78,15.3-22.28,32.07-32.89Zm-74.76-34.75c4.96-8.57,13.84-15.64,24.22-22.56,12.33-8.72,24.37-17.3,36.55-36.55,8.87-12.03,6.92-26.02,5.26-38.21-1.96-8.57-3.61-19.1,1.65-27.83,7.07-15.79,17.45-24.37,29.63-33.09,8.57-5.26,17.3-12.18,24.22-22.56,8.57-10.68,13.99-24.37,17.3-34.9,1.96,10.38,3.61,24.22-3.31,38.21-6.92,12.18-15.64,19.25-22.56,26.17-8.57,8.72-17.3,15.64-17.3,31.29-5.26,12.18-1.96,22.71,1.65,33.09,5.26,13.84,8.72,26.17-1.65,43.47-6.92,12.18-15.79,19.1-26.17,27.83-17.89,16.07-37.19,32.29-41.17,75.03-14.01-7.07-29.25-12.07-45.31-14.58,1.6-11.66,3.86-25.19,16.99-44.81Zm-80.32,.15c1.8-12.03,7.07-20.91,13.99-31.29,8.72-12.18,17.3-26.17,20.91-47.08,1.8-15.64-5.11-27.83-10.38-38.21-5.42-8.87-8.72-15.79-8.72-26.17,0-17.6,7.07-27.98,19.25-40.16,5.26-10.38,10.68-19.1,13.99-31.29,3.31-15.94,3.31-29.78,1.65-40.16,6.92,8.72,13.84,20.91,12.18,36.55-1.66,13.84-5.11,24.37-10.38,33.09-3.46,8.72-8.72,19.25-8.72,34.9,0,12.33,7.07,20.91,13.99,29.63,8.72,10.53,17.6,19.25,13.99,40.16-1.8,13.99-8.72,24.37-13.99,36.55-11.67,21.76-23.19,43.4-8.93,86.57-3.13-.19-6.29-.3-9.47-.3-13.35,0-26.31,1.7-38.67,4.9-2.96-13.93-5.45-27.32-.7-47.7Zm-95.67-88.75c-8.88-5.26-15.94-12.18-19.25-20.91-4.96-15.64-3.31-29.48-1.65-43.47,1.65-12.33,3.31-22.71,1.65-34.9-1.8-13.99-6.92-26.17-12.18-36.55,8.57,5.42,18.95,15.64,24.22,29.63,4.96,13.99,3.31,24.52,3.31,34.9s-1.66,22.56,5.26,36.55c5.26,12.18,15.79,17.3,24.52,22.56,10.53,5.11,22.56,12.03,27.83,31.29,3.31,13.99,3.31,26.02,1.65,38.21-3.31,23.44-5.08,49.91,25.27,84.14-13.77,5.2-26.6,12.32-38.16,21.03-8.25-8.53-14.84-20.82-19.9-44.09-1.66-12.33,0-22.71,1.65-34.9,1.65-13.99,5.26-31.29,0-52.19-3.31-15.64-13.84-24.37-24.22-31.29Zm-33.09,172.38c-6.92-8.72-8.57-19.1-12.18-31.29-3.61-15.64-7.07-31.44-19.25-48.74-10.68-12.33-22.71-15.94-34.9-19.25-10.53-1.8-19.25-5.26-26.17-12.18-10.38-12.33-13.99-26.17-17.3-40.16-3.46-10.38-5.26-20.91-12.18-31.29-6.92-12.33-17.45-22.71-26.17-29.63,12.33,1.65,24.52,5.11,34.9,17.3,8.72,12.03,12.33,22.56,15.64,31.29,3.61,10.38,8.87,20.91,19.25,31.29,10.38,8.72,20.76,8.72,31.29,10.38,13.99,1.96,26.02,3.61,38.21,19.25,8.72,10.68,12.33,22.71,15.64,34.9,8.62,23.81,15.54,47.34,57.27,67.83-10.85,9.96-20.27,21.45-27.9,34.14-13.11-6.88-24.56-15.53-36.13-33.82Zm-31.59,73.4c-8.57-5.26-15.64-14.14-22.56-24.52-8.72-12.33-17.3-24.37-36.55-36.55-12.03-8.57-26.02-6.92-38.21-5.26-8.57,1.96-19.1,3.61-27.83-1.66-15.79-7.07-24.37-17.45-33.09-29.63-5.26-8.57-12.18-17.3-22.56-24.22-10.68-8.87-24.37-13.99-34.9-17.6,10.38-1.66,24.22-3.31,38.21,3.61,12.18,6.92,19.25,15.64,26.17,22.56,7.07,8.57,15.64,17.3,29.63,22.56,12.03,3.46,22.56,0,31.29-5.26,13.84-5.26,26.17-8.72,43.47,1.65,12.18,6.92,19.1,15.79,27.83,26.17,16.66,18.54,33.47,38.61,79.83,41.55-6.52,13.65-11.09,28.4-13.35,43.91-.1,0-.19-.02-.29-.02-12.18-1.66-26.17-3.31-47.08-17.3Zm.3,80.17c-12.18-1.8-20.91-7.07-31.44-13.99-12.18-8.72-26.17-17.3-47.08-20.91-15.64-1.8-27.83,5.11-38.21,10.38-8.87,5.42-15.79,8.72-26.17,8.72-17.6,0-27.98-6.92-40.16-15.64-10.38-5.26-19.1-10.38-31.29-13.99-13.99-3.61-27.98-3.61-40.16-5.26,8.72-6.92,22.56-13.84,36.55-12.18,13.84,1.8,24.37,5.26,33.09,10.53,8.72,3.46,19.25,8.72,34.9,8.72,12.33,0,20.91-7.07,29.63-13.99,10.53-8.72,19.25-17.3,40.16-13.99,13.99,1.8,24.37,8.72,36.55,13.99,22.22,11.92,44.31,23.68,89.34,7.99-.18,3.04-.28,6.1-.28,9.18,0,13.53,1.75,26.65,5.03,39.16-14.96,3.2-28.74,6.36-50.47,1.29Zm29.63,72.8c-12.33,1.65-22.71,0-34.9-1.66-13.99-1.65-31.29-5.26-52.19,0-15.64,3.31-24.37,13.84-31.29,24.22-5.26,8.88-12.18,15.94-20.91,19.25-15.64,4.96-29.48,3.31-43.47,1.65-12.33-1.65-22.71-3.31-34.9-1.65-13.99,1.8-26.17,6.92-36.55,12.18,5.42-8.57,15.64-18.95,29.63-24.22,13.99-4.96,24.52-3.31,34.9-3.31,12.33,0,22.56,1.65,36.55-5.26,12.18-5.26,17.3-15.79,22.56-24.52,5.11-10.53,12.03-22.56,31.29-27.83,13.99-3.31,26.02-3.31,38.21-1.65,23.94,3.38,51.04,5.16,86.33-27.24,5.11,13.87,12.16,26.8,20.82,38.47-.36,.18-.69,.39-.95,.65-8.57,8.72-20.91,15.64-45.12,20.91Zm54,55.65c-8.72,6.92-19.1,8.87-31.29,12.18-15.64,3.61-31.44,7.07-48.74,19.25-12.33,10.68-15.64,22.71-19.25,34.9-1.8,10.53-5.26,19.25-12.18,26.17-12.33,10.38-26.17,13.99-40.16,17.3-10.38,3.46-20.91,5.26-31.29,12.18-12.33,6.92-22.71,17.45-29.63,26.17,1.66-12.33,5.11-24.52,17.3-34.9,12.03-8.72,22.56-12.33,31.29-15.64,10.38-3.61,20.76-8.87,31.29-19.25,8.72-10.38,8.72-20.91,10.38-31.29,1.96-13.99,3.61-26.02,19.25-38.21,10.68-8.72,22.71-12.33,34.9-15.64,24.26-8.78,48.23-15.82,68.98-59.69,9.86,11.05,21.28,20.67,33.92,28.51-7.05,13.88-15.63,25.84-34.77,37.95Zm86.49-13.99c-1.65,12.18-3.31,26.17-17.3,47.08-4.96,8.57-13.69,15.64-24.22,22.56-12.33,8.72-24.37,17.3-36.55,36.55-8.57,12.03-6.92,26.02-5.26,38.21,1.65,8.57,3.61,19.1-1.66,27.83-7.07,15.49-17.45,24.37-29.63,33.09-8.57,5.26-17.3,12.03-24.22,22.56-8.57,10.68-13.69,24.52-17.3,34.9-1.65-10.38-3.31-24.22,3.61-38.21,6.92-12.18,15.64-19.25,22.56-26.17,8.57-7.07,17.3-15.64,22.56-29.63,5.26-12.18,1.66-22.71-1.65-33.09-5.26-13.84-8.72-26.17,1.65-43.47,6.92-12.18,15.79-19.1,26.17-27.83,18.77-16.86,39.1-33.89,41.65-81.56,13.18,6.6,27.44,11.37,42.45,13.97-.86,.95-1.8,2-2.87,3.21Zm66.63,40.76c-1.8,12.03-7.07,20.76-13.99,31.29-8.72,12.18-17.3,26.17-20.91,47.08-1.65,15.64,5.26,27.83,10.53,38.21,5.41,8.88,8.72,15.79,8.72,26.17-1.65,17.6-8.72,29.63-15.64,41.82-5.26,10.38-10.38,19.1-13.99,31.29-3.31,13.99-3.31,27.68-1.65,38.21-6.92-8.72-13.84-20.91-12.18-36.55,1.65-13.84,5.11-24.37,10.38-33.09,3.46-8.72,8.72-19.25,8.72-34.9,0-12.33-7.07-20.91-13.99-29.63-8.72-10.53-17.3-19.25-13.99-40.16,1.8-13.99,8.72-24.37,13.99-36.55,11.53-21.5,22.92-42.89,9.42-85.05,2.4,.11,4.81,.17,7.23,.17,12.75,0,25.13-1.56,36.97-4.48,2.82,13.4,4.96,26.54,.38,46.19Zm-36.48-54.01c-78,0-141.23-63.23-141.23-141.23s63.23-141.23,141.23-141.23,141.23,63.23,141.23,141.23-63.23,141.23-141.23,141.23Zm131.54,142.76c8.87,5.26,15.94,12.18,19.25,20.91,4.96,15.64,3.31,29.48,1.65,43.47-1.65,12.33-3.31,22.71-1.65,34.9,1.8,13.99,6.92,26.17,12.18,36.55-8.57-5.41-18.95-15.64-24.22-29.63-4.96-13.99-3.31-24.37-3.31-34.9s1.65-22.56-5.26-36.55c-4.96-12.18-15.49-17.3-24.22-22.56-10.53-5.11-22.56-12.03-27.83-31.29-3.31-13.99-3.31-26.02-1.65-38.21,3.26-23.1,5.04-49.15-23.97-82.66,13.78-5.09,26.62-12.1,38.22-20.7,7.48,8.46,13.52,20.61,18.24,42.29,1.65,12.33,0,22.71-1.65,34.9-1.66,13.99-5.26,31.29,0,52.19,3.31,15.64,13.84,24.37,24.22,31.29Zm33.09-172.23c6.92,8.72,8.87,19.1,12.18,31.29,3.61,15.64,7.07,31.44,19.25,48.74,10.68,12.33,22.71,15.94,34.9,19.25,10.53,1.8,19.25,5.26,26.17,12.18,10.38,12.33,13.99,26.17,17.3,40.16,3.46,10.38,5.26,20.91,12.18,31.29,6.92,12.33,17.45,22.71,26.17,29.63-12.33-1.65-24.52-5.11-34.9-17.3-8.72-12.03-12.33-22.56-15.64-31.29-3.61-10.38-8.87-20.91-19.25-31.29-10.38-8.87-20.91-8.87-31.29-10.53-13.99-1.96-26.02-3.61-38.21-19.25-8.72-10.68-12.33-22.71-15.64-34.9-8.45-23.33-15.28-46.39-54.81-66.58,10.82-9.9,20.21-21.32,27.85-33.93,12.12,6.69,22.86,15.36,33.73,32.53Zm33.39-69.49c8.57,4.96,15.64,13.69,22.56,24.22,8.72,12.33,17.3,24.37,36.55,36.55,12.03,8.88,26.02,6.92,38.21,5.26,8.57-1.65,19.1-3.61,27.83,1.65,15.79,7.07,24.37,17.45,33.09,29.63,5.26,8.57,12.18,17.3,22.56,24.22,10.68,8.57,24.52,13.99,34.9,17.3-10.38,1.96-24.22,3.61-38.21-3.31-12.18-6.92-19.25-15.64-26.17-22.56-7.07-8.57-15.64-17.3-29.63-22.56-12.18-5.26-22.71-1.65-33.09,1.65-13.84,5.26-26.17,8.72-43.47-1.65-12.18-6.92-19.1-15.79-27.83-26.17-16.3-18.14-32.74-37.75-76.87-41.33,5.92-12.56,10.2-26.05,12.54-40.18,12.17,1.65,26.15,3.32,47.03,17.29Zm217.95-17.45c-13.84-1.66-24.37-5.11-33.09-10.38-8.72-3.46-19.25-8.72-34.9-8.72-12.33,0-20.91,7.07-29.63,13.99-10.53,8.72-19.25,17.3-40.16,13.99-13.99-1.8-24.37-8.72-36.55-13.99-22.17-11.89-44.2-23.62-89.02-8.1,.31-3.97,.47-7.99,.47-12.04,0-11.35-1.24-22.4-3.57-33.05,14.39-3.08,27.96-5.86,48.95-.96,12.03,1.8,20.91,7.07,31.29,13.99,12.18,8.72,26.17,17.6,47.08,20.91,15.64,1.8,27.83-5.11,38.21-10.38,8.87-5.11,15.79-8.72,26.17-8.72,17.6,1.65,29.63,8.72,41.82,15.64,10.38,5.26,19.1,10.68,31.29,13.99,13.99,3.31,27.83,3.31,38.21,1.65-8.72,6.92-22.56,13.84-36.55,12.18Z"/><g><path class="cls-1" d="M569.7,593.51c-31.69,6.24-63.24,2.39-90.63-10.29-13.7-6.37-26.43-14.54-37.12-24.99-10.69-10.09-19.82-21.86-26.67-35.08-7.21-12.97-12.01-26.91-14.54-41.69-.84-3.6-1.08-7.09-1.56-10.93-.48-3.85-.48-7.33-.48-11.17-.24-3.84,.24-7.33,.48-11.17,0-3.84,.84-7.33,1.32-11.17,4.56-29.79,18.74-58.51,41.69-81.45l-.31-.45c.07-.05,.13-.1,.19-.15-.08,.03-.16,.06-.24,.08l-.08-.12c-.69,.24-1.37,.48-2.05,.72-.11,.09-.22,.17-.33,.26-4.61,1.64-9.6,3.63-14.11,6.13-67.64,33.64-94.67,116.29-60.55,184.41,18.06,35.79,49.71,60.35,85.42,70.55,11.53,3.15,23.65,4.85,36.17,4.85,31.35,0,60.27-10.58,83.4-28.35Z"/><path class="cls-2" d="M486.3,347.5c-15.55,0-30.51,2.61-44.46,7.4-22.66,22.97-36.78,51.65-41.35,81.35-.51,3.85-1.28,7.44-1.28,11.29-.26,3.85-.77,7.44-.51,11.29,0,3.85,0,7.44,.51,11.29,.51,3.85,.77,7.44,1.54,11.03,2.57,14.88,7.44,28.99,14.63,42.08,6.93,13.34,16.17,25.15,26.94,35.41,10.78,10.52,23.61,18.73,37.46,25.15,26.71,12.37,57.48,16.36,88.39,10.89,33.55-25.03,55.31-65.02,55.31-110,0-75.64-61.54-137.18-137.18-137.18Z"/></g></svg>