<svg width="295" height="295" viewBox="0 0 295 295" fill="none" xmlns="http://www.w3.org/2000/svg">
<path d="M148.034 295C147.5 295 146.966 295 146.966 294.466C146.431 293.931 136.277 286.449 137.346 274.158C137.88 268.813 139.484 265.607 141.087 262.4C142.69 259.728 143.759 257.056 143.759 253.315C143.759 250.643 142.156 249.04 140.552 246.902C137.88 243.696 134.139 239.42 135.208 231.404C135.743 226.594 137.88 222.853 139.484 219.112C142.156 214.303 144.293 209.493 143.225 202.011C142.156 204.683 141.087 207.355 138.949 210.027C136.277 213.768 133.071 215.906 130.398 218.044C126.658 220.716 123.451 223.388 120.244 228.198C118.641 231.404 118.641 234.076 119.176 237.283C119.71 240.489 120.244 244.23 118.107 248.505C115.435 253.85 111.694 257.056 107.953 259.728C105.281 261.866 103.143 263.469 101.005 266.141C95.6612 273.089 95.1267 282.174 95.1267 282.174C95.1267 283.243 94.5923 283.777 93.5235 283.777C92.4546 283.777 91.9202 283.777 91.3858 282.708C90.8514 282.174 84.4383 270.951 89.7825 260.263C91.9202 255.453 95.1267 253.315 97.2644 250.643C99.4021 248.506 101.54 246.902 103.143 243.161C104.212 240.489 103.143 238.352 102.609 235.679C101.54 231.404 99.4021 226.594 103.677 219.112C106.35 214.837 109.556 212.165 112.763 209.493C117.038 205.752 121.313 202.545 122.917 194.529C121.313 196.667 118.641 198.27 115.435 200.408C111.694 203.08 107.953 203.614 104.212 204.683C99.9365 205.752 95.6612 206.821 90.8514 210.027C88.1793 212.165 87.1104 214.837 86.576 218.044C85.5072 221.25 84.9728 224.991 81.2318 227.663C76.422 231.938 71.6123 233.007 67.3369 234.076C64.1304 234.611 61.4583 235.679 58.2517 237.283C50.7699 241.558 47.0289 249.574 47.0289 250.109C46.4945 251.178 45.9601 251.178 44.8912 251.178C43.8224 251.178 43.288 250.109 43.288 249.574C43.288 249.04 41.6847 236.214 50.2354 228.198C53.9764 224.991 57.7173 223.388 60.9238 222.319C64.1304 221.25 66.268 220.181 68.9401 217.509C70.5434 215.371 71.0778 213.234 71.0778 210.562C71.6123 206.286 72.1467 200.942 78.5597 196.132C82.3007 192.926 86.576 191.857 90.317 190.788C95.6612 189.185 100.471 187.582 105.281 181.169C102.609 182.237 99.9365 183.306 96.73 183.841C92.4546 184.909 88.7137 183.841 84.9728 183.306C80.6974 182.772 76.422 181.703 70.5434 183.306C67.3369 183.841 65.1992 186.513 63.0615 189.185C60.9238 191.857 58.7862 195.063 54.5108 196.132C48.6322 198.27 43.8224 197.201 39.0126 196.667C35.8061 196.132 32.5996 195.598 29.393 196.132C20.8423 197.201 13.8949 203.614 13.8949 203.614C13.3604 204.149 12.2916 204.149 11.7572 203.614C11.2228 203.08 10.6883 202.011 10.6883 201.477C10.6883 200.942 13.8949 188.116 25.1177 184.375C29.9275 182.772 33.6684 182.772 36.8749 183.306C40.0815 183.306 42.7536 183.841 45.9601 182.237C48.0978 181.169 49.1666 179.031 50.7699 176.359C52.9075 172.618 55.0452 167.808 63.0615 165.67C67.8713 164.602 72.1467 164.602 76.422 165.136C82.3007 165.67 87.6449 166.205 94.5923 161.929C91.9202 161.929 88.7137 161.929 84.9728 160.861C80.6974 159.792 77.4909 157.654 74.2843 156.051C70.5434 153.913 66.8025 151.241 60.9238 150.172C57.1829 149.638 55.0452 151.241 51.8387 152.844C49.1666 154.448 45.4257 156.585 41.1503 156.051C34.7372 155.516 30.9963 153.379 26.7209 150.707C24.0488 149.103 21.3767 147.5 18.1702 146.966C9.6195 144.828 1.06877 148.034 1.06877 148.034C-7.08103e-05 148.569 -0.534491 148.034 -1.06891 147.5C-1.60333 146.966 -1.60333 145.897 -1.06891 145.362C-0.534491 144.828 6.94739 134.674 19.2391 135.208C24.5833 135.743 27.7898 137.346 30.9963 138.949C33.6684 140.553 36.3405 141.621 40.0815 141.621C42.7536 141.621 44.3568 140.018 46.4945 138.415C49.701 135.743 53.9764 132.002 61.9927 133.071C66.8025 133.605 70.5434 135.743 74.2843 137.346C79.0941 140.018 83.9039 142.156 91.3858 141.087C88.7137 140.018 86.0416 138.949 83.3695 136.812C79.6286 134.14 77.4909 130.933 75.3532 128.261C72.6811 124.52 70.009 121.313 65.1992 118.107C61.9927 116.504 59.3206 116.504 56.1141 117.038C52.9075 117.573 49.1666 118.107 44.8912 115.969C39.547 113.297 36.3405 109.556 33.6684 105.815C31.5307 103.143 29.9275 101.005 27.2554 98.8678C20.3079 93.5236 11.2228 92.9892 11.2228 92.9892C10.1539 92.9892 9.61949 92.4548 9.08507 91.3859C9.08507 90.3171 9.08507 89.7827 10.1539 89.2482C10.6883 88.7138 21.9112 82.3008 32.5996 87.645C37.4094 89.7827 39.547 92.9892 42.2191 95.1269C44.3568 97.2645 45.9601 99.4022 49.701 101.005C52.3731 102.074 54.5108 101.005 57.1829 100.471C61.4583 99.4022 66.268 97.2645 73.7499 101.54C78.0253 104.212 80.6974 107.419 83.3695 110.625C87.1104 114.9 90.317 119.176 98.3333 120.779C96.1956 119.176 94.5923 116.504 92.4546 113.297C89.7825 109.556 89.2481 105.815 88.1793 102.074C87.1104 97.799 86.0416 93.5236 82.8351 88.7138C80.6974 86.0417 78.0253 84.9729 74.8188 84.4385C71.6122 83.3696 67.8713 82.8352 65.1992 79.0943C60.9238 74.2845 59.855 69.4747 58.7862 65.1993C58.2517 61.9928 57.1829 59.3207 55.5796 56.1142C51.3043 50.77 43.288 47.029 43.288 47.029C42.2191 46.4946 41.6847 45.9602 42.2191 44.8914C42.2191 43.8225 43.288 43.2881 43.8224 43.2881C44.3568 43.2881 57.1829 41.6848 65.1992 50.2356C68.4057 53.9765 70.009 57.7174 71.0778 60.924C72.1467 64.1305 73.2155 66.2682 75.8876 68.9403C78.0253 70.5435 80.163 71.0779 82.8351 71.0779C87.1104 71.6124 92.4546 72.1468 97.2644 78.5598C100.471 82.3008 101.54 86.5761 102.609 90.3171C104.212 95.6613 105.815 100.471 112.228 105.281C111.159 102.609 110.091 99.9366 109.556 96.7301C108.487 92.4548 109.556 88.7138 110.091 84.9729C110.625 80.6975 111.694 76.4221 110.091 70.5435C109.556 67.337 106.884 65.1993 104.212 63.0616C101.54 60.924 98.3333 58.7863 97.2644 54.5109C95.1267 48.6323 96.1956 43.8225 96.73 39.0127C97.2644 35.8062 97.7988 32.5997 97.2644 29.3932C96.1956 20.8424 89.7825 13.895 89.7825 13.895C89.2481 13.3606 89.2481 12.2917 89.7825 11.7573C90.317 11.2229 91.3858 10.6885 91.9202 10.6885C92.4546 10.6885 105.281 13.895 109.022 25.1178C110.625 29.9276 110.625 33.6685 110.091 36.8751C110.091 40.0816 109.556 42.7537 111.159 45.9602C112.228 48.0979 114.366 49.1667 117.038 50.77C120.779 52.9077 125.589 55.0453 127.726 63.0616C128.795 67.8714 128.795 72.1468 128.261 76.4221C127.726 82.3008 127.192 87.645 131.467 94.5924C131.467 91.9203 131.467 88.7138 132.536 84.9729C133.605 80.6975 135.743 77.491 137.346 74.2845C139.484 70.5435 142.156 66.8026 143.225 60.924C143.759 57.7174 142.156 55.0453 140.552 51.8388C138.949 49.1667 136.812 45.4258 137.346 41.1504C137.88 34.7374 140.018 30.9964 142.69 26.7211C144.293 24.049 145.897 21.3769 146.966 18.1703C149.103 9.61962 145.897 1.06889 145.897 1.06889C145.362 5.126e-05 145.897 -0.534369 146.431 -1.06879C146.966 -1.60321 148.034 -1.60321 148.569 -1.06879C149.103 -0.534369 159.257 6.94752 158.723 18.7048C158.188 24.049 156.585 27.2555 154.982 30.462C153.379 33.1341 152.31 35.8062 152.31 39.5472C152.31 42.2193 153.913 43.8225 155.516 45.9602C158.188 49.1667 161.929 53.4421 160.86 61.4584C160.326 66.2682 158.188 70.0091 156.585 73.7501C153.913 78.5598 151.775 83.3696 152.844 90.8515C153.913 88.1794 154.982 85.5073 157.119 82.8352C159.792 79.0943 162.998 76.9566 165.67 74.8189C169.411 72.1468 172.618 69.4747 175.824 64.6649C177.427 61.4584 177.427 58.7863 176.893 55.5798C176.359 52.3732 175.824 48.6323 177.962 44.3569C180.634 39.0127 184.375 35.8062 188.116 33.1341C190.788 30.9964 192.926 29.3932 195.063 26.7211C200.408 19.7736 200.942 10.6885 200.942 10.6885C200.942 9.61962 201.476 9.0852 202.545 8.55078C203.614 8.55078 204.148 8.55078 204.683 9.61962C205.217 10.154 211.63 21.3769 206.286 32.0653C204.148 36.8751 200.942 39.0127 198.804 41.6848C196.667 43.8225 194.529 45.4258 192.926 49.1667C191.857 51.8388 192.926 53.9765 193.46 56.6486C194.529 60.924 196.667 65.7337 192.391 73.2156C189.719 77.491 186.513 80.1631 183.306 82.8352C179.031 86.5761 174.755 89.7827 173.152 97.799C174.755 95.6613 177.427 94.058 180.634 91.9203C184.375 89.2482 188.116 88.7138 191.857 87.645C196.132 86.5761 200.408 85.5073 205.217 82.3008C207.889 80.1631 208.958 77.491 209.493 74.2845C210.562 71.0779 211.096 67.337 214.837 64.6649C219.647 60.3895 224.456 59.3207 228.732 58.2519C231.938 57.7174 234.61 56.6486 237.817 55.0453C245.299 50.77 249.04 42.7537 249.04 42.2193C249.574 41.1504 250.109 41.1504 251.177 41.1504C252.246 41.1504 252.781 42.2193 252.781 42.7537C252.781 43.2881 254.384 56.1142 245.833 64.1305C242.092 67.337 238.351 68.9403 235.145 70.0091C231.938 71.0779 229.801 72.1468 227.129 74.8189C225.525 76.9566 224.991 79.0943 224.991 81.7664C224.456 86.0417 223.922 91.3859 217.509 96.1957C213.768 99.4022 209.493 100.471 205.752 101.54C200.408 103.143 195.598 104.746 190.788 111.159C193.46 110.091 196.132 109.022 199.339 108.487C203.614 107.419 207.355 108.487 211.096 109.022C215.371 109.556 219.647 110.625 225.525 109.022C228.732 108.487 230.869 105.815 233.007 103.143C235.145 100.471 237.283 97.2645 241.558 96.1957C247.437 94.058 252.246 95.1269 257.056 95.6613C260.263 96.1957 263.469 96.7301 266.676 96.1957C275.226 95.1269 282.174 88.7138 282.174 88.7138C282.708 88.1794 283.777 88.1794 284.312 88.7138C284.846 89.2482 285.38 90.3171 285.38 90.8515C285.38 91.3859 282.174 104.212 270.951 107.953C266.141 109.556 262.4 109.556 259.194 109.022C255.987 109.022 253.315 108.487 250.109 110.091C247.971 111.159 246.902 113.297 245.299 115.969C243.161 119.71 241.023 124.52 233.007 126.658C228.197 127.727 223.922 127.727 219.647 127.192C213.768 126.658 208.424 126.123 201.476 130.399C204.148 130.399 207.355 130.399 211.096 131.467C215.371 132.536 218.578 134.674 221.784 136.277C225.525 138.415 229.266 141.087 235.145 142.156C238.351 142.69 241.023 141.087 244.23 139.484C246.902 137.88 250.643 135.743 254.918 136.277C261.331 136.812 265.072 138.949 269.348 141.621C272.02 143.225 274.692 144.828 277.898 145.362C286.449 147.5 295 144.294 295 144.294C296.069 143.759 296.603 144.294 297.138 144.828C297.672 145.362 297.672 146.431 297.138 146.966C296.603 147.5 289.121 157.654 276.83 157.12C271.485 156.585 268.279 154.982 265.072 153.379C262.4 151.775 259.728 150.707 255.987 150.707C253.315 150.707 251.712 152.31 249.574 153.913C246.368 156.585 242.092 160.326 234.076 159.257C229.266 158.723 225.525 156.585 221.784 154.982C216.975 152.31 212.165 150.172 204.683 151.241C207.355 152.31 210.027 153.379 212.699 155.516C216.44 158.188 218.578 161.395 220.716 164.067C223.388 167.808 226.06 171.015 230.87 174.221C234.076 175.824 236.748 175.824 239.955 175.29C243.161 174.755 246.902 174.221 251.177 176.359C256.522 179.031 259.728 182.772 262.4 186.513C264.538 189.185 266.141 191.323 268.813 193.46C275.761 198.804 284.846 199.339 284.846 199.339C285.915 199.339 286.449 199.873 286.984 200.942C286.984 202.011 286.984 202.545 285.915 203.08C285.38 203.614 274.158 210.027 263.469 204.683C258.659 202.545 256.522 199.339 253.85 197.201C251.712 195.063 250.109 192.926 246.368 191.323C243.696 190.254 241.558 191.323 238.886 191.857C234.61 192.926 229.801 195.063 222.319 190.788C218.043 188.116 215.371 184.909 212.699 181.703C208.958 177.428 205.752 173.152 197.735 171.549C199.873 173.152 201.476 175.824 203.614 179.031C206.286 182.772 206.821 186.513 207.889 190.254C208.958 194.529 210.027 198.804 213.234 203.614C215.371 206.286 218.043 207.355 221.25 207.89C224.456 208.958 228.197 209.493 230.87 212.699C235.145 217.509 236.214 222.319 237.283 226.594C237.817 229.801 238.886 232.473 240.489 235.679C244.764 243.161 252.781 246.902 253.315 246.902C254.384 247.437 254.384 247.971 254.384 249.04C254.384 250.109 253.315 250.643 252.781 250.643C252.246 250.643 239.42 252.246 231.404 243.696C228.197 239.955 226.594 236.214 225.525 233.007C224.456 229.801 223.388 227.663 220.716 224.991C218.578 223.388 216.44 222.853 213.768 222.853C209.493 222.319 204.148 221.784 199.339 215.371C196.132 211.63 195.063 207.355 193.995 203.614C192.391 198.27 190.788 193.46 184.375 188.65C185.444 191.323 186.513 193.995 187.047 197.201C188.116 201.477 187.047 205.217 186.513 208.958C185.978 213.234 184.909 217.509 186.513 223.388C187.047 226.594 189.719 228.732 192.391 230.87C195.063 233.007 198.27 235.145 199.339 239.42C201.476 245.299 200.408 250.109 199.873 254.919C199.339 258.125 198.804 261.332 199.339 264.538C200.408 273.089 206.821 280.036 206.821 280.036C207.355 280.571 207.355 281.64 206.821 282.174C205.217 283.243 204.683 283.243 203.614 283.243C203.08 283.243 190.254 280.036 186.513 268.813C184.909 264.004 184.909 260.263 185.444 257.056C185.444 253.85 185.978 251.178 184.375 247.971C183.306 245.833 181.168 244.765 178.496 243.161C174.755 241.024 169.946 238.886 167.808 230.87C166.739 226.06 166.739 221.784 167.273 217.509C167.808 211.631 168.342 206.286 164.067 199.339C164.067 202.011 164.067 205.217 162.998 208.958C161.929 213.234 159.792 216.44 158.188 219.647C156.051 223.388 153.379 227.129 152.31 233.007C151.775 236.214 153.379 238.886 154.982 242.092C156.585 244.765 158.723 248.505 158.188 252.781C157.654 259.194 155.516 262.935 152.844 267.21C151.241 269.882 149.638 272.554 148.569 275.761C146.431 284.312 149.638 292.862 149.638 292.862C150.172 293.931 149.638 294.466 149.103 295C149.103 295 148.569 295 148.034 295ZM142.69 191.323C143.759 191.323 144.293 191.857 144.828 192.391C150.172 206.821 146.431 213.768 142.69 220.716C141.087 224.457 138.949 227.663 138.415 231.938C137.346 238.352 140.018 241.024 142.69 244.23C144.828 246.902 146.966 249.574 146.966 253.315C146.966 258.125 145.362 261.332 144.293 264.004C142.69 266.676 141.621 269.882 141.087 274.158C140.552 278.967 142.69 282.708 144.828 285.38C144.293 282.174 144.293 277.899 145.362 273.623C146.431 269.882 148.034 267.21 149.638 264.004C151.775 260.263 153.913 256.522 154.447 251.178C154.447 247.971 153.379 245.833 151.775 243.161C150.172 239.955 148.034 236.214 148.569 231.404C149.638 224.991 152.31 220.716 154.982 216.975C157.119 213.768 158.723 211.096 159.257 207.355C160.86 200.408 159.792 196.132 158.723 191.323C158.188 190.254 158.723 189.719 159.792 189.185C160.86 188.65 161.395 188.65 162.464 189.719C173.152 200.942 172.618 209.493 171.549 216.975C171.014 220.716 171.014 224.457 172.083 228.732C173.687 234.611 177.427 236.748 180.634 238.352C183.306 239.955 186.513 241.558 188.116 245.299C190.254 249.574 189.719 253.315 189.719 256.522C189.719 259.728 189.185 262.935 190.788 267.21C192.391 271.486 195.598 274.692 198.27 276.295C196.667 273.089 195.063 269.348 194.529 265.073C193.995 261.332 194.529 258.125 195.063 254.384C195.598 250.109 196.132 245.833 194.529 241.024C193.46 238.352 191.322 236.214 188.65 234.611C185.444 232.473 182.237 229.801 181.168 224.991C179.565 218.578 180.634 213.234 181.168 208.958C181.703 205.217 182.237 202.011 181.703 198.27C180.1 190.788 177.962 187.047 175.29 184.375C174.755 183.841 174.755 182.772 175.29 181.703C175.824 181.169 176.893 180.634 177.962 181.169C191.857 187.582 193.995 195.063 196.667 202.545C197.735 206.286 198.804 210.027 201.476 213.234C205.217 218.044 208.958 218.578 213.234 219.112C216.44 219.647 219.647 219.647 222.853 222.319C226.06 225.525 227.663 228.732 228.732 231.938C229.801 234.611 230.87 237.817 233.542 241.558C236.748 245.299 240.489 246.368 244.23 246.902C241.558 244.765 238.351 241.558 236.214 237.817C234.076 234.611 233.542 231.404 232.473 228.198C231.404 223.922 230.335 219.647 227.129 215.906C224.991 213.768 222.319 212.699 219.112 212.165C215.371 211.096 211.63 210.027 208.424 206.286C204.683 200.942 203.614 196.132 202.545 191.323C201.476 187.582 200.942 184.375 198.804 181.703C195.063 175.824 191.322 173.152 187.047 171.015C185.978 170.48 185.978 169.411 185.978 168.877C185.978 167.808 187.047 167.274 188.116 167.274C203.614 167.808 208.958 174.221 214.302 180.1C216.975 183.306 219.112 185.978 222.853 188.116C228.197 191.323 231.938 190.254 236.214 188.65C239.42 187.582 242.627 186.513 246.368 188.116C250.643 189.719 253.315 192.391 255.453 195.063C257.591 197.201 259.728 199.873 263.469 202.011C267.745 204.149 272.02 203.614 275.226 203.08C272.02 202.011 267.745 200.408 264.538 197.736C261.331 195.598 259.194 192.926 257.591 190.254C254.918 186.513 252.246 183.306 247.437 181.169C244.764 179.565 241.558 180.1 238.886 180.634C235.145 181.169 230.87 181.703 227.129 179.031C221.25 175.29 218.578 171.549 215.906 167.808C213.768 164.602 211.63 161.929 208.958 160.326C202.545 156.051 198.27 155.516 194.529 154.982C193.46 154.982 192.926 154.448 192.926 153.379C192.926 152.31 193.46 151.775 193.995 151.241C208.424 145.897 215.371 149.638 222.319 153.379C226.06 154.982 229.266 157.12 233.542 157.654C239.955 158.723 242.627 156.051 245.833 153.379C248.505 151.241 251.177 149.103 254.918 149.103C259.728 149.103 262.935 150.707 265.607 151.775C268.279 153.379 271.485 154.448 275.761 154.982C280.036 155.516 284.312 153.379 286.984 151.241C283.777 151.775 279.502 151.775 275.226 150.707C271.485 149.638 268.813 148.034 265.607 146.431C261.866 144.294 258.125 142.156 252.781 141.621C249.574 141.621 247.437 142.69 244.764 144.294C241.558 145.897 237.817 148.034 233.007 147.5C226.594 146.431 222.319 143.759 218.578 141.087C215.371 138.949 212.699 137.346 208.958 136.812C202.011 135.208 197.735 136.277 192.926 137.346C191.857 137.88 191.322 137.346 190.788 136.277C190.254 135.208 190.254 134.674 191.322 133.605C202.545 122.917 211.096 123.451 218.578 124.52C222.319 125.054 226.06 125.054 230.335 123.986C236.214 122.382 238.351 118.641 239.955 115.435C241.558 112.763 243.161 109.556 246.902 107.953C251.177 105.815 254.918 106.35 258.125 106.35C261.331 106.35 264.538 106.884 268.813 105.281C273.089 103.678 276.295 100.471 277.898 97.799C274.692 99.4022 270.951 101.005 266.676 101.54C262.935 102.074 259.728 101.54 255.987 101.005C251.712 100.471 247.437 99.9366 242.627 101.54C239.955 102.609 237.817 104.746 236.214 107.419C234.076 110.625 231.404 113.832 226.594 114.9C220.181 116.504 214.837 115.435 210.562 114.9C206.821 114.366 203.614 113.832 199.873 114.366C192.391 115.969 188.65 118.107 185.978 120.779C185.444 121.313 184.375 121.313 183.306 120.779C182.772 120.245 182.237 119.176 182.772 118.107C189.185 104.212 196.667 102.074 204.148 99.4022C207.889 98.3334 211.63 97.2645 214.837 94.5924C219.647 90.8515 220.181 87.1106 220.716 82.8352C221.25 79.6287 221.25 76.4221 223.922 73.2156C227.129 70.0091 230.335 68.4059 233.542 67.337C236.214 66.2682 239.42 65.1993 243.161 62.5272C246.902 59.3207 247.971 55.5798 248.505 51.8388C246.368 54.5109 243.161 57.7174 239.42 59.8551C236.214 61.9928 233.007 62.5272 229.801 63.5961C225.525 64.6649 221.25 65.7337 217.509 68.9403C215.371 71.0779 214.302 73.75 213.768 76.9566C212.699 80.6975 211.63 84.4385 207.889 87.645C202.545 91.3859 197.735 92.4548 192.926 93.5236C189.185 94.5924 185.978 95.1269 183.306 97.2645C177.427 101.005 174.755 104.746 172.618 109.022C172.083 110.091 171.014 110.091 170.48 110.091C169.411 110.091 168.877 109.022 168.877 107.953C169.411 92.4548 175.824 87.1106 181.703 81.7664C184.909 79.0943 187.581 76.9566 189.719 73.2156C192.926 67.8714 191.857 64.1305 190.254 59.8551C189.185 56.6486 188.116 53.4421 189.719 49.7011C189.719 44.8914 192.391 42.7537 195.063 40.0816C197.201 37.9439 199.873 35.8062 202.011 32.0653C204.148 27.7899 203.614 23.5145 203.08 20.308C202.011 23.5145 200.408 27.7899 197.735 30.9964C195.598 34.203 192.926 36.3406 190.254 37.9439C186.513 40.616 183.306 43.2881 181.168 48.0979C179.565 50.77 180.1 53.9765 180.634 56.6486C181.168 60.3895 181.703 64.6649 179.031 68.4058C175.29 74.2845 171.549 76.9566 167.808 79.6287C164.601 81.7663 161.929 83.904 160.326 86.5761C156.051 92.9892 155.516 97.2645 154.982 101.005C154.982 102.074 154.447 102.609 153.379 102.609C152.31 102.609 151.775 102.074 151.241 101.54C145.897 87.1106 149.638 80.1631 153.379 73.2156C154.982 69.4747 157.119 66.2682 157.654 61.9928C158.723 55.5798 156.051 52.9077 153.379 49.7011C151.241 47.029 149.103 44.3569 149.103 40.616C149.103 35.8062 150.706 32.5997 151.775 29.9276C153.379 27.2555 154.447 24.049 154.982 19.7736C155.516 14.9638 153.379 11.2229 151.241 8.55078C151.775 11.7573 151.775 16.0327 150.706 20.8424C149.638 24.5834 148.034 27.2555 146.431 30.462C142.69 34.2029 140.552 37.4095 140.552 42.7537C140.552 45.9602 141.621 48.0979 143.225 50.77C144.828 53.9765 146.966 57.7174 146.431 62.5272C145.362 68.9403 142.69 73.2156 140.018 76.9566C137.88 80.1631 136.277 82.8352 135.743 86.5761C134.139 93.5236 135.208 97.799 136.277 102.609C136.812 103.678 136.277 104.212 135.208 104.746C134.139 105.281 133.605 105.281 132.536 104.212C121.848 92.9892 122.382 84.4385 123.451 76.9566C123.985 73.2156 123.985 69.4747 122.917 65.1993C121.313 59.3207 117.572 57.183 114.366 55.5798C111.694 53.9765 108.487 52.3732 106.884 48.6323C104.746 44.3569 105.281 40.616 105.281 37.4095C105.281 34.2029 105.815 30.9964 104.212 26.7211C102.609 22.4457 99.4021 19.2392 96.73 17.6359C98.3333 20.8424 99.9365 24.5834 100.471 28.8587C101.005 32.5997 100.471 35.8062 99.9365 39.5472C99.4021 43.8225 98.8677 48.0979 100.471 52.9077C101.54 55.5798 103.677 57.7174 106.35 59.3207C109.556 61.4584 112.763 64.1305 113.831 68.9403C115.435 75.3533 114.366 80.6975 113.831 84.9729C113.297 88.7138 112.763 91.9203 113.297 95.6613C114.9 103.143 117.038 106.884 119.71 109.556C120.244 110.091 120.244 111.159 119.71 112.228C119.176 112.763 118.107 113.297 117.038 112.763C103.143 106.35 101.005 98.8678 98.3333 91.3859C97.2644 87.645 96.1956 83.904 93.5235 80.6975C89.7825 75.8877 86.0416 75.3533 81.7662 74.8189C78.5597 74.2845 75.3532 74.2845 72.1467 71.6124C68.9401 68.4058 67.3369 65.1993 66.268 61.9928C65.1992 59.3207 64.1304 56.1142 61.4583 52.3732C58.2517 48.6323 54.5108 47.5635 50.7699 47.029C53.442 49.1667 56.6485 52.3732 58.7862 56.1142C60.9238 59.3207 61.4583 62.5272 62.5271 65.7337C63.5959 70.0091 64.6648 74.2845 67.8713 78.0254C70.009 80.1631 72.6811 81.2319 75.8876 81.7664C79.6285 82.8352 83.3695 83.904 86.576 87.645C90.317 92.9892 91.3858 97.799 92.4546 102.609C93.5235 106.35 94.0579 109.556 96.1956 112.228C99.9365 118.107 103.677 120.779 107.953 122.917C109.022 123.451 109.022 124.52 109.022 125.054C109.022 126.123 107.953 126.658 106.884 126.658C91.3858 126.123 86.0416 119.71 80.6974 113.832C78.0253 110.625 75.8876 107.953 72.1467 105.815C66.8025 102.609 63.0615 103.678 58.7862 105.281C56.1141 106.884 52.9075 107.953 49.1666 106.884C44.8912 105.281 42.2191 102.609 40.0815 99.9367C37.9438 97.799 35.8061 95.1269 32.0651 92.9892C27.7898 90.8515 23.5144 91.3859 20.3079 91.9203C23.5144 92.9892 27.7898 94.5924 30.9963 97.2645C34.2028 99.4022 36.3405 102.074 37.9438 104.746C40.6159 108.487 43.288 111.694 48.0978 113.832C50.7699 115.435 53.9764 114.9 56.6485 114.366C60.3894 113.832 64.6648 113.297 68.4057 115.969C74.2843 119.71 76.9565 123.451 79.6285 127.192C81.7662 130.399 83.9039 133.071 86.576 134.674C92.9891 138.949 97.2644 139.484 101.005 140.018C102.074 140.018 102.609 140.553 102.609 141.621C102.609 142.69 102.074 143.225 101.54 143.759C87.1104 149.103 80.163 145.362 73.2155 141.621C69.4746 140.018 66.268 137.88 61.9927 137.346C55.5796 136.277 52.9075 138.949 49.701 141.621C47.0289 143.759 44.3568 145.897 40.6159 145.897C35.8061 145.897 32.5996 144.294 29.9275 143.225C27.2554 141.621 24.0488 140.553 19.7735 140.018C15.4981 139.484 11.2228 141.621 8.55065 143.759C12.2916 144.294 16.567 144.294 20.8423 145.362C24.5833 146.431 27.2554 148.034 30.4619 149.638C34.2028 152.31 37.4093 154.448 42.7536 154.448C45.9601 154.448 48.0978 153.379 50.7699 151.775C53.9764 150.172 57.7173 148.034 62.5271 148.569C68.9401 149.638 73.2155 152.31 76.9565 154.982C80.163 157.12 82.8351 158.723 86.576 159.257C93.5235 160.861 97.7988 159.792 102.609 158.723C103.677 158.188 104.212 158.723 104.746 159.792C105.281 160.861 105.281 161.395 104.212 162.464C92.9891 173.152 84.4383 172.618 76.9565 171.549C73.2155 171.015 69.4746 171.015 65.1992 172.083C59.3206 173.687 57.1829 177.428 55.5796 180.634C53.9764 183.306 52.3731 186.513 48.6322 188.116C44.3568 190.254 41.1503 189.719 37.4094 189.719C34.2028 189.719 30.9963 189.185 26.7209 190.788C22.4456 192.391 19.2391 195.598 17.6358 198.27C20.8423 196.667 24.5833 195.063 28.8586 194.529C32.5996 193.995 35.8061 194.529 39.547 195.063C43.8224 195.598 48.0978 196.132 52.9075 194.529C55.5796 193.46 57.7173 191.323 59.3206 188.65C61.4583 185.444 64.1304 182.237 68.9401 181.169C75.3532 179.565 80.6974 180.634 84.9728 181.169C88.7137 181.703 91.9202 182.237 95.6612 181.703C103.143 180.1 106.884 177.962 109.556 175.29C110.091 174.755 111.159 174.755 112.228 175.29C112.763 175.824 113.297 176.893 112.763 177.962C106.35 191.857 98.8677 193.995 91.3858 196.667C87.6449 197.736 83.9039 198.804 80.6974 201.477C75.8876 205.217 75.3532 208.958 74.8188 213.234C74.2843 216.44 74.2843 219.647 71.6122 222.853C68.4057 226.06 65.1992 227.663 61.9927 228.732C59.3206 229.801 56.1141 230.87 52.3731 233.542C48.6322 236.748 47.5633 240.489 47.0289 244.23C49.1666 241.558 52.3731 238.352 56.1141 236.214C59.3206 234.076 62.5271 233.542 65.7336 232.473C70.009 231.404 74.2843 230.335 78.0253 227.129C80.163 224.991 81.2318 222.319 81.7662 219.112C82.8351 215.371 83.9039 211.63 87.6449 208.424C92.9891 204.683 97.7988 203.614 102.609 202.545C106.35 201.477 109.556 200.942 112.228 198.804C118.107 195.063 120.779 191.323 122.917 187.047C123.451 185.978 124.52 185.978 125.054 185.978C126.123 185.978 126.658 187.047 126.658 188.116C126.123 203.614 119.71 208.958 113.831 214.303C110.625 216.975 107.953 219.112 105.815 222.853C102.609 228.198 103.677 231.938 105.281 236.214C106.35 239.42 107.418 242.627 105.815 246.368C104.212 250.643 101.54 253.315 98.8677 255.453C96.73 257.591 94.0579 259.728 91.9202 263.469C89.7825 267.745 90.317 272.02 90.8514 275.227C91.9202 272.02 93.5235 267.745 96.1956 264.538C98.3333 261.332 101.005 259.194 103.677 257.591C107.418 254.919 110.625 252.246 112.763 247.437C114.366 244.765 113.831 241.558 113.297 238.886C112.763 235.145 112.228 230.87 114.9 227.129C118.641 221.25 122.382 218.578 126.123 215.906C129.33 213.768 132.002 211.63 133.605 208.958C137.88 202.545 138.415 198.27 138.949 194.529C141.087 192.391 141.621 191.857 142.69 191.323Z" fill="#BC7A4E"/>
<path d="M147.5 193.46C172.883 193.46 193.46 172.883 193.46 147.5C193.46 122.117 172.883 101.54 147.5 101.54C122.117 101.54 101.54 122.117 101.54 147.5C101.54 172.883 122.117 193.46 147.5 193.46Z" fill="#BC7A4E"/>
<path d="M147.5 195.063C121.313 195.063 99.9365 173.687 99.9365 147.5C99.9365 121.313 121.313 99.9366 147.5 99.9366C173.687 99.9366 195.063 121.313 195.063 147.5C195.063 173.687 173.687 195.063 147.5 195.063ZM147.5 103.678C123.451 103.678 103.677 123.451 103.677 147.5C103.677 171.549 123.451 191.323 147.5 191.323C171.549 191.323 191.322 171.549 191.322 147.5C191.322 123.451 171.549 103.678 147.5 103.678Z" fill="#BC7A4E"/>
</svg>
