<svg width="450" height="450" viewBox="0 0 450 450" fill="none" xmlns="http://www.w3.org/2000/svg">
<path d="M448.845 450H1.15459C0.577293 450 0 449.423 0 448.845V1.15459C0 0.577293 0.577293 0 1.15459 0H448.845C449.423 0 450 0.577293 450 1.15459V448.845C450 449.423 449.423 450 448.845 450ZM2.02053 447.691H447.691V2.02053H2.02053V447.691Z" fill="#BC7A4E"/>
<path d="M142.014 450C141.437 450 140.859 449.423 140.859 448.845C140.859 441.629 138.262 438.165 135.664 434.413C132.777 430.661 130.18 426.62 130.18 418.826C130.18 411.033 133.066 406.992 135.664 403.239C138.262 399.487 140.859 396.023 140.859 388.807C140.859 381.591 138.262 378.127 135.664 374.375C132.777 370.622 130.18 366.581 130.18 358.788C130.18 350.994 133.066 346.953 135.664 343.201C138.262 339.448 140.859 335.985 140.859 328.768C140.859 321.552 138.262 318.088 135.664 314.336C132.777 310.584 130.18 306.543 130.18 298.749C130.18 290.956 133.066 286.915 135.664 283.162C138.262 279.41 140.859 275.946 140.859 268.73C140.859 261.514 138.262 258.05 135.664 254.298C132.777 250.545 130.18 246.504 130.18 238.711C130.18 230.917 133.066 226.876 135.664 223.124C138.262 219.371 140.859 215.908 140.859 208.691C140.859 201.475 138.262 198.011 135.664 194.259C132.777 190.507 130.18 186.466 130.18 178.672C130.18 178.095 130.757 177.518 131.334 177.518C131.911 177.518 132.489 178.095 132.489 178.672C132.489 185.888 135.087 189.352 137.684 193.104C140.571 196.857 143.169 200.898 143.169 208.691C143.169 216.485 140.282 220.526 137.684 224.278C135.087 228.031 132.489 231.494 132.489 238.711C132.489 245.927 135.087 249.391 137.684 253.143C140.571 256.895 143.169 260.936 143.169 268.73C143.169 276.523 140.282 280.564 137.684 284.317C135.087 288.069 132.489 291.533 132.489 298.749C132.489 305.965 135.087 309.429 137.684 313.181C140.571 316.934 143.169 320.975 143.169 328.768C143.169 336.562 140.282 340.603 137.684 344.355C135.087 348.108 132.489 351.571 132.489 358.788C132.489 366.004 135.087 369.468 137.684 373.22C140.571 376.972 143.169 381.013 143.169 388.807C143.169 396.6 140.282 400.641 137.684 404.394C135.087 408.146 132.489 411.61 132.489 418.826C132.489 426.042 135.087 429.506 137.684 433.258C140.571 437.011 143.169 441.052 143.169 448.845C143.169 449.423 142.591 450 142.014 450Z" fill="#BC7A4E"/>
<path d="M155.869 450C155.292 450 154.715 449.423 154.715 448.845C154.715 441.629 152.694 438.165 150.385 434.413C148.076 430.661 145.766 426.62 145.766 418.826C145.766 411.033 148.076 406.992 150.385 403.239C152.694 399.487 154.715 396.023 154.715 388.807C154.715 381.591 152.694 378.127 150.385 374.375C148.076 370.622 145.766 366.581 145.766 358.788C145.766 350.994 148.076 346.953 150.385 343.201C152.694 339.448 154.715 335.985 154.715 328.768C154.715 321.552 152.694 318.088 150.385 314.336C148.076 310.584 145.766 306.543 145.766 298.749C145.766 290.956 148.076 286.915 150.385 283.162C152.694 279.41 154.715 275.946 154.715 268.73C154.715 261.514 152.694 258.05 150.385 254.298C148.076 250.545 145.766 246.504 145.766 238.711C145.766 230.917 148.076 226.876 150.385 223.124C152.694 219.371 154.715 215.908 154.715 208.691C154.715 201.475 152.694 198.011 150.385 194.259C148.076 190.507 145.766 186.466 145.766 178.672C145.766 178.095 146.344 177.518 146.921 177.518C147.498 177.518 148.076 178.095 148.076 178.672C148.076 185.888 150.096 189.352 152.405 193.104C154.715 196.857 157.024 200.898 157.024 208.691C157.024 216.485 154.715 220.526 152.405 224.278C150.096 228.031 148.076 231.494 148.076 238.711C148.076 245.927 150.096 249.391 152.405 253.143C154.715 256.895 157.024 260.936 157.024 268.73C157.024 276.523 154.715 280.564 152.405 284.317C150.096 288.069 148.076 291.533 148.076 298.749C148.076 305.965 150.096 309.429 152.405 313.181C154.715 316.934 157.024 320.975 157.024 328.768C157.024 336.562 154.715 340.603 152.405 344.355C150.096 348.108 148.076 351.571 148.076 358.788C148.076 366.004 150.096 369.468 152.405 373.22C154.715 376.972 157.024 381.013 157.024 388.807C157.024 396.6 154.715 400.641 152.405 404.394C150.096 408.146 148.076 411.61 148.076 418.826C148.076 426.042 150.096 429.506 152.405 433.258C154.715 437.011 157.024 441.052 157.024 448.845C156.735 449.423 156.446 450 155.869 450Z" fill="#BC7A4E"/>
<path d="M169.435 450C168.858 450 168.281 449.423 168.281 448.845C168.281 441.629 166.549 438.166 164.817 434.413C163.085 430.661 161.065 426.62 161.065 419.115C161.065 411.321 163.085 407.569 164.817 403.817C166.549 400.064 168.281 396.6 168.281 389.384C168.281 382.168 166.549 378.704 164.817 374.952C163.085 371.199 161.065 367.158 161.065 359.654C161.065 351.86 163.085 348.108 164.817 344.355C166.549 340.603 168.281 337.139 168.281 329.923C168.281 322.707 166.549 319.243 164.817 315.491C163.085 311.738 161.065 307.697 161.065 300.192C161.065 292.399 163.085 288.647 164.817 284.894C166.549 281.142 168.281 277.678 168.281 270.462C168.281 263.246 166.549 259.782 164.817 256.03C163.085 252.277 161.065 248.236 161.065 240.731C161.065 233.226 163.085 229.185 164.817 225.433C166.549 221.681 168.281 218.217 168.281 211.001C168.281 203.784 166.549 200.321 164.817 196.568C163.085 192.816 161.065 188.775 161.065 181.27C161.065 180.693 161.642 180.115 162.219 180.115C162.797 180.115 163.374 180.693 163.374 181.27C163.374 188.486 165.106 191.95 166.838 195.702C168.57 199.455 170.59 203.496 170.59 211.001C170.59 218.794 168.57 222.547 166.838 226.299C165.106 230.051 163.374 233.515 163.374 240.731C163.374 247.947 165.106 251.411 166.838 255.164C168.57 258.916 170.59 262.957 170.59 270.462C170.59 278.255 168.57 282.008 166.838 285.76C165.106 289.513 163.374 292.976 163.374 300.192C163.374 307.409 165.106 310.872 166.838 314.625C168.57 318.377 170.59 322.418 170.59 329.923C170.59 337.428 168.57 341.469 166.838 345.221C165.106 348.974 163.374 352.437 163.374 359.654C163.374 366.87 165.106 370.334 166.838 374.086C168.57 377.838 170.59 381.879 170.59 389.384C170.59 397.178 168.57 400.93 166.838 404.683C165.106 408.435 163.374 411.899 163.374 419.115C163.374 426.331 165.106 429.795 166.838 433.547C168.57 437.3 170.59 441.341 170.59 448.845C170.59 449.423 170.013 450 169.435 450Z" fill="#BC7A4E"/>
<path d="M183.29 450C182.713 450 182.136 449.423 182.136 448.845C182.136 441.629 180.981 437.877 179.538 434.124C178.095 430.372 176.652 426.331 176.652 418.826C176.652 411.033 178.095 407.28 179.538 403.528C180.981 399.775 182.136 396.312 182.136 388.807C182.136 381.591 180.981 377.838 179.538 374.086C178.095 370.334 176.652 366.292 176.652 358.788C176.652 350.994 178.095 347.242 179.538 343.489C180.981 339.737 182.136 336.273 182.136 328.768C182.136 321.264 180.981 317.8 179.538 314.047C178.095 310.295 176.652 306.254 176.652 298.749C176.652 290.956 178.095 287.203 179.538 283.451C180.981 279.698 182.136 276.235 182.136 268.73C182.136 261.514 180.981 257.761 179.538 254.009C178.095 250.257 176.652 246.215 176.652 238.711C176.652 230.917 178.095 227.165 179.538 223.412C180.981 219.66 182.136 216.196 182.136 208.691C182.136 201.475 180.981 197.723 179.538 193.97C178.095 190.218 176.652 186.177 176.652 178.672C176.652 178.095 177.229 177.518 177.806 177.518C178.383 177.518 178.961 178.095 178.961 178.672C178.961 185.888 180.115 189.641 181.559 193.393C183.002 197.146 184.445 201.187 184.445 208.691C184.445 216.485 183.002 220.237 181.559 223.99C180.115 228.608 178.961 232.072 178.961 239.577C178.961 246.793 180.115 250.545 181.559 254.298C183.002 258.05 184.445 262.091 184.445 269.596C184.445 277.389 183.002 281.142 181.559 284.894C180.115 288.646 178.961 292.11 178.961 299.615C178.961 306.831 180.115 310.584 181.559 314.336C183.002 318.088 184.445 322.13 184.445 329.634C184.445 337.428 183.002 341.18 181.559 344.933C180.115 348.685 178.961 352.149 178.961 359.654C178.961 366.87 180.115 370.622 181.559 374.375C183.002 378.127 184.445 382.168 184.445 389.673C184.445 397.178 183.002 401.219 181.559 404.971C180.115 408.723 178.961 412.187 178.961 419.692C178.961 426.908 180.115 430.661 181.559 434.413C183.002 438.165 184.445 442.207 184.445 449.711C184.156 449.423 183.868 450 183.29 450Z" fill="#BC7A4E"/>
<path d="M196.857 450C196.28 450 195.702 449.423 195.702 448.845C195.702 441.629 194.836 437.877 193.97 434.124C193.104 430.372 192.239 426.62 192.239 418.826C192.239 411.321 193.104 407.28 193.97 403.528C194.836 399.775 195.702 396.312 195.702 388.807C195.702 381.591 194.836 377.838 193.97 374.086C193.104 370.334 192.239 366.581 192.239 358.788C192.239 351.283 193.104 347.242 193.97 343.489C194.836 339.737 195.702 336.273 195.702 328.768C195.702 321.264 194.836 317.8 193.97 314.047C193.104 310.295 192.239 306.543 192.239 298.749C192.239 290.956 193.104 287.203 193.97 283.451C194.836 279.698 195.702 276.235 195.702 268.73C195.702 261.514 194.836 257.761 193.97 254.009C193.104 250.257 192.239 246.504 192.239 238.711C192.239 230.917 193.104 227.165 193.97 223.412C194.836 219.66 195.702 216.196 195.702 208.691C195.702 201.475 194.836 197.723 193.97 193.97C193.104 190.218 192.239 186.466 192.239 178.672C192.239 178.095 192.816 177.518 193.393 177.518C193.97 177.518 194.548 178.095 194.548 178.672C194.548 185.888 195.414 189.641 196.28 193.393C197.146 197.146 198.011 200.898 198.011 208.691C198.011 216.196 197.146 220.237 196.28 223.99C195.414 227.742 194.548 231.206 194.548 238.711C194.548 245.927 195.414 249.679 196.28 253.432C197.146 257.184 198.011 260.936 198.011 268.73C198.011 276.235 197.146 280.276 196.28 284.028C195.414 287.781 194.548 291.244 194.548 298.749C194.548 305.965 195.414 309.718 196.28 313.47C197.146 317.223 198.011 320.975 198.011 328.768C198.011 336.562 197.146 340.314 196.28 344.067C195.414 347.819 194.548 351.283 194.548 358.788C194.548 366.004 195.414 369.756 196.28 373.509C197.146 377.261 198.011 381.013 198.011 388.807C198.011 396.312 197.146 400.353 196.28 404.105C195.414 407.858 194.548 411.321 194.548 418.826C194.548 426.042 195.414 429.795 196.28 433.547C197.146 437.299 198.011 441.052 198.011 448.845C198.011 449.423 197.434 450 196.857 450Z" fill="#BC7A4E"/>
<path d="M210.712 450C210.135 450 209.557 449.423 209.557 448.845C209.557 441.34 208.98 437.588 208.691 434.124C208.114 430.372 207.825 426.619 207.825 419.115C207.825 411.61 208.403 407.857 208.691 404.105C209.269 400.353 209.557 396.6 209.557 389.384C209.557 382.168 208.98 378.127 208.691 374.663C208.114 370.911 207.825 367.158 207.825 359.653C207.825 352.149 208.403 348.396 208.691 344.644C209.269 340.891 209.557 337.139 209.557 329.923C209.557 322.418 208.98 318.666 208.691 315.202C208.114 311.449 207.825 307.697 207.825 300.192C207.825 292.687 208.403 288.935 208.691 285.183C209.269 281.43 209.557 277.678 209.557 270.462C209.557 262.957 208.98 259.204 208.691 255.741C208.114 250.834 207.825 247.081 207.825 239.576C207.825 232.072 208.403 228.319 208.691 224.567C209.269 220.814 209.557 217.062 209.557 209.846C209.557 202.341 208.98 198.589 208.691 195.125C208.114 191.372 207.825 187.62 207.825 180.115C207.825 179.538 208.403 178.961 208.98 178.961C209.557 178.961 210.135 179.538 210.135 180.115C210.135 187.62 210.712 191.372 211.001 194.836C211.578 198.589 211.867 202.341 211.867 209.846C211.867 217.351 211.289 221.103 211.001 224.856C210.423 228.608 210.135 232.36 210.135 239.576C210.135 247.081 210.712 250.834 211.001 254.297C211.578 258.05 211.867 261.802 211.867 269.307C211.867 276.812 211.289 280.564 211.001 284.317C210.423 288.069 210.135 291.822 210.135 299.038C210.135 306.254 210.712 310.295 211.001 313.759C211.578 317.511 211.867 321.263 211.867 328.768C211.867 336.273 211.289 340.025 211.001 343.778C210.423 347.53 210.135 351.283 210.135 358.499C210.135 366.004 210.712 369.756 211.001 373.22C211.578 376.972 211.867 380.725 211.867 388.229C211.867 395.734 211.289 399.487 211.001 403.239C210.423 406.991 210.135 410.744 210.135 417.96C210.135 425.465 210.712 429.217 211.001 432.681C211.578 436.433 211.867 440.186 211.867 447.691C211.578 449.423 211.289 450 210.712 450Z" fill="#BC7A4E"/>
<path d="M224.278 450C223.701 450 223.124 449.423 223.124 448.845V179.538C223.124 178.961 223.701 178.384 224.278 178.384C224.856 178.384 225.433 178.961 225.433 179.538V448.557C225.433 449.423 224.856 450 224.278 450Z" fill="#BC7A4E"/>
<path d="M238.133 450C237.556 450 236.979 449.423 236.979 448.845C236.979 441.341 237.556 437.588 237.845 433.836C238.422 430.083 238.711 426.331 238.711 419.115C238.711 411.61 238.133 407.858 237.845 404.394C237.267 400.641 236.979 396.889 236.979 389.384C236.979 381.879 237.556 378.127 237.845 374.375C238.422 370.622 238.711 366.87 238.711 359.654C238.711 352.149 238.133 348.396 237.845 344.933C237.267 341.18 236.979 337.428 236.979 329.923C236.979 322.418 237.556 318.666 237.845 314.913C238.422 311.161 238.711 307.409 238.711 300.192C238.711 292.976 238.133 288.935 237.845 285.471C237.267 281.719 236.979 277.967 236.979 270.462C236.979 262.957 237.556 259.205 237.845 255.452C238.422 251.7 238.711 247.947 238.711 240.731C238.711 233.226 238.133 229.474 237.845 226.01C237.267 222.258 236.979 218.505 236.979 211.001C236.979 203.496 237.556 199.743 237.845 195.991C238.422 192.239 238.711 188.486 238.711 181.27C238.711 180.693 239.288 180.115 239.865 180.115C240.443 180.115 241.02 180.693 241.02 181.27C241.02 188.775 240.443 192.527 240.154 196.28C239.577 200.032 239.288 203.784 239.288 211.001C239.288 218.505 239.865 222.258 240.154 225.722C240.731 229.474 241.02 233.226 241.02 240.731C241.02 248.236 240.443 251.988 240.154 255.741C239.577 259.493 239.288 263.246 239.288 270.462C239.288 277.967 239.865 281.719 240.154 285.183C240.731 288.935 241.02 292.688 241.02 300.192C241.02 307.697 240.443 311.45 240.154 315.202C239.577 318.954 239.288 322.707 239.288 329.923C239.288 337.428 239.865 341.18 240.154 344.644C240.731 348.396 241.02 352.149 241.02 359.654C241.02 367.158 240.443 370.911 240.154 374.663C239.577 378.416 239.288 382.168 239.288 389.384C239.288 396.6 239.865 400.641 240.154 404.105C240.731 407.858 241.02 411.61 241.02 419.115C241.02 426.62 240.443 430.372 240.154 434.124C239.577 437.877 239.288 441.629 239.288 448.845C238.999 449.423 238.711 450 238.133 450Z" fill="#BC7A4E"/>
<path d="M251.7 450C251.122 450 250.545 449.423 250.545 448.845C250.545 441.341 251.411 437.299 252.277 433.547C253.143 429.795 254.009 426.331 254.009 418.826C254.009 411.61 253.143 407.858 252.277 404.105C251.411 400.353 250.545 396.6 250.545 388.807C250.545 381.302 251.411 377.261 252.277 373.509C253.143 369.756 254.009 366.292 254.009 358.788C254.009 351.571 253.143 347.819 252.277 344.067C251.411 340.314 250.545 336.562 250.545 328.768C250.545 320.975 251.411 317.223 252.277 313.47C253.143 309.718 254.009 306.254 254.009 298.749C254.009 291.533 253.143 287.781 252.277 284.028C251.411 280.276 250.545 276.523 250.545 268.73C250.545 261.225 251.411 257.184 252.277 253.432C253.143 249.679 254.009 246.215 254.009 238.711C254.009 231.494 253.143 227.742 252.277 223.99C251.411 220.237 250.545 216.485 250.545 208.691C250.545 201.187 251.411 197.146 252.277 193.393C253.143 189.641 254.009 186.177 254.009 178.672C254.009 178.095 254.586 177.518 255.163 177.518C255.741 177.518 256.318 178.095 256.318 178.672C256.318 186.177 255.452 190.218 254.586 193.97C253.72 197.723 252.854 201.187 252.854 208.691C252.854 215.908 253.72 219.66 254.586 223.412C255.452 227.165 256.318 230.917 256.318 238.711C256.318 246.504 255.452 250.257 254.586 254.009C253.72 257.761 252.854 261.225 252.854 268.73C252.854 275.946 253.72 279.698 254.586 283.451C255.452 287.203 256.318 290.956 256.318 298.749C256.318 306.543 255.452 310.295 254.586 314.047C253.72 317.8 252.854 321.264 252.854 328.768C252.854 336.273 253.72 339.737 254.586 343.489C255.452 347.242 256.318 350.994 256.318 358.788C256.318 366.292 255.452 370.334 254.586 374.086C253.72 377.838 252.854 381.302 252.854 388.807C252.854 396.023 253.72 399.775 254.586 403.528C255.452 407.28 256.318 411.033 256.318 418.826C256.318 426.331 255.452 430.372 254.586 434.124C253.72 437.877 252.854 441.341 252.854 448.845C252.854 449.423 252.277 450 251.7 450Z" fill="#BC7A4E"/>
<path d="M265.555 450C264.978 450 264.4 449.423 264.4 448.845C264.4 441.052 265.843 437.299 267.287 433.547C268.73 429.795 269.885 426.331 269.885 418.826C269.885 411.61 268.73 407.858 267.287 404.105C265.843 400.353 264.4 396.312 264.4 388.807C264.4 381.302 265.843 377.261 267.287 373.509C268.73 369.756 269.885 366.292 269.885 358.788C269.885 351.571 268.73 347.819 267.287 344.067C265.843 340.314 264.4 336.273 264.4 328.768C264.4 320.975 265.843 317.223 267.287 313.47C268.73 309.718 269.885 306.254 269.885 298.749C269.885 291.533 268.73 287.781 267.287 284.028C265.843 280.276 264.4 276.235 264.4 268.73C264.4 260.936 265.843 257.184 267.287 253.432C268.73 249.679 269.885 246.215 269.885 238.711C269.885 231.494 268.73 227.742 267.287 223.99C265.843 220.237 264.4 216.196 264.4 208.691C264.4 200.898 265.843 197.146 267.287 193.393C268.73 189.641 269.885 186.177 269.885 178.672C269.885 178.095 270.462 177.518 271.039 177.518C271.616 177.518 272.194 178.095 272.194 178.672C272.194 186.466 270.75 190.218 269.307 193.97C267.864 197.723 266.709 201.187 266.709 208.691C266.709 215.908 267.864 219.66 269.307 223.412C270.75 227.165 272.194 231.206 272.194 238.711C272.194 246.504 270.75 250.257 269.307 254.009C267.864 257.761 266.709 261.225 266.709 268.73C266.709 275.946 267.864 279.698 269.307 283.451C270.75 287.203 272.194 291.244 272.194 298.749C272.194 306.543 270.75 310.295 269.307 314.047C267.864 317.8 266.709 321.264 266.709 328.768C266.709 336.273 267.864 339.737 269.307 343.489C270.75 347.242 272.194 351.283 272.194 358.788C272.194 366.581 270.75 370.334 269.307 374.086C267.864 377.838 266.709 381.302 266.709 388.807C266.709 396.023 267.864 399.775 269.307 403.528C270.75 407.28 272.194 411.321 272.194 418.826C272.194 426.62 270.75 430.372 269.307 434.124C267.864 437.877 266.709 441.341 266.709 448.845C266.421 449.423 266.132 450 265.555 450Z" fill="#BC7A4E"/>
<path d="M279.121 450C278.544 450 277.967 449.423 277.967 448.845C277.967 441.052 279.698 437.3 281.719 433.547C283.451 429.795 285.183 426.331 285.183 419.115C285.183 411.899 283.451 408.435 281.719 404.683C279.987 400.93 277.967 396.889 277.967 389.384C277.967 381.591 279.987 377.838 281.719 374.086C283.451 370.334 285.183 366.87 285.183 359.654C285.183 352.437 283.451 348.974 281.719 345.221C279.987 341.469 277.967 337.428 277.967 329.923C277.967 322.418 279.698 318.377 281.719 314.625C283.451 310.872 285.183 307.409 285.183 300.192C285.183 292.976 283.451 289.513 281.719 285.76C279.987 282.008 277.967 277.967 277.967 270.462C277.967 262.668 279.698 258.916 281.719 255.164C283.451 251.411 285.183 247.947 285.183 240.731C285.183 233.515 283.451 230.051 281.719 226.299C279.987 222.547 277.967 218.505 277.967 211.001C277.967 203.207 279.698 199.455 281.719 195.702C283.451 191.95 285.183 188.486 285.183 181.27C285.183 180.693 285.76 180.115 286.337 180.115C286.915 180.115 287.492 180.693 287.492 181.27C287.492 189.064 285.76 192.816 283.739 196.568C282.008 200.321 280.276 203.784 280.276 211.001C280.276 218.217 282.008 221.681 283.739 225.433C285.471 229.185 287.492 233.226 287.492 240.731C287.492 248.236 285.76 252.277 283.739 256.03C282.008 259.782 280.276 263.246 280.276 270.462C280.276 277.678 282.008 281.142 283.739 284.894C285.471 288.647 287.492 292.688 287.492 300.192C287.492 307.986 285.471 311.738 283.739 315.491C282.008 319.243 280.276 322.707 280.276 329.923C280.276 337.139 282.008 340.603 283.739 344.355C285.471 348.108 287.492 352.149 287.492 359.654C287.492 367.447 285.76 371.199 283.739 374.952C282.008 378.704 280.276 382.168 280.276 389.384C280.276 396.6 282.008 400.064 283.739 403.817C285.471 407.569 287.492 411.61 287.492 419.115C287.492 426.908 285.76 430.661 283.739 434.413C282.008 438.166 280.276 441.629 280.276 448.845C280.276 449.423 279.698 450 279.121 450Z" fill="#BC7A4E"/>
<path d="M292.976 450C292.399 450 291.822 449.423 291.822 448.845C291.822 441.052 294.131 437.011 296.44 433.258C298.749 429.506 300.77 426.042 300.77 418.826C300.77 411.61 298.749 408.146 296.44 404.394C294.131 400.641 291.822 396.6 291.822 388.807C291.822 381.013 294.131 376.972 296.44 373.22C298.749 369.468 300.77 366.004 300.77 358.788C300.77 351.571 298.749 348.108 296.44 344.355C294.131 340.603 291.822 336.562 291.822 328.768C291.822 320.975 294.131 316.934 296.44 313.181C298.749 309.429 300.77 305.965 300.77 298.749C300.77 291.533 298.749 288.069 296.44 284.317C294.131 280.564 291.822 276.523 291.822 268.73C291.822 260.936 294.131 256.895 296.44 253.143C298.749 249.391 300.77 245.927 300.77 238.711C300.77 231.494 298.749 228.031 296.44 224.278C294.131 220.526 291.822 216.485 291.822 208.691C291.822 200.898 294.131 196.857 296.44 193.104C298.749 189.352 300.77 185.888 300.77 178.672C300.77 178.095 301.347 177.518 301.924 177.518C302.502 177.518 303.079 178.095 303.079 178.672C303.079 186.466 300.77 190.507 298.461 194.259C296.151 198.011 294.131 201.475 294.131 208.691C294.131 215.908 296.151 219.371 298.461 223.124C300.77 226.876 303.079 230.917 303.079 238.711C303.079 246.504 300.77 250.545 298.461 254.298C296.151 258.05 294.131 261.514 294.131 268.73C294.131 275.946 296.151 279.41 298.461 283.162C300.77 286.915 303.079 290.956 303.079 298.749C303.079 306.543 300.77 310.584 298.461 314.336C296.151 318.088 294.131 321.552 294.131 328.768C294.131 335.985 296.151 339.448 298.461 343.201C300.77 346.953 303.079 350.994 303.079 358.788C303.079 366.581 300.77 370.622 298.461 374.375C296.151 378.127 294.131 381.591 294.131 388.807C294.131 396.023 296.151 399.487 298.461 403.239C300.77 406.992 303.079 411.033 303.079 418.826C303.079 426.62 300.77 430.661 298.461 434.413C296.151 438.165 294.131 441.629 294.131 448.845C294.131 449.423 293.554 450 292.976 450Z" fill="#BC7A4E"/>
<path d="M306.543 450C305.965 450 305.388 449.423 305.388 448.845C305.388 441.052 308.275 437.011 310.872 433.258C313.47 429.506 316.068 426.042 316.068 418.826C316.068 411.61 313.47 408.146 310.872 404.394C307.986 400.641 305.388 396.6 305.388 388.807C305.388 381.013 308.275 376.972 310.872 373.22C313.47 369.468 316.068 366.004 316.068 358.788C316.068 351.571 313.47 348.108 310.872 344.355C307.986 340.603 305.388 336.562 305.388 328.768C305.388 320.975 308.275 316.934 310.872 313.181C313.47 309.429 316.068 305.965 316.068 298.749C316.068 291.533 313.47 288.069 310.872 284.317C307.986 280.564 305.388 276.523 305.388 268.73C305.388 260.936 308.275 256.895 310.872 253.143C313.47 249.391 316.068 245.927 316.068 238.711C316.068 231.494 313.47 228.031 310.872 224.278C307.986 220.526 305.388 216.485 305.388 208.691C305.388 200.898 308.275 196.857 310.872 193.104C313.47 189.352 316.068 185.888 316.068 178.672C316.068 178.095 316.645 177.518 317.223 177.518C317.8 177.518 318.377 178.095 318.377 178.672C318.377 186.466 315.491 190.507 312.893 194.259C310.295 198.011 307.697 201.475 307.697 208.691C307.697 215.908 310.295 219.371 312.893 223.124C315.779 226.876 318.377 230.917 318.377 238.711C318.377 246.504 315.491 250.545 312.893 254.298C310.295 258.05 307.697 261.514 307.697 268.73C307.697 275.946 310.295 279.41 312.893 283.162C315.779 286.915 318.377 290.956 318.377 298.749C318.377 306.543 315.491 310.584 312.893 314.336C310.295 318.088 307.697 321.552 307.697 328.768C307.697 335.985 310.295 339.448 312.893 343.201C315.779 346.953 318.377 350.994 318.377 358.788C318.377 366.581 315.491 370.622 312.893 374.375C310.295 378.127 307.697 381.591 307.697 388.807C307.697 396.023 310.295 399.487 312.893 403.239C315.779 406.992 318.377 411.033 318.377 418.826C318.377 426.62 315.491 430.661 312.893 434.413C310.295 438.165 307.697 441.629 307.697 448.845C307.697 449.423 307.12 450 306.543 450Z" fill="#BC7A4E"/>
<path d="M317.223 180.693C316.645 180.693 316.068 180.116 316.068 179.827C312.604 131.912 272.482 94.3875 224.278 94.3875C176.074 94.3875 135.953 131.912 132.489 179.827C132.489 180.404 131.911 180.981 131.334 180.693C130.757 180.693 130.18 180.116 130.468 179.538C133.932 130.468 175.208 92.0784 224.278 92.0784C273.348 92.0784 314.913 130.468 318.089 179.538C318.377 180.116 317.8 180.693 317.223 180.693Z" fill="#BC7A4E"/>
<path d="M224.278 94.0987C223.701 94.0987 223.124 93.5214 223.124 92.9441V37.524C223.124 36.9467 223.701 36.3694 224.278 36.3694C224.856 36.3694 225.433 36.9467 225.433 37.524V93.2328C225.433 93.8101 224.856 94.0987 224.278 94.0987Z" fill="#BC7A4E"/>
<path d="M192.527 99.8717C191.95 99.8717 191.661 99.5831 191.373 99.2944L172.611 47.0494C172.322 46.4721 172.611 45.8948 173.188 45.6062C173.765 45.3175 174.342 45.6062 174.631 46.1835L193.393 98.4285C193.682 99.0058 193.393 99.5831 192.816 99.8717H192.527Z" fill="#BC7A4E"/>
<path d="M165.394 115.17C165.106 115.17 164.817 115.17 164.528 114.881L129.891 72.7388C129.602 72.1615 129.602 71.5842 130.18 71.2956C130.757 71.0069 131.334 71.0069 131.623 71.5842L166.26 113.727C166.549 114.304 166.549 114.881 165.972 115.17C165.972 115.17 165.683 115.17 165.394 115.17Z" fill="#BC7A4E"/>
<path d="M144.323 139.416C144.034 139.416 144.034 139.416 143.746 139.416L95.2531 111.995C94.6759 111.706 94.6759 111.129 94.9645 110.551C95.2531 109.974 95.8304 109.974 96.4077 110.263L144.9 137.684C145.478 137.973 145.478 138.55 145.189 139.128C145.189 139.416 144.9 139.416 144.323 139.416Z" fill="#BC7A4E"/>
<path d="M133.066 169.724C132.777 169.724 132.777 169.724 133.066 169.724L78.2231 159.333C77.6458 159.333 77.3572 158.755 77.3572 158.178C77.3572 157.601 77.9345 157.312 78.5118 157.312L133.066 167.415C133.643 167.415 133.932 167.992 133.932 168.569C133.932 169.147 133.355 169.724 133.066 169.724Z" fill="#BC7A4E"/>
<path d="M207.825 95.8306C207.248 95.8306 206.959 95.542 206.671 94.9647L197.146 40.4104C197.146 39.8332 197.434 39.2559 198.011 39.2559C198.589 39.2559 199.166 39.5445 199.166 40.1218L208.691 94.3874C208.98 94.9647 208.403 95.5419 207.825 95.8306Z" fill="#BC7A4E"/>
<path d="M178.672 106.222C178.383 106.222 177.806 105.933 177.806 105.644L150.096 57.7291C149.807 57.1518 150.096 56.5745 150.385 56.2858C150.962 55.9972 151.539 56.2858 151.828 56.5745L179.538 104.49C179.827 105.067 179.538 105.644 179.249 105.933C178.961 106.222 178.672 106.222 178.672 106.222Z" fill="#BC7A4E"/>
<path d="M153.849 126.427C153.56 126.427 153.271 126.427 153.271 126.139L110.84 90.3464C110.263 90.0578 110.263 89.1918 110.84 88.9032C111.129 88.3259 111.995 88.3259 112.283 88.9032L154.714 124.695C155.292 124.984 155.292 125.85 154.714 126.139C154.426 126.427 154.137 126.427 153.849 126.427Z" fill="#BC7A4E"/>
<path d="M137.396 153.849H137.107L86.0165 135.087C85.4392 134.798 85.1505 134.221 85.4392 133.643C85.7278 133.066 86.3051 132.777 86.8824 133.066L137.973 151.828C138.55 152.117 138.839 152.694 138.55 153.271C138.261 153.56 137.973 153.849 137.396 153.849Z" fill="#BC7A4E"/>
<path d="M256.03 99.8717H255.741C255.164 99.5831 254.875 99.0058 255.164 98.4285L273.637 46.1835C273.926 45.6062 274.503 45.3175 275.08 45.6062C275.658 45.8948 275.946 46.4721 275.658 47.0494L256.896 99.2944C256.896 99.5831 256.607 99.8717 256.03 99.8717Z" fill="#BC7A4E"/>
<path d="M283.162 115.17C282.874 115.17 282.585 115.17 282.585 114.881C282.008 114.593 282.008 113.727 282.296 113.438L316.934 71.2956C317.223 70.7183 318.089 70.7183 318.377 71.007C318.955 71.2956 318.955 72.1616 318.666 72.4502L284.028 114.593C284.028 115.17 283.451 115.17 283.162 115.17Z" fill="#BC7A4E"/>
<path d="M304.234 139.416C303.945 139.416 303.368 139.127 303.368 138.839C303.079 138.261 303.368 137.684 303.656 137.395L352.149 109.974C352.726 109.685 353.303 109.974 353.592 110.263C353.881 110.84 353.592 111.417 353.303 111.706L304.811 139.127C304.522 139.416 304.522 139.416 304.234 139.416Z" fill="#BC7A4E"/>
<path d="M315.779 169.724C315.202 169.724 314.914 169.435 314.625 168.858C314.625 168.281 314.914 167.704 315.491 167.704L370.045 157.312C370.622 157.312 371.2 157.601 371.2 158.178C371.2 158.755 370.911 159.333 370.334 159.333L315.779 169.724Z" fill="#BC7A4E"/>
<path d="M241.02 95.8305C240.731 95.8305 240.731 95.8305 241.02 95.8305C240.154 95.8305 239.865 95.2532 239.865 94.6759L249.391 40.4104C249.391 39.8331 249.968 39.5444 250.545 39.5444C251.123 39.5444 251.411 40.1217 251.411 40.699L241.886 94.9646C241.886 95.2532 241.309 95.8305 241.02 95.8305Z" fill="#BC7A4E"/>
<path d="M270.173 106.222C269.885 106.222 269.885 106.222 269.596 106.222C269.019 105.933 269.019 105.356 269.307 104.779L297.017 56.8633C297.306 56.286 297.883 56.286 298.461 56.5746C299.038 56.8633 299.038 57.4405 298.749 58.0178L271.039 105.933C270.751 105.933 270.462 106.222 270.173 106.222Z" fill="#BC7A4E"/>
<path d="M294.708 126.427C294.419 126.427 294.131 126.427 293.842 126.138C293.554 125.561 293.554 124.984 293.842 124.695L336.273 88.903C336.851 88.6144 337.428 88.6144 337.716 88.903C338.005 89.4803 338.005 90.0576 337.716 90.3462L295.285 126.138C295.285 126.427 294.997 126.427 294.708 126.427Z" fill="#BC7A4E"/>
<path d="M311.161 153.848C310.584 153.848 310.295 153.56 310.006 153.271C309.718 152.694 310.006 152.117 310.584 151.828L361.674 133.066C362.251 132.777 362.829 133.066 363.117 133.643C363.406 134.22 363.117 134.798 362.54 135.086L311.45 153.848H311.161Z" fill="#BC7A4E"/>
<path d="M1.15459 180.692C0.577293 180.692 0 180.115 0 179.538C0 178.961 0.577293 178.383 1.15459 178.383H448.845C449.423 178.383 450 178.961 450 179.538C450 180.115 449.423 180.692 448.845 180.692H1.15459Z" fill="#BC7A4E"/>
<path d="M262.091 179.538C258.916 161.353 243.329 147.498 224.278 147.498C205.228 147.498 189.641 161.353 186.466 179.538H262.091Z" fill="#BC7A4E"/>
</svg>
