<svg width="180" height="172" viewBox="0 0 180 172" fill="none" xmlns="http://www.w3.org/2000/svg">
<path fill-rule="evenodd" clip-rule="evenodd" d="M88.9987 171.315C88.9987 171.625 89.3189 171.625 89.6391 171.625H90.28C90.6008 171.315 90.921 171.006 90.6008 170.387C90.6008 170.387 88.6779 165.437 89.9598 160.487C90.6008 158.631 91.5619 157.084 92.523 155.537C94.1251 153.062 95.407 150.897 95.7272 147.184C96.048 144.709 94.766 142.544 93.8049 140.996C93.7073 140.808 93.6097 140.623 93.5134 140.44C92.6617 138.823 91.9147 137.405 92.2029 135.737C92.7431 132.869 93.9664 130.88 95.1048 129.028C95.3168 128.683 95.526 128.343 95.7272 128.003C95.9625 127.549 96.217 127.095 96.4766 126.631C97.2776 125.201 98.127 123.685 98.6111 121.815C99.2521 119.65 99.2521 117.794 99.2521 116.247C101.791 120.23 101.501 123.304 101.183 126.669L101.174 126.766C100.854 129.24 100.854 131.716 101.495 134.5C102.681 138.793 105.238 140.174 107.39 141.336C107.564 141.43 107.736 141.523 107.903 141.615C108.087 141.722 108.267 141.824 108.442 141.924C109.791 142.694 110.861 143.304 111.428 144.4C112.193 145.877 112.147 147.159 112.096 148.556C112.083 148.914 112.069 149.28 112.069 149.659C111.748 151.516 111.748 153.681 112.71 156.465C114.953 162.962 122.643 164.819 122.964 164.819C123.605 164.819 123.925 164.819 124.886 164.2C125.207 163.891 125.207 163.272 124.886 162.962C124.886 162.962 121.041 158.94 120.4 153.99C120.08 152.136 120.4 150.281 120.72 148.426L120.721 148.422C120.765 148.039 120.815 147.656 120.865 147.271C121.181 144.859 121.505 142.385 120.4 139.45C119.823 137.22 118.204 135.994 116.718 134.868C116.555 134.745 116.393 134.622 116.235 134.5C114.632 133.262 113.03 132.025 112.71 130.169C111.898 127.294 112.229 125.082 112.545 122.972C112.603 122.584 112.66 122.2 112.71 121.815C112.772 121.396 112.846 120.977 112.921 120.555C113.23 118.8 113.547 117.005 113.03 115.009C112.71 113.154 112.07 111.608 111.429 110.062C115.274 112.846 116.235 115.628 117.196 118.722C117.236 118.855 117.275 118.99 117.315 119.125C117.92 121.191 118.596 123.495 120.4 125.528C123.221 129.16 126.349 129.535 128.884 129.839C128.94 129.846 128.996 129.852 129.052 129.859C130.654 129.859 131.936 130.169 133.218 131.097C134.82 132.644 135.46 133.881 136.101 135.737C136.742 137.594 137.703 139.759 139.626 141.925C144.13 146.564 151.167 146.04 152.298 145.956C152.374 145.95 152.423 145.947 152.443 145.947C152.763 145.947 153.404 145.637 153.404 145.019C153.404 144.4 153.404 144.091 152.763 143.781C152.443 143.781 147.636 141.615 145.073 137.284C144.112 135.428 143.471 133.881 143.151 132.025C143.125 131.926 143.1 131.827 143.074 131.727C142.456 129.328 141.767 126.655 139.306 123.981C138.004 122.474 136.28 121.986 134.648 121.525C134.271 121.418 133.899 121.313 133.538 121.197C131.615 120.887 130.013 120.269 128.732 118.722C126.809 115.937 126.168 113.463 125.527 110.988C125.399 110.555 125.284 110.123 125.169 109.691C124.707 107.957 124.246 106.224 122.964 104.491C122.799 104.253 122.64 104.02 122.485 103.793C121.43 102.248 120.556 100.969 119.439 100.16C123.909 101.023 125.885 103.224 127.944 105.519C128.099 105.691 128.254 105.865 128.411 106.038C130.012 107.893 131.616 109.751 134.179 111.297C138.152 113.489 140.868 112.769 143.219 112.146C143.522 112.065 143.819 111.986 144.112 111.916C144.477 111.845 144.826 111.759 145.166 111.674C146.315 111.389 147.361 111.129 148.598 111.607C150.465 112.379 151.444 113.365 152.458 114.388C152.663 114.594 152.869 114.802 153.084 115.009C153.567 115.383 154.021 115.812 154.499 116.264C155.605 117.31 156.837 118.476 158.851 119.341C165.26 122.434 171.989 118.722 172.309 118.413C172.95 118.103 172.95 117.794 172.95 117.175C172.63 116.556 172.309 116.247 171.668 116.247C171.668 116.247 166.221 115.937 162.055 112.844C160.602 111.722 159.677 110.599 158.561 109.246C158.446 109.107 158.33 108.966 158.21 108.822C156.608 106.656 154.686 104.491 151.481 102.944C148.918 101.706 146.675 102.015 144.753 102.325C142.83 102.634 141.228 102.634 139.306 101.706C136.422 99.8504 134.82 97.9939 133.218 95.8282C132.999 95.5648 132.781 95.2924 132.558 95.0141C131.471 93.6581 130.272 92.1615 128.411 90.8781C126.809 89.641 125.207 89.0222 123.605 88.4033C128.091 87.7845 130.975 89.0222 133.858 90.569C134.315 90.7579 134.771 90.9596 135.233 91.1638C137.041 91.9624 138.931 92.7975 141.228 93.0437C145.93 93.6492 148.486 91.5896 150.394 90.0517C150.436 90.0176 150.478 89.9837 150.52 89.9501C150.707 89.8146 150.888 89.6791 151.064 89.5465C152.096 88.7709 152.997 88.0942 154.365 88.0942C156.608 88.0942 158.21 88.7125 159.812 89.641C161.735 90.5688 163.658 91.497 166.862 91.8066C173.671 92.0923 178.018 87.0962 178.893 86.0906C178.966 86.0078 179.014 85.9521 179.038 85.9286C179.359 85.6189 179.359 85 179.038 84.6909C178.718 84.3821 178.397 84.0724 177.757 84.3818C177.757 84.3818 172.63 86.2377 167.503 85C165.58 84.6909 163.978 83.7629 162.376 82.8344C159.812 81.2876 157.569 80.0505 153.724 79.7407C151.161 79.4316 148.918 80.6687 147.316 81.5973C147.121 81.6914 146.929 81.7856 146.74 81.8785C145.065 82.7008 143.596 83.4218 141.869 83.1441C138.896 82.6222 136.836 81.4406 134.918 80.3408C134.561 80.1364 134.21 79.9348 133.858 79.7407C133.387 79.5134 132.916 79.2674 132.435 79.0164C130.955 78.2434 129.385 77.4235 127.45 76.9563C125.207 76.338 123.284 76.338 121.682 76.338C125.806 73.8872 128.988 74.1665 132.472 74.4723L132.577 74.4815C135.14 74.7912 137.703 74.7912 140.587 74.1724C145.033 73.0276 146.463 70.5593 147.667 68.4816C147.765 68.313 147.861 68.147 147.957 67.9846C148.066 67.8084 148.172 67.6362 148.274 67.4685C149.072 66.1639 149.705 65.1297 150.841 64.5818C152.371 63.8429 153.697 63.8881 155.145 63.9374C155.516 63.9501 155.895 63.963 156.288 63.963C158.21 64.2721 160.453 64.2721 163.337 63.3441C170.066 61.1785 171.989 53.7535 171.989 53.4442C171.989 53.1348 171.668 52.516 171.348 52.2067C171.028 51.8973 170.387 51.8973 170.066 52.2067C170.066 52.2067 165.901 55.9192 160.774 56.5379C158.852 56.8472 156.93 56.538 155.007 56.2287C154.609 56.186 154.211 56.1373 153.811 56.0886C151.315 55.7838 148.753 55.4711 145.714 56.5379C143.405 57.0953 142.135 58.6573 140.969 60.0924C140.841 60.2502 140.714 60.4064 140.587 60.5597C139.306 62.1059 138.023 63.6534 136.101 63.963C133.125 64.7466 130.834 64.4272 128.65 64.1227C128.247 64.0667 127.848 64.0111 127.45 63.963C127.016 63.9032 126.583 63.8319 126.148 63.7602C124.328 63.4606 122.469 63.1544 120.4 63.6533C118.48 63.9626 116.88 64.5802 115.28 65.1976L115.273 65.2001C118.157 61.4876 121.041 60.5597 124.245 59.6317C124.385 59.5933 124.525 59.5549 124.667 59.5162C126.805 58.9313 129.191 58.2789 131.295 56.5379C135.055 53.8149 135.444 50.7961 135.76 48.3494C135.767 48.2943 135.774 48.2394 135.781 48.1849C135.781 46.638 136.101 45.4005 137.063 44.163C138.665 42.6161 139.946 41.9974 141.869 41.3786C143.791 40.7599 146.034 39.8318 148.277 37.9755C153.082 33.6264 152.54 26.8317 152.453 25.7407C152.447 25.6676 152.443 25.6201 152.443 25.6006C152.443 25.2913 152.122 24.6725 151.481 24.6725C150.841 24.6725 150.52 24.6725 150.2 25.2913C150.2 25.6006 147.957 30.2412 143.471 32.7162C141.548 33.6443 139.946 34.263 138.024 34.5725C137.922 34.597 137.82 34.6216 137.717 34.6463C135.231 35.2432 132.462 35.9081 129.693 38.2849C127.819 39.5773 127.287 41.3016 126.789 42.9166C126.691 43.2345 126.594 43.5483 126.488 43.8536C126.168 45.7099 125.527 47.2567 123.925 48.4942C121.042 50.3501 118.478 50.969 115.916 51.5876C115.467 51.7114 115.017 51.8231 114.569 51.9344C112.774 52.3799 110.98 52.8254 109.185 54.0629C108.939 54.2211 108.699 54.3743 108.464 54.5237C106.863 55.5428 105.537 56.3868 104.699 57.466C105.593 53.1497 107.874 51.2421 110.251 49.254C110.429 49.1046 110.608 48.9549 110.787 48.8036C112.71 47.2567 114.632 45.7099 116.235 43.2349C118.505 39.3986 117.759 36.7759 117.114 34.5068C117.03 34.214 116.949 33.9271 116.875 33.6443C116.802 33.2914 116.713 32.9547 116.625 32.6267C116.33 31.5168 116.061 30.5071 116.555 29.3131C117.355 27.5114 118.377 26.5663 119.435 25.5869C119.649 25.389 119.864 25.1898 120.08 24.9818C120.466 24.5153 120.911 24.077 121.379 23.6158C122.463 22.5479 123.67 21.3578 124.566 19.4132C127.77 13.2257 123.925 6.72884 123.605 6.41949C123.284 5.80075 122.964 5.80075 122.323 5.80075C121.682 6.11012 121.362 6.41949 121.362 7.03826C121.362 7.03826 121.041 12.2976 117.837 16.3194C116.674 17.7229 115.511 18.617 114.109 19.6949C113.966 19.8051 113.82 19.9172 113.671 20.0319C111.428 21.5788 109.185 23.435 107.583 26.5287C106.301 29.0037 106.622 31.1693 106.942 33.0256C107.262 34.8818 107.262 36.4287 106.301 38.2849C104.379 41.0693 102.456 42.6161 100.213 44.163C99.9407 44.3735 99.6589 44.584 99.3709 44.7991C97.9664 45.8484 96.4163 47.0064 95.0862 48.8036C93.8049 50.3504 93.164 51.8973 92.523 53.4442C91.8821 49.1129 93.164 46.3286 94.7661 43.5443C94.9617 43.1034 95.1707 42.6625 95.3821 42.2164C96.2093 40.4713 97.0743 38.6462 97.3292 36.4287C97.9562 31.8894 95.8237 29.4221 94.2309 27.5793C94.1953 27.5382 94.1601 27.4974 94.1251 27.4569C93.9849 27.2763 93.8446 27.1023 93.7074 26.932C92.904 25.9353 92.2029 25.0656 92.2029 23.7444C92.2029 21.5788 92.8438 20.0319 93.8049 18.485C94.766 16.6288 95.7272 14.7726 96.048 11.6789C96.3432 5.40201 91.1883 1.23014 90.1335 0.376483C90.0445 0.304486 89.9847 0.256093 89.9598 0.23203C89.6391 -0.0773432 88.9987 -0.0773432 88.6779 0.23203C88.358 0.541212 88.0372 0.851158 88.3578 1.46952C88.3578 1.46952 90.28 6.41949 88.9987 11.3694C88.3585 13.2235 87.3983 14.7689 86.4383 16.314L86.4349 16.3194C84.8329 18.7944 83.551 20.96 83.2308 24.6725C82.9106 27.1475 84.1919 29.3131 85.153 30.8599C85.2502 31.0476 85.3475 31.232 85.4433 31.414C86.296 33.0321 87.0435 34.4507 86.7557 36.1193C86.2152 38.9889 84.9914 40.9785 83.8524 42.8303C83.6406 43.1746 83.4318 43.5141 83.2308 43.8536C82.9951 44.3087 82.7402 44.7638 82.4802 45.2281C81.6796 46.6573 80.8306 48.1729 80.3468 50.0411C79.7059 52.2067 79.7059 54.0629 79.7059 55.6098C77.1671 51.6263 77.457 48.5533 77.7744 45.1883L77.7836 45.0911C78.1038 42.6161 78.1038 40.1411 77.4628 37.3568C76.2777 33.0643 73.7213 31.6836 71.5693 30.5212C71.3947 30.4269 71.2228 30.3341 71.0546 30.2412C70.8717 30.1353 70.693 30.0334 70.519 29.9341C69.1682 29.1638 68.0974 28.5531 67.5296 27.4569C66.7649 25.9799 66.8117 24.6988 66.8628 23.3019C66.8759 22.9432 66.8893 22.5768 66.8893 22.1975C67.2095 20.3413 67.2095 18.1757 66.2484 15.3913C64.0053 8.89448 56.3149 7.03826 55.9945 7.03826C55.6741 7.03826 55.0333 7.34762 54.7128 7.65698C54.3924 7.96634 54.3924 8.58512 54.7128 8.89449C54.7128 8.89449 58.5579 12.9163 59.1988 17.8663C59.5192 19.7225 59.1988 21.5788 58.8783 23.435C58.8342 23.8189 58.7839 24.2029 58.7334 24.5885C58.4177 26.999 58.0938 29.473 59.1988 32.4068C59.7762 34.6367 61.394 35.862 62.8805 36.9879C63.0439 37.1116 63.2057 37.2342 63.3644 37.3568C64.9665 38.5943 66.5685 39.8318 66.8893 41.688C67.7009 44.5616 67.3701 46.7734 67.0548 48.8823C66.9967 49.2709 66.9391 49.656 66.8893 50.0411C66.8273 50.4596 66.7534 50.8781 66.679 51.2988C66.3687 53.0553 66.0514 54.8506 66.5685 56.8473C66.8893 58.7035 67.5296 60.2505 68.1706 61.7973C64.3255 59.0129 63.3644 56.2285 62.4033 53.1348C62.3635 53.0005 62.3238 52.865 62.2837 52.7285C61.6779 50.6634 61.0021 48.3599 59.1988 46.3286C56.378 42.6974 53.2507 42.3219 50.7165 42.0177C50.6598 42.0109 50.6034 42.0041 50.5473 41.9974C48.9451 41.9974 47.6634 41.688 46.3817 40.7599C44.7796 39.213 44.1387 37.9755 43.4979 36.1193C42.857 34.263 41.8957 32.0974 39.9732 29.9319C35.4687 25.2928 28.4314 25.8166 27.3012 25.9007C27.2255 25.9063 27.1763 25.91 27.1561 25.91C26.8357 25.91 26.1948 26.2193 26.1948 26.8381C25.8744 27.4569 26.1948 27.7662 26.8357 28.0756C26.8357 28.0756 31.6421 30.2412 34.2055 33.3349C35.1668 35.1912 35.8076 36.738 36.1281 38.5943C36.1536 38.6928 36.1791 38.7918 36.2047 38.8913C36.823 41.2909 37.5118 43.9645 39.9732 46.638C41.3119 48.4475 43.098 48.961 44.7708 49.442C45.1 49.5366 45.4248 49.63 45.7409 49.7317C47.6634 50.0411 49.2656 50.6598 50.5473 52.2067C52.4696 54.9908 53.1105 57.4656 53.7514 59.9401C53.8795 60.3732 53.995 60.807 54.1104 61.2402C54.5718 62.9727 55.0332 64.7052 56.3149 66.4378C56.4788 66.6751 56.6374 66.9074 56.7921 67.134C57.8477 68.6797 58.7218 69.9597 59.8396 70.769C55.369 69.9059 53.3934 67.704 51.3342 65.4091C51.1795 65.2367 51.0244 65.0638 50.8677 64.891C49.2662 63.0358 47.6624 61.1779 45.1 59.6317C41.1267 57.4395 38.4103 58.1598 36.0601 58.7829C35.7569 58.8634 35.4597 58.9421 35.1668 59.0129C34.8013 59.0834 34.4525 59.17 34.1128 59.2544C32.9632 59.5399 31.9175 59.7997 30.6808 59.322C28.8143 58.5499 27.8353 57.5633 26.8207 56.5408C26.616 56.3346 26.41 56.1269 26.1948 55.9192C25.7116 55.5459 25.2575 55.1163 24.7797 54.6644C23.6737 53.6182 22.4412 52.4522 20.4272 51.588C14.0187 48.4942 7.28968 52.2067 6.96926 52.516C6.32842 52.8255 6.32842 53.1348 6.32842 53.7535C6.64884 54.3723 6.96926 54.6817 7.61015 54.6817C7.61015 54.6817 13.0574 54.991 17.2229 58.0848C18.6765 59.2073 19.6025 60.3301 20.719 61.6839C20.8331 61.8223 20.9492 61.963 21.068 62.1065C22.6702 64.2721 24.5927 66.4378 27.797 67.9846C30.3604 69.2222 32.6034 68.9131 34.526 68.6034C36.4485 68.2943 38.0506 68.2943 39.9732 69.2222C42.857 71.0782 44.4592 72.9347 46.0613 75.1003C46.2795 75.3637 46.4978 75.636 46.7207 75.9143C47.8073 77.2703 49.0066 78.767 50.8677 80.0505C52.4698 81.2876 54.072 81.9064 55.6741 82.5252C51.1881 83.1441 48.3043 81.9064 45.4204 80.3596C44.9638 80.1707 44.5072 79.969 44.0452 79.7648C42.2377 78.9662 40.3474 78.131 38.0506 77.8848C33.3491 77.2795 30.7938 79.3384 28.8851 80.8763C28.8425 80.9106 28.8002 80.9447 28.7583 80.9784C28.5712 81.1138 28.391 81.2492 28.2147 81.3818C27.1824 82.1574 26.2815 82.8344 24.9132 82.8344C22.6702 82.8344 21.068 82.2161 19.4659 81.2876C17.5434 80.3596 15.6208 79.4316 12.4165 79.1219C5.60602 78.8362 1.25825 83.8343 0.384686 84.8385C0.312946 84.921 0.264637 84.9765 0.24032 85C-0.0801065 85.3097 -0.0801065 85.9286 0.24032 86.2377C0.560548 86.5466 0.881567 86.8563 1.52202 86.5468C1.52202 86.5468 6.64885 84.6909 11.7757 85.9286C13.6982 86.2377 15.3003 87.1657 16.9025 88.0942C19.4659 89.641 21.7089 90.8781 25.554 91.1878C28.1174 91.4969 30.3604 90.2598 31.9625 89.3313C32.2683 89.1837 32.5579 89.0361 32.8377 88.8935C34.3171 88.1394 35.5235 87.5245 37.4098 87.7845C40.382 88.3063 42.4428 89.488 44.3607 90.5877C44.7172 90.7922 45.0688 90.9938 45.4204 91.1878C45.8918 91.4153 46.3632 91.6615 46.8441 91.9126C48.3244 92.6855 49.8941 93.5052 51.829 93.9723C54.072 94.5905 55.9945 94.5906 57.5966 94.5906C53.4724 97.0414 50.2904 96.7621 46.8068 96.4563L46.7021 96.4471C44.1387 96.1379 41.5753 96.1379 38.6915 96.7562C34.2456 97.901 32.8155 100.369 31.6116 102.447C31.514 102.616 31.4178 102.782 31.3217 102.944C31.212 103.12 31.1065 103.293 31.0037 103.461C30.2058 104.765 29.5733 105.799 28.4379 106.347C26.908 107.086 25.581 107.04 24.134 106.991C23.7626 106.979 23.3833 106.966 22.9906 106.966C21.068 106.656 18.8251 106.656 15.9412 107.584C9.21228 109.75 7.28968 117.175 7.28968 117.485C7.28968 117.794 7.61015 118.413 7.93057 118.722C8.25098 119.031 8.89181 119.031 9.21228 118.722C9.21228 118.722 13.3778 115.009 18.5046 114.39C20.4272 114.081 22.3497 114.39 24.2723 114.7C24.6702 114.743 25.0682 114.791 25.4678 114.84C27.9642 115.145 30.5264 115.457 33.5647 114.39C35.8744 113.833 37.1435 112.271 38.3096 110.836C38.4377 110.678 38.5646 110.522 38.6915 110.369C39.9732 108.822 41.2549 107.275 43.1774 106.966C46.1537 106.182 48.4446 106.501 50.6288 106.806C51.0313 106.862 51.4301 106.917 51.829 106.966C52.2621 107.025 52.6952 107.097 53.1307 107.168C54.9502 107.468 56.8099 107.774 58.8783 107.275C60.7988 106.966 62.3998 106.348 64.0001 105.73L64.0053 105.728C61.1214 109.441 58.2375 110.369 55.0333 111.297C54.8941 111.335 54.7537 111.374 54.6123 111.412C52.4734 111.997 50.0877 112.65 47.9838 114.39C44.2228 117.114 43.834 120.133 43.5189 122.581C43.5119 122.635 43.5049 122.69 43.4979 122.744C43.4979 124.291 43.1774 125.528 42.2161 126.766C40.614 128.312 39.3324 128.931 37.4098 129.55C35.4872 130.169 33.2442 131.097 31.0012 132.953C26.1964 137.302 26.739 144.097 26.8261 145.188C26.8319 145.261 26.8357 145.308 26.8357 145.328C26.8357 145.637 27.1561 146.256 27.797 146.256C28.4379 146.256 28.7583 146.256 29.0787 145.637C29.0787 145.328 31.3217 140.687 35.8076 138.213C37.7302 137.284 39.3324 136.666 41.2549 136.356C41.3569 136.331 41.4595 136.307 41.5625 136.282C44.0479 135.685 46.8169 135.02 49.586 132.644C51.4601 131.351 51.992 129.627 52.4901 128.012C52.5881 127.694 52.6849 127.38 52.7902 127.075C53.1106 125.219 53.7515 123.672 55.3537 122.434C58.2375 120.578 60.8009 119.959 63.3644 119.341C63.8133 119.217 64.2623 119.105 64.7112 118.994C66.5053 118.548 68.2994 118.103 70.0934 116.866C70.3405 116.707 70.5823 116.553 70.8181 116.403C72.417 115.384 73.7414 114.541 74.5795 113.463C73.6848 117.779 71.4043 119.687 69.0271 121.675C68.8489 121.825 68.6701 121.974 68.4914 122.125C66.5685 123.672 64.6463 125.219 63.0436 127.693C60.7733 131.53 61.5196 134.153 62.1651 136.422C62.2484 136.714 62.33 137.001 62.4033 137.284C62.4763 137.637 62.5661 137.974 62.6535 138.302C62.9492 139.412 63.2181 140.421 62.7234 141.615C61.9233 143.418 60.901 144.364 59.8414 145.344C59.6282 145.541 59.4135 145.739 59.1988 145.947C58.8122 146.413 58.3674 146.852 57.8994 147.313C56.8157 148.381 55.6079 149.571 54.7128 151.516C51.5085 157.703 55.3537 164.2 55.6741 164.509C55.9945 165.128 56.3149 165.128 56.9558 165.128C57.5966 165.128 57.917 164.819 57.917 164.2C57.917 164.2 58.2375 158.94 61.4415 154.918C62.604 153.516 63.7666 152.622 65.1678 151.544C65.3118 151.434 65.4582 151.321 65.6074 151.206C67.8504 149.659 70.0934 147.803 71.6955 144.709C72.9768 142.234 72.6566 140.068 72.3365 138.213C72.0157 136.356 72.0157 134.809 72.9768 132.953C74.8997 130.169 76.8225 128.622 79.0649 127.075C79.3371 126.865 79.6184 126.655 79.9058 126.44C81.3111 125.39 82.8619 124.232 84.1919 122.434C85.4738 120.887 86.1148 119.341 86.7557 117.794C87.396 122.125 86.1147 124.91 84.5127 127.693C84.3173 128.133 84.1088 128.573 83.8979 129.018C83.0701 130.764 82.2045 132.59 81.9489 134.809C81.3218 139.349 83.4549 141.817 85.0478 143.659C85.0832 143.7 85.1183 143.741 85.153 143.781C85.2932 143.961 85.4334 144.135 85.5705 144.305C86.3745 145.302 87.0759 146.172 87.0759 147.493C87.0759 149.659 86.4349 151.206 85.4738 152.753L85.4718 152.757C84.5113 154.612 83.5507 156.467 83.2308 159.559C82.6375 166.146 87.8102 170.347 88.8368 171.18C88.9192 171.247 88.9749 171.292 88.9987 171.315ZM83.8982 115.253C81.3111 114.806 78.8371 114.044 76.5201 113.009C75.5281 119.31 72.4196 122.031 69.4538 124.627C69.3462 124.722 69.2388 124.816 69.1317 124.91C69.0503 124.975 68.9695 125.04 68.8892 125.105C67.0744 126.563 65.5531 127.785 64.3255 129.859C62.4033 132.953 63.0436 135.118 64.0053 137.594C64.6463 139.45 65.2866 141.306 64.3255 143.472C63.3644 145.947 61.7623 147.493 60.1601 148.731C59.9106 148.972 59.6491 149.213 59.3802 149.46C58.267 150.485 57.0268 151.627 55.9945 153.371C54.7128 155.847 55.0333 158.322 55.3537 160.178C55.9945 158.322 56.9558 155.847 58.5579 153.99C59.8396 152.134 61.4415 150.897 63.0436 149.969C65.2866 148.422 67.2095 146.875 68.4914 144.091C69.4525 142.544 69.1317 140.687 68.8115 139.141C68.4914 136.975 68.1706 134.5 69.7727 132.334C72.0157 128.931 74.2587 127.384 76.5017 125.838C78.4246 124.6 80.0266 123.362 80.9878 121.815C82.8764 119.08 83.5476 117.016 83.8982 115.253ZM73.2702 111.32C70.9977 109.962 68.9234 108.324 67.0991 106.456C63.7516 111.938 60.006 113.219 56.2414 114.506C56.0523 114.57 55.8632 114.635 55.6741 114.7C53.4324 115.319 51.187 115.938 49.2656 117.485C46.3817 119.65 46.0613 121.815 45.7409 124.291C45.6875 124.6 45.6429 124.91 45.5984 125.219C45.3759 126.766 45.1533 128.313 43.8183 129.859C41.8957 131.716 39.9732 132.644 38.0506 133.262C37.8424 133.343 37.6287 133.423 37.4097 133.506C35.9433 134.058 34.2344 134.701 32.2829 136.047C30.04 137.903 29.3991 140.068 29.0787 142.234C30.3604 140.687 32.2829 138.831 34.526 137.594C35.9677 136.666 37.4094 136.26 38.851 135.854C39.3319 135.718 39.8127 135.583 40.2936 135.428C42.857 134.809 45.4204 134.19 47.6634 132.334C48.9451 131.097 49.586 129.55 49.9064 127.693C50.5472 125.528 51.1882 123.362 53.4311 121.506C56.6354 119.341 59.5192 118.722 62.4033 118.103C62.8134 117.99 63.2127 117.887 63.6014 117.787C65.3385 117.34 66.8614 116.949 68.1706 115.937C70.6193 114.433 72.1401 112.929 73.2702 111.32ZM64.7458 103.737C63.1631 101.669 61.8538 99.3932 60.8696 96.9608C55.34 101.004 50.9372 100.7 47.0226 100.16C44.7796 99.8504 42.5366 99.8504 39.9732 100.469C36.4485 101.397 35.1668 103.563 34.2055 105.419C34.1164 105.562 34.0272 105.708 33.9371 105.856C33.0549 107.302 32.075 108.908 30.04 109.75C27.9093 110.779 26.2213 110.738 24.4242 110.696C24.0592 110.687 23.6897 110.678 23.311 110.678C22.9317 110.678 22.5523 110.666 22.168 110.654C20.6047 110.604 18.9601 110.552 16.9025 111.297C14.3391 112.225 12.4165 114.081 11.4552 115.628C13.3778 114.7 15.6208 113.772 18.1842 113.463C20.2859 113.173 22.1063 113.426 24.1725 113.713C24.3114 113.733 24.4514 113.752 24.5927 113.772C27.1561 114.081 29.7196 114.39 32.6034 113.463C34.2055 112.844 35.4872 111.607 36.4485 110.059C37.7302 108.203 39.3324 106.347 42.2161 105.728C45.5955 104.912 48.4799 105.292 50.8692 105.606C51.1985 105.649 51.5185 105.691 51.829 105.728C51.9703 105.748 52.1103 105.767 52.2492 105.787C54.3154 106.074 56.1358 106.327 58.2375 106.038C61.2637 105.412 63.2692 104.645 64.7458 103.737ZM59.6632 93.2791C59.0905 91.0228 58.7868 88.6645 58.7868 86.2377C58.7868 85.8138 58.796 85.392 58.8144 84.9725C52.1039 86.6422 48.4417 84.7383 44.7796 82.8344C44.1687 82.5816 43.5816 82.3059 42.9989 82.0323C41.4419 81.3011 39.9159 80.5845 38.0506 80.3596C34.4412 79.7787 32.8082 81.1061 31.0313 82.5504C30.9153 82.6447 30.7987 82.7396 30.6808 82.8344C29.0787 84.072 27.4766 85.3097 25.2336 85.3097C22.6992 85.3097 20.9073 84.593 19.4228 83.9993C19.2181 83.9174 19.0192 83.8379 18.8251 83.7629C17.2229 82.8344 15.3003 82.2161 12.737 81.9064C10.1735 81.5973 7.61015 82.8344 6.00799 84.072C6.79924 84.1813 7.63036 84.252 8.4873 84.3249C10.0596 84.4587 11.7187 84.5998 13.3778 85C15.1672 85.4937 16.5487 86.1841 18.0104 86.9146C18.381 87.0998 18.7567 87.2876 19.1455 87.4754C21.3884 89.0222 23.311 90.2598 26.5153 90.2598C28.4379 90.2598 29.7196 89.641 31.3217 88.7125C31.4679 88.6419 31.6159 88.5695 31.7659 88.4962C33.589 87.6052 35.7065 86.5704 38.3711 86.8565C42.2161 87.4754 44.7796 89.0222 47.0226 90.569C48.9451 91.8066 50.5473 92.7346 52.7902 93.0437C55.6195 93.6744 57.7097 93.5913 59.6632 93.2791ZM59.1721 81.5414C59.6186 78.8485 60.4429 76.2774 61.5908 73.8804C55.0648 72.9226 52.2464 69.9214 49.5577 67.0583C49.4602 66.9545 49.3629 66.8508 49.2656 66.7475C49.1986 66.6699 49.1323 66.5929 49.0664 66.5164C47.5547 64.7623 46.288 63.2924 44.1387 62.1065C40.9345 60.2505 38.6915 60.8694 36.1281 61.7973C34.526 62.7253 32.6034 63.3441 30.3604 62.7253C27.797 61.7973 26.1948 60.2505 24.9132 58.7035C24.6641 58.4631 24.415 58.2109 24.1589 57.9516C23.097 56.8765 21.9139 55.6787 20.1067 54.6817C17.5434 53.4442 14.9799 53.7535 13.0574 54.0629C14.9799 54.6817 17.5434 55.6098 19.4659 57.1566C21.3884 58.3941 22.6702 59.9408 23.6315 61.4876C25.2336 63.6533 26.8357 65.5098 29.7196 66.7475C31.3217 67.6754 33.2442 67.3657 34.8464 67.0566C37.0893 66.7475 39.6528 66.4378 41.8957 67.9846C45.4204 70.1502 47.0226 72.3158 48.6247 74.4815C49.9064 76.338 51.1881 77.8848 52.7902 78.8128C55.4118 80.5 57.4375 81.1809 59.1721 81.5414ZM63.3399 70.7427C64.7468 68.5485 66.4436 66.5458 68.3786 64.7844C62.7003 61.5523 61.374 57.9358 60.041 54.301C59.9741 54.1185 59.9071 53.936 59.8396 53.7535C59.1988 51.5881 58.5578 49.4222 56.9558 47.5661C54.7128 44.7817 52.4698 44.4724 49.9064 44.163C49.586 44.1114 49.2656 44.0685 48.9451 44.0255C47.343 43.8107 45.7409 43.5958 44.1387 42.3068C42.2161 40.4505 41.2549 38.5943 40.614 36.738C40.5307 36.537 40.4475 36.3308 40.3621 36.1193C39.7904 34.7035 39.1242 33.0535 37.7302 31.1693C35.8076 29.0037 33.5647 28.385 31.3217 28.0756C32.9238 29.3131 34.8464 31.1693 36.1281 33.3349C37.0894 34.7272 37.5099 36.1194 37.9305 37.5116C38.0707 37.9756 38.2109 38.4396 38.3711 38.9036C39.0119 41.3786 39.6528 43.8536 41.5753 46.0192C42.857 47.2567 44.4592 47.8755 46.3817 48.1849C48.6246 48.8036 50.8677 49.4223 52.7902 51.588C55.0333 54.6817 55.6741 57.466 56.3149 60.2505C56.4324 60.6476 56.5391 61.0342 56.643 61.4105C57.1056 63.0863 57.5112 64.5557 58.5579 65.8189C60.1161 68.1832 61.6742 69.6515 63.3399 70.7427ZM71.1944 62.5123C73.3367 60.9842 75.6933 59.7201 78.2127 58.7698C74.0253 53.431 74.3403 49.1802 74.8997 45.4005C75.2198 43.2349 75.2198 41.0693 74.5795 38.5943C73.6178 35.1912 71.3747 33.9537 69.4525 33.0256C69.3039 32.9395 69.1525 32.8534 68.9994 32.7663C67.502 31.9146 65.8384 30.9684 64.9665 29.0037C63.8927 26.9306 63.9434 25.0746 63.9882 23.4356C63.9969 23.1179 64.0053 22.8083 64.0053 22.5069C64.0053 22.1406 64.0178 21.7743 64.0304 21.4032C64.0818 19.8939 64.1358 18.306 63.3644 16.3194C62.4033 13.8444 60.4805 11.9882 58.8783 11.0601C59.8396 12.9163 60.8009 15.0819 61.1214 17.5569C61.4215 19.5868 61.159 21.3449 60.861 23.3407C60.8411 23.4742 60.821 23.6087 60.8009 23.7444C60.4805 26.2193 60.1601 28.6944 61.1214 31.4787C61.7623 33.0256 63.0436 34.263 64.6463 35.1912C66.5685 36.4287 68.4914 37.9755 69.1317 40.7599C69.9769 44.0226 69.5843 46.8074 69.259 49.1144C69.2141 49.4324 69.1706 49.7413 69.1317 50.0411C69.1115 50.1775 69.0914 50.3127 69.0714 50.4469C68.7737 52.4418 68.5115 54.1993 68.8115 56.2285C69.4599 59.1503 70.2543 61.0867 71.1944 62.5123ZM82.0259 57.6051C81.7026 55.7189 81.6164 53.7009 82.2697 50.9692C82.5898 48.8036 83.551 47.2567 84.8329 45.4005C86.4349 43.2349 88.037 40.7599 88.6779 37.0474C88.9743 34.4747 87.9025 32.4303 86.9797 30.6701C86.9037 30.5253 86.8288 30.3824 86.7557 30.2412C85.794 28.6944 85.153 27.4569 85.153 25.6006C85.153 22.5069 86.4349 20.6506 88.6779 18.485C88.8731 18.1081 89.0683 17.7439 89.2609 17.3846C90.0164 15.975 90.7308 14.6421 91.2411 12.9163C91.8821 10.132 91.8821 7.65698 91.5619 5.80075C92.8438 7.34762 94.1251 9.51321 93.8049 12.2976C93.4841 14.7726 92.8438 16.6288 91.8821 18.1757C91.8044 18.3631 91.722 18.5551 91.6372 18.7528C91.0223 20.1861 90.28 21.9162 90.28 24.3631C90.28 26.5287 91.5619 28.0756 92.8438 29.6224C92.942 29.7362 93.0402 29.8489 93.1379 29.9609C94.6339 31.6765 96.0087 33.2532 95.407 36.738C95.1736 38.5392 94.4315 40.0126 93.6742 41.516C93.3909 42.0785 93.1055 42.6452 92.8438 43.2349C90.8718 46.7707 88.8999 50.3065 90.6293 56.7855C90.1948 56.7678 89.7579 56.7588 89.3188 56.7588C86.8054 56.7588 84.3628 57.0521 82.0259 57.6051ZM94.183 57.1309C97.1203 57.5849 99.9176 58.4434 102.512 59.6454C103.576 53.6554 106.609 51.0013 109.505 48.4664C109.612 48.3725 109.719 48.2787 109.826 48.1849C109.907 48.1198 109.987 48.0552 110.067 47.9912C111.883 46.5322 113.404 45.3094 114.632 43.2349C116.555 40.1411 115.914 37.9755 114.953 35.5005C114.312 33.6443 113.671 31.7881 114.632 29.6224C114.632 27.0934 115.954 25.8405 117.397 24.4728C117.543 24.3348 117.69 24.1956 117.837 24.0538C118.086 23.8134 118.347 23.573 118.615 23.3259C119.729 22.3005 120.97 21.1581 122.002 19.4132C123.284 16.9382 122.964 14.4632 122.643 12.6069C122.002 14.4632 121.041 16.9382 119.439 18.7944C118.157 20.6507 116.555 21.8881 114.953 22.8163C112.71 24.3631 110.787 25.91 109.505 28.6944C108.544 30.2412 108.865 32.0974 109.185 33.6443C109.505 35.8099 109.826 38.2849 108.224 40.4505C105.981 43.8536 103.738 45.4005 101.495 46.9474C99.5723 48.1848 97.9702 49.4223 97.0091 50.9692C95.2615 53.5003 94.5563 55.4562 94.183 57.1309ZM105.899 61.4802C108.141 62.8827 110.181 64.5613 111.966 66.4662C115.286 61.1293 118.992 59.8621 122.716 58.5886C122.906 58.524 123.095 58.4593 123.284 58.3941C125.527 57.7754 127.77 57.1566 129.693 55.6098C132.577 53.4442 132.897 51.2786 133.218 48.8036C133.271 48.4944 133.315 48.1852 133.36 47.876C133.582 46.329 133.805 44.7819 135.14 43.2349C137.063 41.3786 138.985 40.4505 140.908 39.8318C141.116 39.7514 141.329 39.6711 141.548 39.5887C143.014 39.0367 144.723 38.3934 146.675 37.0474C148.918 35.1912 149.559 33.0256 149.879 30.8599C148.598 32.4068 146.675 34.263 144.432 35.5005C142.991 36.4285 141.549 36.8346 140.107 37.2406C139.626 37.376 139.145 37.5114 138.665 37.6662C136.101 38.2849 133.538 38.9036 131.295 40.7599C130.013 41.9974 129.372 43.5442 129.052 45.4005C128.411 47.5661 127.77 49.7317 125.527 51.588C122.323 53.7534 119.439 54.3723 116.556 54.9909C116.144 55.1044 115.743 55.2076 115.354 55.3078C113.618 55.7544 112.096 56.1461 110.787 57.1566C108.488 58.5691 107.007 59.9816 105.899 61.4802ZM114.31 69.298C115.845 71.4052 117.101 73.7153 118.027 76.1784C123.586 72.0882 128.006 72.3927 131.936 72.9347C134.179 73.2438 136.422 73.2438 138.985 72.6256C142.51 71.697 143.791 69.5314 144.753 67.6754C144.842 67.532 144.931 67.3859 145.021 67.2381C145.903 65.7923 146.883 64.1861 148.918 63.3441C151.065 62.3074 152.987 62.3564 154.685 62.3996C155.014 62.408 155.335 62.4162 155.647 62.4162C156.026 62.4162 156.406 62.4282 156.79 62.4404C158.353 62.49 159.998 62.5422 162.055 61.7973C164.619 60.8694 166.541 59.0129 167.503 57.466C165.58 58.3941 163.337 59.322 160.774 59.6317C158.671 59.9216 156.849 59.6678 154.781 59.3797C154.643 59.3606 154.505 59.3413 154.365 59.322C151.803 59.0129 149.238 58.7037 146.355 59.6317C144.753 60.2505 143.471 61.4876 142.51 63.035C141.228 64.8909 139.626 66.7475 136.742 67.3657C133.363 68.1818 130.478 67.8026 128.089 67.4886C127.76 67.4453 127.44 67.4032 127.129 67.3657C126.988 67.3463 126.848 67.3268 126.709 67.3075C124.643 67.0201 122.822 66.7669 120.721 67.0566C117.76 67.6689 115.777 68.4161 114.31 69.298ZM119.13 79.842C119.602 81.9012 119.851 84.0414 119.851 86.2377C119.851 86.6895 119.84 87.139 119.82 87.5858C126.737 85.7723 130.457 87.7064 134.178 89.6407C134.789 89.8935 135.377 90.1695 135.96 90.4432C137.516 91.1743 139.042 91.8909 140.908 92.1158C144.517 92.6967 146.15 91.3692 147.927 89.9248C148.043 89.8305 148.159 89.7358 148.277 89.641C149.879 88.4033 151.481 87.1656 153.724 87.1656C156.257 87.1656 158.048 87.8818 159.532 88.475C159.738 88.5572 159.938 88.6371 160.133 88.7125C161.735 89.641 163.658 90.2598 166.221 90.569C168.784 90.8781 171.348 89.641 172.95 88.4033C171.028 88.7125 168.464 88.7125 165.901 88.0942C164.113 87.601 162.733 86.9112 161.273 86.1817C160.901 85.9958 160.524 85.8073 160.133 85.6189C157.891 84.3823 155.646 83.144 152.443 82.8344C150.52 82.8344 149.239 83.4532 147.636 84.3818C147.491 84.452 147.343 84.5241 147.194 84.5971C145.371 85.4882 143.253 86.5234 140.587 86.2377C136.742 85.6189 134.179 84.072 131.936 82.5252C130.013 81.2876 128.411 80.3596 126.168 80.0505C123.259 79.402 121.131 79.5082 119.13 79.842ZM119.476 90.8722C119.067 93.3724 118.332 95.768 117.316 98.0174C123.651 99.017 126.429 101.975 129.08 104.799C129.178 104.903 129.275 105.006 129.372 105.11C129.44 105.189 129.508 105.268 129.576 105.346C131.086 107.097 132.352 108.565 134.499 109.75C137.703 111.607 139.946 110.988 142.51 110.059C144.432 109.441 146.355 108.822 148.598 109.75C151.161 110.678 152.763 112.225 154.045 113.772C154.294 114.012 154.544 114.265 154.8 114.524C155.862 115.599 157.045 116.797 158.851 117.794C161.415 119.031 163.978 118.722 165.901 118.413C163.978 117.794 161.415 116.866 159.492 115.319C157.569 114.081 156.288 112.535 155.327 110.988C153.724 108.822 152.122 106.966 149.239 105.728C147.636 104.8 145.714 105.11 144.112 105.419C141.869 105.728 139.306 106.038 137.063 104.491C133.538 102.325 131.936 100.16 130.334 97.9939C129.052 96.1379 127.77 94.5906 126.168 93.6626C123.388 91.8737 121.279 91.2161 119.476 90.8722ZM115.571 101.298C114.21 103.505 112.559 105.525 110.669 107.311C116.003 110.482 117.297 114.01 118.597 117.556C118.664 117.738 118.731 117.92 118.798 118.103C119.439 120.269 120.08 122.434 121.682 124.291C123.925 127.075 126.168 127.384 128.732 127.693C129.052 127.745 129.373 127.788 129.694 127.831C131.295 128.046 132.897 128.261 134.499 129.55C136.422 131.406 137.383 133.262 138.024 135.118C138.107 135.319 138.19 135.525 138.275 135.736C138.847 137.152 139.513 138.803 140.908 140.687C142.83 142.853 145.073 143.472 147.316 143.781C145.714 142.544 143.791 140.687 142.51 138.522C141.549 137.13 141.128 135.738 140.708 134.346C140.567 133.882 140.427 133.418 140.267 132.953C139.626 130.478 138.985 128.003 137.063 125.838C135.781 124.6 134.179 123.981 132.256 123.672C130.013 123.053 127.77 122.434 125.848 120.269C123.605 117.175 122.964 114.391 122.323 111.607C122.205 111.21 122.098 110.822 121.994 110.445C121.532 108.77 121.126 107.3 120.08 106.038C118.607 103.803 117.135 102.369 115.571 101.298ZM107.711 109.77C105.601 111.31 103.277 112.591 100.79 113.565C104.593 118.681 104.281 122.79 103.738 126.456C103.417 128.622 103.417 130.788 104.058 133.262C105.02 136.666 107.262 137.903 109.185 138.831C109.334 138.917 109.485 139.004 109.638 139.091C111.136 139.942 112.799 140.888 113.671 142.853C114.745 144.926 114.694 146.782 114.65 148.421C114.641 148.739 114.632 149.048 114.632 149.35C114.632 149.716 114.62 150.082 114.607 150.453C114.556 151.963 114.502 153.551 115.273 155.537C116.235 158.012 118.157 159.868 119.759 160.796C118.798 158.94 117.837 156.775 117.516 154.3C117.216 152.271 117.479 150.513 117.776 148.518C117.796 148.384 117.816 148.249 117.837 148.112C118.157 145.637 118.478 143.162 117.516 140.378C116.875 138.831 115.594 137.594 113.992 136.666C112.069 135.428 110.146 133.881 109.505 131.097C108.661 127.836 109.053 125.052 109.378 122.745C109.423 122.426 109.467 122.116 109.505 121.815C109.525 121.68 109.545 121.546 109.565 121.414C109.864 119.417 110.126 117.659 109.826 115.628C109.24 112.987 108.535 111.151 107.711 109.77ZM96.7047 114.848C96.9448 116.567 96.9527 118.441 96.3681 120.887C96.048 123.053 95.0862 124.6 93.8049 126.456C92.2029 128.622 90.6008 131.097 89.9598 134.809C89.6634 137.382 90.7355 139.427 91.6584 141.187C91.7343 141.332 91.8091 141.474 91.8821 141.615C92.8438 143.162 93.4842 144.4 93.4842 146.256C93.1641 149.349 91.8831 151.514 90.6024 153.679C90.408 154.054 90.2121 154.419 90.0204 154.776C89.2636 156.188 88.5484 157.522 88.037 159.25C87.396 161.725 87.396 164.2 87.7168 166.056C86.4349 164.509 85.153 162.343 85.4738 159.559C85.794 157.084 86.4349 155.228 87.396 153.681C87.4738 153.493 87.5564 153.301 87.6413 153.103C88.2563 151.67 88.9987 149.94 88.9987 147.493C88.9987 145.328 87.7168 143.781 86.4349 142.234C86.3368 142.12 86.2387 142.008 86.1411 141.896C84.645 140.181 83.27 138.604 83.8717 135.118C84.1047 133.318 84.8468 131.845 85.604 130.342C85.8875 129.779 86.1731 129.212 86.4349 128.622C88.3407 125.205 90.2467 121.787 88.8109 115.713C88.9799 115.715 89.1492 115.717 89.3188 115.717C91.8657 115.717 94.3397 115.415 96.7047 114.848Z" fill="#EAB85B"/>
</svg>
