<svg version="1.0" xmlns="http://www.w3.org/2000/svg"
 width="1500.000000pt" height="1500.000000pt" viewBox="0 0 1500.000000 1500.000000"
 preserveAspectRatio="xMidYMid meet">

<g transform="translate(0.000000,1500.000000) scale(0.100000,-0.100000)"
fill="#BD7B4F" stroke="none">
<path d="M5 14988 c-3 -7 -4 -3381 -3 -7497 2 -5977 6 -7485 16 -7489 9 -3 12
574 14 2860 0 1575 5 2778 9 2673 4 -104 33 -1389 65 -2855 31 -1466 61 -2669
65 -2675 6 -6 12 -6 18 0 5 6 -15 1085 -50 2680 -32 1469 -58 2717 -56 2775 1
58 55 -1121 120 -2620 65 -1499 121 -2751 124 -2782 4 -40 10 -58 19 -58 8 0
14 10 14 23 0 12 -54 1257 -120 2767 -66 1510 -119 2761 -119 2780 1 19 84
-1211 184 -2735 101 -1524 185 -2783 186 -2799 7 -51 29 -43 29 10 0 26 -79
1249 -175 2718 -97 1469 -174 2687 -173 2706 2 19 111 -1199 243 -2708 132
-1509 243 -2749 247 -2755 5 -8 10 -9 17 -2 7 7 -69 911 -230 2750 -132 1507
-238 2751 -237 2765 2 14 137 -1206 302 -2710 164 -1504 301 -2750 305 -2769
8 -43 31 -54 31 -15 0 15 -135 1261 -300 2768 -165 1508 -299 2748 -298 2756
2 8 167 -1234 368 -2759 201 -1525 368 -2778 372 -2784 5 -8 10 -9 18 -1 7 7
-104 874 -355 2784 -201 1525 -364 2777 -363 2782 2 5 196 -1243 432 -2774
235 -1531 432 -2787 437 -2793 6 -6 12 -6 18 0 5 6 -167 1151 -415 2755 -233
1510 -423 2754 -421 2765 1 11 219 -1215 485 -2725 266 -1510 487 -2756 491
-2769 9 -32 31 -39 31 -11 0 11 -218 1259 -485 2772 -267 1514 -484 2756 -483
2760 2 5 248 -1221 547 -2724 299 -1503 548 -2754 553 -2781 6 -29 15 -47 24
-47 8 0 14 7 14 16 0 9 -248 1263 -551 2786 -303 1524 -549 2771 -547 2773 2
2 279 -1241 616 -2763 337 -1522 617 -2777 622 -2789 11 -27 30 -30 30 -6 0
10 -279 1277 -621 2816 -341 1540 -619 2801 -617 2802 2 2 311 -1255 687
-2793 376 -1538 688 -2807 692 -2819 11 -29 29 -30 29 -2 0 11 -306 1272 -680
2801 -375 1529 -679 2782 -677 2784 2 2 340 -1254 752 -2791 412 -1538 752
-2801 757 -2808 5 -8 10 -9 18 -1 7 7 -211 837 -735 2793 -411 1531 -744 2785
-742 2787 2 2 367 -1244 811 -2769 445 -1524 812 -2782 817 -2794 10 -28 29
-30 29 -4 0 11 -367 1278 -815 2817 -449 1538 -814 2798 -812 2800 2 2 398
-1251 881 -2784 484 -1533 885 -2802 892 -2820 14 -34 34 -43 34 -14 0 9 -405
1300 -899 2867 -495 1568 -898 2851 -897 2853 2 1 438 -1282 971 -2850 532
-1569 972 -2861 977 -2870 11 -23 28 -23 28 -1 0 9 -428 1276 -950 2816 -523
1540 -949 2801 -947 2803 2 2 464 -1262 1026 -2809 563 -1546 1028 -2816 1032
-2822 6 -5 13 -5 19 1 6 6 -344 980 -1020 2839 -566 1556 -1028 2830 -1027
2832 2 2 496 -1263 1097 -2809 601 -1547 1099 -2825 1107 -2840 18 -37 37 -37
30 0 -3 15 -497 1289 -1096 2831 -600 1542 -1090 2806 -1088 2808 2 2 520
-1245 1152 -2769 631 -1525 1160 -2801 1176 -2835 26 -59 49 -81 49 -48 0 8
-529 1292 -1175 2852 -646 1560 -1174 2838 -1172 2840 2 1 567 -1279 1256
-2845 689 -1566 1257 -2851 1262 -2857 6 -5 13 -5 19 1 6 6 -438 1027 -1255
2883 -696 1581 -1264 2876 -1262 2877 1 2 603 -1285 1336 -2859 734 -1574
1340 -2872 1348 -2884 15 -26 33 -30 33 -8 0 8 -601 1302 -1335 2876 -734
1575 -1333 2864 -1332 2866 2 1 640 -1288 1417 -2865 777 -1577 1418 -2873
1423 -2879 13 -18 27 -16 27 2 0 11 -2642 5383 -2852 5800 -6 11 -6 16 -1 10
5 -5 688 -1315 1518 -2910 829 -1595 1512 -2904 1517 -2910 5 -5 12 -5 19 2 8
8 -397 795 -1456 2829 -807 1551 -1492 2866 -1522 2924 -31 58 -51 101 -46 95
6 -5 729 -1322 1608 -2925 879 -1603 1602 -2919 1606 -2925 6 -5 13 -5 20 2 8
8 -429 812 -1576 2904 -1813 3305 -1601 2917 -1588 2904 6 -5 761 -1310 1678
-2900 917 -1589 1672 -2896 1678 -2902 13 -18 27 -16 27 2 0 8 -757 1326
-1681 2928 -925 1601 -1683 2917 -1686 2922 -11 28 151 -238 1790 -2939 975
-1606 1778 -2921 1785 -2924 6 -2 12 4 12 13 0 8 -788 1315 -1752 2903 -963
1588 -1758 2898 -1766 2912 -65 113 243 -368 1869 -2920 1020 -1601 1860
-2910 1868 -2910 8 0 11 7 9 18 -3 10 -846 1338 -1875 2952 -1028 1614 -1878
2949 -1888 2965 -102 163 275 -399 1965 -2930 1080 -1617 1974 -2955 1987
-2972 26 -35 43 -42 43 -18 0 8 -581 884 -1291 1947 -2485 3718 -2681 4013
-2667 3998 8 -8 934 -1329 2058 -2935 1124 -1606 2061 -2944 2082 -2972 39
-53 58 -66 58 -39 0 8 -916 1323 -2036 2923 -2143 3061 -2139 3055 -2100 3008
13 -16 999 -1360 2191 -2985 1191 -1625 2173 -2957 2182 -2959 11 -2 14 2 11
15 -3 11 -992 1365 -2197 3009 -1206 1645 -2184 2981 -2173 2970 11 -11 1044
-1356 2297 -2990 1252 -1634 2286 -2979 2296 -2990 13 -13 22 -16 29 -9 8 8
-646 867 -2221 2920 -2567 3346 -2397 3123 -2377 3104 9 -8 1101 -1367 2427
-3020 1327 -1653 2417 -3005 2424 -3005 6 0 12 6 12 12 0 7 -846 1067 -1880
2355 -2217 2763 -2950 3678 -2898 3621 21 -23 1161 -1381 2533 -3017 1372
-1636 2501 -2975 2509 -2975 8 -1 11 6 9 17 -4 13 -4814 5758 -5047 6027 -19
22 -16 21 10 -5 20 -19 1208 -1371 2639 -3005 1431 -1634 2618 -2986 2636
-3005 25 -25 37 -31 45 -23 8 8 -8 32 -58 89 -535 609 -4974 5673 -5101 5819
-96 110 -159 184 -139 165 19 -19 1280 -1394 2802 -3055 1522 -1661 2773
-3021 2781 -3023 8 -2 14 3 14 10 0 7 -1200 1323 -2666 2923 -2904 3169 -3011
3286 -2872 3144 51 -52 1382 -1442 2957 -3087 1576 -1646 2869 -2991 2875
-2989 6 2 11 8 11 14 0 6 -1296 1364 -2880 3019 -1584 1655 -2925 3056 -2979
3114 -55 58 1309 -1303 3032 -3025 2502 -2501 3134 -3127 3144 -3117 10 10
-608 634 -3077 3104 -2882 2883 -3050 3052 -2489 2517 330 -316 1787 -1710
3238 -3099 1451 -1389 2643 -2525 2649 -2525 5 0 12 5 14 10 2 6 -1438 1390
-3199 3077 -1762 1686 -3212 3076 -3223 3089 -25 29 -110 107 3613 -3305 1723
-1579 3138 -2871 3144 -2871 6 0 13 5 15 10 2 6 -1511 1397 -3361 3093 -1850
1695 -3370 3090 -3377 3099 -8 10 76 -62 186 -158 110 -96 1701 -1491 3535
-3100 1835 -1608 3344 -2930 3353 -2938 19 -15 41 -4 29 15 -4 6 -1600 1407
-3547 3114 -1947 1706 -3553 3116 -3570 3133 -40 40 -81 75 3944 -3303 1943
-1631 3540 -2966 3547 -2968 8 -2 14 3 14 11 0 8 -1685 1428 -3745 3157 -2060
1728 -3745 3144 -3745 3146 0 3 156 -121 347 -275 2930 -2355 7530 -6040 7538
-6038 5 2 10 8 10 14 0 6 -1762 1425 -3915 3153 -2153 1728 -3922 3149 -3930
3158 -14 15 -13 15 5 0 143 -113 8241 -6321 8250 -6324 26 -10 24 13 -3 38
-15 14 -1874 1442 -4132 3173 -2258 1731 -4112 3155 -4120 3163 -22 23 -224
171 4388 -3211 2372 -1739 4318 -3162 4325 -3162 6 0 12 6 12 12 0 7 -1946
1440 -4325 3184 -2379 1744 -4338 3182 -4355 3196 l-30 25 35 -24 c19 -14
2084 -1459 4588 -3212 3355 -2349 4557 -3185 4565 -3177 7 7 7 14 1 20 -5 5
-2061 1446 -4569 3201 -2508 1756 -4564 3197 -4570 3203 -7 7 -7 8 0 4 6 -3
2176 -1452 4823 -3221 2647 -1769 4818 -3216 4823 -3216 6 0 9 7 7 16 -2 9
-2166 1462 -4810 3228 -2644 1767 -4811 3216 -4815 3221 -10 12 -623 401 5103
-3247 3725 -2373 5059 -3217 5067 -3209 7 7 7 14 1 20 -5 5 -2286 1459 -5069
3231 -2783 1772 -5064 3227 -5070 3233 -5 6 1 4 15 -4 14 -9 2421 -1470 5350
-3247 2929 -1777 5334 -3234 5344 -3238 145 -55 -436 301 -5332 3272 -2939
1783 -5347 3246 -5350 3250 -11 12 -134 82 5672 -3270 3102 -1791 5644 -3256
5648 -3256 5 0 8 7 6 17 -2 10 -2171 1268 -5636 3268 -3098 1789 -5636 3256
-5640 3260 -10 11 -501 281 6047 -3312 3241 -1778 5898 -3233 5903 -3233 5 0
8 7 6 16 -2 10 -2305 1279 -5996 3304 -3297 1809 -5997 3292 -6000 3296 -4 4
45 -20 108 -53 63 -33 2927 -1524 6363 -3313 4713 -2453 6252 -3249 6260
-3241 9 9 8 14 -3 21 -8 5 -2857 1489 -6330 3297 -3473 1807 -6319 3290 -6325
3295 -18 17 307 -143 6790 -3341 3854 -1901 6453 -3177 6458 -3172 5 5 7 13 4
18 -3 4 -2989 1479 -6636 3278 -3647 1798 -6629 3270 -6628 3272 2 1 2975
-1384 6608 -3078 3632 -1694 6617 -3083 6633 -3086 22 -5 28 -3 24 8 -2 8
-2971 1397 -6596 3088 -3626 1691 -6591 3076 -6589 3077 2 2 2960 -1297 6573
-2887 3613 -1591 6579 -2894 6592 -2897 15 -3 22 0 22 10 0 9 -2251 1004
-6610 2923 -3636 1599 -6609 2909 -6607 2911 1 2 2973 -1227 6602 -2731 3630
-1503 6604 -2730 6609 -2725 4 4 6 12 3 17 -3 5 -2965 1235 -6581 2733 -3617
1498 -6574 2725 -6573 2727 2 2 2960 -1146 6573 -2551 4175 -1624 6572 -2552
6578 -2546 6 6 6 13 1 19 -6 5 -2970 1160 -6588 2567 -3617 1406 -6576 2559
-6574 2560 2 2 2953 -1070 6558 -2383 3605 -1312 6566 -2388 6582 -2391 42 -7
33 16 -15 37 -24 9 -2978 1086 -6565 2391 -3588 1306 -6521 2375 -6519 2377 2
2 2952 -998 6557 -2221 3674 -1247 6558 -2221 6563 -2216 4 4 6 12 3 17 -3 4
-2975 1016 -6605 2248 -3630 1232 -6599 2241 -6597 2243 1 1 2958 -929 6571
-2068 3613 -1140 6584 -2074 6603 -2077 58 -10 32 18 -40 42 -35 12 -2981 941
-6546 2065 -3565 1124 -6481 2046 -6479 2048 2 2 2946 -854 6542 -1902 4391
-1280 6541 -1903 6548 -1896 6 6 6 13 1 18 -6 5 -2959 868 -6563 1918 -3604
1050 -6549 1910 -6545 1911 5 2 2953 -787 6553 -1751 4038 -1083 6549 -1751
6555 -1745 6 6 6 12 0 18 -6 5 -2963 800 -6572 1767 -3610 967 -6561 1759
-6559 1761 1 2 2954 -719 6561 -1602 4538 -1110 6562 -1602 6569 -1595 8 8 7
13 -2 19 -7 4 -2953 727 -6547 1606 -3594 880 -6533 1601 -6531 1603 2 2 2938
-647 6524 -1442 3587 -795 6531 -1446 6542 -1446 37 0 16 24 -31 36 -24 6
-2974 661 -6556 1455 -3582 794 -6511 1445 -6509 1446 2 2 2945 -581 6540
-1297 3595 -715 6546 -1300 6556 -1300 27 0 25 19 -2 29 -13 4 -2952 590
-6531 1302 -3580 712 -6503 1295 -6495 1296 7 2 2942 -514 6523 -1146 3752
-662 6514 -1145 6520 -1140 6 6 6 12 0 18 -6 5 -2941 526 -6523 1158 -3582
631 -6508 1149 -6503 1151 5 2 2935 -447 6512 -998 4654 -716 6505 -998 6513
-990 8 8 8 13 -1 18 -6 4 -2951 459 -6544 1012 -3593 553 -6527 1006 -6519
1007 8 2 2949 -384 6535 -856 3936 -519 6524 -856 6530 -850 6 6 6 12 0 18 -6
5 -2948 395 -6539 867 -3592 473 -6519 860 -6505 861 13 2 2951 -318 6529
-711 3694 -405 6509 -710 6515 -705 6 6 6 12 0 18 -6 5 -2944 330 -6530 723
-3586 392 -6506 714 -6490 715 17 2 2951 -253 6520 -566 3724 -326 6494 -565
6500 -560 6 6 6 12 0 18 -6 5 -2937 265 -6515 578 -3578 312 -6487 569 -6465
571 22 1 2949 -189 6505 -422 3947 -259 6469 -421 6475 -415 6 6 6 12 0 18 -6
4 -2959 201 -6564 437 -3605 236 -6548 430 -6540 432 8 1 2957 -126 6554 -283
4392 -192 6542 -282 6549 -275 5 5 7 13 3 16 -4 4 -2956 136 -6559 294 -3604
158 -6527 288 -6496 289 31 0 2942 -62 6469 -139 3526 -77 6452 -140 6500
-140 68 0 89 3 89 13 0 11 -38 15 -172 20 -95 3 -3037 68 -6536 144 l-6364
138 6534 5 c5798 4 6533 7 6533 20 0 13 -734 16 -6530 20 l-6530 5 6524 142
c4140 91 6528 146 6535 153 5 5 7 13 3 17 -4 3 -2950 -58 -6548 -136 -3597
-79 -6542 -141 -6544 -139 -2 2 2941 132 6541 289 3599 157 6547 289 6551 293
4 3 2 11 -3 16 -7 7 -2174 -84 -6545 -275 -3594 -157 -6543 -284 -6554 -283
-11 2 2930 196 6535 432 3605 236 6559 433 6565 437 6 6 6 12 0 18 -6 6 -2533
-156 -6475 -415 -3556 -233 -6481 -423 -6500 -422 -19 2 2890 259 6465 571
3575 313 6504 573 6510 578 6 6 6 12 0 18 -6 5 -2787 -235 -6495 -560 -3567
-313 -6501 -568 -6520 -566 -19 1 2899 323 6485 715 3586 393 6524 718 6530
723 6 6 6 12 0 18 -6 4 -2828 -301 -6515 -705 -3578 -393 -6516 -713 -6529
-711 -14 1 2914 388 6505 861 3591 472 6533 862 6539 867 6 6 6 12 0 18 -6 6
-2599 -332 -6530 -850 -3586 -472 -6526 -858 -6534 -856 -8 1 2925 454 6518
1007 3593 553 6538 1008 6544 1012 9 5 9 10 1 18 -8 8 -1859 -274 -6513 -990
-3577 -551 -6507 -1000 -6512 -998 -5 2 2921 520 6503 1151 3582 632 6517
1153 6523 1158 6 6 6 12 0 18 -6 5 -2782 -481 -6520 -1140 -3581 -632 -6516
-1148 -6523 -1146 -8 1 2915 584 6495 1296 3579 712 6518 1298 6531 1302 27
10 29 29 3 29 -11 0 -2962 -585 -6557 -1300 -3595 -716 -6538 -1299 -6540
-1298 -2 2 2939 656 6534 1452 3595 797 6547 1453 6560 1457 28 10 29 29 2 29
-11 0 -2955 -651 -6541 -1446 -3587 -795 -6523 -1444 -6525 -1442 -2 2 1733
428 3854 948 2121 519 5064 1239 6539 1600 1475 361 2686 659 2690 663 3 4 2
12 -3 17 -6 6 -2295 -549 -6569 -1595 -3607 -883 -6560 -1604 -6561 -1602 -2
2 2950 794 6559 1761 3609 967 6566 1762 6572 1767 6 6 6 12 0 18 -6 6 -2522
-664 -6555 -1745 -3600 -964 -6548 -1753 -6553 -1751 -4 1 2942 861 6545 1911
3604 1050 6557 1913 6563 1918 5 5 5 12 -1 18 -7 7 -2168 -619 -6548 -1896
-3596 -1048 -6540 -1904 -6542 -1902 -2 2 2907 921 6464 2043 3557 1121 6503
2050 6546 2064 83 27 119 59 55 48 -19 -3 -2990 -937 -6603 -2077 -3613 -1139
-6570 -2070 -6571 -2068 -2 2 2967 1011 6597 2243 3630 1232 6602 2244 6605
2248 3 5 1 13 -3 17 -5 5 -2905 -974 -6563 -2216 -3605 -1223 -6555 -2223
-6557 -2221 -2 2 2931 1071 6519 2376 3587 1306 6541 2382 6565 2392 48 20 58
45 15 36 -16 -3 -2977 -1079 -6582 -2391 -3605 -1312 -6556 -2384 -6558 -2382
-2 1 2957 1154 6574 2560 3618 1407 6582 2562 6588 2567 5 6 5 13 -1 19 -6 6
-2403 -922 -6578 -2546 -3613 -1405 -6571 -2553 -6573 -2551 -1 2 2956 1229
6573 2727 3616 1498 6578 2728 6581 2733 3 5 1 13 -3 17 -5 5 -2979 -1222
-6609 -2725 -3629 -1504 -6601 -2733 -6602 -2731 -2 1 2971 1312 6607 2911
4340 1910 6610 2914 6610 2923 0 10 -7 13 -22 9 -13 -2 -2979 -1305 -6592
-2896 -3613 -1590 -6571 -2889 -6573 -2887 -2 1 2963 1386 6589 3077 3625
1691 6594 3080 6596 3088 4 11 -2 13 -24 8 -16 -4 -3001 -1392 -6633 -3086
-3633 -1695 -6606 -3079 -6608 -3078 -1 2 2981 1474 6628 3272 3647 1799 6633
3274 6636 3278 3 5 1 13 -4 18 -5 5 -2604 -1271 -6458 -3172 -6481 -3197
-6808 -3358 -6790 -3341 6 5 2852 1488 6325 3295 3473 1808 6322 3292 6330
3297 11 7 12 12 3 21 -8 8 -1551 -790 -6260 -3241 -3436 -1789 -6300 -3280
-6363 -3313 -63 -33 -112 -57 -108 -53 3 4 2703 1487 6000 3296 3690 2024
5994 3294 5996 3304 2 9 -1 16 -6 16 -5 0 -2664 -1456 -5908 -3236 -6533
-3584 -6052 -3320 -6042 -3309 4 4 2542 1471 5640 3260 3467 2001 5634 3258
5636 3268 2 10 -1 17 -6 17 -5 0 -2546 -1465 -5648 -3256 -5795 -3346 -5684
-3282 -5672 -3270 3 4 2411 1467 5350 3250 4898 2972 5477 3328 5332 3272 -10
-4 -2415 -1461 -5344 -3238 -2929 -1777 -5336 -3238 -5350 -3247 -14 -8 -20
-10 -15 -4 6 6 2287 1461 5070 3233 2783 1772 5064 3226 5069 3231 6 6 6 13
-1 20 -8 8 -1347 -840 -5069 -3211 -5689 -3624 -5111 -3257 -5101 -3245 4 5
2170 1454 4815 3221 2644 1766 4808 3219 4810 3228 2 9 -1 16 -7 16 -6 0
-1883 -1252 -4173 -2781 -2290 -1530 -4469 -2986 -4843 -3236 -374 -250 -675
-450 -670 -444 6 5 2071 1453 4590 3216 2519 1764 4584 3211 4589 3216 6 6 6
13 -1 20 -8 8 -1210 -828 -4565 -3177 -2504 -1753 -4569 -3198 -4588 -3212
l-35 -24 30 25 c17 14 1976 1452 4355 3196 2379 1744 4325 3177 4325 3183 0 6
-4 13 -10 14 -5 2 -1974 -1437 -4375 -3197 -2401 -1760 -4356 -3192 -4345
-3181 11 10 1867 1436 4125 3167 2258 1731 4117 3159 4132 3173 27 25 29 48 3
38 -9 -3 -8103 -6208 -8250 -6325 -18 -14 -19 -14 -5 1 8 9 1777 1430 3930
3158 2153 1728 3915 3147 3915 3153 0 6 -5 12 -10 14 -6 2 -1520 -1209 -3365
-2689 -3813 -3061 -4537 -3641 -4495 -3601 17 15 1703 1431 3748 3147 2044
1715 3717 3125 3717 3133 0 8 -6 13 -14 11 -8 -2 -1604 -1337 -3547 -2968
-4009 -3364 -3985 -3344 -3944 -3303 17 17 1623 1427 3570 3133 1947 1707
3543 3108 3547 3114 12 19 -10 30 -29 15 -9 -8 -1610 -1411 -3558 -3118 -1947
-1707 -3554 -3115 -3571 -3130 -86 -73 320 299 3430 3149 1851 1696 3365 3089
3363 3095 -2 5 -9 10 -15 10 -6 0 -1535 -1397 -3399 -3104 -1863 -1707 -3377
-3092 -3363 -3076 14 15 1466 1407 3228 3093 1761 1687 3201 3071 3199 3077
-2 5 -8 10 -14 10 -6 0 -937 -886 -2069 -1970 -1132 -1083 -2592 -2480 -3244
-3104 l-1185 -1134 3095 3096 c2473 2474 3092 3099 3082 3109 -10 10 -642
-616 -3144 -3117 -1723 -1722 -3087 -3083 -3032 -3025 54 58 1395 1459 2979
3114 1584 1655 2880 3013 2880 3019 0 6 -5 12 -11 14 -6 2 -1299 -1343 -2875
-2989 -1575 -1646 -2906 -3035 -2958 -3088 -134 -136 -82 -79 2873 3145 1466
1600 2666 2916 2666 2923 0 7 -6 12 -14 10 -8 -2 -1257 -1360 -2776 -3018
-1519 -1658 -2780 -3033 -2803 -3055 -22 -22 23 32 100 120 102 118 4651 5306
5136 5859 50 57 66 81 58 89 -8 8 -20 2 -45 -23 -18 -19 -1204 -1371 -2636
-3005 -1431 -1633 -2619 -2986 -2639 -3005 -26 -26 -29 -27 -10 -5 236 272
5043 6014 5047 6027 2 11 -1 18 -9 17 -8 0 -1137 -1339 -2509 -2975 -1372
-1636 -2512 -2994 -2533 -3017 -52 -57 681 858 2898 3621 1034 1288 1880 2348
1880 2355 0 6 -5 12 -12 12 -7 0 -1097 -1352 -2424 -3005 -1326 -1653 -2418
-3012 -2427 -3020 -20 -19 -197 -251 2377 3104 1575 2053 2229 2912 2221 2920
-7 7 -16 4 -29 -9 -10 -11 -1044 -1356 -2296 -2990 -1253 -1633 -2285 -2977
-2293 -2985 -20 -19 -297 -398 2183 2985 1198 1634 2180 2978 2183 2989 3 13
0 17 -11 15 -9 -2 -991 -1334 -2182 -2959 -1192 -1625 -2178 -2968 -2191
-2985 -39 -47 -43 -53 2100 3008 1120 1600 2036 2915 2036 2923 0 27 -19 14
-58 -38 -21 -29 -958 -1367 -2082 -2973 -1124 -1606 -2050 -2927 -2058 -2935
-14 -15 182 280 2667 3998 710 1063 1291 1939 1291 1947 0 24 -17 17 -43 -17
-13 -18 -907 -1356 -1987 -2973 -1689 -2529 -2067 -3094 -1965 -2930 10 17
860 1350 1888 2964 1029 1614 1872 2943 1875 2953 2 11 -1 18 -9 18 -8 0 -848
-1309 -1867 -2909 -1623 -2548 -1936 -3036 -1870 -2921 8 14 803 1324 1766
2912 964 1588 1752 2895 1752 2903 0 9 -6 15 -12 13 -7 -3 -810 -1318 -1785
-2924 -1638 -2700 -1801 -2968 -1790 -2939 3 6 761 1321 1686 2922 924 1602
1681 2920 1681 2928 0 18 -14 20 -27 3 -6 -7 -761 -1313 -1678 -2903 -917
-1589 -1672 -2894 -1678 -2900 -13 -13 -226 -402 1588 2904 1149 2095 1584
2896 1576 2904 -7 7 -14 7 -20 1 -4 -5 -727 -1321 -1606 -2924 -879 -1603
-1602 -2919 -1608 -2925 -5 -5 15 37 46 95 30 58 715 1373 1522 2924 1059
2034 1464 2821 1456 2829 -7 7 -14 7 -19 1 -5 -5 -688 -1314 -1517 -2909 -830
-1595 -1513 -2904 -1518 -2910 -5 -6 -5 -1 1 10 210 417 2852 5789 2852 5800
0 18 -14 20 -27 3 -5 -7 -646 -1303 -1423 -2880 -777 -1577 -1415 -2866 -1416
-2865 -2 2 597 1291 1331 2865 734 1575 1335 2869 1335 2877 0 22 -18 18 -33
-7 -8 -13 -614 -1311 -1348 -2885 -733 -1574 -1335 -2861 -1336 -2859 -2 1
566 1296 1262 2877 817 1856 1261 2877 1255 2883 -6 6 -13 6 -19 0 -5 -5 -573
-1290 -1262 -2856 -689 -1566 -1254 -2846 -1256 -2845 -2 2 526 1280 1172
2840 646 1560 1175 2844 1175 2852 0 33 -23 11 -49 -47 -16 -35 -545 -1311
-1176 -2836 -632 -1524 -1150 -2771 -1152 -2769 -2 2 488 1266 1088 2808 599
1542 1093 2816 1096 2832 3 16 1 27 -5 27 -7 0 -18 -12 -25 -27 -8 -16 -506
-1294 -1107 -2841 -601 -1546 -1095 -2811 -1097 -2809 -1 2 461 1276 1027
2832 678 1862 1026 2833 1020 2839 -6 6 -13 6 -19 1 -4 -6 -469 -1276 -1032
-2822 -562 -1547 -1024 -2811 -1026 -2809 -2 2 424 1263 947 2803 522 1539
950 2807 950 2816 0 22 -17 22 -28 0 -5 -10 -445 -1302 -977 -2871 -533 -1568
-969 -2851 -971 -2850 -1 2 402 1286 897 2853 494 1568 899 2858 899 2868 0
28 -20 19 -34 -15 -7 -18 -408 -1287 -892 -2820 -483 -1533 -879 -2786 -881
-2784 -2 2 363 1262 812 2800 448 1539 815 2806 815 2817 0 26 -19 24 -29 -3
-5 -13 -372 -1271 -817 -2795 -444 -1525 -809 -2771 -811 -2769 -2 2 331 1256
742 2787 524 1956 742 2786 735 2793 -8 8 -13 7 -18 -1 -5 -7 -345 -1271 -757
-2808 -412 -1537 -750 -2793 -752 -2791 -2 2 302 1255 677 2784 374 1529 680
2790 680 2801 0 28 -18 27 -29 -1 -4 -13 -316 -1282 -692 -2820 -376 -1538
-685 -2795 -687 -2793 -2 1 276 1262 617 2802 342 1539 621 2806 621 2816 0
24 -19 21 -30 -5 -5 -13 -285 -1268 -622 -2790 -337 -1522 -614 -2765 -616
-2763 -2 2 244 1249 547 2773 303 1523 551 2776 551 2786 0 9 -6 16 -14 16 -9
0 -18 -18 -24 -47 -5 -27 -254 -1278 -553 -2781 -299 -1503 -545 -2729 -547
-2724 -1 4 216 1246 483 2760 267 1513 485 2761 485 2772 0 28 -22 21 -31 -11
-4 -13 -225 -1259 -491 -2769 -266 -1510 -484 -2736 -485 -2725 -2 11 188
1255 421 2765 248 1604 420 2749 415 2754 -6 6 -12 6 -18 0 -5 -5 -202 -1261
-437 -2792 -236 -1531 -430 -2779 -432 -2774 -1 5 162 1257 363 2782 251 1911
362 2777 355 2784 -8 8 -13 7 -18 -1 -4 -6 -171 -1259 -372 -2784 -201 -1525
-366 -2767 -368 -2759 -1 8 133 1248 298 2755 165 1507 300 2753 300 2768 0
40 -23 29 -31 -14 -4 -19 -141 -1265 -305 -2769 -165 -1504 -300 -2724 -302
-2710 -1 14 105 1258 237 2765 161 1839 237 2743 230 2750 -7 7 -12 6 -17 -2
-4 -6 -115 -1246 -247 -2755 -132 -1509 -241 -2727 -243 -2708 -1 19 76 1237
173 2706 96 1469 175 2692 175 2718 0 53 -22 61 -29 10 -1 -16 -85 -1275 -186
-2799 -100 -1523 -183 -2754 -184 -2735 0 19 53 1270 119 2780 66 1510 120
2755 120 2768 0 12 -6 22 -14 22 -9 0 -15 -18 -19 -57 -3 -32 -59 -1284 -124
-2783 -65 -1499 -119 -2678 -120 -2620 -2 58 24 1307 56 2775 35 1595 55 2674
50 2680 -6 6 -12 6 -18 0 -4 -6 -34 -1209 -65 -2675 -32 -1466 -61 -2750 -65
-2855 -4 -104 -9 1098 -9 2673 -2 1958 -5 2862 -12 2862 -6 0 -13 -6 -15 -12z
m162 -5580 c-2 -18 -4 -6 -4 27 0 33 2 48 4 33 2 -15 2 -42 0 -60z m40 -20
c-2 -13 -4 -3 -4 22 0 25 2 35 4 23 2 -13 2 -33 0 -45z m130 25 c-3 -10 -5 -4
-5 12 0 17 2 24 5 18 2 -7 2 -21 0 -30z m40 -15 c-3 -7 -5 -2 -5 12 0 14 2 19
5 13 2 -7 2 -19 0 -25z m-130 -25 c-3 -10 -5 -2 -5 17 0 19 2 27 5 18 2 -10 2
-26 0 -35z m170 5 c-3 -7 -5 -2 -5 12 0 14 2 19 5 13 2 -7 2 -19 0 -25z m-130
-15 c-3 -10 -5 -4 -5 12 0 17 2 24 5 18 2 -7 2 -21 0 -30z m257 3 c-3 -15 -8
-25 -11 -23 -2 3 -1 17 3 31 3 15 8 25 11 23 2 -3 1 -17 -3 -31z m-217 -13
c-3 -10 -5 -4 -5 12 0 17 2 24 5 18 2 -7 2 -21 0 -30z m170 5 c-3 -8 -6 -5 -6
6 -1 11 2 17 5 13 3 -3 4 -12 1 -19z m-420 -65 c-2 -16 -4 -3 -4 27 0 30 2 43
4 28 2 -16 2 -40 0 -55z m290 55 c-3 -8 -6 -5 -6 6 -1 11 2 17 5 13 3 -3 4
-12 1 -19z m40 -10 c-3 -8 -6 -5 -6 6 -1 11 2 17 5 13 3 -3 4 -12 1 -19z
m-290 -50 c-2 -13 -4 -3 -4 22 0 25 2 35 4 23 2 -13 2 -33 0 -45z m330 40 c-3
-8 -6 -5 -6 6 -1 11 2 17 5 13 3 -3 4 -12 1 -19z m207 -32 c-9 -26 -18 -45
-20 -43 -2 2 3 25 12 51 9 26 18 45 20 43 2 -2 -3 -25 -12 -51z m-497 -3 c-3
-10 -5 -2 -5 17 0 19 2 27 5 18 2 -10 2 -26 0 -35z m40 0 c-3 -10 -5 -2 -5 17
0 19 2 27 5 18 2 -10 2 -26 0 -35z m290 25 c-3 -8 -6 -5 -6 6 -1 11 2 17 5 13
3 -3 4 -12 1 -19z m-250 -20 c-3 -7 -5 -2 -5 12 0 14 2 19 5 13 2 -7 2 -19 0
-25z m40 0 c-3 -7 -5 -2 -5 12 0 14 2 19 5 13 2 -7 2 -19 0 -25z m250 10 c-3
-8 -6 -5 -6 6 -1 11 2 17 5 13 3 -3 4 -12 1 -19z m-210 -10 c-3 -8 -6 -5 -6 6
-1 11 2 17 5 13 3 -3 4 -12 1 -19z m40 0 c-3 -8 -6 -5 -6 6 -1 11 2 17 5 13 3
-3 4 -12 1 -19z m210 0 c-3 -8 -6 -5 -6 6 -1 11 2 17 5 13 3 -3 4 -12 1 -19z
m174 -5 c-12 -20 -14 -14 -5 12 4 9 9 14 11 11 3 -2 0 -13 -6 -23z m-344 -5
c-3 -8 -6 -5 -6 6 -1 11 2 17 5 13 3 -3 4 -12 1 -19z m80 -10 c-3 -8 -6 -5 -6
6 -1 11 2 17 5 13 3 -3 4 -12 1 -19z m204 -25 c-12 -20 -14 -14 -5 12 4 9 9
14 11 11 3 -2 0 -13 -6 -23z m85 -10 c-8 -15 -15 -25 -16 -21 0 12 23 58 27
54 3 -2 -2 -17 -11 -33z m-45 0 c-12 -20 -14 -14 -5 12 4 9 9 14 11 11 3 -2 0
-13 -6 -23z m224 -103 c-9 -16 -18 -30 -21 -30 -2 0 2 14 11 30 9 17 18 30 21
30 2 0 -2 -13 -11 -30z m85 -20 c-6 -11 -13 -20 -16 -20 -2 0 0 9 6 20 6 11
13 20 16 20 2 0 0 -9 -6 -20z m-60 -20 c-6 -11 -13 -20 -16 -20 -2 0 0 9 6 20
6 11 13 20 16 20 2 0 0 -9 -6 -20z m250 -143 c0 -2 -10 -12 -22 -23 l-23 -19
19 23 c18 21 26 27 26 19z m20 -40 c0 -2 -12 -14 -27 -28 l-28 -24 24 28 c23
25 31 32 31 24z m0 -60 c0 -2 -12 -14 -27 -28 l-28 -24 24 28 c23 25 31 32 31
24z m110 -112 c-24 -25 -46 -45 -49 -45 -3 0 15 20 39 45 24 25 46 45 49 45 3
0 -15 -20 -39 -45z m40 -69 c0 -2 -8 -10 -17 -17 -16 -13 -17 -12 -4 4 13 16
21 21 21 13z m60 1 c0 -2 -10 -12 -22 -23 l-23 -19 19 23 c18 21 26 27 26 19z
m40 -21 c0 -2 -8 -10 -17 -17 -16 -13 -17 -12 -4 4 13 16 21 21 21 13z m160
-191 c0 -2 -10 -9 -22 -15 -22 -11 -22 -10 -4 4 21 17 26 19 26 11z m50 -20
c0 -2 -13 -11 -30 -20 -38 -19 -40 -11 -2 9 31 17 32 18 32 11z m70 -155 c-19
-11 -39 -19 -45 -19 -5 0 6 8 25 19 19 11 40 19 45 19 6 0 -6 -8 -25 -19z
m-10 -50 c-8 -5 -19 -10 -25 -10 -5 0 -3 5 5 10 8 5 20 10 25 10 6 0 3 -5 -5
-10z m60 -20 c-8 -5 -19 -10 -25 -10 -5 0 -3 5 5 10 8 5 20 10 25 10 6 0 3 -5
-5 -10z m-50 -20 c-8 -5 -19 -10 -25 -10 -5 0 -3 5 5 10 8 5 20 10 25 10 6 0
3 -5 -5 -10z m10 -40 c-8 -5 -19 -10 -25 -10 -5 0 -3 5 5 10 8 5 20 10 25 10
6 0 3 -5 -5 -10z m40 -29 c-8 -5 -26 -11 -40 -15 -21 -5 -20 -3 5 9 32 15 60
20 35 6z m25 -81 c-11 -5 -27 -9 -35 -9 -9 0 -8 4 5 9 11 5 27 9 35 9 9 0 8
-4 -5 -9z m-8 -46 c-3 -3 -12 -4 -19 -1 -8 3 -5 6 6 6 11 1 17 -2 13 -5z m10
-40 c-3 -3 -12 -4 -19 -1 -8 3 -5 6 6 6 11 1 17 -2 13 -5z m-40 -10 c-3 -3
-12 -4 -19 -1 -8 3 -5 6 6 6 11 1 17 -2 13 -5z m90 -20 c-3 -3 -12 -4 -19 -1
-8 3 -5 6 6 6 11 1 17 -2 13 -5z m-40 -10 c-3 -3 -12 -4 -19 -1 -8 3 -5 6 6 6
11 1 17 -2 13 -5z m6 -41 c-7 -2 -19 -2 -25 0 -7 3 -2 5 12 5 14 0 19 -2 13
-5z m60 -30 c-7 -2 -19 -2 -25 0 -7 3 -2 5 12 5 14 0 19 -2 13 -5z m-50 -10
c-7 -2 -19 -2 -25 0 -7 3 -2 5 12 5 14 0 19 -2 13 -5z m-56 -9 c-3 -3 -12 -4
-19 -1 -8 3 -5 6 6 6 11 1 17 -2 13 -5z m126 -21 c-7 -2 -21 -2 -30 0 -10 3
-4 5 12 5 17 0 24 -2 18 -5z m-60 -10 c-7 -2 -19 -2 -25 0 -7 3 -2 5 12 5 14
0 19 -2 13 -5z m-66 -9 c-3 -3 -12 -4 -19 -1 -8 3 -5 6 6 6 11 1 17 -2 13 -5z
m76 -31 c-7 -2 -21 -2 -30 0 -10 3 -4 5 12 5 17 0 24 -2 18 -5z m-76 -9 c-3
-3 -12 -4 -19 -1 -8 3 -5 6 6 6 11 1 17 -2 13 -5z m91 -31 c-10 -2 -26 -2 -35
0 -10 3 -2 5 17 5 19 0 27 -2 18 -5z m-91 -9 c-3 -3 -12 -4 -19 -1 -8 3 -5 6
6 6 11 1 17 -2 13 -5z m106 -31 c-13 -2 -33 -2 -45 0 -13 2 -3 4 22 4 25 0 35
-2 23 -4z m-110 -10 c-7 -2 -19 -2 -25 0 -7 3 -2 5 12 5 14 0 19 -2 13 -5z
m135 -30 c-16 -2 -40 -2 -55 0 -16 2 -3 4 27 4 30 0 43 -2 28 -4z m-141 -9
c-3 -3 -12 -4 -19 -1 -8 3 -5 6 6 6 11 1 17 -2 13 -5z m0 -270 c-3 -3 -12 -4
-19 -1 -8 3 -5 6 6 6 11 1 17 -2 13 -5z m141 -11 c-16 -2 -40 -2 -55 0 -16 2
-3 4 27 4 30 0 43 -2 28 -4z m-135 -30 c-7 -2 -19 -2 -25 0 -7 3 -2 5 12 5 14
0 19 -2 13 -5z m110 -10 c-13 -2 -33 -2 -45 0 -13 2 -3 4 22 4 25 0 35 -2 23
-4z m-106 -29 c-3 -3 -12 -4 -19 -1 -8 3 -5 6 6 6 11 1 17 -2 13 -5z m91 -11
c-10 -2 -26 -2 -35 0 -10 3 -2 5 17 5 19 0 27 -2 18 -5z m-91 -29 c-3 -3 -12
-4 -19 -1 -8 3 -5 6 6 6 11 1 17 -2 13 -5z m76 -11 c-7 -2 -21 -2 -30 0 -10 3
-4 5 12 5 17 0 24 -2 18 -5z m-76 -29 c-3 -3 -12 -4 -19 -1 -8 3 -5 6 6 6 11
1 17 -2 13 -5z m66 -11 c-7 -2 -21 -2 -30 0 -10 3 -4 5 12 5 17 0 24 -2 18 -5z
m60 -10 c-7 -2 -21 -2 -30 0 -10 3 -4 5 12 5 17 0 24 -2 18 -5z m-126 -19 c-3
-3 -12 -4 -19 -1 -8 3 -5 6 6 6 11 1 17 -2 13 -5z m56 -11 c-7 -2 -19 -2 -25
0 -7 3 -2 5 12 5 14 0 19 -2 13 -5z m50 -10 c-7 -2 -19 -2 -25 0 -7 3 -2 5 12
5 14 0 19 -2 13 -5z m-66 -29 c-3 -3 -12 -4 -19 -1 -8 3 -5 6 6 6 11 1 17 -2
13 -5z m0 -40 c-3 -3 -12 -4 -19 -1 -8 3 -5 6 6 6 11 1 17 -2 13 -5z m40 -10
c-3 -3 -12 -4 -19 -1 -8 3 -5 6 6 6 11 1 17 -2 13 -5z m-50 -30 c-3 -3 -12 -4
-19 -1 -8 3 -5 6 6 6 11 1 17 -2 13 -5z m-10 -40 c-3 -3 -12 -4 -19 -1 -8 3
-5 6 6 6 11 1 17 -2 13 -5z m8 -44 c13 -5 14 -9 5 -9 -8 0 -24 4 -35 9 -13 5
-14 9 -5 9 8 0 24 -4 35 -9z m-55 -70 c8 -5 11 -10 5 -10 -5 0 -17 5 -25 10
-8 5 -10 10 -5 10 6 0 17 -5 25 -10z m-10 -40 c8 -5 11 -10 5 -10 -5 0 -17 5
-25 10 -8 5 -10 10 -5 10 6 0 17 -5 25 -10z m-10 -40 c8 -5 11 -10 5 -10 -5 0
-17 5 -25 10 -8 5 -10 10 -5 10 6 0 17 -5 25 -10z m50 -20 c8 -5 11 -10 5 -10
-5 0 -17 5 -25 10 -8 5 -10 10 -5 10 6 0 17 -5 25 -10z m-60 -20 c8 -5 11 -10
5 -10 -5 0 -17 5 -25 10 -8 5 -10 10 -5 10 6 0 17 -5 25 -10z m10 -50 c19 -11
31 -19 25 -19 -5 0 -26 8 -45 19 -19 11 -30 19 -25 19 6 0 26 -8 45 -19z m-70
-156 c0 -2 -13 2 -30 11 -16 9 -30 18 -30 21 0 2 14 -2 30 -11 17 -9 30 -18
30 -21z m-50 -20 c0 -2 -9 0 -20 6 -11 6 -20 13 -20 16 0 2 9 0 20 -6 11 -6
20 -13 20 -16z m-99 -81 c13 -16 12 -17 -3 -4 -10 7 -18 15 -18 17 0 8 8 3 21
-13z m-70 -100 c13 -16 12 -17 -3 -4 -10 7 -18 15 -18 17 0 8 8 3 21 -13z
m-46 -13 c10 -11 16 -20 13 -20 -3 0 -13 9 -23 20 -10 11 -16 20 -13 20 3 0
13 -9 23 -20z m-54 -7 c13 -16 12 -17 -3 -4 -17 13 -22 21 -14 21 2 0 10 -8
17 -17z m9 -120 c0 -8 -9 0 -50 45 l-45 47 48 -45 c26 -24 47 -45 47 -47z m20
42 c19 -19 32 -35 29 -35 -3 0 -20 16 -39 35 -19 19 -32 35 -29 35 3 0 20 -16
39 -35z m-190 -90 c13 -14 21 -25 18 -25 -2 0 -15 11 -28 25 -13 14 -21 25
-18 25 2 0 15 -11 28 -25z m0 -60 c13 -14 21 -25 18 -25 -2 0 -15 11 -28 25
-13 14 -21 25 -18 25 2 0 15 -11 28 -25z m-15 -45 c10 -11 16 -20 13 -20 -3 0
-13 9 -23 20 -10 11 -16 20 -13 20 3 0 13 -9 23 -20z m-235 -160 c6 -11 8 -20
6 -20 -3 0 -10 9 -16 20 -6 11 -8 20 -6 20 3 0 10 -9 16 -20z m60 -20 c6 -11
8 -20 6 -20 -3 0 -10 9 -16 20 -6 11 -8 20 -6 20 3 0 10 -9 16 -20z m-85 -20
c9 -16 13 -30 11 -30 -3 0 -12 14 -21 30 -9 17 -13 30 -11 30 3 0 12 -13 21
-30z m-166 -135 c0 -5 -6 1 -14 15 -8 14 -14 30 -14 35 0 6 6 -1 14 -15 8 -14
14 -29 14 -35z m-49 10 c0 -5 -5 -3 -10 5 -5 8 -10 20 -10 25 0 6 5 3 10 -5 5
-8 10 -19 10 -25z m-40 -10 c0 -5 -5 -3 -10 5 -5 8 -10 20 -10 25 0 6 5 3 10
-5 5 -8 10 -19 10 -25z m-26 -55 c5 -20 3 -19 -8 5 -7 17 -16 41 -20 55 -5 20
-3 19 8 -5 7 -16 16 -41 20 -55z m-587 -17 c-2 -16 -4 -3 -4 27 0 30 2 43 4
28 2 -16 2 -40 0 -55z m40 15 c-2 -13 -4 -3 -4 22 0 25 2 35 4 23 2 -13 2 -33
0 -45z m360 40 c-3 -8 -6 -5 -6 6 -1 11 2 17 5 13 3 -3 4 -12 1 -19z m-320
-35 c-3 -10 -5 -2 -5 17 0 19 2 27 5 18 2 -10 2 -26 0 -35z m40 10 c-3 -10 -5
-4 -5 12 0 17 2 24 5 18 2 -7 2 -21 0 -30z m200 15 c-3 -8 -6 -5 -6 6 -1 11 2
17 5 13 3 -3 4 -12 1 -19z m353 -13 c0 -5 -5 -3 -10 5 -5 8 -10 20 -10 25 0 6
5 3 10 -5 5 -8 10 -19 10 -25z m-513 -7 c-3 -7 -5 -2 -5 12 0 14 2 19 5 13 2
-7 2 -19 0 -25z m40 0 c-3 -7 -5 -2 -5 12 0 14 2 19 5 13 2 -7 2 -19 0 -25z
m40 10 c-3 -8 -6 -5 -6 6 -1 11 2 17 5 13 3 -3 4 -12 1 -19z m40 0 c-3 -8 -6
-5 -6 6 -1 11 2 17 5 13 3 -3 4 -12 1 -19z m210 0 c-3 -8 -6 -5 -6 6 -1 11 2
17 5 13 3 -3 4 -12 1 -19z m-40 -10 c-3 -8 -6 -5 -6 6 -1 11 2 17 5 13 3 -3 4
-12 1 -19z m-40 -10 c-3 -8 -6 -5 -6 6 -1 11 2 17 5 13 3 -3 4 -12 1 -19z
m-40 -10 c-3 -8 -6 -5 -6 6 -1 11 2 17 5 13 3 -3 4 -12 1 -19z m-40 -10 c-3
-8 -6 -5 -6 6 -1 11 2 17 5 13 3 -3 4 -12 1 -19z m-80 -25 c-3 -10 -5 -4 -5
12 0 17 2 24 5 18 2 -7 2 -21 0 -30z m40 15 c-3 -8 -6 -5 -6 6 -1 11 2 17 5
13 3 -3 4 -12 1 -19z m182 -28 c0 -9 -4 -8 -9 5 -5 11 -9 27 -9 35 0 9 4 8 9
-5 5 -11 9 -27 9 -35z m-262 3 c-3 -10 -5 -4 -5 12 0 17 2 24 5 18 2 -7 2 -21
0 -30z m210 15 c-3 -8 -6 -5 -6 6 -1 11 2 17 5 13 3 -3 4 -12 1 -19z m-250
-35 c-3 -10 -5 -2 -5 17 0 19 2 27 5 18 2 -10 2 -26 0 -35z m-40 -25 c-2 -13
-4 -3 -4 22 0 25 2 35 4 23 2 -13 2 -33 0 -45z m210 30 c-3 -7 -5 -2 -5 12 0
14 2 19 5 13 2 -7 2 -19 0 -25z m-250 -60 c-2 -18 -4 -6 -4 27 0 33 2 48 4 33
2 -15 2 -42 0 -60z m210 40 c-3 -7 -5 -2 -5 12 0 14 2 19 5 13 2 -7 2 -19 0
-25z m-40 -15 c-3 -10 -5 -4 -5 12 0 17 2 24 5 18 2 -7 2 -21 0 -30z"/>
</g>
</svg>
