<?xml version="1.0" standalone="no"?>
<!DOCTYPE svg PUBLIC "-//W3C//DTD SVG 20010904//EN"
 "http://www.w3.org/TR/2001/REC-SVG-20010904/DTD/svg10.dtd">
<svg version="1.0" xmlns="http://www.w3.org/2000/svg"
 width="1500.000000pt" height="1500.000000pt" viewBox="0 0 1500.000000 1500.000000"
 preserveAspectRatio="xMidYMid meet">

<g transform="translate(0.000000,1500.000000) scale(0.100000,-0.100000)"
fill="#BD7B4F" stroke="none">
<path d="M426 14978 c-3 -13 -7 -43 -10 -67 -17 -154 -181 -311 -345 -330 -66
-8 -81 -15 -63 -33 16 -16 128 4 197 36 76 34 168 125 205 200 31 63 57 174
46 201 -8 22 -25 18 -30 -7z"/>
<path d="M836 14988 c-3 -7 -7 -43 -10 -80 -8 -98 -32 -182 -81 -283 -125
-256 -374 -427 -663 -453 -46 -4 -77 -12 -80 -19 -6 -20 120 -16 214 7 307 73
551 317 624 624 21 87 27 216 10 216 -6 0 -12 -6 -14 -12z"/>
<path d="M1241 14881 c-39 -390 -233 -716 -551 -925 -173 -114 -348 -174 -573
-197 -77 -8 -116 -16 -114 -23 7 -20 190 -9 303 19 470 113 826 469 939 939
28 113 39 296 19 303 -7 2 -15 -37 -23 -116z"/>
<path d="M1666 14988 c-2 -7 -7 -58 -10 -113 -10 -195 -64 -405 -153 -595
-151 -324 -459 -632 -783 -783 -191 -89 -399 -142 -608 -155 -86 -6 -107 -10
-107 -22 0 -20 148 -15 301 11 688 115 1248 675 1363 1363 24 142 31 297 14
303 -7 3 -15 -1 -17 -9z"/>
<path d="M2072 14848 c-33 -417 -167 -778 -410 -1105 -85 -114 -293 -321 -407
-406 -330 -244 -686 -376 -1102 -409 -122 -9 -153 -15 -153 -26 0 -13 19 -14
128 -9 1065 53 1926 914 1979 1980 5 108 4 127 -9 127 -11 0 -17 -31 -26 -152z"/>
<path d="M2497 14994 c-4 -4 -7 -44 -7 -88 0 -45 -7 -139 -15 -210 -91 -778
-543 -1463 -1226 -1859 -334 -194 -719 -306 -1113 -326 -107 -5 -131 -9 -131
-21 0 -13 18 -15 110 -12 613 16 1228 285 1675 732 447 447 716 1062 732 1674
3 102 -4 131 -25 110z"/>
<path d="M2910 14946 c0 -95 -20 -306 -41 -436 -143 -868 -685 -1632 -1464
-2062 -389 -214 -802 -329 -1274 -354 -107 -6 -131 -10 -131 -22 0 -13 21 -14
158 -9 586 24 1156 233 1644 603 133 101 431 399 532 532 120 158 221 321 306
497 185 379 280 746 297 1148 6 142 5 157 -10 157 -14 0 -17 -10 -17 -54z"/>
<path d="M3327 14993 c-4 -3 -7 -52 -7 -109 0 -255 -60 -617 -150 -899 -117
-368 -328 -761 -574 -1070 -103 -129 -382 -408 -511 -511 -309 -246 -702 -457
-1070 -574 -283 -90 -644 -150 -900 -150 -102 0 -130 -9 -107 -32 14 -14 337
6 506 32 791 122 1496 510 2020 1110 420 480 688 1060 786 1696 21 140 46 474
36 499 -6 16 -18 19 -29 8z"/>
<path d="M3746 14988 c-2 -7 -9 -101 -15 -208 -30 -530 -159 -1011 -396 -1480
-179 -352 -400 -656 -690 -945 -289 -290 -593 -511 -945 -690 -447 -226 -920
-357 -1425 -395 -77 -5 -170 -10 -207 -10 -57 0 -68 -3 -68 -17 0 -15 17 -16
178 -10 1103 38 2159 593 2839 1492 457 605 725 1354 750 2098 5 133 3 177 -6
177 -6 0 -13 -6 -15 -12z"/>
<path d="M4156 14978 c-3 -13 -7 -99 -10 -193 -34 -1143 -621 -2292 -1551
-3035 -684 -546 -1541 -868 -2387 -897 -103 -3 -192 -9 -199 -13 -6 -4 -8 -13
-4 -20 14 -22 392 2 650 41 1446 221 2682 1203 3233 2569 185 459 288 955 295
1424 1 102 -1 140 -10 143 -7 3 -14 -6 -17 -19z"/>
<path d="M4577 14993 c-4 -3 -7 -43 -7 -87 0 -111 -17 -347 -36 -491 -112
-874 -456 -1660 -1031 -2358 -98 -119 -441 -462 -560 -560 -303 -250 -589
-435 -918 -597 -586 -288 -1181 -439 -1849 -468 -132 -5 -170 -10 -174 -21 -4
-12 26 -13 194 -8 1023 32 2026 427 2819 1111 111 96 339 322 439 436 707 804
1111 1812 1143 2853 6 185 3 213 -20 190z"/>
<path d="M4987 14948 c-4 -29 -7 -94 -7 -145 0 -201 -44 -566 -100 -836 -336
-1615 -1479 -2978 -3015 -3595 -533 -213 -1067 -327 -1651 -352 -113 -4 -208
-10 -211 -13 -3 -3 -2 -10 2 -16 8 -14 104 -14 315 -1 988 63 1918 406 2705
999 358 270 716 628 986 986 528 701 857 1512 969 2385 22 174 43 496 38 579
-4 72 -23 77 -31 9z"/>
<path d="M5406 14988 c-3 -7 -7 -94 -10 -193 -71 -2240 -1554 -4216 -3696
-4925 -484 -160 -978 -248 -1514 -268 -130 -5 -181 -10 -184 -19 -5 -16 224
-18 419 -3 1164 90 2234 535 3134 1303 241 206 533 514 750 792 107 136 330
471 417 625 403 710 635 1470 698 2279 13 177 13 421 0 421 -6 0 -12 -6 -14
-12z"/>
<path d="M5816 14843 c-20 -496 -78 -904 -187 -1321 -527 -2023 -2128 -3624
-4151 -4151 -417 -109 -825 -167 -1321 -187 -112 -4 -157 -9 -154 -18 6 -16
339 -11 552 9 1414 131 2724 771 3707 1812 891 943 1443 2165 1563 3458 20
213 25 546 9 552 -9 3 -14 -42 -18 -154z"/>
<path d="M6237 14993 c-4 -3 -7 -61 -7 -127 0 -236 -32 -588 -81 -886 -161
-995 -561 -1927 -1178 -2745 -240 -318 -660 -760 -960 -1009 -789 -657 -1670
-1092 -2650 -1311 -382 -85 -888 -145 -1228 -145 -116 0 -149 -8 -127 -30 12
-12 439 6 634 25 1746 177 3331 1076 4388 2490 675 903 1093 1979 1207 3105
16 163 37 619 29 632 -6 10 -18 10 -27 1z"/>
<path d="M6650 14943 c0 -114 -20 -461 -35 -613 -194 -1960 -1255 -3734 -2895
-4843 -910 -615 -1958 -994 -3050 -1102 -152 -15 -499 -35 -612 -35 -45 0 -58
-3 -58 -15 0 -37 573 -5 995 56 1073 154 2140 601 3020 1264 1325 999 2229
2439 2544 4055 72 369 121 844 121 1173 0 97 -3 117 -15 117 -12 0 -15 -13
-15 -57z"/>
<path d="M7066 14988 c-2 -7 -7 -114 -10 -238 -29 -1163 -380 -2360 -990
-3375 -479 -796 -1091 -1475 -1826 -2026 -1056 -793 -2289 -1267 -3600 -1384
-96 -8 -278 -18 -403 -22 -125 -3 -230 -10 -234 -15 -15 -26 23 -29 271 -18
292 12 492 29 747 65 2184 308 4115 1644 5195 3591 553 997 857 2128 876 3258
2 128 0 170 -9 173 -7 3 -15 -1 -17 -9z"/>
<path d="M7472 14718 c-20 -457 -57 -776 -138 -1186 -191 -970 -568 -1877
-1122 -2702 -464 -690 -1067 -1324 -1733 -1822 -900 -673 -1918 -1127 -3009
-1342 -413 -82 -731 -118 -1188 -138 -378 -16 -378 -30 1 -46 456 -20 774 -56
1187 -138 1091 -215 2109 -669 3009 -1342 459 -343 902 -764 1276 -1213 795
-953 1339 -2094 1579 -3309 82 -413 118 -731 138 -1187 16 -379 30 -379 46 -1
20 457 57 776 138 1186 191 970 568 1877 1122 2702 464 690 1067 1324 1733
1822 900 673 1918 1127 3009 1342 413 82 731 118 1188 138 193 8 282 15 282
23 0 8 -89 15 -282 23 -457 20 -775 56 -1188 138 -1091 215 -2109 669 -3009
1342 -459 343 -902 764 -1276 1213 -795 953 -1339 2094 -1579 3309 -82 413
-118 731 -138 1188 -8 193 -15 282 -23 282 -8 0 -15 -89 -23 -282z m69 -698
c182 -1435 779 -2777 1739 -3906 173 -204 620 -651 824 -824 1204 -1023 2637
-1628 4191 -1772 l140 -13 -130 -12 c-1589 -154 -2992 -746 -4201 -1773 -204
-173 -651 -620 -824 -824 -1027 -1209 -1619 -2612 -1773 -4201 l-12 -130 -13
140 c-144 1554 -749 2987 -1772 4191 -173 204 -620 651 -824 824 -1204 1023
-2637 1628 -4191 1772 l-140 13 130 12 c1589 154 2992 746 4201 1773 204 173
651 620 824 824 1023 1204 1628 2637 1772 4191 l13 140 12 -130 c7 -71 22
-204 34 -295z"/>
<path d="M7484 12458 c-6 -7 -21 -44 -33 -83 -13 -38 -56 -153 -96 -255 -349
-892 -855 -1707 -1508 -2428 -144 -158 -475 -485 -627 -618 -711 -622 -1484
-1094 -2340 -1429 -102 -40 -216 -83 -255 -95 -82 -28 -103 -42 -83 -56 7 -6
45 -21 83 -33 239 -80 605 -236 895 -381 802 -400 1480 -895 2115 -1541 598
-609 1056 -1250 1435 -2009 145 -290 302 -659 380 -895 28 -82 42 -103 56 -83
6 7 21 45 33 83 80 239 236 605 381 895 379 759 837 1400 1435 2009 635 646
1313 1141 2115 1541 290 145 659 302 895 380 82 28 103 42 83 56 -7 6 -44 21
-83 33 -239 80 -605 236 -895 381 -802 400 -1480 895 -2115 1541 -598 609
-1056 1250 -1435 2009 -145 290 -302 659 -380 895 -28 82 -42 103 -56 83z m71
-228 c253 -682 627 -1369 1072 -1965 456 -611 998 -1154 1608 -1613 605 -454
1293 -831 1985 -1087 85 -31 156 -58 157 -59 2 -1 -68 -29 -155 -61 -934 -344
-1829 -892 -2584 -1582 -167 -153 -450 -440 -594 -603 -645 -733 -1159 -1589
-1489 -2480 -31 -85 -58 -156 -59 -157 -1 -2 -29 68 -61 155 -251 681 -627
1370 -1072 1967 -456 611 -998 1154 -1608 1613 -605 454 -1293 831 -1985 1087
-85 31 -156 58 -157 59 -2 1 68 29 155 61 934 344 1829 892 2584 1582 167 153
450 440 594 603 646 734 1161 1593 1489 2482 32 87 60 157 61 155 1 -1 28 -72
59 -157z"/>
<path d="M7485 11371 c-3 -7 -38 -73 -77 -149 -256 -499 -588 -1012 -932
-1437 -349 -431 -830 -912 -1261 -1261 -435 -352 -944 -680 -1474 -951 -62
-32 -113 -63 -113 -68 0 -5 51 -36 113 -68 639 -327 1174 -687 1724 -1161 193
-167 634 -608 801 -801 474 -550 834 -1085 1161 -1724 32 -62 63 -113 68 -113
5 0 36 51 68 113 327 639 687 1174 1161 1724 167 193 608 634 801 801 550 474
1085 834 1724 1161 62 32 113 63 113 68 0 5 -51 36 -113 68 -639 327 -1174
687 -1724 1161 -298 257 -744 721 -1011 1051 -345 426 -677 939 -934 1440 -77
151 -84 162 -95 146z m71 -173 c230 -459 568 -980 919 -1418 209 -260 350
-416 614 -681 265 -264 421 -405 681 -614 438 -351 959 -689 1418 -919 61 -31
112 -58 112 -61 0 -3 -51 -30 -112 -61 -568 -285 -1188 -707 -1718 -1170 -174
-152 -592 -570 -744 -744 -463 -530 -885 -1150 -1170 -1717 -31 -62 -58 -113
-61 -113 -3 0 -30 51 -61 113 -285 567 -707 1187 -1170 1717 -152 174 -570
592 -744 744 -530 463 -1150 885 -1717 1170 -62 31 -113 58 -113 61 0 3 51 30
113 61 567 285 1187 707 1717 1170 174 152 592 570 744 744 463 530 885 1150
1170 1718 31 61 58 112 61 112 3 0 30 -51 61 -112z"/>
<path d="M7453 10450 c-181 -296 -497 -738 -718 -1005 -350 -421 -759 -830
-1180 -1180 -267 -221 -709 -537 -1005 -718 -74 -46 -79 -37 75 -132 378 -233
815 -561 1190 -894 167 -148 548 -529 696 -696 333 -375 661 -812 894 -1190
95 -154 86 -149 132 -75 181 296 497 738 718 1005 350 421 760 831 1180 1179
262 218 656 502 930 671 154 95 149 86 75 132 -296 181 -738 497 -1005 718
-421 350 -831 760 -1179 1180 -218 262 -502 656 -671 930 -95 154 -86 149
-132 75z m93 -77 c457 -741 1074 -1458 1759 -2044 307 -263 723 -567 1058
-773 42 -27 77 -49 77 -51 0 -2 -35 -24 -77 -51 -741 -457 -1458 -1074 -2044
-1759 -263 -307 -567 -723 -773 -1057 -27 -43 -49 -78 -51 -78 -2 0 -24 35
-51 78 -206 334 -510 750 -773 1057 -586 685 -1303 1302 -2043 1759 -43 27
-78 49 -78 51 0 2 35 24 78 51 336 208 748 509 1057 773 685 586 1302 1303
1759 2044 27 42 49 77 51 77 2 0 24 -35 51 -77z"/>
<path d="M7323 9523 c-293 -390 -511 -642 -858 -988 -346 -347 -598 -565 -988
-858 -125 -94 -224 -174 -220 -178 5 -4 107 -81 228 -172 381 -286 635 -507
980 -852 347 -346 565 -598 858 -988 94 -125 174 -224 178 -220 4 5 81 107
172 228 286 381 507 635 852 980 346 347 598 565 988 858 125 94 224 174 220
178 -5 4 -107 81 -228 172 -381 286 -635 507 -980 852 -345 345 -566 599 -852
980 -91 121 -168 223 -172 228 -4 4 -84 -95 -178 -220z m320 -25 c281 -375
524 -655 857 -988 333 -333 613 -576 988 -857 105 -80 192 -146 192 -148 0 -2
-87 -68 -192 -148 -375 -281 -655 -524 -988 -857 -333 -333 -576 -613 -857
-987 -80 -106 -146 -193 -148 -193 -2 0 -68 87 -148 193 -281 374 -524 654
-857 987 -333 333 -613 576 -987 857 -106 80 -193 146 -193 148 0 2 87 68 193
148 374 281 654 524 987 857 333 333 576 613 857 988 80 105 146 192 148 192
2 0 68 -87 148 -192z"/>
<path d="M7434 8988 c-341 -436 -986 -1081 -1421 -1422 -35 -27 -63 -54 -63
-61 0 -7 28 -34 63 -61 435 -341 1080 -986 1421 -1421 27 -35 54 -63 61 -63 7
0 34 28 61 63 341 435 986 1080 1422 1421 34 27 62 54 62 61 0 7 -28 34 -62
61 -436 341 -1081 986 -1422 1422 -27 34 -54 62 -61 62 -7 0 -34 -28 -61 -62z
m153 -91 c331 -413 887 -969 1300 -1300 56 -45 102 -86 102 -92 0 -5 -46 -47
-102 -92 -413 -331 -969 -887 -1300 -1300 -45 -56 -86 -102 -92 -102 -5 0 -47
46 -92 102 -331 413 -887 969 -1300 1300 -56 45 -102 87 -102 92 0 6 46 47
102 92 413 331 969 887 1300 1300 45 56 87 102 92 102 6 0 47 -46 92 -102z"/>
<path d="M7353 8259 c-152 -166 -493 -506 -662 -660 l-103 -95 153 -141 c166
-152 506 -493 660 -662 l95 -103 141 153 c152 166 493 506 662 660 l103 95
-153 141 c-166 152 -506 493 -660 662 l-95 103 -141 -153z m521 -297 c111
-112 263 -260 339 -330 l138 -126 -98 -90 c-157 -144 -494 -479 -631 -629
l-126 -138 -90 98 c-144 157 -479 494 -629 631 l-138 126 98 90 c157 144 494
479 631 629 l126 138 90 -98 c49 -54 180 -189 290 -301z"/>
<path d="M7347 7652 c-75 -75 -137 -142 -137 -147 0 -13 272 -285 285 -285 13
0 285 272 285 285 0 13 -272 285 -285 285 -6 0 -72 -62 -148 -138z m271 -269
l-123 -123 -122 122 -123 123 122 122 123 123 122 -122 123 -123 -122 -122z"/>
<path d="M7895 14991 c-9 -15 12 -489 30 -677 258 -2691 2030 -5006 4560
-5959 720 -271 1426 -412 2231 -445 248 -11 286 -8 271 18 -4 5 -109 12 -234
15 -2126 59 -4127 1100 -5414 2817 -877 1169 -1363 2553 -1407 4008 -5 157
-11 227 -19 229 -6 2 -14 -1 -18 -6z"/>
<path d="M8310 14883 c0 -671 149 -1486 394 -2161 134 -368 339 -805 526
-1117 804 -1349 2021 -2360 3482 -2891 675 -245 1490 -394 2161 -394 97 0 117
3 117 15 0 12 -13 15 -57 15 -114 0 -461 20 -613 35 -1092 108 -2140 487
-3050 1102 -1640 1109 -2701 2883 -2895 4843 -15 152 -35 499 -35 613 0 44 -3
57 -15 57 -12 0 -15 -20 -15 -117z"/>
<path d="M8727 14993 c-9 -14 12 -467 28 -633 114 -1126 532 -2202 1207 -3105
1057 -1414 2642 -2313 4388 -2490 195 -19 622 -37 634 -25 22 22 -11 30 -127
30 -340 0 -846 60 -1228 145 -979 218 -1861 655 -2650 1311 -198 164 -599 565
-763 763 -932 1120 -1427 2445 -1459 3905 -1 65 -6 101 -14 103 -6 2 -13 0
-16 -4z"/>
<path d="M9143 14984 c-9 -23 5 -361 23 -549 120 -1285 674 -2508 1562 -3448
983 -1041 2293 -1681 3707 -1812 213 -20 546 -25 552 -9 3 9 -42 14 -154 18
-87 4 -241 13 -343 22 -2314 186 -4311 1769 -5033 3991 -172 527 -257 1027
-283 1646 -6 144 -14 184 -31 141z"/>
<path d="M9560 14858 c0 -171 13 -355 41 -573 134 -1046 569 -2016 1272 -2840
206 -241 514 -533 792 -750 136 -107 471 -330 625 -417 710 -403 1471 -635
2279 -698 195 -15 424 -13 419 3 -3 9 -54 14 -184 19 -978 37 -1858 305 -2682
817 -586 364 -1119 866 -1528 1437 -622 870 -960 1868 -1002 2958 -5 130 -10
181 -19 184 -10 3 -13 -30 -13 -140z"/>
<path d="M9973 14983 c-11 -27 15 -451 37 -623 114 -878 441 -1684 969 -2385
270 -358 628 -716 986 -986 787 -593 1717 -936 2705 -999 211 -13 307 -13 315
1 4 6 5 13 2 16 -3 3 -98 9 -211 13 -584 25 -1118 139 -1651 352 -1536 617
-2679 1980 -3015 3595 -56 270 -100 635 -100 836 0 157 -16 234 -37 180z"/>
<path d="M10393 14804 c41 -1324 686 -2589 1747 -3426 760 -599 1703 -946
2654 -975 168 -5 198 -4 194 8 -4 11 -42 16 -174 21 -1040 46 -1960 400 -2767
1065 -119 98 -462 441 -560 560 -250 303 -435 589 -597 918 -288 586 -439
1181 -468 1849 -5 132 -10 170 -21 174 -12 4 -13 -26 -8 -194z"/>
<path d="M10804 14989 c-9 -15 3 -267 22 -444 156 -1524 1161 -2855 2594
-3433 450 -181 888 -274 1411 -298 112 -5 148 -4 154 6 4 7 2 16 -4 20 -7 4
-96 10 -199 13 -1161 39 -2296 618 -3042 1552 -544 680 -872 1551 -896 2380
-3 94 -7 180 -10 193 -5 24 -19 29 -30 11z"/>
<path d="M11223 14823 c38 -1104 593 -2160 1492 -2840 605 -457 1354 -725
2098 -750 160 -6 177 -5 177 10 0 14 -11 17 -67 17 -211 0 -542 41 -783 96
-685 158 -1293 497 -1795 999 -290 289 -511 593 -690 945 -226 447 -357 920
-395 1425 -5 77 -10 170 -10 208 0 56 -3 67 -17 67 -15 0 -16 -17 -10 -177z"/>
<path d="M11634 14986 c-10 -25 14 -358 36 -500 98 -636 366 -1216 786 -1696
524 -600 1229 -988 2020 -1110 169 -26 492 -46 506 -32 23 23 -5 32 -107 32
-256 0 -617 60 -900 150 -368 117 -761 328 -1070 574 -55 44 -174 154 -266
245 -189 190 -282 303 -424 516 -330 494 -519 1077 -544 1669 -4 114 -10 161
-18 164 -7 2 -16 -3 -19 -12z"/>
<path d="M12053 14843 c24 -587 233 -1157 603 -1645 101 -133 399 -431 532
-532 488 -370 1058 -579 1645 -603 136 -5 157 -4 157 9 0 12 -24 16 -131 22
-398 21 -734 101 -1079 256 -628 284 -1156 812 -1440 1440 -155 345 -235 681
-256 1079 -6 107 -10 131 -22 131 -13 0 -14 -21 -9 -157z"/>
<path d="M12464 14987 c-8 -21 13 -294 32 -408 67 -417 257 -839 531 -1179 87
-109 254 -276 363 -363 427 -344 962 -545 1485 -559 92 -3 110 -1 110 12 0 12
-24 16 -131 21 -1274 63 -2289 1078 -2353 2352 -4 91 -10 132 -18 135 -7 2
-16 -3 -19 -11z"/>
<path d="M12883 14873 c53 -1066 914 -1927 1980 -1980 108 -5 127 -4 127 9 0
11 -31 17 -152 26 -522 41 -957 240 -1319 601 -361 362 -560 797 -601 1319 -9
121 -15 152 -26 152 -13 0 -14 -19 -9 -127z"/>
<path d="M13296 14992 c-9 -14 11 -233 30 -332 127 -671 684 -1216 1358 -1329
153 -26 301 -31 301 -11 0 12 -21 16 -107 22 -209 13 -417 66 -608 155 -324
151 -632 459 -783 783 -89 191 -142 399 -155 607 -5 66 -11 108 -19 110 -6 2
-14 0 -17 -5z"/>
<path d="M13714 14989 c-12 -20 6 -196 32 -299 112 -466 470 -823 938 -935
113 -28 296 -39 303 -19 2 7 -37 15 -114 23 -416 42 -750 252 -960 603 -89
149 -144 323 -164 519 -11 112 -18 134 -35 108z"/>
<path d="M14130 14933 c0 -79 28 -206 64 -286 107 -243 326 -426 580 -487 94
-23 220 -27 214 -7 -3 7 -34 15 -80 19 -108 10 -190 33 -293 83 -163 79 -290
206 -370 370 -50 103 -73 184 -83 293 -4 46 -12 77 -19 80 -10 3 -13 -14 -13
-65z"/>
<path d="M14534 14985 c-11 -27 15 -138 46 -201 37 -75 129 -166 205 -200 69
-32 181 -52 197 -36 18 18 3 25 -63 33 -164 19 -328 176 -345 330 -8 68 -14
89 -25 89 -5 0 -12 -7 -15 -15z"/>
<path d="M5 7100 c-3 -5 -4 -14 -1 -18 3 -5 108 -12 233 -15 2126 -59 4127
-1100 5414 -2817 667 -888 1115 -1919 1303 -2993 61 -347 94 -665 103 -1005 3
-128 10 -235 15 -239 26 -15 29 23 18 271 -12 292 -29 492 -65 747 -375 2653
-2259 4894 -4815 5727 -627 205 -1233 313 -1915 342 -287 12 -283 12 -290 0z"/>
<path d="M14670 7100 c-1774 -77 -3441 -811 -4700 -2070 -1087 -1087 -1792
-2493 -2005 -3999 -36 -255 -53 -455 -65 -747 -11 -248 -8 -286 18 -271 5 4
12 109 15 234 59 2126 1100 4127 2817 5414 1172 879 2551 1363 4015 1407 186
6 220 9 220 22 0 19 -64 21 -315 10z"/>
<path d="M0 6675 c0 -12 13 -15 58 -15 113 0 460 -20 612 -35 1960 -194 3734
-1255 4843 -2895 615 -910 994 -1958 1102 -3050 15 -152 35 -499 35 -612 0
-45 3 -58 15 -58 19 0 20 143 5 403 -73 1195 -455 2333 -1115 3318 -801 1193
-1973 2103 -3329 2584 -566 200 -1199 327 -1823 365 -260 15 -403 14 -403 -5z"/>
<path d="M14560 6679 c-1037 -64 -2081 -384 -2965 -909 -1344 -797 -2360
-2021 -2891 -3482 -245 -675 -394 -1490 -394 -2160 0 -98 3 -118 15 -118 12 0
15 13 15 58 0 113 20 460 35 612 108 1092 487 2140 1102 3050 1020 1509 2609
2534 4393 2834 312 52 576 78 938 92 144 5 182 9 182 20 0 16 -195 17 -430 3z"/>
<path d="M5 6270 c-15 -24 11 -30 128 -30 237 0 588 -32 887 -81 979 -158
1899 -549 2706 -1149 437 -325 920 -804 1245 -1235 617 -818 1017 -1750 1178
-2745 49 -299 81 -650 81 -887 0 -116 8 -149 30 -127 12 12 -6 439 -25 634
-252 2491 -1977 4602 -4368 5346 -484 150 -1050 251 -1517 269 -80 3 -188 8
-242 11 -61 3 -99 1 -103 -6z"/>
<path d="M14714 6270 c-2001 -81 -3847 -1127 -4959 -2810 -555 -840 -898
-1805 -1000 -2810 -19 -195 -37 -622 -25 -634 22 -22 30 11 30 127 0 340 60
846 145 1228 218 979 655 1861 1311 2650 164 198 565 599 763 763 1120 932
2445 1427 3906 1459 81 2 100 5 100 17 0 19 -23 20 -271 10z"/>
<path d="M7 5855 c-18 -20 2 -23 151 -29 495 -20 903 -78 1320 -187 2023 -527
3624 -2128 4151 -4151 109 -417 167 -825 187 -1321 4 -112 9 -157 18 -154 16
6 11 339 -9 552 -131 1414 -771 2724 -1812 3707 -941 889 -2162 1442 -3450
1562 -198 19 -545 32 -556 21z"/>
<path d="M14670 5853 c-1366 -69 -2694 -637 -3693 -1581 -1041 -983 -1681
-2293 -1812 -3707 -20 -213 -25 -546 -9 -552 9 -3 14 42 18 154 20 496 78 904
187 1321 527 2023 2128 3624 4151 4151 417 109 825 167 1321 187 112 4 157 10
154 18 -4 11 -176 16 -317 9z"/>
<path d="M2 5428 c3 -10 54 -15 184 -20 418 -16 766 -65 1159 -165 1399 -353
2612 -1274 3340 -2538 440 -763 678 -1601 713 -2509 5 -130 10 -181 20 -184
15 -5 17 224 2 419 -90 1164 -534 2233 -1303 3134 -206 241 -514 533 -792 750
-136 107 -471 330 -625 417 -710 403 -1471 635 -2279 698 -195 15 -424 13
-419 -2z"/>
<path d="M14550 5429 c-1147 -91 -2222 -540 -3115 -1302 -241 -206 -533 -514
-750 -792 -107 -136 -330 -471 -417 -625 -403 -710 -635 -1471 -698 -2279 -15
-195 -13 -424 3 -419 9 3 14 54 19 184 37 978 305 1858 817 2682 364 586 866
1119 1437 1528 870 622 1868 960 2958 1002 130 5 181 10 184 20 4 14 -260 15
-438 1z"/>
<path d="M5 5019 c-4 -6 -5 -13 -2 -16 3 -3 98 -9 211 -13 225 -10 341 -21
546 -51 1729 -259 3214 -1436 3868 -3064 213 -533 327 -1067 352 -1651 4 -113
10 -208 13 -211 3 -3 10 -2 16 2 14 8 14 104 1 315 -63 988 -406 1918 -999
2705 -270 358 -628 716 -986 986 -787 593 -1717 936 -2705 999 -211 13 -307
13 -315 -1z"/>
<path d="M14652 5019 c-967 -61 -1907 -411 -2687 -998 -358 -270 -716 -628
-986 -986 -593 -787 -936 -1717 -999 -2705 -13 -211 -13 -307 1 -315 6 -4 13
-5 16 -2 3 3 9 98 13 211 10 225 21 341 51 546 259 1729 1436 3214 3064 3868
533 213 1067 327 1651 352 113 4 208 10 211 13 27 28 -78 33 -335 16z"/>
<path d="M2 4599 c4 -11 42 -16 174 -21 1040 -46 1960 -400 2767 -1065 119
-98 462 -441 560 -560 384 -466 650 -942 832 -1488 149 -446 217 -844 238
-1389 1 -41 6 -61 16 -64 12 -4 13 26 8 194 -32 1023 -427 2026 -1111 2819
-96 111 -322 339 -436 439 -804 707 -1812 1111 -2854 1143 -168 5 -198 4 -194
-8z"/>
<path d="M14665 4604 c-16 -2 -86 -9 -155 -15 -69 -6 -202 -24 -295 -39 -1120
-187 -2137 -791 -2847 -1690 -599 -760 -946 -1703 -975 -2654 -5 -168 -4 -198
8 -194 11 4 16 42 21 174 46 1040 400 1960 1065 2767 98 119 441 462 560 560
303 250 589 435 918 597 586 288 1181 439 1849 468 121 5 171 11 174 20 3 9
-30 12 -145 11 -81 -1 -161 -4 -178 -5z"/>
<path d="M5 4190 c-4 -7 -2 -16 4 -20 7 -4 96 -10 199 -13 1160 -39 2297 -619
3042 -1552 546 -684 868 -1541 897 -2387 3 -103 9 -192 13 -199 4 -6 13 -8 20
-4 26 16 -8 464 -55 735 -300 1718 -1667 3085 -3385 3385 -271 47 -719 81
-735 55z"/>
<path d="M14770 4194 c-514 -35 -927 -125 -1350 -296 -1338 -541 -2309 -1737
-2555 -3148 -47 -271 -81 -719 -55 -735 7 -4 16 -2 20 4 4 7 10 96 13 199 39
1161 618 2296 1552 3042 683 546 1541 868 2387 897 186 6 217 11 204 32 -7 10
-99 12 -216 5z"/>
<path d="M0 3767 c0 -14 11 -17 68 -17 210 0 541 -41 782 -96 685 -158 1293
-497 1795 -999 290 -289 511 -593 690 -945 226 -447 357 -920 395 -1425 5 -77
10 -170 10 -207 0 -57 3 -68 17 -68 15 0 16 17 10 178 -38 1103 -593 2159
-1492 2839 -605 457 -1354 725 -2097 750 -161 6 -178 5 -178 -10z"/>
<path d="M14690 3773 c-1063 -77 -2066 -627 -2717 -1488 -457 -605 -725 -1354
-750 -2098 -6 -160 -5 -177 10 -177 14 0 17 11 17 68 0 210 41 541 96 782 158
685 497 1293 999 1795 289 290 593 511 945 690 447 226 920 357 1425 395 77 5
170 10 208 10 53 0 67 3 67 15 0 13 -20 15 -127 13 -71 -1 -148 -3 -173 -5z"/>
<path d="M5 3360 c-14 -23 11 -30 110 -30 256 0 617 -60 900 -150 368 -117
761 -328 1070 -574 129 -103 408 -382 511 -511 246 -309 457 -702 574 -1070
90 -283 150 -644 150 -900 0 -102 9 -130 32 -107 14 14 -6 337 -32 506 -152
986 -723 1843 -1575 2361 -451 275 -974 438 -1515 475 -184 12 -217 12 -225 0z"/>
<path d="M14738 3359 c-777 -54 -1515 -383 -2080 -927 -535 -517 -874 -1171
-988 -1908 -26 -169 -46 -492 -32 -506 23 -23 32 5 32 107 0 256 60 617 150
900 117 368 328 761 574 1070 103 129 382 408 511 511 554 440 1228 695 1920
723 133 5 160 9 160 21 0 18 -75 21 -247 9z"/>
<path d="M0 2938 c0 -12 24 -16 131 -22 617 -32 1148 -223 1624 -582 593 -446
995 -1109 1114 -1834 21 -130 41 -341 41 -436 0 -44 3 -54 17 -54 15 0 16 15
10 157 -24 587 -234 1158 -603 1645 -101 133 -399 431 -532 532 -488 370
-1058 579 -1644 603 -137 5 -158 4 -158 -9z"/>
<path d="M14735 2943 c-558 -47 -1092 -254 -1547 -599 -133 -101 -431 -399
-532 -532 -370 -488 -579 -1058 -603 -1644 -5 -137 -4 -158 9 -158 12 0 16 24
22 131 21 398 101 734 256 1079 284 628 812 1156 1440 1440 345 155 681 235
1079 256 100 5 131 10 131 20 0 11 -23 14 -107 12 -60 -1 -126 -3 -148 -5z"/>
<path d="M6 2531 c-15 -23 8 -31 87 -31 45 0 140 -7 211 -15 778 -91 1463
-543 1859 -1226 194 -334 306 -719 326 -1113 5 -107 9 -131 21 -131 13 0 15
18 12 110 -16 613 -285 1228 -732 1675 -388 388 -915 649 -1441 714 -185 22
-335 30 -343 17z"/>
<path d="M14830 2533 c-613 -37 -1196 -299 -1630 -733 -447 -447 -716 -1062
-732 -1675 -3 -92 -1 -110 12 -110 12 0 16 24 21 131 63 1274 1079 2290 2353
2353 107 5 131 9 131 21 0 16 -46 20 -155 13z"/>
<path d="M0 2108 c0 -11 31 -17 153 -26 521 -41 956 -240 1318 -601 361 -362
560 -797 601 -1318 9 -122 15 -153 26 -153 13 0 14 19 9 128 -53 1065 -914
1926 -1979 1979 -109 5 -128 4 -128 -9z"/>
<path d="M14790 2114 c-14 -2 -65 -9 -115 -15 -114 -14 -323 -67 -441 -112
-779 -299 -1310 -1025 -1351 -1849 -5 -109 -4 -128 9 -128 11 0 17 31 26 153
41 521 240 956 601 1318 362 361 797 560 1319 601 113 9 152 15 152 25 0 10
-21 13 -87 12 -49 -1 -99 -3 -113 -5z"/>
<path d="M5 1700 c-13 -21 8 -27 112 -33 202 -11 411 -64 603 -154 324 -151
632 -459 783 -783 89 -191 142 -399 155 -608 6 -86 10 -107 22 -107 20 0 15
148 -11 301 -115 690 -680 1252 -1368 1364 -148 24 -288 33 -296 20z"/>
<path d="M14835 1700 c-760 -65 -1390 -640 -1514 -1384 -26 -153 -31 -301 -11
-301 12 0 16 21 22 107 13 209 66 417 155 608 151 324 459 632 783 783 191 89
399 142 608 155 86 6 107 10 107 22 0 18 -29 20 -150 10z"/>
<path d="M7 1284 c-16 -17 -2 -22 111 -33 415 -42 749 -252 959 -603 89 -150
144 -323 164 -519 8 -79 16 -118 23 -116 20 7 9 190 -19 303 -112 469 -469
826 -936 939 -104 25 -288 43 -302 29z"/>
<path d="M14805 1280 c-515 -69 -937 -454 -1060 -964 -28 -113 -39 -296 -19
-303 7 -2 15 37 23 116 39 390 233 716 551 925 173 114 348 174 573 197 77 8
116 16 114 23 -4 14 -101 17 -182 6z"/>
<path d="M2 858 c3 -8 34 -16 80 -20 289 -26 539 -197 663 -453 50 -103 73
-185 83 -293 4 -46 12 -77 20 -80 19 -6 15 120 -8 214 -73 307 -317 551 -624
624 -94 23 -220 27 -214 8z"/>
<path d="M14769 850 c-303 -75 -546 -319 -619 -624 -23 -94 -27 -220 -7 -214
7 3 15 34 19 80 26 289 197 539 453 663 103 50 185 73 293 83 46 4 77 12 80
20 6 19 -129 14 -219 -8z"/>
<path d="M5 459 c-11 -17 1 -22 66 -30 172 -20 328 -176 348 -348 8 -66 15
-81 33 -63 8 8 8 28 0 79 -30 181 -174 329 -352 363 -67 13 -87 13 -95 -1z"/>
<path d="M14880 459 c-120 -23 -254 -131 -306 -244 -32 -69 -52 -181 -36 -197
18 -18 25 -3 33 63 20 172 176 328 348 348 65 8 77 13 66 30 -7 13 -41 13
-105 0z"/>
</g>
</svg>
