<svg width="531" height="816" viewBox="0 0 531 816" fill="none" xmlns="http://www.w3.org/2000/svg">
<path d="M529.048 266.692C528.35 266.692 527.652 265.996 527.652 265.299C527.652 121.132 410.03 3.77827 265.533 3.77827C264.835 3.77827 264.137 3.08181 264.137 2.38535C264.137 1.68889 264.835 0.992432 265.533 0.992432C411.426 0.992432 530.444 119.391 530.444 265.299C530.444 265.996 529.746 266.692 529.048 266.692Z" fill="#4D3B2F"/>
<path d="M2.01818 266.692C1.32012 266.692 0.62207 265.996 0.62207 265.299C0.62207 119.391 119.291 0.992432 265.533 0.992432C266.231 0.992432 266.929 1.68889 266.929 2.38535C266.929 3.08181 266.231 3.77827 265.533 3.77827C121.036 3.43004 3.06526 121.132 3.06526 265.299C3.06526 265.996 2.71623 266.692 2.01818 266.692Z" fill="#4D3B2F"/>
<path d="M11.442 266.692C10.744 266.692 10.0459 265.996 10.0459 265.299C10.0459 124.962 124.527 10.7429 265.184 10.3947H265.533C333.594 10.3947 397.814 36.8601 445.98 84.9159C494.146 132.972 521.021 197.046 521.021 264.951L519.625 265.299H518.229C518.229 197.743 491.703 134.365 443.886 87.0053C396.418 39.2978 332.895 12.8323 265.533 12.8323H265.184C125.923 13.1805 12.4891 126.355 12.4891 265.299C12.4891 265.996 12.1401 266.692 11.442 266.692Z" fill="#4D3B2F"/>
<path d="M20.8656 266.692C20.1675 266.692 19.4695 265.996 19.4695 265.299C19.4695 130.186 129.762 20.1451 264.835 19.7969C264.835 19.7969 265.184 19.7969 265.533 19.7969C400.955 19.7969 511.248 129.489 511.597 264.603L510.201 265.299H508.805V264.951C508.456 130.882 399.21 22.2345 265.533 22.2345C265.184 22.2345 265.184 22.2345 264.835 22.2345C131.158 22.5827 21.9127 131.579 21.9127 265.299C21.9127 265.996 21.5636 266.692 20.8656 266.692Z" fill="#4D3B2F"/>
<path d="M500.777 266.692C500.079 266.692 499.381 265.996 499.381 265.299V264.603C499.032 136.106 393.975 31.9849 265.533 31.9849C265.184 31.9849 264.835 31.9849 264.835 31.9849C136.044 32.3332 31.3364 136.802 31.3364 265.299C31.3364 265.996 30.6383 266.692 29.9403 266.692C29.2422 266.692 28.5442 265.996 28.5442 265.299C28.5442 135.409 134.299 29.5473 264.486 29.1991C264.835 29.1991 265.184 29.1991 265.184 29.1991C395.371 29.1991 501.475 134.713 501.824 264.603V265.299C502.173 265.996 501.475 266.692 500.777 266.692Z" fill="#4D3B2F"/>
<path d="M491.353 266.692C490.655 266.692 489.957 265.996 489.957 265.299V264.254C489.259 140.981 388.74 41.0389 265.533 41.0389C265.184 41.0389 264.835 41.0389 264.486 41.0389C141.28 41.7354 40.7601 142.026 41.1091 264.951C41.1091 265.647 40.4111 266.344 39.713 266.344C39.0149 266.344 38.3169 265.647 38.3169 264.951C38.3169 140.633 139.884 38.9495 264.486 38.2531C264.835 38.2531 265.184 38.2531 265.533 38.2531C390.485 38.2531 492.051 139.24 492.749 263.906V264.951C492.749 265.996 492.051 266.692 491.353 266.692Z" fill="#4D3B2F"/>
<path d="M481.93 266.692C481.232 266.692 480.534 265.996 480.534 265.299V263.906C479.835 145.856 383.504 50.4412 265.533 50.4412C265.184 50.4412 264.835 50.4412 264.137 50.4412C146.166 51.1376 50.1838 147.597 50.1838 265.299C50.1838 265.996 49.4858 266.692 48.7877 266.692C48.0897 266.692 47.3916 265.996 47.3916 265.299C47.3916 146.204 144.421 48.7 263.788 48.0035C264.137 48.0035 264.835 48.0035 265.184 48.0035C384.551 48.0035 482.279 144.463 482.977 263.906V265.299C483.326 265.996 482.628 266.692 481.93 266.692Z" fill="#4D3B2F"/>
<path d="M472.506 266.692C471.808 266.692 471.11 265.996 471.11 265.299V263.906C470.412 151.08 378.269 60.1916 265.533 60.1916C264.835 60.1916 264.486 60.1916 263.788 60.1916C151.053 60.888 59.6076 153.169 59.6076 265.647C59.6076 266.344 58.9096 267.04 58.2115 267.04C57.5135 267.04 56.8154 266.344 56.8154 265.647C56.8154 151.776 149.657 58.4504 263.439 57.754C319.283 57.4057 371.637 78.6478 411.077 117.65C450.866 156.651 472.855 208.538 473.204 264.254V265.996C473.902 265.996 473.204 266.692 472.506 266.692Z" fill="#4D3B2F"/>
<path d="M463.082 266.692C462.384 266.692 461.686 265.996 461.686 265.299V263.558C461.337 211.323 440.396 162.223 403.05 125.659C365.704 89.0946 316.142 68.8973 263.788 69.5937C156.637 70.6384 69.3804 158.392 69.3804 265.647C69.3804 266.344 68.6823 267.04 67.9842 267.04C67.2862 267.04 66.5881 266.344 66.5881 265.647C66.5881 157.348 154.892 68.2008 263.788 67.1561C264.486 67.1561 265.184 67.1561 265.533 67.1561C317.887 67.1561 367.449 87.3535 404.795 123.918C442.839 161.178 463.78 210.627 464.478 263.906V265.647C464.478 265.996 463.78 266.692 463.082 266.692Z" fill="#4D3B2F"/>
<path d="M453.659 266.692C452.961 266.692 452.262 265.995 452.262 265.299V263.21C451.564 213.413 431.67 166.75 396.069 131.927C360.469 97.1039 313.001 78.2994 263.439 78.6477C161.523 79.6924 78.4551 163.616 78.4551 265.299C78.4551 265.995 77.757 266.692 77.0589 266.692C76.3609 266.692 75.6628 265.995 75.6628 265.299C75.6628 162.223 159.778 77.2548 263.09 76.2101C313.699 75.8618 361.516 94.6663 397.814 130.186C434.113 165.357 454.357 212.716 454.706 263.21V265.299C455.055 265.995 454.357 266.692 453.659 266.692Z" fill="#4D3B2F"/>
<path d="M444.235 266.692C443.537 266.692 442.839 265.996 442.839 265.299V264.603V263.21C442.141 215.85 423.293 171.625 389.089 138.543C355.233 105.461 310.558 87.7017 263.09 88.0499C166.41 89.4429 87.8786 168.839 87.8786 265.299C87.8786 265.996 87.1806 266.692 86.4825 266.692C85.7845 266.692 85.0864 265.996 85.0864 265.299C85.0864 167.446 164.664 87.0052 262.741 85.6123C310.907 85.2641 356.28 103.024 390.834 136.454C425.387 169.884 444.584 214.806 445.282 262.861V264.603V265.299C445.631 265.996 444.933 266.692 444.235 266.692Z" fill="#4D3B2F"/>
<path d="M434.811 266.692C434.113 266.692 433.415 265.995 433.415 265.299V264.254C433.415 263.906 433.415 263.21 433.415 262.861C432.717 217.94 414.568 176.152 382.457 145.16C350.347 113.819 307.765 97.1039 262.741 97.8004C171.296 99.1933 97.3025 174.411 97.3025 265.647C97.3025 266.344 96.6044 267.04 95.9064 267.04C95.2083 267.04 94.5103 266.344 94.5103 265.647C94.8593 172.67 170.249 96.4074 262.741 95.0145C308.464 94.3181 351.394 111.381 384.202 143.07C417.011 174.759 435.509 217.243 436.207 262.861C436.207 263.21 436.207 263.906 436.207 264.254V265.299C436.207 265.995 435.509 266.692 434.811 266.692Z" fill="#4D3B2F"/>
<path d="M425.387 266.692C424.689 266.692 423.991 265.995 423.991 265.299V264.254C423.991 263.558 423.991 263.21 423.991 262.513C423.293 220.377 405.842 180.679 375.477 151.428C345.111 122.176 304.973 106.158 262.392 107.203C176.531 108.595 106.377 179.634 106.726 265.647C106.726 266.344 106.028 267.04 105.33 267.04C104.632 267.04 103.934 266.344 103.934 265.647C103.934 178.59 175.135 106.158 262.392 104.765C305.322 104.068 346.158 120.087 377.222 150.035C408.285 179.983 425.736 220.029 426.434 262.861C426.434 263.558 426.434 263.906 426.434 264.603V265.647C426.783 265.995 426.085 266.692 425.387 266.692Z" fill="#4D3B2F"/>
<path d="M415.964 266.692C415.266 266.692 414.568 265.996 414.568 265.299V264.254C414.568 263.558 414.568 262.861 414.568 262.513C413.87 222.815 397.465 185.554 368.496 158.044C340.225 130.186 302.181 115.56 262.392 116.257C181.767 117.998 116.15 184.858 116.15 265.299C116.15 265.996 115.452 266.692 114.754 266.692C114.056 266.692 113.358 265.996 113.358 265.299C113.358 183.465 180.022 115.56 262.043 113.819C302.53 112.774 340.923 128.096 370.241 155.955C399.559 183.813 415.964 221.77 417.011 262.165C417.011 262.861 417.011 263.558 417.011 264.254V265.299C417.36 265.996 416.662 266.692 415.964 266.692Z" fill="#4D3B2F"/>
<path d="M406.54 266.692C405.842 266.692 405.144 265.996 405.144 265.299V264.254C405.144 263.558 405.144 262.861 405.144 262.165C403.399 186.251 340.923 126.007 265.184 126.007C264.137 126.007 263.09 126.007 261.694 126.007C225.046 127.052 190.493 142.026 165.014 168.143C139.535 194.26 125.225 229.083 125.225 265.647C125.225 266.344 124.527 267.04 123.828 267.04C123.13 267.04 122.432 266.344 122.432 265.647C122.432 228.387 136.742 193.215 162.919 166.402C189.096 139.588 223.999 124.266 261.694 123.569C262.741 123.569 264.137 123.569 265.184 123.569C342.319 123.569 405.842 185.206 407.587 262.513C407.587 263.21 407.587 263.906 407.587 264.603V265.647C407.936 265.996 407.238 266.692 406.54 266.692Z" fill="#4D3B2F"/>
<path d="M397.116 266.692C396.418 266.692 395.72 265.996 395.72 265.299V264.254C395.72 263.558 395.72 262.513 395.72 261.817C393.975 189.733 333.942 133.32 261.694 135.061C190.493 137.15 134.648 194.26 134.997 265.299C134.997 265.996 134.299 266.692 133.601 266.692C132.903 266.692 132.205 265.996 132.205 265.299C132.205 192.867 189.096 134.713 261.694 132.623C334.99 130.534 396.418 188.34 398.512 261.817C398.512 262.861 398.512 263.558 398.512 264.603V265.647C398.512 265.996 397.814 266.692 397.116 266.692Z" fill="#4D3B2F"/>
<path d="M143.025 266.692C142.327 266.692 141.629 265.995 141.629 265.299C141.629 198.091 194.332 144.115 261.345 142.026C294.153 140.981 325.915 152.821 349.998 175.456C374.081 198.091 388.042 228.735 389.089 261.469C389.089 262.513 389.089 263.558 389.089 264.603V265.299C389.089 265.995 388.391 266.692 387.693 266.692C386.995 266.692 386.296 265.995 386.296 265.299V264.603C386.296 263.558 386.296 262.513 386.296 261.469C385.249 229.083 371.637 199.135 348.253 177.197C324.519 155.258 293.804 143.419 261.345 144.463C195.728 146.553 144.421 199.484 144.421 265.299C144.421 265.995 143.723 266.692 143.025 266.692Z" fill="#4D3B2F"/>
<path d="M152.449 266.692C151.751 266.692 151.052 265.996 151.052 265.299C151.052 203.662 199.218 153.517 260.996 151.428C323.821 149.338 377.222 198.439 379.316 261.12C379.316 262.513 379.316 263.906 379.316 264.951C379.316 265.647 378.618 266.344 377.92 266.344C377.222 266.344 376.524 265.996 376.524 265.299V264.951C376.524 263.558 376.524 262.513 376.524 261.12C374.429 201.225 324.519 153.865 264.835 153.865C263.439 153.865 262.043 153.865 260.647 153.865C200.265 155.955 153.147 205.055 153.147 265.299C153.845 265.996 153.147 266.692 152.449 266.692Z" fill="#4D3B2F"/>
<path d="M161.872 266.692C161.174 266.692 160.476 265.996 160.476 265.299C160.476 209.234 204.454 163.268 260.996 160.83C288.918 159.785 315.793 169.536 336.386 188.34C356.978 207.145 369.194 232.914 370.241 261.12C370.241 262.513 370.241 264.254 370.241 265.647C370.241 266.344 369.543 267.04 368.845 267.04C368.147 267.04 367.449 266.344 367.449 265.647C367.449 264.254 367.449 262.861 367.449 261.12C366.402 233.958 354.535 208.886 334.292 190.43C314.048 171.973 287.871 162.571 260.647 163.616C205.85 166.053 162.57 210.627 162.57 265.647C163.269 265.996 162.57 266.692 161.872 266.692Z" fill="#4D3B2F"/>
<path d="M359.77 266.692C359.072 266.692 358.374 265.996 358.374 265.299C358.374 263.906 358.374 262.165 358.374 260.772C356.978 236.048 346.158 213.413 328.009 196.698C309.511 179.983 285.777 171.625 260.996 173.018C211.434 175.107 172.343 215.85 172.692 265.299C172.692 265.996 171.994 266.692 171.296 266.692C170.598 266.692 169.9 265.996 169.9 265.299C169.9 214.457 209.689 172.67 260.647 170.232C313.35 167.795 358.374 208.189 360.817 260.772C360.817 262.513 360.817 263.906 360.817 265.647C361.166 265.996 360.468 266.692 359.77 266.692Z" fill="#4D3B2F"/>
<path d="M350.347 266.692C349.649 266.692 348.951 265.996 348.951 265.299C348.951 263.558 348.951 262.165 348.951 260.424C346.158 214.457 306.718 179.286 260.647 182.072C216.669 184.51 182.116 221.074 182.116 265.299C182.116 265.996 181.418 266.692 180.72 266.692C180.022 266.692 179.324 265.996 179.324 265.299C179.324 219.681 214.924 182.072 260.298 179.634C307.765 176.849 348.601 213.065 351.394 260.424C351.394 262.165 351.394 263.906 351.394 265.299C351.743 265.996 351.045 266.692 350.347 266.692Z" fill="#4D3B2F"/>
<path d="M190.143 266.692C189.445 266.692 188.747 265.995 188.747 265.299C188.747 225.253 220.16 191.822 260.298 189.037C280.89 187.644 300.436 194.26 316.142 207.493C331.499 221.074 340.923 239.53 342.319 260.076C342.319 261.817 342.319 263.558 342.319 265.299C342.319 265.995 341.621 266.692 340.923 266.692C340.225 266.692 339.527 265.995 339.527 265.299C339.527 263.558 339.527 261.817 339.527 260.076C338.131 240.226 329.056 222.467 314.048 209.234C299.04 196.349 279.843 189.733 260.298 191.126C221.556 193.912 191.19 226.297 191.19 264.951C191.19 265.995 190.841 266.692 190.143 266.692Z" fill="#4D3B2F"/>
<path d="M199.218 266.692C198.52 266.692 197.822 265.995 197.822 265.299C197.822 230.476 225.046 201.225 259.6 198.439C296.597 195.305 329.405 222.815 332.546 259.727C332.546 261.469 332.895 263.21 332.895 265.299C332.895 265.995 332.197 266.692 331.499 266.692C330.801 266.692 330.103 265.995 330.103 265.299C330.103 263.21 330.103 261.469 329.754 260.076C326.613 224.556 295.549 198.091 259.949 200.876C226.442 203.662 200.614 231.869 200.614 265.299C200.614 265.995 199.916 266.692 199.218 266.692Z" fill="#4D3B2F"/>
<path d="M208.642 266.692C207.944 266.692 207.246 265.996 207.246 265.299C207.246 235.351 229.583 210.627 259.6 207.493C291.361 204.359 319.981 227.342 323.123 259.379C323.472 261.469 323.472 263.21 323.472 265.299C323.472 265.996 322.773 266.692 322.075 266.692C321.377 266.692 320.679 265.996 320.679 265.299C320.679 263.558 320.679 261.469 320.33 259.727C318.934 245.102 311.605 231.869 300.087 222.467C288.569 213.065 274.259 208.886 259.251 210.279C231.329 213.065 210.038 236.744 210.038 265.299C210.038 265.996 209.34 266.692 208.642 266.692Z" fill="#4D3B2F"/>
<path d="M313.001 266.692C312.303 266.692 311.605 265.996 311.605 265.299C311.605 263.21 311.605 261.469 311.256 259.379C309.86 247.191 303.577 236.396 293.804 228.735C284.032 221.074 271.816 217.94 259.6 219.333C236.564 222.119 219.462 241.968 219.462 264.951C219.462 265.647 218.764 266.344 218.066 266.344C217.367 266.344 216.669 265.647 216.669 264.951C216.669 240.575 234.819 219.681 259.251 216.547C272.165 214.806 285.079 218.288 295.2 226.297C305.671 234.307 311.954 245.798 313.699 258.683C314.048 260.772 314.048 262.861 314.048 264.951C314.048 265.996 313.699 266.692 313.001 266.692Z" fill="#4D3B2F"/>
<path d="M303.577 266.692C302.879 266.692 302.181 265.996 302.181 265.299C302.181 263.21 302.181 261.12 301.832 259.379C298.342 239.53 279.494 225.949 259.251 229.083C241.45 232.217 228.536 247.191 228.536 265.299C228.536 265.996 227.838 266.692 227.14 266.692C226.442 266.692 225.744 265.996 225.744 265.299C225.744 245.798 239.705 229.78 258.553 226.297C269.023 224.556 279.494 226.994 287.871 233.262C296.597 239.53 302.181 248.584 303.926 258.683C304.275 260.772 304.275 262.861 304.275 265.299C304.973 265.996 304.275 266.692 303.577 266.692Z" fill="#4D3B2F"/>
<path d="M236.564 266.692C235.866 266.692 235.168 265.996 235.168 265.299C235.168 251.022 244.941 239.182 258.553 235.7C266.58 233.958 274.608 235.351 281.588 239.53C288.569 243.709 293.106 250.325 295.2 258.335C295.549 260.424 295.898 262.862 295.898 265.299C295.898 265.996 295.2 266.692 294.502 266.692C293.804 266.692 293.106 265.996 293.106 265.299C293.106 263.21 292.757 261.12 292.408 259.031C290.663 251.718 286.475 245.798 280.192 241.968C273.91 238.137 266.58 236.744 259.251 238.485C246.686 241.271 237.96 252.415 237.96 265.299C237.96 265.996 237.262 266.692 236.564 266.692Z" fill="#4D3B2F"/>
<path d="M285.428 266.692C284.73 266.692 284.032 265.996 284.032 265.299C284.032 263.21 283.683 261.12 282.985 259.031C281.239 254.504 277.749 250.673 273.212 248.584C268.674 246.495 263.439 246.146 258.902 247.888C251.572 250.673 246.686 257.638 246.686 265.299C246.686 265.996 245.988 266.692 245.29 266.692C244.592 266.692 243.894 265.996 243.894 265.299C243.894 256.245 249.478 248.236 257.855 245.45C263.09 243.361 269.023 243.709 274.259 246.146C279.494 248.584 283.334 252.763 285.079 258.334C285.777 260.772 286.475 263.21 286.475 265.647C286.824 265.996 286.126 266.692 285.428 266.692Z" fill="#4D3B2F"/>
<path d="M277.051 266.692C276.353 266.692 275.655 265.996 275.655 265.299C275.655 262.862 274.957 260.772 273.561 259.031C271.816 256.942 269.372 255.2 266.58 254.852C263.788 254.504 260.996 255.2 258.902 256.942C256.109 259.031 254.713 261.817 254.713 265.299C254.713 265.996 254.015 266.692 253.317 266.692C252.619 266.692 251.921 265.996 251.921 265.299C251.921 261.12 253.666 257.29 257.157 254.852C259.949 252.763 263.439 251.718 266.929 252.415C270.42 252.763 273.561 254.852 275.655 257.638C277.4 260.076 278.098 262.513 278.098 265.299C278.447 265.996 278.098 266.692 277.051 266.692Z" fill="#4D3B2F"/>
<path d="M269.023 266.692C268.325 266.692 267.627 265.996 267.627 265.299C267.627 263.906 266.58 262.861 265.184 262.861C263.788 262.861 262.741 263.906 262.741 265.299C262.741 265.996 262.043 266.692 261.345 266.692C260.647 266.692 259.949 265.996 259.949 265.299C259.949 262.513 262.043 260.424 264.835 260.424C267.627 260.424 269.721 262.513 269.721 265.299C270.42 265.996 269.721 266.692 269.023 266.692Z" fill="#4D3B2F"/>
<path d="M2.01818 815.503C1.32012 815.503 0.62207 814.806 0.62207 814.11V265.299C0.62207 264.603 1.32012 263.906 2.01818 263.906C2.71623 263.906 3.41428 264.603 3.41428 265.299V814.458C3.06526 814.806 2.71623 815.503 2.01818 815.503Z" fill="#4D3B2F"/>
<path d="M11.442 815.503C10.744 815.503 10.0459 814.806 10.0459 814.11V265.299C10.0459 264.603 10.744 263.906 11.442 263.906C12.1401 263.906 12.8381 264.603 12.8381 265.299V814.458C12.4891 814.806 12.1401 815.503 11.442 815.503Z" fill="#4D3B2F"/>
<path d="M20.8656 815.503C20.1675 815.503 19.4695 814.806 19.4695 814.11V265.299C19.4695 264.603 20.1675 263.906 20.8656 263.906C21.5636 263.906 22.2617 264.603 22.2617 265.299V814.458C21.9127 814.806 21.5636 815.503 20.8656 815.503Z" fill="#4D3B2F"/>
<path d="M30.2894 815.503C29.5914 815.503 28.8933 814.806 28.8933 814.11V265.299C28.8933 264.603 29.5914 263.906 30.2894 263.906C30.9875 263.906 31.6855 264.603 31.6855 265.299V814.458C31.3365 814.806 30.9875 815.503 30.2894 815.503Z" fill="#4D3B2F"/>
<path d="M39.713 815.503C39.0149 815.503 38.3169 814.806 38.3169 814.11V265.299C38.3169 264.603 39.0149 263.906 39.713 263.906C40.4111 263.906 41.1091 264.603 41.1091 265.299V814.458C40.7601 814.806 40.4111 815.503 39.713 815.503Z" fill="#4D3B2F"/>
<path d="M49.1368 815.503C48.4388 815.503 47.7407 814.806 47.7407 814.11V265.299C47.7407 264.603 48.4388 263.906 49.1368 263.906C49.8349 263.906 50.5329 264.603 50.5329 265.299V814.458C50.1839 814.806 49.8349 815.503 49.1368 815.503Z" fill="#4D3B2F"/>
<path d="M58.5604 815.503C57.8624 815.503 57.1643 814.806 57.1643 814.11V265.299C57.1643 264.603 57.8624 263.906 58.5604 263.906C59.2585 263.906 59.9565 264.603 59.9565 265.299V814.458C59.6075 814.806 59.2585 815.503 58.5604 815.503Z" fill="#4D3B2F"/>
<path d="M67.9842 815.503C67.2862 815.503 66.5881 814.806 66.5881 814.11V265.299C66.5881 264.603 67.2862 263.906 67.9842 263.906C68.6823 263.906 69.3803 264.603 69.3803 265.299V814.458C69.0313 814.806 68.6823 815.503 67.9842 815.503Z" fill="#4D3B2F"/>
<path d="M77.4078 793.912C76.7098 793.912 76.0117 793.216 76.0117 792.519V265.299C76.0117 264.603 76.7098 263.906 77.4078 263.906C78.1059 263.906 78.8039 264.603 78.8039 265.299V792.868C78.4549 793.564 78.1059 793.912 77.4078 793.912Z" fill="#4D3B2F"/>
<path d="M86.4825 768.143C85.7845 768.143 85.0864 767.447 85.0864 766.75V265.299C85.0864 264.603 85.7845 263.906 86.4825 263.906C87.1806 263.906 87.8786 264.603 87.8786 265.299V766.75C87.8786 767.447 87.5296 768.143 86.4825 768.143Z" fill="#4D3B2F"/>
<path d="M95.9064 742.026C95.2083 742.026 94.5103 741.33 94.5103 740.633V265.299C94.5103 264.603 95.2083 263.906 95.9064 263.906C96.6044 263.906 97.3025 264.603 97.3025 265.299V740.981C97.3025 741.678 96.9534 742.026 95.9064 742.026Z" fill="#4D3B2F"/>
<path d="M105.33 716.257C104.632 716.257 103.934 715.561 103.934 714.864V265.299C103.934 264.603 104.632 263.906 105.33 263.906C106.028 263.906 106.726 264.603 106.726 265.299V714.864C106.726 715.561 106.028 716.257 105.33 716.257Z" fill="#4D3B2F"/>
<path d="M114.754 690.14C114.056 690.14 113.358 689.443 113.358 688.747V265.299C113.358 264.603 114.056 263.906 114.754 263.906C115.452 263.906 116.15 264.603 116.15 265.299V689.095C116.15 689.792 115.452 690.14 114.754 690.14Z" fill="#4D3B2F"/>
<path d="M124.177 664.371C123.479 664.371 122.781 663.674 122.781 662.978V265.299C122.781 264.603 123.479 263.906 124.177 263.906C124.875 263.906 125.573 264.603 125.573 265.299V662.978C125.573 663.674 124.875 664.371 124.177 664.371Z" fill="#4D3B2F"/>
<path d="M133.601 638.253C132.903 638.253 132.205 637.557 132.205 636.861V265.299C132.205 264.603 132.903 263.906 133.601 263.906C134.299 263.906 134.997 264.603 134.997 265.299V637.209C134.997 637.905 134.299 638.253 133.601 638.253Z" fill="#4D3B2F"/>
<path d="M143.025 612.485C142.327 612.485 141.629 611.788 141.629 611.092V265.299C141.629 264.603 142.327 263.906 143.025 263.906C143.723 263.906 144.421 264.603 144.421 265.299V611.092C144.421 611.788 143.723 612.485 143.025 612.485Z" fill="#4D3B2F"/>
<path d="M152.449 586.716C151.751 586.716 151.052 586.019 151.052 585.323V265.299C151.052 264.603 151.751 263.906 152.449 263.906C153.147 263.906 153.845 264.603 153.845 265.299V585.323C153.845 586.019 153.147 586.716 152.449 586.716Z" fill="#4D3B2F"/>
<path d="M161.872 560.598C161.174 560.598 160.476 559.902 160.476 559.205V265.299C160.476 264.603 161.174 263.906 161.872 263.906C162.57 263.906 163.269 264.603 163.269 265.299V559.553C163.269 560.25 162.57 560.598 161.872 560.598Z" fill="#4D3B2F"/>
<path d="M171.296 534.829C170.598 534.829 169.9 534.133 169.9 533.436V265.299C169.9 264.603 170.598 263.906 171.296 263.906C171.994 263.906 172.692 264.603 172.692 265.299V533.785C172.692 534.133 171.994 534.829 171.296 534.829Z" fill="#4D3B2F"/>
<path d="M180.72 509.06C180.022 509.06 179.324 508.364 179.324 507.667V265.299C179.324 264.603 180.022 263.906 180.72 263.906C181.418 263.906 182.116 264.603 182.116 265.299V507.667C181.767 508.364 181.418 509.06 180.72 509.06Z" fill="#4D3B2F"/>
<path d="M190.143 482.943C189.445 482.943 188.747 482.246 188.747 481.55V265.299C188.747 264.603 189.445 263.906 190.143 263.906C190.841 263.906 191.54 264.603 191.54 265.299V481.898C191.19 482.595 190.841 482.943 190.143 482.943Z" fill="#4D3B2F"/>
<path d="M199.218 457.174C198.52 457.174 197.822 456.477 197.822 455.781V265.299C197.822 264.603 198.52 263.906 199.218 263.906C199.916 263.906 200.614 264.603 200.614 265.299V456.129C200.614 456.826 199.916 457.174 199.218 457.174Z" fill="#4D3B2F"/>
<path d="M208.642 431.753C207.944 431.753 207.246 431.057 207.246 430.36V265.299C207.246 264.603 207.944 263.906 208.642 263.906C209.34 263.906 210.038 264.603 210.038 265.299V430.36C210.038 431.057 209.34 431.753 208.642 431.753Z" fill="#4D3B2F"/>
<path d="M218.066 405.984C217.367 405.984 216.669 405.288 216.669 404.591V265.299C216.669 264.603 217.367 263.906 218.066 263.906C218.764 263.906 219.462 264.603 219.462 265.299V404.591C219.462 405.288 218.764 405.984 218.066 405.984Z" fill="#4D3B2F"/>
<path d="M227.489 380.215C226.791 380.215 226.093 379.519 226.093 378.822V265.299C226.093 264.603 226.791 263.906 227.489 263.906C228.187 263.906 228.885 264.603 228.885 265.299V378.822C228.536 379.519 228.187 380.215 227.489 380.215Z" fill="#4D3B2F"/>
<path d="M236.564 354.794C235.866 354.794 235.168 354.098 235.168 353.401V265.299C235.168 264.603 235.866 263.906 236.564 263.906C237.262 263.906 237.96 264.603 237.96 265.299V353.75C237.96 354.446 237.262 354.794 236.564 354.794Z" fill="#4D3B2F"/>
<path d="M245.639 330.07C244.941 330.07 244.243 329.373 244.243 328.677V265.299C244.243 264.603 244.941 263.906 245.639 263.906C246.337 263.906 247.035 264.603 247.035 265.299V329.025C246.686 329.722 246.337 330.07 245.639 330.07Z" fill="#4D3B2F"/>
<path d="M253.666 307.435C252.968 307.435 252.27 306.739 252.27 306.042V265.299C252.27 264.603 252.968 263.906 253.666 263.906C254.364 263.906 255.062 264.603 255.062 265.299V306.39C255.062 306.738 254.364 307.435 253.666 307.435Z" fill="#4D3B2F"/>
<path d="M261.694 285.148C260.996 285.148 260.298 284.452 260.298 283.755V265.299C260.298 264.603 260.996 263.906 261.694 263.906C262.392 263.906 263.09 264.603 263.09 265.299V283.755C263.09 284.452 262.392 285.148 261.694 285.148Z" fill="#4D3B2F"/>
<path d="M529.048 815.503C528.35 815.503 527.652 814.806 527.652 814.11V265.299C527.652 264.603 528.35 263.906 529.048 263.906C529.746 263.906 530.444 264.603 530.444 265.299V814.458C530.444 814.806 529.746 815.503 529.048 815.503Z" fill="#4D3B2F"/>
<path d="M519.625 815.503C518.926 815.503 518.228 814.806 518.228 814.11V265.299C518.228 264.603 518.926 263.906 519.625 263.906C520.323 263.906 521.021 264.603 521.021 265.299V814.458C521.021 814.806 520.323 815.503 519.625 815.503Z" fill="#4D3B2F"/>
<path d="M510.201 815.503C509.503 815.503 508.805 814.806 508.805 814.11V265.299C508.805 264.603 509.503 263.906 510.201 263.906C510.899 263.906 511.597 264.603 511.597 265.299V814.458C511.597 814.806 510.899 815.503 510.201 815.503Z" fill="#4D3B2F"/>
<path d="M500.777 815.503C500.079 815.503 499.381 814.806 499.381 814.11V265.299C499.381 264.603 500.079 263.906 500.777 263.906C501.475 263.906 502.173 264.603 502.173 265.299V814.458C502.173 814.806 501.475 815.503 500.777 815.503Z" fill="#4D3B2F"/>
<path d="M491.353 815.503C490.655 815.503 489.957 814.806 489.957 814.11V265.299C489.957 264.603 490.655 263.906 491.353 263.906C492.051 263.906 492.75 264.603 492.75 265.299V814.458C492.75 814.806 492.051 815.503 491.353 815.503Z" fill="#4D3B2F"/>
<path d="M481.93 815.503C481.232 815.503 480.534 814.806 480.534 814.11V265.299C480.534 264.603 481.232 263.906 481.93 263.906C482.628 263.906 483.326 264.603 483.326 265.299V814.458C483.326 814.806 482.628 815.503 481.93 815.503Z" fill="#4D3B2F"/>
<path d="M472.506 815.503C471.808 815.503 471.11 814.806 471.11 814.11V265.299C471.11 264.603 471.808 263.906 472.506 263.906C473.204 263.906 473.902 264.603 473.902 265.299V814.458C473.902 814.806 473.204 815.503 472.506 815.503Z" fill="#4D3B2F"/>
<path d="M463.082 815.503C462.384 815.503 461.686 814.806 461.686 814.11V265.299C461.686 264.603 462.384 263.906 463.082 263.906C463.78 263.906 464.478 264.603 464.478 265.299V814.458C464.478 814.806 463.78 815.503 463.082 815.503Z" fill="#4D3B2F"/>
<path d="M453.658 793.912C452.96 793.912 452.262 793.216 452.262 792.519V265.299C452.262 264.603 452.96 263.906 453.658 263.906C454.357 263.906 455.055 264.603 455.055 265.299V792.868C455.055 793.564 454.357 793.912 453.658 793.912Z" fill="#4D3B2F"/>
<path d="M444.235 768.143C443.537 768.143 442.839 767.447 442.839 766.75V265.299C442.839 264.603 443.537 263.906 444.235 263.906C444.933 263.906 445.631 264.603 445.631 265.299V766.75C445.631 767.447 444.933 768.143 444.235 768.143Z" fill="#4D3B2F"/>
<path d="M434.811 742.026C434.113 742.026 433.415 741.33 433.415 740.633V265.299C433.415 264.603 434.113 263.906 434.811 263.906C435.509 263.906 436.207 264.603 436.207 265.299V740.981C436.207 741.678 435.509 742.026 434.811 742.026Z" fill="#4D3B2F"/>
<path d="M425.387 716.257C424.689 716.257 423.991 715.561 423.991 714.864V265.299C423.991 264.603 424.689 263.906 425.387 263.906C426.085 263.906 426.783 264.603 426.783 265.299V714.864C426.783 715.561 426.085 716.257 425.387 716.257Z" fill="#4D3B2F"/>
<path d="M415.964 690.14C415.266 690.14 414.568 689.443 414.568 688.747V265.299C414.568 264.603 415.266 263.906 415.964 263.906C416.662 263.906 417.36 264.603 417.36 265.299V689.095C417.36 689.792 416.662 690.14 415.964 690.14Z" fill="#4D3B2F"/>
<path d="M406.54 664.371C405.842 664.371 405.144 663.674 405.144 662.978V265.299C405.144 264.603 405.842 263.906 406.54 263.906C407.238 263.906 407.936 264.603 407.936 265.299V662.978C407.936 663.674 407.238 664.371 406.54 664.371Z" fill="#4D3B2F"/>
<path d="M397.116 638.253C396.418 638.253 395.72 637.557 395.72 636.861V265.299C395.72 264.603 396.418 263.906 397.116 263.906C397.814 263.906 398.512 264.603 398.512 265.299V637.209C398.512 637.905 397.814 638.253 397.116 638.253Z" fill="#4D3B2F"/>
<path d="M387.692 612.485C386.994 612.485 386.296 611.788 386.296 611.092V265.299C386.296 264.603 386.994 263.906 387.692 263.906C388.391 263.906 389.089 264.603 389.089 265.299V611.092C389.089 611.788 388.391 612.485 387.692 612.485Z" fill="#4D3B2F"/>
<path d="M378.618 586.716C377.92 586.716 377.222 586.019 377.222 585.323V265.299C377.222 264.603 377.92 263.906 378.618 263.906C379.316 263.906 380.014 264.603 380.014 265.299V585.323C379.665 586.019 379.316 586.716 378.618 586.716Z" fill="#4D3B2F"/>
<path d="M369.194 560.598C368.496 560.598 367.798 559.902 367.798 559.205V265.299C367.798 264.603 368.496 263.906 369.194 263.906C369.892 263.906 370.59 264.603 370.59 265.299V559.553C370.241 560.25 369.892 560.598 369.194 560.598Z" fill="#4D3B2F"/>
<path d="M359.77 534.829C359.072 534.829 358.374 534.133 358.374 533.436V265.299C358.374 264.603 359.072 263.906 359.77 263.906C360.468 263.906 361.166 264.603 361.166 265.299V533.785C361.166 534.481 360.468 534.829 359.77 534.829Z" fill="#4D3B2F"/>
<path d="M350.347 509.06C349.649 509.06 348.951 508.364 348.951 507.667V265.299C348.951 264.603 349.649 263.906 350.347 263.906C351.045 263.906 351.743 264.603 351.743 265.299V507.667C351.743 508.364 351.045 509.06 350.347 509.06Z" fill="#4D3B2F"/>
<path d="M340.923 482.943C340.225 482.943 339.527 482.246 339.527 481.55V265.299C339.527 264.603 340.225 263.906 340.923 263.906C341.621 263.906 342.319 264.603 342.319 265.299V481.898C342.319 482.595 341.621 482.943 340.923 482.943Z" fill="#4D3B2F"/>
<path d="M331.499 457.174C330.801 457.174 330.103 456.477 330.103 455.781V265.299C330.103 264.603 330.801 263.906 331.499 263.906C332.197 263.906 332.895 264.603 332.895 265.299V456.129C332.895 456.826 332.197 457.174 331.499 457.174Z" fill="#4D3B2F"/>
<path d="M322.076 431.753C321.377 431.753 320.679 431.057 320.679 430.36V265.299C320.679 264.603 321.377 263.906 322.076 263.906C322.774 263.906 323.472 264.603 323.472 265.299V430.36C323.472 431.057 323.123 431.753 322.076 431.753Z" fill="#4D3B2F"/>
<path d="M313.001 405.984C312.303 405.984 311.605 405.288 311.605 404.591V265.299C311.605 264.603 312.303 263.906 313.001 263.906C313.699 263.906 314.397 264.603 314.397 265.299V404.591C314.048 405.288 313.699 405.984 313.001 405.984Z" fill="#4D3B2F"/>
<path d="M303.577 380.215C302.879 380.215 302.181 379.519 302.181 378.822V265.299C302.181 264.603 302.879 263.906 303.577 263.906C304.275 263.906 304.973 264.603 304.973 265.299V378.822C304.973 379.519 304.275 380.215 303.577 380.215Z" fill="#4D3B2F"/>
<path d="M294.502 354.794C293.804 354.794 293.106 354.098 293.106 353.401V265.299C293.106 264.603 293.804 263.906 294.502 263.906C295.2 263.906 295.898 264.603 295.898 265.299V353.75C295.898 354.446 295.2 354.794 294.502 354.794Z" fill="#4D3B2F"/>
<path d="M285.428 330.07C284.73 330.07 284.032 329.373 284.032 328.677V265.299C284.032 264.603 284.73 263.906 285.428 263.906C286.126 263.906 286.824 264.603 286.824 265.299V329.025C286.824 329.722 286.126 330.07 285.428 330.07Z" fill="#4D3B2F"/>
<path d="M277.051 307.435C276.353 307.435 275.655 306.739 275.655 306.042V265.299C275.655 264.603 276.353 263.906 277.051 263.906C277.749 263.906 278.447 264.603 278.447 265.299V306.39C278.447 306.738 278.098 307.435 277.051 307.435Z" fill="#4D3B2F"/>
<path d="M269.024 285.148C268.325 285.148 267.627 284.452 267.627 283.755V265.299C267.627 264.603 268.325 263.906 269.024 263.906C269.722 263.906 270.42 264.603 270.42 265.299V283.755C270.42 284.452 269.722 285.148 269.024 285.148Z" fill="#4D3B2F"/>
<path d="M93.1142 815.503H92.7652C92.0671 815.154 91.7181 814.458 92.0671 813.761L264.137 273.308C264.486 272.612 265.184 272.264 265.882 272.612C266.58 272.96 266.929 273.657 266.58 274.353L94.5103 814.458C94.1613 815.154 93.8122 815.503 93.1142 815.503Z" fill="#4D3B2F"/>
<path d="M138.487 815.503C137.44 815.154 137.091 814.458 137.091 813.762L264.137 273.308C264.137 272.612 264.835 272.264 265.533 272.264C266.231 272.264 266.58 272.96 266.58 273.657L139.884 814.458C139.884 815.155 139.185 815.503 138.487 815.503Z" fill="#4D3B2F"/>
<path d="M182.116 815.504C182.116 815.504 181.767 815.504 182.116 815.504C181.069 815.504 180.72 814.807 180.72 814.111L264.137 273.658C264.137 272.961 264.835 272.613 265.533 272.613C266.231 272.613 266.58 273.31 266.58 274.006L183.163 814.459C183.163 815.156 182.814 815.504 182.116 815.504Z" fill="#4D3B2F"/>
<path d="M223.999 815.503C223.301 815.503 222.603 814.806 222.603 814.11L264.137 273.657C264.137 272.96 264.835 272.264 265.533 272.612C266.231 272.612 266.929 273.308 266.58 274.005L225.395 814.458C225.395 815.154 224.697 815.503 223.999 815.503Z" fill="#4D3B2F"/>
<path d="M265.533 815.503C264.835 815.503 264.137 814.806 264.137 814.11V273.657C264.137 272.96 264.835 272.264 265.533 272.264C266.231 272.264 266.929 272.96 266.929 273.657V814.11C266.929 814.806 266.231 815.503 265.533 815.503Z" fill="#4D3B2F"/>
<path d="M306.718 815.504C306.02 815.504 305.322 815.156 305.322 814.459L264.137 274.006C264.137 273.31 264.486 272.613 265.184 272.613C265.882 272.613 266.58 272.961 266.58 273.658L308.114 814.111C308.114 814.807 307.765 815.504 306.718 815.504C307.067 815.504 307.067 815.504 306.718 815.504Z" fill="#4D3B2F"/>
<path d="M348.951 815.504C348.253 815.504 347.904 815.156 347.554 814.459L264.137 274.006C264.137 273.31 264.486 272.613 265.184 272.613C265.882 272.613 266.58 272.961 266.58 273.658L349.998 814.111C350.347 814.807 349.998 815.504 348.951 815.504Z" fill="#4D3B2F"/>
<path d="M392.23 815.504C391.532 815.504 391.183 815.156 390.834 814.459L264.137 274.006C264.137 273.31 264.486 272.613 265.184 272.613C265.882 272.613 266.58 272.961 266.58 273.658L393.277 814.111C393.626 814.807 393.277 815.504 392.23 815.504C392.579 815.504 392.23 815.504 392.23 815.504Z" fill="#4D3B2F"/>
<path d="M437.603 815.503C436.905 815.503 436.556 815.154 436.207 814.458L264.137 274.005C263.788 273.308 264.137 272.612 264.835 272.264C265.533 271.915 266.231 272.264 266.58 272.96L438.999 813.413C439.348 814.11 438.999 814.806 438.301 815.154C437.952 815.503 437.952 815.503 437.603 815.503Z" fill="#4D3B2F"/>
<path d="M69.3803 815.503H69.0313C68.3332 815.154 67.9842 814.458 68.3332 813.761L264.137 273.308C264.486 272.612 265.184 272.264 265.882 272.612C266.58 272.96 266.929 273.657 266.58 274.353L70.7764 814.806C70.4274 815.154 70.0783 815.503 69.3803 815.503Z" fill="#4D3B2F"/>
<path d="M116.15 815.503C115.103 815.154 114.754 814.458 114.754 813.762L264.137 273.308C264.486 272.612 265.184 272.264 265.882 272.264C266.58 272.612 266.929 273.308 266.929 274.005L117.546 814.458C117.197 815.155 116.848 815.503 116.15 815.503Z" fill="#4D3B2F"/>
<path d="M160.476 815.504C159.429 815.504 159.08 814.807 159.08 814.111L264.137 273.658C264.137 272.961 264.835 272.613 265.533 272.613C266.231 272.613 266.58 273.31 266.58 274.006L161.872 814.459C161.872 815.156 161.174 815.504 160.476 815.504Z" fill="#4D3B2F"/>
<path d="M203.057 815.503C202.359 815.503 201.661 814.806 201.661 814.11L264.137 273.657C264.137 272.96 264.835 272.264 265.533 272.612C266.231 272.612 266.929 273.308 266.58 274.005L204.454 814.458C204.454 815.154 203.756 815.503 203.057 815.503Z" fill="#4D3B2F"/>
<path d="M244.941 815.503C244.243 815.503 243.545 814.806 243.545 814.11L264.137 273.657C264.137 272.96 264.835 272.264 265.533 272.264C266.231 272.264 266.929 272.96 266.929 273.657L246.337 814.11C245.988 815.154 245.639 815.503 244.941 815.503Z" fill="#4D3B2F"/>
<path d="M286.126 815.503C285.428 815.503 284.73 814.806 284.73 814.11L264.137 273.657C264.137 272.96 264.835 272.264 265.533 272.264C266.231 272.264 266.929 272.96 266.929 273.657L287.522 814.11C287.522 814.806 286.824 815.503 286.126 815.503Z" fill="#4D3B2F"/>
<path d="M327.66 815.504C326.962 815.504 326.613 815.156 326.264 814.459L264.137 274.006C264.137 273.31 264.486 272.613 265.184 272.613C265.882 272.613 266.58 272.961 266.58 273.658L329.056 814.111C329.056 814.807 328.707 815.504 327.66 815.504C328.009 815.504 327.66 815.504 327.66 815.504Z" fill="#4D3B2F"/>
<path d="M370.241 815.504C369.543 815.504 369.194 815.156 368.845 814.459L264.137 274.006C264.137 273.31 264.486 272.613 265.184 272.613C265.882 272.613 266.58 272.961 266.58 273.658L371.637 814.111C371.637 814.807 371.288 815.504 370.241 815.504C370.59 815.504 370.59 815.504 370.241 815.504Z" fill="#4D3B2F"/>
<path d="M414.567 815.503C413.869 815.503 413.52 815.154 413.171 814.458L264.137 274.005C263.788 273.308 264.486 272.612 265.184 272.264C265.882 271.915 266.58 272.612 266.929 273.308L415.964 813.761C415.964 814.458 415.615 815.154 414.567 815.503C414.917 815.503 414.917 815.503 414.567 815.503Z" fill="#4D3B2F"/>
<path d="M461.337 815.503C460.639 815.503 460.29 815.154 459.941 814.806L264.137 274.353C263.788 273.657 264.137 272.96 264.835 272.612C265.533 272.264 266.231 272.612 266.58 273.308L462.733 813.761C463.082 814.458 462.733 815.154 462.035 815.503C461.686 815.503 461.686 815.503 461.337 815.503Z" fill="#4D3B2F"/>
<path d="M265.533 313.355C292.134 313.355 313.699 291.839 313.699 265.299C313.699 238.759 292.134 217.243 265.533 217.243C238.932 217.243 217.368 238.759 217.368 265.299C217.368 291.839 238.932 313.355 265.533 313.355Z" fill="#4D3B2F"/>
</svg>
