<svg width="450" height="450" viewBox="0 0 450 450" fill="none" xmlns="http://www.w3.org/2000/svg">
<g clip-path="url(#clip0)">
<path d="M448.845 450H1.15459C0.577293 450 0 449.423 0 448.845V1.15459C0 0.577293 0.577293 0 1.15459 0H448.845C449.423 0 450 0.577293 450 1.15459V448.845C450 449.423 449.423 450 448.845 450ZM2.02053 447.691H447.691V2.02053H2.02053V447.691Z" fill="#BC7A4E"/>
<path d="M418.826 450C418.538 450 418.249 450 417.96 449.711C417.672 449.134 417.672 448.557 417.96 448.268C428.64 439.031 438.743 428.929 447.979 418.249C448.268 417.672 449.134 417.672 449.423 418.249C450 418.538 450 419.403 449.423 419.692C440.186 430.372 430.083 440.475 419.403 449.711C419.403 449.711 419.115 450 418.826 450Z" fill="#BC7A4E"/>
<path d="M1.15455 32.0396C0.865904 32.0396 0.577257 32.0396 0.577257 31.751C-3.61651e-05 31.4623 -3.61651e-05 30.5964 0.577257 30.3078C9.5253 19.6278 19.6279 9.5252 30.3079 0.288506C30.8851 -0.000140153 31.4624 -0.000140153 31.7511 0.288506C32.0397 0.8658 32.0397 1.44309 31.7511 1.73174C21.0712 10.9684 10.9685 21.0711 2.02049 31.751C1.73184 32.0396 1.4432 32.0396 1.15455 32.0396Z" fill="#BC7A4E"/>
<path d="M31.1739 450C30.8852 450 30.5966 450 30.5966 449.711C19.9166 440.474 9.81402 430.372 0.577325 419.692C0.288678 419.115 0.288678 418.537 0.577325 418.249C1.15462 417.96 1.73191 417.96 2.02056 418.249C11.2572 428.929 21.3599 439.031 32.0398 448.268C32.6171 448.557 32.6171 449.423 32.0398 449.711C31.7512 449.711 31.4625 450 31.1739 450Z" fill="#BC7A4E"/>
<path d="M448.845 32.0396C448.557 32.0396 448.268 32.0396 447.98 31.7509C438.743 21.071 428.64 10.9684 417.96 1.73167C417.383 1.44302 417.383 0.577085 417.96 0.288439C418.249 -0.288855 419.115 -0.288855 419.404 0.288439C430.083 9.52513 440.186 19.6278 449.423 30.3077C449.711 30.885 449.711 31.4623 449.423 31.7509C449.423 32.0396 449.134 32.0396 448.845 32.0396Z" fill="#BC7A4E"/>
<path d="M380.147 450C379.859 450 379.57 449.711 379.282 449.423C378.993 448.845 378.993 448.268 379.57 447.979C406.414 429.506 429.217 406.414 447.979 379.57C448.268 378.993 448.845 378.993 449.423 379.281C450 379.57 450 380.436 449.711 380.725C430.949 407.569 407.858 430.949 381.013 449.423C380.725 449.711 380.436 450 380.147 450Z" fill="#BC7A4E"/>
<path d="M448.845 70.7183C448.557 70.7183 448.268 70.4297 447.979 70.141C429.506 43.2969 406.414 20.4938 379.57 1.73178C378.993 1.44313 378.993 0.577195 379.282 0.288548C379.57 -0.288745 380.147 -0.288745 380.725 -9.85265e-05C407.569 18.7619 430.949 41.8537 449.423 68.6978C449.711 69.2751 449.711 69.8524 449.134 70.141C449.134 70.7183 449.134 70.7183 448.845 70.7183Z" fill="#BC7A4E"/>
<path d="M1.15466 70.7182C0.866013 70.7182 0.866013 70.7182 0.577366 70.4296C7.32616e-05 70.1409 7.32616e-05 69.275 0.28872 68.9864C19.0507 42.1422 42.1425 19.0505 68.9866 0.288476C69.5639 -0.000170879 70.1412 -0.000170879 70.4298 0.577122C70.7185 1.15442 70.7185 1.73171 70.1412 2.02035C43.5857 20.4937 20.494 43.5855 2.0206 70.1409C1.73195 70.4296 1.44331 70.7182 1.15466 70.7182Z" fill="#BC7A4E"/>
<path d="M69.5639 450C69.2753 450 69.2753 450 68.9866 449.711C42.1425 430.949 18.7621 407.857 0.28872 381.013C7.32541e-05 380.436 7.32541e-05 379.859 0.577366 379.57C1.15466 379.281 1.73195 379.281 2.0206 379.859C20.494 406.703 43.5857 429.506 70.4298 448.268C71.0071 448.556 71.0071 449.422 70.7185 449.711C70.4298 449.711 69.8525 450 69.5639 450Z" fill="#BC7A4E"/>
<path d="M1.15454 117.479C0.865896 117.479 0.865896 117.479 0.577249 117.479C-4.38094e-05 117.19 -0.28869 116.325 -4.3802e-05 115.747C24.5349 65.5227 65.5227 24.5349 115.747 -4.38094e-05C116.325 -0.28869 116.902 -4.38169e-05 117.19 0.577249C117.479 1.15454 117.19 1.73184 116.613 2.02048C66.966 26.2668 26.2668 66.966 2.02048 116.902C1.73184 117.19 1.44319 117.479 1.15454 117.479Z" fill="#BC7A4E"/>
<path d="M448.845 117.479C448.557 117.479 447.979 117.19 447.979 116.902C423.733 67.2546 383.034 26.2668 333.098 2.02048C332.521 1.73184 332.232 1.15454 332.521 0.577249C332.809 -4.38169e-05 333.387 -0.28869 333.964 -4.38094e-05C384.189 24.5349 425.465 65.5227 449.711 115.747C450 116.325 449.711 116.902 449.134 117.19C449.134 117.479 448.845 117.479 448.845 117.479Z" fill="#BC7A4E"/>
<path d="M333.675 450C333.387 450 332.81 449.711 332.81 449.423C332.521 448.846 332.81 448.268 333.387 447.98C383.034 423.733 424.022 383.034 448.268 333.098C448.557 332.521 449.134 332.232 449.711 332.521C450.289 332.81 450.577 333.387 450.289 333.964C425.754 384.189 384.766 425.465 334.541 449.712C333.964 449.712 333.675 450 333.675 450Z" fill="#BC7A4E"/>
<path d="M116.325 450C116.036 450 116.036 450 115.747 450C65.5227 425.465 24.5349 384.189 -4.3802e-05 333.964C-0.28869 333.387 -4.38094e-05 332.81 0.577249 332.521C1.15454 332.232 1.73184 332.521 2.02048 333.098C26.2668 382.745 66.966 423.733 116.902 447.98C117.479 448.268 117.768 448.846 117.479 449.423C117.19 449.711 116.613 450 116.325 450Z" fill="#BC7A4E"/>
<path d="M1.15459 202.63C1.15459 202.63 0.86594 202.63 1.15459 202.63C0.577293 202.63 0 202.053 0 201.475C10.9686 95.542 95.542 10.9686 201.475 0C202.053 0 202.63 0.288647 202.63 0.86594C202.63 1.44323 202.341 2.02053 201.764 2.02053C96.9853 12.9891 12.9891 96.9853 2.02053 201.475C2.02053 202.053 1.73188 202.63 1.15459 202.63Z" fill="#BC7A4E"/>
<path d="M201.475 450C95.542 439.031 10.9686 354.458 0 248.525C0 247.947 0.288647 247.37 0.86594 247.37C1.44323 247.37 2.02053 247.659 2.02053 248.236C12.9891 353.015 96.6966 436.722 201.475 447.691C202.053 447.691 202.63 448.268 202.341 448.845C202.341 449.423 202.053 450 201.475 450Z" fill="#BC7A4E"/>
<path d="M448.845 202.63C448.268 202.63 447.691 202.341 447.691 201.764C437.011 96.9851 353.015 12.989 248.236 2.0204C247.659 2.0204 247.081 1.4431 247.37 0.865812C247.37 0.288518 247.947 -0.288775 248.525 -0.000128254C354.169 10.9684 438.743 95.5419 449.711 201.475C450 202.052 449.423 202.63 448.845 202.63Z" fill="#BC7A4E"/>
<path d="M248.236 450C247.659 450 247.081 449.711 247.081 449.134C247.081 448.557 247.37 447.98 247.947 447.98C352.726 437.011 436.434 353.303 447.402 248.525C447.402 247.947 447.979 247.37 448.557 247.659C449.134 247.659 449.711 248.236 449.423 248.813C439.031 354.169 354.169 439.031 248.236 450C248.525 450 248.525 450 248.236 450Z" fill="#BC7A4E"/>
<path d="M23.9576 214.464C23.9576 214.464 23.6689 214.464 23.9576 214.464C23.3803 214.464 22.803 213.887 22.803 213.31C28.5759 110.84 110.263 28.8646 213.021 22.803C213.598 22.803 214.176 23.0916 214.176 23.9576C214.176 24.5349 213.887 25.1122 213.021 25.1122C111.706 30.8851 30.5964 111.995 24.8235 213.31C24.8235 213.887 24.5349 214.464 23.9576 214.464Z" fill="#BC7A4E"/>
<path d="M426.042 214.464C425.465 214.464 424.888 213.887 424.888 213.31C419.115 111.706 338.294 30.8852 236.69 24.8236C236.113 24.8236 235.536 24.2463 235.536 23.669C235.536 23.0917 236.113 22.5144 236.69 22.5144C339.16 28.576 421.135 110.263 426.908 213.021C427.197 213.887 426.62 214.176 426.042 214.464Z" fill="#BC7A4E"/>
<path d="M224.856 427.486C117.479 427.486 29.1532 344.355 22.803 236.979C22.803 236.402 23.0916 235.824 23.9576 235.824C24.5349 235.824 25.1122 236.113 25.1122 236.979C31.4624 344.644 120.943 427.486 228.608 425.465C279.41 424.599 327.614 404.682 363.983 369.468C400.353 334.541 422.001 287.492 424.888 237.267C424.888 236.69 425.465 236.113 426.042 236.113C426.62 236.113 427.197 236.69 427.197 237.267C424.31 288.069 402.373 335.407 365.715 370.911C328.768 406.414 280.276 426.62 228.897 427.486C227.453 427.486 226.01 427.486 224.856 427.486Z" fill="#BC7A4E"/>
<path d="M224.856 403.816C178.672 403.816 135.087 386.498 101.604 354.458C66.9659 321.552 47.338 277.101 46.1834 229.185C43.8742 130.757 122.097 48.4926 220.526 46.1834C318.954 43.8742 401.219 122.097 403.528 220.526C405.837 318.954 327.614 401.219 229.185 403.528C227.742 403.816 226.299 403.816 224.856 403.816ZM48.2039 229.185C50.5131 326.459 131.623 403.816 229.185 401.507C276.235 400.353 320.398 381.013 352.726 346.664C385.343 312.604 402.662 267.575 401.507 220.526C400.353 173.477 381.013 129.314 346.664 96.9852C312.604 64.3681 267.575 47.0493 220.526 48.2039C123.252 50.8017 45.8947 131.911 48.2039 229.185Z" fill="#BC7A4E"/>
<path d="M215.33 379.859C176.94 377.55 140.86 361.097 114.015 333.387C86.8827 305.677 71.2957 268.73 70.1412 230.051C68.6979 189.641 83.1302 150.674 110.552 120.654C137.684 90.635 174.92 72.7389 215.33 70.1411C215.908 70.1411 216.485 70.4298 216.485 71.0071C216.485 71.5843 216.196 72.1616 215.619 72.1616C175.497 74.7595 138.55 92.3669 111.706 121.809C84.8621 151.539 70.7185 189.929 72.1617 229.763C73.3163 268.153 88.9032 304.233 115.459 331.655C142.014 358.788 177.518 375.241 215.33 377.55C215.908 377.55 216.485 378.127 216.196 378.704C216.196 379.282 215.908 379.859 215.33 379.859Z" fill="#BC7A4E"/>
<path d="M234.67 379.859C234.092 379.859 233.515 379.282 233.515 378.993C233.515 378.416 233.804 377.838 234.381 377.838C274.214 375.24 310.872 357.633 337.716 328.191C364.561 298.46 378.704 260.359 377.55 220.237C375.24 140.859 313.759 77.0685 234.67 72.1615C234.092 72.1615 233.515 71.5842 233.804 71.0069C233.804 70.4296 234.381 69.8523 234.958 70.141C315.202 75.048 377.55 139.705 380.147 219.949C381.591 260.648 367.158 299.326 339.737 329.346C312.316 359.365 275.08 377.261 234.67 379.859Z" fill="#BC7A4E"/>
<path d="M224.856 356.478C191.95 356.478 160.487 344.355 135.952 321.841C109.974 298.172 94.9647 265.555 93.5214 230.629C90.3463 158.178 146.921 96.6966 219.371 93.5215C254.586 92.0782 288.069 104.201 314.047 127.87C340.026 151.539 355.035 184.156 356.478 219.083C357.922 254.298 345.799 287.781 322.13 313.759C298.46 339.737 265.843 354.747 230.917 356.19C228.608 356.478 226.587 356.478 224.856 356.478ZM225.144 95.542C223.124 95.542 221.392 95.542 219.371 95.542C148.076 98.7171 92.6555 159.044 95.8306 230.34C97.2738 264.978 112.283 296.729 137.684 320.109C163.085 343.489 196.28 355.613 230.629 354.169C265.266 352.726 297.017 337.716 320.398 312.316C343.489 286.915 355.612 254.009 354.169 219.371C352.726 184.734 337.716 152.983 312.316 129.602C288.358 107.665 257.473 95.542 225.144 95.542Z" fill="#BC7A4E"/>
<path d="M118.345 219.66C117.768 219.66 117.19 219.083 117.19 218.505C120.366 163.951 163.951 120.366 218.505 117.19C219.083 117.19 219.66 117.479 219.66 118.345C219.66 118.922 219.371 119.5 218.505 119.5C165.106 122.675 122.386 165.394 119.211 218.794C119.5 219.371 118.922 219.66 118.345 219.66Z" fill="#BC7A4E"/>
<path d="M331.655 219.66C331.078 219.66 330.5 219.083 330.5 218.505C327.325 165.106 284.605 122.386 231.206 119.211C230.629 119.211 230.051 118.634 230.051 118.056C230.051 117.479 230.629 116.902 231.206 116.902C285.76 120.077 329.346 163.663 332.521 218.217C332.521 219.083 332.232 219.66 331.655 219.66Z" fill="#BC7A4E"/>
<path d="M231.206 332.521C230.629 332.521 230.051 331.944 230.051 331.366C230.051 330.789 230.34 330.212 231.206 330.212C284.605 327.037 327.325 284.317 330.5 230.917C330.5 230.34 331.078 229.763 331.655 229.763C332.232 229.763 332.809 230.34 332.809 230.917C329.346 285.76 285.76 329.346 231.206 332.521Z" fill="#BC7A4E"/>
<path d="M218.505 332.521C163.951 329.346 120.366 285.76 117.19 231.206C117.19 230.629 117.479 230.051 118.345 230.051C118.922 230.051 119.5 230.34 119.5 231.206C122.675 284.605 165.394 327.325 218.794 330.5C219.371 330.5 219.949 331.078 219.949 331.655C219.66 332.232 219.083 332.521 218.505 332.521Z" fill="#BC7A4E"/>
<path d="M224.856 309.14C204.939 309.14 185.888 302.213 170.59 289.224C153.271 274.791 142.88 254.298 141.148 231.783C139.416 209.269 146.344 187.62 160.776 170.301C175.208 152.983 195.702 142.591 218.217 140.859C264.4 137.107 305.388 171.456 309.14 217.928C312.893 264.112 278.544 305.099 232.072 308.852C229.474 309.14 227.165 309.14 224.856 309.14ZM225.144 142.88C222.835 142.88 220.526 142.88 218.217 143.169C196.28 144.901 176.652 155.292 162.219 172.033C148.076 188.775 141.148 210.135 143.169 231.783C144.901 253.72 155.292 273.348 172.033 287.781C188.775 301.924 210.135 308.852 231.783 306.831C276.812 303.079 310.584 263.246 306.831 218.217C303.079 175.208 267.287 142.88 225.144 142.88Z" fill="#BC7A4E"/>
<path d="M225.144 201.186C224.567 201.186 223.99 200.609 223.99 200.032L224.567 170.301C224.567 169.724 224.856 169.146 225.722 169.146C226.299 169.146 226.876 169.724 226.876 170.301L226.588 200.032C226.299 200.609 225.722 201.186 225.144 201.186Z" fill="#BC7A4E"/>
<path d="M216.774 202.63C216.196 202.63 215.908 202.341 215.619 202.052L205.805 174.054C205.516 173.476 205.805 172.899 206.382 172.61C206.96 172.322 207.537 172.61 207.826 173.188L217.64 201.186C217.928 201.764 217.639 202.341 217.062 202.63H216.774Z" fill="#BC7A4E"/>
<path d="M209.269 206.67C208.98 206.67 208.691 206.67 208.403 206.382L189.641 183.29C189.352 182.713 189.352 182.135 189.929 181.847C190.507 181.558 191.084 181.558 191.373 182.135L210.135 205.227C210.423 205.805 210.423 206.382 209.846 206.67C209.557 206.67 209.269 206.67 209.269 206.67Z" fill="#BC7A4E"/>
<path d="M203.496 213.31C203.207 213.31 203.207 213.31 202.919 213.021L177.229 198.011C176.652 197.723 176.652 197.145 176.94 196.568C177.229 195.991 177.806 195.991 178.384 196.279L204.073 211.289C204.65 211.578 204.65 212.155 204.362 212.732C204.362 213.021 203.784 213.31 203.496 213.31Z" fill="#BC7A4E"/>
<path d="M200.321 221.392L170.879 215.907C170.301 215.907 170.013 215.33 170.013 214.753C170.013 214.175 170.59 213.887 171.167 213.887L200.609 219.371C201.187 219.371 201.475 219.948 201.475 220.526C201.475 221.103 200.898 221.392 200.321 221.392Z" fill="#BC7A4E"/>
<path d="M171.167 234.958C170.59 234.958 170.301 234.669 170.013 234.092C170.013 233.515 170.301 232.937 170.879 232.937L200.321 228.03C200.898 228.03 201.475 228.319 201.475 228.896C201.475 229.474 201.187 230.051 200.609 230.051L171.167 234.958Z" fill="#BC7A4E"/>
<path d="M177.229 252.854C176.94 252.854 176.363 252.566 176.363 252.277C176.074 251.7 176.363 251.122 176.652 250.834L202.63 236.401C203.207 236.113 203.785 236.401 204.073 236.69C204.362 237.267 204.073 237.845 203.785 238.133L177.806 252.566C177.806 252.854 177.518 252.854 177.229 252.854Z" fill="#BC7A4E"/>
<path d="M189.352 267.575C189.063 267.575 188.775 267.575 188.775 267.287C188.197 266.998 188.197 266.132 188.775 265.843L208.114 243.329C208.403 242.752 209.269 242.752 209.557 243.329C210.135 243.618 210.135 244.484 209.557 244.772L190.218 267.287C189.929 267.287 189.641 267.575 189.352 267.575Z" fill="#BC7A4E"/>
<path d="M205.805 277.1H205.516C204.939 276.812 204.65 276.234 204.939 275.657L215.33 247.947C215.619 247.37 216.196 247.081 216.774 247.37C217.351 247.658 217.64 248.236 217.351 248.813L206.96 276.523C206.671 276.812 206.094 277.1 205.805 277.1Z" fill="#BC7A4E"/>
<path d="M224.278 280.564C223.701 280.564 223.124 279.987 223.124 279.41L223.412 249.679C223.412 249.102 223.99 248.524 224.567 248.524C225.144 248.524 225.722 249.102 225.722 249.679L225.433 279.41C225.433 280.276 224.856 280.564 224.278 280.564Z" fill="#BC7A4E"/>
<path d="M243.04 277.678C242.463 277.678 242.174 277.389 241.886 277.101L232.072 249.102C231.783 248.525 232.072 247.947 232.649 247.659C233.226 247.37 233.804 247.659 234.092 248.236L243.906 276.235C244.195 276.812 243.906 277.389 243.329 277.678H243.04Z" fill="#BC7A4E"/>
<path d="M259.493 268.152C259.205 268.152 258.916 268.152 258.627 267.864L239.865 244.772C239.577 244.195 239.577 243.617 240.154 243.329C240.731 243.04 241.308 243.04 241.597 243.617L260.359 266.709C260.648 267.286 260.648 267.864 260.071 268.152C260.071 268.152 259.782 268.152 259.493 268.152Z" fill="#BC7A4E"/>
<path d="M271.905 253.72C271.616 253.72 271.616 253.72 271.328 253.431L245.638 238.421C245.061 238.133 245.061 237.556 245.35 236.978C245.638 236.401 246.215 236.401 246.793 236.69L272.482 251.699C273.06 251.988 273.06 252.565 272.771 253.142C272.771 253.72 272.194 253.72 271.905 253.72Z" fill="#BC7A4E"/>
<path d="M278.544 236.113L249.102 230.628C248.525 230.628 248.236 230.051 248.236 229.474C248.236 228.897 248.813 228.608 249.391 228.608L278.544 234.092C279.121 234.092 279.41 234.669 279.41 235.247C279.698 235.824 279.121 236.113 278.544 236.113Z" fill="#BC7A4E"/>
<path d="M249.391 221.969C248.813 221.969 248.525 221.68 248.236 221.103C248.236 220.526 248.525 219.948 249.102 219.948L278.544 215.042C279.121 215.042 279.698 215.33 279.698 215.907C279.698 216.485 279.41 217.062 278.832 217.062L249.391 221.969C249.679 221.969 249.679 221.969 249.391 221.969Z" fill="#BC7A4E"/>
<path d="M246.793 213.887C246.504 213.887 245.927 213.598 245.927 213.31C245.638 212.732 245.927 212.155 246.215 211.866L272.194 197.434C272.771 197.145 273.348 197.434 273.637 197.723C273.926 198.3 273.637 198.877 273.348 199.166L247.37 213.598C247.081 213.887 246.793 213.887 246.793 213.887Z" fill="#BC7A4E"/>
<path d="M241.02 207.248C240.731 207.248 240.442 207.248 240.442 206.959C239.865 206.671 239.865 205.805 240.442 205.516L259.782 183.002C260.07 182.425 260.936 182.425 261.225 183.002C261.802 183.29 261.802 184.156 261.225 184.445L241.886 206.959C241.886 206.959 241.597 207.248 241.02 207.248Z" fill="#BC7A4E"/>
<path d="M233.804 202.629H233.515C232.938 202.341 232.649 201.764 232.938 201.186L243.329 173.476C243.618 172.899 244.195 172.61 244.772 172.899C245.35 173.188 245.638 173.765 245.349 174.342L234.67 202.052C234.67 202.341 234.092 202.629 233.804 202.629Z" fill="#BC7A4E"/>
<path d="M241.962 242.084C251.43 232.615 251.43 217.264 241.962 207.795C232.493 198.326 217.141 198.326 207.672 207.795C198.204 217.264 198.204 232.615 207.672 242.084C217.141 251.553 232.493 251.553 241.962 242.084Z" fill="#BC7A4E"/>
<path d="M118.056 232.361C114.015 232.361 110.552 228.897 110.552 224.856C110.552 220.815 114.015 217.351 118.056 217.351C122.097 217.351 125.561 220.815 125.561 224.856C125.561 228.897 122.097 232.361 118.056 232.361ZM118.056 219.66C115.17 219.66 112.861 221.969 112.861 224.856C112.861 227.742 115.17 230.052 118.056 230.052C120.943 230.052 123.252 227.742 123.252 224.856C123.252 221.969 120.943 219.66 118.056 219.66Z" fill="#BC7A4E"/>
<path d="M80.2435 224.856C80.2435 230.052 75.9138 234.381 70.7182 234.381C65.5226 234.381 61.1929 230.052 61.1929 224.856C61.1929 219.66 65.5226 215.331 70.7182 215.331C75.9138 215.331 80.2435 219.66 80.2435 224.856Z" fill="#BC7A4E"/>
<path d="M23.0916 237.845C15.8755 237.845 10.1025 232.072 10.1025 224.856C10.1025 217.64 15.8755 211.867 23.0916 211.867C30.3078 211.867 36.0807 217.64 36.0807 224.856C35.7921 232.072 30.0192 237.845 23.0916 237.845ZM23.0916 214.176C17.3187 214.176 12.4117 219.083 12.4117 224.856C12.4117 230.629 17.3187 235.536 23.0916 235.536C28.8646 235.536 33.7716 230.629 33.7716 224.856C33.7716 219.083 28.8646 214.176 23.0916 214.176Z" fill="#BC7A4E"/>
<path d="M331.655 232.361C327.614 232.361 324.15 228.897 324.15 224.856C324.15 220.815 327.614 217.351 331.655 217.351C335.696 217.351 339.16 220.815 339.16 224.856C339.16 228.897 335.696 232.361 331.655 232.361ZM331.655 219.66C328.768 219.66 326.459 221.969 326.459 224.856C326.459 227.742 328.768 230.052 331.655 230.052C334.541 230.052 336.85 227.742 336.85 224.856C336.85 221.969 334.541 219.66 331.655 219.66Z" fill="#BC7A4E"/>
<path d="M369.756 224.856C369.756 230.052 374.086 234.381 379.282 234.381C384.477 234.381 388.807 230.052 388.807 224.856C388.807 219.66 384.477 215.331 379.282 215.331C374.086 215.331 369.756 219.66 369.756 224.856Z" fill="#BC7A4E"/>
<path d="M426.908 237.845C419.692 237.845 413.919 232.072 413.919 224.856C413.919 217.64 419.692 211.867 426.908 211.867C434.124 211.867 439.897 217.64 439.897 224.856C439.897 232.072 434.124 237.845 426.908 237.845ZM426.908 214.176C421.135 214.176 416.228 219.083 416.228 224.856C416.228 230.629 421.135 235.536 426.908 235.536C432.681 235.536 437.588 230.629 437.588 224.856C437.588 219.083 432.681 214.176 426.908 214.176Z" fill="#BC7A4E"/>
<path d="M224.856 325.305C228.319 325.305 231.206 328.191 231.206 331.655C231.206 335.119 228.319 338.005 224.856 338.005C221.392 338.005 218.505 335.119 218.505 331.655C218.505 328.191 221.392 325.305 224.856 325.305Z" fill="#BC7A4E"/>
<path d="M224.856 389.961C219.083 389.961 214.176 385.054 214.176 379.281C214.176 373.509 219.083 368.602 224.856 368.602C230.629 368.602 235.536 373.509 235.536 379.281C235.536 385.054 230.917 389.961 224.856 389.961ZM224.856 370.622C220.237 370.622 216.196 374.374 216.196 379.281C216.196 383.9 219.949 387.941 224.856 387.941C229.474 387.941 233.515 384.188 233.515 379.281C233.515 374.663 229.763 370.622 224.856 370.622Z" fill="#BC7A4E"/>
<path d="M224.856 415.074C231.494 415.074 236.69 420.269 236.69 426.908C236.69 433.547 231.494 438.743 224.856 438.743C218.217 438.743 213.021 433.547 213.021 426.908C213.021 420.269 218.505 415.074 224.856 415.074Z" fill="#BC7A4E"/>
<path d="M224.856 124.406C228.319 124.406 231.206 121.52 231.206 118.056C231.206 114.593 228.319 111.706 224.856 111.706C221.392 111.706 218.505 114.593 218.505 118.056C218.505 121.52 221.392 124.406 224.856 124.406Z" fill="#BC7A4E"/>
<path d="M224.856 81.3982C219.083 81.3982 214.176 76.4912 214.176 70.7183C214.176 64.9453 219.083 60.0383 224.856 60.0383C230.629 60.0383 235.536 64.9453 235.536 70.7183C235.536 76.4912 230.917 81.3982 224.856 81.3982ZM224.856 62.0589C220.237 62.0589 216.196 65.8113 216.196 70.7183C216.196 75.3366 219.949 79.3777 224.856 79.3777C229.474 79.3777 233.515 75.6253 233.515 70.7183C233.515 65.8113 229.763 62.0589 224.856 62.0589Z" fill="#BC7A4E"/>
<path d="M224.856 34.6375C231.494 34.6375 236.69 29.4418 236.69 23.0916C236.69 16.4527 231.494 11.2571 224.856 11.2571C218.217 11.2571 213.021 16.4527 213.021 23.0916C213.021 29.4418 218.505 34.6375 224.856 34.6375Z" fill="#BC7A4E"/>
</g>
<defs>
<clipPath id="clip0">
<rect width="450" height="450" fill="white"/>
</clipPath>
</defs>
</svg>
