<svg width="275" height="275" viewBox="0 0 275 275" fill="none" xmlns="http://www.w3.org/2000/svg">
<g clip-path="url(#clip0)">
<path d="M274.294 274.824H0.705581C0.35279 274.824 0 274.471 0 274.119V0.705128C0 0.352564 0.35279 0 0.705581 0H274.294C274.647 0 275 0.352564 275 0.705128V274.119C275 274.471 274.647 274.824 274.294 274.824ZM1.23477 273.413H273.589V1.23397H1.23477V273.413Z" fill="#BC7A4E"/>
<path d="M0.705689 275C0.529294 275 0.529294 275 0.352899 275C0.000108868 274.824 -0.176286 274.471 0.000108875 274.119L136.354 1.23397H0.529294C0.352899 1.23397 0.000108875 1.05769 0.000108875 0.705128C0.000108875 0.352564 0.352899 0 0.705689 0H137.588C137.765 0 137.941 0.176282 138.118 0.352564C138.294 0.528846 138.294 0.705128 138.118 1.05769L1.23487 274.647C1.05848 274.824 0.882085 275 0.705689 275Z" fill="#BC7A4E"/>
<path d="M0.705689 263.365C0.529294 263.365 0.529294 263.365 0.352899 263.365C0.00010886 263.189 -0.176286 262.66 0.000108868 262.484L128.063 6.34628H0.705689C0.352899 6.34628 0.000108868 5.99371 0.000108868 5.64115C0.000108868 5.28859 0.352899 5.1123 0.705689 5.1123H129.121C129.298 5.1123 129.474 5.28859 129.651 5.46487C129.827 5.64115 129.827 5.81743 129.651 6.17L1.23487 263.013C1.05848 263.189 0.882085 263.365 0.705689 263.365Z" fill="#BC7A4E"/>
<path d="M0.705689 251.731C0.529294 251.731 0.529294 251.731 0.352899 251.731C0.00010886 251.555 -0.176286 251.202 0.000108868 250.849L119.772 11.4584H0.705689C0.352899 11.4584 0.000108868 11.1058 0.000108868 10.7532C0.000108868 10.4007 0.352899 10.0481 0.705689 10.0481H120.831C121.007 10.0481 121.184 10.2244 121.36 10.4007C121.536 10.5769 121.536 10.7532 121.36 11.1058L1.23487 251.378C1.05848 251.555 0.882085 251.731 0.705689 251.731Z" fill="#BC7A4E"/>
<path d="M0.705689 240.096C0.529294 240.096 0.529294 240.096 0.352899 240.096C0.00010886 239.743 -0.176286 239.391 0.000108868 239.038L111.305 16.3941H0.705689C0.352899 16.3941 0.000108868 16.2178 0.000108868 15.8653C0.000108868 15.5127 0.352899 15.1602 0.705689 15.1602H112.54C112.717 15.1602 112.893 15.3364 113.069 15.5127C113.246 15.689 113.246 15.8653 113.069 16.2178L1.23487 239.743C1.05848 239.92 0.882085 240.096 0.705689 240.096Z" fill="#BC7A4E"/>
<path d="M0.705689 228.462C0.529294 228.462 0.529294 228.462 0.352899 228.462C0.000108853 228.109 -0.176286 227.756 0.00010886 227.404L103.015 21.5064H0.705689C0.352899 21.5064 0.00010886 21.1539 0.00010886 20.8013C0.00010886 20.4488 0.352899 20.0962 0.705689 20.0962H104.073C104.25 20.0962 104.426 20.2725 104.602 20.4488C104.779 20.625 104.779 20.8013 104.602 21.1539L1.23487 228.109C1.05848 228.285 0.882084 228.462 0.705689 228.462Z" fill="#BC7A4E"/>
<path d="M0.705689 216.827C0.529294 216.827 0.529294 216.827 0.352899 216.827C0.00010886 216.651 -0.176286 216.298 0.000108868 215.945L94.7243 26.4422H0.705689C0.352899 26.4422 0.000108868 26.2659 0.000108868 25.9134C0.000108868 25.5608 0.352899 25.2083 0.705689 25.2083H95.7827C95.9591 25.2083 96.1355 25.3845 96.3118 25.5608C96.4882 25.7371 96.4882 25.9134 96.3118 26.2659L1.23487 216.298C1.05848 216.651 0.882085 216.827 0.705689 216.827Z" fill="#BC7A4E"/>
<path d="M0.705689 205.016C0.529294 205.016 0.529294 205.016 0.352899 205.016C0.000108853 204.84 -0.176286 204.487 0.00010886 204.135L86.2573 31.5545H0.705689C0.352899 31.5545 0.00010886 31.202 0.00010886 30.8494C0.00010886 30.4969 0.352899 30.1443 0.705689 30.1443H87.4921C87.6685 30.1443 87.8449 30.3206 88.0213 30.4968C88.1977 30.6731 88.1977 30.8494 88.0213 31.202L1.23487 204.664C1.05848 205.016 0.882084 205.016 0.705689 205.016Z" fill="#BC7A4E"/>
<path d="M0.705689 193.381C0.529294 193.381 0.529294 193.381 0.352899 193.381C0.00010886 193.205 -0.176286 192.853 0.000108868 192.5L77.9668 36.6666H0.705689C0.352899 36.6666 0.000108868 36.314 0.000108868 35.9615C0.000108868 35.6089 0.352899 35.2563 0.705689 35.2563H79.0251C79.2015 35.2563 79.3779 35.4326 79.5543 35.6089C79.7307 35.7852 79.7307 35.9615 79.5543 36.314L1.23487 193.205C1.05848 193.381 0.882085 193.381 0.705689 193.381Z" fill="#BC7A4E"/>
<path d="M0.705689 181.747C0.529294 181.747 0.529294 181.747 0.352899 181.747C0.000108853 181.571 -0.176286 181.218 0.00010886 180.865L69.4998 41.6026H0.705689C0.352899 41.6026 0.00010886 41.2501 0.00010886 40.8975C0.00010886 40.5449 0.352899 40.1924 0.705689 40.1924H70.7345C70.9109 40.1924 71.0873 40.3687 71.2637 40.5449C71.4401 40.7212 71.4401 40.8975 71.2637 41.2501L1.23487 181.394C1.05848 181.747 0.882084 181.747 0.705689 181.747Z" fill="#BC7A4E"/>
<path d="M0.705689 170.112C0.529294 170.112 0.529294 170.112 0.352899 170.112C0.000108868 169.936 -0.176286 169.583 0.000108875 169.231L61.2092 46.7147H0.705689C0.352899 46.7147 0.000108875 46.3621 0.000108875 46.0096C0.000108875 45.657 0.352899 45.3044 0.705689 45.3044H62.444C62.6204 45.3044 62.7968 45.4807 62.9732 45.657C63.1496 45.8333 63.1496 46.0096 62.9732 46.3621L1.23487 169.76C1.05848 169.936 0.882085 170.112 0.705689 170.112Z" fill="#BC7A4E"/>
<path d="M0.705689 158.478C0.529294 158.478 0.529294 158.478 0.352899 158.478C0.000108868 158.301 -0.176286 157.949 0.000108875 157.596L52.9187 51.827H0.705689C0.352899 51.6507 0.000108875 51.4744 0.000108875 51.1219C0.000108875 50.7693 0.352899 50.4167 0.705689 50.4167H54.1534C54.3298 50.4167 54.5062 50.593 54.6826 50.7693C54.859 50.9456 54.859 51.1219 54.6826 51.4744L1.23487 158.125C1.05848 158.301 0.882085 158.478 0.705689 158.478Z" fill="#BC7A4E"/>
<path d="M0.705689 146.843C0.529294 146.843 0.529294 146.843 0.352899 146.843C0.000108868 146.667 -0.176286 146.138 0.000108875 145.962L44.6281 56.7628H0.705689C0.352899 56.7628 0.000108875 56.4102 0.000108875 56.0577C0.000108875 55.7051 0.352899 55.3525 0.705689 55.3525H45.6865C45.8628 55.3525 46.0392 55.5288 46.2156 55.7051C46.392 55.8814 46.392 56.0577 46.2156 56.4102L1.23487 146.49C1.05848 146.667 0.882085 146.843 0.705689 146.843Z" fill="#BC7A4E"/>
<path d="M0.705689 135.208C0.529294 135.208 0.529294 135.208 0.352899 135.208C0.000108868 135.032 -0.176286 134.503 0.000108875 134.151L36.1611 61.6988H0.705689C0.352899 61.6988 0.000108875 61.3463 0.000108875 60.9937C0.000108875 60.6411 0.352899 60.2886 0.705689 60.2886H37.3959C37.5723 60.2886 37.7487 60.4649 37.9251 60.6411C38.1015 60.8174 38.1015 60.9937 37.9251 61.3463L1.23487 134.856C1.05848 135.032 0.882085 135.208 0.705689 135.208Z" fill="#BC7A4E"/>
<path d="M0.705689 123.574C0.529294 123.574 0.529294 123.574 0.352899 123.574C0.00010886 123.221 -0.176286 122.869 0.000108868 122.516L27.8705 66.8109H0.705689C0.352899 66.8109 0.000108868 66.4583 0.000108868 66.1058C0.000108868 65.7532 0.352899 65.4006 0.705689 65.4006H29.1053C29.2817 65.4006 29.4581 65.5769 29.6345 65.7532C29.8109 65.9295 29.8109 66.1058 29.6345 66.4583L1.23487 123.221C1.05848 123.397 0.882085 123.574 0.705689 123.574Z" fill="#BC7A4E"/>
<path d="M0.705689 111.939C0.529294 111.939 0.529294 111.939 0.352899 111.939C0.00010886 111.586 -0.176286 111.234 0.000108868 110.881L19.58 71.923H0.705689C0.352899 71.923 0.000108868 71.5704 0.000108868 71.2178C0.000108868 70.8653 0.352899 70.5127 0.705689 70.5127H20.6383C20.8147 70.5127 20.9911 70.689 21.1675 70.8653C21.3439 71.0415 21.3439 71.2178 21.1675 71.5704L1.23487 111.586C1.05848 111.763 0.882085 111.939 0.705689 111.939Z" fill="#BC7A4E"/>
<path d="M0.705706 100.305C0.529311 100.305 0.529311 100.305 0.352916 100.305C0.000125617 99.9519 -0.17627 99.5994 0.000125602 99.2468L11.113 76.859H0.529311C0.176521 76.859 -0.17627 76.5064 -0.17627 76.1539C-0.17627 75.8013 0.176521 75.4487 0.529311 75.4487H12.3478C12.5242 75.4487 12.7006 75.625 12.877 75.8013C13.0534 75.9776 13.0534 76.1539 12.877 76.5064L1.23489 99.9519C1.0585 100.128 0.882101 100.305 0.705706 100.305Z" fill="#BC7A4E"/>
<path d="M0.705689 88.6698C0.529294 88.6698 0.529294 88.6698 0.352899 88.6698C0.000108868 88.3172 -0.176286 87.9646 0.000108875 87.6121L2.82243 81.971H0.705689C0.352899 81.971 0.000108875 81.6185 0.000108875 81.2659C0.000108875 80.9134 0.352899 80.5608 0.705689 80.5608H4.0572C4.23359 80.5608 4.40999 80.7371 4.58638 80.9134C4.76278 81.0896 4.76278 81.2659 4.58638 81.6185L1.23487 88.1409C1.05848 88.4935 0.882085 88.6698 0.705689 88.6698Z" fill="#BC7A4E"/>
<path d="M274.294 275C274.118 275 273.765 274.824 273.765 274.647L136.883 0.88141C136.706 0.705128 136.706 0.352564 136.883 0.176282C137.059 0.176282 137.235 0 137.412 0H274.294C274.647 0 275 0.352564 275 0.705128C275 1.05769 274.647 1.41026 274.294 1.41026H138.47L274.824 274.119C275 274.471 274.824 274.824 274.471 275H274.294Z" fill="#BC7A4E"/>
<path d="M274.294 263.365C274.118 263.365 273.765 263.189 273.765 263.013L145.173 5.99348C144.997 5.8172 144.997 5.46464 145.173 5.28836C145.349 5.11207 145.526 4.93579 145.702 4.93579H274.118C274.471 4.93579 274.824 5.28836 274.824 5.64092C274.824 5.99348 274.471 6.34605 274.118 6.34605H146.937L275 262.308C275.176 262.66 275 263.013 274.647 263.189C274.471 263.365 274.294 263.365 274.294 263.365Z" fill="#BC7A4E"/>
<path d="M274.294 251.731C274.118 251.731 273.765 251.555 273.765 251.378L153.64 11.1058C153.464 10.7532 153.464 10.5769 153.64 10.4007C153.817 10.2244 153.993 10.0481 154.169 10.0481H274.294C274.647 10.0481 275 10.4007 275 10.7532C275 11.1058 274.647 11.4584 274.294 11.4584H155.228L274.824 250.849C275 251.202 274.824 251.555 274.471 251.731H274.294Z" fill="#BC7A4E"/>
<path d="M274.294 240.096C274.118 240.096 273.765 239.92 273.765 239.743L161.931 16.0416C161.754 15.8653 161.754 15.5127 161.931 15.3365C162.107 15.1602 162.283 14.9839 162.46 14.9839H274.294C274.647 14.9839 275 15.3365 275 15.689C275 16.0416 274.647 16.3941 274.294 16.3941H163.518L274.824 239.038C275 239.391 274.824 239.744 274.471 239.92C274.471 240.096 274.294 240.096 274.294 240.096Z" fill="#BC7A4E"/>
<path d="M274.294 228.462C274.118 228.462 273.765 228.285 273.765 228.109L170.221 21.1539C170.045 20.9776 170.045 20.625 170.221 20.4488C170.398 20.2725 170.574 20.0962 170.75 20.0962H274.118C274.471 20.0962 274.824 20.4488 274.824 20.8013C274.824 21.1539 274.471 21.5064 274.118 21.5064H171.809L274.824 227.404C275 227.756 274.824 228.109 274.471 228.285C274.471 228.462 274.294 228.462 274.294 228.462Z" fill="#BC7A4E"/>
<path d="M274.294 216.827C274.118 216.827 273.765 216.651 273.765 216.474L178.512 26.0897C178.335 25.9134 178.335 25.5608 178.512 25.3845C178.688 25.2083 178.864 25.032 179.041 25.032H274.118C274.471 25.032 274.823 25.3845 274.823 25.7371C274.823 26.0897 274.471 26.4422 274.118 26.4422H180.099L274.647 215.769C274.823 216.122 274.647 216.474 274.294 216.651C274.471 216.651 274.294 216.827 274.294 216.827Z" fill="#BC7A4E"/>
<path d="M274.294 205.016C274.118 205.016 273.765 204.84 273.765 204.664L186.979 31.202C186.802 31.0257 186.802 30.6731 186.979 30.4968C187.155 30.3206 187.332 30.1443 187.508 30.1443H274.294C274.647 30.1443 275 30.4969 275 30.8494C275 31.202 274.647 31.5545 274.294 31.5545H188.566L274.824 204.135C275 204.487 274.824 204.84 274.471 205.016H274.294Z" fill="#BC7A4E"/>
<path d="M274.294 193.381C274.118 193.381 273.765 193.205 273.765 193.029L195.446 36.1378C195.269 35.9615 195.269 35.6089 195.446 35.4326C195.622 35.2564 195.799 35.0801 195.975 35.0801H274.294C274.647 35.0801 275 35.4326 275 35.7852C275 36.1378 274.647 36.4903 274.294 36.4903H197.033L275 192.324C275.176 192.676 275 193.029 274.647 193.205C274.471 193.381 274.294 193.381 274.294 193.381Z" fill="#BC7A4E"/>
<path d="M274.294 181.747C274.118 181.747 273.765 181.571 273.765 181.394L203.736 41.2501C203.56 41.0738 203.56 40.7212 203.736 40.5449C203.913 40.3687 204.089 40.1924 204.265 40.1924H274.294C274.647 40.1924 275 40.5449 275 40.8975C275 41.2501 274.647 41.6026 274.294 41.6026H205.324L274.824 180.865C275 181.218 274.824 181.571 274.471 181.747H274.294Z" fill="#BC7A4E"/>
<path d="M274.294 170.112C274.118 170.112 273.765 169.936 273.765 169.76L212.027 46.3621C211.85 46.1859 211.85 45.8333 212.027 45.657C212.203 45.4807 212.38 45.3044 212.556 45.3044H274.294C274.647 45.3044 275 45.657 275 46.0096C275 46.3621 274.647 46.7147 274.294 46.7147H213.614L274.823 169.231C275 169.583 274.824 169.936 274.471 170.112H274.294Z" fill="#BC7A4E"/>
<path d="M274.294 158.478C274.118 158.478 273.765 158.301 273.765 158.125L220.317 51.2982C220.141 51.1219 220.141 50.7693 220.317 50.593C220.494 50.4168 220.67 50.2405 220.847 50.2405H274.294C274.647 50.2405 275 50.593 275 50.9456C275 51.2982 274.647 51.6507 274.294 51.6507H222.081L275 157.42C275.176 157.773 275 158.125 274.647 158.301C274.471 158.478 274.294 158.478 274.294 158.478Z" fill="#BC7A4E"/>
<path d="M274.294 146.843C274.118 146.843 273.765 146.667 273.765 146.49L228.608 56.4102C228.432 56.2339 228.432 55.8814 228.608 55.7051C228.785 55.5288 228.961 55.3525 229.137 55.3525H274.118C274.471 55.3525 274.824 55.7051 274.824 56.0577C274.824 56.4102 274.471 56.7628 274.118 56.7628H230.196L274.824 145.962C275 146.314 274.824 146.667 274.471 146.843H274.294Z" fill="#BC7A4E"/>
<path d="M274.294 135.208C274.118 135.208 273.765 135.032 273.765 134.856L237.075 61.5225C236.899 61.3463 236.899 60.9937 237.075 60.8174C237.251 60.6411 237.428 60.4648 237.604 60.4648H274.294C274.647 60.4648 275 60.8174 275 61.17C275 61.5225 274.647 61.8751 274.294 61.8751H238.662L274.823 134.327C275 134.68 274.824 135.032 274.471 135.208H274.294Z" fill="#BC7A4E"/>
<path d="M274.294 123.574C274.118 123.574 273.765 123.397 273.765 123.221L245.365 66.4583C245.189 66.282 245.189 65.9295 245.365 65.7532C245.542 65.5769 245.718 65.4006 245.895 65.4006H274.294C274.647 65.4006 275 65.7532 275 66.1058C275 66.4583 274.647 66.8109 274.294 66.8109H246.953L274.823 122.516C275 122.869 274.823 123.221 274.471 123.397C274.471 123.574 274.294 123.574 274.294 123.574Z" fill="#BC7A4E"/>
<path d="M274.294 111.939C274.118 111.939 273.765 111.763 273.765 111.586L253.832 71.5704C253.656 71.3941 253.656 71.0415 253.832 70.8653C254.009 70.689 254.185 70.5127 254.362 70.5127H274.294C274.647 70.5127 275 70.8653 275 71.2178C275 71.5704 274.647 71.923 274.294 71.923H255.42L275 110.881C275.176 111.234 275 111.586 274.647 111.763C274.471 111.939 274.294 111.939 274.294 111.939Z" fill="#BC7A4E"/>
<path d="M274.294 100.304C274.118 100.304 273.765 100.128 273.765 99.9519L262.123 76.6827C261.947 76.5064 261.947 76.1538 262.123 75.9776C262.299 75.8013 262.476 75.625 262.652 75.625H274.294C274.647 75.625 275 75.9776 275 76.3301C275 76.6827 274.647 77.0353 274.294 77.0353H263.711L274.823 99.4231C275 99.7756 274.823 100.128 274.471 100.304C274.471 100.128 274.294 100.304 274.294 100.304Z" fill="#BC7A4E"/>
<path d="M274.294 88.6698C274.118 88.6698 273.765 88.4935 273.765 88.3172L270.414 81.7948C270.237 81.6185 270.237 81.2659 270.414 81.0896C270.59 80.9133 270.766 80.7371 270.943 80.7371H274.294C274.647 80.7371 275 81.0896 275 81.4422C275 81.7948 274.647 82.1473 274.294 82.1473H272.001L274.823 87.7883C275 88.1409 274.823 88.4935 274.471 88.6698C274.471 88.4935 274.294 88.6698 274.294 88.6698Z" fill="#BC7A4E"/>
<path d="M137.412 96.0738C127.534 96.0738 119.596 88.1411 119.596 78.2693C119.596 68.3975 127.534 60.4648 137.412 60.4648C147.29 60.4648 155.228 68.3975 155.228 78.2693C155.228 88.1411 147.29 96.0738 137.412 96.0738ZM137.412 61.8751C128.239 61.8751 121.007 69.279 121.007 78.2693C121.007 87.436 128.416 94.6636 137.412 94.6636C146.584 94.6636 153.817 87.2597 153.817 78.2693C153.993 69.1027 146.584 61.8751 137.412 61.8751Z" fill="#BC7A4E"/>
<path d="M137.412 142.612C129.298 142.612 122.595 135.913 122.595 127.805C122.595 119.696 129.298 112.997 137.412 112.997C145.526 112.997 152.229 119.696 152.229 127.805C152.406 135.913 145.702 142.612 137.412 142.612ZM137.412 114.231C130.003 114.231 123.829 120.224 123.829 127.805C123.829 135.208 129.827 141.378 137.412 141.378C144.821 141.378 150.994 135.385 150.994 127.805C150.994 120.224 144.997 114.231 137.412 114.231Z" fill="#BC7A4E"/>
<path d="M137.412 183.333C130.885 183.333 125.417 178.045 125.417 171.346C125.417 164.824 130.709 159.359 137.412 159.359C143.938 159.359 149.407 164.648 149.407 171.346C149.407 177.869 144.115 183.333 137.412 183.333ZM137.412 160.769C131.591 160.769 126.828 165.529 126.828 171.346C126.828 177.164 131.591 181.923 137.412 181.923C143.233 181.923 147.996 177.164 147.996 171.346C147.996 165.529 143.233 160.769 137.412 160.769Z" fill="#BC7A4E"/>
<path d="M137.412 218.061C132.473 218.061 128.416 214.007 128.416 209.071C128.416 204.135 132.473 200.08 137.412 200.08C142.351 200.08 146.408 204.135 146.408 209.071C146.408 214.007 142.351 218.061 137.412 218.061ZM137.412 201.491C133.178 201.491 129.827 204.84 129.827 209.071C129.827 213.301 133.178 216.651 137.412 216.651C141.645 216.651 144.997 213.301 144.997 209.071C145.173 204.84 141.645 201.491 137.412 201.491Z" fill="#BC7A4E"/>
<path d="M142.879 240.978C142.879 243.975 140.41 246.266 137.588 246.266C134.589 246.266 132.296 243.798 132.296 240.978C132.296 237.981 134.765 235.689 137.588 235.689C140.41 235.513 142.879 237.981 142.879 240.978Z" fill="#BC7A4E"/>
<path d="M137.412 246.971C134.06 246.971 131.414 244.327 131.414 240.978C131.414 237.628 134.06 234.984 137.412 234.984C140.763 234.984 143.409 237.628 143.409 240.978C143.586 244.151 140.763 246.971 137.412 246.971ZM137.412 236.218C134.766 236.218 132.649 238.333 132.649 240.978C132.649 243.622 134.766 245.737 137.412 245.737C140.058 245.737 142.174 243.622 142.174 240.978C142.174 238.333 140.058 236.218 137.412 236.218Z" fill="#BC7A4E"/>
</g>
<defs>
<clipPath id="clip0">
<rect width="275" height="275" fill="white"/>
</clipPath>
</defs>
</svg>
