<svg width="36" height="36" viewBox="0 0 36 36" fill="none" xmlns="http://www.w3.org/2000/svg">
<path d="M31.5267 0C29.4709 0 27.6818 1.42496 27.1885 3.3817H17.0827C16.3394 3.3817 15.6405 3.67118 15.1149 4.19676L0.649457 18.6622C-0.215835 19.5275 -0.215835 20.9355 0.649457 21.8007L14.1997 35.351C14.6324 35.7836 15.2007 35.9999 15.769 35.9999C16.3372 35.9999 16.9056 35.7836 17.3382 35.351L31.8037 20.8855C32.3293 20.3599 32.6188 19.661 32.6188 18.9177V9.74915C33.0534 9.52568 33.4644 9.26599 33.8396 8.96699C35.2532 7.84068 36.0005 6.28686 36.0005 4.4737C36.0005 2.0069 33.9936 0 31.5267 0ZM31.562 18.9178C31.562 19.3788 31.3825 19.8122 31.0564 20.1383L16.5909 34.6038C16.1376 35.0571 15.4002 35.0571 14.9469 34.6038L1.39667 21.0535C0.943453 20.6002 0.943453 19.8628 1.39667 19.4095L15.8622 4.94404C16.1882 4.61799 16.6216 4.43848 17.0827 4.43848H30.3995C31.0405 4.43848 31.562 4.95996 31.562 5.60094V9.07239C30.6402 9.45199 29.6249 9.6706 28.6493 9.74901C28.4717 8.38457 27.3027 7.32701 25.8906 7.32701C24.3561 7.32701 23.1077 8.57542 23.1077 10.1099C23.1077 11.6443 24.3561 12.8927 25.8906 12.8927C27.181 12.8927 28.2688 12.0098 28.5823 10.8164C29.5709 10.7508 30.5984 10.5542 31.562 10.2072V18.9178ZM25.7725 10.6249C26.2838 10.7421 26.8544 10.813 27.4567 10.8342C27.1824 11.4251 26.5837 11.836 25.8905 11.836C24.9388 11.836 24.1644 11.0617 24.1644 10.1099C24.1644 9.1582 24.9388 8.38386 25.8905 8.38386C26.7292 8.38386 27.4297 8.98517 27.5845 9.77916C27.0151 9.76543 26.4792 9.70272 26.0086 9.59486C25.7243 9.52955 25.4407 9.70737 25.3755 9.99186C25.3103 10.2763 25.4881 10.5597 25.7725 10.6249ZM33.181 8.14052C33.0033 8.28213 32.815 8.41352 32.6188 8.53561V5.60094C32.6188 4.37725 31.6232 3.3817 30.3995 3.3817H28.2885C28.7494 2.02148 30.0479 1.05678 31.5267 1.05678C33.4108 1.05678 34.9437 2.58961 34.9437 4.4737C34.9437 5.9749 34.3506 7.20858 33.181 8.14052Z" fill="white"/>
</svg>
