<svg width="43" height="43" viewBox="0 0 43 43" fill="none" xmlns="http://www.w3.org/2000/svg">
<path fill-rule="evenodd" clip-rule="evenodd" d="M21.1332 42.1762C21.1332 42.2522 21.2092 42.2522 21.2853 42.2522H21.4375C21.5136 42.1762 21.5897 42.1 21.5136 41.9478C21.5136 41.9478 21.057 40.7305 21.3614 39.5131C21.5136 39.0565 21.7419 38.6761 21.9701 38.2957C22.3505 37.687 22.6549 37.1544 22.7309 36.2414C22.8071 35.6326 22.5027 35.1001 22.2745 34.7195C22.2513 34.6732 22.2281 34.6276 22.2052 34.5826C22.003 34.185 21.8256 33.8363 21.8941 33.4261C22.0224 32.7206 22.3128 32.2314 22.5831 31.7761C22.6335 31.6913 22.6831 31.6076 22.7309 31.524C22.7868 31.4122 22.8472 31.3005 22.9089 31.1866C23.0991 30.8349 23.3008 30.462 23.4157 30.0022C23.5679 29.4695 23.5679 29.0131 23.5679 28.6327C24.1708 29.6123 24.1019 30.3682 24.0266 31.1957L24.0244 31.2196C23.9484 31.8282 23.9484 32.437 24.1006 33.1218C24.3822 34.1777 24.9893 34.5172 25.5003 34.8031C25.5417 34.8262 25.5824 34.849 25.6222 34.8717C25.6659 34.8979 25.7085 34.9231 25.75 34.9477C26.0705 35.137 26.3245 35.2871 26.4592 35.5565C26.6409 35.92 26.6298 36.2351 26.6177 36.5787C26.6146 36.6669 26.6114 36.7569 26.6114 36.85C26.5353 37.3066 26.5353 37.8392 26.7636 38.5239C27.2963 40.1217 29.1223 40.5783 29.1984 40.5783C29.3506 40.5783 29.4266 40.5783 29.6549 40.4261C29.731 40.3501 29.731 40.1979 29.6549 40.1217C29.6549 40.1217 28.7419 39.1327 28.5897 37.9152C28.5136 37.4592 28.5896 37.0029 28.6656 36.5468L28.6657 36.5458C28.6762 36.4515 28.6881 36.3573 28.7001 36.2626C28.7751 35.6696 28.8521 35.0609 28.5897 34.3391C28.4526 33.7907 28.0683 33.4893 27.7152 33.2124C27.6765 33.182 27.6381 33.1519 27.6005 33.1218C27.2201 32.8174 26.8397 32.513 26.7636 32.0566C26.5707 31.3496 26.6494 30.8055 26.7244 30.2867C26.7381 30.1913 26.7518 30.0967 26.7636 30.0022C26.7784 29.899 26.7959 29.7959 26.8136 29.6923C26.8872 29.2605 26.9624 28.8192 26.8397 28.3283C26.7637 27.8721 26.6116 27.4918 26.4595 27.1114C27.3725 27.7962 27.6005 28.4805 27.8289 29.2413C27.8382 29.2741 27.8476 29.3072 27.857 29.3405C28.0008 29.8486 28.1612 30.4154 28.5897 30.9152C29.2595 31.8084 30.0024 31.9007 30.6042 31.9755C30.6175 31.9771 30.6308 31.9788 30.644 31.9804C31.0244 31.9804 31.3288 32.0566 31.6332 32.2848C32.0136 32.6652 32.1657 32.9696 32.3179 33.4261C32.4701 33.8827 32.6983 34.4153 33.1549 34.9479C34.2244 36.0887 35.8954 35.9599 36.1639 35.9393C36.1819 35.9379 36.1936 35.937 36.1984 35.937C36.2744 35.937 36.4266 35.8609 36.4266 35.7087C36.4266 35.5565 36.4266 35.4805 36.2744 35.4044C36.1984 35.4044 35.057 34.8717 34.4484 33.8065C34.2201 33.3501 34.0679 32.9696 33.9919 32.513C33.9858 32.4888 33.9798 32.4644 33.9737 32.4399C33.8269 31.8498 33.6633 31.1923 33.0789 30.5348C32.7698 30.164 32.3603 30.0442 31.9729 29.9307C31.8833 29.9045 31.7949 29.8786 31.7092 29.8501C31.2527 29.7739 30.8722 29.6217 30.568 29.2413C30.1114 28.5565 29.9592 27.9479 29.807 27.3392C29.7766 27.2329 29.7493 27.1266 29.722 27.0202C29.6124 26.5939 29.5028 26.1677 29.1984 25.7414C29.1593 25.6828 29.1216 25.6256 29.0848 25.5697C28.8342 25.1898 28.6267 24.8751 28.3613 24.6761C29.4229 24.8884 29.892 25.4298 30.3809 25.9942C30.4177 26.0367 30.4546 26.0792 30.4918 26.1218C30.8721 26.578 31.2529 27.035 31.8614 27.4152C32.805 27.9544 33.45 27.7772 34.0081 27.624C34.0801 27.6042 34.1506 27.5848 34.2201 27.5674C34.3069 27.5501 34.3897 27.5288 34.4704 27.508C34.7434 27.4378 34.9917 27.3739 35.2854 27.4914C35.7286 27.6814 35.9611 27.924 36.2021 28.1755C36.2506 28.2262 36.2995 28.2772 36.3506 28.3283C36.4653 28.4201 36.5731 28.5257 36.6865 28.6368C36.9492 28.8942 37.2418 29.1809 37.7201 29.3935C39.2419 30.1544 40.8396 29.2413 40.9158 29.1653C41.068 29.0891 41.068 29.0131 41.068 28.8609C40.9918 28.7087 40.9158 28.6327 40.7636 28.6327C40.7636 28.6327 39.4701 28.5565 38.4809 27.7957C38.1359 27.5197 37.9161 27.2437 37.6511 26.9109C37.6239 26.8767 37.5962 26.842 37.5679 26.8066C37.1875 26.274 36.731 25.7414 35.97 25.3609C35.3614 25.0565 34.8288 25.1326 34.3723 25.2087C33.9157 25.2848 33.5353 25.2848 33.0789 25.0565C32.3941 24.6001 32.0136 24.1435 31.6332 23.6109C31.5814 23.5461 31.5295 23.4791 31.4766 23.4107C31.2185 23.0772 30.9337 22.7091 30.4918 22.3935C30.1114 22.0892 29.731 21.937 29.3506 21.7848C30.4158 21.6326 31.1006 21.937 31.7853 22.3174C31.8937 22.3639 32.0021 22.4135 32.1118 22.4637C32.541 22.6601 32.9899 22.8655 33.5353 22.9261C34.6518 23.075 35.2587 22.5685 35.7119 22.1902C35.7219 22.1818 35.7319 22.1735 35.7418 22.1652C35.7863 22.1319 35.8291 22.0986 35.871 22.066C36.1161 21.8752 36.33 21.7088 36.6549 21.7088C37.1875 21.7088 37.5679 21.8608 37.9483 22.0892C38.4048 22.3174 38.8615 22.5457 39.6223 22.6218C41.2391 22.6921 42.2714 21.4634 42.4792 21.216C42.4963 21.1957 42.5078 21.182 42.5136 21.1762C42.5897 21.1 42.5897 20.9478 42.5136 20.8718C42.4376 20.7959 42.3612 20.7197 42.2092 20.7958C42.2092 20.7958 40.9918 21.2522 39.7744 20.9478C39.3179 20.8718 38.9375 20.6436 38.5571 20.4152C37.9483 20.0348 37.4157 19.7305 36.5027 19.6544C35.894 19.5783 35.3614 19.8826 34.981 20.1109C34.9346 20.1341 34.8891 20.1573 34.8442 20.1801C34.4464 20.3824 34.0976 20.5597 33.6875 20.4914C32.9817 20.363 32.4923 20.0724 32.0369 19.8019C31.9522 19.7516 31.8688 19.7021 31.7853 19.6544C31.6734 19.5984 31.5616 19.5379 31.4475 19.4762C31.0959 19.2861 30.7231 19.0844 30.2636 18.9695C29.731 18.8175 29.2744 18.8175 28.894 18.8175C29.8734 18.2147 30.6289 18.2834 31.4561 18.3586L31.481 18.3609C32.0897 18.4371 32.6983 18.4371 33.3831 18.2849C34.4388 18.0033 34.7784 17.3963 35.0643 16.8853C35.0875 16.8438 35.1103 16.803 35.1332 16.763C35.1592 16.7197 35.1842 16.6774 35.2085 16.6361C35.398 16.3153 35.5483 16.0609 35.818 15.9262C36.1812 15.7445 36.4963 15.7556 36.8399 15.7677C36.9281 15.7708 37.0182 15.774 37.1114 15.774C37.5679 15.85 38.1005 15.85 38.7853 15.6218C40.3832 15.0892 40.8396 13.2631 40.8396 13.187C40.8396 13.1109 40.7636 12.9587 40.6876 12.8826C40.6114 12.8066 40.4592 12.8066 40.3832 12.8826C40.3832 12.8826 39.394 13.7957 38.1767 13.9479C37.7202 14.0239 37.2638 13.9479 36.8073 13.8718C36.7128 13.8613 36.6182 13.8493 36.5233 13.8374C35.9305 13.7624 35.3221 13.6855 34.6006 13.9479C34.0522 14.085 33.7508 14.4691 33.4739 14.822C33.4434 14.8609 33.4133 14.8993 33.3831 14.937C33.0788 15.3173 32.7743 15.6978 32.3179 15.774C31.6112 15.9667 31.0672 15.8882 30.5485 15.8133C30.453 15.7995 30.3583 15.7858 30.2636 15.774C30.1607 15.7593 30.0579 15.7417 29.9545 15.7241C29.5224 15.6504 29.0808 15.5751 28.5897 15.6978C28.1337 15.7739 27.7537 15.9258 27.3738 16.0776L27.3723 16.0782C28.0571 15.1652 28.7419 14.937 29.5028 14.7087C29.5358 14.6993 29.5692 14.6899 29.6028 14.6803C30.1106 14.5365 30.6771 14.376 31.1766 13.9479C32.0695 13.2782 32.1619 12.5357 32.2368 11.934C32.2385 11.9204 32.2402 11.9069 32.2419 11.8935C32.2419 11.5131 32.3179 11.2087 32.5463 10.9044C32.9267 10.5239 33.2309 10.3718 33.6875 10.2196C34.144 10.0674 34.6766 9.83916 35.2092 9.38265C36.3502 8.31303 36.2214 6.64195 36.2007 6.37361C36.1993 6.35563 36.1984 6.34395 36.1984 6.33917C36.1984 6.26308 36.1222 6.1109 35.97 6.1109C35.818 6.1109 35.7418 6.1109 35.6658 6.26308C35.6658 6.33917 35.1332 7.48047 34.0679 8.08916C33.6113 8.31743 33.2309 8.46959 32.7745 8.54569C32.7503 8.55173 32.726 8.55777 32.7016 8.56384C32.1113 8.71066 31.4538 8.87419 30.7962 9.45873C30.3512 9.77658 30.2249 10.2007 30.1067 10.5978C30.0834 10.676 30.0604 10.7532 30.0354 10.8283C29.9592 11.2848 29.807 11.6653 29.4266 11.9696C28.742 12.426 28.1333 12.5782 27.5248 12.7304C27.4183 12.7608 27.3114 12.7883 27.2049 12.8157C26.7788 12.9252 26.3527 13.0348 25.9266 13.3392C25.8682 13.3781 25.8111 13.4157 25.7554 13.4525C25.3752 13.7031 25.0604 13.9107 24.8614 14.1761C25.0737 13.1146 25.6152 12.6454 26.1796 12.1565C26.222 12.1197 26.2645 12.0829 26.307 12.0457C26.7636 11.6653 27.2201 11.2848 27.6005 10.6761C28.1397 9.73263 27.9625 9.0876 27.8093 8.52954C27.7895 8.45754 27.7701 8.38699 27.7527 8.31743C27.7354 8.23064 27.7141 8.14782 27.6933 8.06714C27.6231 7.79418 27.5592 7.54586 27.6767 7.25221C27.8665 6.80911 28.1091 6.57665 28.3605 6.33579C28.4113 6.28713 28.4624 6.23813 28.5135 6.18699C28.6053 6.07225 28.711 5.96444 28.8221 5.85103C29.0794 5.58838 29.3662 5.2957 29.5788 4.81743C30.3396 3.29569 29.4266 1.69786 29.3506 1.62177C29.2744 1.4696 29.1984 1.4696 29.0462 1.4696C28.894 1.54569 28.8179 1.62177 28.8179 1.77395C28.8179 1.77395 28.7419 3.06743 27.9809 4.05656C27.7049 4.40173 27.4287 4.62162 27.0958 4.88673C27.0617 4.91382 27.0271 4.94138 26.9919 4.9696C26.4592 5.35003 25.9266 5.80655 25.5462 6.56742C25.2418 7.17612 25.318 7.70872 25.394 8.16526C25.47 8.62178 25.47 9.00221 25.2418 9.45873C24.7854 10.1435 24.3288 10.5239 23.7962 10.9044C23.7314 10.9562 23.6645 11.0079 23.5962 11.0608C23.2626 11.3189 22.8946 11.6037 22.5787 12.0457C22.2745 12.4261 22.1223 12.8066 21.9701 13.187C21.8179 12.1218 22.1223 11.437 22.5027 10.7522C22.5492 10.6438 22.5988 10.5354 22.649 10.4256C22.8454 9.99644 23.0508 9.54759 23.1113 9.00221C23.2602 7.88582 22.7539 7.27903 22.3756 6.8258C22.3672 6.81569 22.3588 6.80565 22.3505 6.79569C22.3172 6.75128 22.2839 6.70849 22.2513 6.66661C22.0605 6.42149 21.8941 6.20757 21.8941 5.88265C21.8941 5.35003 22.0463 4.9696 22.2745 4.58916C22.5027 4.13265 22.7309 3.67613 22.8071 2.91526C22.8772 1.37154 21.6531 0.345508 21.4027 0.135561C21.3816 0.117854 21.3674 0.105952 21.3614 0.100034C21.2853 0.023947 21.1332 0.023947 21.057 0.100034C20.9811 0.176074 20.9049 0.252302 20.981 0.404382C20.981 0.404382 21.4375 1.62177 21.1332 2.83916C20.9812 3.29516 20.7532 3.67523 20.5252 4.05522L20.5244 4.05656C20.144 4.66525 19.8396 5.19786 19.7636 6.1109C19.6876 6.7196 19.9918 7.25221 20.22 7.63264C20.2431 7.67879 20.2662 7.72415 20.289 7.7689C20.4914 8.16685 20.6689 8.51574 20.6006 8.92613C20.4723 9.63187 20.1817 10.1212 19.9112 10.5766C19.8609 10.6613 19.8113 10.7448 19.7636 10.8283C19.7076 10.9402 19.6471 11.0522 19.5854 11.1663C19.3953 11.5178 19.1937 11.8906 19.0788 12.35C18.9266 12.8826 18.9266 13.3392 18.9266 13.7196C18.3237 12.7399 18.3926 11.9841 18.468 11.1565L18.4701 11.1326C18.5462 10.5239 18.5462 9.91525 18.394 9.23046C18.1125 8.17479 17.5055 7.8352 16.9945 7.54933C16.9531 7.52614 16.9122 7.50331 16.8723 7.48047C16.8289 7.45442 16.7864 7.42936 16.7451 7.40494C16.4244 7.21549 16.1701 7.0653 16.0353 6.79569C15.8537 6.43245 15.8648 6.11737 15.8769 5.77382C15.88 5.68559 15.8832 5.59549 15.8832 5.50221C15.9592 5.04568 15.9592 4.51308 15.731 3.82829C15.1984 2.23047 13.3723 1.77395 13.2962 1.77395C13.2201 1.77395 13.0679 1.85004 12.9918 1.92612C12.9158 2.00221 12.9158 2.15439 12.9918 2.23047C12.9918 2.23047 13.9049 3.21959 14.0571 4.437C14.1331 4.89351 14.0571 5.35003 13.981 5.80655C13.9705 5.90098 13.9585 5.99541 13.9466 6.09024C13.8716 6.68309 13.7947 7.29153 14.0571 8.01307C14.1942 8.56149 14.5783 8.86285 14.9313 9.13974C14.9701 9.17018 15.0085 9.20032 15.0462 9.23046C15.4266 9.53481 15.8071 9.83916 15.8832 10.2957C16.0759 11.0024 15.9974 11.5464 15.9225 12.065C15.9087 12.1606 15.8951 12.2553 15.8832 12.35C15.8685 12.453 15.8509 12.5559 15.8333 12.6594C15.7596 13.0913 15.6843 13.5329 15.8071 14.0239C15.8832 14.4805 16.0353 14.8609 16.1875 15.2414C15.2744 14.5565 15.0462 13.8718 14.818 13.1109C14.8085 13.0779 14.7991 13.0446 14.7896 13.011C14.6457 12.5031 14.4853 11.9366 14.0571 11.437C13.3873 10.5439 12.6447 10.4516 12.0429 10.3768C12.0294 10.3751 12.016 10.3734 12.0027 10.3718C11.6223 10.3718 11.3179 10.2957 11.0136 10.0674C10.6332 9.687 10.481 9.38265 10.3288 8.92613C10.1766 8.46959 9.94837 7.93699 9.49185 7.40439C8.42224 6.26346 6.75118 6.39228 6.48282 6.41297C6.46483 6.41435 6.45315 6.41525 6.44837 6.41525C6.37229 6.41525 6.2201 6.49134 6.2201 6.64352C6.14402 6.79569 6.2201 6.87177 6.37229 6.94785C6.37229 6.94785 7.51359 7.48047 8.12228 8.24134C8.35054 8.69786 8.50271 9.07829 8.57881 9.53481C8.58487 9.55904 8.59092 9.58339 8.59701 9.60786C8.74381 10.198 8.90738 10.8556 9.49185 11.5131C9.80973 11.9581 10.2339 12.0844 10.6311 12.2027C10.7092 12.226 10.7864 12.2489 10.8614 12.274C11.3179 12.35 11.6984 12.5022 12.0027 12.8826C12.4592 13.5674 12.6114 14.176 12.7635 14.7846C12.794 14.8911 12.8214 14.9978 12.8488 15.1043C12.9584 15.5304 13.0679 15.9565 13.3723 16.3826C13.4112 16.441 13.4489 16.4981 13.4856 16.5539C13.7362 16.934 13.9438 17.2488 14.2092 17.4479C13.1477 17.2356 12.6785 16.6941 12.1896 16.1296C12.1528 16.0872 12.116 16.0447 12.0788 16.0022C11.6985 15.5459 11.3177 15.089 10.7092 14.7087C9.76575 14.1696 9.12072 14.3467 8.56266 14.5C8.49066 14.5198 8.4201 14.5392 8.35054 14.5565C8.26376 14.5739 8.18094 14.5952 8.10027 14.6159C7.82729 14.6862 7.57897 14.7501 7.28532 14.6326C6.84211 14.4427 6.60965 14.2 6.36872 13.9486C6.32012 13.8979 6.27118 13.8468 6.2201 13.7957C6.10535 13.7039 5.99752 13.5982 5.88408 13.4871C5.62145 13.2298 5.32877 12.943 4.85055 12.7305C3.32881 11.9696 1.73097 12.8826 1.65489 12.9587C1.50272 13.0348 1.50272 13.1109 1.50272 13.2631C1.5788 13.4153 1.65489 13.4913 1.80707 13.4913C1.80707 13.4913 3.10054 13.5674 4.08968 14.3283C4.43484 14.6044 4.65473 14.8805 4.91984 15.2135C4.94693 15.2475 4.9745 15.2821 5.00272 15.3174C5.38315 15.85 5.83967 16.3826 6.60054 16.763C7.20924 17.0674 7.74184 16.9914 8.19837 16.9152C8.65489 16.8392 9.03533 16.8392 9.49185 17.0674C10.1766 17.5239 10.5571 17.9805 10.9375 18.5131C10.9893 18.5779 11.0411 18.6448 11.0941 18.7133C11.3521 19.0468 11.6369 19.4149 12.0788 19.7305C12.4592 20.0348 12.8397 20.187 13.2201 20.3392C12.1549 20.4914 11.4701 20.187 10.7853 19.8065C10.6769 19.7601 10.5685 19.7105 10.4588 19.6603C10.0296 19.4639 9.58072 19.2585 9.03533 19.1979C7.91893 19.049 7.31215 19.5554 6.85892 19.9336C6.8488 19.9421 6.83877 19.9504 6.8288 19.9587C6.78439 19.992 6.74161 20.0253 6.69973 20.0579C6.4546 20.2487 6.24069 20.4152 5.91577 20.4152C5.38315 20.4152 5.00272 20.2631 4.62228 20.0348C4.16576 19.8065 3.70924 19.5783 2.94837 19.5022C1.33118 19.4319 0.298777 20.6611 0.0913458 20.9081C0.0743107 20.9284 0.0628395 20.942 0.0570652 20.9478C-0.0190217 21.024 -0.0190217 21.1762 0.0570652 21.2522C0.133105 21.3282 0.209333 21.4044 0.361413 21.3282C0.361413 21.3282 1.5788 20.8718 2.79619 21.1762C3.25271 21.2522 3.63315 21.4804 4.01358 21.7088C4.62228 22.0892 5.15488 22.3935 6.06793 22.4696C6.67664 22.5457 7.20924 22.2414 7.58967 22.013C7.66228 21.9767 7.73104 21.9404 7.79748 21.9054C8.14878 21.7199 8.43525 21.5687 8.88315 21.6326C9.58891 21.761 10.0783 22.0516 10.5337 22.3221C10.6183 22.3723 10.7018 22.4219 10.7853 22.4696C10.8973 22.5256 11.0092 22.5861 11.1234 22.6479C11.4749 22.838 11.8476 23.0396 12.3071 23.1544C12.8397 23.3065 13.2962 23.3065 13.6766 23.3065C12.6973 23.9093 11.9417 23.8406 11.1145 23.7654L11.0897 23.7631C10.481 23.6871 9.87228 23.6871 9.1875 23.8391C8.1318 24.1207 7.79221 24.7277 7.50634 25.2387C7.48316 25.2802 7.46033 25.321 7.43751 25.3609C7.41146 25.4043 7.38641 25.4468 7.362 25.4881C7.17253 25.8088 7.02234 26.0631 6.75272 26.1978C6.38944 26.3795 6.07435 26.3684 5.73074 26.3563C5.64255 26.3532 5.55248 26.35 5.45923 26.35C5.00272 26.274 4.47011 26.274 3.78533 26.5022C2.18751 27.0348 1.73097 28.8609 1.73097 28.9371C1.73097 29.0131 1.80707 29.1653 1.88316 29.2413C1.95924 29.3175 2.11141 29.3175 2.18751 29.2413C2.18751 29.2413 3.17663 28.3283 4.39401 28.1761C4.85055 28.1001 5.30707 28.1761 5.76358 28.2523C5.85808 28.2627 5.95257 28.2747 6.04747 28.2867C6.64026 28.3616 7.24865 28.4385 7.97011 28.1761C8.51856 28.0389 8.81992 27.6548 9.09683 27.3018C9.12725 27.2631 9.15737 27.2247 9.1875 27.187C9.49185 26.8066 9.7962 26.4262 10.2527 26.35C10.9594 26.1573 11.5034 26.2358 12.0221 26.3107C12.1176 26.3245 12.2124 26.3382 12.3071 26.35C12.4099 26.3647 12.5128 26.3823 12.6162 26.3999C13.0482 26.4736 13.4898 26.5489 13.981 26.4262C14.437 26.3501 14.8172 26.1981 15.1972 26.0462L15.1984 26.0458C14.5136 26.9588 13.8288 27.187 13.0679 27.4152C13.0349 27.4247 13.0016 27.4341 12.968 27.4436C12.4601 27.5875 11.8936 27.7479 11.394 28.1761C10.5009 28.8459 10.4086 29.5885 10.3338 30.1904C10.3321 30.2038 10.3305 30.2172 10.3288 30.2305C10.3288 30.6109 10.2527 30.9152 10.0244 31.2196C9.64401 31.6 9.33968 31.7522 8.88315 31.9044C8.42663 32.0566 7.89402 32.2848 7.36141 32.7414C6.22047 33.811 6.34932 35.4821 6.37 35.7503C6.37139 35.7683 6.37229 35.78 6.37229 35.7848C6.37229 35.8609 6.44837 36.0131 6.60054 36.0131C6.75272 36.0131 6.8288 36.0131 6.90489 35.8609C6.90489 35.7848 7.43751 34.6435 8.50271 34.0349C8.95924 33.8065 9.33968 33.6544 9.7962 33.5783C9.82043 33.5722 9.84478 33.5662 9.86924 33.5601C10.4594 33.4132 11.1169 33.2497 11.7745 32.6652C12.2195 32.3474 12.3458 31.9233 12.4641 31.5261C12.4873 31.4479 12.5103 31.3708 12.5353 31.2958C12.6114 30.8392 12.7636 30.4587 13.144 30.1544C13.8288 29.6979 14.4375 29.5457 15.0462 29.3935C15.1528 29.363 15.2594 29.3356 15.366 29.3082C15.792 29.1987 16.218 29.0891 16.6441 28.7849C16.7027 28.7457 16.7601 28.7079 16.8161 28.6709C17.1958 28.4205 17.5103 28.2131 17.7093 27.9479C17.4969 29.0095 16.9553 29.4787 16.3908 29.9677C16.3485 30.0044 16.3061 30.0412 16.2636 30.0783C15.8071 30.4587 15.3506 30.8392 14.97 31.4478C14.431 32.3913 14.6082 33.0364 14.7614 33.5944C14.7812 33.6664 14.8006 33.737 14.818 33.8065C14.8353 33.8933 14.8567 33.9762 14.8774 34.0569C14.9476 34.3299 15.0115 34.5781 14.894 34.8717C14.704 35.3151 14.4613 35.5477 14.2097 35.7887C14.159 35.8372 14.108 35.886 14.0571 35.937C13.9653 36.0517 13.8596 36.1595 13.7485 36.2729C13.4912 36.5356 13.2044 36.8283 12.9918 37.3066C12.231 38.8283 13.144 40.4261 13.2201 40.5022C13.2962 40.6544 13.3723 40.6544 13.5245 40.6544C13.6766 40.6544 13.7527 40.5783 13.7527 40.4261C13.7527 40.4261 13.8288 39.1327 14.5896 38.1435C14.8657 37.7985 15.1417 37.5787 15.4745 37.3137C15.5086 37.2865 15.5434 37.2588 15.5788 37.2304C16.1114 36.85 16.6441 36.3936 17.0245 35.6326C17.3287 35.0239 17.2527 34.4913 17.1767 34.0349C17.1005 33.5783 17.1005 33.1979 17.3287 32.7414C17.7853 32.0566 18.2419 31.6762 18.7744 31.2958C18.839 31.2441 18.9058 31.1924 18.9741 31.1396C19.3078 30.8814 19.676 30.5965 19.9918 30.1544C20.2962 29.7739 20.4484 29.3935 20.6006 29.0131C20.7527 30.0783 20.4484 30.7631 20.068 31.4478C20.0216 31.556 19.9721 31.6642 19.922 31.7736C19.7254 32.2031 19.5199 32.6521 19.4592 33.1979C19.3103 34.3144 19.8168 34.9212 20.1951 35.3744C20.2035 35.3845 20.2118 35.3944 20.22 35.4044C20.2533 35.4487 20.2866 35.4915 20.3192 35.5333C20.5101 35.7785 20.6766 35.9924 20.6766 36.3174C20.6766 36.85 20.5244 37.2304 20.2962 37.6108L20.2957 37.6118C20.0677 38.0681 19.8396 38.5244 19.7636 39.2849C19.6227 40.9047 20.851 41.9379 21.0948 42.1429C21.1143 42.1594 21.1276 42.1705 21.1332 42.1762ZM19.9221 28.3883C19.3078 28.2782 18.7203 28.0908 18.1701 27.8364C17.9346 29.386 17.1964 30.0552 16.4922 30.6937C16.4666 30.7169 16.4411 30.74 16.4157 30.7631C16.3964 30.7792 16.3772 30.7952 16.3581 30.8111C15.9272 31.1697 15.5659 31.4704 15.2744 31.9804C14.818 32.7414 14.97 33.2739 15.1984 33.8827C15.3506 34.3391 15.5027 34.7957 15.2744 35.3283C15.0462 35.937 14.6658 36.3174 14.2853 36.6218C14.2261 36.681 14.164 36.7402 14.1001 36.8011C13.8358 37.0532 13.5413 37.3341 13.2962 37.763C12.9918 38.3718 13.0679 38.9805 13.144 39.4371C13.2962 38.9805 13.5245 38.3718 13.9049 37.9152C14.2092 37.4588 14.5896 37.1544 14.97 36.9262C15.5027 36.5458 15.9592 36.1652 16.2636 35.4805C16.4919 35.1001 16.4157 34.6435 16.3397 34.2631C16.2636 33.7305 16.1875 33.1218 16.5679 32.5892C17.1005 31.7522 17.6331 31.3718 18.1657 30.9914C18.6223 30.687 19.0028 30.3826 19.231 30.0022C19.6795 29.3294 19.8388 28.8219 19.9221 28.3883ZM17.3984 27.421C16.8588 27.087 16.3662 26.6841 15.933 26.2246C15.1382 27.5729 14.2487 27.8879 13.3548 28.2044C13.3099 28.2203 13.265 28.2362 13.2201 28.2523C12.6878 28.4044 12.1546 28.5567 11.6984 28.9371C11.0136 29.4695 10.9375 30.0022 10.8614 30.6109C10.8487 30.687 10.8382 30.7631 10.8276 30.8392C10.7747 31.2196 10.7219 31.6001 10.4049 31.9804C9.94836 32.437 9.49185 32.6652 9.03533 32.8174C8.98588 32.8372 8.93514 32.857 8.88312 32.8773C8.53493 33.0131 8.12914 33.1713 7.66576 33.5023C7.13315 33.9587 6.98097 34.4913 6.90489 35.0239C7.20924 34.6435 7.66576 34.1871 8.19837 33.8827C8.54071 33.6544 8.88305 33.5546 9.22539 33.4547C9.33957 33.4214 9.45375 33.3881 9.56793 33.3501C10.1766 33.1979 10.7853 33.0457 11.3179 32.5892C11.6223 32.2848 11.7745 31.9044 11.8505 31.4478C12.0027 30.9152 12.1549 30.3826 12.6875 29.9261C13.4484 29.3935 14.1331 29.2413 14.818 29.0891C14.9154 29.0613 15.0102 29.0361 15.1025 29.0115C15.515 28.9016 15.8766 28.8052 16.1875 28.5565C16.7689 28.1865 17.1301 27.8166 17.3984 27.421ZM15.3742 25.5559C14.9984 25.0473 14.6875 24.4877 14.4538 23.8894C13.1408 24.8838 12.0953 24.8089 11.1658 24.6761C10.6331 24.6001 10.1005 24.6001 9.49185 24.7522C8.65489 24.9805 8.35054 25.5131 8.12228 25.9696C8.10111 26.0049 8.07994 26.0408 8.05854 26.0771C7.84907 26.4327 7.61637 26.8278 7.13315 27.0348C6.62721 27.2878 6.2264 27.2779 5.79964 27.2674C5.71298 27.2652 5.62524 27.263 5.53533 27.263C5.44524 27.263 5.35516 27.2601 5.2639 27.2571C4.8927 27.2449 4.50217 27.2321 4.01358 27.4152C3.40489 27.6435 2.94837 28.1001 2.72011 28.4805C3.17663 28.2523 3.70924 28.0239 4.31793 27.9479C4.817 27.8766 5.24925 27.9389 5.73989 28.0096C5.77287 28.0143 5.80612 28.0191 5.83967 28.0239C6.44837 28.1001 7.05707 28.1761 7.74184 27.9479C8.12228 27.7957 8.42663 27.4914 8.65489 27.1108C8.95924 26.6544 9.33968 26.1978 10.0244 26.0458C10.8269 25.8451 11.5118 25.9383 12.0792 26.0155C12.1574 26.0262 12.2333 26.0365 12.3071 26.0458C12.3406 26.0505 12.3739 26.0553 12.4069 26.0601C12.8975 26.1308 13.3297 26.193 13.8288 26.1218C14.5474 25.9678 15.0236 25.7792 15.3742 25.5559ZM14.1674 22.984C14.0314 22.429 13.9592 21.849 13.9592 21.2522C13.9592 21.1479 13.9614 21.0442 13.9658 20.941C12.3723 21.3517 11.5028 20.8834 10.6331 20.4152C10.4881 20.353 10.3487 20.2852 10.2103 20.2179C9.8406 20.0381 9.47824 19.8619 9.03533 19.8065C8.17824 19.6637 7.79048 19.9901 7.36855 20.3454C7.341 20.3686 7.3133 20.3919 7.28532 20.4152C6.90489 20.7196 6.52445 21.024 5.99185 21.024C5.39005 21.024 4.96455 20.8477 4.61204 20.7017C4.56344 20.6816 4.51622 20.662 4.47011 20.6436C4.08968 20.4152 3.63315 20.2631 3.02446 20.187C2.41576 20.1109 1.80707 20.4152 1.42663 20.7196C1.61452 20.7465 1.81187 20.7638 2.01535 20.7818C2.38869 20.8147 2.78266 20.8494 3.17663 20.9478C3.60153 21.0692 3.92958 21.239 4.27668 21.4187C4.36466 21.4642 4.45387 21.5104 4.5462 21.5566C5.0788 21.937 5.53532 22.2414 6.2962 22.2414C6.75272 22.2414 7.05707 22.0892 7.43751 21.8608C7.47222 21.8435 7.50737 21.8257 7.54299 21.8077C7.97589 21.5885 8.47869 21.334 9.11141 21.4044C10.0244 21.5566 10.6331 21.937 11.1658 22.3174C11.6223 22.6218 12.0027 22.8501 12.5353 22.9261C13.2072 23.0812 13.7035 23.0607 14.1674 22.984ZM14.0507 20.0972C14.1568 19.4349 14.3525 18.8026 14.6251 18.2131C13.0754 17.9775 12.4062 17.2394 11.7677 16.5352C11.7446 16.5097 11.7215 16.4842 11.6984 16.4588C11.6825 16.4397 11.6667 16.4208 11.6511 16.402C11.2921 15.9706 10.9913 15.6091 10.481 15.3174C9.72011 14.8609 9.1875 15.0131 8.57881 15.2414C8.19837 15.4696 7.74184 15.6218 7.20924 15.4696C6.60054 15.2414 6.2201 14.8609 5.91577 14.4805C5.85662 14.4213 5.79748 14.3593 5.73666 14.2955C5.48451 14.0311 5.20356 13.7365 4.77445 13.4913C4.16576 13.187 3.55706 13.2631 3.10054 13.3392C3.55706 13.4913 4.16576 13.7196 4.62228 14.1C5.0788 14.4044 5.38315 14.7848 5.61142 15.1652C5.99185 15.6978 6.37229 16.1544 7.05707 16.4588C7.43751 16.687 7.89402 16.6108 8.27446 16.5348C8.80706 16.4588 9.41576 16.3826 9.94836 16.763C10.7853 17.2957 11.1658 17.8283 11.5462 18.3609C11.8505 18.8175 12.1549 19.1979 12.5353 19.4261C13.1578 19.8411 13.6389 20.0085 14.0507 20.0972ZM15.0404 17.4414C15.3745 16.9017 15.7774 16.4092 16.2369 15.976C14.8885 15.1811 14.5736 14.2916 14.257 13.3977C14.2412 13.3528 14.2253 13.308 14.2092 13.2631C14.0571 12.7305 13.9049 12.1978 13.5245 11.7413C12.9918 11.0566 12.4592 10.9805 11.8505 10.9044C11.7745 10.8917 11.6984 10.8811 11.6223 10.8706C11.2418 10.8177 10.8614 10.7649 10.481 10.4479C10.0244 9.99133 9.7962 9.53481 9.64401 9.07829C9.62424 9.02886 9.60446 8.97813 9.58419 8.92613C9.44844 8.57793 9.29024 8.17213 8.95924 7.70872C8.50271 7.17612 7.97011 7.02395 7.43751 6.94785C7.81794 7.25221 8.27446 7.70872 8.57881 8.24134C8.80707 8.58374 8.90693 8.92614 9.0068 9.26854C9.04009 9.38266 9.07337 9.49678 9.11141 9.6109C9.26358 10.2196 9.41576 10.8283 9.87228 11.3609C10.1766 11.6653 10.5571 11.8174 11.0136 11.8935C11.5462 12.0457 12.0788 12.1979 12.5353 12.7305C13.0679 13.4913 13.2201 14.1761 13.3723 14.8609C13.4002 14.9586 13.4255 15.0537 13.4502 15.1462C13.56 15.5584 13.6563 15.9198 13.9049 16.2304C14.2749 16.8119 14.6449 17.173 15.0404 17.4414ZM16.9055 15.4172C17.4142 15.0414 17.9738 14.7305 18.572 14.4968C17.5777 13.1837 17.6525 12.1383 17.7853 11.2087C17.8613 10.6761 17.8613 10.1435 17.7093 9.53481C17.4809 8.69786 16.9483 8.39351 16.4919 8.16526C16.4566 8.14408 16.4206 8.12291 16.3843 8.10149C16.0287 7.89203 15.6337 7.65932 15.4266 7.17612C15.1717 6.66626 15.1837 6.20979 15.1943 5.8067C15.1964 5.72856 15.1984 5.65243 15.1984 5.5783C15.1984 5.48821 15.2014 5.39812 15.2044 5.30687C15.2166 4.93567 15.2294 4.54514 15.0462 4.05656C14.818 3.44786 14.3614 2.99134 13.981 2.76307C14.2092 3.21959 14.4375 3.75221 14.5136 4.3609C14.5849 4.86014 14.5225 5.29252 14.4518 5.78337C14.447 5.81619 14.4423 5.84927 14.4375 5.88265C14.3614 6.49134 14.2853 7.10004 14.5136 7.78482C14.6658 8.16526 14.97 8.46959 15.3506 8.69786C15.807 9.00221 16.2636 9.38265 16.4157 10.0674C16.6164 10.8699 16.5232 11.5548 16.4459 12.1221C16.4353 12.2003 16.4249 12.2763 16.4157 12.35C16.4109 12.3836 16.4061 12.4168 16.4014 12.4498C16.3307 12.9405 16.2684 13.3727 16.3397 13.8718C16.4936 14.5904 16.6823 15.0666 16.9055 15.4172ZM19.4775 14.2103C19.4007 13.7464 19.3803 13.2501 19.5354 12.5783C19.6114 12.0457 19.8396 11.6653 20.144 11.2087C20.5244 10.6761 20.9049 10.0674 21.057 9.15438C21.1274 8.52166 20.8729 8.01886 20.6538 7.58596C20.6357 7.55033 20.618 7.51518 20.6006 7.48047C20.3722 7.10004 20.22 6.79569 20.22 6.33917C20.22 5.5783 20.5244 5.12177 21.057 4.58916C21.1034 4.49645 21.1498 4.40688 21.1955 4.31853C21.3749 3.97185 21.5445 3.64405 21.6657 3.21959C21.8179 2.53482 21.8179 1.92612 21.7419 1.4696C22.0463 1.85004 22.3505 2.38264 22.2745 3.06743C22.1983 3.67613 22.0463 4.13265 21.8179 4.51308C21.7994 4.55918 21.7799 4.6064 21.7598 4.65501C21.6137 5.00751 21.4375 5.43302 21.4375 6.03482C21.4375 6.56742 21.7419 6.94785 22.0463 7.32829C22.0696 7.35628 22.0929 7.38398 22.1161 7.41153C22.4713 7.83347 22.7978 8.22123 22.6549 9.07829C22.5995 9.52126 22.4233 9.88363 22.2434 10.2534C22.1762 10.3917 22.1084 10.5311 22.0463 10.6761C21.578 11.5457 21.1098 12.4153 21.5204 14.0088C21.4172 14.0044 21.3135 14.0022 21.2092 14.0022C20.6124 14.0022 20.0324 14.0743 19.4775 14.2103ZM22.3643 14.0937C23.0617 14.2054 23.726 14.4165 24.342 14.7121C24.5948 13.2389 25.3148 12.5862 26.0025 11.9628C26.028 11.9397 26.0534 11.9166 26.0788 11.8935C26.098 11.8775 26.1171 11.8616 26.136 11.8459C26.5672 11.4871 26.9285 11.1863 27.2201 10.6761C27.6767 9.91525 27.5245 9.38265 27.2963 8.77394C27.1441 8.31743 26.9919 7.86091 27.2201 7.32829C27.2201 6.7063 27.534 6.39817 27.8766 6.0618C27.9112 6.02785 27.9461 5.99361 27.9809 5.95873C28.0401 5.89962 28.102 5.8405 28.1658 5.77971C28.4302 5.52754 28.7249 5.24658 28.9701 4.81743C29.2744 4.20873 29.1984 3.60003 29.1223 3.14351C28.9701 3.60003 28.7419 4.20873 28.3613 4.66525C28.0571 5.12178 27.6767 5.42612 27.2963 5.65438C26.7636 6.03482 26.307 6.41525 26.0027 7.10004C25.7744 7.48047 25.8506 7.93699 25.9266 8.31743C26.0027 8.85003 26.0788 9.45873 25.6984 9.99133C25.1658 10.8283 24.6332 11.2087 24.1006 11.5892C23.644 11.8935 23.2635 12.1979 23.0353 12.5783C22.6204 13.2008 22.4529 13.6818 22.3643 14.0937ZM25.1464 15.1634C25.6787 15.5083 26.163 15.9211 26.5868 16.3896C27.3753 15.0771 28.2553 14.7654 29.1397 14.4522C29.1846 14.4363 29.2295 14.4204 29.2744 14.4044C29.807 14.2522 30.3396 14.1 30.7962 13.7196C31.481 13.187 31.557 12.6544 31.6332 12.0457C31.6459 11.9696 31.6564 11.8936 31.667 11.8176C31.7198 11.4371 31.7726 11.0566 32.0897 10.6761C32.5463 10.2196 33.0027 9.99135 33.4593 9.83916C33.5087 9.81941 33.5594 9.79965 33.6113 9.77939C33.9595 9.64363 34.3653 9.48542 34.8288 9.15438C35.3614 8.69786 35.5136 8.16526 35.5896 7.63264C35.2854 8.01307 34.8288 8.46959 34.2962 8.77394C33.9539 9.00218 33.6115 9.10205 33.2692 9.2019C33.155 9.2352 33.0408 9.2685 32.9267 9.30656C32.3179 9.45873 31.7092 9.6109 31.1766 10.0674C30.8722 10.3718 30.72 10.7522 30.644 11.2087C30.4918 11.7413 30.3396 12.274 29.807 12.7305C29.0462 13.263 28.3614 13.4152 27.6768 13.5674C27.5791 13.5953 27.4839 13.6207 27.3913 13.6453C26.9792 13.7552 26.6177 13.8515 26.307 14.1C25.7611 14.4474 25.4094 14.7948 25.1464 15.1634ZM27.1434 17.0861C27.5079 17.6043 27.8063 18.1725 28.0262 18.7782C29.346 17.7723 30.3958 17.8472 31.3288 17.9805C31.8614 18.0565 32.3941 18.0565 33.0027 17.9044C33.8397 17.6761 34.144 17.1435 34.3723 16.687C34.3935 16.6517 34.4147 16.6158 34.4361 16.5795C34.6455 16.2239 34.8782 15.8288 35.3614 15.6218C35.8712 15.3668 36.3277 15.3789 36.7308 15.3895C36.809 15.3915 36.8851 15.3936 36.9592 15.3936C37.0493 15.3936 37.1394 15.3965 37.2306 15.3995C37.6018 15.4117 37.9924 15.4246 38.4809 15.2414C39.0897 15.0131 39.5462 14.5565 39.7744 14.1761C39.3179 14.4044 38.7853 14.6326 38.1767 14.7087C37.6772 14.78 37.2446 14.7176 36.7535 14.6468C36.7209 14.6421 36.688 14.6373 36.6549 14.6326C36.0463 14.5566 35.4374 14.4805 34.7528 14.7087C34.3723 14.8609 34.0679 15.1652 33.8397 15.5458C33.5353 16.0022 33.1549 16.4588 32.4701 16.6108C31.6676 16.8116 30.9828 16.7183 30.4154 16.6411C30.3372 16.6304 30.2613 16.6201 30.1876 16.6108C30.154 16.6061 30.1208 16.6013 30.0878 16.5965C29.5972 16.5259 29.1648 16.4636 28.6657 16.5348C27.9628 16.6854 27.4918 16.8692 27.1434 17.0861ZM28.2881 19.6793C28.4002 20.1857 28.4592 20.7121 28.4592 21.2522C28.4592 21.3633 28.4567 21.4739 28.4518 21.5838C30.0943 21.1377 30.9778 21.6134 31.8613 22.0891C32.0064 22.1513 32.1459 22.2192 32.2843 22.2865C32.654 22.4663 33.0163 22.6425 33.4593 22.6979C34.3164 22.8407 34.7041 22.5142 35.126 22.159C35.1536 22.1358 35.1812 22.1125 35.2092 22.0892C35.5896 21.7848 35.97 21.4804 36.5027 21.4804C37.1041 21.4804 37.5294 21.6566 37.8818 21.8024C37.9307 21.8227 37.9781 21.8423 38.0245 21.8608C38.4049 22.0892 38.8613 22.2414 39.4701 22.3174C40.0788 22.3935 40.6876 22.0892 41.068 21.7848C40.6114 21.8608 40.0028 21.8608 39.394 21.7088C38.9695 21.5875 38.6417 21.4178 38.2951 21.2384C38.2067 21.1927 38.1172 21.1464 38.0245 21.1C37.4921 20.7959 36.9589 20.4913 36.1984 20.4152C35.7418 20.4152 35.4376 20.5674 35.057 20.7958C35.0224 20.813 34.9874 20.8308 34.952 20.8487C34.519 21.0679 34.0161 21.3225 33.3831 21.2522C32.4701 21.1 31.8614 20.7196 31.3288 20.3392C30.8722 20.0348 30.4918 19.8065 29.9592 19.7305C29.2685 19.571 28.7633 19.5972 28.2881 19.6793ZM28.3701 22.392C28.2731 23.0069 28.0987 23.5961 27.8572 24.1493C29.3616 24.3951 30.0212 25.1227 30.6508 25.8172C30.6739 25.8427 30.697 25.8682 30.72 25.8936C30.7363 25.9131 30.7524 25.9324 30.7684 25.9516C31.127 26.3824 31.4276 26.7434 31.9375 27.0348C32.6983 27.4914 33.2309 27.3392 33.8397 27.1108C34.2961 26.9588 34.7529 26.8066 35.2854 27.0348C35.894 27.263 36.2744 27.6435 36.5788 28.0239C36.638 28.0831 36.6972 28.1452 36.7581 28.209C37.0102 28.4734 37.2911 28.7679 37.7201 29.0131C38.3289 29.3175 38.9375 29.2413 39.394 29.1653C38.9375 29.0131 38.3289 28.7849 37.8723 28.4044C37.4157 28.1001 37.1114 27.7196 36.8832 27.3392C36.5027 26.8066 36.1222 26.35 35.4376 26.0458C35.057 25.8174 34.6006 25.8936 34.2201 25.9696C33.6875 26.0458 33.0789 26.1218 32.5463 25.7414C31.7092 25.2087 31.3288 24.6761 30.9484 24.1435C30.644 23.6871 30.3396 23.3065 29.9592 23.0783C29.2992 22.6383 28.7983 22.4766 28.3701 22.392ZM27.4431 24.956C27.1199 25.4988 26.7278 25.9958 26.2789 26.4349C27.5454 27.2148 27.8527 28.0825 28.1615 28.9545C28.1774 28.9994 28.1933 29.0442 28.2093 29.0891C28.3613 29.6217 28.5135 30.1544 28.894 30.6109C29.4266 31.2958 29.9592 31.3718 30.568 31.4478C30.6441 31.4605 30.7203 31.4711 30.7965 31.4817C31.1768 31.5346 31.5572 31.5875 31.9375 31.9044C32.3941 32.3608 32.6223 32.8174 32.7745 33.2739C32.7942 33.3232 32.814 33.3739 32.8342 33.4258C32.97 33.7741 33.1282 34.18 33.4593 34.6435C33.9157 35.1761 34.4484 35.3283 34.981 35.4044C34.6006 35.1001 34.144 34.6435 33.8397 34.1109C33.6115 33.7686 33.5116 33.4263 33.4118 33.084C33.3785 32.9698 33.3452 32.8556 33.3071 32.7414C33.1549 32.1326 33.0027 31.524 32.5463 30.9914C32.2419 30.687 31.8614 30.5348 31.4049 30.4587C30.8722 30.3065 30.3396 30.1544 29.8832 29.6217C29.3506 28.861 29.1984 28.1762 29.0462 27.4916C29.0183 27.3938 28.9928 27.2984 28.9682 27.2058C28.8584 26.7937 28.7621 26.4324 28.5135 26.1218C28.1639 25.5723 27.8142 25.2196 27.4431 24.956ZM25.5764 27.0398C25.0754 27.4184 24.5237 27.7335 23.9332 27.9731C24.8362 29.2312 24.762 30.2419 24.6332 31.1436C24.557 31.6762 24.557 32.2088 24.7092 32.8174C24.9376 33.6544 25.47 33.9587 25.9266 34.1871C25.9619 34.2082 25.9978 34.2294 26.0342 34.2508C26.3898 34.4602 26.7848 34.6929 26.9919 35.1761C27.2468 35.6859 27.2348 36.1424 27.2242 36.5455C27.2221 36.6237 27.2201 36.6998 27.2201 36.774C27.2201 36.864 27.2171 36.9541 27.2141 37.0454C27.2019 37.4165 27.1891 37.8071 27.3723 38.2957C27.6005 38.9044 28.0571 39.3609 28.4375 39.5891C28.2093 39.1327 27.9809 38.6001 27.9049 37.9914C27.8337 37.4923 27.8959 37.06 27.9666 36.5693C27.9714 36.5363 27.9761 36.5031 27.9809 36.4696C28.0571 35.8609 28.1331 35.2522 27.9049 34.5675C27.7527 34.1871 27.4483 33.8827 27.0679 33.6544C26.6114 33.3501 26.1549 32.9696 26.0027 32.2848C25.8022 31.4828 25.8953 30.7981 25.9724 30.2309C25.983 30.1524 25.9934 30.0761 26.0027 30.0022C26.0074 29.9689 26.0122 29.936 26.0169 29.9033C26.0877 29.4123 26.1501 28.9799 26.0788 28.4805C25.9397 27.831 25.7722 27.3795 25.5764 27.0398ZM22.9631 28.2886C23.0201 28.7115 23.0219 29.1724 22.8831 29.7739C22.8071 30.3065 22.5787 30.687 22.2745 31.1436C21.8941 31.6762 21.5136 32.2848 21.3614 33.1979C21.2911 33.8307 21.5456 34.3335 21.7648 34.7664C21.7828 34.802 21.8006 34.8371 21.8179 34.8717C22.0463 35.2522 22.1983 35.5565 22.1983 36.0131C22.1223 36.7737 21.8181 37.3062 21.514 37.8386C21.4679 37.9308 21.4213 38.0206 21.3758 38.1085C21.1961 38.4557 21.0263 38.7837 20.9049 39.2087C20.7527 39.8175 20.7527 40.4261 20.8288 40.8826C20.5244 40.5022 20.22 39.9695 20.2962 39.2849C20.3722 38.6761 20.5244 38.2196 20.7527 37.8392C20.7711 37.793 20.7907 37.7457 20.8109 37.697C20.9569 37.3446 21.1332 36.9191 21.1332 36.3174C21.1332 35.7848 20.8288 35.4044 20.5244 35.0239C20.5011 34.996 20.4778 34.9683 20.4547 34.9408C20.0994 34.5189 19.7729 34.1311 19.9158 33.2739C19.9711 32.831 20.1473 32.4688 20.3271 32.0991C20.3944 31.9607 20.4623 31.8213 20.5244 31.6762C20.977 30.8357 21.4295 29.9951 21.0886 28.5012C21.1287 28.5019 21.1689 28.5022 21.2092 28.5022C21.814 28.5022 22.4015 28.4282 22.9631 28.2886Z" fill="#BD7B4F"/>
</svg>
