<svg width="640" height="640" viewBox="0 0 640 640" fill="none" xmlns="http://www.w3.org/2000/svg">
  <path d="M320 354.872C300.718 354.872 285.128 339.282 285.128 320C285.128 300.718 300.718 285.128 320 285.128C339.282 285.128 354.872 300.718 354.872 320C354.872 338.872 339.282 354.872 320 354.872ZM320 288C302.359 288 288.41 302.359 288.41 319.59C288.41 337.231 302.769 351.179 320 351.179C337.641 351.179 351.59 336.82 351.59 319.59C352 302.359 337.641 288 320 288Z" fill="#BD7B4F"/>
  <path d="M320.821 354.872C320.41 354.872 320 354.872 320 354.872C319.18 354.872 318.359 354.051 318.359 353.231C318.359 352.41 319.18 351.59 320 351.59C321.231 351.59 354.462 352.82 369.231 309.744C374.564 294.154 372.513 282.667 370.051 270.769C367.59 258.051 365.128 244.923 372.103 226.872C378.257 211.282 386.872 201.846 391.385 198.154C382.769 197.744 361.026 198.154 333.949 210.872C321.641 217.026 310.154 226.051 304.41 234.667C304 235.487 303.18 235.487 302.359 235.077C301.539 234.667 301.539 233.846 301.949 233.026C308.103 223.59 319.59 214.564 332.718 208C368 190.769 394.667 194.872 395.487 195.282C396.308 195.282 396.718 195.692 396.718 196.513C396.718 196.923 396.718 197.744 395.898 198.154C395.898 198.154 382.769 207.179 374.564 228.103C368 244.923 370.462 257.231 372.923 270.359C375.385 282.256 377.436 294.974 372.103 310.974C363.898 334.769 350.359 345.436 340.103 350.359C331.077 354.462 323.282 354.872 320.821 354.872Z" fill="#BD7B4F"/>
  <path d="M637.538 265.846C637.128 265.846 636.718 265.846 636.718 265.436C580.102 223.179 471.384 159.179 380.718 203.897C348.307 219.897 331.487 244.513 331.487 253.538C331.487 254.359 330.666 254.769 329.846 255.179C329.025 255.179 328.205 254.359 328.205 253.538C328.205 243.692 345.436 217.846 379.487 201.436C471.795 155.897 581.333 220.718 638.769 262.974C639.589 263.385 639.59 264.615 639.179 265.026C638.359 265.846 637.948 265.846 637.538 265.846Z" fill="#BD7B4F"/>
  <path d="M253.128 445.128C247.795 445.128 244.513 444.718 244.513 444.718C243.692 444.718 243.282 444.308 243.282 443.487C243.282 443.077 243.282 442.256 244.102 441.846C244.102 441.846 257.231 432.82 265.436 411.897C272 395.077 269.538 382.769 267.077 369.641C264.615 357.744 262.564 345.026 267.897 329.026C276.102 305.231 289.641 294.564 299.897 289.641C310.974 284.308 320 284.718 320.41 284.718C321.231 284.718 322.051 285.538 322.051 286.359C322.051 287.179 321.231 288 320.41 288C319.179 288 285.949 286.769 271.179 329.846C265.846 345.436 267.897 356.923 270.359 368.82C272.82 381.538 275.282 394.667 268.308 412.718C262.154 428.308 253.538 437.744 248.615 441.436C257.231 441.846 278.974 441.436 306.051 428.718C318.359 422.564 329.846 413.538 335.59 404.923C336 404.102 336.82 404.102 337.641 404.513C338.461 404.923 338.461 405.744 338.051 406.564C331.897 416 320.41 425.026 307.282 431.59C283.487 443.077 263.795 445.128 253.128 445.128Z" fill="#BD7B4F"/>
  <path d="M192 453.744C118.564 453.744 45.1282 408.615 1.64098 376.615C0.820465 376.205 0.820465 374.974 1.23072 374.564C1.64098 373.744 2.87175 373.743 3.282 374.154C59.4871 416 167.385 479.59 258.051 436.103C290.872 420.513 308.513 395.077 308.923 386.051C308.923 385.231 309.743 384.41 310.564 384.41C311.385 384.41 312.205 385.231 312.205 386.051C311.795 395.897 294.154 422.154 259.692 438.564C237.538 449.231 214.564 453.744 192 453.744Z" fill="#BD7B4F"/>
  <path d="M443.077 396.718C442.667 396.718 442.257 396.308 441.847 395.897C441.847 395.897 432.821 382.769 411.898 374.564C395.077 368 382.77 370.461 369.641 372.923C357.744 375.385 345.026 377.436 329.026 372.102C305.231 363.897 294.565 350.359 289.641 340.103C284.308 329.026 284.718 320 284.718 319.59C284.718 318.769 285.539 317.949 286.359 317.949C287.18 317.949 288 318.769 288 319.59C288 320.82 286.77 354.051 329.847 368.82C345.436 374.154 356.924 372.102 368.821 369.641C381.539 367.179 394.667 364.718 412.718 371.692C428.308 377.846 437.744 386.461 441.436 390.974C441.847 382.359 441.436 360.615 428.718 333.538C422.565 321.231 413.539 309.744 404.924 304C404.103 303.59 404.103 302.769 404.513 301.949C404.924 301.128 405.744 301.128 406.565 301.538C416 307.692 425.026 319.179 431.59 332.308C448.821 367.59 444.718 394.256 444.308 395.077C444.718 396.308 444.308 396.718 443.077 396.718C443.488 396.718 443.488 396.718 443.077 396.718Z" fill="#BD7B4F"/>
  <path d="M375.385 638.769C374.975 638.769 374.564 638.769 374.564 638.359C373.744 637.949 373.744 636.718 374.154 636.308C416.411 579.692 480.411 470.974 435.282 380.308C419.282 348.308 394.667 331.077 386.052 331.077C385.231 331.077 384.411 330.256 384.411 329.436C384.411 328.615 385.231 327.795 386.052 327.795C395.898 327.795 421.334 345.026 438.154 378.667C484.103 470.974 419.282 580.923 376.616 637.949C376.616 638.769 375.795 638.769 375.385 638.769Z" fill="#BD7B4F"/>
  <path d="M233.847 338.051C233.436 338.051 233.436 338.051 233.026 337.641C223.59 331.487 214.565 320 208 306.872C190.77 271.59 194.872 244.923 195.282 244.103C195.282 243.282 195.693 242.872 196.513 242.872C196.924 242.872 197.744 242.872 198.154 243.692C198.154 243.692 207.18 256.82 228.103 265.026C244.924 271.59 257.231 269.128 270.359 266.667C282.257 264.205 294.975 262.154 310.975 267.487C334.77 275.692 345.436 289.231 350.359 299.487C355.693 310.564 355.282 319.59 355.282 320C355.282 320.821 354.462 321.641 353.641 321.641C352.821 321.641 352 320.821 352 320C352 318.769 353.231 285.538 310.154 270.769C294.565 265.436 283.077 267.487 271.18 269.949C258.462 272.41 245.334 274.872 227.282 267.897C211.693 261.744 202.257 253.128 198.565 248.205C198.154 256.82 198.565 278.564 211.282 305.641C217.436 317.949 226.462 329.436 235.077 335.179C235.898 335.59 235.898 336.41 235.488 337.231C235.077 337.641 234.667 338.051 233.847 338.051Z" fill="#BD7B4F"/>
  <path d="M253.949 311.795C243.693 311.385 217.436 293.744 201.026 259.282C156.718 167.385 221.129 58.2564 263.385 1.23076C263.795 0.410248 265.026 0.410248 265.436 0.820504C266.257 1.23076 266.257 2.46153 265.846 2.87179C224 59.4872 160 167.385 203.898 258.051C219.487 290.872 244.923 308.103 253.949 308.513C254.77 308.513 255.59 309.333 255.59 310.154C255.18 310.974 254.77 311.795 253.949 311.795Z" fill="#BD7B4F"/>
  <path d="M247.795 272C247.384 272 246.564 271.59 246.564 271.179C240.41 260.103 221.128 220.308 240 162.462C258.871 104.615 308.513 50.0513 387.282 1.23078C388.102 0.820526 388.923 0.820526 389.333 1.64104C389.743 2.46155 389.743 3.28206 388.923 3.69232C310.564 52.1026 261.743 105.846 242.871 163.282C224.41 219.897 242.871 259.282 249.025 269.538C249.436 270.359 249.025 271.179 248.615 271.59C248.205 272 248.205 272 247.795 272Z" fill="#BD7B4F"/>
  <path d="M252.308 638.769C251.897 638.769 251.487 638.359 251.077 637.949C250.667 637.128 250.667 636.308 251.487 635.897C329.846 587.487 378.667 533.744 397.538 476.308C416 419.692 397.538 380.308 391.384 370.051C390.974 369.231 391.384 368.41 391.795 368C392.615 367.59 393.436 368 393.846 368.41C400 379.487 419.282 419.282 400.41 477.128C381.538 534.974 331.897 589.538 253.128 638.359C252.718 638.769 252.308 638.769 252.308 638.769Z" fill="#BD7B4F"/>
  <path d="M234.256 337.641C233.846 337.641 233.846 337.641 234.256 337.641C222.769 334.769 126.359 304.41 128.821 148.513C129.231 129.231 132.103 76.3077 153.026 2.05133C153.436 1.23081 154.256 0.820557 155.077 0.820557C155.487 1.23081 155.897 2.05133 155.897 2.87184C134.974 77.1282 132.103 129.641 131.692 148.923C129.231 302.359 224 331.897 234.667 334.769C235.487 335.179 235.897 336 235.897 336.82C235.487 337.231 234.667 337.641 234.256 337.641Z" fill="#BD7B4F"/>
  <path d="M304 235.487C303.59 235.487 303.59 235.487 304 235.487C302.769 235.077 302.359 234.256 302.359 233.436C305.231 222.359 335.59 125.949 491.487 128.41C510.769 128.82 563.692 131.692 637.949 152.615C638.769 153.026 639.179 153.846 639.179 154.667C638.769 155.487 637.949 155.897 637.128 155.897C562.872 134.974 510.359 132.103 491.077 131.692C337.641 129.231 308.102 224 305.231 234.667C305.231 235.077 304.41 235.487 304 235.487Z" fill="#BD7B4F"/>
  <path d="M638.359 390.154C637.949 390.154 637.538 389.744 637.128 389.333C609.231 345.846 585.846 319.59 574.359 307.692C467.692 197.744 379.897 243.282 370.051 249.026C369.231 249.436 368.41 249.026 368 248.615C367.59 247.795 368 246.974 368.41 246.564C378.256 240.821 468.102 194.051 576.41 305.641C587.897 317.538 611.692 344.205 639.59 387.692C640 388.513 640 389.333 639.179 389.744C639.179 390.154 638.769 390.154 638.359 390.154Z" fill="#BD7B4F"/>
  <path d="M485.744 638.769H485.333C484.513 638.359 484.102 637.538 484.102 636.718C505.026 562.462 507.897 509.949 508.308 490.667C510.769 337.231 416 307.692 405.333 304.821C404.513 304.41 404.102 303.59 404.102 302.769C404.513 301.949 405.333 301.538 406.154 301.538C417.231 304.41 513.641 334.769 511.179 490.667C510.769 509.949 507.897 562.872 486.974 637.128C486.974 638.359 486.154 638.769 485.744 638.769Z" fill="#BD7B4F"/>
  <path d="M251.487 640C251.077 640 250.666 639.59 250.256 639.179C249.846 638.359 249.846 637.538 250.666 637.128C294.154 609.231 320.41 585.846 332.308 574.359C442.256 467.692 396.718 379.897 390.974 370.051C390.564 369.231 390.974 368.41 391.384 368C392.205 367.59 393.025 368 393.436 368.41C399.179 378.256 445.949 468.103 334.359 576.41C322.461 587.897 295.795 611.692 252.308 639.59C251.897 640 251.487 640 251.487 640Z" fill="#BD7B4F"/>
  <path d="M154.667 511.59C152.615 511.59 150.974 511.59 148.923 511.59C129.641 511.179 76.718 508.308 2.4616 487.385C1.64109 486.974 1.23083 486.154 1.23083 485.333C1.64109 484.513 2.4616 484.103 3.28212 484.103C77.5385 505.026 130.051 507.897 149.333 508.308C302.769 510.769 332.308 416 335.18 405.333C335.59 404.513 336.41 404.103 337.231 404.103C338.051 404.513 338.462 405.333 338.462 406.154C334.769 417.231 305.231 511.59 154.667 511.59Z" fill="#BD7B4F"/>
  <path d="M210.461 407.795C172.718 407.795 120.615 393.026 63.5897 333.949C52.1025 322.051 28.3076 295.385 0.410201 251.897C-0.410312 251.077 -5.5559e-05 250.256 0.820457 249.846C1.64097 249.436 2.46148 249.436 2.87174 250.256C30.7692 293.744 54.1538 320 65.641 331.897C172.308 441.846 260.103 396.308 269.949 390.564C270.769 390.154 271.59 390.564 272 390.974C272.41 391.795 272 392.615 271.59 393.026C266.667 395.897 244.513 407.795 210.461 407.795Z" fill="#BD7B4F"/>
  <path d="M343.796 345.026C343.385 345.026 342.975 345.026 342.565 344.615C342.154 343.795 342.154 342.974 342.565 342.564C343.796 341.744 367.59 319.179 347.488 278.154C340.103 263.385 330.667 256.82 320.411 249.846C309.744 242.462 298.667 235.077 290.872 217.436C283.898 201.846 283.898 189.128 284.308 183.385C278.154 189.128 262.565 204.718 252.719 233.026C248.206 246.154 246.565 260.513 248.616 270.769C248.616 271.59 248.206 272.41 247.385 272.41C246.565 272.41 245.744 272 245.744 271.179C243.693 260.103 244.924 245.333 249.847 231.795C262.975 194.872 284.308 178.872 285.129 178.462C285.539 178.051 286.36 178.051 286.77 178.462C287.18 178.872 287.59 179.282 287.59 180.103C287.59 180.103 284.719 196.103 293.744 216.615C301.129 233.436 311.385 240.41 322.052 247.795C332.308 254.769 342.565 261.744 350.36 277.333C361.437 299.897 359.385 317.128 355.693 327.795C351.59 339.282 345.026 345.436 344.616 345.436C344.206 344.615 343.796 345.026 343.796 345.026Z" fill="#BD7B4F"/>
  <path d="M279.796 267.077C279.385 267.077 278.975 267.077 278.565 266.667C272.821 259.692 267.488 235.487 275.283 205.128C284.308 168.615 312.206 118.154 395.488 83.2821C411.898 76.3077 500.924 42.2564 638.36 41.4359C639.18 41.4359 640.001 42.2564 640.001 43.0769C640.001 43.8975 639.18 44.718 638.36 44.718C623.591 44.718 491.488 46.7692 396.308 86.1539C314.667 120.205 286.77 170.256 278.155 205.949C270.77 235.897 276.514 259.282 281.026 264.615C281.437 265.436 281.437 266.256 281.026 266.667C280.206 267.077 280.206 267.077 279.796 267.077Z" fill="#BD7B4F"/>
  <path d="M353.642 461.949C353.231 461.949 353.231 461.949 352.821 461.538C352.411 461.128 352.001 460.718 352.001 459.897C352.001 459.897 354.872 443.897 345.847 423.385C338.462 406.564 328.206 399.59 317.539 392.205C307.283 385.231 297.026 378.256 289.231 362.667C278.154 340.103 280.206 322.872 283.898 312.205C288.001 300.718 294.565 294.564 294.975 294.564C295.796 294.154 296.616 294.154 297.026 294.564C297.437 295.385 297.437 296.205 297.026 296.615C295.796 297.436 272.001 320 292.103 361.026C299.488 375.795 308.924 382.359 319.18 389.333C329.847 396.718 340.924 404.103 348.719 421.744C355.693 437.333 355.693 450.051 355.283 455.795C361.437 450.051 377.026 434.462 386.872 406.154C391.385 393.026 393.026 378.667 390.975 368.41C390.975 367.59 391.385 366.769 392.206 366.769C393.026 366.769 393.847 367.18 393.847 368C395.898 379.077 394.667 393.846 389.744 407.385C376.616 444.308 355.283 460.308 354.462 460.718C354.462 461.539 354.052 461.949 353.642 461.949Z" fill="#BD7B4F"/>
  <path d="M2.05173 598.154C1.23122 598.154 0.410706 597.333 0.410706 596.513C0.410706 595.692 1.23122 594.872 2.05173 594.872C16.821 594.872 148.924 592.82 244.103 553.436C335.59 515.282 358.565 457.026 364.308 425.846C368.821 400 364.308 379.077 358.975 374.564C358.154 374.154 358.154 372.923 358.975 372.513C359.385 371.692 360.616 371.692 361.026 372.513C366.359 377.436 372.103 398.359 367.18 426.667C361.436 458.667 338.052 518.154 245.334 556.718C228.513 562.872 139.488 597.333 2.05173 598.154Z" fill="#BD7B4F"/>
  <path d="M331.077 358.564C323.692 358.564 317.949 357.333 313.026 355.692C301.539 351.59 295.385 345.026 295.385 344.615C294.974 343.795 294.974 342.974 295.385 342.564C296.205 342.154 297.026 342.154 297.436 342.564C298.256 343.795 320.821 367.59 361.846 347.487C376.615 340.103 383.18 330.667 390.154 320.41C397.538 309.744 404.923 298.667 422.564 290.872C438.154 283.897 450.872 283.897 456.615 284.308C450.872 278.154 435.282 262.564 406.974 252.718C393.846 248.205 379.487 246.564 369.231 248.615C368.41 248.615 367.59 248.205 367.59 247.385C367.59 246.564 368 245.744 368.821 245.744C379.897 243.692 394.667 244.923 408.205 249.846C445.128 262.974 461.128 284.308 461.538 285.128C461.949 285.538 461.949 286.359 461.538 286.769C461.128 287.179 460.718 287.59 459.897 287.59C459.897 287.59 443.897 284.718 423.385 293.744C406.564 301.128 399.59 311.385 392.205 322.051C385.231 332.308 378.256 342.564 362.667 350.359C350.769 356.513 340.103 358.564 331.077 358.564Z" fill="#BD7B4F"/>
  <path d="M596.923 639.59C596.102 639.59 595.282 638.769 595.282 637.949C595.282 623.179 593.231 491.077 553.846 395.897C516.102 305.641 458.666 282.256 427.487 276.103C401.641 271.179 379.897 275.692 374.974 281.026C374.564 281.436 373.333 281.846 372.923 281.026C372.513 280.615 372.513 279.385 372.923 278.974C378.256 273.641 399.59 267.897 428.308 273.231C459.897 279.385 518.564 303.179 556.718 394.667C563.692 411.077 597.743 500.103 598.564 637.538C598.154 638.769 597.743 639.59 596.923 639.59Z" fill="#BD7B4F"/>
  <path d="M260.103 395.077C251.077 395.077 241.231 393.436 231.795 390.154C194.872 377.026 178.872 355.692 178.462 354.872C178.051 354.462 178.051 353.641 178.462 353.231C178.872 352.821 179.282 352.41 180.103 352.41C180.103 352.41 196.103 355.282 216.615 346.256C233.436 338.872 240.41 328.615 247.795 317.949C254.769 307.692 261.744 297.436 277.333 289.641C299.898 278.564 317.128 280.615 327.795 284.308C339.282 288.41 345.436 294.974 345.436 295.385C345.846 296.205 345.846 297.026 345.436 297.436C344.615 297.846 343.795 297.846 343.385 297.436C342.564 296.205 320 272.41 278.974 292.513C264.205 299.898 257.641 309.333 250.667 319.59C243.282 330.256 235.898 341.333 218.257 349.128C202.667 356.103 189.949 356.103 184.205 355.692C189.949 361.846 205.539 377.436 233.846 387.282C246.974 391.795 261.333 393.436 271.59 391.385C272.41 391.385 273.231 391.795 273.231 392.615C273.231 393.436 272.821 394.256 272 394.256C267.898 394.667 264.205 395.077 260.103 395.077Z" fill="#BD7B4F"/>
  <path d="M235.077 368.41C226.461 368.41 216.205 367.18 205.538 364.718C169.026 355.692 118.564 327.795 83.6922 244.513C76.7179 228.103 42.6666 139.077 41.8461 1.64103C41.8461 0.820513 42.6666 0 43.4871 0C44.3076 0 45.1281 0.820513 45.1281 1.64103C45.1281 16.4103 47.1794 148.513 86.564 243.692C120.615 325.333 170.667 353.231 206.359 361.846C236.308 369.231 259.692 363.487 265.026 358.974C265.846 358.564 266.667 358.564 267.077 358.974C267.487 359.795 267.487 360.615 267.077 361.026C262.564 365.128 250.667 368.41 235.077 368.41Z" fill="#BD7B4F"/>
  <path d="M638.359 639.59H2.05173C1.23122 639.59 0.410706 638.769 0.410706 637.949V1.64103C0.410706 0.820513 0.820962 0 2.05173 0H638.359C639.18 0 640 0.820513 640 1.64103V637.949C639.59 638.769 639.18 639.59 638.359 639.59ZM3.2825 636.308H636.718V3.28205H3.2825V636.308Z" fill="#BD7B4F"/>
  <path d="M292.513 217.026H292.102C291.282 216.615 290.872 215.795 291.282 214.974C299.897 187.077 333.128 120.205 452.102 99.2821C481.231 94.359 564.102 90.6667 638.359 97.641C639.179 97.641 640 98.4616 639.59 99.2821C639.59 100.103 638.769 100.513 637.949 100.513C564.102 93.5385 481.231 96.8205 452.513 102.154C335.179 123.077 302.359 188.718 293.743 215.795C293.743 216.615 292.923 217.026 292.513 217.026Z" fill="#BD7B4F"/>
  <path d="M255.59 223.179C254.769 223.179 253.949 222.359 253.949 221.538C254.359 189.538 267.077 128 349.128 73.4359C360.205 66.0513 420.513 28.3077 521.436 -8.27014e-06C522.256 -0.410265 523.077 0.410248 523.487 1.23076C523.897 2.05127 523.077 2.87179 522.256 3.28204C421.743 31.1795 361.846 68.9231 350.769 76.3077C269.949 129.641 257.231 190.359 257.231 221.538C257.231 222.359 256.41 223.179 255.59 223.179Z" fill="#BD7B4F"/>
  <path d="M638.359 313.026C637.949 313.026 637.539 313.026 637.128 312.615C609.231 286.359 581.334 262.974 565.334 252.718C470.154 190.359 405.334 209.231 374.975 226.051C374.154 226.462 373.334 226.051 372.923 225.641C372.513 224.82 372.923 224 373.334 223.59C404.513 206.359 470.564 186.667 566.975 250.256C582.975 260.513 611.282 284.308 639.18 310.564C640 310.974 640 312.205 639.18 312.615C639.18 313.026 638.769 313.026 638.359 313.026Z" fill="#BD7B4F"/>
  <path d="M339.692 208C339.282 208 338.872 208 338.462 207.59C338.051 207.18 337.641 205.949 338.462 205.538C361.436 181.744 413.949 144.41 509.949 160.821C523.077 162.872 571.077 172.718 638.359 202.667C639.18 203.077 639.59 203.897 639.18 204.718C638.769 205.539 637.949 205.949 637.128 205.538C569.846 175.59 522.256 165.744 509.128 163.692C414.359 147.282 362.667 184.205 340.103 207.59C340.513 207.59 340.103 208 339.692 208Z" fill="#BD7B4F"/>
  <path d="M540.717 639.59C540.307 639.59 540.307 639.179 540.717 639.59C539.897 639.59 539.076 638.769 539.076 637.949C546.051 564.103 542.769 481.231 537.435 452.513C516.512 335.179 451.281 302.359 423.794 293.744C422.974 293.333 422.563 292.513 422.974 291.692C423.384 290.872 424.204 290.462 425.025 290.872C452.922 299.487 519.794 332.718 540.717 451.692C545.64 480.82 549.333 563.692 542.358 637.949C541.948 638.769 541.128 639.59 540.717 639.59Z" fill="#BD7B4F"/>
  <path d="M637.948 523.077C637.128 523.077 636.718 522.667 636.307 521.846C608.41 421.333 570.666 361.436 563.282 350.359C509.538 269.538 449.23 256.821 417.641 256.821C416.82 256.821 416 256 416 255.179C416 254.359 416.82 253.538 417.641 253.538C449.641 253.949 511.179 266.667 565.743 348.718C573.128 359.795 610.871 420.103 639.179 521.026C640 521.846 639.179 522.667 637.948 523.077C638.359 523.077 638.359 523.077 637.948 523.077Z" fill="#BD7B4F"/>
  <path d="M328.205 639.59C327.794 639.59 327.384 639.59 326.974 639.179C326.153 638.769 326.153 637.538 326.974 637.128C353.23 609.231 376.615 581.333 386.871 565.333C449.23 470.154 430.358 405.333 413.538 374.974C413.128 374.154 413.538 373.333 413.948 372.923C414.769 372.513 415.589 372.923 415.999 373.333C433.23 404.513 452.923 470.564 389.333 566.974C379.076 582.974 355.281 611.282 329.025 639.179C329.025 639.59 328.615 639.59 328.205 639.59Z" fill="#BD7B4F"/>
  <path d="M435.692 639.59C435.281 639.59 435.281 639.59 434.871 639.59C434.051 639.179 433.64 638.359 434.051 637.538C463.999 570.256 473.846 522.667 475.897 509.538C492.307 414.769 455.384 363.077 431.999 340.513C431.589 340.103 431.179 338.872 431.999 338.462C432.41 338.051 433.64 337.641 434.051 338.462C457.846 361.436 495.179 413.949 478.769 509.949C476.717 523.077 466.871 571.077 436.922 638.359C436.922 639.179 436.512 639.59 435.692 639.59Z" fill="#BD7B4F"/>
  <path d="M91.8977 545.641C63.1797 545.641 31.59 544.41 1.64128 541.538C0.820771 541.538 0.00025779 540.718 0.410514 539.897C0.410514 539.077 1.23103 538.256 2.05154 538.667C75.8977 545.641 158.769 542.359 187.487 537.026C304.821 516.103 337.641 450.872 346.257 423.385C346.667 422.564 347.487 422.154 348.308 422.564C349.128 422.974 349.539 423.795 349.128 424.615C340.513 452.513 307.282 519.385 188.308 540.308C170.667 543.179 134.564 545.641 91.8977 545.641Z" fill="#BD7B4F"/>
  <path d="M118.154 639.59C117.334 639.59 116.924 639.18 116.513 638.359C116.103 637.539 116.924 636.718 117.744 636.308C218.257 608.41 278.154 570.667 289.231 563.282C370.052 509.539 382.77 449.231 382.77 417.641C382.77 416.821 383.59 416 384.411 416C385.231 416 386.052 416.821 386.052 417.641C385.642 450.051 373.334 511.59 290.872 566.154C279.795 573.539 219.898 611.282 118.154 639.59C118.565 639.59 118.565 639.59 118.154 639.59Z" fill="#BD7B4F"/>
  <path d="M198.564 433.231C165.334 433.231 123.077 422.564 73.0258 389.744C57.0258 379.077 28.7181 355.692 0.820707 329.026C0.000194058 328.615 0.000194058 327.385 0.820707 326.974C1.23096 326.154 2.46173 326.154 2.87199 326.974C30.7694 353.231 58.6669 376.615 74.6669 386.872C169.846 449.231 234.667 430.359 265.026 413.539C265.846 413.128 266.667 413.539 267.077 413.949C267.487 414.769 267.077 415.59 266.667 416C251.487 424.615 228.923 433.231 198.564 433.231Z" fill="#BD7B4F"/>
  <path d="M175.59 483.282C161.641 483.282 146.462 482.051 129.641 479.18C116.513 477.128 68.5129 467.282 1.23085 437.333C0.410335 436.923 7.87973e-05 436.103 0.410335 435.282C0.820592 434.462 1.6411 434.051 2.46162 434.462C69.7437 464.41 117.333 474.256 130.462 476.308C225.231 492.718 276.923 455.795 299.487 432.41C299.898 432 301.128 431.59 301.539 432.41C301.949 432.821 302.359 434.051 301.539 434.462C282.667 454.154 243.282 483.282 175.59 483.282Z" fill="#BD7B4F"/>
  <path d="M215.795 349.128H215.385C187.488 340.513 120.616 307.282 99.6928 188.308C94.7697 159.18 91.0774 76.3077 98.0518 2.05132C98.0518 1.2308 98.8723 0.410292 99.6928 0.820548C100.513 0.820548 101.334 1.64106 100.924 2.46157C93.9492 76.3077 97.2312 159.18 102.565 187.897C123.488 305.231 188.718 338.051 216.206 346.667C217.026 347.077 217.436 347.897 217.026 348.718C217.026 348.718 216.206 349.128 215.795 349.128Z" fill="#BD7B4F"/>
  <path d="M221.949 386.051C189.949 385.641 128.411 372.923 73.8464 290.872C66.4618 279.795 28.7182 219.487 0.410514 118.564C0.00025779 117.744 0.820771 116.923 1.64128 116.513C2.4618 116.103 3.28231 116.923 3.69256 117.744C31.59 218.256 69.3336 278.154 76.7182 289.231C130.462 370.051 190.769 382.769 222.359 382.769C223.18 382.769 224 383.59 224 384.41C223.18 385.231 222.769 386.051 221.949 386.051Z" fill="#BD7B4F"/>
  <path d="M224.821 267.077C224.411 267.077 223.59 266.667 223.59 266.256C206.359 235.077 186.667 169.026 250.257 72.6154C260.513 56.6154 284.308 28.3077 310.564 0.410306C310.975 -0.410206 312.205 -0.410206 312.616 0.410306C313.436 0.820563 313.436 2.05133 312.616 2.46159C286.359 30.359 262.975 58.2565 252.718 74.2565C190.359 169.436 209.231 234.256 226.052 264.615C226.462 265.436 226.052 266.256 225.641 266.667C225.641 267.077 225.231 267.077 224.821 267.077Z" fill="#BD7B4F"/>
  <path d="M206.359 301.949C205.949 301.949 205.539 301.949 205.129 301.539C181.334 278.564 144 226.051 160.411 130.051C162.462 116.923 172.308 68.9232 202.257 1.64113C202.667 0.820614 203.488 0.410357 204.308 0.820614C205.129 1.23087 205.539 2.05138 205.129 2.8719C175.18 70.1539 165.334 117.744 163.282 130.872C146.872 225.641 183.795 277.333 207.18 299.898C207.59 300.308 208 301.539 207.18 301.949C207.18 301.539 206.77 301.949 206.359 301.949Z" fill="#BD7B4F"/>
  <path d="M338.461 320C338.461 329.846 330.256 338.051 320 338.051C309.743 338.051 301.538 329.846 301.538 320C301.538 310.154 309.743 301.949 320 301.949C330.256 301.949 338.461 309.744 338.461 320Z" fill="#BD7B4F"/>
</svg>
