<svg width="275" height="275" viewBox="0 0 275 275" fill="none" xmlns="http://www.w3.org/2000/svg">
<path d="M192.8 248.011C147.466 248.011 110.6 211.145 110.6 165.811C110.6 165.459 110.953 165.106 111.305 165.106C111.658 165.106 112.011 165.459 112.011 165.811C112.011 210.439 148.348 246.6 192.8 246.6C193.153 246.6 193.505 246.953 193.505 247.306C193.505 247.659 193.153 248.011 192.8 248.011Z" fill="#BC7A4E"/>
<path d="M192.8 248.012C192.447 248.012 192.094 247.659 192.094 247.306C192.094 246.953 192.447 246.6 192.8 246.6C237.428 246.6 273.589 210.263 273.589 165.811V0.705581C273.589 0.35279 273.942 0 274.294 0C274.647 0 275 0.35279 275 0.705581V165.811C275 211.145 238.133 248.012 192.8 248.012Z" fill="#BC7A4E"/>
<path d="M192.8 242.191C172.514 242.191 153.287 234.253 138.999 219.965C124.535 205.5 116.597 186.45 116.597 165.988L117.303 165.811H118.008C118.008 165.811 118.008 165.811 118.008 165.988C118.008 186.097 125.946 204.971 140.058 219.083C154.169 233.194 173.044 240.956 192.976 240.956H193.153C234.429 240.956 267.944 207.264 267.944 165.988V0.705581C267.944 0.35279 268.297 0 268.65 0C269.003 0 269.355 0.35279 269.355 0.705581V165.811C269.179 207.793 234.958 242.014 192.8 242.191Z" fill="#BC7A4E"/>
<path d="M192.8 236.369C174.102 236.369 156.462 229.137 143.233 215.908C129.827 202.678 122.418 185.038 122.418 166.164V165.988C122.418 165.635 122.771 165.282 123.124 165.282C123.477 165.282 123.829 165.459 123.829 165.811V165.988C123.829 184.686 131.238 201.972 144.291 215.026C157.344 227.903 174.631 235.135 192.976 235.135C193.153 235.135 193.153 235.135 193.329 235.135C231.254 234.958 262.123 203.913 262.123 165.988V0.705581C262.123 0.35279 262.476 0 262.829 0C263.182 0 263.534 0.35279 263.534 0.705581V165.811C263.534 204.442 232.136 236.193 193.329 236.369C192.976 236.369 192.8 236.369 192.8 236.369Z" fill="#BC7A4E"/>
<path d="M192.8 230.548C157.344 230.548 128.416 201.796 128.063 166.341V165.811C128.063 165.459 128.416 165.106 128.768 165.106C129.121 165.106 129.474 165.459 129.474 165.811V166.341C129.65 201.09 158.05 229.314 192.8 229.314C192.976 229.314 193.153 229.314 193.329 229.314C228.079 229.137 256.302 200.561 256.302 165.988V0.705581C256.302 0.35279 256.655 0 257.008 0C257.36 0 257.713 0.35279 257.713 0.705581V165.811C257.713 201.267 228.961 230.196 193.505 230.548C193.153 230.548 192.976 230.548 192.8 230.548Z" fill="#BC7A4E"/>
<path d="M192.8 224.727C160.696 224.727 134.237 198.797 133.884 166.517V165.811C133.884 165.459 134.237 165.106 134.589 165.106C134.942 165.106 135.295 165.459 135.295 165.811V166.517C135.648 198.092 161.402 223.493 192.8 223.493C192.976 223.493 193.153 223.493 193.505 223.493C224.904 223.14 250.481 197.386 250.481 165.988V0.705581C250.481 0.35279 250.834 0 251.187 0C251.539 0 251.892 0.35279 251.892 0.705581V165.811C251.892 197.915 225.786 224.375 193.682 224.727C193.153 224.727 192.976 224.727 192.8 224.727Z" fill="#BC7A4E"/>
<path d="M192.8 218.906C163.871 218.906 140.234 195.622 139.705 166.693V165.811C139.705 165.459 140.058 165.106 140.411 165.106C140.763 165.106 141.116 165.459 141.116 165.811V166.693C141.469 194.917 164.753 217.672 192.8 217.672C193.153 217.672 193.329 217.672 193.682 217.672C221.729 217.319 244.66 194.035 244.66 165.988V0.705581C244.66 0.35279 245.013 0 245.366 0C245.718 0 246.071 0.35279 246.071 0.705581V165.811C246.071 194.564 222.611 218.377 193.858 218.906C193.329 218.906 192.976 218.906 192.8 218.906Z" fill="#BC7A4E"/>
<path d="M192.8 213.085C167.223 213.085 146.055 192.623 145.526 166.87C145.526 166.693 145.526 166.517 145.526 166.341V165.988C145.526 165.635 145.879 165.282 146.232 165.282C146.584 165.282 146.937 165.635 146.937 165.988V166.341C146.937 166.517 146.937 166.693 146.937 166.87C147.466 192.094 168.457 212.38 193.858 211.851C218.73 211.321 238.839 190.683 238.839 165.988V0.705581C238.839 0.35279 239.192 0 239.545 0C239.897 0 240.25 0.35279 240.25 0.705581V165.811C240.25 191.389 219.436 212.556 194.035 213.085C193.505 213.085 193.153 213.085 192.8 213.085Z" fill="#BC7A4E"/>
<path d="M192.8 207.264C170.574 207.264 152.053 189.448 151.347 167.046C151.347 166.693 151.347 166.517 151.347 166.164V165.811C151.347 165.459 151.7 165.106 152.053 165.106C152.405 165.106 152.758 165.459 152.758 165.811V166.164C152.758 166.341 152.758 166.693 152.758 166.87C153.287 188.919 171.809 206.382 194.035 205.853C215.908 205.324 233.018 187.684 233.018 165.811V0.705581C233.018 0.35279 233.371 0 233.724 0C234.076 0 234.429 0.35279 234.429 0.705581V165.811C234.429 188.39 216.79 206.559 194.211 207.264C193.505 207.264 193.153 207.264 192.8 207.264Z" fill="#BC7A4E"/>
<path d="M192.8 201.443C183.804 201.443 175.16 198.092 168.634 191.918C161.578 185.391 157.697 176.572 157.344 167.223C157.344 166.87 157.344 166.341 157.344 165.988C157.344 165.635 157.697 165.282 158.05 165.282C158.403 165.282 158.756 165.459 158.756 165.811C158.756 166.341 158.756 166.693 158.756 167.046C159.108 176.219 162.989 184.686 169.692 190.86C176.395 197.033 185.215 200.385 194.211 200.032C212.733 199.326 227.197 184.333 227.197 165.811V0.705581C227.197 0.35279 227.55 0 227.903 0C228.255 0 228.608 0.35279 228.608 0.705581V165.811C228.608 185.038 213.615 200.738 194.387 201.443C193.682 201.443 193.153 201.443 192.8 201.443Z" fill="#BC7A4E"/>
<path d="M192.8 195.622C177.101 195.622 163.871 183.275 162.989 167.399C162.989 166.87 162.989 166.341 162.989 165.988C162.989 165.635 163.342 165.282 163.695 165.282C164.048 165.282 164.4 165.635 164.4 165.988C164.4 166.517 164.4 166.87 164.4 167.399C165.106 183.098 178.512 195.269 194.211 194.387C209.381 193.682 221.2 181.158 221.2 165.988V0.705581C221.2 0.35279 221.552 0 221.905 0C222.258 0 222.611 0.35279 222.611 0.705581V165.811C222.611 181.687 210.263 194.74 194.387 195.622C193.682 195.622 193.329 195.622 192.8 195.622Z" fill="#BC7A4E"/>
<path d="M163.695 109.718C163.342 109.718 162.989 109.365 162.989 109.012C162.989 64.5606 126.652 28.2232 82.2001 28.2232C81.8473 28.2232 81.4945 27.8704 81.4945 27.5176C81.4945 27.1648 81.8473 26.812 82.2001 26.812C127.534 26.812 164.4 63.6786 164.4 109.012C164.224 109.541 164.047 109.718 163.695 109.718Z" fill="#BC7A4E"/>
<path d="M0.70558 275C0.35279 275 0 274.647 0 274.294V109.188C0 63.8549 36.8666 26.9883 82.2001 26.9883C82.5529 26.9883 82.9057 27.3411 82.9057 27.6939C82.9057 28.0467 82.5529 28.3994 82.2001 28.3994C37.5722 28.223 1.23477 64.5604 1.23477 109.188V274.294C1.23477 274.647 1.05837 275 0.70558 275Z" fill="#BC7A4E"/>
<path d="M6.52663 275C6.17384 275 5.82104 274.647 5.82104 274.295V109.189C5.82104 67.2066 40.0417 32.986 82.0237 32.8096H82.2001C124.182 32.8096 158.403 66.8538 158.579 109.012L157.874 109.189H157.168C157.168 109.189 157.168 109.189 157.168 109.012C156.992 67.7358 123.477 34.0443 82.2001 34.0443H82.0237C40.7473 34.2207 7.05581 67.9122 7.05581 109.189V274.295C7.05581 274.647 6.87942 275 6.52663 275Z" fill="#BC7A4E"/>
<path d="M12.3477 275C11.9949 275 11.6421 274.647 11.6421 274.295V109.189C11.6421 70.5581 43.0404 38.807 81.8474 38.6306C82.0238 38.6306 82.0238 38.6306 82.2001 38.6306C121.007 38.6306 152.582 70.029 152.758 108.836V109.012C152.758 109.365 152.405 109.718 152.053 109.718C151.7 109.718 151.347 109.541 151.347 109.189V109.012C151.171 70.9109 120.125 40.0418 82.2001 40.0418C82.0238 40.0418 82.0238 40.0418 81.8474 40.0418C43.9224 40.2182 13.0533 71.2637 13.0533 109.189V274.295C12.8769 274.647 12.7005 275 12.3477 275Z" fill="#BC7A4E"/>
<path d="M18.1687 275C17.8159 275 17.4631 274.647 17.4631 274.294V109.188C17.4631 73.733 46.2155 44.8042 81.671 44.4514C81.8474 44.4514 82.0238 44.4514 82.2001 44.4514C117.656 44.4514 146.584 73.2038 146.937 108.659V109.188C146.937 109.541 146.584 109.894 146.232 109.894C145.879 109.894 145.526 109.541 145.526 109.188V108.659C145.35 73.9094 116.95 45.6862 82.2001 45.6862C82.0238 45.6862 81.8474 45.6862 81.671 45.6862C46.9211 45.8626 18.6979 74.4386 18.6979 109.012V274.118C18.6979 274.647 18.5215 275 18.1687 275Z" fill="#BC7A4E"/>
<path d="M23.9898 275C23.637 275 23.2842 274.647 23.2842 274.294V109.188C23.2842 77.0845 49.3907 50.6253 81.4946 50.2725C81.671 50.2725 82.0238 50.2725 82.2002 50.2725C114.304 50.2725 140.763 76.2025 141.116 108.483V109.188C141.116 109.541 140.763 109.894 140.411 109.894C140.058 109.894 139.705 109.541 139.705 109.188V108.483C139.352 76.9081 113.598 51.5072 82.2002 51.5072C82.0238 51.5072 81.8474 51.5072 81.4946 51.5072C50.0962 51.86 24.5189 77.6137 24.5189 109.012V274.118C24.5189 274.647 24.3426 275 23.9898 275Z" fill="#BC7A4E"/>
<path d="M29.8108 275C29.458 275 29.1052 274.647 29.1052 274.294V109.188C29.1052 80.436 52.5658 56.6227 81.3182 56.0935C81.671 56.0935 81.8474 56.0935 82.2002 56.0935C96.1354 56.0935 109.189 61.3854 119.067 71.0871C129.298 80.9652 134.942 94.1949 135.119 108.306C135.119 108.483 135.119 108.659 135.119 108.836V109.188C135.119 109.541 134.766 109.894 134.413 109.894C134.06 109.894 133.708 109.541 133.708 109.188V108.836C133.708 108.659 133.708 108.483 133.708 108.306C133.531 94.5476 127.886 81.4944 118.008 71.9691C108.13 62.2673 95.077 57.1519 81.1418 57.3283C53.095 57.6811 30.1636 80.9652 30.1636 109.012V274.118C30.34 274.647 30.1636 275 29.8108 275Z" fill="#BC7A4E"/>
<path d="M35.6319 275C35.2791 275 34.9263 274.647 34.9263 274.294V109.189C34.9263 83.6113 55.7409 62.4438 81.1418 61.9147C107.248 61.3855 128.768 82.2001 129.298 108.13C129.298 108.307 129.298 108.483 129.298 108.836V109.189C129.298 109.541 128.945 109.894 128.592 109.894C128.239 109.894 127.887 109.541 127.887 109.189V108.836C127.887 108.659 127.887 108.483 127.887 108.307C127.534 82.9057 106.543 62.6202 81.1418 63.1494C56.2701 63.6786 36.161 84.3168 36.161 109.012V274.118C36.161 274.647 35.9846 275 35.6319 275Z" fill="#BC7A4E"/>
<path d="M41.4529 275C41.1001 275 40.7473 274.647 40.7473 274.294V109.188C40.7473 86.6099 58.3868 68.4412 80.9654 67.7356C92.0783 67.3828 102.486 71.4399 110.6 79.0249C118.714 86.6099 123.3 96.8408 123.477 107.954C123.477 108.306 123.477 108.483 123.477 108.836V109.188C123.477 109.541 123.124 109.894 122.771 109.894C122.418 109.894 122.065 109.541 122.065 109.188V108.836C122.065 108.659 122.065 108.306 122.065 108.13C121.713 97.37 117.303 87.4918 109.541 80.0832C101.78 72.6746 91.5491 68.7939 80.789 69.1467C58.916 69.6759 41.8057 87.3154 41.8057 109.188V274.294C41.9821 274.647 41.8057 275 41.4529 275Z" fill="#BC7A4E"/>
<path d="M47.2739 275C46.9211 275 46.5684 274.647 46.5684 274.294V109.189C46.5684 89.9615 61.5619 74.2623 80.789 73.5568C90.3144 73.204 99.3105 76.5555 106.366 83.0821C113.422 89.6087 117.303 98.4285 117.656 107.777C117.656 108.13 117.656 108.659 117.656 109.012C117.656 109.365 117.303 109.718 116.95 109.718C116.597 109.718 116.244 109.541 116.244 109.189C116.244 108.659 116.244 108.307 116.244 107.954C115.892 98.7813 112.011 90.3143 105.308 84.1405C98.6049 77.9666 89.7852 74.6151 80.789 74.9679C62.2675 75.6735 47.8031 90.6671 47.8031 109.189V274.294C47.8031 274.647 47.6267 275 47.2739 275Z" fill="#BC7A4E"/>
<path d="M53.095 275C52.7422 275 52.3894 274.647 52.3894 274.294V109.188C52.3894 93.3129 64.7371 80.2596 80.6126 79.3776C88.5504 79.0248 96.1354 81.6708 102.133 86.9626C107.954 92.2545 111.482 99.6631 111.835 107.601C111.835 108.13 111.835 108.659 111.835 109.012C111.835 109.365 111.482 109.718 111.129 109.718C110.776 109.718 110.423 109.365 110.423 109.012C110.423 108.483 110.423 108.13 110.423 107.601C110.071 100.016 106.719 92.9601 101.074 87.8446C95.4298 82.7291 88.1976 80.0832 80.6126 80.436C65.4426 81.1416 53.6242 93.6656 53.6242 108.836V273.941C53.6242 274.647 53.4478 275 53.095 275Z" fill="#BC7A4E"/>
<path d="M163.695 166.517C163.342 166.517 162.989 166.164 162.989 165.811V109.188C162.989 108.836 163.342 108.483 163.695 108.483C164.048 108.483 164.4 108.836 164.4 109.188V165.811C164.224 166.164 164.048 166.517 163.695 166.517Z" fill="#BC7A4E"/>
<path d="M157.874 166.517C157.521 166.517 157.168 166.164 157.168 165.811V109.188C157.168 108.836 157.521 108.483 157.874 108.483C158.226 108.483 158.579 108.836 158.579 109.188V165.811C158.403 166.164 158.226 166.517 157.874 166.517Z" fill="#BC7A4E"/>
<path d="M152.053 166.517C151.7 166.517 151.347 166.164 151.347 165.811V109.188C151.347 108.836 151.7 108.483 152.053 108.483C152.405 108.483 152.758 108.836 152.758 109.188V165.811C152.582 166.164 152.405 166.517 152.053 166.517Z" fill="#BC7A4E"/>
<path d="M146.232 166.517C145.879 166.517 145.526 166.164 145.526 165.811V109.188C145.526 108.836 145.879 108.483 146.232 108.483C146.584 108.483 146.937 108.836 146.937 109.188V165.811C146.761 166.164 146.584 166.517 146.232 166.517Z" fill="#BC7A4E"/>
<path d="M140.411 166.517C140.058 166.517 139.705 166.164 139.705 165.811V109.188C139.705 108.836 140.058 108.483 140.411 108.483C140.763 108.483 141.116 108.836 141.116 109.188V165.811C140.94 166.164 140.763 166.517 140.411 166.517Z" fill="#BC7A4E"/>
<path d="M134.589 166.517C134.237 166.517 133.884 166.164 133.884 165.811V109.188C133.884 108.836 134.237 108.483 134.589 108.483C134.942 108.483 135.295 108.836 135.295 109.188V165.811C135.119 166.164 134.942 166.517 134.589 166.517Z" fill="#BC7A4E"/>
<path d="M128.768 166.517C128.416 166.517 128.063 166.164 128.063 165.811V109.188C128.063 108.836 128.416 108.483 128.768 108.483C129.121 108.483 129.474 108.836 129.474 109.188V165.811C129.298 166.164 129.121 166.517 128.768 166.517Z" fill="#BC7A4E"/>
<path d="M122.947 166.517C122.595 166.517 122.242 166.164 122.242 165.811V109.188C122.242 108.836 122.595 108.483 122.947 108.483C123.3 108.483 123.653 108.836 123.653 109.188V165.811C123.477 166.164 123.3 166.517 122.947 166.517Z" fill="#BC7A4E"/>
<path d="M117.126 166.517C116.774 166.517 116.421 166.164 116.421 165.811V109.188C116.421 108.836 116.774 108.483 117.126 108.483C117.479 108.483 117.832 108.836 117.832 109.188V165.811C117.832 166.164 117.479 166.517 117.126 166.517Z" fill="#BC7A4E"/>
<path d="M111.305 166.517C110.953 166.517 110.6 166.164 110.6 165.811V109.188C110.6 108.836 110.953 108.483 111.305 108.483C111.658 108.483 112.011 108.836 112.011 109.188V165.811C112.011 166.164 111.658 166.517 111.305 166.517Z" fill="#BC7A4E"/>
<path d="M274.294 275H0.705581C0.35279 275 0 274.647 0 274.294V0.705581C0 0.35279 0.35279 0 0.705581 0H274.294C274.647 0 275 0.35279 275 0.705581V274.294C275 274.647 274.647 275 274.294 275ZM1.23477 273.589H273.589V1.23477H1.23477V273.589Z" fill="#BC7A4E"/>
<path d="M101.338 112.024C102.117 101.434 94.1641 92.2175 83.574 91.4382C72.9838 90.6589 63.7671 98.6121 62.9877 109.202C62.2084 119.792 70.1617 129.009 80.7518 129.789C91.342 130.568 100.559 122.615 101.338 112.024Z" fill="#BC7A4E"/>
<path d="M193.329 183.098C188.037 183.098 183.098 180.981 179.394 177.277C175.689 173.573 173.573 168.634 173.573 163.342C173.573 158.05 175.689 153.111 179.394 149.23C183.098 145.526 188.037 143.409 193.329 143.409C198.621 143.409 203.56 145.526 207.264 149.23C210.969 152.935 213.085 157.874 213.085 163.165C213.085 174.102 204.266 183.098 193.329 183.098ZM193.329 144.82C188.39 144.82 183.627 146.761 180.276 150.289C176.748 153.816 174.808 158.403 174.808 163.342C174.808 168.281 176.748 172.867 180.276 176.395C183.804 179.923 188.39 181.863 193.329 181.863C198.268 181.863 202.854 179.923 206.382 176.395C209.91 172.867 211.85 168.281 211.85 163.342C211.85 158.403 209.91 153.816 206.382 150.289C202.854 146.584 198.268 144.82 193.329 144.82Z" fill="#BC7A4E"/>
</svg>
