<svg width="450" height="450" viewBox="0 0 450 450" fill="none" xmlns="http://www.w3.org/2000/svg">
<g clip-path="url(#clip0)">
<path d="M224.856 40.9878C224.278 40.9878 223.701 40.4105 223.701 39.8332V1.15459C223.701 0.577293 224.278 0 224.856 0C225.433 0 226.01 0.577293 226.01 1.15459V39.8332C226.01 40.4105 225.433 40.9878 224.856 40.9878Z" fill="#BC7A4E"/>
<path d="M39.8332 226.01H2.30913C1.73183 226.01 1.15454 225.433 1.15454 224.856C1.15454 224.278 1.73183 223.701 2.30913 223.701H39.8332C40.4105 223.701 40.9878 224.278 40.9878 224.856C40.9878 225.433 40.4105 226.01 39.8332 226.01Z" fill="#BC7A4E"/>
<path d="M192.816 43.8744C192.239 43.8744 191.95 43.5857 191.661 43.0084L184.445 1.73198C184.445 1.15469 184.734 0.577393 185.311 0.577393C185.888 0.577393 186.466 0.866039 186.466 1.44333L193.682 42.7198C193.97 43.0084 193.682 43.5857 192.816 43.8744Z" fill="#BC7A4E"/>
<path d="M161.642 51.9563C161.065 51.9563 160.776 51.6676 160.488 51.379L142.88 1.73176C142.591 1.15447 142.88 0.577177 143.457 0.28853C144.035 -0.000116169 144.612 0.28853 144.901 0.865824L162.508 50.513C162.797 51.0903 162.508 51.6676 161.931 51.9563H161.642Z" fill="#BC7A4E"/>
<path d="M132.489 65.8113C132.2 65.8113 131.623 65.5226 131.623 65.234L94.676 1.73174C94.3873 1.15445 94.676 0.577153 94.9646 0.288507C95.5419 -0.000139922 96.1192 0.288507 96.4078 0.577153L133.355 64.0794C133.643 64.6567 133.355 65.234 133.066 65.5226C132.777 65.8113 132.489 65.8113 132.489 65.8113Z" fill="#BC7A4E"/>
<path d="M105.933 84.285C105.645 84.285 105.356 84.285 105.067 83.9964L35.7922 2.30938C35.5035 1.73208 35.5035 1.15479 35.7922 0.866143C36.3695 0.577497 36.9468 0.577497 37.2354 0.866143L106.511 82.5531C106.799 83.1304 106.799 83.7077 106.511 83.9964C106.511 84.285 106.222 84.285 105.933 84.285Z" fill="#BC7A4E"/>
<path d="M83.1301 107.088C82.8414 107.088 82.5528 107.088 82.5528 106.799L0.288506 38.1014C-0.00014016 37.5241 -0.00014016 36.9468 0.288506 36.3695C0.577153 35.7922 1.44309 35.7922 1.73174 36.3695L83.996 105.356C84.5733 105.645 84.5733 106.511 83.996 106.799C83.7074 107.088 83.4187 107.088 83.1301 107.088Z" fill="#BC7A4E"/>
<path d="M64.6568 133.643C64.3681 133.643 64.3681 133.643 64.0795 133.643L0.577249 97.2738C-4.38169e-05 96.6966 -0.28869 96.1193 -4.38094e-05 95.542C0.288603 94.9647 0.865896 94.9647 1.44319 95.2533L64.9454 131.623C65.5227 131.911 65.5227 132.489 65.2341 133.066C65.5227 133.355 64.9454 133.643 64.6568 133.643Z" fill="#BC7A4E"/>
<path d="M51.0904 162.797H50.8018L0.577293 144.035C0.288647 143.746 0 143.169 0 142.591C0.288647 142.014 0.86594 141.725 1.44323 142.014L51.3791 160.488C51.9564 160.776 52.245 161.353 51.9564 161.931C51.9564 162.508 51.3791 162.797 51.0904 162.797Z" fill="#BC7A4E"/>
<path d="M42.7197 193.971L0.86594 186.466C0.288647 186.466 0 185.889 0 185.311C0 184.734 0.577293 184.445 1.15459 184.445L42.7197 191.95C43.297 191.95 43.5856 192.527 43.5856 193.105C43.5856 193.393 43.297 193.971 42.7197 193.971Z" fill="#BC7A4E"/>
<path d="M447.691 226.01H410.167C409.59 226.01 409.012 225.433 409.012 224.856C409.012 224.278 409.59 223.701 410.167 223.701H447.691C448.268 223.701 448.846 224.278 448.846 224.856C448.846 225.433 448.268 226.01 447.691 226.01Z" fill="#BC7A4E"/>
<path d="M257.184 43.8768C256.895 43.8768 256.895 43.8768 257.184 43.8768C256.318 43.8768 256.03 43.2995 256.03 42.7222L263.246 1.44577C263.246 0.868481 263.823 0.579834 264.4 0.579834C264.978 0.579834 265.266 1.15713 265.266 1.73442L258.05 43.0109C258.05 43.5882 257.473 43.8768 257.184 43.8768Z" fill="#BC7A4E"/>
<path d="M288.358 51.9563H288.069C287.492 51.6676 287.203 51.0903 287.492 50.513L305.1 0.865824C305.388 0.28853 305.966 -0.000116169 306.543 0.28853C307.12 0.577177 307.409 1.15447 307.12 1.73176L289.513 51.379C289.224 51.9563 288.647 51.9563 288.358 51.9563Z" fill="#BC7A4E"/>
<path d="M317.511 65.8112C317.223 65.8112 317.223 65.8112 316.934 65.5226C316.357 65.2339 316.357 64.6567 316.645 64.0794L353.592 0.577122C353.881 -0.000170879 354.458 -0.000170879 355.035 0.288476C355.613 0.577122 355.613 1.15442 355.324 1.73171L318.377 65.2339C318.089 65.5226 317.8 65.8112 317.511 65.8112Z" fill="#BC7A4E"/>
<path d="M343.778 84.2847C343.489 84.2847 343.201 84.2847 343.201 83.996C342.623 83.7074 342.623 82.8415 343.201 82.5528L412.476 0.865831C412.765 0.288538 413.631 0.288538 413.919 0.865831C414.496 1.15448 414.496 2.02042 413.919 2.30906L344.644 83.996C344.355 84.2847 344.067 84.2847 343.778 84.2847Z" fill="#BC7A4E"/>
<path d="M366.581 107.088C366.293 107.088 366.004 107.088 365.715 106.799C365.427 106.222 365.427 105.645 365.715 105.356L447.98 36.3693C448.557 36.0807 449.134 36.0807 449.423 36.3693C449.711 36.9466 449.711 37.5239 449.423 37.8126L367.447 106.799C367.159 107.088 366.87 107.088 366.581 107.088Z" fill="#BC7A4E"/>
<path d="M385.055 133.643C384.766 133.643 384.189 133.355 384.189 133.066C383.9 132.489 384.189 131.911 384.477 131.623L447.98 95.2534C448.557 94.9647 449.134 95.2533 449.423 95.542C449.711 96.1193 449.423 96.6966 449.134 96.9852L385.632 133.355C385.632 133.355 385.343 133.643 385.055 133.643Z" fill="#BC7A4E"/>
<path d="M398.91 162.796C398.332 162.796 398.044 162.508 398.044 162.219C397.755 161.642 398.044 161.064 398.621 160.776L448.557 142.302C449.134 142.014 449.711 142.302 450 142.88C450.289 143.457 450 144.034 449.423 144.323L399.487 162.796C399.198 162.796 398.91 162.796 398.91 162.796Z" fill="#BC7A4E"/>
<path d="M407.28 193.97C406.703 193.97 406.414 193.682 406.126 193.104C406.126 192.527 406.414 191.95 406.992 191.95L448.557 184.445C449.134 184.445 449.711 184.733 449.711 185.311C449.711 185.888 449.423 186.465 448.845 186.465L407.28 193.97Z" fill="#BC7A4E"/>
<path d="M224.856 449.711C224.278 449.711 223.701 449.134 223.701 448.557V409.878C223.701 409.301 224.278 408.724 224.856 408.724C225.433 408.724 226.01 409.301 226.01 409.878V448.557C226.01 449.134 225.433 449.711 224.856 449.711Z" fill="#BC7A4E"/>
<path d="M39.8332 226.01H2.30913C1.73183 226.01 1.15454 225.433 1.15454 224.856C1.15454 224.278 1.73183 223.701 2.30913 223.701H39.8332C40.4105 223.701 40.9878 224.278 40.9878 224.856C40.9878 225.433 40.4105 226.01 39.8332 226.01Z" fill="#BC7A4E"/>
<path d="M185.6 449.423C185.6 449.423 185.311 449.423 185.6 449.423C184.734 449.423 184.445 448.846 184.445 448.268L191.661 406.992C191.661 406.415 192.239 406.126 192.816 406.126C193.393 406.126 193.682 406.703 193.682 407.281L186.466 448.557C186.466 449.134 186.177 449.423 185.6 449.423Z" fill="#BC7A4E"/>
<path d="M144.035 449.423H143.746C143.169 449.134 142.88 448.557 143.169 447.98L160.776 398.332C161.065 397.755 161.642 397.466 162.219 397.755C162.797 398.044 163.085 398.621 162.797 399.198L145.189 448.846C144.612 449.134 144.323 449.423 144.035 449.423Z" fill="#BC7A4E"/>
<path d="M95.5421 450C95.2535 450 95.2535 450 94.9648 449.711C94.3875 449.423 94.3875 448.845 94.6762 448.268L131.623 384.766C131.912 384.189 132.489 384.189 133.066 384.477C133.643 384.766 133.643 385.343 133.355 385.92L96.4081 449.423C96.4081 449.711 95.8308 450 95.5421 450Z" fill="#BC7A4E"/>
<path d="M36.6582 449.423C36.3696 449.423 36.0809 449.423 36.0809 449.134C35.5036 448.845 35.5036 447.979 36.0809 447.691L105.356 366.004C105.645 365.426 106.511 365.426 106.799 366.004C107.377 366.292 107.377 367.158 106.799 367.447L37.5242 449.134C37.2355 449.423 36.9469 449.423 36.6582 449.423Z" fill="#BC7A4E"/>
<path d="M1.15469 413.919C0.866044 413.919 0.577397 413.919 0.288751 413.631C0.000103988 413.053 0.000103988 412.476 0.288751 412.187L82.553 343.201C83.1303 342.912 83.7076 342.912 83.9963 343.201C84.2849 343.778 84.2849 344.355 83.9963 344.644L1.73198 413.631C1.44334 413.631 1.44334 413.919 1.15469 413.919Z" fill="#BC7A4E"/>
<path d="M1.15469 355.035C0.866044 355.035 0.288751 354.747 0.288751 354.458C0.000104204 353.881 0.288751 353.303 0.577397 353.015L64.0796 316.645C64.6569 316.357 65.2342 316.645 65.5229 316.934C65.8115 317.511 65.5229 318.088 65.2342 318.377L1.73198 354.747C1.44334 355.035 1.15469 355.035 1.15469 355.035Z" fill="#BC7A4E"/>
<path d="M1.15447 307.986C0.577177 307.986 0.28853 307.697 0.28853 307.409C-0.000116184 306.831 0.28853 306.254 0.865824 305.966L50.8017 287.492C51.379 287.203 51.9563 287.492 52.2449 288.069C52.5336 288.647 52.2449 289.224 51.6676 289.513L1.73176 307.986C1.44312 307.986 1.15447 307.986 1.15447 307.986Z" fill="#BC7A4E"/>
<path d="M1.15459 265.555C0.577293 265.555 0 265.266 0 264.689C0 264.112 0.288647 263.534 0.86594 263.534L42.431 256.03C43.0083 256.03 43.5856 256.318 43.5856 256.895C43.5856 257.473 43.297 258.05 42.7197 258.05L1.15459 265.555Z" fill="#BC7A4E"/>
<path d="M447.691 226.01H410.167C409.59 226.01 409.012 225.433 409.012 224.856C409.012 224.278 409.59 223.701 410.167 223.701H447.691C448.268 223.701 448.846 224.278 448.846 224.856C448.846 225.433 448.268 226.01 447.691 226.01Z" fill="#BC7A4E"/>
<path d="M264.4 449.423C263.823 449.423 263.534 449.134 263.246 448.557L256.03 407.281C256.03 406.703 256.318 406.126 256.895 406.126C257.473 406.126 258.05 406.415 258.05 406.992L265.266 448.268C265.555 448.846 264.978 449.423 264.4 449.423Z" fill="#BC7A4E"/>
<path d="M305.965 449.423C305.388 449.423 305.099 449.134 304.811 448.846L287.203 399.198C286.915 398.621 287.203 398.044 287.781 397.755C288.358 397.466 288.935 397.755 289.224 398.332L306.831 447.98C307.12 448.557 306.831 449.134 306.254 449.423C306.254 449.423 306.254 449.423 305.965 449.423Z" fill="#BC7A4E"/>
<path d="M354.169 450C353.881 450 353.303 449.712 353.303 449.423L316.357 385.921C316.068 385.343 316.357 384.766 316.645 384.477C317.223 384.189 317.8 384.477 318.088 384.766L355.035 448.268C355.324 448.846 355.035 449.423 354.747 449.712C354.747 449.712 354.458 450 354.169 450Z" fill="#BC7A4E"/>
<path d="M413.053 449.423C412.765 449.423 412.476 449.423 412.187 449.134L342.912 367.447C342.624 366.87 342.624 366.292 342.912 366.004C343.49 365.715 344.067 365.715 344.356 366.004L413.631 447.691C413.919 448.268 413.919 448.845 413.631 449.134C413.631 449.423 413.342 449.423 413.053 449.423Z" fill="#BC7A4E"/>
<path d="M448.845 413.919C448.557 413.919 448.268 413.919 448.268 413.631L366.004 344.644C365.426 344.355 365.426 343.489 366.004 343.201C366.292 342.623 367.158 342.623 367.447 343.201L449.711 412.187C450.289 412.476 450.289 413.342 449.711 413.631C449.423 413.631 449.134 413.919 448.845 413.919Z" fill="#BC7A4E"/>
<path d="M448.845 355.035C448.557 355.035 448.557 355.035 448.268 355.035L384.766 318.666C384.189 318.377 384.189 317.8 384.477 317.223C384.766 316.645 385.343 316.645 385.92 316.934L449.423 353.303C450 353.592 450 354.169 449.711 354.747C449.423 354.747 449.134 355.035 448.845 355.035Z" fill="#BC7A4E"/>
<path d="M448.845 307.986H448.557L398.621 289.513C398.044 289.224 397.755 288.647 398.044 288.069C398.332 287.492 398.91 287.203 399.487 287.492L449.423 305.966C450 306.254 450.289 306.831 450 307.409C449.711 307.697 449.134 307.986 448.845 307.986Z" fill="#BC7A4E"/>
<path d="M448.845 265.555C448.845 265.555 448.557 265.555 448.845 265.555L406.992 258.05C406.414 258.05 406.126 257.473 406.126 256.895C406.126 256.318 406.703 256.03 407.28 256.03L448.845 263.534C449.423 263.534 449.711 264.112 449.711 264.689C449.711 265.266 449.423 265.555 448.845 265.555Z" fill="#BC7A4E"/>
<path d="M132.489 65.8114C132.2 65.8114 131.623 65.5228 131.623 65.2341C131.334 64.6568 131.623 64.0795 131.911 63.7909C136.53 60.9044 141.437 58.5953 146.344 56.2861C146.921 55.9974 147.498 56.2861 147.787 56.8634C148.076 57.4407 147.787 58.018 147.21 58.3066C142.591 60.6158 137.684 62.925 133.066 65.8114C132.777 65.8114 132.489 65.8114 132.489 65.8114Z" fill="#BC7A4E"/>
<path d="M105.933 84.2848C105.645 84.2848 105.356 84.2848 105.067 83.9961C104.779 83.4188 104.779 82.8415 105.067 82.5529C109.108 79.0891 113.438 75.914 118.056 72.7389C118.634 72.4503 119.211 72.4503 119.5 73.0276C119.788 73.6049 119.788 74.1821 119.211 74.4708C114.593 77.6459 110.552 80.821 106.511 84.2848C106.511 84.2848 106.222 84.2848 105.933 84.2848Z" fill="#BC7A4E"/>
<path d="M42.7195 193.971C41.8536 193.971 41.5649 193.393 41.5649 192.816C42.4309 187.332 43.5855 182.136 45.0287 176.94C45.3174 176.363 45.8946 176.074 46.4719 176.074C47.0492 176.363 47.3379 176.94 47.3379 177.518C45.8946 182.425 44.7401 187.909 43.8741 193.105C43.5855 193.393 43.2968 193.971 42.7195 193.971Z" fill="#BC7A4E"/>
<path d="M51.0905 162.797H50.8019C50.2246 162.508 49.9359 161.931 50.2246 161.353C51.9564 156.446 53.977 151.539 56.5748 146.344C56.8634 145.767 57.4407 145.478 58.018 145.767C58.5953 146.055 58.884 146.632 58.5953 147.21C56.2861 152.405 54.2656 157.312 52.5337 161.931C51.9564 162.508 51.3792 162.797 51.0905 162.797Z" fill="#BC7A4E"/>
<path d="M83.1301 107.088C82.8415 107.088 82.5528 107.088 82.5528 106.799C81.9755 106.511 81.9755 105.645 82.5528 105.356C86.3053 101.026 89.769 96.9852 93.5214 93.2328C93.8101 92.9442 94.676 92.9442 94.9647 93.2328C95.2533 93.5215 95.2533 94.3874 94.9647 94.6761C91.5009 98.1398 87.7485 102.181 84.2847 106.511C83.7074 107.088 83.4188 107.088 83.1301 107.088Z" fill="#BC7A4E"/>
<path d="M409.878 226.01C409.301 226.01 408.723 225.433 408.723 224.856C408.723 219.949 408.435 214.464 407.857 208.691C407.857 208.114 408.146 207.537 408.723 207.537C409.301 207.537 409.878 207.825 409.878 208.403C410.455 214.176 410.744 219.66 410.744 224.567C411.033 225.433 410.455 226.01 409.878 226.01Z" fill="#BC7A4E"/>
<path d="M407.28 193.971C406.703 193.971 406.414 193.682 406.126 193.105C405.26 187.62 404.105 182.425 402.662 177.518C402.373 176.941 402.951 176.363 403.528 176.075C404.105 175.786 404.683 176.363 404.971 176.941C406.414 181.848 407.569 187.332 408.435 192.816C408.435 193.105 407.858 193.682 407.28 193.971Z" fill="#BC7A4E"/>
<path d="M398.909 162.797C398.332 162.797 398.044 162.508 397.755 162.219C396.023 157.312 394.002 152.405 391.693 147.498C391.405 146.921 391.693 146.344 392.271 146.055C392.848 145.766 393.425 146.055 393.714 146.632C396.023 151.828 398.044 156.735 400.064 161.642C400.353 162.219 400.064 162.797 399.487 163.085C399.198 162.797 398.909 162.797 398.909 162.797Z" fill="#BC7A4E"/>
<path d="M39.8333 226.01C39.256 226.01 38.6787 225.433 38.6787 224.856C38.6787 219.66 38.9674 214.464 39.5447 208.692C39.5447 208.114 40.1219 207.537 40.6992 207.826C41.2765 207.826 41.8538 208.403 41.5652 208.98C40.9879 214.753 40.6992 219.949 40.6992 225.144C40.9879 225.433 40.4106 226.01 39.8333 226.01Z" fill="#BC7A4E"/>
<path d="M343.778 84.2849C343.489 84.2849 343.201 84.2849 343.201 83.9962C339.16 80.5324 334.83 77.3573 330.5 74.1822C329.923 73.8936 329.923 73.0276 330.212 72.739C330.5 72.1617 331.366 72.1617 331.655 72.4503C336.273 75.6255 340.603 78.8006 344.644 82.2643C345.221 82.553 345.221 83.4189 344.644 83.7076C344.355 84.2848 344.067 84.2849 343.778 84.2849Z" fill="#BC7A4E"/>
<path d="M317.511 65.8115C317.222 65.8115 317.222 65.8115 316.934 65.5229C312.315 62.925 307.408 60.3272 302.79 58.018C302.213 57.7294 301.924 57.1521 302.213 56.5748C302.501 55.9975 303.079 55.7089 303.656 55.9975C308.563 58.3067 313.181 60.9045 318.088 63.5023C318.666 63.791 318.666 64.3683 318.377 64.9456C318.088 65.5229 317.8 65.8115 317.511 65.8115Z" fill="#BC7A4E"/>
<path d="M385.055 133.643C384.766 133.643 384.189 133.355 384.189 133.066C381.591 128.448 378.704 123.829 375.529 119.5C375.241 118.922 375.241 118.345 375.818 118.057C376.395 117.768 376.972 117.768 377.261 118.345C380.436 122.675 383.323 127.293 385.92 131.912C386.209 132.489 385.92 133.066 385.632 133.355C385.632 133.355 385.343 133.643 385.055 133.643Z" fill="#BC7A4E"/>
<path d="M366.581 107.088C366.292 107.088 366.004 107.088 365.715 106.799C362.251 102.47 358.499 98.4286 354.747 94.9649C354.458 94.6762 354.458 93.8103 354.747 93.5217C355.035 93.233 355.901 93.233 356.19 93.5217C359.942 97.2741 363.406 101.315 367.158 105.645C367.447 106.222 367.447 106.799 367.158 107.088C367.158 107.088 366.87 107.088 366.581 107.088Z" fill="#BC7A4E"/>
<path d="M409.301 209.846C408.724 209.846 408.146 209.557 408.146 208.98C407.569 203.784 406.992 198.3 406.126 193.105C406.126 192.527 406.414 191.95 406.992 191.95C407.569 191.95 408.146 192.239 408.146 192.816C409.012 198.3 409.878 203.496 410.167 208.98C410.455 209.269 409.878 209.846 409.301 209.846Z" fill="#BC7A4E"/>
<path d="M355.901 95.2532C355.613 95.2532 355.324 95.2532 355.035 94.9646C351.572 91.5008 347.53 87.7484 343.201 84.2846C342.623 83.996 342.623 83.1301 343.201 82.8414C343.489 82.2641 344.355 82.2641 344.644 82.8414C348.974 86.5938 353.015 90.0576 356.767 93.81C357.056 94.0986 357.056 94.9646 356.767 95.2532C356.479 94.9646 356.19 95.2532 355.901 95.2532Z" fill="#BC7A4E"/>
<path d="M376.395 119.788C376.106 119.788 375.818 119.5 375.529 119.211C372.354 114.593 369.179 110.552 365.715 106.511C365.426 105.933 365.426 105.356 365.715 105.067C366.292 104.779 366.87 104.779 367.158 105.067C370.622 109.108 373.797 113.438 376.972 118.056C377.261 118.634 377.261 119.211 376.684 119.5C376.972 119.788 376.684 119.788 376.395 119.788Z" fill="#BC7A4E"/>
<path d="M403.816 178.095C403.239 178.095 402.95 177.806 402.662 177.229C401.219 171.745 399.487 166.838 397.755 161.931C397.466 161.353 397.755 160.776 398.332 160.488C398.909 160.199 399.487 160.488 399.775 161.065C401.507 165.972 403.239 171.167 404.682 176.652C404.971 177.229 404.682 177.806 403.816 178.095Z" fill="#BC7A4E"/>
<path d="M392.559 147.787C392.271 147.787 391.693 147.498 391.693 147.21C389.384 142.591 387.075 137.684 384.188 133.066C383.9 132.489 384.188 131.911 384.477 131.623C385.054 131.334 385.632 131.623 385.92 131.911C388.807 136.818 391.116 141.437 393.425 146.344C393.714 146.921 393.425 147.498 392.848 147.787C392.848 147.787 392.848 147.787 392.559 147.787Z" fill="#BC7A4E"/>
<path d="M94.0988 95.2534C93.8101 95.2534 93.5215 95.2534 93.2328 94.9647C92.9442 94.6761 92.9442 93.8101 93.2328 93.5215C96.9852 89.7691 101.026 86.3053 105.356 82.5529C105.933 82.2643 106.511 82.2643 106.799 82.5529C107.088 83.1302 107.088 83.7075 106.799 83.9961C102.47 87.4599 98.4285 91.2123 94.9647 94.6761C94.6761 94.9647 94.3874 95.2534 94.0988 95.2534Z" fill="#BC7A4E"/>
<path d="M146.632 58.3065C146.344 58.3065 145.767 58.0179 145.767 57.7292C145.478 57.1519 145.767 56.5746 146.344 56.286C151.539 53.9768 156.446 51.9563 161.353 49.9357C161.931 49.6471 162.508 49.9357 162.797 50.513C163.085 51.0903 162.797 51.6676 162.219 51.9563C157.312 53.6882 152.405 55.7087 147.498 58.0179C146.921 58.3065 146.921 58.3065 146.632 58.3065Z" fill="#BC7A4E"/>
<path d="M161.642 51.9564C161.065 51.9564 160.776 51.6678 160.488 51.3791C160.199 50.8019 160.488 50.2246 161.065 49.9359C165.972 48.204 171.167 46.4722 176.652 45.0289C177.229 44.7403 177.806 45.3176 178.095 45.8949C178.384 46.4722 177.806 47.0494 177.229 47.3381C171.745 48.7813 166.838 50.5132 161.931 52.2451C161.931 51.9564 161.642 51.9564 161.642 51.9564Z" fill="#BC7A4E"/>
<path d="M241.02 41.8538C235.247 41.2765 230.051 40.9879 224.856 40.9879C224.278 40.9879 223.701 40.4106 223.701 39.8333C223.701 39.256 224.278 38.6787 224.856 38.6787C230.051 38.6787 235.247 38.9674 241.02 39.5447C241.597 39.5447 242.175 40.1219 241.886 40.6992C242.175 41.2765 241.597 41.8538 241.02 41.8538Z" fill="#BC7A4E"/>
<path d="M208.691 41.8537C208.114 41.8537 207.537 41.5651 207.537 40.9878C207.537 40.4105 207.825 39.8332 208.403 39.8332C214.176 39.2559 219.66 38.9673 224.567 38.9673C225.144 38.9673 225.722 39.5446 225.722 40.1219C225.722 40.6992 225.144 41.2765 224.567 41.2765C219.949 40.9878 214.753 41.2765 208.691 41.8537C208.98 41.8537 208.98 41.8537 208.691 41.8537Z" fill="#BC7A4E"/>
<path d="M176.94 47.3381C176.363 47.3381 176.074 47.0495 175.786 46.4722C175.497 45.8949 176.074 45.3176 176.652 45.0289C181.559 43.5857 187.043 42.4311 192.527 41.5652C193.105 41.5652 193.682 41.8538 193.682 42.4311C193.682 43.0084 193.393 43.5857 192.816 43.5857C187.62 44.7403 182.425 45.8949 176.94 47.3381C177.229 47.3381 177.229 47.3381 176.94 47.3381Z" fill="#BC7A4E"/>
<path d="M46.1834 178.095C46.1834 178.095 45.8947 178.095 46.1834 178.095C45.3175 177.806 45.0288 177.229 45.0288 176.652C46.472 171.167 48.2039 165.972 49.9358 161.065C50.2244 160.488 50.8017 160.199 51.379 160.488C51.9563 160.776 52.245 161.353 51.9563 161.931C50.2244 166.838 48.4926 172.033 47.0493 177.229C47.0493 177.806 46.7607 178.095 46.1834 178.095Z" fill="#BC7A4E"/>
<path d="M64.6569 133.643C64.3682 133.643 64.3682 133.643 64.0796 133.355C63.5023 133.066 63.5023 132.489 63.7909 131.912C66.3887 127.293 69.5638 122.675 72.4503 118.345C72.739 117.768 73.6049 117.768 73.8935 118.057C74.4708 118.345 74.4708 119.211 74.1822 119.5C71.0071 123.829 68.1206 128.448 65.5228 133.066C65.5228 133.355 64.9455 133.643 64.6569 133.643Z" fill="#BC7A4E"/>
<path d="M73.3163 119.788C73.0276 119.788 73.0276 119.788 72.739 119.5C72.1617 119.5 72.1617 118.634 72.4503 118.345C75.6255 113.727 79.0892 109.397 82.2643 105.356C82.553 104.779 83.4189 104.779 83.7075 105.356C84.2848 105.645 84.2848 106.511 83.7075 106.799C80.2438 110.84 77.0687 115.17 73.8936 119.5C74.1822 119.788 73.6049 119.788 73.3163 119.788Z" fill="#BC7A4E"/>
<path d="M57.1521 147.787C56.8635 147.787 56.8635 147.787 56.5748 147.787C55.9975 147.498 55.7089 146.921 55.9975 146.344C58.3067 141.437 60.9045 136.819 63.5023 131.912C63.791 131.334 64.3683 131.334 64.9456 131.623C65.5228 131.912 65.5229 132.489 65.2342 133.066C62.6364 137.685 60.0386 142.592 57.7294 147.21C58.018 147.498 57.7294 147.787 57.1521 147.787Z" fill="#BC7A4E"/>
<path d="M118.922 74.4709C118.634 74.4709 118.345 74.1822 118.056 73.8936C117.768 73.3163 117.768 72.739 118.345 72.4503C122.675 69.2752 127.293 66.3888 131.911 63.7909C132.489 63.5023 133.066 63.7909 133.355 64.0796C133.643 64.6569 133.355 65.2342 133.066 65.5228C128.448 68.1206 123.829 71.0071 119.5 74.1822C119.211 74.4709 118.922 74.4709 118.922 74.4709Z" fill="#BC7A4E"/>
<path d="M192.816 43.8743C192.239 43.8743 191.95 43.5857 191.661 43.0084C191.661 42.4311 191.95 41.8538 192.527 41.8538C198.012 40.9878 203.207 40.1219 208.692 39.8333C209.269 39.8333 209.846 40.1219 209.846 40.6992C209.846 41.2765 209.557 41.8538 208.98 41.8538C203.496 42.1424 198.3 43.0084 192.816 43.8743Z" fill="#BC7A4E"/>
<path d="M257.184 43.8742C256.895 43.8742 256.895 43.8742 257.184 43.8742C251.7 43.0082 246.216 42.1423 241.02 41.8536C240.443 41.8536 239.865 41.2764 240.154 40.6991C240.154 40.1218 240.731 39.5445 241.309 39.8331C246.504 40.4104 251.988 40.9877 257.473 41.8536C258.05 41.8536 258.339 42.4309 258.339 43.0082C258.05 43.5855 257.473 43.8742 257.184 43.8742Z" fill="#BC7A4E"/>
<path d="M303.079 58.3067C302.79 58.3067 302.79 58.3067 302.502 58.3067C297.306 55.9975 292.399 53.977 287.781 52.2451C287.203 51.9564 286.915 51.3792 287.203 50.8019C287.492 50.2246 288.069 49.9359 288.647 50.2246C293.554 51.9564 298.461 53.977 303.656 56.5748C304.233 56.8634 304.522 57.4407 304.233 58.018C303.945 58.018 303.656 58.3067 303.079 58.3067Z" fill="#BC7A4E"/>
<path d="M331.077 74.4708C330.789 74.4708 330.789 74.4708 330.5 74.1822C326.17 71.0071 321.552 68.1206 316.934 65.5228C316.357 65.2342 316.357 64.6569 316.645 64.0796C316.934 63.5023 317.511 63.5023 318.088 63.7909C322.707 66.3887 327.325 69.5638 331.655 72.4503C332.232 72.739 332.232 73.6049 331.943 73.8935C331.655 74.1822 331.366 74.4708 331.077 74.4708Z" fill="#BC7A4E"/>
<path d="M272.771 47.338C267.575 45.8948 262.38 44.7402 256.895 43.8743C256.318 43.8743 256.03 43.297 256.03 42.7197C256.03 42.1424 256.607 41.8538 257.184 41.8538C262.668 42.7197 268.153 43.8743 273.06 45.3175C273.637 45.6062 273.926 46.1835 273.926 46.7608C273.637 47.0494 273.348 47.338 272.771 47.338Z" fill="#BC7A4E"/>
<path d="M40.699 209.846C40.1217 209.846 39.5444 209.269 39.5444 208.692C40.1217 203.496 40.699 198.012 41.565 192.527C41.565 191.95 42.1423 191.661 42.7195 191.661C43.2968 191.661 43.5855 192.239 43.5855 192.816C42.7196 198.012 41.8536 203.496 41.565 208.692C41.565 209.557 41.2763 209.846 40.699 209.846Z" fill="#BC7A4E"/>
<path d="M288.358 51.9564H288.069C283.162 50.2245 277.967 48.4926 272.771 47.0494C272.194 46.7608 271.905 46.1835 271.905 45.6062C272.194 45.0289 272.771 44.7402 273.348 44.7402C278.833 46.1835 284.028 47.9153 288.935 49.6472C289.512 49.9359 289.801 50.5132 289.512 51.0905C289.224 51.9564 288.647 51.9564 288.358 51.9564Z" fill="#BC7A4E"/>
<path d="M224.856 107.088C224.278 107.088 223.701 106.511 223.701 105.933V39.8333C223.701 39.256 224.278 38.6787 224.856 38.6787C225.433 38.6787 226.01 39.256 226.01 39.8333V105.933C226.01 106.511 225.433 107.088 224.856 107.088Z" fill="#BC7A4E"/>
<path d="M409.878 226.01H343.778C343.201 226.01 342.623 225.433 342.623 224.856C342.623 224.278 343.201 223.701 343.778 223.701H409.878C410.455 223.701 411.033 224.278 411.033 224.856C411.033 225.433 410.455 226.01 409.878 226.01Z" fill="#BC7A4E"/>
<path d="M343.489 215.619C342.912 215.619 342.335 215.331 342.335 214.753C342.335 214.176 342.623 213.599 343.201 213.599L409.012 207.826C409.589 207.826 410.167 208.114 410.167 208.692C410.167 209.269 409.878 209.846 409.301 209.846L343.489 215.619Z" fill="#BC7A4E"/>
<path d="M214.464 107.377C213.887 107.377 213.31 107.088 213.31 106.511L207.537 40.6993C207.537 40.122 207.825 39.5447 208.403 39.5447C208.98 39.5447 209.557 39.8333 209.557 40.4106L215.33 106.222C215.619 106.799 215.33 107.377 214.464 107.377C214.753 107.377 214.464 107.377 214.464 107.377Z" fill="#BC7A4E"/>
<path d="M342.046 205.228C341.469 205.228 341.18 204.939 340.892 204.362C340.892 203.785 341.18 203.207 341.758 203.207L406.703 191.662C407.28 191.662 407.858 191.95 407.858 192.528C407.858 193.105 407.569 193.682 406.992 193.682L342.046 205.228C342.335 205.228 342.335 205.228 342.046 205.228Z" fill="#BC7A4E"/>
<path d="M204.362 108.82C203.784 108.82 203.496 108.531 203.207 107.954L191.661 43.0083C191.661 42.4311 191.95 41.8538 192.527 41.8538C193.104 41.8538 193.682 42.1424 193.682 42.7197L205.228 107.665C205.516 108.242 204.939 108.82 204.362 108.82Z" fill="#BC7A4E"/>
<path d="M340.026 195.125C339.448 195.125 339.16 194.836 338.871 194.259C338.582 193.682 339.16 193.105 339.737 192.816L403.528 175.786C404.105 175.497 404.682 176.074 404.971 176.652C405.26 177.229 404.682 177.806 404.105 178.095L340.026 195.125Z" fill="#BC7A4E"/>
<path d="M194.259 111.129C193.682 111.129 193.393 110.84 193.104 110.263L176.074 46.4722C175.786 45.8949 176.363 45.3176 176.94 45.0289C177.518 44.7403 178.095 45.3176 178.384 45.8949L195.125 109.686C195.414 110.263 195.125 110.84 194.259 111.129Z" fill="#BC7A4E"/>
<path d="M336.85 185.311C336.273 185.311 335.984 185.023 335.696 184.734C335.407 184.157 335.696 183.579 336.273 183.291L398.332 160.776C398.909 160.488 399.487 160.776 399.775 161.354C400.064 161.931 399.775 162.508 399.198 162.797L337.139 185.311H336.85Z" fill="#BC7A4E"/>
<path d="M184.156 114.016C183.579 114.016 183.29 113.727 183.002 113.438L160.487 51.3792C160.199 50.8019 160.487 50.2246 161.065 49.936C161.642 49.6473 162.219 49.936 162.508 50.5133L185.311 112.572C185.6 113.15 185.311 113.727 184.734 114.016C184.445 114.016 184.445 114.016 184.156 114.016Z" fill="#BC7A4E"/>
<path d="M332.81 175.786C332.521 175.786 331.944 175.497 331.944 175.209C331.655 174.631 331.944 174.054 332.521 173.765L392.271 145.767C392.848 145.478 393.425 145.767 393.714 146.344C394.003 146.921 393.714 147.498 393.137 147.787L333.387 175.786C333.098 175.786 333.098 175.786 332.81 175.786Z" fill="#BC7A4E"/>
<path d="M174.631 118.056C174.342 118.056 173.765 117.768 173.765 117.479L145.766 57.7293C145.478 57.152 145.766 56.5747 146.344 56.2861C146.921 55.9974 147.498 56.2861 147.787 56.8634L175.786 116.613C176.074 117.191 175.786 117.768 175.208 118.056C174.92 118.056 174.92 118.056 174.631 118.056Z" fill="#BC7A4E"/>
<path d="M327.902 166.549C327.614 166.549 327.037 166.261 327.037 165.972C326.748 165.395 327.037 164.817 327.325 164.529L384.477 131.623C385.054 131.334 385.632 131.623 385.92 131.912C386.209 132.489 385.92 133.066 385.632 133.355L328.48 166.261C328.48 166.549 328.191 166.549 327.902 166.549Z" fill="#BC7A4E"/>
<path d="M165.394 122.963C165.106 122.963 164.528 122.675 164.528 122.386L131.623 65.2342C131.334 64.6569 131.623 64.0796 131.911 63.7909C132.489 63.5023 133.066 63.7909 133.355 64.0796L166.26 121.232C166.549 121.809 166.26 122.386 165.972 122.675C165.683 122.964 165.683 122.963 165.394 122.963Z" fill="#BC7A4E"/>
<path d="M322.418 157.89C322.129 157.89 321.841 157.601 321.552 157.312C321.264 156.735 321.263 156.158 321.841 155.869L375.818 118.057C376.395 117.768 376.972 117.768 377.261 118.345C377.55 118.922 377.55 119.5 376.972 119.788L322.995 157.601C322.995 157.601 322.707 157.89 322.418 157.89Z" fill="#BC7A4E"/>
<path d="M156.735 128.448C156.446 128.448 156.158 128.159 155.869 127.87L118.056 73.8936C117.768 73.3163 117.768 72.739 118.345 72.4503C118.922 72.1617 119.5 72.1617 119.788 72.739L157.601 126.716C157.89 127.293 157.89 127.87 157.312 128.159C157.024 128.448 157.024 128.448 156.735 128.448Z" fill="#BC7A4E"/>
<path d="M316.068 149.519C315.779 149.519 315.49 149.519 315.202 149.23C314.913 148.653 314.913 148.076 315.202 147.787L365.715 105.356C366.292 105.067 366.87 105.067 367.158 105.356C367.447 105.933 367.447 106.511 367.158 106.799L316.645 149.23C316.645 149.519 316.356 149.519 316.068 149.519Z" fill="#BC7A4E"/>
<path d="M148.364 134.798C148.076 134.798 147.787 134.798 147.498 134.51L105.067 83.9964C104.779 83.4191 104.779 82.8418 105.067 82.5532C105.645 82.2645 106.222 82.2645 106.511 82.5532L148.942 133.066C149.23 133.644 149.23 134.221 148.942 134.51C148.942 134.798 148.653 134.798 148.364 134.798Z" fill="#BC7A4E"/>
<path d="M309.14 141.725C308.852 141.725 308.563 141.725 308.274 141.437C307.986 141.148 307.986 140.282 308.274 139.994L355.035 93.2328C355.324 92.9442 356.19 92.9442 356.478 93.2328C356.767 93.5215 356.767 94.3874 356.478 94.6761L310.006 141.437C309.718 141.725 309.429 141.725 309.14 141.725Z" fill="#BC7A4E"/>
<path d="M140.86 141.726C140.571 141.726 140.282 141.726 139.994 141.437L93.2328 94.9649C92.9442 94.6762 92.9442 93.8103 93.2328 93.5217C93.5215 93.233 94.3874 93.233 94.6761 93.5217L141.437 139.994C141.725 140.282 141.725 141.148 141.437 141.437C141.437 141.726 141.148 141.726 140.86 141.726Z" fill="#BC7A4E"/>
<path d="M301.347 134.798C301.058 134.798 300.77 134.798 300.77 134.509C300.192 134.221 300.192 133.355 300.77 133.066L343.201 82.5531C343.489 81.9758 344.355 81.9758 344.644 82.5531C345.221 82.8417 345.221 83.7077 344.644 83.9963L302.213 134.509C301.924 134.798 301.636 134.798 301.347 134.798Z" fill="#BC7A4E"/>
<path d="M133.643 149.519C133.355 149.519 133.066 149.519 133.066 149.23L82.5528 106.799C81.9755 106.511 81.9755 105.645 82.5528 105.356C82.8415 104.779 83.7074 104.779 83.9961 105.356L134.509 147.787C135.087 148.076 135.087 148.942 134.509 149.23C134.509 149.519 133.932 149.519 133.643 149.519Z" fill="#BC7A4E"/>
<path d="M293.265 128.448C292.976 128.448 292.976 128.448 292.687 128.159C292.11 127.87 292.11 127.005 292.399 126.716L330.212 72.739C330.5 72.1617 331.366 72.1617 331.655 72.4503C332.232 72.739 332.232 73.6049 331.943 73.8936L294.131 127.87C293.842 128.448 293.553 128.448 293.265 128.448Z" fill="#BC7A4E"/>
<path d="M127.582 157.89C127.293 157.89 127.293 157.89 127.004 157.601L72.7387 119.788C72.1615 119.5 72.1614 118.634 72.4501 118.345C72.7387 117.768 73.6047 117.768 73.8933 118.057L128.159 155.869C128.736 156.158 128.736 157.024 128.448 157.312C128.159 157.601 127.87 157.89 127.582 157.89Z" fill="#BC7A4E"/>
<path d="M284.317 122.963C284.028 122.963 284.028 122.963 283.739 122.963C283.162 122.675 283.162 122.097 283.451 121.52L316.357 64.3681C316.645 63.7908 317.223 63.7908 317.8 64.0795C318.377 64.3681 318.377 64.9454 318.088 65.5227L285.471 122.386C285.183 122.675 284.894 122.963 284.317 122.963Z" fill="#BC7A4E"/>
<path d="M121.809 166.549C121.52 166.549 121.52 166.549 121.232 166.549L64.0796 133.355C63.5023 133.066 63.5023 132.489 63.7909 131.912C64.0796 131.334 64.6569 131.334 65.2341 131.623L122.386 164.529C122.963 164.817 122.963 165.395 122.675 165.972C122.675 166.261 122.098 166.549 121.809 166.549Z" fill="#BC7A4E"/>
<path d="M275.369 118.056C275.08 118.056 275.08 118.056 274.791 118.056C274.214 117.768 273.925 117.191 274.214 116.613L302.213 56.8634C302.501 56.2861 303.079 55.9974 303.656 56.2861C304.233 56.5747 304.522 57.152 304.233 57.7293L276.235 117.479C275.946 117.768 275.657 118.056 275.369 118.056Z" fill="#BC7A4E"/>
<path d="M117.191 175.786C116.902 175.786 116.902 175.786 116.613 175.786L56.8634 147.787C56.2861 147.498 55.9974 146.921 56.2861 146.344C56.5747 145.767 57.152 145.478 57.7293 145.767L117.479 173.765C118.056 174.054 118.345 174.631 118.056 175.209C117.768 175.497 117.479 175.786 117.191 175.786Z" fill="#BC7A4E"/>
<path d="M265.555 114.016H265.266C264.689 113.727 264.4 113.15 264.689 112.572L287.203 50.5133C287.492 49.936 288.069 49.6473 288.647 49.936C289.224 50.2246 289.513 50.8019 289.224 51.3792L266.709 113.438C266.421 113.727 266.132 114.016 265.555 114.016Z" fill="#BC7A4E"/>
<path d="M113.149 185.311H112.861L50.8016 162.797C50.2243 162.508 49.9357 161.931 50.2243 161.354C50.513 160.776 51.0903 160.488 51.6676 160.776L113.727 183.291C114.304 183.579 114.593 184.157 114.304 184.734C114.015 185.023 113.438 185.311 113.149 185.311Z" fill="#BC7A4E"/>
<path d="M255.741 111.129C255.741 111.129 255.452 111.129 255.741 111.129C254.875 110.84 254.586 110.263 254.586 109.686L271.616 45.8947C271.905 45.3175 272.482 45.0288 273.06 45.0288C273.637 45.3175 273.926 45.8947 273.926 46.472L256.895 110.263C256.607 110.84 256.318 111.129 255.741 111.129Z" fill="#BC7A4E"/>
<path d="M109.974 195.125C109.974 195.125 109.686 195.125 109.974 195.125L45.8947 178.095C45.3175 177.806 45.0288 177.229 45.0288 176.652C45.3175 176.075 45.8947 175.786 46.472 175.786L110.263 192.816C110.84 193.105 111.129 193.682 111.129 194.259C110.84 194.837 110.552 195.125 109.974 195.125Z" fill="#BC7A4E"/>
<path d="M245.638 108.82C245.638 108.82 245.35 108.82 245.638 108.82C244.772 108.82 244.484 108.242 244.484 107.665L256.03 42.7197C256.03 42.1424 256.607 41.8538 257.184 41.8538C257.761 41.8538 258.05 42.4311 258.05 43.0083L246.504 107.954C246.504 108.531 246.216 108.82 245.638 108.82Z" fill="#BC7A4E"/>
<path d="M107.665 205.228L42.4309 193.682C41.8536 193.682 41.5649 193.105 41.5649 192.528C41.5649 191.95 42.1422 191.662 42.7195 191.662L107.665 203.207C108.242 203.207 108.531 203.785 108.531 204.362C108.82 204.939 108.242 205.228 107.665 205.228Z" fill="#BC7A4E"/>
<path d="M235.247 107.377C234.67 107.377 234.092 106.799 234.092 106.222L239.865 40.4107C239.865 39.8334 240.443 39.2561 241.02 39.5448C241.597 39.5448 242.174 40.1221 241.886 40.6994L236.113 106.511C236.401 107.088 235.824 107.377 235.247 107.377Z" fill="#BC7A4E"/>
<path d="M106.51 215.619C106.222 215.619 106.222 215.619 106.51 215.619L40.6991 209.846C40.1218 209.846 39.5445 209.269 39.8331 208.692C39.8331 208.114 40.4104 207.537 40.9877 207.826L106.799 213.598C107.376 213.598 107.954 214.176 107.665 214.753C107.376 215.33 106.799 215.619 106.51 215.619Z" fill="#BC7A4E"/>
<path d="M309.14 141.725C308.852 141.725 308.563 141.725 308.274 141.437C305.965 139.128 303.367 136.818 300.77 134.509C300.192 134.221 300.192 133.355 300.77 133.066C301.058 132.489 301.924 132.489 302.213 133.066C305.099 135.375 307.697 137.684 310.006 139.994C310.295 140.282 310.295 141.148 310.006 141.437C309.718 141.725 309.429 141.725 309.14 141.725Z" fill="#BC7A4E"/>
<path d="M275.369 118.056C275.08 118.056 275.08 118.056 274.792 118.056C271.616 116.613 268.441 115.17 265.266 114.015C264.689 113.727 264.4 113.149 264.689 112.572C264.978 111.995 265.555 111.706 266.132 111.995C269.307 113.149 272.482 114.593 275.946 116.036C276.523 116.325 276.812 116.902 276.523 117.479C275.946 117.768 275.657 118.056 275.369 118.056Z" fill="#BC7A4E"/>
<path d="M322.418 157.89C322.129 157.89 321.841 157.601 321.552 157.312C319.532 154.426 317.511 151.539 315.202 149.23C314.913 148.653 314.913 148.076 315.202 147.787C315.779 147.498 316.356 147.498 316.645 147.787C318.954 150.385 320.975 153.271 322.995 156.158C323.284 156.735 323.284 157.312 322.707 157.601C322.995 157.601 322.707 157.89 322.418 157.89Z" fill="#BC7A4E"/>
<path d="M293.265 128.448C292.976 128.448 292.976 128.448 292.687 128.159C289.801 126.139 286.915 124.407 284.028 122.675C283.451 122.386 283.451 121.809 283.739 121.232C284.028 120.654 284.605 120.654 285.183 120.943C288.069 122.675 291.244 124.695 294.131 126.716C294.708 127.005 294.708 127.871 294.419 128.159C293.842 128.448 293.553 128.448 293.265 128.448Z" fill="#BC7A4E"/>
<path d="M109.974 195.125C109.974 195.125 109.686 195.125 109.974 195.125C109.108 194.836 108.82 194.259 108.82 193.682C109.686 190.218 110.84 186.754 111.995 183.579C112.283 183.002 112.861 182.713 113.438 183.002C114.015 183.291 114.304 183.868 114.015 184.445C112.861 187.62 111.995 190.795 110.84 194.259C110.84 194.836 110.551 195.125 109.974 195.125Z" fill="#BC7A4E"/>
<path d="M344.067 226.01C343.489 226.01 342.912 225.433 342.912 224.856C342.912 221.681 342.623 218.217 342.335 214.464C342.335 213.887 342.623 213.31 343.201 213.31C343.778 213.31 344.355 213.598 344.355 214.176C344.644 217.928 344.933 221.392 344.933 224.567C344.933 225.433 344.644 226.01 344.067 226.01Z" fill="#BC7A4E"/>
<path d="M340.025 195.125C339.448 195.125 339.16 194.836 338.871 194.259C338.005 190.795 336.85 187.62 335.696 184.445C335.407 183.868 335.696 183.291 336.273 183.002C336.85 182.713 337.428 183.002 337.716 183.579C338.871 186.754 340.025 190.218 340.891 193.682C341.18 194.548 340.891 195.125 340.025 195.125Z" fill="#BC7A4E"/>
<path d="M343.489 215.619C342.912 215.619 342.335 215.331 342.335 214.753C342.046 211.29 341.469 207.826 340.892 204.651C340.892 204.073 341.18 203.496 341.758 203.496C342.335 203.496 342.912 203.785 342.912 204.362C343.489 207.826 344.067 211.29 344.355 214.753C344.644 215.042 344.067 215.619 343.489 215.619Z" fill="#BC7A4E"/>
<path d="M255.741 111.129C255.741 111.129 255.452 111.129 255.741 111.129C252.277 110.263 248.813 109.397 245.35 108.82C244.772 108.82 244.484 108.243 244.484 107.665C244.484 107.088 245.061 106.799 245.638 106.799C249.102 107.377 252.566 108.243 255.741 109.108C256.318 109.397 256.607 109.974 256.607 110.552C256.607 110.84 256.318 111.129 255.741 111.129Z" fill="#BC7A4E"/>
<path d="M332.809 175.786C332.521 175.786 331.944 175.497 331.944 175.209C330.5 172.034 329.057 169.147 327.037 165.972C326.748 165.395 327.037 164.817 327.325 164.529C327.902 164.24 328.48 164.529 328.768 164.817C330.5 167.992 332.232 170.879 333.675 174.054C333.964 174.631 333.675 175.209 333.098 175.497C333.098 175.786 333.098 175.786 332.809 175.786Z" fill="#BC7A4E"/>
<path d="M113.149 185.311H112.861C112.283 185.022 111.995 184.445 112.283 183.868C113.438 180.693 114.881 177.518 116.324 174.054C116.613 173.477 117.19 173.188 117.768 173.477C118.345 173.765 118.634 174.342 118.345 174.92C116.902 178.095 115.459 181.27 114.304 184.445C114.015 185.022 113.438 185.311 113.149 185.311Z" fill="#BC7A4E"/>
<path d="M121.809 166.549C121.52 166.549 121.52 166.549 121.231 166.549C120.654 166.26 120.654 165.683 120.943 165.106C122.675 162.219 124.695 159.044 126.716 156.158C127.004 155.58 127.87 155.58 128.159 155.869C128.736 156.158 128.736 157.024 128.448 157.312C126.427 160.199 124.695 163.085 122.963 165.972C122.675 166.26 122.097 166.549 121.809 166.549Z" fill="#BC7A4E"/>
<path d="M107.665 205.228C106.799 205.228 106.51 204.651 106.51 204.073C107.088 200.61 107.954 197.146 108.82 193.971C109.108 193.393 109.686 193.105 110.263 193.105C110.84 193.393 111.129 193.971 111.129 194.548C110.263 197.723 109.397 201.187 108.82 204.651C108.82 204.939 108.242 205.228 107.665 205.228Z" fill="#BC7A4E"/>
<path d="M184.156 114.016C183.579 114.016 183.291 113.727 183.002 113.438C182.713 112.861 183.002 112.284 183.579 111.995C186.754 110.84 190.218 109.686 193.682 108.82C194.259 108.531 194.836 109.109 195.125 109.686C195.414 110.263 194.836 110.84 194.259 111.129C190.795 111.995 187.62 113.15 184.445 114.304C184.445 114.016 184.445 114.016 184.156 114.016Z" fill="#BC7A4E"/>
<path d="M105.933 226.01C105.356 226.01 104.779 225.433 104.779 224.856C104.779 221.681 105.067 218.217 105.356 214.464C105.356 213.887 105.933 213.31 106.51 213.599C107.088 213.599 107.665 214.176 107.376 214.753C107.088 218.505 106.799 221.681 106.799 225.144C107.088 225.433 106.51 226.01 105.933 226.01Z" fill="#BC7A4E"/>
<path d="M165.394 122.964C165.106 122.964 164.528 122.675 164.528 122.386C164.24 121.809 164.528 121.232 164.817 120.943C167.992 119.211 170.879 117.479 174.054 116.036C174.631 115.747 175.208 116.036 175.497 116.613C175.786 117.191 175.497 117.768 174.92 118.057C171.745 119.5 168.858 120.943 165.683 122.964C165.683 122.964 165.683 122.964 165.394 122.964Z" fill="#BC7A4E"/>
<path d="M148.364 134.798C148.076 134.798 147.787 134.798 147.498 134.509C147.21 133.932 147.21 133.355 147.498 133.066C150.096 130.757 152.983 128.736 155.869 126.716C156.446 126.427 157.024 126.427 157.312 127.005C157.601 127.582 157.601 128.159 157.024 128.448C154.137 130.468 151.539 132.489 148.941 134.798C148.941 134.798 148.653 134.798 148.364 134.798Z" fill="#BC7A4E"/>
<path d="M106.511 215.619C106.222 215.619 106.222 215.619 106.511 215.619C105.933 215.619 105.356 215.042 105.356 214.464C105.645 211.001 106.222 207.537 106.799 204.073C106.799 203.496 107.376 203.207 107.954 203.207C108.531 203.207 108.82 203.785 108.82 204.362C108.242 207.826 107.665 211.289 107.376 214.464C107.376 215.33 106.799 215.619 106.511 215.619Z" fill="#BC7A4E"/>
<path d="M327.902 166.549C327.614 166.549 327.036 166.26 327.036 165.972C325.305 163.085 323.573 160.199 321.552 157.312C321.264 156.735 321.263 156.158 321.841 155.869C322.418 155.58 322.995 155.58 323.284 156.158C325.305 159.044 327.036 161.931 329.057 165.106C329.346 165.683 329.057 166.26 328.768 166.549C328.48 166.549 328.191 166.549 327.902 166.549Z" fill="#BC7A4E"/>
<path d="M245.638 108.82C245.638 108.82 245.35 108.82 245.638 108.82C242.174 108.243 238.711 107.665 235.247 107.377C234.67 107.377 234.092 106.799 234.381 106.222C234.381 105.645 234.958 105.067 235.536 105.356C238.999 105.645 242.463 106.222 245.927 106.799C246.504 106.799 246.793 107.377 246.793 107.954C246.504 108.531 246.216 108.82 245.638 108.82Z" fill="#BC7A4E"/>
<path d="M127.582 157.89C127.293 157.89 127.293 157.89 127.004 157.601C126.427 157.312 126.427 156.446 126.716 156.158C128.736 153.271 130.757 150.385 133.066 147.787C133.355 147.21 134.221 147.21 134.509 147.787C135.086 148.076 135.086 148.942 134.509 149.23C132.489 151.828 130.179 154.426 128.159 157.312C128.159 157.601 127.87 157.89 127.582 157.89Z" fill="#BC7A4E"/>
<path d="M133.643 149.519C133.355 149.519 133.066 149.519 133.066 149.23C132.489 148.942 132.489 148.076 133.066 147.787C135.375 144.901 137.684 142.303 139.994 139.994C140.282 139.705 141.148 139.705 141.437 139.994C141.725 140.282 141.725 141.148 141.437 141.437C139.128 143.746 136.818 146.344 134.509 148.942C134.509 149.519 133.932 149.519 133.643 149.519Z" fill="#BC7A4E"/>
<path d="M265.555 114.016H265.266C262.091 112.861 258.916 111.995 255.452 110.84C254.875 110.552 254.586 109.974 254.586 109.397C254.875 108.82 255.452 108.531 256.029 108.531C259.493 109.397 262.957 110.552 266.132 111.706C266.709 111.995 266.998 112.572 266.709 113.15C266.421 113.727 266.132 114.016 265.555 114.016Z" fill="#BC7A4E"/>
<path d="M284.317 122.963C284.028 122.963 284.028 122.963 283.739 122.675C280.853 120.943 277.678 119.211 274.503 117.768C273.925 117.479 273.637 116.902 273.925 116.325C274.214 115.747 274.791 115.459 275.369 115.747C278.544 117.191 281.719 118.922 284.605 120.654C285.183 120.943 285.183 121.52 284.894 122.098C285.183 122.675 284.894 122.963 284.317 122.963Z" fill="#BC7A4E"/>
<path d="M235.247 107.376C231.494 107.088 228.031 106.799 224.856 106.799C224.278 106.799 223.701 106.222 223.701 105.645C223.701 105.067 224.278 104.49 224.856 104.49C228.031 104.49 231.494 104.779 235.247 105.067C235.824 105.067 236.401 105.645 236.113 106.222C236.401 107.088 235.824 107.376 235.247 107.376Z" fill="#BC7A4E"/>
<path d="M194.259 111.129C193.682 111.129 193.393 110.84 193.104 110.263C192.816 109.686 193.393 109.109 193.97 108.82C197.145 107.954 200.609 107.088 204.073 106.511C204.65 106.511 205.228 106.799 205.228 107.377C205.228 107.954 204.939 108.531 204.362 108.531C200.898 109.397 197.723 110.263 194.259 111.129Z" fill="#BC7A4E"/>
<path d="M174.631 118.056C174.342 118.056 173.765 117.768 173.765 117.479C173.476 116.902 173.765 116.325 174.342 116.036C177.806 114.593 180.981 113.149 184.156 111.995C184.734 111.706 185.311 111.995 185.6 112.572C185.888 113.149 185.6 113.727 185.022 114.015C181.847 115.17 178.672 116.325 175.497 118.056C174.92 118.056 174.92 118.056 174.631 118.056Z" fill="#BC7A4E"/>
<path d="M140.859 141.725C140.571 141.725 140.282 141.725 139.993 141.437C139.705 141.148 139.705 140.282 139.993 139.994C142.303 137.684 144.9 135.375 147.787 133.066C148.364 132.777 148.941 132.777 149.23 133.066C149.519 133.643 149.519 134.221 149.23 134.509C146.632 136.819 144.034 139.128 141.725 141.437C141.437 141.725 141.148 141.725 140.859 141.725Z" fill="#BC7A4E"/>
<path d="M156.735 128.448C156.446 128.448 156.158 128.159 155.869 127.87C155.58 127.293 155.58 126.716 156.158 126.427C159.044 124.407 161.931 122.675 165.106 120.654C165.683 120.366 166.26 120.654 166.549 120.943C166.838 121.52 166.549 122.097 166.26 122.386C163.374 124.118 160.487 125.85 157.601 127.87C157.024 128.448 157.024 128.448 156.735 128.448Z" fill="#BC7A4E"/>
<path d="M204.362 108.82C203.784 108.82 203.496 108.531 203.207 107.954C203.207 107.377 203.496 106.799 204.073 106.799C207.537 106.222 211.001 105.645 214.464 105.356C215.042 105.356 215.619 105.645 215.619 106.222C215.619 106.799 215.33 107.377 214.753 107.377C211.289 107.665 207.825 108.243 204.362 108.82Z" fill="#BC7A4E"/>
<path d="M342.046 205.228C341.469 205.228 341.18 204.939 340.892 204.362C340.314 200.898 339.448 197.434 338.582 194.259C338.294 193.682 338.871 193.105 339.448 192.816C340.026 192.527 340.603 193.105 340.892 193.682C341.757 196.857 342.623 200.321 343.201 203.785C343.201 204.651 342.912 205.228 342.046 205.228C342.335 205.228 342.335 205.228 342.046 205.228Z" fill="#BC7A4E"/>
<path d="M214.464 107.377C213.887 107.377 213.31 107.088 213.31 106.511C213.31 105.933 213.598 105.356 214.176 105.356C217.928 105.067 221.392 104.779 224.567 104.779C225.144 104.779 225.722 105.356 225.722 105.933C225.722 106.511 225.144 107.088 224.567 107.088C221.681 107.088 218.217 107.088 214.464 107.377C214.753 107.377 214.464 107.377 214.464 107.377Z" fill="#BC7A4E"/>
<path d="M336.85 185.311C336.273 185.311 335.984 185.023 335.696 184.734C334.541 181.559 333.098 178.384 331.655 175.209C331.366 174.631 331.655 174.054 332.232 173.765C332.809 173.477 333.387 173.765 333.675 174.343C335.118 177.518 336.562 180.981 337.716 184.157C338.005 184.734 337.716 185.311 337.139 185.6C337.139 185.311 336.85 185.311 336.85 185.311Z" fill="#BC7A4E"/>
<path d="M301.347 134.798C301.058 134.798 300.77 134.798 300.77 134.509C298.172 132.489 295.574 130.18 292.687 128.159C292.11 127.871 292.11 127.005 292.399 126.716C292.687 126.139 293.553 126.139 293.842 126.427C296.729 128.448 299.615 130.757 302.213 132.778C302.79 133.066 302.79 133.932 302.213 134.221C301.924 134.798 301.636 134.798 301.347 134.798Z" fill="#BC7A4E"/>
<path d="M316.068 149.519C315.779 149.519 315.491 149.519 315.202 149.23C312.893 146.633 310.584 144.035 308.274 141.726C307.986 141.437 307.986 140.571 308.274 140.282C308.563 139.994 309.429 139.994 309.718 140.282C312.027 142.592 314.336 145.189 316.645 148.076C316.934 148.653 316.934 149.23 316.645 149.519C316.645 149.519 316.356 149.519 316.068 149.519Z" fill="#BC7A4E"/>
<path d="M117.19 175.786C116.902 175.786 116.902 175.786 116.613 175.786C116.036 175.497 115.747 174.92 116.036 174.343C117.479 171.168 119.211 167.992 120.943 165.106C121.231 164.529 121.809 164.529 122.386 164.817C122.963 165.106 122.963 165.683 122.675 166.261C120.943 169.147 119.211 172.322 117.768 175.497C117.768 175.497 117.479 175.786 117.19 175.786Z" fill="#BC7A4E"/>
<path d="M39.8332 226.01H1.15459C0.577293 226.01 0 225.433 0 224.856C0 224.278 0.577293 223.701 1.15459 223.701H39.8332C40.4105 223.701 40.9878 224.278 40.9878 224.856C40.9878 225.433 40.4105 226.01 39.8332 226.01Z" fill="#BC7A4E"/>
<path d="M303.079 393.714C302.79 393.714 302.213 393.425 302.213 393.137C301.924 392.559 302.213 391.982 302.79 391.693C307.408 389.384 312.315 387.075 316.934 384.189C317.511 383.9 318.088 384.189 318.377 384.477C318.666 385.055 318.377 385.632 318.088 385.921C313.47 388.807 308.563 391.116 303.656 393.425C303.367 393.714 303.367 393.714 303.079 393.714Z" fill="#BC7A4E"/>
<path d="M331.077 377.55C330.789 377.55 330.5 377.261 330.212 376.973C329.923 376.395 329.923 375.818 330.5 375.529C335.119 372.354 339.16 369.179 343.201 365.715C343.778 365.427 344.355 365.427 344.644 365.715C344.933 366.293 344.933 366.87 344.644 367.159C340.603 370.622 336.273 373.797 331.655 376.973C331.366 377.55 331.366 377.55 331.077 377.55Z" fill="#BC7A4E"/>
<path d="M403.817 273.926C403.528 273.926 403.528 273.926 403.817 273.926C402.951 273.637 402.662 273.06 402.662 272.482C404.105 267.575 405.26 262.091 406.126 256.895C406.126 256.318 406.703 256.03 407.28 256.03C407.858 256.03 408.146 256.607 408.146 257.184C407.28 262.668 406.126 267.864 404.683 273.06C404.683 273.637 404.105 273.926 403.817 273.926Z" fill="#BC7A4E"/>
<path d="M392.559 304.234C392.271 304.234 392.271 304.234 391.982 304.234C391.405 303.945 391.116 303.368 391.405 302.79C393.714 297.595 395.734 292.688 397.466 288.069C397.755 287.492 398.332 287.203 398.91 287.492C399.487 287.781 399.775 288.358 399.487 288.935C397.755 293.842 395.734 298.749 393.137 303.945C393.425 303.945 393.137 304.234 392.559 304.234Z" fill="#BC7A4E"/>
<path d="M355.901 356.767C355.613 356.767 355.324 356.767 355.035 356.479C354.747 356.19 354.747 355.324 355.035 355.035C358.499 351.572 362.251 347.53 366.004 343.201C366.293 342.623 367.158 342.623 367.447 343.201C368.024 343.489 368.024 344.355 367.447 344.644C363.695 348.974 360.231 353.015 356.479 356.767C356.479 356.767 356.19 356.767 355.901 356.767Z" fill="#BC7A4E"/>
<path d="M40.6992 242.174C40.1219 242.174 39.5447 241.886 39.5447 241.309C38.9674 235.536 38.6787 230.34 38.6787 225.144C38.6787 224.567 39.256 223.99 39.8333 223.99C40.4106 223.99 40.9879 224.567 40.9879 225.144C40.9879 230.051 41.2765 235.536 41.8538 241.309C41.8538 241.597 41.2765 242.174 40.6992 242.174Z" fill="#BC7A4E"/>
<path d="M46.1835 273.926C45.6062 273.926 45.3176 273.637 45.0289 273.06C43.5857 268.153 42.4311 262.668 41.5652 257.184C41.5652 256.607 41.8538 256.03 42.4311 256.03C43.0084 256.03 43.5857 256.318 43.5857 256.895C44.4517 262.38 45.6062 267.575 47.0495 272.482C47.3381 273.06 47.0495 273.637 46.1835 273.926C46.4722 273.926 46.1835 273.926 46.1835 273.926Z" fill="#BC7A4E"/>
<path d="M57.1519 304.234C56.8633 304.234 56.286 303.945 56.286 303.656C53.9768 298.461 51.9563 293.554 49.9357 288.647C49.6471 288.07 49.9357 287.492 50.513 287.204C51.0903 286.915 51.6676 287.204 51.9563 287.781C53.6882 292.688 55.7087 297.595 58.0179 302.502C58.3065 303.079 58.0179 303.656 57.4406 303.945C57.4406 304.234 57.4406 304.234 57.1519 304.234Z" fill="#BC7A4E"/>
<path d="M409.301 242.175C408.724 242.175 408.146 241.597 408.146 241.02C408.724 235.247 409.012 230.051 409.012 224.856C409.012 224.278 409.589 223.701 410.167 223.701C410.744 223.701 411.321 224.278 411.321 224.856C411.321 230.051 411.033 235.247 410.455 241.02C410.167 241.597 409.878 242.175 409.301 242.175Z" fill="#BC7A4E"/>
<path d="M118.922 377.55C118.634 377.55 118.634 377.55 118.345 377.261C113.727 374.086 109.397 370.622 105.356 367.447C104.779 367.158 104.779 366.292 105.356 366.004C105.645 365.426 106.511 365.426 106.799 366.004C110.84 369.468 115.17 372.643 119.5 375.818C120.077 376.106 120.077 376.972 119.788 377.261C119.5 377.55 119.211 377.55 118.922 377.55Z" fill="#BC7A4E"/>
<path d="M146.632 393.714C146.344 393.714 146.344 393.714 146.055 393.714C141.148 391.405 136.53 388.807 131.623 386.209C131.045 385.92 131.045 385.343 131.334 384.766C131.623 384.189 132.2 384.189 132.777 384.477C137.396 387.075 142.303 389.673 146.921 391.982C147.498 392.271 147.787 392.848 147.498 393.425C147.498 393.425 147.21 393.714 146.632 393.714Z" fill="#BC7A4E"/>
<path d="M73.3163 332.232C73.0276 332.232 72.739 331.943 72.4503 331.655C69.2752 327.325 66.3888 322.707 63.7909 318.088C63.5023 317.511 63.7909 316.934 64.0796 316.645C64.6569 316.357 65.2342 316.645 65.5228 316.934C68.1207 321.552 71.0071 326.171 74.1822 330.5C74.4709 331.078 74.4709 331.655 73.8936 331.943C73.8936 331.943 73.6049 332.232 73.3163 332.232Z" fill="#BC7A4E"/>
<path d="M94.0988 356.767C93.8102 356.767 93.5216 356.767 93.2329 356.479C89.4805 352.726 86.0167 348.685 82.2643 344.356C81.9757 343.778 81.9757 343.201 82.2643 342.912C82.8416 342.624 83.4189 342.624 83.7076 342.912C87.1713 347.242 90.9237 351.283 94.3875 354.747C94.6761 355.035 94.6761 355.901 94.3875 356.19C94.6761 356.767 94.3875 356.767 94.0988 356.767Z" fill="#BC7A4E"/>
<path d="M42.7198 258.05C42.1425 258.05 41.8539 257.761 41.5652 257.184C40.6993 251.7 39.8333 246.504 39.5447 241.02C39.5447 240.443 39.8333 239.865 40.4106 239.865C40.9879 239.865 41.5652 240.154 41.5652 240.731C42.1425 245.927 42.7198 251.411 43.5857 256.607C43.8744 257.473 43.5857 258.05 42.7198 258.05Z" fill="#BC7A4E"/>
<path d="M105.933 367.736C105.645 367.736 105.356 367.736 105.356 367.447C101.026 363.695 96.9852 360.231 93.2328 356.479C92.9442 356.19 92.9442 355.324 93.2328 355.035C93.5215 354.747 94.3874 354.747 94.6761 355.035C98.1398 358.499 102.181 362.251 106.511 365.715C107.088 366.004 107.088 366.87 106.511 367.158C106.511 367.736 106.222 367.736 105.933 367.736Z" fill="#BC7A4E"/>
<path d="M83.1303 344.933C82.8416 344.933 82.553 344.933 82.2643 344.644C78.8006 340.603 75.6255 336.273 72.4503 331.655C72.1617 331.078 72.1617 330.5 72.739 330.212C73.3163 329.923 73.8936 329.923 74.1822 330.5C77.3573 335.119 80.5324 339.16 83.9962 343.201C84.2849 343.778 84.2849 344.356 83.9962 344.644C83.7076 344.933 83.4189 344.933 83.1303 344.933Z" fill="#BC7A4E"/>
<path d="M51.0905 289.224C50.5132 289.224 50.2246 288.935 49.9359 288.646C48.204 283.739 46.4722 278.544 45.0289 273.06C44.7403 272.482 45.3176 271.905 45.8949 271.616C46.4722 271.328 47.0494 271.905 47.3381 272.482C48.7813 277.967 50.5132 282.874 52.2451 287.781C52.5337 288.358 52.2451 288.935 51.6678 289.224C51.3791 289.224 51.0905 289.224 51.0905 289.224Z" fill="#BC7A4E"/>
<path d="M64.6568 318.666C64.3682 318.666 63.7909 318.377 63.7909 318.089C60.9044 313.47 58.5953 308.563 56.2861 303.656C55.9974 303.079 56.2861 302.502 56.8634 302.213C57.4407 301.924 58.018 302.213 58.3066 302.79C60.6158 307.409 62.925 312.316 65.8114 316.934C66.1001 317.511 65.8114 318.089 65.5228 318.377C64.9455 318.377 64.9455 318.666 64.6568 318.666Z" fill="#BC7A4E"/>
<path d="M343.778 367.736C343.49 367.736 343.201 367.736 342.912 367.447C342.624 366.87 342.624 366.293 342.912 366.004C347.242 362.54 351.283 358.788 354.747 355.324C355.035 355.036 355.901 355.036 356.19 355.324C356.479 355.613 356.479 356.479 356.19 356.767C352.438 360.52 348.397 363.984 344.067 367.736C344.355 367.736 344.067 367.736 343.778 367.736Z" fill="#BC7A4E"/>
<path d="M288.358 400.064C287.781 400.064 287.492 399.776 287.203 399.487C286.915 398.91 287.203 398.332 287.781 398.044C292.688 396.312 297.595 394.291 302.502 391.982C303.079 391.693 303.656 391.982 303.945 392.559C304.233 393.137 303.945 393.714 303.368 394.003C298.172 396.312 293.265 398.332 288.358 400.353C288.358 399.776 288.358 400.064 288.358 400.064Z" fill="#BC7A4E"/>
<path d="M272.771 404.682C272.194 404.682 271.905 404.394 271.616 403.817C271.328 403.239 271.905 402.662 272.482 402.373C277.678 400.93 282.874 399.198 287.781 397.466C288.358 397.178 288.935 397.466 289.224 398.044C289.512 398.621 289.224 399.198 288.646 399.487C283.739 401.796 278.544 403.239 272.771 404.682C273.06 404.682 273.06 404.682 272.771 404.682Z" fill="#BC7A4E"/>
<path d="M224.856 411.033C219.66 411.033 214.464 410.744 208.692 410.167C208.114 410.167 207.537 409.59 207.826 409.012C207.826 408.435 208.403 407.858 208.98 408.146C214.753 408.724 219.949 409.012 225.144 409.012C225.722 409.012 226.299 409.59 226.299 410.167C226.01 410.456 225.433 411.033 224.856 411.033Z" fill="#BC7A4E"/>
<path d="M224.856 411.033C224.278 411.033 223.701 410.455 223.701 409.878C223.701 409.301 224.278 408.724 224.856 408.724C229.763 408.724 235.247 408.435 241.02 407.858C241.597 407.858 242.175 408.146 242.175 408.724C242.175 409.301 241.886 409.878 241.309 409.878C235.247 410.744 230.051 411.033 224.856 411.033Z" fill="#BC7A4E"/>
<path d="M257.184 408.146C256.607 408.146 256.318 407.858 256.03 407.28C256.03 406.703 256.318 406.126 256.895 406.126C262.38 405.26 267.575 404.105 272.482 402.662C273.06 402.373 273.637 402.951 273.926 403.528C274.214 404.105 273.637 404.683 273.06 404.971C268.153 406.126 262.668 407.28 257.184 408.146Z" fill="#BC7A4E"/>
<path d="M398.91 289.224H398.621C398.044 288.935 397.755 288.358 398.044 287.781C399.776 282.874 401.507 277.678 402.951 272.482C403.239 271.905 403.817 271.616 404.394 271.616C404.971 271.905 405.26 272.482 405.26 273.06C403.817 278.544 402.085 283.74 400.353 288.647C399.776 288.935 399.198 289.224 398.91 289.224Z" fill="#BC7A4E"/>
<path d="M376.395 332.232C376.106 332.232 376.106 332.232 375.818 331.944C375.241 331.655 375.241 330.789 375.529 330.5C378.704 326.171 381.591 321.552 384.189 316.934C384.477 316.357 385.055 316.357 385.632 316.645C386.209 316.934 386.209 317.511 385.92 318.089C383.323 322.707 380.148 327.325 377.261 331.655C377.261 331.944 376.972 332.232 376.395 332.232Z" fill="#BC7A4E"/>
<path d="M366.581 344.933C366.292 344.933 366.004 344.933 366.004 344.644C365.426 344.356 365.426 343.49 366.004 343.201C369.468 339.16 372.643 334.83 375.818 330.5C376.106 329.923 376.972 329.923 377.261 330.212C377.838 330.5 377.838 331.366 377.55 331.655C374.375 336.273 371.199 340.603 367.736 344.644C367.158 344.933 366.87 344.933 366.581 344.933Z" fill="#BC7A4E"/>
<path d="M385.055 318.666C384.766 318.666 384.766 318.666 384.477 318.377C383.9 318.089 383.9 317.511 384.189 316.934C386.786 312.316 389.384 307.409 391.693 302.79C391.982 302.213 392.559 301.924 393.137 302.213C393.714 302.502 394.003 303.079 393.714 303.656C391.405 308.563 388.807 313.182 386.209 318.089C385.921 318.377 385.632 318.666 385.055 318.666Z" fill="#BC7A4E"/>
<path d="M317.511 386.209C317.223 386.209 316.645 385.92 316.645 385.632C316.357 385.055 316.645 384.477 316.934 384.189C321.552 381.591 326.171 378.704 330.5 375.529C331.078 375.241 331.655 375.241 331.944 375.818C332.232 376.395 332.232 376.972 331.655 377.261C327.325 380.436 322.707 383.323 318.089 385.92C317.8 386.209 317.511 386.209 317.511 386.209Z" fill="#BC7A4E"/>
<path d="M241.02 410.456C240.443 410.456 239.865 410.167 239.865 409.59C239.865 409.012 240.154 408.435 240.731 408.435C245.927 407.858 251.411 407.28 256.607 406.415C257.184 406.415 257.761 406.703 257.761 407.28C257.761 407.858 257.473 408.435 256.895 408.435C251.988 409.012 246.504 409.878 241.02 410.456Z" fill="#BC7A4E"/>
<path d="M208.691 410.456C203.207 409.878 197.723 409.301 192.527 408.435C191.95 408.435 191.661 407.858 191.661 407.28C191.661 406.703 192.239 406.415 192.816 406.415C198.012 407.28 203.496 408.146 208.691 408.435C209.269 408.435 209.846 409.012 209.557 409.59C209.846 409.878 209.269 410.456 208.691 410.456Z" fill="#BC7A4E"/>
<path d="M161.642 400.064H161.353C156.446 398.332 151.539 396.312 146.344 393.714C145.767 393.425 145.478 392.848 145.767 392.271C146.055 391.693 146.632 391.405 147.21 391.693C152.405 394.002 157.312 396.023 161.931 397.755C162.508 398.044 162.797 398.621 162.508 399.198C162.508 399.775 162.219 400.064 161.642 400.064Z" fill="#BC7A4E"/>
<path d="M132.489 386.209C132.2 386.209 132.2 386.209 131.912 385.92C127.293 383.323 122.675 380.148 118.345 377.261C117.768 376.972 117.768 376.106 118.057 375.818C118.345 375.241 119.211 375.241 119.5 375.529C123.829 378.704 128.448 381.591 133.066 384.189C133.643 384.477 133.643 385.055 133.355 385.632C133.066 385.92 132.778 386.209 132.489 386.209Z" fill="#BC7A4E"/>
<path d="M192.816 408.146C187.043 407.28 181.847 406.126 176.652 404.682C176.074 404.394 175.786 403.817 175.786 403.239C176.074 402.662 176.652 402.373 177.229 402.373C182.136 403.817 187.62 404.971 192.816 405.837C193.393 405.837 193.682 406.414 193.682 406.992C193.682 407.858 193.393 408.146 192.816 408.146Z" fill="#BC7A4E"/>
<path d="M407.28 258.05C406.992 258.05 406.992 258.05 407.28 258.05C406.414 258.05 406.126 257.473 406.126 256.895C406.992 251.7 407.858 246.216 408.146 241.02C408.146 240.443 408.724 239.865 409.301 240.154C409.878 240.154 410.455 240.731 410.167 241.309C409.589 246.504 409.012 251.988 408.146 257.473C408.146 257.761 407.569 258.05 407.28 258.05Z" fill="#BC7A4E"/>
<path d="M176.94 404.683C171.167 403.239 165.972 401.507 161.065 399.776C160.488 399.487 160.199 398.91 160.488 398.332C160.776 397.755 161.353 397.466 161.931 397.755C166.838 399.487 171.745 401.219 177.229 402.662C177.806 402.951 178.095 403.528 178.095 404.105C178.095 404.394 177.518 404.683 176.94 404.683Z" fill="#BC7A4E"/>
<path d="M224.856 411.033C224.278 411.033 223.701 410.455 223.701 409.878V343.778C223.701 343.201 224.278 342.624 224.856 342.624C225.433 342.624 226.01 343.201 226.01 343.778V409.878C226.01 410.455 225.433 411.033 224.856 411.033Z" fill="#BC7A4E"/>
<path d="M105.933 226.01H39.8333C39.256 226.01 38.6787 225.433 38.6787 224.856C38.6787 224.278 39.256 223.701 39.8333 223.701H105.933C106.511 223.701 107.088 224.278 107.088 224.856C107.088 225.433 106.511 226.01 105.933 226.01Z" fill="#BC7A4E"/>
<path d="M40.6993 242.175C40.122 242.175 39.5447 241.886 39.5447 241.309C39.5447 240.731 39.8333 240.154 40.4106 240.154L106.222 234.381C106.799 234.381 107.377 234.67 107.377 235.247C107.377 235.824 107.088 236.402 106.511 236.402L40.6993 242.175Z" fill="#BC7A4E"/>
<path d="M241.02 410.455C240.443 410.455 239.865 410.167 239.865 409.589L234.093 343.778C234.093 343.201 234.381 342.624 234.958 342.624C235.536 342.624 236.113 342.912 236.113 343.489L241.886 409.301C242.175 409.878 241.886 410.167 241.02 410.455Z" fill="#BC7A4E"/>
<path d="M42.7198 258.05C42.1425 258.05 41.8538 257.761 41.5652 257.184C41.5652 256.607 41.8538 256.029 42.4311 256.029L107.377 244.484C107.954 244.484 108.531 244.772 108.531 245.35C108.531 245.927 108.243 246.504 107.665 246.504L42.7198 258.05Z" fill="#BC7A4E"/>
<path d="M257.184 408.146C256.607 408.146 256.318 407.858 256.029 407.281L244.484 342.335C244.484 341.758 244.772 341.18 245.35 341.18C245.927 341.18 246.504 341.469 246.504 342.046L258.05 406.992C258.339 407.569 257.761 408.146 257.184 408.146Z" fill="#BC7A4E"/>
<path d="M46.1835 273.926C45.6062 273.926 45.3176 273.637 45.0289 273.06C44.7403 272.482 45.3176 271.905 45.8949 271.616L109.686 254.586C110.263 254.298 110.84 254.875 111.129 255.452C111.418 256.03 110.84 256.607 110.263 256.895L46.1835 273.926C46.4722 273.926 46.1835 273.926 46.1835 273.926Z" fill="#BC7A4E"/>
<path d="M272.771 404.683C272.194 404.683 271.905 404.394 271.616 403.817L254.586 340.026C254.298 339.449 254.875 338.871 255.452 338.583C256.03 338.294 256.607 338.871 256.895 339.449L273.926 403.239C273.926 404.105 273.637 404.683 272.771 404.683C273.06 404.683 273.06 404.683 272.771 404.683Z" fill="#BC7A4E"/>
<path d="M51.0906 289.224C50.5133 289.224 50.2246 288.935 49.936 288.647C49.6473 288.069 49.936 287.492 50.5133 287.203L112.572 264.689C113.15 264.4 113.727 264.689 114.016 265.266C114.304 265.844 114.016 266.421 113.438 266.709L51.3792 289.224H51.0906Z" fill="#BC7A4E"/>
<path d="M288.358 400.064C287.781 400.064 287.492 399.776 287.203 399.487L264.689 337.428C264.4 336.851 264.689 336.273 265.266 335.985C265.844 335.696 266.421 335.985 266.709 336.562L289.224 398.621C289.513 399.198 289.224 399.776 288.647 400.064C288.358 399.776 288.358 400.064 288.358 400.064Z" fill="#BC7A4E"/>
<path d="M57.152 304.234C56.8634 304.234 56.2861 303.945 56.2861 303.656C55.9974 303.079 56.2861 302.502 56.8634 302.213L116.613 274.214C117.191 273.926 117.768 274.214 118.056 274.792C118.345 275.369 118.056 275.946 117.479 276.235L57.7293 304.234C57.4407 304.234 57.4407 304.234 57.152 304.234Z" fill="#BC7A4E"/>
<path d="M303.079 393.714C302.79 393.714 302.213 393.425 302.213 393.137L274.214 333.387C273.926 332.81 274.214 332.232 274.792 331.944C275.369 331.655 275.946 331.944 276.235 332.521L304.234 392.271C304.522 392.848 304.234 393.425 303.656 393.714C303.368 393.714 303.368 393.714 303.079 393.714Z" fill="#BC7A4E"/>
<path d="M64.6569 318.666C64.3682 318.666 63.7909 318.377 63.7909 318.088C63.5023 317.511 63.7909 316.934 64.0796 316.645L121.232 283.451C121.809 283.162 122.386 283.451 122.675 283.74C122.964 284.317 122.675 284.894 122.386 285.183L65.2342 318.088C64.9455 318.377 64.9455 318.666 64.6569 318.666Z" fill="#BC7A4E"/>
<path d="M317.511 386.209C317.223 386.209 316.645 385.92 316.645 385.632L283.74 328.48C283.451 327.902 283.74 327.325 284.028 327.037C284.606 326.748 285.183 327.037 285.472 327.325L318.377 384.477C318.666 385.055 318.377 385.632 318.089 385.92C317.8 386.209 317.511 386.209 317.511 386.209Z" fill="#BC7A4E"/>
<path d="M73.3163 332.232C73.0276 332.232 72.739 331.944 72.4503 331.655C72.1617 331.078 72.1617 330.5 72.739 330.212L126.716 292.399C127.293 292.11 127.87 292.11 128.159 292.688C128.448 293.265 128.448 293.842 127.87 294.131L73.8936 331.944C73.8936 331.944 73.6049 332.232 73.3163 332.232Z" fill="#BC7A4E"/>
<path d="M331.078 377.55C330.789 377.55 330.5 377.261 330.212 376.973L292.399 322.996C292.11 322.418 292.11 321.841 292.688 321.552C293.265 321.264 293.842 321.264 294.131 321.841L331.944 375.818C332.232 376.395 332.232 376.973 331.655 377.261C331.366 377.55 331.366 377.55 331.078 377.55Z" fill="#BC7A4E"/>
<path d="M83.1303 344.933C82.8416 344.933 82.553 344.933 82.2643 344.644C81.9757 344.067 81.9757 343.489 82.2643 343.201L132.778 300.77C133.355 300.481 133.932 300.481 134.221 300.77C134.509 301.347 134.509 301.924 134.221 302.213L83.7076 344.644C83.7076 344.933 83.4189 344.933 83.1303 344.933Z" fill="#BC7A4E"/>
<path d="M343.778 367.736C343.489 367.736 343.201 367.736 342.912 367.447L300.481 316.934C300.192 316.357 300.192 315.78 300.481 315.491C301.058 315.202 301.636 315.202 301.924 315.491L344.355 366.004C344.644 366.581 344.644 367.159 344.355 367.447C344.355 367.736 344.067 367.736 343.778 367.736Z" fill="#BC7A4E"/>
<path d="M94.0988 356.767C93.8101 356.767 93.5215 356.767 93.2328 356.479C92.9442 356.19 92.9442 355.324 93.2328 355.035L139.994 308.275C140.282 307.986 141.148 307.986 141.437 308.275C141.725 308.563 141.725 309.429 141.437 309.718L94.6761 356.479C94.6761 356.767 94.3874 356.767 94.0988 356.767Z" fill="#BC7A4E"/>
<path d="M355.901 356.767C355.613 356.767 355.324 356.767 355.035 356.479L308.275 309.718C307.986 309.429 307.986 308.563 308.275 308.275C308.563 307.986 309.429 307.986 309.718 308.275L356.479 355.035C356.767 355.324 356.767 356.19 356.479 356.479C356.479 356.767 356.19 356.767 355.901 356.767Z" fill="#BC7A4E"/>
<path d="M105.933 367.736C105.645 367.736 105.356 367.736 105.356 367.447C104.779 367.159 104.779 366.293 105.356 366.004L147.787 315.491C148.076 314.914 148.942 314.914 149.23 315.491C149.808 315.779 149.808 316.645 149.23 316.934L106.799 367.447C106.511 367.736 106.222 367.736 105.933 367.736Z" fill="#BC7A4E"/>
<path d="M366.581 344.933C366.293 344.933 366.004 344.933 366.004 344.644L315.491 302.213C314.914 301.924 314.914 301.059 315.491 300.77C315.779 300.193 316.645 300.193 316.934 300.77L367.447 343.201C368.025 343.49 368.025 344.356 367.447 344.644C367.159 344.933 366.87 344.933 366.581 344.933Z" fill="#BC7A4E"/>
<path d="M118.922 377.55C118.634 377.55 118.634 377.55 118.345 377.261C117.768 376.973 117.768 376.107 118.057 375.818L155.869 321.841C156.158 321.264 157.024 321.264 157.312 321.552C157.89 321.841 157.89 322.707 157.601 322.996L119.788 376.973C119.5 377.55 119.211 377.55 118.922 377.55Z" fill="#BC7A4E"/>
<path d="M376.395 332.232C376.107 332.232 376.107 332.232 375.818 331.944L321.841 294.131C321.264 293.842 321.264 292.976 321.552 292.688C321.841 292.11 322.707 292.11 322.996 292.399L376.973 330.212C377.55 330.5 377.55 331.366 377.261 331.655C377.261 331.944 376.973 332.232 376.395 332.232Z" fill="#BC7A4E"/>
<path d="M132.489 386.209C132.2 386.209 132.2 386.209 131.912 386.209C131.334 385.921 131.334 385.343 131.623 384.766L164.529 327.614C164.817 327.037 165.395 327.037 165.972 327.325C166.549 327.614 166.549 328.191 166.261 328.769L133.355 385.921C133.066 385.921 132.778 386.209 132.489 386.209Z" fill="#BC7A4E"/>
<path d="M385.055 318.666C384.766 318.666 384.766 318.666 384.477 318.666L327.325 285.76C326.748 285.471 326.748 284.894 327.037 284.317C327.325 283.74 327.903 283.74 328.48 284.028L385.632 316.934C386.209 317.223 386.209 317.8 385.921 318.377C385.921 318.377 385.632 318.666 385.055 318.666Z" fill="#BC7A4E"/>
<path d="M146.633 393.714C146.344 393.714 146.344 393.714 146.055 393.714C145.478 393.425 145.189 392.848 145.478 392.271L173.477 332.521C173.765 331.944 174.343 331.655 174.92 331.944C175.497 332.232 175.786 332.81 175.497 333.387L147.499 393.137C147.499 393.425 147.21 393.714 146.633 393.714Z" fill="#BC7A4E"/>
<path d="M392.559 304.234C392.271 304.234 392.271 304.234 391.982 304.234L332.232 276.235C331.655 275.946 331.366 275.369 331.655 274.792C331.944 274.214 332.521 273.926 333.098 274.214L392.848 302.213C393.425 302.502 393.714 303.079 393.425 303.656C393.425 303.945 393.137 304.234 392.559 304.234Z" fill="#BC7A4E"/>
<path d="M161.642 400.064H161.354C160.776 399.776 160.488 399.198 160.776 398.621L183.291 336.562C183.579 335.985 184.157 335.696 184.734 335.985C185.311 336.273 185.6 336.851 185.311 337.428L162.797 399.487C162.508 399.776 162.22 400.064 161.642 400.064Z" fill="#BC7A4E"/>
<path d="M398.91 289.224H398.621L336.562 266.709C335.985 266.421 335.696 265.844 335.985 265.266C336.273 264.689 336.851 264.4 337.428 264.689L399.487 287.203C400.064 287.492 400.353 288.069 400.064 288.647C399.776 288.935 399.198 289.224 398.91 289.224Z" fill="#BC7A4E"/>
<path d="M176.94 404.683C176.075 404.394 175.786 403.817 175.786 403.239L192.816 339.448C193.105 338.871 193.682 338.583 194.259 338.583C194.837 338.871 195.125 339.448 195.125 340.026L178.095 404.105C178.095 404.394 177.518 404.683 176.94 404.683Z" fill="#BC7A4E"/>
<path d="M403.817 273.926C403.528 273.926 403.528 273.926 403.817 273.926L339.737 256.896C339.16 256.607 338.871 256.03 338.871 255.452C339.16 254.875 339.737 254.586 340.314 254.586L404.105 271.617C404.683 271.905 404.971 272.483 404.971 273.06C404.683 273.637 404.105 273.926 403.817 273.926Z" fill="#BC7A4E"/>
<path d="M192.816 408.146C191.95 408.146 191.661 407.569 191.661 406.992L203.207 342.046C203.207 341.469 203.785 341.18 204.362 341.18C204.939 341.18 205.228 341.758 205.228 342.335L193.682 407.281C193.682 407.858 193.393 408.146 192.816 408.146Z" fill="#BC7A4E"/>
<path d="M407.28 258.05C406.992 258.05 406.992 258.05 407.28 258.05L342.046 246.504C341.469 246.504 341.18 245.927 341.18 245.35C341.18 244.772 341.758 244.484 342.335 244.484L407.28 256.029C407.858 256.029 408.146 256.607 408.146 257.184C408.146 257.761 407.569 258.05 407.28 258.05Z" fill="#BC7A4E"/>
<path d="M208.691 410.455C208.114 410.455 207.537 409.878 207.537 409.301L213.31 343.489C213.31 342.912 213.887 342.335 214.464 342.623C215.042 342.623 215.619 343.201 215.33 343.778L209.557 409.589C209.846 409.878 209.269 410.455 208.691 410.455Z" fill="#BC7A4E"/>
<path d="M409.301 242.175L343.49 236.402C342.912 236.402 342.335 235.824 342.624 235.247C342.624 234.67 343.201 234.093 343.778 234.381L409.59 240.154C410.167 240.154 410.744 240.731 410.456 241.309C410.167 241.597 409.878 242.175 409.301 242.175Z" fill="#BC7A4E"/>
<path d="M148.364 317.223C148.076 317.223 147.787 317.223 147.787 316.934C144.901 314.625 142.303 312.316 139.994 310.007C139.705 309.718 139.705 308.852 139.994 308.563C140.282 308.275 141.148 308.275 141.437 308.563C143.746 310.873 146.344 313.182 148.942 315.491C149.519 315.78 149.519 316.646 148.942 316.934C148.942 316.934 148.653 317.223 148.364 317.223Z" fill="#BC7A4E"/>
<path d="M184.157 338.005H183.868C180.693 336.851 177.518 335.407 174.054 333.964C173.477 333.675 173.188 333.098 173.477 332.521C173.765 331.944 174.343 331.655 174.92 331.944C178.095 333.387 181.27 334.83 184.445 335.985C185.023 336.273 185.311 336.851 185.023 337.428C185.023 337.717 184.734 338.005 184.157 338.005Z" fill="#BC7A4E"/>
<path d="M133.644 302.502C133.355 302.502 133.066 302.502 132.778 302.213C130.468 299.615 128.448 296.729 126.427 293.842C126.139 293.265 126.139 292.688 126.716 292.399C127.293 292.11 127.871 292.11 128.159 292.688C130.18 295.574 132.2 298.172 134.509 300.77C134.798 301.347 134.798 301.924 134.509 302.213C134.221 302.502 133.932 302.502 133.644 302.502Z" fill="#BC7A4E"/>
<path d="M165.395 329.057C165.106 329.057 165.106 329.057 164.817 328.768C161.931 327.037 158.756 325.016 155.869 322.995C155.292 322.707 155.292 321.841 155.581 321.552C155.869 320.975 156.735 320.975 157.024 321.264C159.91 323.284 162.797 325.016 165.683 326.748C166.261 327.036 166.261 327.614 165.972 328.191C166.261 328.768 165.683 329.057 165.395 329.057Z" fill="#BC7A4E"/>
<path d="M336.851 266.71H336.562C335.985 266.421 335.696 265.844 335.985 265.266C337.139 262.091 338.005 258.916 339.16 255.452C339.449 254.875 340.026 254.586 340.603 254.586C341.18 254.875 341.469 255.452 341.469 256.03C340.603 259.493 339.449 262.957 338.294 266.132C337.717 266.421 337.139 266.71 336.851 266.71Z" fill="#BC7A4E"/>
<path d="M106.511 236.402C105.933 236.402 105.356 236.113 105.356 235.536C105.067 231.783 104.779 228.319 104.779 225.144C104.779 224.567 105.356 223.99 105.933 223.99C106.511 223.99 107.088 224.567 107.088 225.144C107.088 228.319 107.377 231.783 107.665 235.536C107.377 235.824 107.088 236.402 106.511 236.402Z" fill="#BC7A4E"/>
<path d="M113.15 266.709C112.572 266.709 112.284 266.421 111.995 266.132C110.84 262.957 109.686 259.493 108.82 256.03C108.531 255.452 109.109 254.875 109.686 254.586C110.263 254.298 110.84 254.875 111.129 255.452C111.995 258.916 113.15 262.091 114.304 265.266C114.593 265.844 114.304 266.421 113.727 266.709C113.438 266.709 113.15 266.709 113.15 266.709Z" fill="#BC7A4E"/>
<path d="M107.665 246.793C107.088 246.793 106.799 246.504 106.511 245.927C105.933 242.463 105.356 238.999 105.067 235.536C105.067 234.958 105.356 234.381 105.933 234.381C106.511 234.381 107.088 234.67 107.088 235.247C107.377 238.711 107.954 242.175 108.531 245.35C108.82 245.927 108.531 246.504 107.665 246.793C107.954 246.793 107.665 246.793 107.665 246.793Z" fill="#BC7A4E"/>
<path d="M204.362 343.201C204.073 343.201 204.073 343.201 204.362 343.201C200.61 342.624 197.146 341.758 193.971 340.892C193.393 340.603 193.105 340.026 193.105 339.448C193.393 338.871 193.971 338.583 194.548 338.583C197.723 339.448 201.187 340.314 204.651 340.892C205.228 340.892 205.517 341.469 205.517 342.046C205.228 342.912 204.651 343.201 204.362 343.201Z" fill="#BC7A4E"/>
<path d="M121.809 285.472C121.52 285.472 120.943 285.183 120.943 284.894C119.211 281.719 117.479 278.833 116.036 275.658C115.747 275.08 116.036 274.503 116.613 274.214C117.191 273.926 117.768 274.214 118.057 274.792C119.5 277.967 120.943 280.853 122.964 284.028C123.252 284.606 122.964 285.183 122.675 285.472C122.098 285.472 122.098 285.472 121.809 285.472Z" fill="#BC7A4E"/>
<path d="M332.81 276.235C332.521 276.235 332.521 276.235 332.232 276.235C331.655 275.946 331.366 275.369 331.655 274.792C333.098 271.616 334.541 268.441 335.696 265.266C335.985 264.689 336.562 264.4 337.139 264.689C337.717 264.978 338.005 265.555 337.717 266.132C336.562 269.307 335.119 272.482 333.675 275.946C333.675 276.235 333.098 276.235 332.81 276.235Z" fill="#BC7A4E"/>
<path d="M322.418 294.42C322.13 294.42 322.13 294.42 321.841 294.131C321.264 293.842 321.264 292.976 321.552 292.688C323.573 289.801 325.305 286.915 327.037 284.028C327.325 283.451 327.903 283.451 328.48 283.74C329.057 284.028 329.057 284.606 328.769 285.183C327.037 288.358 325.016 291.244 322.996 294.131C322.996 294.131 322.707 294.42 322.418 294.42Z" fill="#BC7A4E"/>
<path d="M340.026 256.895C339.737 256.895 339.737 256.895 340.026 256.895C339.16 256.607 338.871 256.029 338.871 255.452C339.737 252.277 340.603 248.813 341.18 245.35C341.18 244.772 341.758 244.484 342.335 244.484C342.912 244.484 343.201 245.061 343.201 245.638C342.624 249.102 341.758 252.566 340.892 255.741C340.892 256.607 340.314 256.895 340.026 256.895Z" fill="#BC7A4E"/>
<path d="M255.741 340.892C255.164 340.892 254.875 340.603 254.586 340.026C254.298 339.449 254.875 338.871 255.452 338.583C258.916 337.717 262.091 336.562 265.266 335.407C265.844 335.119 266.421 335.407 266.709 335.985C266.998 336.562 266.709 337.139 266.132 337.428C262.957 338.871 259.493 340.026 255.741 340.892C256.03 340.892 255.741 340.892 255.741 340.892Z" fill="#BC7A4E"/>
<path d="M343.49 236.402C342.912 236.402 342.335 235.824 342.335 235.247C342.624 231.495 342.912 228.32 342.912 224.856C342.912 224.278 343.49 223.701 344.067 223.701C344.644 223.701 345.221 224.278 345.221 224.856C345.221 228.031 344.933 231.495 344.644 235.247C344.644 235.824 344.067 236.402 343.49 236.402Z" fill="#BC7A4E"/>
<path d="M275.369 333.964C275.08 333.964 274.503 333.675 274.503 333.387C274.214 332.81 274.503 332.232 275.08 331.944C278.255 330.5 281.142 329.057 284.317 327.037C284.894 326.748 285.471 327.037 285.76 327.325C286.049 327.902 285.76 328.48 285.471 328.768C282.296 330.5 279.41 332.232 276.235 333.675C275.657 333.964 275.369 333.964 275.369 333.964Z" fill="#BC7A4E"/>
<path d="M293.265 323.573C292.976 323.573 292.688 323.284 292.399 322.996C292.11 322.418 292.11 321.841 292.688 321.552C295.574 319.532 298.172 317.511 300.77 315.202C301.347 314.913 301.924 314.913 302.213 315.202C302.502 315.779 302.502 316.357 302.213 316.645C299.615 318.954 296.729 320.975 293.842 322.996C293.554 323.573 293.554 323.573 293.265 323.573Z" fill="#BC7A4E"/>
<path d="M342.046 246.793C341.18 246.793 340.892 246.215 340.892 245.638C341.469 242.174 342.046 238.711 342.335 235.535C342.335 234.958 342.912 234.381 343.489 234.67C344.067 234.67 344.644 235.247 344.355 235.824C344.067 239.288 343.489 242.752 342.912 246.215C343.201 246.215 342.623 246.793 342.046 246.793Z" fill="#BC7A4E"/>
<path d="M127.582 294.419C127.293 294.419 127.005 294.131 126.716 293.842C124.695 290.956 122.964 288.069 120.943 284.894C120.654 284.317 120.943 283.74 121.232 283.451C121.809 283.162 122.386 283.451 122.675 283.74C124.407 286.626 126.139 289.512 128.159 292.399C128.448 292.976 128.448 293.554 127.871 293.842C127.871 294.131 127.582 294.419 127.582 294.419Z" fill="#BC7A4E"/>
<path d="M214.464 344.644C211.001 344.356 207.537 343.778 204.073 343.201C203.496 343.201 203.207 342.624 203.207 342.046C203.207 341.469 203.785 341.18 204.362 341.18C207.826 341.758 211.289 342.335 214.464 342.624C215.042 342.624 215.619 343.201 215.33 343.778C215.619 344.067 215.042 344.644 214.464 344.644Z" fill="#BC7A4E"/>
<path d="M316.068 302.502C315.779 302.502 315.491 302.502 315.491 302.213C314.914 301.924 314.914 301.058 315.491 300.77C317.511 298.172 319.821 295.574 321.841 292.688C322.13 292.11 322.996 292.11 323.284 292.399C323.862 292.688 323.862 293.554 323.573 293.842C321.552 296.729 319.243 299.615 317.223 302.213C316.645 302.502 316.357 302.502 316.068 302.502Z" fill="#BC7A4E"/>
<path d="M309.141 310.295C308.852 310.295 308.563 310.295 308.275 310.006C307.986 309.718 307.986 308.852 308.275 308.563C310.584 306.254 312.893 303.656 315.202 301.058C315.491 300.481 316.357 300.481 316.645 301.058C317.223 301.347 317.223 302.213 316.645 302.502C314.336 305.388 312.027 307.986 309.718 310.295C309.718 310.006 309.429 310.295 309.141 310.295Z" fill="#BC7A4E"/>
<path d="M194.259 340.892C193.971 340.892 193.971 340.892 194.259 340.892C190.507 340.026 187.043 338.871 183.868 337.717C183.291 337.428 183.002 336.851 183.291 336.273C183.579 335.696 184.157 335.407 184.734 335.696C187.909 336.851 191.084 337.717 194.548 338.871C195.125 339.16 195.414 339.737 195.414 340.314C195.125 340.603 194.548 340.892 194.259 340.892Z" fill="#BC7A4E"/>
<path d="M174.631 333.964C174.343 333.964 174.343 333.964 174.054 333.964C170.879 332.521 167.704 330.789 164.817 329.057C164.24 328.769 164.24 328.191 164.529 327.614C164.817 327.037 165.395 327.037 165.972 327.325C168.858 329.057 172.034 330.789 175.209 332.232C175.786 332.521 176.075 333.098 175.786 333.676C175.497 333.676 174.92 333.964 174.631 333.964Z" fill="#BC7A4E"/>
<path d="M224.856 344.933C221.681 344.933 218.217 344.644 214.464 344.356C213.887 344.356 213.31 343.778 213.599 343.201C213.599 342.624 214.176 342.046 214.753 342.335C218.506 342.624 221.681 342.912 225.144 342.912C225.722 342.912 226.299 343.49 226.299 344.067C226.299 344.644 225.433 344.933 224.856 344.933Z" fill="#BC7A4E"/>
<path d="M245.638 343.201C245.061 343.201 244.772 342.912 244.484 342.335C244.484 341.758 244.772 341.18 245.35 341.18C248.813 340.603 252.277 339.737 255.452 338.871C256.03 338.583 256.607 339.16 256.895 339.737C257.184 340.314 256.607 340.892 256.03 341.18C252.854 341.758 249.391 342.624 245.638 343.201Z" fill="#BC7A4E"/>
<path d="M265.555 338.005C264.978 338.005 264.689 337.717 264.4 337.428C264.112 336.851 264.4 336.273 264.978 335.985C268.153 334.83 271.328 333.675 274.503 331.944C275.08 331.655 275.658 331.944 275.946 332.521C276.235 333.098 275.946 333.675 275.369 333.964C271.905 335.407 268.73 336.851 265.555 338.005C265.844 338.005 265.844 338.005 265.555 338.005Z" fill="#BC7A4E"/>
<path d="M301.347 317.223C301.058 317.223 300.77 317.223 300.481 316.934C300.192 316.357 300.192 315.78 300.481 315.491C303.079 313.182 305.677 310.873 307.986 308.563C308.275 308.275 309.141 308.275 309.429 308.563C309.718 308.852 309.718 309.718 309.429 310.007C307.12 312.316 304.522 314.625 301.636 316.934C301.924 317.223 301.636 317.223 301.347 317.223Z" fill="#BC7A4E"/>
<path d="M284.317 329.057C284.028 329.057 283.451 328.769 283.451 328.48C283.162 327.903 283.451 327.325 283.74 327.037C286.626 325.305 289.513 323.573 292.399 321.552C292.976 321.264 293.554 321.264 293.842 321.841C294.131 322.418 294.131 322.996 293.554 323.284C290.667 325.305 287.781 327.037 284.606 329.057C284.894 329.057 284.606 329.057 284.317 329.057Z" fill="#BC7A4E"/>
<path d="M235.247 344.644C234.67 344.644 234.093 344.356 234.093 343.778C234.093 343.201 234.381 342.624 234.958 342.624C238.422 342.335 241.886 341.758 245.061 341.18C245.638 341.18 246.216 341.469 246.216 342.046C246.216 342.624 245.927 343.201 245.35 343.201C242.463 343.778 238.711 344.356 235.247 344.644Z" fill="#BC7A4E"/>
<path d="M109.974 256.895C109.397 256.895 109.109 256.607 108.82 256.029C107.954 252.854 107.088 249.391 106.511 245.927C106.511 245.349 106.799 244.772 107.377 244.772C107.954 244.772 108.531 245.061 108.531 245.638C109.109 249.102 109.975 252.566 110.84 255.741C111.129 256.029 110.84 256.607 109.974 256.895C110.263 256.895 109.974 256.895 109.974 256.895Z" fill="#BC7A4E"/>
<path d="M224.856 344.933C224.278 344.933 223.701 344.356 223.701 343.778C223.701 343.201 224.278 342.624 224.856 342.624C228.031 342.624 231.495 342.335 235.247 342.046C235.824 342.046 236.402 342.335 236.402 342.912C236.402 343.49 236.113 344.067 235.536 344.067C231.783 344.933 228.32 344.933 224.856 344.933Z" fill="#BC7A4E"/>
<path d="M117.191 276.235C116.902 276.235 116.325 275.946 116.325 275.658C114.881 272.194 113.438 269.019 112.284 265.844C111.995 265.266 112.284 264.689 112.861 264.4C113.438 264.112 114.016 264.4 114.304 264.978C115.459 268.153 116.613 271.328 118.345 274.503C118.634 275.08 118.345 275.658 117.768 275.946C117.479 276.235 117.191 276.235 117.191 276.235Z" fill="#BC7A4E"/>
<path d="M156.735 323.573C156.447 323.573 156.447 323.573 156.158 323.284C153.272 321.264 150.385 318.955 147.787 316.934C147.21 316.645 147.21 315.779 147.787 315.491C148.076 314.914 148.942 314.914 149.23 315.491C151.828 317.511 154.426 319.82 157.313 321.841C157.89 322.13 157.89 322.996 157.601 323.284C157.313 323.284 157.024 323.573 156.735 323.573Z" fill="#BC7A4E"/>
<path d="M140.86 310.295C140.571 310.295 140.282 310.295 139.994 310.006C137.684 307.697 135.375 305.099 133.066 302.213C132.777 301.636 132.777 301.058 133.066 300.77C133.643 300.481 134.221 300.481 134.509 300.77C136.818 303.656 139.128 305.965 141.437 308.275C141.725 308.563 141.725 309.429 141.437 309.718C141.437 310.006 141.148 310.295 140.86 310.295Z" fill="#BC7A4E"/>
<path d="M327.903 285.471C327.614 285.471 327.614 285.471 327.325 285.183C326.748 284.894 326.748 284.317 327.037 283.74C328.769 280.853 330.501 277.678 331.944 274.503C332.232 273.925 332.81 273.637 333.387 273.925C333.964 274.214 334.253 274.791 333.964 275.369C332.521 278.544 330.789 281.719 329.057 284.605C328.769 285.471 328.48 285.471 327.903 285.471Z" fill="#BC7A4E"/>
<path d="M448.845 450H1.15459C0.577293 450 0 449.423 0 448.845V1.15459C0 0.577293 0.577293 0 1.15459 0H448.845C449.423 0 450 0.577293 450 1.15459V448.845C450 449.423 449.423 450 448.845 450ZM2.02053 447.691H447.691V2.02053H2.02053V447.691Z" fill="#BC7A4E"/>
<path d="M224.856 255.164C188.198 255.164 158.178 226.01 157.89 225.722C157.601 225.433 157.601 225.144 157.601 224.856C157.601 224.567 157.601 224.278 157.89 223.99C158.178 223.701 188.198 194.548 224.856 194.548C261.514 194.548 291.533 223.701 291.822 223.99C292.11 224.278 292.11 224.567 292.11 224.856C292.11 225.144 292.11 225.433 291.822 225.722C291.533 226.01 261.514 255.164 224.856 255.164ZM160.199 224.856C165.106 229.474 192.527 252.854 224.856 252.854C257.184 252.854 284.606 229.474 289.513 224.856C284.606 220.237 257.184 196.857 224.856 196.857C192.527 196.857 165.395 220.237 160.199 224.856Z" fill="#BC7A4E"/>
<path d="M224.856 255.164C208.114 255.164 194.836 241.597 194.836 225.144C194.836 208.403 208.403 195.125 224.856 195.125C241.597 195.125 254.875 208.692 254.875 225.144C255.164 241.597 241.597 255.164 224.856 255.164ZM224.856 196.857C209.269 196.857 196.857 209.558 196.857 224.856C196.857 240.154 209.557 252.855 224.856 252.855C240.443 252.855 252.854 240.154 252.854 224.856C252.854 209.558 240.443 196.857 224.856 196.857Z" fill="#BC7A4E"/>
<path d="M236.69 224.856C236.69 231.495 231.495 236.69 224.856 236.69C218.217 236.69 213.021 231.495 213.021 224.856C213.021 218.217 218.217 213.021 224.856 213.021C231.495 213.021 236.69 218.506 236.69 224.856Z" fill="#BC7A4E"/>
<path d="M232.649 286.626C232.649 290.956 229.185 294.42 224.856 294.42C220.526 294.42 217.062 290.956 217.062 286.626C217.062 282.296 224.856 270.462 224.856 270.462C224.856 270.462 232.649 282.585 232.649 286.626Z" fill="#BC7A4E"/>
</g>
<defs>
<clipPath id="clip0">
<rect width="450" height="450" fill="white"/>
</clipPath>
</defs>
</svg>
