<svg width="1578" height="1284" viewBox="0 0 1578 1284" fill="none" xmlns="http://www.w3.org/2000/svg">
<path d="M1021.51 944.486L1055.91 977.039M1062.04 896.458L1159.62 962.096M973.517 983.709L1041.24 1084.04M918.855 1014.93L952.718 1091.77M955.115 1098.18L958.849 1106.18M1091.1 1011.72L1158.03 1080.56M1115.9 720.18H1276.59M1342.01 720.18H1502.7M1316.76 720.18H1335.25M1108.43 780.66L1276.94 816.587M1091.72 840.069L1180.6 877.073M1187.36 879.917L1202.64 885.961M1245.3 904.462L1351.25 949.288M1318.9 825.125L1356.23 832.244M1468.66 854.036L1501.46 860.437M1430.88 982.735L1534.34 1025.78M1354.81 1092.31L1434.44 1143.9M1442.97 1149.23L1461.1 1161.33M1196.6 985.936L1286.19 1046.41M1192.33 1114.72L1236.06 1157.77M1270.55 1194.06L1360.49 1283M1067.19 1123.97L1130.12 1217.89M975.111 1150.3L1012.8 1241.02M859.216 1032.18L884.811 1156.7M797.353 1036.81V1119.35M735.672 1030.67L705.276 1180.09M610.09 1174.22L585.824 1234.52M676.749 1013.59L625.019 1137.4M621.553 983.175L597.287 1018.4M568.41 1061L454.289 1237.1M384.781 1132.06L316.521 1200.9M572.76 943.151L418.375 1099.78M534.096 895.923L448.24 955.958M293.591 1054.95L169.607 1140.34M217.33 959.254L139.119 992.161M95.9269 1009.95L61.0827 1025.6M505.832 840.424L340.878 908.733M486.634 781.368L413.756 796.308M327.012 812.676L286.838 821.214M240.974 830.11L184.448 841.494M138.583 851.097L16.9974 874.935M1 720.179H101.613M150.317 720.18H343.006M390.647 720.18H479.525M485.572 657.56L421.579 644.404M377.846 636.213L285.771 618.072M231.731 606.688L172.005 595.307M127.207 585.702L90.238 579.3M61.7887 413.508L128.633 441.972M249.86 492.847L352.249 535.18M395.624 554.037L504.412 598.149M370.025 432.717L534.63 544.429M190.495 312.114L329.499 406.034M134.318 275.831L150.317 286.502M284.701 207.164L327.364 247.721M359.716 281.522L405.579 324.923M498.367 419.912L573.025 493.553M355.45 56.6781L619.953 451.577M500.767 1L676.125 424.542M709.189 280.804L734.786 407.459M797.801 328.394V402.836M797.801 243.007V282.229M797.801 170.434V233.671M876.193 325.189L859.394 408.169M973.518 293.438L918.589 426.849M1049.77 341.465L973.779 456.2M1112.7 403.904L1022.31 493.823M1130.3 497.29L1062.57 543.984M1199.62 552.789L1091.37 598.149M1350.89 609.532L1108.43 657.56M1395.33 600.991L1577 563.997M1307.88 507.789L1418.08 462.962M1463.59 443.752L1533.99 414.216M1169.23 470.075L1235.71 428.098M1272.68 402.126L1305.03 381.135M1461.11 275.121L1409.55 309.98M1359.07 156.646L1287.61 229.223M1281.21 235.267L1265.93 251.276M1260.24 255.192L1203.36 313.893M1193.76 322.431L1145.4 370.815" stroke="#BD7B4F" stroke-width="2" stroke-miterlimit="10" stroke-linecap="round" stroke-linejoin="round"/>
<path d="M1118 718.999C1118 895.177 974.956 1038 798.501 1038C622.045 1038 479 895.177 479 718.999C479 542.821 622.045 400 798.501 400C974.956 400 1118 542.821 1118 718.999Z" fill="#0B0A0A" stroke="#BD7B4F" stroke-width="4" stroke-miterlimit="10" stroke-linecap="round" stroke-linejoin="round"/>
<path d="M800.5 439.097V486.435M800.5 486.435C807.348 486.435 814.112 486.796 820.811 487.371C827.619 487.964 834.341 488.849 840.97 490.01M800.5 486.435C793.654 486.435 786.891 486.793 780.191 487.372C773.382 487.961 766.664 488.849 760.034 490.01M520.096 719.555H567.425C567.425 712.703 567.784 705.941 568.365 699.241C568.954 692.426 569.84 685.708 571.002 679.079C572.179 672.355 573.617 665.728 575.357 659.213C577.116 652.632 579.124 646.146 581.434 639.805C583.762 633.405 586.4 627.157 589.26 621.031M1076.64 670.853L1030 679.079C1028.83 672.353 1027.39 665.728 1025.65 659.213C1023.88 652.63 1021.88 646.146 1019.57 639.805M751.809 443.359L760.034 490.01M760.034 490.01C753.311 491.188 746.685 492.626 740.174 494.365C733.59 496.126 727.109 498.136 720.768 500.445M1063.99 623.634L1019.56 639.807M704.597 456.013L720.767 500.444C714.367 502.774 708.119 505.417 701.998 508.273C695.837 511.151 689.832 514.304 683.977 517.691M1043.34 579.326L1002.32 603.009C998.92 597.127 995.274 591.409 991.388 585.867C987.49 580.309 983.374 574.919 979.019 569.732M660.3 476.672L683.977 517.691M683.977 517.691C678.1 521.093 672.382 524.742 666.838 528.63M1015.3 539.279L979.019 569.732M979.019 569.732C974.657 564.536 970.101 559.508 965.306 554.715C960.514 549.919 955.488 545.363 950.296 541.002M620.261 504.712L650.707 541.004C655.891 536.648 661.285 532.529 666.838 528.628M980.739 504.712L950.296 541.004C945.109 536.644 939.719 532.528 934.162 528.628C928.623 524.741 922.904 521.094 917.024 517.691M621.983 569.731L585.7 539.278M621.983 569.731C626.346 564.536 630.899 559.508 635.694 554.715C640.486 549.919 645.513 545.363 650.707 541.002M621.983 569.731C617.625 574.918 613.51 580.309 609.612 585.866C605.725 591.41 602.079 597.127 598.678 603.009M940.702 476.672L917.024 517.691M917.024 517.691C911.171 514.304 905.167 511.153 899.003 508.273C892.878 505.412 886.634 502.774 880.234 500.444M557.666 579.326L598.678 603.009M598.678 603.009C595.292 608.866 592.139 614.87 589.261 621.032M896.404 456.013L880.234 500.444M880.234 500.444C873.892 498.135 867.41 496.125 860.827 494.365M537.009 623.63L581.433 639.807M849.193 443.359L840.97 490.01M840.97 490.01C847.689 491.188 854.318 492.626 860.828 494.365M524.359 670.853L570.999 679.079M1082 719.555C1082 564.057 955.968 438 800.5 438C645.031 438 519 564.057 519 719.555M1033.57 719.556C1033.57 712.703 1033.21 705.94 1032.64 699.242C1032.05 692.428 1031.16 685.709 1030 679.082M1019.57 639.805C1017.24 633.405 1014.6 627.159 1011.74 621.032C1008.86 614.87 1005.71 608.865 1002.32 603.008M800.5 999.9V952.563M800.5 952.563C793.652 952.563 786.888 952.203 780.191 951.625C773.382 951.036 766.66 950.147 760.032 948.989M800.5 952.563C807.348 952.563 814.11 952.204 820.809 951.624C827.62 951.037 834.338 950.147 840.966 948.988M1080.9 719.445H1033.57C1033.57 726.291 1033.22 733.055 1032.64 739.756C1032.05 746.574 1031.16 753.286 1030 759.918C1028.82 766.643 1027.38 773.272 1025.64 779.786C1023.88 786.366 1021.88 792.851 1019.57 799.192M524.357 768.144L571.002 759.918M849.19 995.639L840.966 948.988M840.966 948.988C847.689 947.811 854.316 946.374 860.828 944.631C867.41 942.873 873.893 940.862 880.234 938.555M537.008 815.363L581.435 799.192M896.404 982.987L880.234 938.555M880.234 938.555C886.632 936.224 892.881 933.581 899.004 930.726C905.163 927.846 911.169 924.694 917.024 921.307M557.664 859.674L598.678 835.986C602.08 841.871 605.725 847.589 609.612 853.131C613.51 858.685 617.625 864.08 621.98 869.268M940.701 962.325L917.024 921.307M917.024 921.307C922.902 917.907 928.617 914.254 934.162 910.367C939.717 906.472 945.109 902.352 950.293 897.994L980.739 934.284M585.701 899.717L621.98 869.268M621.98 869.268C626.343 874.46 630.899 879.491 635.694 884.281C640.486 889.077 645.513 893.631 650.706 897.995M620.261 934.284L650.706 897.994C655.891 902.352 661.281 906.47 666.839 910.367C672.379 914.255 678.096 917.902 683.977 921.307M979.018 869.268L1015.3 899.718M979.018 869.268C974.655 874.46 970.101 879.491 965.306 884.281C960.514 889.077 955.488 893.631 950.293 897.995M979.018 869.268C983.374 864.08 987.492 858.686 991.388 853.131C995.274 847.589 998.923 841.871 1002.32 835.986M660.298 962.325L683.977 921.307M683.977 921.307C689.831 924.694 695.835 927.847 701.998 930.726C708.122 933.588 714.367 936.223 720.766 938.554C727.109 940.861 733.59 942.874 740.175 944.631M1043.33 859.674L1002.32 835.986M1002.32 835.986C1005.71 830.131 1008.86 824.128 1011.74 817.964M704.597 982.987L720.767 938.555M1063.99 815.368L1019.57 799.192M1019.57 799.192C1017.24 805.593 1014.6 811.838 1011.74 817.965M751.808 995.64L760.032 948.989M760.032 948.989C753.311 947.811 746.681 946.374 740.174 944.631M1076.64 768.144L1030 759.918M519 719.445C519 874.943 645.031 1001 800.5 1001C955.968 1001 1082 874.943 1082 719.445M567.425 719.444C567.425 726.292 567.788 733.056 568.361 739.756C568.95 746.568 569.838 753.286 571.003 759.918M571.004 759.918C572.176 766.646 573.614 773.271 575.353 779.785C577.116 786.366 579.125 792.85 581.433 799.191M581.434 799.191C583.762 805.592 586.399 811.838 589.261 817.964C592.141 824.129 595.292 830.132 598.677 835.987" stroke="#BD7B4F" stroke-width="4" stroke-miterlimit="10" stroke-linecap="round" stroke-linejoin="round"/>
<path d="M589 721.5C589 838.307 683.692 933 800.5 933C917.308 933 1012 838.307 1012 721.5C1012 604.692 917.308 510 800.5 510C683.692 510 589 604.692 589 721.5Z" fill="url(#paint0_radial_6060_6713)"/>
<defs>
<radialGradient id="paint0_radial_6060_6713" cx="0" cy="0" r="1" gradientUnits="userSpaceOnUse" gradientTransform="translate(800.5 721.5) rotate(-90) scale(211.5)">
<stop offset="0.71875" stop-color="#23211E"/>
<stop offset="1" stop-color="#23211E" stop-opacity="0"/>
</radialGradient>
</defs>
</svg>
