<svg width="1578" height="1206" viewBox="0 0 1578 1206" fill="none" xmlns="http://www.w3.org/2000/svg">
<path d="M1021.51 866.486L1055.91 899.039M1062.04 818.458L1159.62 884.096M973.517 905.709L1041.24 1006.04M918.855 936.93L952.718 1013.77M955.115 1020.18L958.849 1028.18M1091.1 933.725L1158.03 1002.56M1115.9 642.18H1276.59M1342.01 642.18H1502.7M1316.76 642.18H1335.25M1108.43 702.66L1276.94 738.587M1091.72 762.069L1180.6 799.073M1187.36 801.917L1202.64 807.961M1245.3 826.462L1351.25 871.288M1318.9 747.125L1356.23 754.244M1468.66 776.036L1501.46 782.437M1430.88 904.735L1534.34 947.78M1354.81 1014.31L1434.44 1065.9M1442.97 1071.23L1461.1 1083.33M1196.6 907.936L1286.19 968.413M1192.33 1036.72L1236.06 1079.77M1270.55 1116.06L1360.49 1205M1067.19 1045.97L1130.12 1139.89M975.111 1072.3L1012.8 1163.02M859.216 954.18L884.811 1078.7M797.353 958.81V1041.35M735.672 952.671L705.276 1102.09M610.09 1096.22L585.824 1156.52M676.749 935.594L625.019 1059.4M621.553 905.175L597.287 940.396M568.41 982.998L454.289 1159.1M384.781 1054.06L316.521 1122.9M572.76 865.151L418.375 1021.78M534.096 817.923L448.24 877.958M293.591 976.951L169.607 1062.34M217.33 881.254L139.119 914.161M95.9269 931.953L61.0827 947.602M505.832 762.424L340.878 830.733M486.634 703.368L413.756 718.308M327.012 734.676L286.838 743.214M240.974 752.11L184.448 763.494M138.583 773.097L16.9974 796.935M1 642.179H101.613M150.317 642.18H343.006M390.647 642.18H479.525M485.572 579.56L421.579 566.404M377.846 558.213L285.771 540.072M231.731 528.688L172.005 517.307M127.207 507.702L90.238 501.3M61.7887 335.508L128.633 363.972M249.86 414.847L352.249 457.18M395.624 476.037L504.412 520.149M370.025 354.717L534.63 466.429M190.495 234.114L329.499 328.034M134.318 197.831L150.317 208.502M284.701 129.164L327.364 169.721M359.716 203.522L405.579 246.923M498.367 341.912L573.025 415.553M355.45 -21.3219L619.953 373.577M500.767 -77L676.125 346.542M709.189 202.804L734.786 329.459M797.801 250.394V324.836M797.801 165.007V204.229M797.801 92.4342V155.671M876.193 247.189L859.394 330.169M973.518 215.438L918.589 348.849M1049.77 263.465L973.779 378.2M1112.7 325.904L1022.31 415.823M1130.3 419.29L1062.57 465.984M1199.62 474.789L1091.37 520.149M1350.89 531.532L1108.43 579.56M1395.33 522.991L1577 485.997M1307.88 429.789L1418.08 384.962M1463.59 365.752L1533.99 336.216M1169.23 392.075L1235.71 350.098M1272.68 324.126L1305.03 303.135M1461.11 197.121L1409.55 231.98M1359.07 78.6462L1287.61 151.223M1281.21 157.267L1265.93 173.276M1260.24 177.192L1203.36 235.893M1193.76 244.431L1145.4 292.815" stroke="#BD7B4F" stroke-width="2" stroke-miterlimit="10" stroke-linecap="round" stroke-linejoin="round"/>
</svg>
