<svg width="741" height="741" viewBox="0 0 741 741" fill="none" xmlns="http://www.w3.org/2000/svg">
<path d="M426.517 370.5C426.517 401.437 401.437 426.517 370.5 426.517C339.563 426.517 314.483 401.437 314.483 370.5C314.483 339.562 339.563 314.483 370.5 314.483C401.437 314.483 426.517 339.562 426.517 370.5ZM370.5 427.517C401.99 427.517 427.517 401.989 427.517 370.5C427.517 339.01 401.99 313.483 370.5 313.483C339.01 313.483 313.483 339.01 313.483 370.5C313.483 401.989 339.01 427.517 370.5 427.517ZM457.915 370.5C457.915 418.778 418.778 457.915 370.5 457.915C322.222 457.915 283.085 418.778 283.085 370.5C283.085 322.222 322.222 283.085 370.5 283.085C418.778 283.085 457.915 322.222 457.915 370.5ZM370.5 458.915C419.33 458.915 458.915 419.331 458.915 370.5C458.915 321.67 419.33 282.085 370.5 282.085C321.669 282.085 282.085 321.67 282.085 370.5C282.085 419.331 321.669 458.915 370.5 458.915ZM484.604 370.5C484.604 433.518 433.518 484.604 370.5 484.604C307.482 484.604 256.396 433.518 256.396 370.5C256.396 307.482 307.482 256.396 370.5 256.396C433.518 256.396 484.604 307.482 484.604 370.5ZM370.5 485.604C434.07 485.604 485.604 434.07 485.604 370.5C485.604 306.93 434.07 255.396 370.5 255.396C306.93 255.396 255.396 306.93 255.396 370.5C255.396 434.07 306.93 485.604 370.5 485.604ZM512.862 370.5C512.862 449.125 449.125 512.862 370.5 512.862C291.875 512.862 228.138 449.125 228.138 370.5C228.138 291.875 291.875 228.138 370.5 228.138C449.125 228.138 512.862 291.875 512.862 370.5ZM370.5 513.862C449.677 513.862 513.862 449.677 513.862 370.5C513.862 291.323 449.677 227.138 370.5 227.138C291.323 227.138 227.138 291.323 227.138 370.5C227.138 449.677 291.323 513.862 370.5 513.862ZM545.831 370.5C545.831 467.332 467.332 545.83 370.5 545.83C273.668 545.83 195.17 467.332 195.17 370.5C195.17 273.668 273.668 195.169 370.5 195.169C467.332 195.169 545.831 273.668 545.831 370.5ZM370.5 546.83C467.885 546.83 546.831 467.885 546.831 370.5C546.831 273.115 467.885 194.169 370.5 194.169C273.115 194.169 194.17 273.115 194.17 370.5C194.17 467.885 273.115 546.83 370.5 546.83ZM575.659 370.5C575.659 483.806 483.806 575.659 370.5 575.659C257.194 575.659 165.341 483.806 165.341 370.5C165.341 257.194 257.194 165.341 370.5 165.341C483.806 165.341 575.659 257.194 575.659 370.5ZM370.5 576.659C484.358 576.659 576.659 484.358 576.659 370.5C576.659 256.642 484.358 164.341 370.5 164.341C256.641 164.341 164.341 256.642 164.341 370.5C164.341 484.358 256.641 576.659 370.5 576.659ZM605.487 370.5C605.487 500.28 500.28 605.487 370.5 605.487C240.72 605.487 135.513 500.28 135.513 370.5C135.513 240.72 240.72 135.513 370.5 135.513C500.28 135.513 605.487 240.72 605.487 370.5ZM370.5 606.487C500.832 606.487 606.487 500.832 606.487 370.5C606.487 240.168 500.832 134.513 370.5 134.513C240.168 134.513 134.513 240.168 134.513 370.5C134.513 500.832 240.168 606.487 370.5 606.487ZM640.025 370.5C640.025 519.355 519.355 640.026 370.5 640.026C221.645 640.026 100.975 519.355 100.975 370.5C100.975 221.645 221.645 100.975 370.5 100.975C519.355 100.975 640.025 221.645 640.025 370.5ZM370.5 641.026C519.907 641.026 641.025 519.907 641.025 370.5C641.025 221.093 519.907 99.9747 370.5 99.9747C221.093 99.9747 99.9746 221.093 99.9746 370.5C99.9746 519.907 221.093 641.026 370.5 641.026ZM671.424 370.5C671.424 536.696 536.696 671.424 370.5 671.424C204.304 671.424 69.5763 536.696 69.5763 370.5C69.5763 204.304 204.304 69.5763 370.5 69.5763C536.696 69.5763 671.424 204.304 671.424 370.5ZM370.5 672.424C537.248 672.424 672.424 537.248 672.424 370.5C672.424 203.752 537.248 68.5763 370.5 68.5763C203.752 68.5763 68.5763 203.752 68.5763 370.5C68.5763 537.248 203.752 672.424 370.5 672.424ZM702.822 370.5C702.822 554.036 554.037 702.822 370.5 702.822C186.964 702.822 38.1781 554.036 38.1781 370.5C38.1781 186.964 186.964 38.178 370.5 38.178C554.037 38.178 702.822 186.964 702.822 370.5ZM370.5 703.822C554.589 703.822 703.822 554.589 703.822 370.5C703.822 186.411 554.589 37.178 370.5 37.178C186.411 37.178 37.1781 186.411 37.1781 370.5C37.1781 554.589 186.411 703.822 370.5 703.822ZM740.5 370.5C740.5 574.845 574.845 740.5 370.5 740.5C166.155 740.5 0.5 574.845 0.5 370.5C0.5 166.155 166.155 0.5 370.5 0.5C574.845 0.5 740.5 166.155 740.5 370.5Z" stroke="url(#paint0_radial_1_406)"/>
<circle cx="370.151" cy="370.849" r="241.542" fill="url(#paint1_radial_1_406)"/>
<path fill-rule="evenodd" clip-rule="evenodd" d="M370.607 530.867C370.607 531.45 371.189 531.45 371.77 531.45H372.934C373.516 530.867 374.098 530.283 373.516 529.117C373.516 529.117 370.025 519.789 372.353 510.46C373.516 506.961 375.262 504.046 377.007 501.131C379.916 496.467 382.244 492.385 382.825 485.389C383.408 480.723 381.08 476.643 379.335 473.727C379.157 473.372 378.98 473.022 378.805 472.678C377.259 469.631 375.902 466.959 376.426 463.815C377.407 458.409 379.628 454.66 381.695 451.171C382.08 450.521 382.46 449.88 382.825 449.239C383.252 448.383 383.715 447.527 384.186 446.654C385.641 443.959 387.183 441.101 388.062 437.577C389.226 433.496 389.226 429.998 389.226 427.083C393.836 434.59 393.309 440.383 392.733 446.724L392.716 446.907C392.135 451.571 392.135 456.236 393.299 461.484C395.452 469.575 400.095 472.177 404.003 474.367C404.319 474.544 404.63 474.719 404.935 474.893C405.269 475.094 405.595 475.287 405.913 475.475C408.363 476.926 410.306 478.076 411.336 480.141C412.725 482.926 412.64 485.341 412.548 487.974C412.524 488.649 412.5 489.339 412.5 490.053C411.917 493.551 411.917 497.633 413.664 502.88C417.737 515.124 431.701 518.623 432.282 518.623C433.446 518.623 434.027 518.623 435.774 517.457C436.355 516.874 436.355 515.708 435.774 515.124C435.774 515.124 428.792 507.545 427.628 498.216C427.046 494.721 427.627 491.224 428.208 487.729L428.209 487.721C428.289 486.999 428.38 486.277 428.472 485.552C429.046 481.007 429.634 476.343 427.628 470.812C426.579 466.609 423.64 464.299 420.941 462.178C420.644 461.945 420.351 461.714 420.063 461.484C417.154 459.151 414.245 456.818 413.664 453.321C412.188 447.903 412.79 443.734 413.363 439.758C413.469 439.027 413.573 438.302 413.664 437.577C413.776 436.787 413.91 435.997 414.046 435.203C414.608 431.894 415.184 428.513 414.245 424.751C413.664 421.255 412.501 418.341 411.338 415.426C418.32 420.674 420.063 425.917 421.809 431.747C421.881 431.998 421.953 432.252 422.025 432.507C423.124 436.401 424.351 440.744 427.628 444.574C432.75 451.419 438.43 452.126 443.032 452.699C443.134 452.712 443.236 452.724 443.337 452.737C446.246 452.737 448.574 453.321 450.902 455.07C453.811 457.985 454.973 460.317 456.137 463.815C457.301 467.314 459.046 471.395 462.538 475.477C470.717 484.219 483.495 483.232 485.548 483.074C485.686 483.063 485.775 483.056 485.812 483.056C486.393 483.056 487.557 482.473 487.557 481.307C487.557 480.141 487.557 479.558 486.393 478.975C485.812 478.975 477.084 474.893 472.429 466.73C470.684 463.232 469.52 460.317 468.939 456.818C468.892 456.633 468.846 456.446 468.799 456.258C467.677 451.736 466.425 446.698 461.957 441.659C459.593 438.818 456.462 437.899 453.499 437.03C452.814 436.829 452.138 436.631 451.483 436.412C447.991 435.829 445.082 434.662 442.756 431.747C439.264 426.499 438.1 421.835 436.936 417.171C436.704 416.357 436.495 415.542 436.286 414.727C435.448 411.46 434.61 408.194 432.282 404.927C431.984 404.479 431.695 404.04 431.413 403.612C429.497 400.7 427.911 398.289 425.881 396.764C433.999 398.391 437.586 402.54 441.325 406.865C441.606 407.19 441.888 407.516 442.173 407.842C445.081 411.339 447.993 414.84 452.647 417.754C459.862 421.885 464.794 420.528 469.062 419.353C469.613 419.202 470.152 419.053 470.684 418.92C471.347 418.787 471.981 418.624 472.598 418.465C474.685 417.927 476.584 417.437 478.83 418.338C482.22 419.793 483.997 421.652 485.84 423.58C486.211 423.968 486.585 424.359 486.976 424.751C487.853 425.454 488.678 426.264 489.545 427.115C491.553 429.087 493.791 431.284 497.448 432.913C509.086 438.744 521.304 431.747 521.886 431.165C523.05 430.581 523.05 429.998 523.05 428.832C522.468 427.666 521.886 427.083 520.722 427.083C520.722 427.083 510.831 426.499 503.267 420.669C500.628 418.555 498.947 416.439 496.921 413.889C496.713 413.627 496.501 413.361 496.284 413.09C493.375 409.008 489.885 404.927 484.066 402.012C479.411 399.679 475.338 400.262 471.848 400.846C468.356 401.428 465.447 401.428 461.957 399.679C456.72 396.182 453.811 392.683 450.902 388.601C450.505 388.105 450.109 387.591 449.704 387.067C447.73 384.511 445.553 381.691 442.173 379.272C439.264 376.941 436.355 375.774 433.446 374.608C441.592 373.442 446.829 375.774 452.064 378.689C452.894 379.045 453.723 379.426 454.562 379.81C457.844 381.315 461.276 382.889 465.447 383.353C473.985 384.494 478.626 380.613 482.091 377.715C482.168 377.65 482.245 377.586 482.32 377.523C482.66 377.268 482.988 377.012 483.308 376.762C485.183 375.301 486.818 374.025 489.302 374.025C493.375 374.025 496.284 375.191 499.194 376.941C502.684 378.689 506.177 380.438 511.995 381.022C524.359 381.56 532.253 372.145 533.842 370.249C533.973 370.093 534.061 369.988 534.105 369.944C534.686 369.36 534.686 368.194 534.105 367.611C533.523 367.03 532.94 366.446 531.777 367.029C531.777 367.029 522.468 370.527 513.158 368.194C509.667 367.611 506.758 365.862 503.849 364.113C499.194 361.197 495.121 358.866 488.139 358.282C483.484 357.7 479.411 360.031 476.502 361.781C476.148 361.959 475.799 362.136 475.456 362.311C472.414 363.861 469.747 365.22 466.611 364.696C461.214 363.713 457.471 361.486 453.989 359.413C453.341 359.028 452.703 358.648 452.064 358.282C451.209 357.854 450.354 357.39 449.481 356.917C446.793 355.46 443.942 353.915 440.428 353.034C436.355 351.869 432.864 351.869 429.954 351.869C437.444 347.25 443.222 347.777 449.548 348.353L449.738 348.37C454.392 348.954 459.046 348.954 464.283 347.788C472.356 345.63 474.953 340.979 477.139 337.063C477.317 336.745 477.491 336.432 477.666 336.126C477.865 335.794 478.056 335.47 478.242 335.154C479.691 332.695 480.84 330.746 482.903 329.713C485.68 328.321 488.09 328.406 490.718 328.499C491.392 328.523 492.081 328.547 492.794 328.547C496.284 329.129 500.357 329.129 505.594 327.381C517.813 323.299 521.304 309.306 521.304 308.723C521.304 308.14 520.722 306.974 520.141 306.391C519.558 305.807 518.395 305.807 517.813 306.391C517.813 306.391 510.249 313.387 500.94 314.553C497.449 315.136 493.959 314.553 490.468 313.971C489.746 313.89 489.022 313.798 488.297 313.706C483.763 313.132 479.111 312.543 473.593 314.553C469.4 315.604 467.095 318.548 464.977 321.252C464.744 321.55 464.514 321.844 464.283 322.133C461.956 325.047 459.628 327.963 456.137 328.547C450.733 330.024 446.573 329.422 442.607 328.848C441.876 328.742 441.152 328.637 440.428 328.547C439.641 328.434 438.855 328.3 438.064 328.165C434.76 327.6 431.383 327.023 427.628 327.963C424.141 328.546 421.235 329.71 418.33 330.874L418.318 330.878C423.555 323.882 428.792 322.133 434.61 320.384C434.863 320.312 435.118 320.239 435.375 320.166C439.258 319.064 443.59 317.834 447.41 314.553C454.238 309.421 454.945 303.732 455.517 299.121C455.53 299.017 455.543 298.914 455.556 298.811C455.556 295.896 456.137 293.563 457.884 291.231C460.793 288.316 463.119 287.15 466.611 285.984C470.101 284.818 474.174 283.068 478.247 279.57C486.972 271.374 485.988 258.568 485.829 256.512C485.819 256.374 485.812 256.284 485.812 256.248C485.812 255.665 485.229 254.499 484.066 254.499C482.903 254.499 482.32 254.499 481.739 255.665C481.739 256.248 477.666 264.994 469.52 269.658C466.029 271.407 463.119 272.573 459.629 273.156C459.444 273.203 459.258 273.249 459.072 273.296C454.558 274.421 449.53 275.674 444.501 280.153C441.098 282.589 440.132 285.838 439.228 288.882C439.05 289.481 438.874 290.073 438.683 290.648C438.1 294.146 436.936 297.062 434.027 299.394C428.792 302.892 424.138 304.058 419.484 305.224C418.67 305.457 417.853 305.668 417.038 305.877C413.78 306.717 410.521 307.557 407.263 309.889C406.816 310.187 406.38 310.476 405.953 310.757C403.046 312.678 400.639 314.268 399.117 316.303C400.74 308.168 404.881 304.573 409.197 300.826C409.522 300.544 409.847 300.262 410.172 299.977C413.664 297.062 417.154 294.146 420.063 289.482C424.187 282.252 422.832 277.309 421.659 273.033C421.508 272.481 421.36 271.94 421.227 271.407C421.094 270.742 420.931 270.108 420.773 269.489C420.236 267.398 419.747 265.495 420.646 263.244C422.098 259.849 423.953 258.068 425.875 256.222C426.263 255.849 426.654 255.474 427.045 255.082C427.747 254.202 428.555 253.376 429.405 252.507C431.373 250.495 433.565 248.252 435.191 244.587C441.009 232.926 434.027 220.681 433.446 220.098C432.863 218.932 432.282 218.932 431.118 218.932C429.954 219.515 429.373 220.098 429.373 221.265C429.373 221.265 428.792 231.176 422.972 238.756C420.861 241.401 418.75 243.086 416.203 245.118C415.943 245.325 415.679 245.537 415.409 245.753C411.336 248.668 407.263 252.166 404.354 257.997C402.026 262.661 402.609 266.743 403.19 270.241C403.771 273.739 403.771 276.655 402.026 280.153C398.536 285.401 395.044 288.316 390.971 291.231C390.476 291.628 389.964 292.025 389.442 292.43C386.891 294.407 384.076 296.59 381.661 299.977C379.335 302.892 378.171 305.807 377.007 308.723C375.843 300.56 378.171 295.312 381.08 290.065C381.435 289.234 381.815 288.403 382.199 287.563C383.701 284.274 385.271 280.834 385.734 276.655C386.873 268.1 383 263.45 380.108 259.977C380.044 259.899 379.98 259.822 379.916 259.746C379.661 259.406 379.407 259.078 379.157 258.757C377.699 256.879 376.426 255.239 376.426 252.75C376.426 248.668 377.589 245.753 379.335 242.838C381.08 239.339 382.825 235.841 383.408 230.01C383.944 218.181 374.583 210.318 372.668 208.71C372.506 208.574 372.398 208.483 372.353 208.437C371.77 207.854 370.607 207.854 370.025 208.437C369.444 209.02 368.861 209.604 369.443 210.77C369.443 210.77 372.934 220.098 370.607 229.427C369.445 232.922 367.701 235.834 365.958 238.746L365.952 238.756C363.043 243.421 360.715 247.502 360.134 254.499C359.552 259.163 361.879 263.244 363.624 266.16C363.801 266.513 363.977 266.861 364.151 267.204C365.7 270.253 367.057 272.927 366.534 276.072C365.553 281.48 363.331 285.23 361.262 288.719C360.878 289.368 360.499 290.008 360.134 290.648C359.706 291.506 359.243 292.364 358.771 293.238C357.317 295.932 355.775 298.788 354.897 302.309C353.733 306.391 353.733 309.889 353.733 312.804C349.123 305.297 349.649 299.505 350.226 293.163L350.243 292.98C350.824 288.316 350.824 283.651 349.66 278.404C347.508 270.314 342.866 267.712 338.958 265.521C338.641 265.344 338.329 265.169 338.024 264.994C337.692 264.794 337.367 264.602 337.051 264.415C334.598 262.963 332.654 261.812 331.623 259.746C330.234 256.963 330.319 254.548 330.412 251.916C330.436 251.239 330.46 250.549 330.46 249.834C331.042 246.336 331.042 242.254 329.296 237.007C325.223 224.763 311.259 221.265 310.677 221.265C310.095 221.265 308.932 221.848 308.35 222.431C307.768 223.014 307.768 224.18 308.35 224.763C308.35 224.763 315.332 232.343 316.495 241.671C317.077 245.17 316.495 248.668 315.914 252.166C315.833 252.89 315.742 253.614 315.65 254.34C315.077 258.883 314.489 263.546 316.495 269.075C317.544 273.277 320.482 275.587 323.181 277.709C323.478 277.942 323.771 278.173 324.06 278.404C326.969 280.736 329.878 283.068 330.46 286.567C331.934 291.982 331.333 296.151 330.761 300.125C330.655 300.858 330.551 301.583 330.46 302.309C330.348 303.098 330.213 303.887 330.078 304.68C329.515 307.99 328.939 311.373 329.878 315.136C330.46 318.635 331.623 321.55 332.787 324.465C325.805 319.218 324.06 313.97 322.314 308.14C322.242 307.887 322.17 307.631 322.097 307.374C320.997 303.482 319.77 299.141 316.495 295.312C311.373 288.469 305.695 287.761 301.093 287.188C300.99 287.175 300.888 287.162 300.786 287.15C297.876 287.15 295.549 286.567 293.222 284.818C290.313 281.902 289.149 279.57 287.985 276.072C286.821 272.573 285.076 268.492 281.585 264.411C273.405 255.668 260.627 256.655 258.575 256.813C258.437 256.824 258.348 256.831 258.311 256.831C257.729 256.831 256.566 257.414 256.566 258.58C255.984 259.746 256.566 260.329 257.729 260.912C257.729 260.912 266.457 264.994 271.112 270.824C272.857 274.323 274.021 277.238 274.603 280.736C274.649 280.922 274.695 281.108 274.742 281.296C275.865 285.818 277.115 290.857 281.585 295.896C284.016 299.306 287.259 300.274 290.297 301.18C290.894 301.358 291.484 301.534 292.058 301.726C295.549 302.309 298.458 303.475 300.786 306.391C304.276 311.638 305.44 316.302 306.604 320.965C306.837 321.781 307.046 322.599 307.256 323.415C308.094 326.681 308.931 329.946 311.259 333.211C311.556 333.658 311.844 334.096 312.125 334.523C314.042 337.436 315.629 339.849 317.659 341.374C309.541 339.747 305.954 335.597 302.215 331.272C301.934 330.947 301.652 330.622 301.368 330.296C298.459 326.799 295.547 323.298 290.894 320.384C283.679 316.252 278.747 317.61 274.479 318.784C273.929 318.936 273.389 319.084 272.857 319.218C272.194 319.351 271.56 319.514 270.943 319.673C268.856 320.211 266.957 320.701 264.711 319.8C261.322 318.345 259.544 316.486 257.702 314.559C257.33 314.17 256.956 313.779 256.566 313.387C255.688 312.684 254.863 311.874 253.996 311.022C251.988 309.051 249.75 306.853 246.093 305.224C234.456 299.394 222.237 306.391 221.655 306.974C220.491 307.557 220.491 308.14 220.491 309.306C221.073 310.472 221.655 311.055 222.819 311.055C222.819 311.055 232.71 311.638 240.274 317.469C242.914 319.584 244.595 321.7 246.622 324.252C246.83 324.512 247.04 324.778 247.256 325.048C250.165 329.129 253.656 333.211 259.475 336.126C264.13 338.459 268.202 337.876 271.694 337.292C275.185 336.71 278.094 336.71 281.585 338.459C286.821 341.956 289.731 345.455 292.64 349.537C293.036 350.033 293.432 350.546 293.837 351.071C295.81 353.626 297.988 356.447 301.368 358.866C304.277 361.197 307.186 362.364 310.095 363.53C301.949 364.696 296.713 362.364 291.476 359.448C290.647 359.092 289.818 358.712 288.979 358.328C285.697 356.822 282.264 355.248 278.094 354.784C269.557 353.644 264.917 357.524 261.451 360.422C261.373 360.487 261.297 360.551 261.22 360.615C260.881 360.87 260.554 361.125 260.233 361.375C258.359 362.837 256.723 364.113 254.238 364.113C250.165 364.113 247.256 362.947 244.347 361.197C240.856 359.448 237.365 357.7 231.546 357.116C219.18 356.578 211.285 365.997 209.699 367.89C209.568 368.045 209.481 368.15 209.436 368.194C208.855 368.778 208.855 369.944 209.436 370.527C210.018 371.109 210.601 371.692 211.764 371.109C211.764 371.109 221.073 367.611 230.383 369.944C233.874 370.527 236.783 372.275 239.692 374.025C244.347 376.941 248.42 379.272 255.402 379.856C260.057 380.438 264.13 378.107 267.039 376.357C267.594 376.079 268.12 375.801 268.628 375.532C271.314 374.111 273.505 372.952 276.93 373.442C282.327 374.425 286.069 376.652 289.552 378.725C290.199 379.11 290.838 379.49 291.476 379.856C292.332 380.285 293.188 380.748 294.061 381.222C296.749 382.678 299.6 384.223 303.113 385.103C307.186 386.269 310.677 386.269 313.586 386.269C306.097 390.888 300.319 390.361 293.994 389.785L293.804 389.767C289.149 389.185 284.494 389.185 279.257 390.35C271.184 392.508 268.588 397.16 266.402 401.075C266.224 401.393 266.05 401.706 265.875 402.012C265.676 402.344 265.484 402.669 265.298 402.986C263.849 405.444 262.7 407.393 260.639 408.425C257.861 409.817 255.451 409.732 252.823 409.639C252.149 409.615 251.46 409.591 250.747 409.591C247.256 409.008 243.183 409.008 237.947 410.757C225.728 414.839 222.237 428.832 222.237 429.416C222.237 429.998 222.819 431.165 223.401 431.747C223.982 432.331 225.146 432.331 225.728 431.747C225.728 431.747 233.292 424.751 242.601 423.584C246.093 423.002 249.584 423.584 253.075 424.168C253.797 424.248 254.52 424.34 255.245 424.432C259.779 425.006 264.431 425.595 269.948 423.584C274.142 422.533 276.447 419.59 278.564 416.885C278.797 416.588 279.027 416.294 279.257 416.005C281.585 413.09 283.912 410.175 287.403 409.591C292.808 408.114 296.968 408.716 300.934 409.29C301.665 409.396 302.389 409.5 303.113 409.591C303.9 409.704 304.686 409.838 305.477 409.973C308.781 410.538 312.158 411.115 315.914 410.175C319.401 409.592 322.308 408.427 325.214 407.263L325.223 407.26C319.987 414.256 314.75 416.005 308.932 417.754C308.679 417.826 308.424 417.899 308.167 417.972C304.283 419.074 299.951 420.303 296.131 423.584C289.301 428.717 288.596 434.408 288.023 439.02C288.011 439.123 287.998 439.225 287.985 439.327C287.985 442.243 287.403 444.574 285.658 446.907C282.749 449.822 280.421 450.988 276.93 452.154C273.439 453.321 269.366 455.07 265.293 458.568C256.568 466.765 257.554 479.57 257.712 481.626C257.722 481.764 257.729 481.853 257.729 481.89C257.729 482.473 258.311 483.64 259.475 483.64C260.639 483.64 261.22 483.64 261.802 482.473C261.802 481.89 265.875 473.144 274.021 468.48C277.512 466.73 280.421 465.565 283.912 464.981C284.098 464.935 284.284 464.889 284.471 464.842C288.984 463.717 294.012 462.463 299.04 457.985C302.443 455.549 303.409 452.299 304.314 449.255C304.492 448.657 304.667 448.066 304.859 447.49C305.44 443.992 306.604 441.076 309.513 438.744C314.75 435.246 319.405 434.08 324.06 432.913C324.875 432.68 325.69 432.47 326.505 432.26C329.763 431.421 333.021 430.581 336.278 428.249C336.727 427.95 337.166 427.659 337.594 427.376C340.498 425.458 342.902 423.868 344.424 421.835C342.8 429.971 338.659 433.566 334.342 437.314C334.018 437.595 333.694 437.877 333.369 438.161C329.878 441.076 326.387 443.992 323.477 448.656C319.355 455.886 320.71 460.829 321.882 465.105C322.033 465.657 322.181 466.197 322.314 466.73C322.447 467.396 322.61 468.031 322.769 468.649C323.306 470.741 323.794 472.643 322.896 474.893C321.443 478.291 319.586 480.073 317.662 481.92C317.275 482.291 316.885 482.665 316.495 483.056C315.793 483.935 314.986 484.761 314.136 485.631C312.168 487.643 309.975 489.886 308.35 493.551C302.531 505.212 309.513 517.457 310.095 518.039C310.677 519.205 311.259 519.205 312.423 519.205C313.586 519.205 314.168 518.623 314.168 517.457C314.168 517.457 314.75 507.545 320.568 499.964C322.679 497.321 324.79 495.636 327.334 493.606C327.596 493.397 327.862 493.185 328.132 492.968C332.205 490.053 336.278 486.555 339.187 480.723C341.514 476.059 340.933 471.978 340.351 468.48C339.769 464.981 339.769 462.066 341.514 458.568C345.006 453.321 348.497 450.406 352.569 447.49C353.063 447.094 353.574 446.698 354.096 446.294C356.648 444.315 359.464 442.132 361.879 438.744C364.207 435.829 365.371 432.913 366.534 429.998C367.697 438.161 365.37 443.409 362.461 448.656C362.107 449.485 361.728 450.313 361.345 451.152C359.842 454.443 358.27 457.884 357.806 462.066C356.667 470.622 360.541 475.272 363.433 478.745C363.497 478.822 363.561 478.899 363.624 478.975C363.879 479.315 364.133 479.642 364.382 479.963C365.842 481.842 367.116 483.481 367.116 485.971C367.116 490.053 365.952 492.968 364.207 495.883L364.203 495.89C362.459 499.387 360.715 502.884 360.134 508.711C359.056 521.124 368.449 529.041 370.313 530.612C370.463 530.739 370.564 530.824 370.607 530.867ZM361.346 425.21C356.648 424.367 352.155 422.931 347.948 420.981C346.147 432.856 340.502 437.984 335.117 442.877C334.922 443.055 334.727 443.232 334.532 443.409C334.384 443.532 334.237 443.655 334.092 443.776C330.796 446.525 328.034 448.828 325.805 452.737C322.314 458.568 323.477 462.649 325.223 467.314C326.387 470.812 327.55 474.311 325.805 478.392C324.06 483.056 321.15 485.971 318.241 488.304C317.788 488.758 317.313 489.212 316.825 489.678C314.803 491.61 312.551 493.762 310.677 497.049C308.35 501.714 308.932 506.378 309.513 509.877C310.677 506.378 312.423 501.714 315.332 498.216C317.659 494.718 320.568 492.385 323.477 490.636C327.55 487.721 331.042 484.805 333.369 479.558C335.115 476.643 334.532 473.144 333.951 470.229C333.369 466.148 332.787 461.484 335.696 457.402C339.769 450.988 343.842 448.073 347.915 445.158C351.406 442.825 354.315 440.493 356.061 437.577C359.49 432.422 360.709 428.533 361.346 425.21ZM342.047 417.798C337.92 415.238 334.154 412.151 330.841 408.63C324.763 418.962 317.961 421.376 311.125 423.801C310.782 423.923 310.439 424.045 310.095 424.168C306.025 425.334 301.947 426.501 298.458 429.416C293.222 433.496 292.64 437.577 292.058 442.243C291.961 442.826 291.88 443.409 291.799 443.992C291.395 446.907 290.991 449.822 288.567 452.737C285.076 456.236 281.585 457.985 278.094 459.151C277.716 459.303 277.328 459.454 276.93 459.61C274.267 460.65 271.164 461.863 267.621 464.399C263.548 467.897 262.384 471.978 261.802 476.059C264.13 473.144 267.621 469.647 271.694 467.314C274.311 465.565 276.929 464.8 279.547 464.035C280.42 463.779 281.294 463.524 282.167 463.232C286.821 462.066 291.476 460.9 295.549 457.402C297.876 455.07 299.04 452.154 299.622 448.656C300.786 444.574 301.949 440.493 306.022 436.995C311.841 432.913 317.077 431.747 322.314 430.581C323.059 430.368 323.784 430.174 324.49 429.986C327.644 429.144 330.41 428.406 332.787 426.499C337.233 423.664 339.995 420.829 342.047 417.798ZM326.568 403.506C323.694 399.608 321.317 395.32 319.529 390.736C309.488 398.355 301.494 397.782 294.385 396.764C290.312 396.182 286.24 396.182 281.585 397.347C275.185 399.097 272.857 403.178 271.112 406.676C270.95 406.946 270.788 407.222 270.624 407.5C269.022 410.225 267.243 413.252 263.548 414.839C259.679 416.778 256.614 416.702 253.35 416.621C252.688 416.604 252.017 416.588 251.329 416.588C250.64 416.588 249.951 416.565 249.253 416.542C246.415 416.449 243.428 416.35 239.692 417.754C235.037 419.503 231.546 423.002 229.801 425.917C233.292 424.168 237.365 422.418 242.02 421.835C245.836 421.29 249.141 421.767 252.893 422.308C253.146 422.345 253.4 422.381 253.656 422.418C258.311 423.002 262.966 423.584 268.202 421.835C271.112 420.669 273.439 418.338 275.185 415.421C277.512 411.924 280.421 408.425 285.658 407.26C291.794 405.722 297.032 406.436 301.37 407.028C301.968 407.11 302.549 407.189 303.113 407.26C303.37 407.296 303.624 407.333 303.876 407.369C307.628 407.911 310.934 408.388 314.75 407.842C320.245 406.662 323.887 405.217 326.568 403.506ZM317.339 383.797C316.299 379.545 315.747 375.1 315.747 370.527C315.747 369.728 315.764 368.933 315.797 368.142C303.612 371.289 296.962 367.701 290.312 364.113C289.203 363.636 288.137 363.117 287.079 362.601C284.252 361.223 281.481 359.872 278.094 359.448C271.54 358.354 268.574 360.855 265.348 363.577C265.137 363.755 264.925 363.934 264.711 364.113C261.802 366.445 258.893 368.778 254.82 368.778C250.218 368.778 246.964 367.427 244.269 366.308C243.897 366.154 243.536 366.004 243.183 365.862C240.274 364.113 236.783 362.947 232.128 362.364C227.473 361.781 222.819 364.113 219.91 366.445C221.346 366.651 222.856 366.784 224.412 366.922C227.267 367.174 230.279 367.44 233.292 368.194C236.541 369.124 239.05 370.426 241.704 371.802C242.377 372.151 243.059 372.505 243.765 372.859C247.838 375.774 251.329 378.107 257.148 378.107C260.639 378.107 262.966 376.941 265.875 375.191C266.141 375.058 266.409 374.921 266.682 374.783C269.992 373.104 273.837 371.154 278.676 371.693C285.658 372.859 290.312 375.774 294.385 378.689C297.876 381.022 300.786 382.771 304.859 383.353C309.996 384.542 313.791 384.385 317.339 383.797ZM316.447 361.676C317.258 356.601 318.755 351.755 320.839 347.238C308.989 345.433 303.871 339.776 298.989 334.38C298.812 334.185 298.635 333.989 298.458 333.795C298.337 333.648 298.216 333.503 298.097 333.359C295.352 330.053 293.052 327.283 289.149 325.048C283.33 321.55 279.257 322.717 274.603 324.465C271.694 326.214 268.202 327.381 264.13 326.214C259.475 324.465 256.566 321.55 254.238 318.635C253.786 318.182 253.334 317.706 252.869 317.218C250.94 315.191 248.792 312.934 245.511 311.055C240.856 308.723 236.201 309.306 232.71 309.889C236.201 311.055 240.856 312.804 244.347 315.719C247.838 318.052 250.165 320.967 251.911 323.882C254.82 327.963 257.729 331.462 262.966 333.795C265.875 335.543 269.366 334.96 272.275 334.377C276.348 333.795 281.003 333.211 285.076 336.126C291.476 340.208 294.385 344.289 297.295 348.37C299.622 351.869 301.949 354.784 304.859 356.533C309.619 359.713 313.297 360.996 316.447 361.676ZM324.015 341.324C326.57 337.189 329.651 333.414 333.164 330.095C322.854 324.004 320.445 317.188 318.025 310.337C317.903 309.994 317.782 309.65 317.659 309.306C316.495 305.225 315.332 301.143 312.423 297.645C308.35 292.397 304.277 291.814 299.622 291.231C299.04 291.134 298.458 291.053 297.876 290.972C294.967 290.567 292.058 290.162 289.149 287.733C285.658 284.234 283.912 280.736 282.749 277.238C282.597 276.859 282.446 276.47 282.291 276.072C281.253 273.403 280.043 270.294 277.512 266.743C274.021 262.661 269.948 261.495 265.875 260.912C268.784 263.244 272.275 266.743 274.603 270.824C276.348 273.448 277.112 276.072 277.876 278.696C278.13 279.57 278.385 280.445 278.676 281.319C279.839 285.984 281.003 290.648 284.494 294.729C286.821 297.062 289.731 298.228 293.222 298.811C297.295 299.977 301.368 301.143 304.859 305.224C308.932 311.055 310.095 316.303 311.259 321.55C311.472 322.299 311.666 323.027 311.855 323.736C312.695 326.895 313.431 329.664 315.332 332.045C318.161 336.5 320.99 339.268 324.015 341.324ZM338.278 325.813C342.168 322.933 346.447 320.551 351.022 318.76C343.418 308.698 343.99 300.687 345.006 293.563C345.587 289.482 345.587 285.401 344.424 280.736C342.678 274.323 338.605 271.99 335.115 270.241C334.845 270.079 334.57 269.917 334.292 269.753C331.573 268.147 328.552 266.364 326.969 262.661C325.019 258.754 325.111 255.256 325.192 252.168C325.208 251.569 325.223 250.985 325.223 250.417C325.223 249.727 325.246 249.037 325.269 248.337C325.362 245.493 325.46 242.5 324.06 238.756C322.314 234.092 318.823 230.593 315.914 228.844C317.659 232.343 319.405 236.424 319.987 241.088C320.531 244.914 320.055 248.227 319.514 251.989C319.478 252.24 319.441 252.494 319.405 252.75C318.823 257.414 318.241 262.078 319.987 267.326C321.15 270.241 323.477 272.573 326.387 274.323C329.878 276.655 333.369 279.57 334.532 284.818C336.067 290.967 335.354 296.215 334.763 300.563C334.682 301.162 334.603 301.744 334.532 302.309C334.495 302.566 334.459 302.821 334.422 303.074C333.882 306.834 333.406 310.146 333.951 313.97C335.128 319.477 336.57 323.126 338.278 325.813ZM357.946 316.565C357.359 313.01 357.202 309.207 358.388 304.058C358.97 299.977 360.715 297.062 363.043 293.563C365.952 289.482 368.861 284.818 370.025 277.821C370.563 272.972 368.617 269.119 366.941 265.802C366.803 265.529 366.667 265.26 366.534 264.994C364.788 262.078 363.624 259.746 363.624 256.248C363.624 250.417 365.952 246.919 370.025 242.838C370.379 242.127 370.734 241.441 371.083 240.764C372.455 238.107 373.753 235.595 374.679 232.343C375.843 227.095 375.843 222.431 375.262 218.932C377.589 221.848 379.916 225.929 379.335 231.176C378.752 235.841 377.589 239.339 375.843 242.254C375.702 242.608 375.552 242.97 375.398 243.342C374.282 246.043 372.934 249.304 372.934 253.916C372.934 257.997 375.262 260.912 377.589 263.827C377.768 264.042 377.946 264.254 378.123 264.465C380.84 267.699 383.336 270.67 382.244 277.238C381.82 280.632 380.472 283.409 379.097 286.242C378.583 287.303 378.065 288.371 377.589 289.482C374.009 296.146 370.428 302.809 373.568 315.02C372.779 314.987 371.986 314.97 371.189 314.97C366.625 314.97 362.189 315.522 357.946 316.565ZM380.021 315.671C385.355 316.527 390.434 318.145 395.145 320.41C397.078 309.121 402.584 304.119 407.843 299.342C408.038 299.164 408.233 298.988 408.427 298.811C408.574 298.688 408.719 298.567 408.864 298.446C412.161 295.696 414.924 293.392 417.154 289.482C420.646 283.651 419.482 279.57 417.737 274.906C416.573 271.407 415.409 267.909 417.154 263.827C417.154 259.061 419.554 256.7 422.174 254.122C422.439 253.862 422.706 253.6 422.972 253.333C423.424 252.88 423.898 252.427 424.386 251.961C426.408 250.028 428.661 247.875 430.537 244.587C432.863 239.922 432.282 235.258 431.701 231.759C430.537 235.258 428.792 239.922 425.881 243.421C423.555 246.919 420.646 249.251 417.737 251C413.664 253.916 410.172 256.831 407.844 262.078C406.099 264.994 406.682 268.492 407.263 271.407C407.844 275.489 408.427 280.153 405.518 284.234C401.445 290.648 397.372 293.563 393.299 296.479C389.807 298.811 386.898 301.143 385.153 304.058C381.98 308.829 380.699 312.515 380.021 315.671ZM401.296 323.868C405.367 326.511 409.07 329.675 412.312 333.265C418.341 323.206 425.071 320.818 431.833 318.418C432.177 318.296 432.52 318.175 432.863 318.052C436.936 316.886 441.009 315.719 444.501 312.804C449.738 308.723 450.319 304.641 450.902 299.977C450.998 299.394 451.079 298.812 451.16 298.229C451.564 295.313 451.968 292.398 454.392 289.482C457.884 285.984 461.374 284.235 464.866 283.068C465.243 282.917 465.631 282.766 466.028 282.61C468.691 281.57 471.794 280.358 475.338 277.821C479.411 274.323 480.575 270.241 481.157 266.16C478.83 269.075 475.338 272.573 471.265 274.906C468.648 276.655 466.03 277.42 463.412 278.185C462.539 278.44 461.666 278.695 460.793 278.987C456.137 280.153 451.483 281.319 447.41 284.818C445.082 287.15 443.918 290.065 443.337 293.563C442.173 297.645 441.009 301.726 436.936 305.224C431.118 309.306 425.882 310.472 420.646 311.638C419.9 311.852 419.171 312.046 418.464 312.235C415.312 313.077 412.548 313.815 410.172 315.719C405.997 318.381 403.307 321.043 401.296 323.868ZM416.568 338.601C419.355 342.573 421.637 346.926 423.318 351.568C433.411 343.86 441.439 344.434 448.574 345.455C452.647 346.038 456.72 346.038 461.374 344.873C467.775 343.123 470.101 339.041 471.848 335.543C472.01 335.273 472.171 334.998 472.335 334.719C473.937 331.994 475.716 328.967 479.411 327.381C483.31 325.427 486.801 325.519 489.883 325.601C490.481 325.616 491.063 325.632 491.63 325.632C492.319 325.632 493.008 325.654 493.705 325.677C496.544 325.771 499.531 325.869 503.267 324.465C507.922 322.717 511.412 319.218 513.158 316.303C509.667 318.052 505.594 319.8 500.94 320.384C497.121 320.93 493.813 320.452 490.057 319.909C489.807 319.873 489.556 319.837 489.302 319.8C484.649 319.218 479.993 318.635 474.757 320.384C471.848 321.55 469.52 323.882 467.775 326.798C465.447 330.296 462.538 333.795 457.301 334.96C451.165 336.498 445.927 335.783 441.589 335.191C440.991 335.11 440.41 335.03 439.847 334.96C439.59 334.923 439.336 334.886 439.084 334.85C435.332 334.308 432.026 333.831 428.209 334.377C422.834 335.531 419.232 336.939 416.568 338.601ZM425.321 358.473C426.178 362.354 426.63 366.387 426.63 370.527C426.63 371.378 426.611 372.225 426.573 373.067C439.133 369.649 445.889 373.295 452.646 376.94C453.755 377.416 454.822 377.937 455.881 378.452C458.708 379.83 461.478 381.181 464.866 381.605C471.42 382.699 474.385 380.198 477.611 377.475C477.822 377.298 478.034 377.119 478.247 376.941C481.156 374.608 484.066 372.275 488.139 372.275C492.738 372.275 495.991 373.625 498.685 374.743C499.059 374.898 499.422 375.049 499.776 375.191C502.685 376.941 506.176 378.107 510.831 378.689C515.485 379.272 520.141 376.941 523.05 374.608C519.558 375.191 514.904 375.191 510.249 374.025C507.003 373.096 504.496 371.796 501.845 370.421C501.17 370.071 500.485 369.715 499.776 369.36C495.705 367.03 491.628 364.696 485.812 364.113C482.32 364.113 479.994 365.279 477.084 367.029C476.819 367.161 476.552 367.297 476.28 367.435C472.97 369.114 469.124 371.065 464.283 370.527C457.301 369.36 452.647 366.445 448.574 363.53C445.082 361.197 442.173 359.448 438.1 358.866C432.819 357.644 428.955 357.844 425.321 358.473ZM425.949 379.261C425.206 383.973 423.873 388.488 422.026 392.727C433.531 394.611 438.574 400.186 443.389 405.509C443.566 405.704 443.742 405.899 443.918 406.093C444.043 406.243 444.166 406.391 444.288 406.538C447.031 409.839 449.329 412.606 453.228 414.839C459.046 418.338 463.119 417.171 467.775 415.421C471.265 414.256 474.758 413.09 478.83 414.839C483.484 416.588 486.393 419.503 488.721 422.418C489.174 422.872 489.626 423.347 490.092 423.836C492.02 425.862 494.168 428.119 497.448 429.998C502.104 432.331 506.758 431.747 510.249 431.165C506.758 429.998 502.104 428.249 498.612 425.334C495.121 423.002 492.794 420.087 491.049 417.171C488.139 413.09 485.229 409.591 479.994 407.26C477.084 405.51 473.593 406.093 470.684 406.676C466.611 407.26 461.957 407.842 457.884 404.927C451.483 400.846 448.574 396.764 445.665 392.683C443.337 389.185 441.009 386.269 438.1 384.52C433.053 381.148 429.223 379.909 425.949 379.261ZM418.859 398.909C416.388 403.068 413.389 406.877 409.957 410.242C419.642 416.218 421.992 422.867 424.353 429.549C424.475 429.893 424.596 430.237 424.719 430.581C425.881 434.662 427.045 438.744 429.954 442.243C434.027 447.49 438.1 448.073 442.756 448.656C443.338 448.753 443.921 448.834 444.503 448.915C447.411 449.32 450.32 449.726 453.228 452.154C456.72 455.652 458.465 459.151 459.629 462.649C459.78 463.027 459.931 463.415 460.086 463.813C461.124 466.482 462.334 469.592 464.866 473.144C468.356 477.226 472.429 478.392 476.502 478.975C473.593 476.643 470.101 473.144 467.775 469.063C466.03 466.44 465.266 463.817 464.503 461.194C464.248 460.319 463.993 459.444 463.702 458.568C462.538 453.903 461.374 449.239 457.884 445.158C455.556 442.825 452.647 441.659 449.155 441.076C445.082 439.91 441.009 438.744 437.519 434.662C433.446 428.833 432.282 423.585 431.118 418.339C430.905 417.59 430.711 416.859 430.522 416.149C429.682 412.991 428.946 410.222 427.045 407.842C424.371 403.631 421.697 400.929 418.859 398.909ZM404.585 414.877C400.754 417.778 396.534 420.193 392.019 422.029C398.925 431.67 398.357 439.415 397.372 446.324C396.789 450.406 396.789 454.487 397.953 459.151C399.699 465.565 403.771 467.897 407.263 469.647C407.533 469.809 407.807 469.971 408.085 470.135C410.805 471.74 413.825 473.523 415.409 477.226C417.359 481.132 417.266 484.63 417.185 487.72C417.169 488.318 417.154 488.902 417.154 489.47C417.154 490.16 417.131 490.85 417.108 491.55C417.015 494.394 416.917 497.387 418.318 501.131C420.063 505.796 423.555 509.294 426.464 511.042C424.719 507.545 422.972 503.463 422.391 498.799C421.846 494.975 422.322 491.662 422.863 487.902C422.899 487.649 422.936 487.394 422.972 487.137C423.555 482.473 424.136 477.808 422.391 472.562C421.227 469.647 418.899 467.314 415.99 465.565C412.5 463.232 409.008 460.317 407.844 455.07C406.311 448.923 407.023 443.677 407.613 439.33C407.694 438.729 407.774 438.144 407.844 437.577C407.881 437.323 407.917 437.071 407.953 436.82C408.495 433.057 408.972 429.744 408.427 425.917C407.363 420.94 406.082 417.48 404.585 414.877ZM384.6 424.447C385.036 427.687 385.05 431.219 383.989 435.829C383.408 439.91 381.661 442.825 379.335 446.324C376.426 450.406 373.516 455.07 372.353 462.066C371.814 466.915 373.761 470.769 375.437 474.086C375.575 474.359 375.711 474.628 375.843 474.893C377.589 477.808 378.752 480.141 378.752 483.64C378.171 489.468 375.845 493.548 373.519 497.628C373.166 498.335 372.811 499.023 372.462 499.697C371.088 502.357 369.79 504.871 368.861 508.127C367.697 512.792 367.697 517.457 368.28 520.954C365.952 518.039 363.624 513.958 364.207 508.711C364.788 504.046 365.952 500.548 367.697 497.633C367.838 497.279 367.988 496.917 368.143 496.544C369.259 493.843 370.607 490.582 370.607 485.971C370.607 481.89 368.28 478.975 365.952 476.059C365.774 475.845 365.596 475.633 365.418 475.422C362.702 472.189 360.205 469.218 361.298 462.649C361.721 459.255 363.068 456.479 364.443 453.647C364.958 452.586 365.476 451.517 365.952 450.406C369.413 443.965 372.873 437.524 370.266 426.076C370.573 426.081 370.881 426.083 371.189 426.083C375.813 426.083 380.306 425.516 384.6 424.447Z" fill="#FFDEC9"/>
<path d="M387.927 414.139L383.745 413.557L379.562 412.976V398.035C379.795 396.873 381.584 394.759 386.882 395.595C392.18 396.432 393.272 399.197 393.155 400.475V414.865L387.927 414.139Z" fill="url(#paint2_linear_1_406)"/>
<path d="M422.085 418.886L408.491 416.996V402.566C408.491 401.52 410.095 399.638 416.508 400.475C422.921 401.311 423.827 403.379 423.479 404.309V419.079L422.085 418.886Z" fill="url(#paint3_linear_1_406)"/>
<path d="M332.16 402.566V417.305L324.492 419.934V406.4C323.957 405.703 323.765 403.96 327.28 402.566C330.796 401.172 331.998 401.985 332.16 402.566Z" fill="url(#paint4_linear_1_406)"/>
<path d="M316.127 409.537V422.802L310.202 424.833L309.853 411.977C309.737 411.212 310.132 409.444 312.642 408.491C315.151 407.539 316.011 408.791 316.127 409.537Z" fill="url(#paint5_linear_1_406)"/>
<path fill-rule="evenodd" clip-rule="evenodd" d="M586.946 605.768L588.689 619.71H523.163H500.856H456.591H442.3H426.616H280.575H229.124H218.186H204.941H187.165H174.966H152.311V616.224L164.858 613.229V593.917L180.395 590.083V563.943L190.999 562.151L193.091 541.636L208.078 538.156L211.215 515.495L225.505 511.886L229.124 491.097L238.401 488.996L241.887 473.669L255.132 469.487L257.92 452.408L268.028 449.395L269.422 438.815L293.472 430.569L304.276 426.865V407.446L294.866 404.309V390.367L301.14 387.437V379.562L353.073 357.255L440.732 370.152V376.887L448.923 378.168V392.807L442.649 398.035V421.744L470.184 425.57L472.972 440.387L479.943 441.255L483.189 461.767L493.857 463.213L496.325 485.935L509.221 487.611L510.964 508.045L523.163 508.872L525.951 530.312L537.802 530.831L541.984 556.153L555.926 556.623L559.363 579.997L569.519 580.324L573.353 605.106L586.946 605.768ZM408.491 416.997L422.085 418.886L423.479 419.079V404.309C423.827 403.379 422.921 401.311 416.508 400.475C410.095 399.638 408.491 401.521 408.491 402.566V416.997ZM387.927 414.139L383.745 413.557L379.562 412.976V398.035C379.794 396.873 381.584 394.759 386.882 395.595C392.179 396.432 393.272 399.197 393.155 400.475V414.865L387.927 414.139ZM332.16 417.305V402.566C331.998 401.985 330.795 401.172 327.28 402.566C323.765 403.96 323.957 405.703 324.492 406.4V419.934L332.16 417.305ZM316.127 409.537V422.802L310.202 424.833L309.853 411.977C309.737 411.212 310.132 409.444 312.641 408.491C315.151 407.539 316.011 408.792 316.127 409.537Z" fill="#0B0A0A"/>
<path d="M588.689 619.71H523.163H500.856H456.591H442.3H426.616H280.575H229.124H218.186H204.941H187.165H174.966H152.311L109.5 674L654.5 681L588.689 619.71Z" fill="#0B0A0A"/>
<path d="M354.815 409.537V428.809M354.815 409.537L355.861 409.682M354.815 409.537L332.16 417.305M387.927 414.139L442.3 619.71M387.927 414.139L383.745 413.557M387.927 414.139L393.155 414.865M442.3 619.71H456.591M442.3 619.71H426.616M433.587 420.484L440.732 436.375M433.587 420.484L442.649 421.744M433.587 420.484L423.479 419.079M523.163 619.71L515.327 602.282M523.163 619.71H588.689M523.163 619.71H500.856M422.085 418.886L500.856 619.71M422.085 418.886L408.491 416.997M422.085 418.886L423.479 419.079M500.856 619.71H456.591M401.172 415.979L456.591 619.71M401.172 415.979L393.155 414.865M401.172 415.979L408.491 416.997M440.732 436.375L450.134 457.288M440.732 436.375L472.972 440.387M450.134 457.288L460.948 481.337M450.134 457.288L483.189 461.767M515.327 602.282L504.514 578.233M515.327 602.282L573.353 605.106M588.689 619.71L586.946 605.768L573.353 605.106M588.689 619.71H152.311M588.689 619.71L654.5 681L109.5 674L152.311 619.71M504.514 578.233L493.857 554.532M504.514 578.233L559.363 579.997M573.353 605.106L569.519 580.324L559.363 579.997M493.857 554.532L482.104 528.391M493.857 554.532L541.984 556.153M559.411 580.324L559.363 579.997M482.104 528.391L471.761 505.387M482.104 528.391L525.951 530.312M541.984 556.153L555.926 556.623L559.363 579.997M541.984 556.153L537.802 530.831L525.951 530.312M471.761 505.387L460.948 481.337M471.761 505.387L510.964 508.045M525.951 530.312L523.163 508.872L510.964 508.045M460.948 481.337L496.325 485.935M510.964 508.045L509.221 487.611L496.325 485.935M496.325 485.935L493.857 463.213L483.189 461.767M483.189 461.767L479.943 441.255L472.972 440.387M472.972 440.387L470.184 425.57L442.649 421.744M218.186 619.71L229.124 598.896M218.186 619.71H229.124M218.186 619.71H204.941M322.887 420.484L316.127 422.802M322.887 420.484L315.039 435.416M322.887 420.484V432.413M322.887 420.484L324.492 419.934M204.941 619.71L316.127 422.802M204.941 619.71H187.165M316.127 422.802V409.537C316.011 408.792 315.151 407.539 312.641 408.491C310.132 409.444 309.737 411.212 309.853 411.977L310.202 424.833M316.127 422.802L310.202 424.833M187.165 619.71L304.276 426.865M187.165 619.71H174.966M304.276 426.865L293.472 430.569M304.276 426.865V407.446M304.276 426.865L310.202 424.833M174.966 619.71L181.518 609.253M174.966 619.71H152.311M293.472 430.569L269.422 438.815L268.028 449.395M293.472 430.569L284.811 444.392M152.311 619.71V616.224L164.858 613.229M181.518 609.253L164.858 613.229M181.518 609.253L195.931 586.249M164.858 613.229V593.917L180.395 590.083M195.931 586.249L180.395 590.083M195.931 586.249L213.401 558.366M180.395 590.083V563.943L190.999 562.151M213.401 558.366L190.999 562.151M213.401 558.366L229.124 533.271M190.999 562.151L193.091 541.636L208.078 538.156M229.124 533.271L208.078 538.156M229.124 533.271L245.721 506.781M208.078 538.156L211.215 515.495L225.505 511.886M245.721 506.781L225.505 511.886M245.721 506.781L259.916 484.126M225.505 511.886L229.124 491.097L238.401 488.996M259.916 484.126L238.401 488.996M259.916 484.126L271.927 464.956M238.401 488.996L241.887 473.669L255.132 469.487M271.927 464.956L255.132 469.487M271.927 464.956L284.811 444.392M255.132 469.487L257.92 452.408L268.028 449.395M284.811 444.392L268.028 449.395M229.124 598.896L241.887 597.229M229.124 598.896L241.449 575.445M229.124 598.896V619.71M280.575 592.175L241.887 597.229M280.575 592.175L288.592 592.544M280.575 592.175V619.71M426.616 619.71V598.896L417.205 598.463M426.616 619.71H280.575M241.887 597.229L241.449 575.445M241.449 575.445L256.526 572.992M241.449 575.445L255.92 547.909M288.592 567.777L256.526 572.992M288.592 567.777L300.094 568.462M288.592 567.777V592.544M417.205 598.463V575.445L410.234 575.029M417.205 598.463L288.592 592.544M256.526 572.992L255.92 547.909M255.92 547.909L269.422 544.928M255.92 547.909L269.422 522.217M300.094 538.156L269.422 544.928M300.094 538.156L309.156 539.074M300.094 538.156V568.462M410.234 575.029V549.304L405.703 548.845M410.234 575.029L300.094 568.462M269.422 544.928V522.217M269.422 522.217L280.575 520.33M269.422 522.217L280.575 500.994M405.703 548.845V523.86L399.778 523.346M405.703 548.845L309.156 539.074M280.575 520.33L309.156 515.495L318.567 516.31M280.575 520.33V500.994M280.575 500.994L293.472 497.635M280.575 500.994L293.472 476.455M399.778 523.346V499.113L394.55 498.597M399.778 523.346L318.567 516.31M293.472 497.635L318.567 491.097L322.887 491.523M293.472 497.635V476.455M293.472 476.455L304.276 473.896M293.472 476.455L304.276 455.896M322.887 469.487L304.276 473.896M322.887 469.487L329.023 469.845M322.887 469.487V491.523M394.55 498.597V473.669L387.927 473.283M394.55 498.597L322.887 491.523M304.276 473.896V455.896M304.276 455.896L315.039 452.408M304.276 455.896L315.039 435.416M329.023 447.877L315.039 452.408M329.023 447.877L385.139 452.194M329.023 447.877V469.845M387.927 473.283V452.408L385.139 452.194M387.927 473.283L329.023 469.845M315.039 452.408V435.416M315.039 435.416L322.887 432.413M385.139 452.194V432.193L383.745 432.037M354.815 428.809L337.388 426.865L322.887 432.413M354.815 428.809L383.745 432.037M383.745 413.557V432.037M383.745 413.557L379.562 412.976M318.567 491.523V516.31M309.156 516.31V539.074M280.575 619.71H229.124M354.815 381.654L304.276 404.309V407.446M354.815 381.654L442.649 394.898V398.035M354.815 381.654L355.861 409.682M442.649 421.744V398.035M442.649 398.035L448.923 392.807M448.923 392.807L354.815 378.168L294.866 404.309M448.923 392.807V378.168L440.732 376.887M294.866 404.309L304.276 407.446M294.866 404.309V390.367L301.14 387.437M440.732 376.887L353.073 363.181L301.14 387.437M440.732 376.887V370.152L353.073 357.255L301.14 379.562V387.437M355.861 409.682L379.562 412.976M379.562 412.976V398.035C379.794 396.873 381.584 394.759 386.882 395.595C392.179 396.432 393.272 399.197 393.155 400.475V414.865M408.491 416.997V402.566C408.491 401.521 410.095 399.638 416.508 400.475C422.921 401.311 423.827 403.379 423.479 404.309V419.079M332.16 417.305V402.566C331.998 401.985 330.795 401.172 327.28 402.566C323.765 403.96 323.957 405.703 324.492 406.4V419.934M332.16 417.305L324.492 419.934" stroke="url(#paint6_linear_1_406)" stroke-width="2"/>
<defs>
<radialGradient id="paint0_radial_1_406" cx="0" cy="0" r="1" gradientUnits="userSpaceOnUse" gradientTransform="translate(370.5 370.5) rotate(90) scale(370.5)">
<stop offset="0.21875" stop-color="#351F11"/>
<stop offset="1" stop-color="#351F11" stop-opacity="0"/>
</radialGradient>
<radialGradient id="paint1_radial_1_406" cx="0" cy="0" r="1" gradientUnits="userSpaceOnUse" gradientTransform="translate(370.151 370.849) rotate(90) scale(241.542)">
<stop stop-color="#BD7B4F" stop-opacity="0.53"/>
<stop offset="1" stop-color="#BD7B4F" stop-opacity="0"/>
</radialGradient>
<linearGradient id="paint2_linear_1_406" x1="366.689" y1="395.404" x2="366.689" y2="424.833" gradientUnits="userSpaceOnUse">
<stop stop-color="#BD7B4F"/>
<stop offset="0.682292" stop-color="#222020"/>
</linearGradient>
<linearGradient id="paint3_linear_1_406" x1="366.689" y1="395.404" x2="366.689" y2="424.833" gradientUnits="userSpaceOnUse">
<stop stop-color="#BD7B4F"/>
<stop offset="0.682292" stop-color="#222020"/>
</linearGradient>
<linearGradient id="paint4_linear_1_406" x1="366.689" y1="395.404" x2="366.689" y2="424.833" gradientUnits="userSpaceOnUse">
<stop stop-color="#BD7B4F"/>
<stop offset="0.682292" stop-color="#222020"/>
</linearGradient>
<linearGradient id="paint5_linear_1_406" x1="366.689" y1="395.404" x2="366.689" y2="424.833" gradientUnits="userSpaceOnUse">
<stop stop-color="#BD7B4F"/>
<stop offset="0.682292" stop-color="#222020"/>
</linearGradient>
<linearGradient id="paint6_linear_1_406" x1="370.5" y1="357.255" x2="370.5" y2="619.71" gradientUnits="userSpaceOnUse">
<stop offset="0.432292" stop-color="#BD7B4F"/>
<stop offset="1" stop-color="#0C0B0B"/>
</linearGradient>
</defs>
</svg>
