<svg width="534" height="680" viewBox="0 0 534 680" fill="none" xmlns="http://www.w3.org/2000/svg">
<path d="M1 659.871L34.6937 586.408L54.1762 546.183L79.6187 498.85L107.583 447.964L111.594 438.224L126.264 398.684L134.745 371.637C134.745 371.637 139.214 346.194 140.246 343.559C141.277 340.923 151.82 321.21 182.535 318.002C182.535 318.002 201.444 314.104 226.544 339.662C226.544 339.662 237.432 338.057 258.977 353.645C258.977 353.645 287.972 321.325 313.644 328.431C313.644 328.431 327.741 313.762 342.525 322.241C342.525 322.241 349.974 317.888 352.725 322.702C352.725 322.702 354.215 327.171 352.61 329.693C352.61 329.693 385.846 329.921 393.41 352.154C393.41 352.154 399.942 383.9 401.547 397.538C401.547 397.538 408.997 422.408 419.31 442.693C429.625 462.978 449.566 506.186 449.566 506.186L466.872 540.566C466.872 540.566 472.946 550.766 474.437 552.6C475.926 554.434 494.606 592.024 494.606 592.024L515.465 636.605L533 675.687L424.812 678.895L400.629 601.995L384.012 544.348C384.012 544.348 372.666 503.663 371.978 501.372C371.291 499.079 358.455 463.78 349.974 454.612C349.974 454.612 345.39 446.475 344.703 446.475C344.014 446.475 343.289 446.78 338.858 445.481C334.426 444.183 325.87 439.598 325.87 439.598L320.062 437.689C320.062 437.689 307.608 446.094 300.96 446.704C294.313 447.314 294.084 445.864 289.806 444.642L272.234 434.632C272.234 434.632 264.364 440.822 261.384 440.973C258.404 441.125 241.061 431.88 241.061 431.88C241.061 431.88 235.56 434.555 231.434 434.402C227.309 434.25 226.01 432.723 224.787 432.034C223.564 431.347 210.499 425.081 210.499 425.081C210.499 425.081 194.529 432.185 189.716 432.568C189.716 432.568 177.645 448.157 171.762 461.68C165.88 475.203 157.475 503.933 157.475 503.933L146.013 539.689L131.955 582.246L120.419 619.76L109.417 652.461L106.13 662.318L1 659.871Z" fill="#0C0B0B"/>
<path d="M1.32976 659.786C1.32976 659.786 47.3989 556.57 61.5769 531.76C75.7541 506.955 106.595 449.473 108.424 446.152C110.25 442.829 130.517 387.843 133.672 375.883C136.83 363.92 137.329 348.306 142.311 340C147.296 331.693 165.072 315.247 191.817 318.237C191.817 318.237 209.176 322.262 226.619 339.207M143.531 364.753C143.531 364.753 160.365 380.479 162.691 381.475C165.016 382.473 184.396 380.035 189.271 379.704M158.592 396.426C158.592 396.426 170.774 410.823 171.772 412.927C172.768 415.031 177.862 415.698 185.837 412.817M176.533 414.92C176.533 414.92 184.285 428.543 185.393 429.871C186.501 431.199 187.054 434.303 194.917 431.755C202.78 429.207 209.316 423.225 215.737 423.337M210.31 424.888C210.31 424.888 222.543 430.636 225.373 432.197C229.237 434.328 237.544 435.188 240.983 431.52M189.382 432.974C189.382 432.974 171.218 455.343 162.58 486.132C153.942 516.921 106.32 661.999 106.32 661.999M172.712 348.844C172.712 348.844 178.775 346.602 183.51 348.264M186.293 352.458C186.293 352.458 179.358 351.877 179.939 356.777C180.52 361.679 196.385 392.244 198.96 399.803C201.534 407.362 203.113 409.19 208.179 412.594C213.246 416 244.977 433.692 245.474 434.025C245.972 434.357 258.017 442.081 261.671 441.251C265.326 440.42 272.098 434.671 272.098 434.671M356.219 428.769L352.071 437.071C346.2 448.699 341.326 446.815 338.337 445.265C335.347 443.715 321.06 437.514 321.06 437.514C321.06 437.514 310.205 444.933 302.01 446.926C293.815 448.921 282.63 440.394 281.301 439.618C279.971 438.84 241.985 418.022 230.799 412.152C219.613 406.283 217.066 401.963 217.066 401.963C217.066 401.963 186.998 352.542 182.348 346.228C177.696 339.916 179.773 336.096 182.596 334.102C185.421 332.108 190.571 336.013 190.571 336.013M190.571 336.013C190.571 336.013 193.203 333.961 195.305 334.406C197.409 334.85 198.573 331.471 204.72 333.464C210.867 335.459 218.452 340.551 218.452 340.551C218.452 340.551 227.533 338.835 232.903 340.221C238.276 341.605 253.059 348.361 261.478 355.671C269.896 362.98 281.577 374.496 283.959 376.602C286.34 378.707 290.105 379.261 293.317 379.593C296.53 379.925 314.691 382.417 316.187 383.801M190.571 336.013C190.571 336.013 191.068 340.748 197.63 347.807C204.193 354.866 229.774 386.515 230.937 388.091C232.101 389.668 241.487 404.04 245.392 406.864C249.296 409.687 260.259 413.675 262.336 414.505C264.412 415.336 300.045 428.958 302.288 430.452M219.061 340.498C219.061 340.498 215.738 343.71 218.617 347.143C221.498 350.576 268.345 397.422 269.23 397.754C270.117 398.085 331.249 419.903 331.914 420.236M375.548 408.275C375.548 408.275 368.018 413.592 367.022 417.358C366.025 421.121 363.364 432.75 347.529 426.438M361.262 362.51C361.262 362.51 352.208 357.608 339.499 363.672C326.791 369.735 316.823 374.388 316.574 386.098C316.325 397.81 326.043 396.979 337.921 394.571C349.798 392.162 363.338 394.82 367.074 395.152C370.814 395.484 373.472 394.737 378.206 389.089C382.941 383.442 390.332 378.456 390.332 378.456M362.673 351.296C362.673 351.296 354.699 354.368 352.457 360.599M259.372 353.678C259.372 353.678 286.175 323.223 311.978 327.541C311.978 327.541 318.29 328.871 315.853 333.191C313.417 337.508 278.288 370.95 278.288 370.95M314.304 327.762C314.304 327.762 326.153 314.807 342.988 321.895C342.988 321.895 341.438 327.986 339 330.199C336.565 332.413 299.7 380.197 299.7 380.197M343.208 321.45C343.208 321.45 350.077 318.792 352.623 322.559C355.17 326.322 351.957 331.637 349.964 334.407C347.972 337.175 328.59 368.188 328.037 369.404M347.196 339.171C347.196 339.171 354.837 339.503 353.397 344.818C351.957 350.134 345.756 359.659 345.756 361.429M352.844 329.867C352.844 329.867 384.185 329.202 393.377 351.906C393.377 351.906 398.251 371.839 400.024 388.674C401.796 405.509 411.541 425.221 414.863 432.972C418.187 440.724 468.687 546.822 474.002 552.137C479.318 557.454 530.263 665.985 532.478 675.288M344.207 446.041C344.207 446.041 363.033 463.76 380.089 529.102C397.144 594.444 424.832 678.393 424.832 678.393" stroke="url(#paint0_linear_1_382)" stroke-width="2" stroke-miterlimit="10" stroke-linecap="round" stroke-linejoin="round"/>
<path d="M422.741 162.634C422.741 248.655 353.017 318.373 267.012 318.373C180.996 318.373 111.259 248.655 111.259 162.634C111.259 76.6358 180.996 6.89124 267.012 6.89124C353.017 6.89124 422.741 76.6358 422.741 162.634Z" fill="url(#paint1_radial_1_382)"/>
<path d="M96.8765 171.115L105.619 170.726L96.8765 170.34L99.7163 167.236L96.613 170.076L96.2253 161.334L95.8385 170.076L92.7352 167.236L95.5749 170.34L86.8326 170.726L95.5749 171.115L92.7352 174.217L95.8385 171.378L96.2253 180.12L96.613 171.378L99.7163 174.217L96.8765 171.115Z" fill="#FFDEC9"/>
<path d="M108.671 7.90757L115.739 7.59364L108.671 7.28151L110.967 4.77189L108.458 7.06833L108.145 0L107.832 7.06833L105.323 4.77189L107.62 7.28151L100.551 7.59364L107.62 7.90757L105.323 10.4163L107.832 8.12075L108.145 15.1882L108.458 8.12075L110.967 10.4163L108.671 7.90757Z" fill="#FFDEC9"/>
<path d="M164.913 31.8434L169.469 31.641L164.913 31.4395L166.394 29.8213L164.776 31.3019L164.574 26.7459L164.372 31.3019L162.755 29.8213L164.235 31.4395L159.679 31.641L164.235 31.8434L162.755 33.4598L164.372 31.9801L164.574 36.537L164.776 31.9801L166.394 33.4598L164.913 31.8434Z" fill="#FFDEC9"/>
<path d="M150.744 80.231L156.416 79.9791L150.744 79.7281L152.586 77.715L150.573 79.5572L150.321 73.8849L150.07 79.5572L148.056 77.715L149.899 79.7281L144.226 79.9791L149.899 80.231L148.056 82.2441L150.07 80.4019L150.321 86.0751L150.573 80.4019L152.586 82.2441L150.744 80.231Z" fill="#FFDEC9"/>
<path d="M77.7664 93.843L89.299 93.3311L77.7664 92.8211L81.512 88.7275L77.4183 92.473L76.9074 80.9404L76.3965 92.473L72.3019 88.7275L76.0493 92.8211L64.5158 93.3311L76.0493 93.843L72.3019 97.9366L76.3965 94.1911L76.9074 105.724L77.4183 94.1911L81.512 97.9366L77.7664 93.843Z" fill="#FFDEC9"/>
<path d="M38.1459 238.542L49.3997 238.041L38.1459 237.544L41.8006 233.548L37.8068 237.205L37.3076 225.951L36.8093 237.205L32.8146 233.548L36.4711 237.544L25.2164 238.041L36.4711 238.542L32.8146 242.534L36.8093 238.881L37.3076 250.134L37.8068 238.881L41.8006 242.534L38.1459 238.542Z" fill="#FFDEC9"/>
<path d="M135.322 272.443L144.622 272.03L135.322 271.618L138.342 268.317L135.041 271.337L134.629 262.038L134.217 271.337L130.916 268.317L133.937 271.618L124.636 272.03L133.937 272.443L130.916 275.743L134.217 272.723L134.629 282.022L135.041 272.723L138.342 275.743L135.322 272.443Z" fill="#FFDEC9"/>
<path d="M96.9428 348.187L106.243 347.775L96.9428 347.363L99.9634 344.061L96.6622 347.082L96.2502 337.783L95.8382 347.082L92.5371 344.061L95.5585 347.363L86.2576 347.775L95.5585 348.187L92.5371 351.488L95.8382 348.468L96.2502 357.767L96.6622 348.468L99.9634 351.488L96.9428 348.187Z" fill="#FFDEC9"/>
<path d="M439.341 171.115L430.599 170.726L439.341 170.34L436.501 167.236L439.605 170.076L439.992 161.334L440.379 170.076L443.482 167.236L440.643 170.34L449.385 170.726L440.643 171.115L443.482 174.217L440.379 171.378L439.992 180.12L439.605 171.378L436.501 174.217L439.341 171.115Z" fill="#FFDEC9"/>
<path d="M427.546 7.90757L420.479 7.59364L427.546 7.28151L425.251 4.77189L427.76 7.06833L428.073 0L428.386 7.06833L430.894 4.77189L428.598 7.28151L435.666 7.59364L428.598 7.90757L430.894 10.4163L428.386 8.12075L428.073 15.1882L427.76 8.12075L425.251 10.4163L427.546 7.90757Z" fill="#FFDEC9"/>
<path d="M362.924 33.3073L357.81 33.0806L362.924 32.8539L361.263 31.0387L363.078 32.7001L363.305 27.5855L363.531 32.7001L365.347 31.0387L363.685 32.8539L368.8 33.0806L363.685 33.3073L365.347 35.1225L363.531 33.4611L363.305 38.5757L363.078 33.4611L361.263 35.1225L362.924 33.3073Z" fill="#FFDEC9"/>
<path d="M385.474 80.231L379.802 79.9791L385.474 79.7281L383.632 77.715L385.645 79.5572L385.897 73.8849L386.148 79.5572L388.162 77.715L386.318 79.7281L391.992 79.9791L386.318 80.231L388.162 82.2441L386.148 80.4019L385.897 86.0751L385.645 80.4019L383.632 82.2441L385.474 80.231Z" fill="#FFDEC9"/>
<path d="M458.451 93.843L446.919 93.3311L458.451 92.8211L454.706 88.7275L458.799 92.473L459.31 80.9404L459.821 92.473L463.916 88.7275L460.168 92.8211L471.702 93.3311L460.168 93.843L463.916 97.9366L459.821 94.1911L459.31 105.724L458.799 94.1911L454.706 97.9366L458.451 93.843Z" fill="#FFDEC9"/>
<path d="M510.665 247.537L499.411 247.037L510.665 246.539L507.01 242.543L511.004 246.2L511.503 234.946L512.001 246.2L515.996 242.543L512.34 246.539L523.594 247.037L512.34 247.537L515.996 251.53L512.001 247.876L511.503 259.129L511.004 247.876L507.01 251.53L510.665 247.537Z" fill="#FFDEC9"/>
<path d="M409.281 272.348L399.981 271.935L409.281 271.523L406.261 268.222L409.562 271.243L409.974 261.944L410.386 271.243L413.687 268.222L410.666 271.523L419.967 271.935L410.666 272.348L413.687 275.648L410.386 272.629L409.974 281.928L409.562 272.629L406.261 275.648L409.281 272.348Z" fill="#FFDEC9"/>
<path d="M444.942 354.597L435.642 354.184L444.942 353.773L441.921 350.471L445.223 353.492L445.635 344.193L446.046 353.492L449.348 350.471L446.326 353.773L455.627 354.184L446.326 354.597L449.348 357.898L446.046 354.878L445.635 364.177L445.223 354.878L441.921 357.898L444.942 354.597Z" fill="#FFDEC9"/>
<path fill-rule="evenodd" clip-rule="evenodd" d="M266.257 266.629C266.257 267 266.628 267 267 267H267.743C268.116 266.629 268.487 266.257 268.116 265.514C268.116 265.514 265.885 259.573 267.372 253.632C268.116 251.404 269.231 249.547 270.346 247.69C272.204 244.72 273.692 242.12 274.063 237.664C274.435 234.693 272.948 232.095 271.833 230.237C271.72 230.011 271.606 229.788 271.495 229.569C270.507 227.629 269.64 225.927 269.974 223.925C270.601 220.482 272.02 218.094 273.341 215.872C273.587 215.458 273.83 215.05 274.063 214.641C274.336 214.096 274.632 213.551 274.933 212.995C275.862 211.278 276.848 209.458 277.409 207.214C278.153 204.615 278.153 202.387 278.153 200.531C281.098 205.312 280.762 209.001 280.394 213.039L280.383 213.156C280.012 216.126 280.012 219.097 280.755 222.44C282.131 227.593 285.097 229.25 287.594 230.645C287.796 230.758 287.995 230.869 288.19 230.98C288.403 231.108 288.612 231.231 288.815 231.351C290.38 232.275 291.621 233.007 292.28 234.322C293.167 236.096 293.113 237.634 293.054 239.311C293.039 239.741 293.023 240.18 293.023 240.635C292.651 242.863 292.651 245.463 293.767 248.804C296.369 256.602 305.292 258.831 305.663 258.831C306.407 258.831 306.778 258.831 307.894 258.088C308.265 257.717 308.265 256.974 307.894 256.602C307.894 256.602 303.433 251.775 302.689 245.834C302.317 243.608 302.689 241.381 303.06 239.155L303.061 239.15C303.112 238.69 303.17 238.23 303.229 237.768C303.595 234.874 303.971 231.903 302.689 228.381C302.019 225.704 300.141 224.233 298.417 222.882C298.227 222.733 298.04 222.587 297.856 222.44C295.997 220.954 294.138 219.469 293.767 217.241C292.825 213.79 293.209 211.135 293.575 208.603C293.642 208.137 293.709 207.676 293.767 207.214C293.839 206.711 293.925 206.208 294.011 205.702C294.371 203.595 294.738 201.441 294.138 199.045C293.767 196.818 293.024 194.963 292.281 193.106C296.742 196.448 297.856 199.788 298.972 203.501C299.017 203.661 299.063 203.822 299.109 203.985C299.812 206.465 300.596 209.231 302.689 211.67C305.962 216.03 309.591 216.48 312.532 216.845C312.597 216.853 312.662 216.861 312.726 216.869C314.585 216.869 316.072 217.241 317.56 218.355C319.418 220.211 320.161 221.697 320.905 223.925C321.649 226.153 322.764 228.752 324.995 231.352C330.22 236.919 338.385 236.291 339.697 236.19C339.785 236.183 339.842 236.179 339.865 236.179C340.237 236.179 340.98 235.808 340.98 235.065C340.98 234.322 340.98 233.951 340.237 233.579C339.865 233.579 334.288 230.98 331.314 225.781C330.199 223.554 329.456 221.697 329.084 219.469C329.055 219.35 329.025 219.231 328.995 219.112C328.278 216.232 327.479 213.023 324.623 209.814C323.113 208.004 321.112 207.419 319.219 206.866C318.782 206.738 318.35 206.611 317.931 206.472C315.7 206.1 313.842 205.358 312.355 203.501C310.124 200.159 309.38 197.188 308.637 194.218C308.489 193.699 308.355 193.18 308.221 192.661C307.686 190.581 307.151 188.5 305.663 186.42C305.472 186.134 305.288 185.855 305.108 185.582C303.884 183.728 302.87 182.192 301.573 181.221C306.76 182.257 309.052 184.899 311.441 187.654C311.621 187.861 311.801 188.069 311.983 188.276C313.841 190.503 315.702 192.733 318.675 194.589C323.285 197.22 326.436 196.356 329.163 195.608C329.515 195.511 329.86 195.417 330.199 195.332C330.623 195.247 331.028 195.143 331.422 195.042C332.756 194.699 333.969 194.387 335.404 194.961C337.57 195.888 338.706 197.072 339.883 198.299C340.12 198.547 340.359 198.796 340.609 199.045C341.169 199.493 341.696 200.009 342.25 200.551C343.533 201.807 344.963 203.206 347.3 204.244C354.736 207.957 362.542 203.501 362.914 203.13C363.658 202.758 363.658 202.387 363.658 201.644C363.286 200.902 362.914 200.531 362.171 200.531C362.171 200.531 355.851 200.159 351.018 196.446C349.332 195.099 348.258 193.752 346.963 192.128C346.83 191.961 346.695 191.791 346.557 191.618C344.698 189.019 342.468 186.42 338.749 184.563C335.776 183.077 333.173 183.449 330.943 183.82C328.712 184.191 326.853 184.191 324.623 183.077C321.277 180.85 319.418 178.621 317.56 176.022C317.306 175.706 317.053 175.379 316.794 175.045C315.534 173.417 314.142 171.621 311.983 170.08C310.124 168.596 308.265 167.853 306.407 167.11C311.611 166.367 314.957 167.853 318.303 169.709C318.832 169.936 319.362 170.178 319.898 170.423C321.995 171.382 324.189 172.384 326.853 172.68C332.309 173.407 335.274 170.934 337.488 169.089C337.537 169.048 337.586 169.007 337.634 168.967C337.851 168.804 338.061 168.641 338.266 168.482C339.463 167.551 340.508 166.739 342.095 166.739C344.698 166.739 346.557 167.481 348.415 168.596C350.646 169.709 352.877 170.823 356.594 171.195C364.494 171.538 369.538 165.541 370.553 164.334C370.637 164.235 370.693 164.168 370.721 164.14C371.093 163.768 371.093 163.025 370.721 162.654C370.35 162.283 369.977 161.912 369.234 162.283C369.234 162.283 363.286 164.511 357.337 163.025C355.107 162.654 353.249 161.54 351.39 160.426C348.415 158.569 345.813 157.084 341.352 156.712C338.378 156.341 335.776 157.826 333.917 158.941C333.69 159.054 333.468 159.167 333.248 159.278C331.305 160.265 329.601 161.131 327.597 160.797C324.148 160.171 321.757 158.753 319.532 157.433C319.119 157.187 318.711 156.945 318.303 156.712C317.756 156.439 317.21 156.144 316.652 155.843C314.935 154.915 313.113 153.931 310.868 153.37C308.265 152.628 306.035 152.628 304.176 152.628C308.961 149.686 312.653 150.022 316.695 150.389L316.816 150.4C319.79 150.771 322.764 150.771 326.11 150.029C331.268 148.655 332.927 145.692 334.324 143.198C334.437 142.996 334.549 142.796 334.66 142.601C334.787 142.39 334.91 142.183 335.029 141.982C335.955 140.416 336.689 139.175 338.006 138.517C339.781 137.63 341.321 137.685 343 137.744C343.431 137.759 343.871 137.774 344.326 137.774C346.557 138.145 349.159 138.145 352.505 137.032C360.312 134.432 362.542 125.52 362.542 125.149C362.542 124.777 362.171 124.035 361.799 123.663C361.427 123.292 360.683 123.292 360.312 123.663C360.312 123.663 355.479 128.119 349.531 128.862C347.3 129.233 345.071 128.862 342.84 128.491C342.379 128.44 341.916 128.381 341.453 128.323C338.556 127.957 335.584 127.582 332.058 128.862C329.379 129.531 327.906 131.406 326.553 133.129C326.404 133.318 326.257 133.505 326.11 133.689C324.623 135.545 323.135 137.403 320.905 137.774C317.452 138.715 314.794 138.332 312.26 137.966C311.793 137.899 311.33 137.832 310.868 137.774C310.365 137.703 309.863 137.617 309.357 137.531C307.246 137.171 305.089 136.804 302.689 137.403C300.461 137.774 298.605 138.515 296.748 139.256L296.741 139.259C300.087 134.803 303.433 133.689 307.15 132.576C307.312 132.529 307.475 132.483 307.639 132.437C310.12 131.735 312.888 130.952 315.329 128.862C319.692 125.594 320.143 121.97 320.509 119.034C320.517 118.967 320.525 118.901 320.534 118.836C320.534 116.979 320.905 115.494 322.021 114.009C323.88 112.152 325.366 111.409 327.597 110.667C329.827 109.924 332.43 108.81 335.032 106.582C340.607 101.362 339.977 93.206 339.876 91.8964C339.87 91.8086 339.865 91.7516 339.865 91.7283C339.865 91.357 339.493 90.6142 338.749 90.6142C338.006 90.6142 337.634 90.6142 337.263 91.357C337.263 91.7283 334.66 97.2984 329.456 100.269C327.225 101.383 325.366 102.126 323.136 102.497C323.018 102.527 322.899 102.556 322.78 102.586C319.896 103.302 316.683 104.1 313.47 106.953C311.296 108.504 310.679 110.574 310.101 112.512C309.987 112.894 309.875 113.271 309.753 113.637C309.38 115.865 308.637 117.722 306.778 119.207C303.433 121.435 300.459 122.178 297.486 122.92C296.966 123.069 296.444 123.203 295.923 123.337C293.841 123.871 291.759 124.406 289.677 125.891C289.392 126.081 289.113 126.265 288.841 126.444C286.983 127.668 285.445 128.681 284.473 129.976C285.51 124.795 288.156 122.506 290.913 120.119C291.121 119.94 291.328 119.76 291.536 119.579C293.767 117.722 295.997 115.865 297.856 112.895C300.491 108.29 299.625 105.142 298.876 102.418C298.779 102.067 298.685 101.723 298.6 101.383C298.515 100.96 298.411 100.555 298.309 100.162C297.966 98.8294 297.654 97.6175 298.228 96.1843C299.156 94.0218 300.341 92.8873 301.569 91.7118C301.817 91.4743 302.067 91.2352 302.317 90.9856C302.766 90.4256 303.282 89.8994 303.825 89.3459C305.082 88.0641 306.483 86.6357 307.522 84.3015C311.239 76.8747 306.778 69.0766 306.407 68.7053C306.034 67.9626 305.663 67.9626 304.919 67.9626C304.176 68.3339 303.804 68.7053 303.804 69.448C303.804 69.448 303.433 75.7607 299.715 80.5881C298.366 82.2727 297.017 83.3459 295.39 84.6397C295.224 84.7719 295.054 84.9065 294.882 85.0442C292.28 86.9009 289.677 89.1289 287.819 92.8422C286.331 95.813 286.704 98.4123 287.075 100.64C287.446 102.868 287.446 104.725 286.331 106.953C284.101 110.295 281.87 112.152 279.268 114.009C278.952 114.261 278.625 114.514 278.291 114.772C276.661 116.032 274.863 117.421 273.32 119.579C271.833 121.435 271.089 123.292 270.346 125.149C269.602 119.95 271.089 116.608 272.948 113.266C273.175 112.737 273.418 112.208 273.663 111.672C274.623 109.577 275.626 107.387 275.922 104.725C276.649 99.2766 274.175 96.3152 272.327 94.1033C272.286 94.0539 272.245 94.0049 272.204 93.9563C272.042 93.7396 271.879 93.5307 271.72 93.3263C270.788 92.13 269.974 91.086 269.974 89.5003C269.974 86.9009 270.718 85.0442 271.833 83.1875C272.948 80.9595 274.063 78.7314 274.435 75.0181C274.778 67.484 268.797 62.4765 267.573 61.4519C267.47 61.3655 267.401 61.3074 267.372 61.2785C267 60.9072 266.257 60.9072 265.885 61.2785C265.513 61.6496 265.141 62.0216 265.513 62.7639C265.513 62.7639 267.743 68.7053 266.257 74.6467C265.514 76.8721 264.4 78.7271 263.286 80.5816L263.282 80.5881C261.424 83.5588 259.936 86.1582 259.565 90.6142C259.193 93.585 260.68 96.1843 261.795 98.041C261.908 98.2662 262.021 98.4876 262.132 98.706C263.121 100.648 263.988 102.351 263.654 104.354C263.027 107.798 261.607 110.186 260.286 112.409C260.04 112.822 259.798 113.23 259.565 113.637C259.291 114.184 258.996 114.73 258.694 115.287C257.765 117.002 256.78 118.822 256.219 121.064C255.475 123.663 255.475 125.891 255.475 127.748C252.53 122.967 252.866 119.278 253.234 115.239L253.245 115.123C253.616 112.152 253.616 109.181 252.873 105.839C251.498 100.687 248.532 99.0296 246.035 97.6344C245.833 97.5212 245.633 97.4098 245.438 97.2984C245.226 97.1712 245.018 97.0489 244.817 96.9297C243.249 96.0051 242.007 95.2721 241.348 93.9563C240.461 92.1835 240.515 90.6458 240.575 88.9691C240.59 88.5385 240.605 88.0988 240.605 87.6436C240.977 85.4155 240.977 82.8161 239.862 79.4741C237.259 71.676 228.337 69.448 227.965 69.448C227.593 69.448 226.85 69.8193 226.478 70.1906C226.106 70.562 226.106 71.3047 226.478 71.676C226.478 71.676 230.939 76.5034 231.683 82.4448C232.054 84.6728 231.683 86.9009 231.311 89.1289C231.26 89.5897 231.201 90.0506 231.143 90.5134C230.777 93.4068 230.401 96.3762 231.683 99.8977C232.353 102.574 234.23 104.045 235.954 105.396C236.144 105.545 236.332 105.692 236.516 105.839C238.374 107.324 240.233 108.81 240.605 111.038C241.547 114.487 241.163 117.142 240.797 119.673C240.73 120.14 240.663 120.602 240.605 121.064C240.533 121.566 240.448 122.069 240.361 122.574C240.001 124.682 239.633 126.837 240.233 129.233C240.605 131.461 241.348 133.318 242.092 135.175C237.631 131.833 236.516 128.491 235.401 124.777C235.354 124.616 235.308 124.454 235.262 124.29C234.559 121.811 233.775 119.046 231.683 116.608C228.41 112.249 224.782 111.799 221.842 111.434C221.776 111.425 221.71 111.417 221.645 111.409C219.786 111.409 218.299 111.038 216.812 109.924C214.954 108.067 214.21 106.582 213.466 104.354C212.723 102.126 211.608 99.5264 209.377 96.927C204.151 91.3588 195.986 91.9875 194.675 92.0884C194.587 92.0952 194.53 92.0996 194.507 92.0996C194.135 92.0996 193.391 92.4709 193.391 93.2136C193.02 93.9563 193.391 94.3276 194.135 94.6989C194.135 94.6989 199.711 97.2984 202.685 101.012C203.801 103.24 204.544 105.096 204.916 107.324C204.946 107.443 204.975 107.562 205.005 107.681C205.722 110.561 206.521 113.77 209.377 116.979C210.93 119.151 213.003 119.768 214.943 120.345C215.325 120.458 215.702 120.571 216.069 120.693C218.299 121.064 220.158 121.807 221.645 123.663C223.876 127.005 224.619 129.976 225.363 132.946C225.511 133.466 225.645 133.986 225.779 134.506C226.314 136.586 226.85 138.665 228.337 140.745C228.527 141.03 228.711 141.309 228.891 141.581C230.115 143.436 231.129 144.972 232.426 145.944C227.239 144.908 224.947 142.265 222.558 139.51C222.379 139.303 222.199 139.096 222.017 138.888C220.159 136.661 218.298 134.431 215.325 132.576C210.715 129.944 207.564 130.809 204.837 131.557C204.485 131.653 204.141 131.748 203.801 131.833C203.377 131.917 202.972 132.021 202.578 132.123C201.244 132.465 200.031 132.777 198.596 132.204C196.431 131.277 195.295 130.093 194.118 128.866C193.88 128.618 193.641 128.369 193.391 128.119C192.831 127.671 192.304 127.156 191.75 126.613C190.466 125.358 189.036 123.958 186.7 122.921C179.265 119.207 171.458 123.663 171.086 124.035C170.342 124.406 170.342 124.777 170.342 125.52C170.714 126.263 171.086 126.634 171.829 126.634C171.829 126.634 178.149 127.005 182.982 130.719C184.669 132.066 185.743 133.414 187.038 135.039C187.171 135.205 187.305 135.374 187.443 135.546C189.302 138.145 191.533 140.745 195.25 142.601C198.224 144.087 200.827 143.716 203.057 143.344C205.288 142.973 207.147 142.973 209.377 144.087C212.723 146.315 214.582 148.543 216.441 151.142C216.694 151.459 216.947 151.785 217.206 152.119C218.466 153.747 219.858 155.544 222.017 157.084C223.876 158.569 225.735 159.312 227.593 160.055C222.389 160.797 219.043 159.312 215.697 157.455C215.167 157.228 214.638 156.986 214.102 156.741C212.004 155.783 209.811 154.78 207.147 154.485C201.692 153.758 198.727 156.229 196.513 158.075C196.463 158.117 196.414 158.157 196.366 158.198C196.149 158.36 195.939 158.523 195.735 158.682C194.537 159.613 193.492 160.426 191.904 160.426C189.302 160.426 187.443 159.683 185.584 158.569C183.354 157.455 181.123 156.341 177.406 155.97C169.504 155.627 164.46 161.626 163.446 162.831C163.363 162.93 163.307 162.997 163.279 163.025C162.907 163.397 162.907 164.14 163.279 164.511C163.65 164.881 164.023 165.253 164.766 164.882C164.766 164.882 170.714 162.654 176.662 164.14C178.893 164.511 180.752 165.624 182.61 166.739C185.584 168.596 188.187 170.08 192.648 170.452C195.622 170.823 198.224 169.338 200.083 168.224C200.438 168.047 200.774 167.87 201.098 167.698C202.815 166.793 204.215 166.055 206.403 166.367C209.851 166.994 212.242 168.412 214.468 169.732C214.881 169.977 215.289 170.219 215.697 170.452C216.244 170.725 216.791 171.021 217.349 171.322C219.066 172.25 220.887 173.234 223.132 173.794C225.735 174.536 227.965 174.536 229.824 174.536C225.039 177.478 221.347 177.143 217.305 176.776L217.184 176.765C214.21 176.394 211.236 176.394 207.89 177.136C202.732 178.51 201.073 181.473 199.676 183.967C199.563 184.169 199.451 184.368 199.34 184.563C199.212 184.775 199.09 184.982 198.971 185.184C198.045 186.749 197.311 187.99 195.994 188.647C194.219 189.534 192.679 189.48 191 189.421C190.569 189.406 190.129 189.39 189.674 189.39C187.443 189.019 184.841 189.019 181.495 190.133C173.688 192.732 171.458 201.644 171.458 202.016C171.458 202.387 171.829 203.13 172.201 203.501C172.573 203.873 173.316 203.873 173.688 203.501C173.688 203.501 178.521 199.045 184.469 198.302C186.7 197.931 188.93 198.302 191.161 198.674C191.623 198.725 192.084 198.783 192.548 198.842C195.444 199.208 198.417 199.583 201.942 198.302C204.622 197.633 206.094 195.758 207.447 194.036C207.596 193.846 207.743 193.659 207.89 193.475C209.377 191.618 210.864 189.762 213.095 189.39C216.548 188.45 219.206 188.833 221.74 189.198C222.207 189.266 222.67 189.332 223.132 189.39C223.635 189.462 224.137 189.548 224.643 189.634C226.753 189.993 228.911 190.361 231.311 189.762C233.539 189.391 235.397 188.649 237.253 187.908L237.259 187.905C233.913 192.361 230.567 193.475 226.85 194.589C226.688 194.635 226.526 194.681 226.361 194.728C223.88 195.43 221.112 196.213 218.671 198.302C214.308 201.571 213.856 205.195 213.491 208.133C213.483 208.199 213.475 208.264 213.466 208.329C213.466 210.185 213.095 211.67 211.979 213.156C210.121 215.012 208.634 215.755 206.403 216.498C204.172 217.241 201.57 218.355 198.968 220.583C193.393 225.803 194.023 233.959 194.124 235.268C194.131 235.356 194.135 235.413 194.135 235.436C194.135 235.808 194.507 236.551 195.25 236.551C195.994 236.551 196.366 236.551 196.737 235.808C196.737 235.436 199.34 229.866 204.544 226.896C206.775 225.781 208.634 225.039 210.864 224.667C210.983 224.638 211.102 224.608 211.221 224.579C214.105 223.862 217.317 223.064 220.53 220.211C222.704 218.66 223.321 216.59 223.899 214.652C224.013 214.27 224.125 213.894 224.248 213.528C224.619 211.299 225.363 209.443 227.222 207.957C230.567 205.729 233.542 204.987 236.516 204.244C237.037 204.095 237.557 203.961 238.078 203.828C240.16 203.293 242.241 202.758 244.323 201.273C244.609 201.082 244.89 200.898 245.164 200.717C247.019 199.495 248.555 198.483 249.528 197.188C248.49 202.37 245.844 204.66 243.086 207.046C242.879 207.225 242.671 207.405 242.464 207.586C240.233 209.443 238.003 211.299 236.144 214.27C233.51 218.875 234.375 222.023 235.124 224.746C235.221 225.098 235.316 225.442 235.401 225.781C235.485 226.205 235.59 226.609 235.691 227.003C236.034 228.336 236.346 229.547 235.772 230.98C234.844 233.144 233.658 234.279 232.428 235.455C232.181 235.692 231.932 235.93 231.683 236.179C231.234 236.739 230.718 237.265 230.175 237.819C228.918 239.1 227.517 240.529 226.478 242.863C222.76 250.29 227.222 258.088 227.593 258.459C227.965 259.202 228.337 259.202 229.08 259.202C229.824 259.202 230.196 258.831 230.196 258.088C230.196 258.088 230.567 251.775 234.285 246.947C235.634 245.264 236.982 244.191 238.608 242.898C238.775 242.765 238.945 242.63 239.118 242.491C241.72 240.635 244.323 238.407 246.182 234.693C247.668 231.723 247.297 229.123 246.925 226.896C246.553 224.667 246.553 222.811 247.668 220.583C249.899 217.241 252.13 215.384 254.732 213.528C255.047 213.275 255.374 213.023 255.707 212.765C257.338 211.505 259.137 210.115 260.68 207.957C262.167 206.1 262.911 204.244 263.654 202.387C264.397 207.586 262.911 210.928 261.052 214.27C260.825 214.798 260.584 215.326 260.339 215.86C259.378 217.956 258.374 220.147 258.078 222.811C257.35 228.26 259.825 231.222 261.673 233.433C261.714 233.482 261.755 233.531 261.795 233.579C261.958 233.796 262.12 234.005 262.279 234.209C263.212 235.405 264.026 236.449 264.026 238.035C264.026 240.635 263.282 242.491 262.167 244.348L262.165 244.353C261.051 246.58 259.936 248.807 259.565 252.518C258.876 260.424 264.878 265.466 266.069 266.467C266.165 266.547 266.229 266.601 266.257 266.629ZM260.339 199.338C257.338 198.801 254.467 197.886 251.779 196.644C250.628 204.207 247.022 207.473 243.581 210.59C243.456 210.703 243.331 210.815 243.207 210.928C243.113 211.007 243.019 211.085 242.926 211.162C240.82 212.913 239.055 214.38 237.631 216.869C235.401 220.583 236.144 223.182 237.259 226.153C238.003 228.381 238.746 230.609 237.631 233.208C236.516 236.179 234.657 238.035 232.798 239.521C232.509 239.81 232.205 240.099 231.893 240.396C230.602 241.627 229.163 242.997 227.965 245.091C226.478 248.062 226.85 251.032 227.222 253.261C227.965 251.032 229.08 248.062 230.939 245.834C232.426 243.606 234.285 242.12 236.144 241.007C238.746 239.15 240.977 237.293 242.464 233.951C243.579 232.095 243.207 229.866 242.836 228.01C242.464 225.41 242.092 222.44 243.951 219.84C246.553 215.755 249.155 213.899 251.758 212.042C253.989 210.556 255.847 209.071 256.962 207.214C259.154 203.931 259.932 201.454 260.339 199.338ZM248.009 194.617C245.372 192.987 242.965 191.021 240.849 188.778C236.965 195.358 232.619 196.896 228.252 198.44C228.032 198.518 227.813 198.596 227.593 198.674C224.993 199.416 222.387 200.16 220.158 202.016C216.812 204.615 216.441 207.214 216.069 210.185C216.007 210.557 215.955 210.928 215.904 211.3C215.645 213.156 215.387 215.013 213.838 216.869C211.608 219.097 209.377 220.211 207.147 220.954C206.905 221.051 206.657 221.147 206.403 221.246C204.702 221.909 202.719 222.681 200.455 224.296C197.853 226.524 197.109 229.123 196.737 231.723C198.224 229.866 200.455 227.638 203.057 226.153C204.73 225.039 206.403 224.552 208.075 224.064C208.633 223.902 209.191 223.739 209.749 223.554C212.723 222.811 215.697 222.068 218.299 219.84C219.786 218.355 220.53 216.498 220.902 214.27C221.645 211.67 222.389 209.071 224.991 206.843C228.709 204.244 232.054 203.501 235.401 202.758C235.876 202.623 236.34 202.499 236.791 202.379C238.806 201.843 240.573 201.373 242.092 200.159C244.933 198.353 246.697 196.548 248.009 194.617ZM238.118 185.515C236.282 183.032 234.763 180.301 233.621 177.381C227.206 182.234 222.098 181.869 217.556 181.221C214.954 180.85 212.351 180.85 209.377 181.592C205.288 182.706 203.801 185.306 202.685 187.534C202.582 187.706 202.479 187.881 202.374 188.058C201.351 189.794 200.214 191.722 197.853 192.732C195.38 193.967 193.422 193.919 191.337 193.867C190.914 193.857 190.485 193.846 190.046 193.846C189.605 193.846 189.165 193.832 188.719 193.817C186.906 193.758 184.998 193.695 182.61 194.589C179.636 195.703 177.406 197.931 176.29 199.788C178.521 198.674 181.123 197.559 184.097 197.188C186.536 196.841 188.648 197.145 191.045 197.489C191.206 197.513 191.369 197.536 191.533 197.559C194.507 197.931 197.481 198.302 200.827 197.188C202.685 196.446 204.172 194.961 205.288 193.103C206.775 190.876 208.634 188.647 211.979 187.905C215.9 186.926 219.247 187.381 222.019 187.758C222.401 187.81 222.772 187.86 223.132 187.905C223.296 187.929 223.459 187.952 223.62 187.975C226.017 188.32 228.129 188.624 230.567 188.276C234.079 187.525 236.405 186.604 238.118 185.515ZM232.222 172.962C231.557 170.254 231.205 167.423 231.205 164.511C231.205 164.002 231.215 163.495 231.237 162.992C223.451 164.996 219.202 162.711 214.954 160.426C214.245 160.122 213.564 159.791 212.888 159.463C211.081 158.585 209.311 157.725 207.147 157.455C202.959 156.758 201.064 158.351 199.003 160.085C198.868 160.198 198.733 160.312 198.596 160.426C196.737 161.911 194.878 163.397 192.276 163.397C189.336 163.397 187.257 162.537 185.534 161.824C185.297 161.726 185.066 161.63 184.841 161.54C182.982 160.426 180.752 159.683 177.777 159.312C174.803 158.941 171.829 160.426 169.971 161.911C170.889 162.042 171.853 162.127 172.847 162.215C174.671 162.375 176.596 162.545 178.521 163.025C180.597 163.618 182.2 164.446 183.896 165.323C184.326 165.545 184.762 165.771 185.213 165.996C187.815 167.853 190.046 169.338 193.763 169.338C195.994 169.338 197.481 168.596 199.34 167.481C199.509 167.396 199.681 167.309 199.855 167.221C201.97 166.152 204.427 164.91 207.518 165.253C211.979 165.996 214.954 167.853 217.556 169.709C219.786 171.195 221.645 172.309 224.248 172.68C227.53 173.437 229.955 173.337 232.222 172.962ZM231.652 158.874C232.17 155.641 233.126 152.555 234.458 149.678C226.886 148.529 223.617 144.926 220.497 141.49C220.384 141.365 220.271 141.241 220.158 141.117C220.081 141.023 220.004 140.931 219.927 140.839C218.173 138.734 216.704 136.97 214.21 135.546C210.492 133.318 207.89 134.061 204.916 135.175C203.057 136.289 200.827 137.032 198.224 136.289C195.25 135.175 193.391 133.318 191.904 131.462C191.615 131.173 191.326 130.87 191.029 130.559C189.797 129.269 188.425 127.831 186.328 126.634C183.354 125.149 180.38 125.52 178.149 125.891C180.38 126.634 183.354 127.748 185.584 129.605C187.815 131.09 189.302 132.947 190.417 134.803C192.276 137.403 194.135 139.631 197.481 141.117C199.34 142.23 201.57 141.859 203.429 141.488C206.031 141.117 209.005 140.745 211.608 142.601C215.697 145.201 217.556 147.8 219.415 150.4C220.902 152.628 222.389 154.485 224.248 155.598C227.289 157.624 229.639 158.441 231.652 158.874ZM236.487 145.912C238.12 143.278 240.088 140.874 242.333 138.76C235.745 134.881 234.206 130.54 232.66 126.177C232.582 125.958 232.505 125.739 232.426 125.52C231.683 122.921 230.939 120.321 229.08 118.093C226.478 114.751 223.876 114.38 220.902 114.009C220.53 113.947 220.158 113.895 219.786 113.844C217.928 113.586 216.069 113.328 214.21 111.781C211.979 109.552 210.864 107.324 210.121 105.096C210.024 104.855 209.927 104.608 209.828 104.354C209.165 102.654 208.392 100.674 206.775 98.4123C204.544 95.813 201.942 95.0703 199.34 94.6989C201.198 96.1843 203.429 98.4123 204.916 101.012C206.031 102.683 206.519 104.354 207.007 106.025C207.17 106.582 207.332 107.139 207.518 107.696C208.262 110.667 209.005 113.637 211.236 116.237C212.723 117.722 214.582 118.465 216.812 118.836C219.415 119.579 222.017 120.321 224.248 122.921C226.85 126.634 227.593 129.976 228.337 133.318C228.473 133.795 228.597 134.259 228.718 134.711C229.254 136.722 229.725 138.486 230.939 140.002C232.747 142.84 234.555 144.602 236.487 145.912ZM245.6 136.033C248.086 134.199 250.82 132.682 253.743 131.541C248.885 125.133 249.25 120.031 249.899 115.494C250.27 112.895 250.27 110.295 249.528 107.324C248.412 103.24 245.809 101.754 243.579 100.64C243.407 100.537 243.231 100.434 243.053 100.329C241.316 99.3069 239.386 98.1712 238.374 95.813C237.129 93.3246 237.188 91.0968 237.239 89.1296C237.25 88.7482 237.259 88.3767 237.259 88.0149C237.259 87.5752 237.274 87.1356 237.288 86.6902C237.348 84.8786 237.411 82.9726 236.516 80.5881C235.401 77.6174 233.17 75.3894 231.311 74.2753C232.426 76.5034 233.542 79.1028 233.913 82.0734C234.262 84.5099 233.957 86.6201 233.611 89.0157C233.588 89.1759 233.565 89.3374 233.542 89.5003C233.17 92.4709 232.798 95.4417 233.913 98.7837C234.657 100.64 236.144 102.126 238.003 103.24C240.233 104.725 242.464 106.582 243.207 109.924C244.188 113.84 243.732 117.183 243.355 119.952C243.303 120.333 243.252 120.704 243.207 121.064C243.184 121.228 243.16 121.39 243.137 121.551C242.792 123.946 242.487 126.055 242.836 128.491C243.588 131.998 244.509 134.322 245.6 136.033ZM258.167 130.143C257.792 127.879 257.692 125.457 258.45 122.178C258.821 119.579 259.936 117.722 261.424 115.494C263.282 112.895 265.141 109.924 265.885 105.468C266.229 102.38 264.985 99.9259 263.914 97.8132C263.826 97.6393 263.739 97.4678 263.654 97.2984C262.539 95.4417 261.795 93.9563 261.795 91.7283C261.795 88.0149 263.282 85.7868 265.885 83.1875C266.111 82.735 266.338 82.2978 266.561 81.8667C267.438 80.1747 268.266 78.5749 268.858 76.5034C269.602 73.1614 269.602 70.1906 269.231 67.9626C270.718 69.8193 272.204 72.4186 271.833 75.7607C271.461 78.7314 270.718 80.9595 269.602 82.8161C269.512 83.0411 269.416 83.2716 269.318 83.5088C268.605 85.2292 267.743 87.3059 267.743 90.2429C267.743 92.8423 269.231 94.6989 270.718 96.5556C270.832 96.6922 270.946 96.8274 271.059 96.9619C272.795 99.0211 274.39 100.914 273.692 105.096C273.421 107.258 272.56 109.027 271.681 110.831C271.353 111.507 271.022 112.187 270.718 112.895C268.43 117.139 266.142 121.383 268.149 129.159C267.644 129.138 267.138 129.127 266.628 129.127C263.712 129.127 260.878 129.479 258.167 130.143ZM272.272 129.574C275.679 130.119 278.925 131.149 281.935 132.592C283.17 125.402 286.688 122.217 290.048 119.174C290.173 119.061 290.297 118.949 290.421 118.836C290.515 118.758 290.608 118.68 290.701 118.604C292.807 116.852 294.573 115.385 295.997 112.895C298.228 109.181 297.484 106.582 296.369 103.611C295.626 101.383 294.882 99.155 295.997 96.5556C295.997 93.52 297.531 92.0162 299.205 90.3746C299.374 90.2089 299.544 90.0418 299.715 89.8716C300.004 89.5831 300.306 89.2946 300.618 88.9979C301.91 87.7672 303.35 86.396 304.548 84.3015C306.034 81.3308 305.663 78.36 305.292 76.132C304.548 78.36 303.433 81.3308 301.573 83.5588C300.087 85.7869 298.228 87.2722 296.369 88.3862C293.767 90.2429 291.536 92.0996 290.049 95.4417C288.934 97.2984 289.306 99.5264 289.677 101.383C290.049 103.982 290.421 106.953 288.562 109.552C285.96 113.637 283.358 115.494 280.755 117.351C278.524 118.836 276.666 120.321 275.55 122.178C273.523 125.216 272.705 127.564 272.272 129.574ZM285.865 134.794C288.466 136.478 290.832 138.493 292.903 140.779C296.755 134.373 301.055 132.852 305.376 131.324C305.596 131.246 305.815 131.168 306.034 131.09C308.637 130.347 311.239 129.605 313.47 127.748C316.816 125.149 317.188 122.549 317.56 119.579C317.622 119.208 317.673 118.836 317.725 118.465C317.983 116.608 318.241 114.751 319.79 112.895C322.021 110.667 324.251 109.553 326.482 108.81C326.723 108.713 326.971 108.617 327.225 108.518C328.926 107.856 330.909 107.083 333.173 105.468C335.776 103.24 336.519 100.64 336.891 98.041C335.404 99.8977 333.173 102.126 330.571 103.611C328.898 104.725 327.226 105.212 325.553 105.7C324.995 105.862 324.437 106.025 323.88 106.21C320.905 106.953 317.931 107.696 315.329 109.924C313.842 111.409 313.098 113.266 312.726 115.494C311.983 118.093 311.239 120.693 308.637 122.921C304.92 125.52 301.574 126.263 298.229 127.005C297.751 127.141 297.286 127.265 296.834 127.386C294.82 127.922 293.054 128.392 291.536 129.605C288.868 131.3 287.15 132.996 285.865 134.794ZM295.623 144.178C297.404 146.707 298.861 149.48 299.936 152.436C306.385 147.527 311.514 147.892 316.072 148.543C318.675 148.914 321.277 148.914 324.251 148.172C328.341 147.057 329.827 144.458 330.943 142.23C331.046 142.058 331.15 141.883 331.254 141.706C332.278 139.97 333.415 138.042 335.776 137.032C338.267 135.787 340.497 135.846 342.467 135.898C342.848 135.908 343.22 135.918 343.583 135.918C344.023 135.918 344.463 135.932 344.909 135.947C346.722 136.006 348.631 136.069 351.018 135.175C353.992 134.061 356.222 131.833 357.337 129.976C355.107 131.09 352.505 132.204 349.531 132.576C347.091 132.923 344.977 132.619 342.577 132.273C342.418 132.25 342.257 132.227 342.095 132.204C339.122 131.833 336.147 131.462 332.802 132.576C330.943 133.318 329.456 134.803 328.341 136.661C326.853 138.888 324.995 141.117 321.649 141.859C317.728 142.838 314.382 142.383 311.61 142.006C311.228 141.954 310.856 141.904 310.496 141.859C310.332 141.835 310.17 141.812 310.009 141.789C307.612 141.444 305.499 141.14 303.061 141.488C299.626 142.223 297.325 143.119 295.623 144.178ZM301.216 156.834C301.763 159.306 302.052 161.874 302.052 164.511C302.052 165.053 302.039 165.592 302.015 166.129C310.041 163.952 314.357 166.273 318.674 168.595C319.383 168.899 320.065 169.23 320.741 169.558C322.547 170.436 324.318 171.296 326.482 171.566C330.67 172.263 332.564 170.67 334.626 168.936C334.76 168.823 334.895 168.709 335.032 168.596C336.891 167.11 338.749 165.624 341.352 165.624C344.29 165.624 346.369 166.484 348.09 167.196C348.329 167.295 348.561 167.391 348.787 167.481C350.646 168.596 352.876 169.338 355.851 169.709C358.825 170.08 361.799 168.596 363.658 167.11C361.427 167.481 358.453 167.481 355.479 166.739C353.405 166.147 351.803 165.319 350.11 164.443C349.678 164.22 349.24 163.994 348.787 163.768C346.186 162.284 343.581 160.797 339.865 160.426C337.634 160.426 336.148 161.168 334.288 162.283C334.119 162.367 333.948 162.454 333.775 162.541C331.66 163.611 329.202 164.854 326.11 164.511C321.649 163.768 318.675 161.911 316.072 160.055C313.842 158.569 311.983 157.455 309.38 157.084C306.006 156.306 303.537 156.433 301.216 156.834ZM301.616 170.073C301.142 173.074 300.29 175.95 299.11 178.65C306.461 179.849 309.683 183.4 312.76 186.79C312.873 186.914 312.985 187.039 313.098 187.162C313.177 187.258 313.256 187.352 313.334 187.446C315.086 189.548 316.555 191.31 319.046 192.732C322.764 194.961 325.366 194.218 328.341 193.103C330.57 192.361 332.802 191.619 335.404 192.732C338.378 193.846 340.237 195.703 341.724 197.559C342.013 197.848 342.302 198.151 342.6 198.463C343.832 199.753 345.204 201.191 347.3 202.387C350.275 203.873 353.249 203.501 355.479 203.13C353.249 202.387 350.275 201.273 348.044 199.417C345.813 197.931 344.326 196.075 343.211 194.218C341.352 191.618 339.493 189.39 336.148 187.905C334.288 186.791 332.058 187.162 330.199 187.534C327.597 187.905 324.623 188.276 322.021 186.42C317.931 183.82 316.072 181.221 314.214 178.621C312.726 176.394 311.239 174.536 309.38 173.423C306.156 171.275 303.708 170.486 301.616 170.073ZM297.087 182.587C295.508 185.236 293.592 187.661 291.399 189.805C297.587 193.611 299.088 197.845 300.597 202.101C300.675 202.32 300.752 202.539 300.83 202.758C301.573 205.358 302.317 207.957 304.176 210.185C306.778 213.528 309.38 213.899 312.355 214.27C312.727 214.332 313.099 214.383 313.471 214.435C315.33 214.693 317.188 214.951 319.046 216.498C321.277 218.726 322.392 220.954 323.136 223.182C323.232 223.423 323.329 223.67 323.428 223.923C324.091 225.623 324.864 227.604 326.482 229.866C328.712 232.466 331.314 233.208 333.917 233.579C332.058 232.095 329.827 229.866 328.341 227.267C327.226 225.596 326.738 223.926 326.25 222.255C326.087 221.698 325.924 221.14 325.738 220.583C324.995 217.612 324.251 214.641 322.021 212.042C320.534 210.556 318.675 209.814 316.444 209.443C313.842 208.7 311.239 207.957 309.009 205.358C306.407 201.645 305.663 198.303 304.92 194.962C304.783 194.484 304.659 194.019 304.538 193.567C304.002 191.556 303.531 189.792 302.317 188.276C300.609 185.595 298.9 183.873 297.087 182.587ZM287.966 192.756C285.518 194.604 282.823 196.142 279.938 197.311C284.35 203.452 283.987 208.384 283.358 212.785C282.985 215.384 282.985 217.984 283.729 220.954C284.845 225.039 287.446 226.524 289.677 227.638C289.85 227.742 290.025 227.845 290.203 227.95C291.94 228.972 293.87 230.107 294.882 232.466C296.128 234.954 296.069 237.181 296.017 239.149C296.007 239.53 295.997 239.902 295.997 240.264C295.997 240.703 295.983 241.143 295.968 241.588C295.908 243.4 295.846 245.306 296.741 247.69C297.856 250.661 300.087 252.889 301.946 254.003C300.83 251.775 299.715 249.176 299.343 246.205C298.995 243.77 299.299 241.66 299.645 239.265C299.668 239.104 299.691 238.942 299.715 238.778C300.087 235.808 300.458 232.837 299.343 229.495C298.6 227.638 297.112 226.153 295.254 225.039C293.023 223.553 290.792 221.697 290.049 218.355C289.069 214.44 289.524 211.099 289.901 208.33C289.953 207.947 290.004 207.575 290.049 207.214C290.072 207.052 290.095 206.891 290.118 206.732C290.464 204.335 290.769 202.225 290.421 199.788C289.741 196.618 288.923 194.414 287.966 192.756ZM275.197 198.852C275.476 200.915 275.485 203.165 274.807 206.1C274.435 208.7 273.32 210.556 271.833 212.785C269.974 215.384 268.116 218.355 267.372 222.811C267.028 225.899 268.272 228.353 269.343 230.466C269.431 230.639 269.517 230.811 269.602 230.98C270.718 232.837 271.461 234.322 271.461 236.551C271.09 240.262 269.603 242.861 268.117 245.459C267.892 245.91 267.665 246.348 267.442 246.777C266.564 248.471 265.734 250.072 265.141 252.146C264.397 255.117 264.397 258.088 264.77 260.316C263.282 258.459 261.795 255.86 262.167 252.518C262.539 249.547 263.282 247.319 264.397 245.463C264.488 245.237 264.583 245.006 264.682 244.769C265.395 243.049 266.257 240.972 266.257 238.035C266.257 235.436 264.77 233.579 263.282 231.723C263.168 231.586 263.055 231.451 262.941 231.317C261.206 229.258 259.61 227.366 260.308 223.182C260.579 221.021 261.44 219.252 262.318 217.448C262.647 216.773 262.979 216.092 263.282 215.384C265.493 211.282 267.705 207.18 266.039 199.889C266.235 199.892 266.431 199.894 266.628 199.894C269.583 199.894 272.453 199.532 275.197 198.852Z" fill="#FFDEC9"/>
<defs>
<linearGradient id="paint0_linear_1_382" x1="266.904" y1="317.878" x2="267" y2="564.389" gradientUnits="userSpaceOnUse">
<stop stop-color="#BD7B4F"/>
<stop offset="1" stop-color="#BD7B4F" stop-opacity="0"/>
</linearGradient>
<radialGradient id="paint1_radial_1_382" cx="0" cy="0" r="1" gradientUnits="userSpaceOnUse" gradientTransform="translate(267 162.632) rotate(90) scale(155.741)">
<stop stop-color="#BD7B4F" stop-opacity="0.71"/>
<stop offset="1" stop-color="#BD7B4F" stop-opacity="0"/>
</radialGradient>
</defs>
</svg>
