<svg width="590" height="693" viewBox="0 0 590 693" fill="none" xmlns="http://www.w3.org/2000/svg">
<path d="M258.886 2.99128L332.715 586.355M222.535 9.81018L369.028 579.337M187.327 21.1231L404.174 567.832M153.816 36.7517L437.598 552.02M122.532 56.4494L468.774 532.151M93.9681 79.9057L497.208 508.539M68.5747 106.751L522.454 481.556M46.7521 136.561L544.113 451.627M28.8445 168.866L561.843 419.224M15.1341 203.157L575.364 384.859M5.8378 238.893L584.465 349.073M1.10134 275.51L589 312.431M1 312.43L588.899 275.51M5.53539 349.073L584.163 238.893M14.6354 384.859L574.866 203.157M28.1574 419.224L561.156 168.866M45.8873 451.627L543.248 136.561M67.546 481.556L521.425 106.751M92.7916 508.539L496.032 79.9057M121.227 532.152L467.468 56.4496M152.402 552.02L436.184 36.7518M185.826 567.832L402.674 21.1231M220.972 579.337L367.465 9.81024M257.285 586.355L331.114 2.99121M294.193 588.774L294.193 0.773926M331.114 586.557L257.285 3.19311M367.465 579.738L220.972 10.2108M402.673 568.425L185.826 21.7161M436.184 552.796L152.402 37.5279M467.468 533.098L121.226 57.3964M496.032 509.642L92.7919 81.0085M521.425 482.797L67.546 107.992M543.248 452.987L45.8873 137.921M561.155 420.682L28.1571 170.324M574.866 386.391L14.6356 204.689M584.162 350.655L5.53511 240.475M588.899 314.038L1.00005 277.117M589 277.117L1.10138 314.038M584.465 240.475L5.83749 350.655M575.365 204.689L15.1343 386.391M561.843 170.324L28.8443 420.682M544.113 137.921L46.752 452.987M522.454 107.992L68.5747 482.797M497.208 81.0086L93.9684 509.642M468.773 57.3964L122.532 533.098M437.598 37.5278L153.816 552.796M404.174 21.7162L187.326 568.425M369.028 10.2108L222.535 579.738M332.715 3.19319L258.886 586.557M295.807 0.773926L295.807 588.774" stroke="url(#paint0_radial_1_376)" stroke-width="2"/>
<path d="M100.181 406.736L107.786 442.177C108.876 439.223 112.485 432.069 119.11 430.9C125.956 429.692 126.359 420.832 120.318 414.388C121.124 412.105 122.01 407.219 119.11 405.93C118.841 404.319 118.707 400.775 120.318 399.486C121.929 398.198 118.304 394.653 116.291 393.042C117.315 391.847 118.992 389.663 120.077 387.651C120.697 386.5 121.124 385.406 121.124 384.585C121.124 383.336 119.385 382.009 116.819 380.777C113.591 379.228 109.052 377.83 105.014 376.933L104.611 370.086C100.851 365.253 91.7615 355.185 85.4798 353.574C89.3827 370.576 96.1544 393.74 100.181 406.736Z" fill="#0B0A0A"/>
<path d="M197.644 461.105C204.356 460.569 217.781 465.133 217.781 487.686C217.781 507.431 221.14 510.582 225.366 517.892C227.671 514.536 232.28 504.521 232.28 491.311C232.28 478.101 234.159 468.355 235.099 465.133C237.65 461.508 242.751 449.345 242.751 429.692C242.751 405.125 241.543 403.111 238.321 403.111C235.099 403.111 233.488 406.333 233.488 414.388C232.817 409.555 231.474 398.117 231.474 391.029C231.743 389.955 230.749 387.807 224.628 387.807C224.628 385.793 223.419 381.766 218.587 381.766C214.257 381.766 213.483 385.214 213.658 387.477C213.726 387.747 213.754 388.001 213.754 388.21C213.712 387.986 213.679 387.739 213.658 387.477C213.42 386.529 212.69 385.39 210.934 385.39C208.115 385.39 204.893 387.404 204.893 410.763C204.893 429.45 200.598 436.807 198.45 438.149C194.825 432.108 195.63 420.026 186.367 418.415C185.428 418.549 183.548 419.221 183.548 420.832C183.548 422.845 188.381 434.927 188.381 438.955C188.381 442.982 189.992 451.037 197.644 461.105Z" fill="#0B0A0A"/>
<path d="M24.0633 658.448C15.6863 659.092 9.83315 680.733 7.9537 691.473H134.414L124.748 652.81C128.292 647.01 126.225 643.681 124.748 642.741C127.326 641.13 129.581 627.034 130.387 620.188C145.53 629.209 182.34 632.001 198.852 632.27C202.745 633.344 212.384 635.814 219.795 637.103C229.058 638.714 237.918 642.338 236.307 633.881C235.018 627.115 236.844 627.034 237.918 627.84C250.161 643.949 252.685 632.136 252.417 624.215C255.37 625.96 261.438 625.343 262.082 608.911C262.496 598.363 256.006 583.672 248.721 569.04C241.82 555.179 234.206 541.37 231.071 531.182C229.141 524.908 227.174 521.019 225.366 517.892C221.14 510.582 217.781 507.431 217.781 487.686C217.781 465.133 204.356 460.568 197.644 461.105C196.436 467.147 189.589 468.758 187.576 474.799C186.77 477.215 173.48 495.338 165.022 496.949C161.632 497.595 157.628 500.29 154.004 503.393H148.51L144.08 499.768C144.08 452.862 129.83 409.548 120.077 387.651C118.992 389.663 117.315 391.847 116.291 393.042C118.304 394.653 121.929 398.198 120.318 399.486C118.707 400.775 118.841 404.319 119.11 405.93C122.01 407.219 121.124 412.105 120.318 414.388C126.359 420.832 125.956 429.692 119.11 430.9C112.485 432.069 108.876 439.223 107.786 442.177L100.181 406.736C96.1544 393.74 89.3827 370.576 85.4798 353.574C91.7615 355.185 100.851 365.253 104.611 370.086L105.014 376.933C109.052 377.83 113.591 379.228 116.819 380.777C116.64 380.425 116.464 380.083 116.291 379.752C115.619 378.678 113.471 374.597 110.25 366.864C107.028 359.132 102.195 356.662 100.181 356.393L81.6551 330.215C78.4331 330.537 54.2688 343.237 42.5893 349.547C35.34 357.601 33.393 357.943 22.8551 367.67C12.3838 377.336 6.34274 394.653 6.34274 398.681C6.34274 401.903 9.02767 406.199 10.3701 407.944C9.9674 413.716 9.16192 429.45 9.16192 446.204V489.297C9.16192 492.922 5.53726 492.116 5.53726 499.366C5.53726 506.615 1.50986 507.421 1.10712 512.253C0.704384 517.086 1.50986 519.1 2.31534 531.988C3.12082 544.875 5.13452 549.305 8.35644 551.319C11.5784 553.333 11.1756 553.333 11.1756 566.623C11.1756 579.914 13.9948 583.136 13.5921 612.938C13.1893 642.741 25.2715 642.338 24.8688 644.755C24.466 647.171 22.8551 645.56 22.8551 647.977C22.8551 650.393 25.6742 649.99 24.0633 651.601C22.7745 652.89 23.5263 656.703 24.0633 658.448Z" fill="url(#paint1_linear_1_376)"/>
<path d="M231.071 531.182C234.206 541.37 241.82 555.179 248.721 569.04C246.731 555.212 242.59 524.497 241.945 512.253C241.14 496.949 240.334 482.451 235.099 465.133C234.159 468.355 232.28 478.101 232.28 491.311C232.28 504.521 227.671 514.536 225.366 517.892C227.174 521.019 229.141 524.908 231.071 531.182Z" fill="url(#paint2_linear_1_376)"/>
<path d="M9.16192 489.297C9.16192 492.922 5.53726 492.116 5.53726 499.366C5.53726 506.615 1.50986 507.421 1.10712 512.253C0.704384 517.086 1.50986 519.1 2.31534 531.988C3.12082 544.875 5.13452 549.305 8.35644 551.319C11.5784 553.333 11.1756 553.333 11.1756 566.623C11.1756 579.914 13.9948 583.136 13.5921 612.938C13.1893 642.741 25.2715 642.338 24.8688 644.755C24.466 647.171 22.8551 645.56 22.8551 647.977C22.8551 650.393 25.6742 649.99 24.0633 651.601C22.7745 652.89 23.5263 656.703 24.0633 658.448C15.6863 659.092 9.83315 680.733 7.9537 691.473H134.414L124.748 652.81C128.292 647.01 126.225 643.681 124.748 642.741C127.326 641.13 129.581 627.034 130.387 620.188C145.53 629.209 182.34 632.001 198.852 632.27C202.745 633.344 212.384 635.814 219.795 637.103C229.058 638.714 237.918 642.338 236.307 633.881C235.018 627.115 236.844 627.034 237.918 627.84C250.161 643.949 252.685 632.136 252.417 624.215C255.37 625.96 261.438 625.343 262.082 608.911C262.496 598.363 256.006 583.672 248.721 569.04M9.16192 489.297C9.16192 485.673 9.16192 467.147 9.16192 446.204M9.16192 489.297V446.204M9.16192 446.204C9.16192 429.45 9.9674 413.716 10.3701 407.944C9.02767 406.199 6.34274 401.903 6.34274 398.681C6.34274 394.653 12.3838 377.336 22.8551 367.67C33.393 357.943 35.34 357.601 42.5893 349.547C54.2688 343.237 78.4331 330.537 81.6551 330.215L100.181 356.393C102.195 356.662 107.028 359.132 110.25 366.864C113.471 374.597 115.619 378.678 116.291 379.752C116.464 380.083 116.64 380.425 116.819 380.777M154.041 503.393H154.004M82.4605 335.451C82.4605 339.04 83.6574 345.635 85.4798 353.574M121.526 506.212L107.786 442.177M33.3263 449.426C36.6825 450.232 44.603 451.923 49.4359 452.245C55.477 452.648 57.0879 457.884 67.1564 462.716C77.2249 467.549 93.3345 479.229 97.3619 491.311L108.236 500.977C111.055 502.722 117.177 506.212 119.11 506.212C121.526 506.212 127.165 507.421 129.178 510.642C130.789 510.642 134.575 511.287 136.83 513.864C138.844 511.582 143.355 508.065 145.288 512.253C147.163 509.976 150.395 506.483 154.004 503.393M197.644 461.105C196.436 467.147 189.589 468.758 187.576 474.799C186.77 477.215 173.48 495.338 165.022 496.949C161.632 497.595 157.628 500.29 154.004 503.393M197.644 461.105C204.356 460.568 217.781 465.133 217.781 487.686C217.781 507.431 221.14 510.582 225.366 517.892M197.644 461.105C189.992 451.037 188.381 442.982 188.381 438.955C188.381 434.927 183.548 422.845 183.548 420.832C183.548 419.221 185.428 418.549 186.367 418.415C195.63 420.026 194.825 432.108 198.45 438.149C200.598 436.807 204.893 429.45 204.893 410.763C204.893 387.404 208.115 385.39 210.934 385.39C213.19 385.39 213.754 387.27 213.754 388.21C213.351 386.062 213.754 381.766 218.587 381.766C223.419 381.766 224.628 385.793 224.628 387.807C230.749 387.807 231.743 389.955 231.474 391.029C231.474 398.117 232.817 409.555 233.488 414.388C233.488 406.333 235.099 403.111 238.321 403.111C241.543 403.111 242.751 405.125 242.751 429.692C242.751 449.345 237.65 461.508 235.099 465.133M248.721 569.04C241.82 555.179 234.206 541.37 231.071 531.182C229.141 524.908 227.174 521.019 225.366 517.892M248.721 569.04C246.731 555.212 242.59 524.497 241.945 512.253C241.14 496.949 240.334 482.451 235.099 465.133M225.366 517.892C227.671 514.536 232.28 504.521 232.28 491.311C232.28 478.101 234.159 468.355 235.099 465.133M107.786 442.177L100.181 406.736C96.1544 393.74 89.3827 370.576 85.4798 353.574M107.786 442.177C108.876 439.223 112.485 432.069 119.11 430.9C125.956 429.692 126.359 420.832 120.318 414.388C121.124 412.105 122.01 407.219 119.11 405.93C118.841 404.319 118.707 400.775 120.318 399.486C121.929 398.198 118.304 394.653 116.291 393.042C117.315 391.847 118.992 389.663 120.077 387.651M85.4798 353.574C91.7615 355.185 100.851 365.253 104.611 370.086L105.014 376.933C109.052 377.83 113.591 379.228 116.819 380.777M116.819 380.777C119.385 382.009 121.124 383.336 121.124 384.585C121.124 385.406 120.697 386.5 120.077 387.651M120.077 387.651C129.83 409.548 144.08 452.862 144.08 499.768L148.51 503.393H154.004" stroke="url(#paint3_linear_1_376)" stroke-width="2"/>
<circle cx="293.792" cy="294.371" r="86.589" fill="url(#paint4_radial_1_376)"/>
<path fill-rule="evenodd" clip-rule="evenodd" d="M293.375 352.56C293.375 352.768 293.583 352.768 293.792 352.768H294.209C294.418 352.56 294.627 352.35 294.418 351.932C294.418 351.932 293.166 348.587 294.001 345.241C294.418 343.987 295.044 342.941 295.671 341.896C296.714 340.224 297.549 338.76 297.758 336.251C297.967 334.578 297.132 333.115 296.506 332.069C296.442 331.942 296.378 331.816 296.316 331.693C295.761 330.6 295.274 329.642 295.462 328.515C295.814 326.576 296.611 325.232 297.352 323.981C297.491 323.747 297.627 323.518 297.758 323.288C297.911 322.981 298.077 322.674 298.246 322.361C298.768 321.394 299.321 320.369 299.637 319.106C300.054 317.642 300.054 316.388 300.054 315.343C301.708 318.035 301.519 320.112 301.313 322.386L301.307 322.451C301.098 324.124 301.098 325.797 301.516 327.679C302.288 330.58 303.954 331.513 305.356 332.299C305.469 332.362 305.581 332.425 305.69 332.487C305.81 332.559 305.927 332.628 306.041 332.696C306.92 333.216 307.617 333.629 307.987 334.369C308.485 335.368 308.455 336.234 308.421 337.178C308.413 337.42 308.404 337.667 308.404 337.923C308.195 339.178 308.195 340.642 308.822 342.523C310.283 346.914 315.293 348.169 315.502 348.169C315.919 348.169 316.128 348.169 316.754 347.75C316.963 347.542 316.963 347.123 316.754 346.914C316.754 346.914 314.249 344.196 313.832 340.851C313.623 339.597 313.831 338.344 314.04 337.09L314.04 337.087C314.069 336.828 314.102 336.569 314.135 336.309C314.34 334.68 314.552 333.007 313.832 331.024C313.456 329.517 312.401 328.688 311.433 327.927C311.326 327.844 311.221 327.761 311.118 327.679C310.074 326.842 309.03 326.006 308.822 324.751C308.293 322.809 308.508 321.313 308.714 319.888C308.752 319.626 308.789 319.366 308.822 319.106C308.862 318.823 308.91 318.539 308.959 318.254C309.161 317.068 309.367 315.855 309.03 314.506C308.822 313.252 308.405 312.208 307.987 311.162C310.492 313.044 311.118 314.924 311.744 317.015C311.77 317.105 311.796 317.196 311.822 317.288C312.216 318.684 312.656 320.241 313.832 321.615C315.669 324.069 317.707 324.323 319.358 324.528C319.395 324.533 319.432 324.538 319.468 324.542C320.512 324.542 321.347 324.751 322.182 325.379C323.225 326.424 323.643 327.26 324.06 328.515C324.478 329.769 325.104 331.233 326.357 332.697C329.291 335.831 333.875 335.478 334.612 335.421C334.661 335.417 334.693 335.414 334.707 335.414C334.915 335.414 335.333 335.206 335.333 334.787C335.333 334.369 335.333 334.16 334.915 333.951C334.707 333.951 331.575 332.487 329.905 329.56C329.279 328.306 328.862 327.26 328.653 326.006C328.636 325.939 328.62 325.872 328.603 325.805C328.2 324.183 327.751 322.376 326.148 320.569C325.3 319.551 324.177 319.221 323.114 318.91C322.868 318.838 322.625 318.766 322.39 318.688C321.138 318.479 320.094 318.061 319.259 317.015C318.007 315.133 317.589 313.461 317.171 311.788C317.088 311.496 317.013 311.204 316.938 310.912C316.638 309.74 316.337 308.569 315.502 307.397C315.395 307.237 315.291 307.079 315.19 306.926C314.503 305.882 313.933 305.017 313.205 304.47C316.118 305.053 317.405 306.541 318.746 308.092C318.847 308.209 318.948 308.326 319.05 308.443C320.094 309.697 321.138 310.952 322.808 311.997C325.397 313.479 327.166 312.992 328.697 312.571C328.895 312.516 329.088 312.463 329.279 312.415C329.517 312.368 329.744 312.309 329.966 312.252C330.715 312.059 331.396 311.884 332.202 312.206C333.418 312.728 334.055 313.395 334.717 314.086C334.85 314.226 334.984 314.366 335.124 314.506C335.439 314.758 335.735 315.049 336.046 315.354C336.766 316.061 337.569 316.849 338.881 317.433C343.057 319.524 347.44 317.015 347.649 316.806C348.066 316.597 348.066 316.388 348.066 315.97C347.857 315.552 347.649 315.343 347.231 315.343C347.231 315.343 343.683 315.133 340.969 313.043C340.022 312.284 339.419 311.526 338.692 310.611C338.617 310.517 338.542 310.422 338.464 310.325C337.42 308.861 336.168 307.397 334.08 306.352C332.41 305.516 330.949 305.724 329.697 305.934C328.444 306.143 327.4 306.143 326.148 305.516C324.269 304.261 323.225 303.007 322.182 301.543C322.04 301.365 321.897 301.181 321.752 300.993C321.044 300.076 320.263 299.065 319.05 298.198C318.007 297.361 316.963 296.943 315.919 296.525C318.842 296.107 320.721 296.943 322.599 297.989C322.896 298.116 323.194 298.253 323.495 298.391C324.672 298.93 325.904 299.495 327.4 299.661C330.463 300.07 332.128 298.678 333.372 297.639C333.399 297.616 333.427 297.593 333.454 297.57C333.576 297.479 333.693 297.387 333.808 297.298C334.481 296.773 335.068 296.316 335.959 296.316C337.42 296.316 338.464 296.734 339.507 297.361C340.76 297.988 342.013 298.616 344.1 298.825C348.536 299.018 351.368 295.642 351.938 294.962C351.985 294.906 352.017 294.868 352.033 294.852C352.241 294.643 352.241 294.225 352.033 294.016C351.824 293.807 351.615 293.598 351.198 293.807C351.198 293.807 347.857 295.061 344.517 294.225C343.265 294.016 342.221 293.389 341.178 292.761C339.507 291.716 338.046 290.88 335.541 290.671C333.871 290.462 332.41 291.298 331.366 291.925C331.239 291.989 331.114 292.053 330.991 292.115C329.9 292.671 328.943 293.158 327.818 292.971C325.881 292.618 324.539 291.819 323.289 291.076C323.057 290.938 322.828 290.802 322.599 290.671C322.292 290.517 321.985 290.351 321.672 290.181C320.708 289.659 319.685 289.104 318.424 288.789C316.963 288.371 315.71 288.371 314.667 288.371C317.354 286.715 319.426 286.903 321.696 287.11L321.764 287.116C323.434 287.326 325.104 287.326 326.983 286.907C329.879 286.134 330.811 284.466 331.595 283.061C331.659 282.947 331.721 282.835 331.784 282.725C331.855 282.606 331.924 282.49 331.991 282.377C332.511 281.495 332.923 280.796 333.663 280.426C334.659 279.926 335.524 279.957 336.467 279.99C336.709 279.999 336.956 280.008 337.212 280.008C338.464 280.216 339.925 280.216 341.804 279.589C346.188 278.126 347.44 273.108 347.44 272.899C347.44 272.69 347.231 272.271 347.023 272.062C346.814 271.853 346.396 271.853 346.188 272.062C346.188 272.062 343.474 274.571 340.134 274.989C338.882 275.198 337.629 274.989 336.377 274.78C336.118 274.752 335.858 274.719 335.598 274.686C333.972 274.48 332.302 274.268 330.323 274.989C328.818 275.366 327.991 276.422 327.232 277.392C327.148 277.498 327.065 277.604 326.983 277.707C326.148 278.752 325.312 279.798 324.06 280.008C322.121 280.537 320.629 280.321 319.206 280.115C318.944 280.078 318.684 280.04 318.424 280.008C318.142 279.967 317.86 279.919 317.576 279.87C316.391 279.668 315.179 279.461 313.832 279.798C312.581 280.007 311.538 280.425 310.496 280.842L310.492 280.844C312.371 278.335 314.249 277.707 316.337 277.08C316.427 277.054 316.519 277.028 316.611 277.002C318.004 276.607 319.559 276.166 320.929 274.989C323.379 273.149 323.632 271.109 323.838 269.455C323.842 269.418 323.847 269.381 323.852 269.344C323.852 268.299 324.06 267.462 324.687 266.626C325.73 265.581 326.565 265.162 327.818 264.744C329.07 264.326 330.531 263.699 331.993 262.444C335.123 259.505 334.77 254.913 334.713 254.176C334.709 254.126 334.707 254.094 334.707 254.081C334.707 253.872 334.498 253.454 334.08 253.454C333.663 253.454 333.454 253.454 333.245 253.872C333.245 254.081 331.784 257.217 328.862 258.89C327.609 259.517 326.565 259.935 325.313 260.145C325.247 260.161 325.18 260.178 325.113 260.194C323.493 260.598 321.69 261.047 319.885 262.653C318.665 263.527 318.318 264.692 317.994 265.784C317.93 265.999 317.867 266.211 317.798 266.417C317.589 267.672 317.171 268.717 316.128 269.553C314.25 270.808 312.58 271.226 310.91 271.644C310.618 271.727 310.325 271.803 310.033 271.878C308.864 272.179 307.694 272.48 306.525 273.317C306.365 273.424 306.209 273.527 306.056 273.628C305.013 274.317 304.149 274.887 303.603 275.617C304.185 272.7 305.671 271.41 307.22 270.067C307.336 269.966 307.453 269.865 307.569 269.762C308.822 268.717 310.074 267.672 311.118 265.999C312.597 263.406 312.111 261.634 311.691 260.1C311.636 259.902 311.583 259.708 311.535 259.517C311.488 259.279 311.429 259.051 311.372 258.829C311.18 258.079 311.005 257.397 311.327 256.59C311.848 255.372 312.513 254.734 313.203 254.072C313.342 253.938 313.483 253.803 313.623 253.663C313.875 253.348 314.164 253.051 314.469 252.74C315.175 252.018 315.962 251.214 316.545 249.899C318.633 245.718 316.128 241.327 315.919 241.118C315.71 240.7 315.502 240.7 315.084 240.7C314.666 240.909 314.458 241.118 314.458 241.536C314.458 241.536 314.249 245.09 312.162 247.809C311.404 248.757 310.647 249.361 309.733 250.09C309.64 250.164 309.545 250.24 309.448 250.318C307.987 251.363 306.525 252.617 305.482 254.708C304.647 256.381 304.856 257.845 305.064 259.099C305.273 260.354 305.273 261.399 304.647 262.653C303.394 264.535 302.142 265.581 300.68 266.626C300.503 266.768 300.319 266.911 300.132 267.056C299.217 267.765 298.207 268.548 297.34 269.762C296.506 270.808 296.088 271.853 295.671 272.899C295.253 269.971 296.088 268.09 297.132 266.208C297.259 265.91 297.395 265.612 297.533 265.311C298.072 264.131 298.636 262.898 298.802 261.399C299.21 258.331 297.821 256.664 296.783 255.418C296.76 255.391 296.737 255.363 296.714 255.336C296.623 255.214 296.532 255.096 296.442 254.981C295.919 254.307 295.462 253.719 295.462 252.827C295.462 251.363 295.879 250.318 296.506 249.272C297.132 248.018 297.758 246.763 297.967 244.672C298.159 240.43 294.801 237.611 294.114 237.034C294.056 236.985 294.017 236.952 294.001 236.936C293.792 236.727 293.375 236.727 293.166 236.936C292.957 237.145 292.748 237.355 292.957 237.773C292.957 237.773 294.209 241.118 293.375 244.463C292.957 245.716 292.332 246.761 291.707 247.805L291.704 247.809C290.661 249.481 289.825 250.945 289.617 253.454C289.408 255.127 290.243 256.59 290.869 257.635C290.933 257.762 290.996 257.887 291.058 258.01C291.614 259.103 292.101 260.062 291.913 261.19C291.561 263.129 290.764 264.474 290.022 265.725C289.884 265.958 289.748 266.188 289.617 266.417C289.463 266.725 289.297 267.032 289.128 267.346C288.606 268.312 288.053 269.336 287.738 270.599C287.321 272.062 287.321 273.317 287.321 274.362C285.667 271.67 285.855 269.593 286.062 267.319L286.068 267.253C286.277 265.581 286.277 263.908 285.859 262.026C285.087 259.125 283.422 258.192 282.02 257.407C281.906 257.343 281.794 257.28 281.684 257.217C281.565 257.146 281.449 257.077 281.336 257.01C280.456 256.489 279.758 256.076 279.388 255.336C278.89 254.337 278.92 253.472 278.954 252.528C278.962 252.285 278.971 252.037 278.971 251.781C279.18 250.527 279.18 249.063 278.553 247.181C277.092 242.791 272.082 241.536 271.873 241.536C271.665 241.536 271.247 241.745 271.038 241.954C270.83 242.163 270.83 242.582 271.038 242.791C271.038 242.791 273.543 245.509 273.961 248.854C274.17 250.108 273.961 251.363 273.752 252.617C273.723 252.877 273.69 253.136 273.658 253.397C273.452 255.026 273.241 256.698 273.961 258.681C274.337 260.188 275.391 261.016 276.359 261.777C276.466 261.861 276.571 261.943 276.675 262.026C277.718 262.863 278.762 263.699 278.971 264.953C279.5 266.895 279.284 268.39 279.079 269.816C279.041 270.078 279.003 270.338 278.971 270.599C278.931 270.882 278.882 271.164 278.834 271.449C278.632 272.636 278.425 273.849 278.762 275.198C278.971 276.453 279.388 277.499 279.806 278.544C277.301 276.662 276.675 274.78 276.048 272.69C276.023 272.599 275.997 272.507 275.971 272.415C275.576 271.019 275.136 269.462 273.961 268.09C272.123 265.636 270.086 265.382 268.435 265.176C268.398 265.172 268.361 265.167 268.325 265.162C267.281 265.162 266.446 264.953 265.611 264.326C264.567 263.281 264.15 262.444 263.732 261.19C263.315 259.935 262.688 258.472 261.436 257.008C258.501 253.873 253.917 254.227 253.181 254.284C253.131 254.288 253.099 254.29 253.086 254.29C252.877 254.29 252.46 254.499 252.46 254.917C252.251 255.336 252.46 255.545 252.877 255.754C252.877 255.754 256.008 257.217 257.678 259.308C258.305 260.563 258.722 261.608 258.931 262.863C258.948 262.929 258.964 262.996 258.981 263.063C259.384 264.685 259.832 266.492 261.436 268.299C262.308 269.522 263.472 269.869 264.561 270.194C264.776 270.258 264.987 270.321 265.193 270.39C266.446 270.599 267.49 271.017 268.325 272.062C269.577 273.944 269.994 275.616 270.412 277.289C270.495 277.581 270.571 277.875 270.646 278.167C270.946 279.338 271.247 280.509 272.082 281.68C272.189 281.84 272.292 281.997 272.393 282.151C273.081 283.195 273.65 284.06 274.378 284.607C271.466 284.024 270.179 282.536 268.837 280.985C268.736 280.868 268.635 280.752 268.533 280.635C267.49 279.381 266.445 278.125 264.776 277.08C262.187 275.599 260.418 276.086 258.887 276.507C258.689 276.561 258.496 276.614 258.305 276.662C258.067 276.71 257.839 276.768 257.618 276.825C256.869 277.018 256.188 277.194 255.382 276.871C254.166 276.349 253.528 275.682 252.867 274.991C252.734 274.852 252.6 274.712 252.46 274.571C252.145 274.319 251.849 274.029 251.538 273.723C250.817 273.016 250.014 272.228 248.702 271.644C244.527 269.553 240.144 272.062 239.935 272.271C239.517 272.48 239.517 272.69 239.517 273.108C239.726 273.526 239.935 273.735 240.352 273.735C240.352 273.735 243.901 273.944 246.615 276.035C247.562 276.793 248.165 277.552 248.892 278.467C248.967 278.561 249.042 278.656 249.12 278.753C250.164 280.216 251.416 281.68 253.503 282.725C255.173 283.562 256.635 283.353 257.887 283.144C259.14 282.935 260.183 282.935 261.436 283.562C263.315 284.816 264.358 286.071 265.402 287.534C265.544 287.712 265.686 287.897 265.832 288.085C266.54 289.001 267.321 290.013 268.533 290.88C269.577 291.716 270.621 292.134 271.665 292.552C268.742 292.971 266.863 292.134 264.985 291.089C264.687 290.961 264.39 290.825 264.089 290.687C262.911 290.147 261.68 289.583 260.183 289.416C257.121 289.007 255.456 290.399 254.212 291.438C254.185 291.461 254.157 291.484 254.13 291.507C254.008 291.599 253.89 291.69 253.776 291.78C253.103 292.304 252.516 292.761 251.625 292.761C250.164 292.761 249.12 292.344 248.076 291.716C246.824 291.089 245.571 290.462 243.484 290.252C239.047 290.059 236.214 293.437 235.645 294.116C235.598 294.172 235.567 294.209 235.551 294.225C235.342 294.434 235.342 294.852 235.551 295.061C235.76 295.27 235.969 295.48 236.386 295.27C236.386 295.27 239.726 294.016 243.066 294.852C244.319 295.061 245.362 295.689 246.406 296.316C248.076 297.361 249.537 298.198 252.042 298.407C253.712 298.616 255.173 297.78 256.217 297.152C256.416 297.052 256.605 296.953 256.787 296.856C257.751 296.347 258.537 295.931 259.766 296.107C261.702 296.459 263.045 297.258 264.294 298.001C264.526 298.139 264.756 298.276 264.985 298.407C265.292 298.561 265.599 298.727 265.912 298.897C266.876 299.419 267.899 299.973 269.16 300.289C270.621 300.707 271.873 300.707 272.917 300.707C270.23 302.363 268.157 302.174 265.888 301.967L265.82 301.961C264.15 301.752 262.48 301.752 260.601 302.17C257.705 302.944 256.773 304.612 255.989 306.016C255.925 306.13 255.862 306.242 255.8 306.352C255.728 306.471 255.66 306.588 255.593 306.701C255.073 307.583 254.661 308.282 253.921 308.652C252.924 309.151 252.06 309.121 251.117 309.087C250.875 309.079 250.628 309.07 250.372 309.07C249.12 308.861 247.659 308.861 245.78 309.488C241.396 310.952 240.144 315.97 240.144 316.179C240.144 316.388 240.352 316.806 240.561 317.015C240.77 317.224 241.187 317.224 241.396 317.015C241.396 317.015 244.11 314.506 247.45 314.088C248.702 313.879 249.955 314.088 251.207 314.297C251.466 314.326 251.726 314.359 251.986 314.392C253.612 314.598 255.282 314.809 257.261 314.088C258.766 313.711 259.592 312.656 260.352 311.686C260.436 311.579 260.518 311.473 260.601 311.37C261.436 310.325 262.271 309.279 263.523 309.07C265.462 308.54 266.955 308.756 268.378 308.962C268.64 309 268.9 309.037 269.16 309.07C269.442 309.11 269.724 309.159 270.008 309.207C271.193 309.409 272.405 309.616 273.752 309.279C275.003 309.07 276.046 308.653 277.089 308.235L277.092 308.234C275.213 310.743 273.335 311.37 271.247 311.997C271.156 312.023 271.065 312.049 270.973 312.075C269.579 312.47 268.025 312.911 266.655 314.088C264.204 315.929 263.951 317.969 263.746 319.623C263.741 319.66 263.737 319.697 263.732 319.733C263.732 320.779 263.523 321.615 262.897 322.451C261.853 323.497 261.018 323.915 259.766 324.333C258.513 324.751 257.052 325.379 255.591 326.633C252.461 329.572 252.814 334.164 252.871 334.902C252.875 334.951 252.877 334.983 252.877 334.996C252.877 335.206 253.086 335.624 253.503 335.624C253.921 335.624 254.13 335.624 254.338 335.206C254.338 334.996 255.8 331.86 258.722 330.188C259.975 329.56 261.018 329.142 262.271 328.933C262.337 328.916 262.404 328.9 262.471 328.883C264.09 328.479 265.894 328.03 267.698 326.424C268.919 325.55 269.266 324.385 269.59 323.294C269.654 323.079 269.717 322.867 269.786 322.661C269.995 321.406 270.412 320.361 271.456 319.524C273.335 318.27 275.005 317.852 276.675 317.433C276.967 317.35 277.26 317.274 277.552 317.199C278.721 316.898 279.89 316.597 281.058 315.761C281.219 315.653 281.377 315.549 281.53 315.448C282.572 314.76 283.435 314.19 283.981 313.461C283.398 316.378 281.912 317.667 280.364 319.011C280.248 319.112 280.131 319.213 280.015 319.315C278.762 320.361 277.51 321.406 276.466 323.078C274.987 325.671 275.473 327.444 275.893 328.977C275.948 329.175 276.001 329.369 276.048 329.56C276.096 329.799 276.154 330.026 276.211 330.248C276.404 330.998 276.579 331.68 276.257 332.487C275.736 333.706 275.07 334.345 274.379 335.007C274.241 335.14 274.101 335.274 273.961 335.414C273.709 335.73 273.419 336.026 273.114 336.338C272.408 337.059 271.621 337.864 271.038 339.178C268.951 343.36 271.456 347.75 271.665 347.959C271.873 348.378 272.082 348.378 272.5 348.378C272.917 348.378 273.126 348.169 273.126 347.75C273.126 347.75 273.335 344.196 275.422 341.478C276.179 340.53 276.937 339.926 277.849 339.198C277.943 339.123 278.039 339.047 278.136 338.969C279.597 337.923 281.058 336.669 282.102 334.578C282.937 332.905 282.728 331.442 282.52 330.188C282.311 328.933 282.311 327.888 282.937 326.633C284.189 324.751 285.442 323.706 286.903 322.661C287.08 322.519 287.264 322.377 287.451 322.231C288.366 321.522 289.377 320.739 290.243 319.524C291.078 318.479 291.496 317.433 291.913 316.388C292.33 319.315 291.496 321.197 290.452 323.078C290.325 323.376 290.189 323.673 290.051 323.974C289.512 325.154 288.948 326.388 288.782 327.888C288.373 330.956 289.763 332.623 290.801 333.869C290.824 333.896 290.847 333.924 290.869 333.951C290.961 334.073 291.052 334.19 291.141 334.305C291.665 334.979 292.122 335.567 292.122 336.46C292.122 337.923 291.704 338.969 291.078 340.014L291.077 340.017C290.451 341.271 289.825 342.525 289.617 344.614C289.23 349.066 292.6 351.905 293.269 352.468C293.323 352.513 293.359 352.544 293.375 352.56ZM290.052 314.671C288.366 314.369 286.755 313.853 285.245 313.154C284.599 317.413 282.574 319.252 280.642 321.006C280.572 321.07 280.502 321.133 280.432 321.197C280.379 321.241 280.326 321.285 280.274 321.329C279.091 322.314 278.1 323.14 277.301 324.542C276.048 326.633 276.466 328.096 277.092 329.769C277.51 331.024 277.927 332.278 277.301 333.742C276.675 335.414 275.631 336.46 274.587 337.296C274.425 337.459 274.254 337.622 274.079 337.789C273.354 338.482 272.546 339.254 271.873 340.432C271.038 342.105 271.247 343.778 271.456 345.033C271.873 343.778 272.5 342.105 273.543 340.851C274.378 339.596 275.422 338.76 276.466 338.133C277.927 337.087 279.18 336.042 280.015 334.16C280.641 333.115 280.432 331.86 280.223 330.815C280.015 329.351 279.806 327.679 280.849 326.215C282.311 323.915 283.772 322.87 285.233 321.824C286.486 320.988 287.529 320.151 288.156 319.106C289.386 317.257 289.823 315.863 290.052 314.671ZM283.128 312.013C281.647 311.095 280.296 309.988 279.108 308.725C276.927 312.43 274.487 313.296 272.034 314.166C271.911 314.209 271.788 314.253 271.665 314.297C270.204 314.715 268.741 315.134 267.49 316.179C265.611 317.642 265.402 319.106 265.193 320.779C265.159 320.988 265.13 321.197 265.101 321.406C264.956 322.451 264.811 323.497 263.941 324.542C262.688 325.797 261.436 326.424 260.183 326.842C260.048 326.897 259.909 326.951 259.766 327.007C258.811 327.38 257.697 327.814 256.426 328.724C254.965 329.978 254.547 331.442 254.338 332.905C255.173 331.86 256.426 330.606 257.887 329.769C258.826 329.142 259.766 328.868 260.705 328.593C261.018 328.502 261.331 328.41 261.645 328.306C263.315 327.888 264.985 327.469 266.446 326.215C267.281 325.379 267.698 324.333 267.907 323.078C268.325 321.615 268.742 320.151 270.203 318.897C272.291 317.433 274.17 317.015 276.048 316.597C276.316 316.521 276.576 316.451 276.829 316.384C277.961 316.082 278.953 315.817 279.806 315.133C281.401 314.117 282.392 313.1 283.128 312.013ZM277.575 306.888C276.543 305.49 275.69 303.952 275.049 302.308C271.447 305.041 268.579 304.835 266.028 304.47C264.567 304.261 263.106 304.261 261.436 304.679C259.14 305.307 258.305 306.77 257.678 308.025C257.62 308.122 257.562 308.22 257.504 308.32C256.929 309.297 256.29 310.383 254.965 310.952C253.577 311.647 252.477 311.62 251.306 311.591C251.068 311.585 250.828 311.579 250.581 311.579C250.334 311.579 250.087 311.571 249.836 311.563C248.818 311.529 247.746 311.494 246.406 311.997C244.736 312.624 243.484 313.879 242.857 314.924C244.11 314.297 245.571 313.67 247.241 313.461C248.61 313.265 249.796 313.436 251.142 313.63C251.233 313.643 251.324 313.657 251.416 313.67C253.086 313.879 254.756 314.088 256.635 313.461C257.678 313.043 258.513 312.206 259.14 311.161C259.975 309.906 261.018 308.652 262.897 308.234C265.099 307.682 266.978 307.939 268.534 308.151C268.749 308.18 268.957 308.209 269.16 308.234C269.252 308.247 269.343 308.26 269.433 308.273C270.779 308.467 271.965 308.639 273.335 308.443C275.306 308.02 276.613 307.501 277.575 306.888ZM274.263 299.82C273.89 298.295 273.692 296.702 273.692 295.061C273.692 294.775 273.698 294.49 273.71 294.206C269.339 295.335 266.953 294.048 264.567 292.761C264.169 292.591 263.787 292.404 263.407 292.219C262.393 291.725 261.399 291.241 260.183 291.089C257.832 290.696 256.768 291.593 255.611 292.569C255.535 292.633 255.459 292.697 255.382 292.761C254.338 293.598 253.295 294.434 251.834 294.434C250.182 294.434 249.015 293.95 248.048 293.549C247.915 293.493 247.785 293.44 247.659 293.389C246.615 292.761 245.362 292.344 243.692 292.134C242.022 291.925 240.352 292.761 239.309 293.598C239.824 293.672 240.366 293.719 240.924 293.769C241.948 293.859 243.029 293.955 244.11 294.225C245.276 294.559 246.176 295.025 247.128 295.519C247.369 295.644 247.614 295.771 247.867 295.898C249.329 296.943 250.581 297.78 252.669 297.78C253.921 297.78 254.756 297.361 255.8 296.734C255.895 296.686 255.991 296.637 256.089 296.588C257.277 295.986 258.656 295.286 260.392 295.48C262.897 295.898 264.567 296.943 266.028 297.989C267.281 298.825 268.325 299.452 269.786 299.661C271.629 300.087 272.991 300.031 274.263 299.82ZM273.943 291.888C274.234 290.068 274.771 288.33 275.519 286.71C271.268 286.063 269.432 284.034 267.68 282.099C267.616 282.029 267.553 281.959 267.49 281.889C267.446 281.837 267.403 281.785 267.36 281.733C266.375 280.548 265.55 279.554 264.15 278.753C262.062 277.499 260.601 277.917 258.931 278.544C257.887 279.171 256.635 279.589 255.173 279.171C253.503 278.544 252.46 277.499 251.625 276.453C251.463 276.291 251.3 276.12 251.133 275.945C250.442 275.218 249.671 274.409 248.494 273.735C246.824 272.899 245.154 273.108 243.901 273.317C245.154 273.735 246.824 274.362 248.076 275.408C249.329 276.244 250.164 277.289 250.79 278.335C251.834 279.798 252.877 281.053 254.756 281.889C255.8 282.516 257.052 282.307 258.096 282.098C259.557 281.889 261.227 281.68 262.688 282.725C264.985 284.189 266.028 285.653 267.072 287.116C267.907 288.371 268.742 289.416 269.786 290.043C271.494 291.184 272.813 291.644 273.943 291.888ZM276.659 284.589C277.575 283.107 278.681 281.753 279.941 280.563C276.242 278.378 275.378 275.934 274.509 273.478C274.466 273.354 274.422 273.231 274.378 273.108C273.961 271.644 273.543 270.18 272.5 268.926C271.038 267.044 269.577 266.835 267.907 266.626C267.698 266.591 267.49 266.562 267.281 266.533C266.237 266.388 265.193 266.243 264.15 265.372C262.897 264.117 262.271 262.863 261.853 261.608C261.799 261.472 261.745 261.333 261.689 261.19C261.317 260.233 260.883 259.118 259.975 257.845C258.722 256.381 257.261 255.963 255.8 255.754C256.843 256.59 258.096 257.845 258.931 259.308C259.557 260.249 259.831 261.19 260.105 262.131C260.196 262.444 260.288 262.758 260.392 263.072C260.81 264.744 261.227 266.417 262.48 267.881C263.315 268.717 264.358 269.135 265.611 269.344C267.072 269.762 268.533 270.181 269.786 271.644C271.247 273.735 271.665 275.617 272.082 277.499C272.159 277.767 272.228 278.028 272.296 278.282C272.597 279.415 272.861 280.408 273.543 281.262C274.558 282.86 275.573 283.852 276.659 284.589ZM281.776 279.027C283.171 277.994 284.706 277.14 286.348 276.498C283.62 272.89 283.825 270.017 284.189 267.462C284.398 265.999 284.398 264.535 283.981 262.863C283.354 260.563 281.893 259.726 280.641 259.099C280.544 259.041 280.445 258.983 280.346 258.924C279.37 258.348 278.286 257.709 277.718 256.381C277.019 254.98 277.052 253.726 277.081 252.618C277.087 252.403 277.092 252.194 277.092 251.99C277.092 251.743 277.1 251.495 277.108 251.244C277.142 250.224 277.177 249.151 276.675 247.809C276.048 246.136 274.796 244.881 273.752 244.254C274.378 245.509 275.005 246.972 275.213 248.645C275.409 250.017 275.238 251.205 275.044 252.554C275.031 252.644 275.018 252.735 275.005 252.827C274.796 254.499 274.587 256.172 275.213 258.054C275.631 259.099 276.466 259.935 277.51 260.563C278.762 261.399 280.015 262.444 280.432 264.326C280.982 266.531 280.727 268.413 280.515 269.972C280.485 270.187 280.457 270.396 280.432 270.599C280.419 270.691 280.406 270.782 280.392 270.873C280.199 272.221 280.028 273.409 280.223 274.78C280.646 276.755 281.163 278.064 281.776 279.027ZM288.832 275.711C288.621 274.436 288.565 273.072 288.991 271.226C289.199 269.762 289.825 268.717 290.661 267.462C291.704 265.999 292.748 264.326 293.166 261.817C293.359 260.078 292.66 258.697 292.059 257.507C292.01 257.409 291.961 257.313 291.913 257.217C291.287 256.172 290.869 255.336 290.869 254.081C290.869 251.99 291.704 250.736 293.166 249.272C293.293 249.017 293.42 248.771 293.545 248.528C294.038 247.576 294.503 246.675 294.835 245.509C295.253 243.627 295.253 241.954 295.044 240.7C295.879 241.745 296.714 243.209 296.506 245.09C296.297 246.763 295.879 248.018 295.253 249.063C295.202 249.19 295.149 249.32 295.093 249.453C294.693 250.422 294.209 251.591 294.209 253.245C294.209 254.708 295.044 255.754 295.879 256.799C295.943 256.876 296.007 256.952 296.071 257.028C297.046 258.187 297.941 259.253 297.549 261.608C297.397 262.825 296.914 263.821 296.421 264.837C296.236 265.217 296.05 265.6 295.879 265.999C294.595 268.388 293.31 270.778 294.437 275.157C294.154 275.145 293.869 275.139 293.583 275.139C291.946 275.139 290.354 275.337 288.832 275.711ZM296.752 275.39C298.665 275.697 300.488 276.277 302.178 277.09C302.871 273.041 304.847 271.248 306.734 269.534C306.804 269.471 306.873 269.408 306.943 269.344C306.996 269.3 307.048 269.257 307.1 269.213C308.283 268.227 309.274 267.401 310.074 265.999C311.327 263.908 310.909 262.444 310.283 260.772C309.866 259.517 309.448 258.263 310.074 256.799C310.074 255.09 310.935 254.243 311.875 253.319C311.97 253.226 312.066 253.132 312.162 253.036C312.324 252.873 312.494 252.711 312.669 252.544C313.394 251.851 314.203 251.079 314.875 249.899C315.71 248.227 315.502 246.554 315.293 245.3C314.875 246.554 314.249 248.227 313.205 249.481C312.371 250.736 311.327 251.572 310.283 252.199C308.822 253.245 307.569 254.29 306.734 256.172C306.108 257.217 306.317 258.472 306.525 259.517C306.734 260.981 306.943 262.653 305.899 264.117C304.438 266.417 302.977 267.462 301.516 268.508C300.263 269.344 299.219 270.18 298.593 271.226C297.455 272.937 296.995 274.258 296.752 275.39ZM304.385 278.33C305.845 279.277 307.174 280.412 308.337 281.699C310.5 278.092 312.914 277.236 315.341 276.375C315.464 276.332 315.587 276.288 315.71 276.244C317.171 275.826 318.633 275.408 319.885 274.362C321.764 272.899 321.973 271.435 322.182 269.762C322.217 269.553 322.245 269.344 322.274 269.135C322.419 268.09 322.564 267.044 323.434 265.999C324.687 264.744 325.939 264.117 327.192 263.699C327.327 263.645 327.466 263.59 327.609 263.535C328.564 263.162 329.677 262.727 330.949 261.817C332.41 260.563 332.828 259.099 333.036 257.635C332.202 258.681 330.949 259.935 329.488 260.772C328.549 261.399 327.609 261.673 326.67 261.948C326.357 262.039 326.044 262.131 325.73 262.235C324.06 262.653 322.39 263.072 320.929 264.326C320.094 265.162 319.676 266.208 319.468 267.462C319.05 268.926 318.633 270.39 317.171 271.644C315.084 273.108 313.205 273.526 311.327 273.944C311.059 274.021 310.798 274.09 310.544 274.158C309.413 274.46 308.421 274.725 307.569 275.408C306.071 276.362 305.106 277.317 304.385 278.33ZM309.864 283.613C310.864 285.037 311.682 286.598 312.286 288.263C315.907 285.499 318.787 285.705 321.347 286.071C322.808 286.28 324.269 286.28 325.939 285.862C328.235 285.234 329.07 283.771 329.697 282.516C329.755 282.42 329.813 282.321 329.871 282.221C330.446 281.244 331.084 280.158 332.41 279.589C333.809 278.889 335.061 278.922 336.167 278.951C336.382 278.957 336.591 278.962 336.794 278.962C337.041 278.962 337.288 278.97 337.539 278.979C338.557 279.012 339.628 279.047 340.969 278.544C342.639 277.917 343.891 276.662 344.517 275.617C343.265 276.244 341.804 276.871 340.134 277.08C338.764 277.276 337.577 277.105 336.23 276.91C336.14 276.897 336.05 276.884 335.959 276.871C334.289 276.662 332.619 276.453 330.74 277.08C329.697 277.499 328.862 278.335 328.235 279.38C327.4 280.635 326.357 281.889 324.478 282.307C322.276 282.859 320.397 282.602 318.841 282.39C318.626 282.361 318.418 282.333 318.216 282.307C318.124 282.294 318.032 282.281 317.942 282.268C316.596 282.074 315.41 281.902 314.04 282.098C312.112 282.512 310.82 283.017 309.864 283.613ZM313.004 290.739C313.312 292.131 313.474 293.577 313.474 295.061C313.474 295.367 313.467 295.671 313.453 295.973C317.96 294.747 320.384 296.054 322.808 297.361C323.206 297.532 323.588 297.719 323.968 297.904C324.982 298.398 325.976 298.882 327.192 299.034C329.543 299.427 330.607 298.529 331.764 297.553C331.84 297.49 331.916 297.426 331.993 297.361C333.036 296.525 334.08 295.689 335.541 295.689C337.191 295.689 338.358 296.173 339.325 296.573C339.459 296.629 339.589 296.683 339.716 296.734C340.76 297.361 342.012 297.78 343.683 297.989C345.353 298.198 347.023 297.361 348.066 296.525C346.814 296.734 345.144 296.734 343.474 296.316C342.309 295.983 341.41 295.517 340.459 295.024C340.217 294.898 339.971 294.771 339.716 294.643C338.256 293.807 336.793 292.971 334.707 292.761C333.454 292.761 332.619 293.18 331.575 293.807C331.48 293.855 331.384 293.903 331.287 293.953C330.099 294.555 328.719 295.255 326.983 295.061C324.478 294.643 322.808 293.598 321.347 292.552C320.094 291.716 319.05 291.089 317.589 290.88C315.694 290.442 314.308 290.513 313.004 290.739ZM313.229 298.194C312.963 299.883 312.485 301.502 311.822 303.023C315.95 303.698 317.759 305.697 319.486 307.606C319.55 307.676 319.613 307.746 319.676 307.816C319.721 307.869 319.765 307.922 319.809 307.975C320.793 309.159 321.618 310.151 323.016 310.952C325.104 312.206 326.565 311.788 328.235 311.161C329.487 310.743 330.741 310.325 332.202 310.952C333.871 311.579 334.915 312.624 335.75 313.67C335.913 313.832 336.075 314.003 336.242 314.178C336.934 314.905 337.704 315.714 338.881 316.388C340.552 317.224 342.221 317.015 343.474 316.806C342.221 316.388 340.552 315.761 339.299 314.715C338.046 313.879 337.212 312.834 336.585 311.788C335.541 310.325 334.498 309.07 332.619 308.234C331.575 307.606 330.323 307.816 329.279 308.025C327.818 308.234 326.148 308.443 324.687 307.397C322.39 305.934 321.347 304.47 320.303 303.007C319.468 301.752 318.633 300.707 317.589 300.079C315.778 298.87 314.404 298.426 313.229 298.194ZM310.686 305.239C309.799 306.731 308.724 308.097 307.492 309.303C310.967 311.446 311.81 313.831 312.657 316.227C312.701 316.35 312.744 316.474 312.788 316.597C313.205 318.061 313.623 319.524 314.666 320.779C316.128 322.661 317.589 322.87 319.259 323.078C319.468 323.113 319.677 323.142 319.886 323.172C320.93 323.317 321.973 323.462 323.016 324.333C324.269 325.587 324.895 326.842 325.313 328.096C325.367 328.232 325.421 328.371 325.477 328.514C325.849 329.471 326.283 330.586 327.192 331.86C328.444 333.324 329.905 333.742 331.366 333.951C330.323 333.115 329.07 331.86 328.235 330.397C327.609 329.456 327.335 328.515 327.061 327.575C326.97 327.261 326.879 326.947 326.774 326.633C326.357 324.96 325.939 323.288 324.687 321.824C323.852 320.988 322.808 320.569 321.555 320.361C320.094 319.942 318.633 319.524 317.38 318.061C315.919 315.97 315.502 314.088 315.084 312.207C315.008 311.938 314.938 311.676 314.87 311.422C314.569 310.289 314.305 309.296 313.623 308.443C312.663 306.933 311.704 305.964 310.686 305.239ZM305.565 310.965C304.19 312.006 302.676 312.872 301.056 313.53C303.534 316.987 303.33 319.765 302.977 322.242C302.768 323.706 302.768 325.17 303.185 326.842C303.812 329.142 305.273 329.978 306.525 330.606C306.622 330.664 306.721 330.722 306.821 330.781C307.796 331.356 308.88 331.996 309.448 333.324C310.147 334.725 310.114 335.979 310.085 337.087C310.08 337.302 310.074 337.511 310.074 337.715C310.074 337.962 310.066 338.21 310.058 338.46C310.024 339.48 309.989 340.554 310.492 341.896C311.118 343.569 312.371 344.823 313.414 345.45C312.788 344.196 312.162 342.733 311.953 341.06C311.757 339.689 311.928 338.5 312.122 337.152C312.135 337.062 312.148 336.97 312.162 336.878C312.371 335.206 312.579 333.533 311.953 331.651C311.535 330.606 310.7 329.769 309.657 329.142C308.404 328.306 307.152 327.26 306.734 325.379C306.184 323.174 306.439 321.293 306.651 319.734C306.68 319.519 306.709 319.309 306.734 319.106C306.747 319.015 306.76 318.924 306.773 318.834C306.967 317.485 307.139 316.297 306.943 314.924C306.561 313.14 306.102 311.899 305.565 310.965ZM298.395 314.397C298.551 315.559 298.556 316.826 298.175 318.479C297.967 319.942 297.34 320.988 296.506 322.242C295.462 323.706 294.418 325.379 294.001 327.888C293.808 329.626 294.506 331.008 295.107 332.198C295.157 332.296 295.205 332.392 295.253 332.487C295.879 333.533 296.297 334.369 296.297 335.624C296.088 337.714 295.254 339.177 294.419 340.64C294.293 340.893 294.165 341.14 294.04 341.382C293.547 342.336 293.081 343.237 292.748 344.405C292.33 346.078 292.33 347.75 292.539 349.005C291.704 347.959 290.869 346.496 291.078 344.614C291.287 342.941 291.704 341.687 292.33 340.642C292.381 340.515 292.435 340.385 292.49 340.251C292.891 339.283 293.375 338.113 293.375 336.46C293.375 334.996 292.539 333.951 291.704 332.905C291.64 332.829 291.576 332.753 291.513 332.677C290.538 331.518 289.642 330.452 290.034 328.096C290.186 326.88 290.67 325.884 291.163 324.868C291.348 324.488 291.534 324.105 291.704 323.706C292.946 321.396 294.188 319.087 293.252 314.981C293.362 314.983 293.473 314.984 293.583 314.984C295.242 314.984 296.854 314.781 298.395 314.397Z" fill="#FFDEC9"/>
<defs>
<radialGradient id="paint0_radial_1_376" cx="0" cy="0" r="1" gradientUnits="userSpaceOnUse" gradientTransform="translate(295 294.774) rotate(90) scale(294)">
<stop stop-color="#351F11"/>
<stop offset="1" stop-color="#351F11" stop-opacity="0"/>
</radialGradient>
<linearGradient id="paint1_linear_1_376" x1="131.551" y1="330.215" x2="131.551" y2="691.473" gradientUnits="userSpaceOnUse">
<stop stop-color="#5E402C"/>
<stop offset="1" stop-color="#0C0B0B"/>
</linearGradient>
<linearGradient id="paint2_linear_1_376" x1="131.551" y1="330.215" x2="131.551" y2="691.473" gradientUnits="userSpaceOnUse">
<stop stop-color="#5E402C"/>
<stop offset="1" stop-color="#0C0B0B"/>
</linearGradient>
<linearGradient id="paint3_linear_1_376" x1="131.551" y1="330.215" x2="131.551" y2="691.473" gradientUnits="userSpaceOnUse">
<stop offset="0.671875" stop-color="#BD7B4F"/>
<stop offset="1" stop-color="#0C0B0B"/>
</linearGradient>
<radialGradient id="paint4_radial_1_376" cx="0" cy="0" r="1" gradientUnits="userSpaceOnUse" gradientTransform="translate(293.792 294.371) rotate(90) scale(86.589)">
<stop stop-color="#BD7B4F" stop-opacity="0.48"/>
<stop offset="1" stop-color="#BD7B4F" stop-opacity="0"/>
</radialGradient>
</defs>
</svg>
