<svg width="1440" height="1035" viewBox="0 0 1440 1035" fill="none" xmlns="http://www.w3.org/2000/svg">
<path d="M944.51 717.486L978.906 750.039M985.037 669.458L1082.62 735.096M896.517 756.709L964.241 857.036M841.855 787.93L875.718 864.774M878.115 871.176L881.849 879.181M1014.1 784.725L1081.03 853.565M1038.9 493.18H1199.59M1265.01 493.18H1425.7M1239.76 493.18H1258.25M1031.43 553.66L1199.94 589.587M1014.72 613.069L1103.6 650.073M1110.36 652.917L1125.64 658.961M1168.3 677.462L1274.25 722.288M1241.9 598.125L1279.23 605.244M1391.66 627.036L1424.46 633.437M1353.88 755.735L1457.34 798.78M1277.81 865.307L1357.44 916.895M1365.97 922.233L1384.1 934.33M1119.6 758.936L1209.19 819.413M1115.33 887.721L1159.06 930.771M1193.55 967.059L1283.49 1056M990.192 896.975L1053.12 990.895M898.111 923.301L935.795 1014.02M782.216 805.18L807.811 929.703M720.353 809.81V892.35M658.672 803.671L628.276 953.094M533.09 947.22L508.824 1007.52M599.749 786.594L548.019 910.4M544.553 756.175L520.287 791.396M491.41 833.998L377.289 1010.1M307.781 905.062L239.521 973.905M495.76 716.151L341.375 872.777M457.096 668.923L371.24 728.958M216.591 827.951L92.6066 913.336M140.33 732.254L62.1192 765.161M18.9269 782.953L-15.9173 798.602M428.832 613.424L263.878 681.733M409.634 554.368L336.756 569.308M250.012 585.676L209.838 594.214M163.974 603.11L107.448 614.494M61.5828 624.097L-60.0026 647.935M-76 493.179H24.6133M73.3167 493.18H266.006M313.647 493.18H402.525M408.572 430.56L344.579 417.404M300.846 409.213L208.771 391.072M154.731 379.688L95.0055 368.307M50.207 358.702L13.238 352.3M-15.2113 186.508L51.6332 214.972M172.86 265.847L275.249 308.18M318.624 327.037L427.412 371.149M293.025 205.717L457.63 317.429M113.495 85.1143L252.499 179.034M57.3176 48.8309L73.3171 59.5025M207.701 -19.8355L250.364 20.7209M282.716 54.5223L328.579 97.9232M421.367 192.912L496.025 266.553M278.45 -170.322L542.953 224.577M423.767 -226L599.125 197.542M632.189 53.8042L657.786 180.459M720.801 101.394V175.836M720.801 16.007V55.2293M720.801 -56.5658V6.67062M799.193 98.1891L782.394 181.169M896.518 66.4376L841.589 199.849M972.77 114.465L896.779 229.2M1035.7 176.904L945.307 266.823M1053.3 270.29L985.572 316.984M1122.62 325.789L1014.37 371.149M1273.89 382.532L1031.43 430.56M1318.33 373.991L1500 336.997M1230.88 280.789L1341.08 235.962M1386.59 216.752L1456.99 187.216M1092.23 243.075L1158.71 201.098M1195.68 175.126L1228.03 154.135M1384.11 48.1209L1332.55 82.9804M1282.07 -70.3538L1210.61 2.2227M1204.21 8.26676L1188.93 24.2762M1183.24 28.1915L1126.36 86.8927M1116.76 95.4307L1068.4 143.815" stroke="#BD7B4F" stroke-width="2" stroke-miterlimit="10" stroke-linecap="round" stroke-linejoin="round"/>
<path d="M149.617 514.168L147.953 555.164L142.867 588.527L133.422 641.695C133.422 641.695 124.812 683.137 122.312 692.082C119.812 701.027 118.258 702.859 117.367 705.75C116.477 708.641 117.758 710.359 117.758 710.359C120.812 714.137 134.98 716.305 134.98 716.305V723.973H118.254L118.48 729.418L124.922 729.582V741.918H120.645L120.477 757.137C110.645 762.414 104.59 767.359 97.8672 776.082C91.1445 784.805 89.5898 796.195 89.5898 796.195C89.5898 796.195 88.1445 791.586 85.5352 786.918C82.9258 782.25 78.4102 782.688 78.4102 782.688L78.2422 779.668L78.3867 779.438C81.7188 778.168 81.6797 775.957 81.1992 773.375C80.7192 770.792 76.9727 770.707 76.9727 770.707L76.8047 767.188C76.8047 767.188 78.4492 765.164 78.7227 762.77C78.9922 760.375 74.6992 759.914 74.6992 759.914L74.1602 756.125C74.1602 756.125 75.8906 754.852 75.5352 753.332C75.1805 751.812 73.3477 751.707 73.3477 751.707L73.0117 747.477C73.0117 747.477 74.4883 746.457 74.5742 744.832C74.6569 743.207 72.1992 742.602 72.1992 742.602L72.0352 739.664C72.0352 739.664 71.8047 739.645 72.2617 739.477C72.7188 739.309 73.2422 738.625 72.9922 737.145C72.7422 735.664 71.1797 735.52 71.1797 735.52L70.9492 732.852C70.9492 732.852 72.0156 732.559 72.0547 730.977C72.0977 729.391 70.0352 728.973 70.0352 728.973L66.5352 703.637L66.4766 683.805L64.2539 683.75L64.3672 703.918L60.9922 729.125C60.9922 729.125 59.3047 728.793 58.9102 730.23C58.5155 731.668 60.0977 733 60.0977 733L59.6797 735.727C58.0039 735.988 57.9102 736.551 57.7227 737.668L57.6992 737.832C57.4912 739.063 58.8867 739.938 58.8867 739.938L58.8047 742.434L58.5977 742.562C57.5547 742.605 56.5781 743.312 56.4102 745.02C56.2422 746.73 57.8477 747.668 57.8477 747.668L57.5352 751.75C57.5352 751.75 56.8242 751.789 56.3867 751.875C55.9492 751.957 55.3477 752.73 55.1992 753.957C55.0547 755.188 56.6992 756.289 56.6992 756.289L56.0352 760.039L55.8477 760.02C53.453 759.957 52.5343 761.539 52.3477 763.707C52.1602 765.875 54.2227 767.168 54.2227 767.168L54.0352 770.875L53.7422 770.934L52.3867 771.164C49.6172 771.539 49.3047 774.02 49.2188 776.289C49.1367 778.559 52.7227 779.707 52.7227 779.707L52.3047 782.77C48.8477 782.355 46.4492 785.668 46.4492 785.668C41.9141 790.359 40.7578 798.352 39.7344 805.379L39.5352 806.75C38.4531 814.082 35.8672 841.082 35.8672 841.082C33.3672 859.996 31.0625 866.723 30.3672 868.141C29.6719 869.555 25.3398 872.641 24.5352 873.391C23.7298 874.14 24.1992 876 24.1992 876C24.1992 876 24.0625 878.086 23.6445 878.695C23.3203 879.172 22.8789 879.43 22.6367 879.574L22.4805 879.668C22.3398 879.781 21.3672 880.082 21.3125 880.168C21.2578 880.25 18.5352 882.305 18.5352 882.305L15.9531 884.887L-1.63281 894.492L-1.63281 1041.5H1123.26L1438.37 1041.5V908.246C1438.37 907.914 1426.62 894.582 1426.62 894.582C1426.62 894.582 1423.12 894.75 1419.95 889.832C1416.78 884.918 1410.79 888.75 1410.79 888.75C1400.79 885.333 1397.29 877.914 1397.29 877.914L1396.87 866.996L1388.45 866.832C1384.53 861 1382.62 853.582 1382.12 852.25C1381.62 850.918 1381.62 845.5 1380.54 835.25C1379.45 824.999 1375.7 812.996 1375.7 812.996C1370.45 797.496 1358.37 795.496 1358.37 795.496L1358.2 784.914L1355.2 785.082L1355.37 777.832L1362.04 777.582L1361.7 774.414L1349.54 774.25L1349.7 769C1361.29 768.082 1361.87 763.168 1361.87 763.168L1349.29 712.75C1346.12 703.001 1342.29 676.832 1342.29 676.832L1342.04 647.75H1339.37L1339.29 677.168C1339.37 682.082 1329.2 724.082 1329.2 724.082L1319.45 763.789C1323.2 769.246 1331.74 769.082 1331.74 769.082L1331.95 774.289L1319.54 774.375L1319.57 777.539L1326.08 777.789L1325.95 785.039L1322.99 785.125L1322.87 795.375C1313.41 798.5 1310.16 804.707 1307.7 808.664C1305.24 812.621 1302.41 822.375 1302.41 822.375C1302.41 822.375 1301.87 817.458 1299.45 810.207C1297.04 802.957 1292.45 797.039 1292.45 797.039C1284.16 784.707 1273.37 782.832 1273.37 782.832L1273.16 768.375H1269.45L1269.57 757.039L1277.16 757L1277.07 753.25L1260.91 753.164L1260.99 745.625C1274.24 744.039 1278.41 737.207 1278.41 737.207C1272.54 729.164 1269.08 715.207 1269.08 715.207C1266.45 704.832 1258.2 653.805 1258.2 653.805L1250.42 610.582L1248.87 602.359L1248.59 563.859L1243.98 563.914L1243.7 602.473L1242.42 607.527L1230.54 676.305C1230.54 676.305 1227.31 694.914 1226.04 702.191C1224.76 709.469 1221.48 721.191 1221.48 721.191C1218.7 730.859 1214.09 737.527 1214.09 737.527C1219.87 744.805 1231.59 745.805 1231.59 745.805L1231.48 753.141L1215.43 753.359L1215.31 756.859L1215.64 756.918L1223.04 756.859V768.359H1219.43L1219.14 782.973C1219.14 782.973 1212.04 783.637 1203.31 793.082C1194.59 802.527 1192.43 811.527 1190.98 817.527C1189.54 823.527 1186.41 842.5 1186.41 842.5L1186.24 842.168C1185.79 840.211 1183.74 834.414 1180.45 829.496C1177.16 824.582 1172.16 823.707 1172.16 823.707L1172.07 816.375L1169.82 816.289V811.039H1174.45L1174.54 808.789L1165.78 808.664L1165.87 805.039C1172.74 804.582 1174.74 801.207 1174.74 801.207C1174.74 801.207 1172.48 792.027 1169.37 780.305C1166.26 768.582 1160.54 739.695 1160.54 739.695L1160.37 718.859H1158.54V739.664C1158.54 739.664 1154.79 757.5 1152.37 768.5C1149.95 779.5 1144.48 801.191 1144.48 801.191C1145.87 804.301 1153.2 805.305 1153.2 805.305L1153.25 808.637L1144.54 808.859L1144.42 811.137L1149.04 811.191L1149.2 816.469H1146.92L1146.98 823.859C1143.75 824.637 1139.25 826.25 1134.98 835.082C1130.7 843.914 1130.25 862.359 1130.25 862.359C1129.75 868.191 1125.43 874.414 1125.43 874.414L1119.54 874.691L1119.34 882.637C1119.05 883.301 1116.06 884.988 1114.82 885.684L1114.37 885.941C1114.27 886 1114.05 886.105 1113.76 886.23L1113.7 886L1111.29 855.496C1111.29 855.496 1111.03 850.918 1109.7 845.25C1108.37 839.582 1101.39 835.445 1100.92 835.25C1100.45 835.055 1100.01 834.609 1100.12 834.027C1100.23 833.441 1102.34 832.75 1102.54 832.555C1102.73 832.359 1102.75 827.805 1102.75 827.805L1098.7 827.75C1098.61 827.75 1098.67 822.691 1098.67 822.691L1101.45 822.609L1101.39 820.191L1097.39 817.25L1097.48 815.359L1098.79 815.109L1099.09 812.332L1096.29 812.137L1096.24 808.789L1097.41 808.664L1097.62 806.039H1096.47L1096.16 805.875L1091.12 772.125V761.875H1090.2L1090.16 772.125L1088.45 783.957L1085.04 806.082L1083.87 806.168L1083.95 808.707L1084.95 808.832L1084.99 812.25L1082.49 812.375L1082.7 815.039L1083.82 815.168L1083.79 817.457L1079.99 820.082V822.75L1082.57 822.668L1082.66 827.789L1078.7 827.832C1078.7 827.832 1078.62 831.293 1078.74 832.125C1078.86 832.891 1079.22 832.953 1080.26 833.121L1080.54 833.168C1081.79 833.375 1081.2 834.832 1081.2 834.832C1081.2 834.832 1079.03 835.164 1074.7 840.164C1070.8 844.66 1070.14 852.727 1069.69 858.309L1069.54 860.082C1069.04 865.582 1067.37 886.25 1067.37 886.25H1065.14L1060.26 881.469L1060.09 874.527L1054.93 874.191C1054.93 874.191 1052.7 869.973 1052.14 868.305C1051.59 866.637 1049.64 853.969 1049.64 853.969C1048.7 846.078 1045.04 835.914 1045.04 835.914C1041.31 824.805 1034.7 823.027 1034.7 823.027L1033.64 822.859L1033.54 816.305L1032.2 816.082L1032.42 811.305L1036.09 811.191V808.637H1027.31L1027.48 805.414C1033.37 804.746 1036.64 801.527 1036.64 801.527L1034.76 794.969C1034.76 794.969 1028.31 767.414 1027.14 762.582C1025.98 757.75 1022.98 739.473 1022.98 739.473L1023.04 719.082L1019.76 718.969L1019.64 739.527C1019.59 743.418 1015.26 764.414 1015.26 764.414L1006.37 801.207C1008.04 803.875 1015.45 805.457 1015.45 805.457L1015.41 808.625L1006.7 808.832L1006.66 811.082L1010.45 811.457V816.207L1009.37 816.375L1009.2 822.914C1006.95 822.914 1003.91 825.25 1001.24 828.875C998.574 832.5 994.828 844.582 993.742 850.039C992.656 855.496 992.242 862.039 992.242 862.039L991.578 864.832C990.91 867.621 987.742 874.414 987.742 874.414L982.781 874.539L982.492 881.707L977.324 886.168L975.324 886.082L975.281 893.207C975.281 893.207 974.867 895.164 973.035 897.414C971.203 899.664 967.117 903.457 967.117 903.457L965.617 903.539L965.785 898.789C967.344 897.582 968.367 895.73 968.367 893.625C968.367 890.059 965.477 887.168 961.91 887.168C958.344 887.168 955.449 890.059 955.449 893.625C955.449 895.727 956.473 897.574 958.027 898.754L957.992 898.832L957.785 903.625H954.535L954.281 903.914L954.367 906.414L941.949 906.668L942.078 903.707L938.324 903.457L938.363 898.848C939.926 897.668 940.949 895.812 940.949 893.707C940.949 890.141 938.059 887.25 934.492 887.25C930.926 887.25 928.035 890.14 928.035 893.707C928.035 895.812 929.055 897.664 930.613 898.844L930.535 903.707L927.035 903.832L926.992 906.625L913.699 906.496L913.449 903.625L910.074 903.539L909.965 898.969C911.617 897.797 912.699 895.883 912.699 893.707C912.699 890.14 909.809 887.25 906.242 887.25C902.676 887.25 899.785 890.14 899.785 893.707C899.785 895.715 900.723 897.488 902.16 898.672V903.457L898.617 903.496L898.699 906.625L885.492 906.332L885.324 903.832L881.699 903.414L881.648 898.891C883.242 897.715 884.285 895.836 884.285 893.707C884.285 890.14 881.391 887.25 877.824 887.25C874.258 887.25 871.367 890.14 871.367 893.707C871.367 895.895 872.465 897.82 874.129 898.988L873.992 903.75H870.367L870.199 906.457L856.949 906.668V903.789L853.449 903.539L853.363 898.848C854.926 897.668 855.949 895.812 855.949 893.707C855.949 890.14 853.059 887.25 849.492 887.25C845.926 887.25 843.035 890.14 843.035 893.707C843.035 895.832 844.074 897.707 845.664 898.883L845.699 903.625L841.949 903.668L841.824 906.668L829.035 906.457V903.668L825.41 903.496L825.449 898.555C826.863 897.371 827.785 895.617 827.785 893.625C827.785 890.059 824.891 887.168 821.324 887.168C817.758 887.168 814.867 890.059 814.867 893.625C814.867 895.73 815.891 897.582 817.449 898.758V903.668L813.992 903.707L813.742 906.457L800.785 906.539L800.742 903.668L797.074 903.414L796.918 898.938C798.543 897.762 799.617 895.867 799.617 893.707C799.617 890.14 796.723 887.25 793.156 887.25C789.59 887.25 786.699 890.141 786.699 893.707C786.699 895.859 787.762 897.75 789.379 898.922L789.199 903.625L785.742 903.75L785.535 906.414H772.324L772.242 903.582H768.699L768.629 898.891C770.281 897.719 771.367 895.801 771.367 893.625C771.367 890.059 768.477 887.168 764.91 887.168C761.344 887.168 758.449 890.059 758.449 893.625C758.449 895.676 759.426 897.484 760.918 898.664L760.992 903.582L757.285 903.625L757.199 906.582L744.035 906.496L744.078 903.582L740.41 903.457L740.312 898.961C741.953 897.789 743.035 895.879 743.035 893.707C743.035 890.141 740.145 887.25 736.578 887.25C733.011 887.25 730.117 890.14 730.117 893.707C730.117 895.734 731.07 897.52 732.531 898.703L732.41 903.539L728.91 903.668L728.949 906.625L715.66 906.457L715.699 903.707L711.992 903.375V898.656C713.43 897.496 714.367 895.742 714.367 893.75C714.367 890.254 711.535 887.414 708.035 887.414C704.539 887.414 701.703 890.254 701.703 893.75C701.703 895.84 702.727 897.672 704.285 898.828V903.625L700.617 903.707L700.535 906.414H687.824L687.574 903.625L684.117 903.539L683.902 899.035C685.555 897.859 686.645 895.938 686.645 893.75C686.645 890.159 683.735 887.25 680.145 887.25C676.555 887.25 673.645 890.159 673.645 893.75C673.645 895.879 674.68 897.746 676.262 898.934L676.285 903.539L672.617 903.75L672.535 906.625L659.41 906.496L659.285 903.789L655.699 903.625L655.648 898.938C657.289 897.77 658.367 895.863 658.367 893.695C658.367 890.137 655.48 887.25 651.922 887.25C648.363 887.25 645.477 890.137 645.477 893.695C645.477 895.781 646.484 897.609 648.02 898.789L647.949 903.582L644.285 903.707L644.199 906.496L631.035 906.414L630.992 903.625L627.449 903.496L627.488 898.906C629.027 897.715 630.035 895.867 630.035 893.77C630.035 890.168 627.113 887.25 623.512 887.25C619.91 887.25 616.992 890.168 616.992 893.77C616.992 895.984 618.102 897.93 619.785 899.105L619.535 903.75L615.992 903.707L615.867 906.625L602.699 906.496L602.656 903.625L598.992 903.414V898.797C600.578 897.621 601.617 895.75 601.617 893.625C601.617 890.059 598.723 887.168 595.156 887.168C591.59 887.168 588.699 890.059 588.699 893.625C588.699 895.664 589.665 897.457 591.141 898.641L591.078 903.707H587.742L587.285 906.582L574.449 906.75L574.41 903.832L570.66 903.414L570.574 898.914L570.531 898.75C572.094 897.598 573.117 895.758 573.117 893.668C573.117 890.168 570.281 887.332 566.785 887.332C563.285 887.332 560.449 890.168 560.449 893.668C560.449 895.711 561.438 897.508 562.938 898.664L562.992 903.832L559.285 903.75L559.117 906.625L546.281 906.457L546.117 903.75L542.492 903.457L542.41 898.914L542.387 898.805C543.949 897.641 544.977 895.797 544.977 893.695C544.977 890.167 542.118 887.305 538.59 887.305C535.062 887.305 532.199 890.167 532.199 893.695C532.199 895.699 533.141 897.465 534.586 898.637L534.492 903.582L530.992 903.707L530.617 906.789L517.781 906.414L517.535 903.668L514.035 903.539L513.938 898.77C515.438 897.602 516.422 895.801 516.422 893.75C516.422 890.223 513.562 887.359 510.031 887.359C506.503 887.359 503.645 890.223 503.645 893.75C503.645 895.879 504.699 897.754 506.301 898.914L506.242 903.539L505.824 903.625L502.66 903.668L502.41 906.414L502.352 906.57L489.367 906.027L489.09 903.691L485.59 903.359L485.812 898.691C485.812 898.691 488.422 898.082 488.422 893.582C488.422 889.082 483.59 887.191 481.59 887.191C479.59 887.191 475.922 888.527 475.422 892.637C474.922 896.746 477.758 899.082 477.758 899.082L477.867 903.582L474.477 903.805L474.145 906.582L466.312 906.359L466.59 896.027L468.145 895.859L471.535 887.191L467.422 887.027V875.191L472.535 865.527L472.812 855.469L471.258 855.527L469.812 862.359L457.367 874.414L444.535 874.191L444.758 866.359L449.145 857.527L448.977 848.027H447.035L446.145 857.027L435.367 868.191L405.477 868.082L405.145 867.75V861.914L409.758 853.137L409.645 841.75H408.312L407.922 850.75L399.867 860.527L395.422 860.582L395.145 850.691L399.258 843.859L398.98 835.414L397.59 835.25L397.035 842.414L390.535 849.582L390.312 852.859L384.867 852.914L384.699 827.859L382.145 827.914L381.922 820.805L375.922 817.137L375.812 815.137C378.867 814.191 380.258 811.137 380.258 811.137L371.422 804.191V798.637L372.035 797.305L374.312 797.25L374.258 790.75L367.258 784.691L370.48 784.914V782.027C363.09 771.195 362.09 756.637 362.09 756.637L357.258 725.973C357.258 725.973 352.645 695.246 352.367 691.691L351.367 678.691L348.59 629.359L345.535 629.25L345.422 629.691L343.367 664.859C342.758 675.859 341.645 690.305 341.645 690.305L332.699 750.805C331.977 759.914 329.645 768.191 328.59 772.137C327.535 776.082 323.477 782.191 323.477 782.191V784.637L326.59 784.805L319.535 791.082L319.59 797.191L322.254 797.414L322.699 798.859L322.48 804.137L313.758 811.359C314.758 813.191 318.09 815.414 318.09 815.414L318.145 817.25L312.035 820.969L311.867 827.805H309.59L309.645 833.859L309.367 834.359L304.312 834.191L304.367 827.859L308.312 827.805L308.258 820.25L297.535 820.191L297.699 814.805L301.367 814.914L301.312 810.969L298.867 803.973L295.254 803.805L292.367 784.527L290.199 784.25L289.258 758.305L286.48 758.137L284.922 690.582L284.199 690.691L284.145 758.082L281.422 758.305L281.199 784.527L279.258 784.473L276.477 804.027L272.367 803.973L269.258 811.359V814.75L273.867 815.305V820.027L267.199 820.25L267.035 823.637C265.48 823.305 260.59 818.469 260.59 818.469H253.699L253.922 814.75L258.699 814.414L258.758 805.25L256.254 803.359L250.035 803.582L250.145 798.414L255.867 798.137L256.145 790.305L254.145 788.414L249.422 788.582L248.645 744.75C248.258 733.082 239.258 732.527 239.258 732.527C231.48 733.473 229.977 744.414 229.977 744.414L229.66 788.539L225.242 788.707L223.367 790.664L223.492 798.375L228.449 798.582L228.41 803.625L224.16 803.75L222.035 806.039L222.324 814.996L226.156 815.082L226.117 819.332L217.285 818.914L212.949 795.332C212.199 791.332 210.785 784.996 203.367 774.414C195.953 763.828 182.074 757 182.074 757L182.16 741.875L177.91 742L177.824 729.625L184.074 729.332L184.367 724.125L167.656 723.875L167.535 716.457C168.742 716.414 178.867 714.414 183.324 711.832C187.781 709.246 184.66 704.668 184.66 704.668C184.66 704.668 181.828 697.211 180.035 691.168C178.242 685.125 174.035 666.414 174.035 666.414L165.617 623.168L154.535 554.914L153.199 514L149.617 514.168Z" fill="url(#paint0_linear_1_358)"/>
<path d="M149.87 514.063L153.242 514.072L154.591 554.996C154.591 554.996 173.93 685.871 185.398 705.884C185.398 705.884 187.873 711.053 179.89 713.416C171.907 715.774 167.747 716.337 167.747 716.337V723.984L184.387 724.097L184.163 729.381L177.866 729.605V741.975L182.139 741.861V757.04C182.139 757.04 208.899 769.519 212.834 795.491L217.162 819.215L226.181 819.233L226.214 815.061L222.194 815.029L222.165 806.004L224.077 803.868H228.45V798.488H223.449L223.417 790.591L225.171 788.653L229.707 788.637L229.923 744.447C229.923 744.447 231.554 733.259 239.425 732.699C239.425 732.699 247.858 732.98 248.589 744.56L249.43 788.52L254.195 788.528L256.082 790.244L255.917 798.307L250.155 798.329V803.517L256.515 803.473L258.762 805.217L258.765 814.764L253.798 814.797L253.765 818.537H260.85C260.85 818.537 264.77 823.004 267.187 823.791V820.081L273.955 820.059L273.934 814.999L269.317 814.979L269.303 811.317L272.369 804.039L276.499 804.01L279.289 784.6H281.229L281.53 758.275L284.117 758.107V690.759L285.129 690.645L286.478 758.163L289.218 758.249L290.271 784.389H292.339L295.333 803.952H299.021L301.446 811.309L301.466 814.916L297.546 814.936L297.523 820.332H308.191V827.859L304.377 827.837L304.354 834.225L309.33 834.204M152.779 514.062L149.478 514.072L148.128 554.996C148.128 554.996 128.79 685.871 117.322 705.884C117.322 705.884 114.847 711.053 122.831 713.416C130.814 715.774 134.974 716.337 134.974 716.337V723.984L118.334 724.097L118.558 729.381L124.854 729.605V741.975L120.583 741.861V757.04C120.583 757.04 93.8217 769.519 89.887 795.491L85.5577 819.215C85.5577 819.215 81.355 869.389 71.2363 876.136H58.883V887.013M89.5778 796.363C89.5778 796.363 86.0351 782.281 78.5298 782.786L78.1925 779.499C78.1925 779.499 81.3271 778.735 81.4818 776.294C81.6778 773.202 80.9765 770.897 76.9285 770.897L76.6765 767.103C76.6765 767.103 78.9098 765.817 78.6418 763.167C78.4005 760.762 76.7818 759.978 74.7578 760.041L74.1458 756.141C74.1458 756.141 75.7485 755.614 75.6845 754.137C75.6245 752.723 75.2565 751.734 73.3445 751.902L73.0218 747.539C73.0218 747.539 74.4618 747.054 74.5045 745.642C74.5591 743.85 74.1311 742.593 72.1645 742.647L71.9951 739.674C71.9951 739.674 73.3165 739.387 73.2178 737.378C73.1671 736.31 72.3898 735.787 71.0671 735.65L70.8285 732.95C70.8285 732.95 72.2631 732.219 72.1218 730.801C71.9618 729.173 70.6605 729.213 70.0405 729.129L66.6138 703.746V683.733L64.6805 683.725M66.1351 683.725L64.2792 683.733V703.747L60.8498 729.129C60.2311 729.212 58.9298 729.173 58.7698 730.801C58.6298 732.219 60.0618 732.951 60.0618 732.951L59.8232 735.649C58.5032 735.788 57.7245 736.309 57.6725 737.377C57.5752 739.387 58.8965 739.675 58.8965 739.675L58.7271 742.647C56.7605 742.592 56.3338 743.851 56.3871 745.643C56.4285 747.053 57.8698 747.539 57.8698 747.539L57.5471 751.903C55.6351 751.735 55.2685 752.723 55.2072 754.137C55.1432 755.613 56.7458 756.141 56.7458 756.141L56.1338 760.04C54.1112 759.977 52.4911 760.761 52.2485 763.167C51.9818 765.816 54.2165 767.103 54.2165 767.103L53.9632 770.897C49.9165 770.897 49.2125 773.201 49.4098 776.295C49.5645 778.736 52.6978 779.499 52.6978 779.499L52.3605 782.787C44.8565 782.281 41.3151 796.364 41.3151 796.364C41.3151 796.364 38.8978 809.097 37.8858 820.791C36.8738 832.483 33.8391 865.539 29.3418 869.587C24.8431 873.636 24.3938 872.624 24.1685 874.309C23.9445 875.996 24.3951 879.032 22.4818 879.593C20.5711 880.156 12.7925 887.337 11.8925 890.935L6.40448 890.951M309.584 833.889L309.498 827.816L311.776 827.733L311.986 820.903L318.142 817.319V815.251C318.142 815.251 314.769 813.692 313.8 811.289C313.8 811.289 322.24 804.801 322.59 804.1C322.612 804.059 322.612 798.597 322.612 798.597L322.232 797.375L319.638 797.355L319.661 790.988C319.661 790.988 326.217 785.696 326.848 784.727H323.497L323.518 782.281C323.518 782.281 329.204 773.736 330.721 764.235C332.24 754.735 341.797 693.851 342.358 683.732C342.92 673.613 345.393 629.313 345.393 629.313L348.092 629.288M384.886 853.116L384.802 827.859H382.06L382.031 820.903L375.876 817.319V815.252C375.876 815.252 379.248 813.692 380.219 811.289C380.219 811.289 371.779 804.801 371.428 804.1C371.406 804.059 371.406 798.597 371.406 798.597L371.787 797.375L374.379 797.355L374.358 790.988C374.358 790.988 367.802 785.697 367.17 784.727H370.522L370.499 782.281C370.499 782.281 364.815 773.736 363.298 764.235C361.778 754.735 352.22 693.851 351.66 683.732C351.099 673.613 348.624 629.313 348.624 629.313L345.926 629.288M385.392 853.158L390.494 853.072L390.536 849.361L397.072 842.447L397.661 835.322L398.948 835.344L399.262 844.007L395.216 850.543L395.426 860.577H399.77L408.033 850.628L408.328 841.731L409.825 841.751L409.677 853.072L405.124 861.884L405.166 868.081L435.44 868.209L446.232 856.952L446.949 848.013L449.057 847.999V857.5L444.757 866.228L444.716 874.449L457.237 874.532L466.893 865.468L469.802 862.392L471.194 855.434H472.881L472.585 865.595L467.482 875.124L467.441 887.224H471.698L467.989 895.993H466.302L466.345 906.324M967.286 903.316C967.286 903.316 971.981 898.86 973.47 896.683C974.749 894.816 975.268 893.196 975.268 893.196V886.227L977.462 886.212L982.465 881.786L982.69 874.59L987.806 874.422C987.806 874.422 990.954 868.967 991.712 863.486C992.472 858.007 996.013 826.974 1008.24 822.926L1009.21 822.884V816.202H1010.56L1010.54 811.204L1006.74 811.183L1006.76 808.676H1015.39L1015.41 805.387C1015.41 805.387 1008.28 803.996 1006.34 801.592C1006.34 801.592 1016.5 760.947 1017.43 753.78C1017.43 753.78 1019.62 742.142 1019.71 738.6C1019.79 735.059 1019.88 719.038 1019.88 719.038H1021.56M1069.99 897.611C1069.99 897.611 1069.97 897.611 1069.35 896.684C1068.09 894.801 1067.55 893.196 1067.55 893.196V886.227M1067.55 886.227L1065.36 886.212L1060.35 881.785L1060.13 874.589L1055.01 874.421C1055.01 874.421 1051.87 868.968 1051.11 863.485C1050.35 858.007 1046.81 826.973 1034.58 822.925L1033.61 822.884V816.201H1032.26L1032.28 811.204L1036.08 811.184L1036.05 808.676H1027.43L1027.41 805.387C1027.41 805.387 1034.54 803.996 1036.48 801.592C1036.48 801.592 1026.31 760.947 1025.39 753.78C1025.39 753.78 1023.19 742.141 1023.11 738.6C1023.03 735.059 1022.94 719.037 1022.94 719.037H1021.25M1067.55 886.227C1067.55 886.227 1069.29 865.173 1070.3 852.102C1071.32 839.033 1080.59 835.238 1080.59 835.238M1080.76 835.152C1080.76 835.152 1082.11 834.332 1080.8 833.382C1079.98 832.787 1078.78 833.298 1078.74 832.202C1078.69 831.106 1078.69 827.858 1078.69 827.858L1082.59 827.838L1082.57 822.674H1080.02L1080 820.016L1083.84 817.487L1083.86 815.04L1082.59 815.063L1082.57 812.238L1085.04 812.259V808.738L1083.88 808.718L1083.86 806.124L1085.1 806.103L1090.18 772.05L1090.12 761.875L1090.88 761.874M1100.77 835.238C1100.77 835.238 1110.05 839.033 1111.06 852.102C1112.07 865.173 1113.81 886.226 1113.81 886.226C1113.81 886.226 1118.57 883.923 1119.35 882.461L1119.52 874.647L1125.43 874.477C1125.43 874.477 1129.86 867.788 1130.37 862.167C1130.88 856.544 1130.91 826.945 1146.98 823.741V816.349L1149.18 816.376V811.121H1144.54L1144.57 808.732L1153.25 808.759V805.105C1153.25 805.105 1145.94 804.431 1144.43 801.283C1144.43 801.283 1155.39 758.501 1157.75 744.504L1158.51 739.443L1158.59 718.952L1160.39 718.931M1100.61 835.152C1100.61 835.152 1099.26 834.332 1100.56 833.382C1101.39 832.787 1102.59 833.298 1102.63 832.202C1102.67 831.106 1102.67 827.858 1102.67 827.858L1098.77 827.838L1098.79 822.674H1101.34L1101.36 820.016L1097.53 817.487L1097.51 815.04L1098.77 815.063L1098.79 812.238L1096.33 812.259V808.738L1097.49 808.718L1097.51 806.124L1096.26 806.103L1091.19 772.05L1091.25 761.875L1090.49 761.874M1166.44 893.844C1166.44 893.844 1180.43 889.542 1182.46 873.774C1184.48 858.006 1188.95 814.83 1195.95 803.446C1202.95 792.062 1209.1 785.148 1219.22 782.872L1219.27 768.369L1222.97 768.409L1223.02 757.026H1215.39L1215.43 753.23H1231.58L1231.62 745.796C1231.62 745.796 1220.21 745.066 1213.91 737.421C1213.91 737.421 1221.5 729.269 1226.22 701.273C1230.95 673.277 1242.75 605.872 1243.43 603.342C1244.1 600.813 1243.93 563.877 1243.93 563.877H1247.77M1323.83 892.663C1323.83 892.663 1311.81 887.9 1310 873.775C1307.98 858.007 1303.51 814.831 1296.51 803.447C1289.51 792.063 1283.35 785.147 1273.23 782.871L1273.19 768.368L1269.48 768.41L1269.44 757.025H1277.07L1277.03 753.231H1260.88L1260.84 745.796C1260.84 745.796 1272.25 745.067 1278.55 737.42C1278.55 737.42 1270.96 729.269 1266.23 701.273C1261.51 673.277 1249.71 605.871 1249.03 603.343C1248.36 600.812 1248.53 563.877 1248.53 563.877H1244.69M1113.73 885.918C1113.73 885.918 1115.92 897.47 1127.65 901.517M1186.2 844.29L1186.45 843.096C1186.45 843.096 1183.64 826.468 1172.06 823.741V816.349L1169.86 816.376V811.121H1174.5L1174.47 808.732L1165.79 808.76V805.105C1165.79 805.105 1173.1 804.43 1174.61 801.282C1174.61 801.282 1163.65 758.501 1161.29 744.504L1160.53 739.442L1160.45 718.952L1158.66 718.93M1410.64 888.699C1410.64 888.699 1402.8 886.507 1397.26 878.223L1397.02 867.21L1388.71 866.97C1388.71 866.97 1382.45 857.545 1381.73 849.619C1381.02 841.697 1380.98 799.983 1358.32 795.467V785.05L1355.23 785.087V777.681H1361.77L1361.73 774.317L1349.49 774.353V769.205C1349.49 769.205 1359.79 768.251 1361.93 763.817C1361.93 763.817 1346.48 703.525 1343.15 683.801L1342.08 676.669L1341.96 647.789L1339.44 647.761M1303.06 824.426L1302.7 822.742C1302.7 822.742 1306.66 799.31 1322.99 795.467V785.05L1326.08 785.087V777.68H1319.54L1319.58 774.316L1331.82 774.352V769.204C1331.82 769.204 1321.52 768.251 1319.38 763.816C1319.38 763.816 1334.83 703.524 1338.16 683.8L1339.23 676.668L1339.35 647.788L1341.87 647.76M552.7 906.577H546.032V903.626H542.364V898.746C543.892 897.574 544.894 895.749 544.894 893.676C544.894 890.137 542.026 887.268 538.484 887.268C534.946 887.268 532.078 890.137 532.078 893.676C532.078 895.749 533.078 897.574 534.606 898.746V903.626H530.939V906.577H517.7V903.626H514.031V898.746C515.56 897.574 516.56 895.749 516.56 893.676C516.56 890.137 513.692 887.268 510.151 887.268C506.611 887.268 503.742 890.137 503.742 893.676C503.742 895.749 504.744 897.574 506.274 898.746V903.626H502.604V906.577H489.366V903.626H485.698V898.746C487.226 897.574 488.227 895.749 488.227 893.676C488.227 890.137 485.358 887.268 481.818 887.268C478.278 887.268 475.41 890.137 475.41 893.676C475.41 895.749 476.411 897.574 477.939 898.746V903.626H474.271V906.577H461.032V903.626H457.364V898.746C458.892 897.574 459.894 895.749 459.894 893.676C459.894 890.137 457.026 887.268 453.484 887.268C449.944 887.268 447.076 890.137 447.076 893.676C447.076 895.749 448.078 897.574 449.606 898.746V903.626H445.938V906.577H432.699V903.626H429.03V898.746C430.56 897.574 431.56 895.749 431.56 893.676C431.56 890.137 428.692 887.268 425.151 887.268C421.611 887.268 418.742 890.137 418.742 893.676C418.742 895.749 419.744 897.574 421.274 898.746V903.626H417.604V906.577H404.364V903.626H400.698V898.746C402.224 897.574 403.227 895.749 403.227 893.676C403.227 890.137 400.358 887.268 396.818 887.268C393.278 887.268 390.41 890.137 390.41 893.676C390.41 895.749 391.411 897.574 392.939 898.746V903.626H389.271V906.577H376.032V903.626H372.364V898.746C373.892 897.574 374.894 895.749 374.894 893.676C374.894 890.137 372.026 887.268 368.484 887.268C364.944 887.268 362.075 890.137 362.075 893.676C362.075 895.749 363.078 897.574 364.606 898.746V903.626H360.938V906.577H347.699V903.626H344.03V898.746C345.559 897.574 346.56 895.749 346.56 893.676C346.56 890.137 343.691 887.268 340.151 887.268C336.611 887.268 333.742 890.137 333.742 893.676C333.742 895.749 334.743 897.574 336.272 898.746V903.626H332.604V906.577H319.364V903.626H315.698V898.746C317.224 897.574 318.227 895.749 318.227 893.676C318.227 890.137 315.358 887.268 311.818 887.268C308.278 887.268 305.41 890.137 305.41 893.676C305.41 895.749 306.411 897.574 307.938 898.746V903.626H304.271V906.577H291.032V903.626H287.363V898.746C288.892 897.574 289.894 895.749 289.894 893.676C289.894 890.137 287.026 887.268 283.484 887.268C279.944 887.268 277.075 890.137 277.075 893.676C277.075 895.749 278.078 897.574 279.606 898.746V903.626H275.938V906.577H262.698V903.626H259.03V898.746C260.559 897.574 261.56 895.749 261.56 893.676C261.56 890.137 258.691 887.268 255.151 887.268C251.611 887.268 248.742 890.137 248.742 893.676C248.742 895.749 249.743 897.574 251.272 898.746V903.626H247.603V906.577H234.364V903.626H230.698V898.746C232.224 897.574 233.226 895.749 233.226 893.676C233.226 890.137 230.358 887.268 226.818 887.268C223.278 887.268 220.41 890.137 220.41 893.676C220.41 895.749 221.411 897.574 222.938 898.746V903.626H219.271V906.577H206.032V903.626H202.363V898.746C203.892 897.574 204.894 895.749 204.894 893.676C204.894 890.137 202.024 887.268 198.483 887.268C194.944 887.268 192.075 890.137 192.075 893.676C192.075 895.749 193.076 897.574 194.606 898.746V903.626H190.938V906.577H177.698V903.626H174.03V898.746C175.558 897.574 176.56 895.749 176.56 893.676C176.56 890.137 173.691 887.268 170.151 887.268C166.61 887.268 163.742 890.137 163.742 893.676C163.742 895.749 164.743 897.574 166.272 898.746V903.626H162.603V906.577H149.364V903.626H145.698V898.746C147.224 897.574 148.226 895.749 148.226 893.676C148.226 890.137 145.358 887.268 141.818 887.268C138.278 887.268 135.408 890.137 135.408 893.676C135.408 895.749 136.411 897.574 137.938 898.746V903.626H134.271V906.577H121.032V903.626H117.362V898.746C118.892 897.574 119.894 895.749 119.894 893.676C119.894 890.137 117.024 887.268 113.483 887.268C109.944 887.268 107.075 890.137 107.075 893.676C107.075 895.749 108.076 897.574 109.606 898.746V903.626H105.936V906.577H92.6975V903.626H89.0295V898.746C90.5575 897.574 91.5589 895.749 91.5589 893.676C91.5589 890.137 88.6895 887.268 85.1509 887.268C81.6095 887.268 78.7415 890.137 78.7415 893.676C78.7415 895.749 79.7429 897.574 81.2709 898.746V903.626H77.6029V906.577H64.3642V903.626H60.6962V898.746C62.2242 897.574 63.2255 895.749 63.2255 893.676C63.2255 890.137 60.3575 887.268 56.8162 887.268C53.2775 887.268 50.4082 890.137 50.4082 893.676C50.4082 895.749 51.4095 897.574 52.9375 898.746V903.626H49.2709V906.577H36.0308V903.626H32.3615V898.746C33.8909 897.574 34.8935 895.749 34.8935 893.676C34.8935 890.137 32.0242 887.268 28.4829 887.268C24.9429 887.268 22.0749 890.137 22.0749 893.676C22.0749 895.749 23.0748 897.574 24.6055 898.746V903.626H20.9362V906.577H7.69621V903.626H4.02954V898.746C5.55754 897.574 6.55888 895.749 6.55888 893.676C6.55888 890.137 3.68955 887.268 0.150879 887.268C-3.39045 887.268 -6.25846 890.137 -6.25846 893.676C-6.25846 895.749 -5.25713 897.574 -3.72913 898.746V903.626H-7.39713V906.577H-20.6358V903.626H-24.3051V898.746C-22.7758 897.574 -21.7745 895.749 -21.7745 893.676C-21.7745 890.137 -24.6425 887.268 -28.1838 887.268C-31.7225 887.268 -34.5918 890.137 -34.5918 893.676C-34.5918 895.749 -33.5905 897.574 -32.0625 898.746V903.626H-35.7305V906.577M687.7 906.577V903.626H684.031V898.746C685.56 897.574 686.562 895.749 686.562 893.676C686.562 890.137 683.693 887.268 680.152 887.268C676.612 887.268 673.743 890.137 673.743 893.676C673.743 895.749 674.744 897.574 676.275 898.746V903.626H672.606V906.577H659.366V903.626H655.698V898.746C657.227 897.574 658.228 895.749 658.228 893.676C658.228 890.137 655.359 887.268 651.819 887.268C648.279 887.268 645.409 890.137 645.409 893.676C645.409 895.749 646.411 897.574 647.94 898.746V903.626H644.272V906.577H631.032V903.626H627.366V898.746C628.892 897.574 629.895 895.749 629.895 893.676C629.895 890.137 627.026 887.268 623.486 887.268C619.947 887.268 617.076 890.137 617.076 893.676C617.076 895.749 618.078 897.574 619.606 898.746V903.626H615.939V906.577H602.7V903.626H599.031V898.746C600.56 897.574 601.562 895.749 601.562 893.676C601.562 890.137 598.693 887.268 595.152 887.268C591.611 887.268 588.743 890.137 588.743 893.676C588.743 895.749 589.744 897.574 591.273 898.746V903.626H587.604V906.577H574.366V903.626H570.698V898.746C572.227 897.574 573.227 895.749 573.227 893.676C573.227 890.137 570.358 887.268 566.819 887.268C563.279 887.268 560.409 890.137 560.409 893.676C560.409 895.749 561.411 897.574 562.94 898.746V903.626H559.271V906.577H552.888M829.034 906.577V903.626H825.364V898.746C826.894 897.574 827.895 895.749 827.895 893.676C827.895 890.137 825.027 887.268 821.486 887.268C817.946 887.268 815.076 890.137 815.076 893.676C815.076 895.749 816.077 897.574 817.608 898.746V903.626H813.939V906.577H800.699V903.626H797.031V898.746C798.56 897.574 799.562 895.749 799.562 893.676C799.562 890.137 796.692 887.268 793.152 887.268C789.612 887.268 786.743 890.137 786.743 893.676C786.743 895.749 787.744 897.574 789.273 898.746V903.626H785.606V906.577H772.366V903.626H768.699V898.746C770.226 897.574 771.228 895.749 771.228 893.676C771.228 890.137 768.359 887.268 764.819 887.268C761.28 887.268 758.41 890.137 758.41 893.676C758.41 895.749 759.411 897.574 760.939 898.746V903.626H757.272V906.577H744.034V903.626H740.364V898.746C741.894 897.574 742.895 895.749 742.895 893.676C742.895 890.137 740.026 887.268 736.486 887.268C732.946 887.268 730.076 890.137 730.076 893.676C730.076 895.749 731.078 897.574 732.607 898.746V903.626H728.938V906.577H715.698V903.626H712.031V898.746C713.56 897.574 714.56 895.749 714.56 893.676C714.56 890.137 711.691 887.268 708.154 887.268C704.612 887.268 701.743 890.137 701.743 893.676C701.743 895.749 702.744 897.574 704.273 898.746V903.626H700.604V906.577H687.742M954.221 906.577H942.032V903.626H938.364V898.746C939.893 897.574 940.894 895.749 940.894 893.676C940.894 890.137 938.026 887.268 934.485 887.268C930.945 887.268 928.077 890.137 928.077 893.676C928.077 895.749 929.078 897.574 930.606 898.746V903.626H926.938V906.577H913.698V903.626H910.032V898.746C911.558 897.574 912.561 895.749 912.561 893.676C912.561 890.137 909.693 887.268 906.152 887.268C902.613 887.268 899.744 890.137 899.744 893.676C899.744 895.749 900.745 897.574 902.272 898.746V903.626H898.605V906.577H885.366V903.626H881.697V898.746C883.226 897.574 884.229 895.749 884.229 893.676C884.229 890.137 881.36 887.268 877.818 887.268C874.278 887.268 871.41 890.137 871.41 893.676C871.41 895.749 872.412 897.574 873.94 898.746V903.626H870.27V906.577H857.03V903.626H853.364V898.746C854.893 897.574 855.893 895.749 855.893 893.676C855.893 890.137 853.025 887.268 849.486 887.268C845.945 887.268 843.077 890.137 843.077 893.676C843.077 895.749 844.078 897.574 845.606 898.746V903.626H841.937V906.577H829.076M1574.82 906.577H1563.02V903.626H1559.35V898.746C1560.88 897.574 1561.88 895.749 1561.88 893.676C1561.88 890.137 1559.01 887.268 1555.47 887.268C1551.93 887.268 1549.06 890.137 1549.06 893.676C1549.06 895.749 1550.06 897.574 1551.59 898.746V903.626H1547.92V906.577H1534.69V903.626H1531.02V898.746C1532.55 897.574 1533.55 895.749 1533.55 893.676C1533.55 890.137 1530.68 887.268 1527.14 887.268C1523.6 887.268 1520.73 890.137 1520.73 893.676C1520.73 895.749 1521.73 897.574 1523.26 898.746V903.626H1519.59V906.577H1507.7V903.626H1504.03V898.746C1505.56 897.574 1506.56 895.749 1506.56 893.676C1506.56 890.137 1503.69 887.268 1500.15 887.268C1496.61 887.268 1493.74 890.137 1493.74 893.676C1493.74 895.749 1494.75 897.574 1496.28 898.746V903.626H1492.61V906.577H1479.37V903.626H1475.7V898.746C1477.23 897.574 1478.23 895.749 1478.23 893.676C1478.23 890.137 1475.36 887.268 1471.82 887.268C1468.28 887.268 1465.41 890.137 1465.41 893.676C1465.41 895.749 1466.41 897.574 1467.94 898.746V903.626H1464.27V906.577H1451.03V903.626H1447.37V898.746C1448.89 897.574 1449.9 895.749 1449.9 893.676C1449.9 890.137 1447.03 887.268 1443.49 887.268C1439.95 887.268 1437.08 890.137 1437.08 893.676C1437.08 895.749 1438.08 897.574 1439.61 898.746V903.626H1435.94V906.577H1422.7V903.626H1419.03V898.746C1420.56 897.574 1421.56 895.749 1421.56 893.676C1421.56 890.137 1418.69 887.268 1415.15 887.268C1411.61 887.268 1408.74 890.137 1408.74 893.676C1408.74 895.749 1409.75 897.574 1411.28 898.746V903.626H1407.61V906.577H1394.37V903.626H1390.7V898.746C1392.23 897.574 1393.23 895.749 1393.23 893.676C1393.23 890.137 1390.36 887.268 1386.82 887.268C1383.28 887.268 1380.41 890.137 1380.41 893.676C1380.41 895.749 1381.41 897.574 1382.94 898.746V903.626H1379.27V906.577H1366.03V903.626H1362.36V898.746C1363.89 897.574 1364.9 895.749 1364.9 893.676C1364.9 890.137 1362.03 887.268 1358.49 887.268C1354.95 887.268 1352.08 890.137 1352.08 893.676C1352.08 895.749 1353.08 897.574 1354.61 898.746V903.626H1350.94V906.577H1337.7V903.626H1334.03V898.746C1335.56 897.574 1336.56 895.749 1336.56 893.676C1336.56 890.137 1333.69 887.268 1330.15 887.268C1326.61 887.268 1323.74 890.137 1323.74 893.676C1323.74 895.749 1324.75 897.574 1326.27 898.746V903.626H1322.61V906.577H1309.37V903.626H1305.7V898.746C1307.23 897.574 1308.23 895.749 1308.23 893.676C1308.23 890.137 1305.36 887.268 1301.82 887.268C1298.28 887.268 1295.41 890.137 1295.41 893.676C1295.41 895.749 1296.41 897.574 1297.94 898.746V903.626H1294.27V906.577H1281.03V903.626H1277.36V898.746C1278.89 897.574 1279.9 895.749 1279.9 893.676C1279.9 890.137 1277.03 887.268 1273.49 887.268C1269.95 887.268 1267.08 890.137 1267.08 893.676C1267.08 895.749 1268.08 897.574 1269.61 898.746V903.626H1265.94V906.577H1252.7V903.626H1249.03V898.746C1250.56 897.574 1251.56 895.749 1251.56 893.676C1251.56 890.137 1248.69 887.268 1245.15 887.268C1241.61 887.268 1238.74 890.137 1238.74 893.676C1238.74 895.749 1239.75 897.574 1241.27 898.746V903.626H1237.61V906.577H1224.37V903.626H1220.7V898.746C1222.23 897.574 1223.23 895.749 1223.23 893.676C1223.23 890.137 1220.36 887.268 1216.82 887.268C1213.28 887.268 1210.41 890.137 1210.41 893.676C1210.41 895.749 1211.41 897.574 1212.94 898.746V903.626H1209.27V906.577H1196.03V903.626H1192.37V898.746C1193.89 897.574 1194.9 895.749 1194.9 893.676C1194.9 890.137 1192.03 887.268 1188.49 887.268C1184.95 887.268 1182.08 890.137 1182.08 893.676C1182.08 895.749 1183.08 897.574 1184.61 898.746V903.626H1180.94V906.577H1167.7V903.626H1164.03V898.746C1165.56 897.574 1166.56 895.749 1166.56 893.676C1166.56 890.137 1163.69 887.268 1160.15 887.268C1156.61 887.268 1153.74 890.137 1153.74 893.676C1153.74 895.749 1154.75 897.574 1156.27 898.746V903.626H1152.61V906.577H1139.37V903.626H1135.7V898.746C1137.23 897.574 1138.23 895.749 1138.23 893.676C1138.23 890.137 1135.36 887.268 1131.82 887.268C1128.28 887.268 1125.41 890.137 1125.41 893.676C1125.41 895.749 1126.41 897.574 1127.94 898.746V903.626H1124.27V906.577H1111.03V903.626H1107.37V898.746C1108.89 897.574 1109.9 895.749 1109.9 893.676C1109.9 890.137 1107.03 887.268 1103.49 887.268C1099.95 887.268 1097.08 890.137 1097.08 893.676C1097.08 895.749 1098.08 897.574 1099.61 898.746V903.626H1095.94V906.577H1082.7V903.626H1079.03V898.746C1080.56 897.574 1081.56 895.749 1081.56 893.676C1081.56 890.137 1078.69 887.268 1075.15 887.268C1071.61 887.268 1068.74 890.137 1068.74 893.676C1068.74 895.749 1069.75 897.574 1071.27 898.746V903.626H1067.61V906.577H1054.37V903.626H1050.7V898.746C1052.23 897.574 1053.23 895.749 1053.23 893.676C1053.23 890.137 1050.36 887.268 1046.82 887.268C1043.28 887.268 1040.41 890.137 1040.41 893.676C1040.41 895.749 1041.41 897.574 1042.94 898.746V903.626H1039.27V906.577H1026.03V903.626H1022.37V898.746C1023.89 897.574 1024.9 895.749 1024.9 893.676C1024.9 890.137 1022.03 887.268 1018.49 887.268C1014.95 887.268 1012.08 890.137 1012.08 893.676C1012.08 895.749 1013.08 897.574 1014.61 898.746V903.626H1010.94V906.577H997.699V903.626H994.031V898.746C995.56 897.574 996.561 895.749 996.561 893.676C996.561 890.137 993.692 887.268 990.153 887.268C986.612 887.268 983.743 890.137 983.743 893.676C983.743 895.749 984.744 897.574 986.273 898.746V903.626H982.605V906.577H969.365V903.626H965.699V898.746C967.227 897.574 968.228 895.749 968.228 893.676C968.228 890.137 965.359 887.268 961.819 887.268C958.28 887.268 955.409 890.137 955.409 893.676C955.409 895.749 956.412 897.574 957.94 898.746V903.626H954.272V906.577" stroke="#BD7B4F" stroke-width="0.790667" stroke-miterlimit="10" stroke-linecap="round" stroke-linejoin="round"/>
<path d="M1041 491.999C1041 668.177 897.956 811 721.501 811C545.045 811 402 668.177 402 491.999C402 315.821 545.045 173 721.501 173C897.956 173 1041 315.821 1041 491.999Z" fill="#0B0A0A" stroke="#BD7B4F" stroke-width="4" stroke-miterlimit="10" stroke-linecap="round" stroke-linejoin="round"/>
<path d="M512 494.5C512 611.307 606.692 706 723.5 706C840.308 706 935 611.307 935 494.5C935 377.692 840.308 283 723.5 283C606.692 283 512 377.692 512 494.5Z" fill="url(#paint1_radial_1_358)"/>
<path d="M723.5 212.097V259.435M723.5 259.435C730.348 259.435 737.112 259.796 743.811 260.371C750.619 260.964 757.341 261.849 763.97 263.01M723.5 259.435C716.654 259.435 709.891 259.793 703.191 260.372C696.382 260.961 689.664 261.849 683.034 263.01M443.096 492.555H490.425C490.425 485.703 490.784 478.941 491.365 472.241C491.954 465.426 492.84 458.708 494.002 452.079C495.179 445.355 496.617 438.728 498.357 432.213C500.116 425.632 502.124 419.146 504.434 412.805C506.762 406.405 509.4 400.157 512.26 394.031M999.643 443.853L952.999 452.079C951.826 445.353 950.386 438.728 948.647 432.213C946.884 425.63 944.875 419.146 942.567 412.805M674.809 216.359L683.034 263.01M683.034 263.01C676.311 264.188 669.685 265.626 663.174 267.365C656.59 269.126 650.109 271.136 643.768 273.445M986.992 396.634L942.564 412.807M627.597 229.013L643.767 273.444C637.367 275.774 631.119 278.417 624.998 281.273C618.837 284.151 612.832 287.304 606.977 290.691M966.337 352.326L925.323 376.009C921.92 370.127 918.274 364.409 914.388 358.867C910.49 353.309 906.374 347.919 902.019 342.732M583.3 249.672L606.977 290.691M606.977 290.691C601.1 294.093 595.382 297.742 589.838 301.63M938.301 312.279L902.019 342.732M902.019 342.732C897.657 337.536 893.101 332.508 888.306 327.715C883.514 322.919 878.488 318.363 873.296 314.002M543.261 277.712L573.707 314.004C578.891 309.648 584.285 305.529 589.838 301.628M903.739 277.712L873.296 314.004C868.109 309.644 862.719 305.528 857.162 301.628C851.623 297.741 845.904 294.094 840.024 290.691M544.983 342.731L508.7 312.278M544.983 342.731C549.346 337.536 553.899 332.508 558.694 327.715C563.486 322.919 568.513 318.363 573.707 314.002M544.983 342.731C540.625 347.918 536.51 353.309 532.612 358.866C528.725 364.41 525.079 370.127 521.678 376.009M863.702 249.672L840.024 290.691M840.024 290.691C834.171 287.304 828.167 284.153 822.003 281.273C815.878 278.412 809.634 275.774 803.234 273.444M480.666 352.326L521.678 376.009M521.678 376.009C518.292 381.866 515.139 387.87 512.261 394.032M819.404 229.013L803.234 273.444M803.234 273.444C796.892 271.135 790.41 269.125 783.827 267.365M460.009 396.63L504.433 412.807M772.193 216.359L763.97 263.01M763.97 263.01C770.689 264.188 777.318 265.626 783.828 267.365M447.359 443.853L493.999 452.079M1005 492.555C1005 337.057 878.968 211 723.5 211C568.031 211 442 337.057 442 492.555M956.574 492.556C956.574 485.703 956.213 478.94 955.639 472.242C955.051 465.428 954.163 458.709 952.999 452.082M942.566 412.805C940.239 406.405 937.603 400.159 934.74 394.032C931.861 387.87 928.71 381.865 925.323 376.008M723.5 772.9V725.563M723.5 725.563C716.652 725.563 709.888 725.203 703.191 724.625C696.382 724.036 689.66 723.147 683.032 721.989M723.5 725.563C730.348 725.563 737.11 725.204 743.809 724.624C750.62 724.037 757.338 723.147 763.966 721.988M1003.9 492.445H956.573C956.573 499.291 956.216 506.055 955.637 512.756C955.046 519.574 954.16 526.286 952.999 532.918C951.821 539.643 950.385 546.272 948.644 552.786C946.884 559.366 944.876 565.851 942.567 572.192M447.357 541.144L494.002 532.918M772.19 768.639L763.966 721.988M763.966 721.988C770.689 720.811 777.316 719.374 783.828 717.631C790.41 715.873 796.893 713.862 803.234 711.555M460.008 588.363L504.435 572.192M819.404 755.987L803.234 711.555M803.234 711.555C809.632 709.224 815.881 706.581 822.004 703.726C828.163 700.846 834.169 697.694 840.024 694.307M480.664 632.674L521.678 608.986C525.08 614.871 528.725 620.589 532.612 626.131C536.51 631.685 540.625 637.08 544.98 642.268M863.701 735.325L840.024 694.307M840.024 694.307C845.902 690.907 851.617 687.254 857.162 683.367C862.717 679.472 868.109 675.352 873.293 670.994L903.739 707.284M508.701 672.717L544.98 642.268M544.98 642.268C549.343 647.46 553.899 652.491 558.694 657.281C563.486 662.077 568.513 666.631 573.706 670.995M543.261 707.284L573.706 670.994C578.891 675.352 584.281 679.47 589.839 683.367C595.379 687.255 601.096 690.902 606.977 694.307M902.018 642.268L938.302 672.718M902.018 642.268C897.655 647.46 893.101 652.491 888.306 657.281C883.514 662.077 878.488 666.631 873.293 670.995M902.018 642.268C906.374 637.08 910.492 631.686 914.388 626.131C918.274 620.589 921.923 614.871 925.323 608.986M583.298 735.325L606.977 694.307M606.977 694.307C612.831 697.694 618.835 700.847 624.998 703.726C631.122 706.588 637.367 709.223 643.766 711.554C650.109 713.861 656.59 715.874 663.175 717.631M966.334 632.674L925.323 608.986M925.323 608.986C928.709 603.131 931.862 597.128 934.739 590.964M627.597 755.987L643.767 711.555M986.991 588.368L942.567 572.192M942.567 572.192C940.24 578.593 937.602 584.838 934.74 590.965M674.808 768.64L683.032 721.989M683.032 721.989C676.311 720.811 669.681 719.374 663.174 717.631M999.641 541.144L953.001 532.918M442 492.445C442 647.943 568.031 774 723.5 774C878.968 774 1005 647.943 1005 492.445M490.425 492.444C490.425 499.292 490.788 506.056 491.361 512.756C491.95 519.568 492.838 526.286 494.003 532.918M494.004 532.918C495.176 539.646 496.614 546.271 498.353 552.785C500.116 559.366 502.125 565.85 504.433 572.191M504.434 572.191C506.762 578.592 509.399 584.838 512.261 590.964C515.141 597.129 518.292 603.132 521.677 608.987" stroke="#BD7B4F" stroke-width="4" stroke-miterlimit="10" stroke-linecap="round" stroke-linejoin="round"/>
<defs>
<linearGradient id="paint0_linear_1_358" x1="685.421" y1="991.913" x2="685.421" y2="513.996" gradientUnits="userSpaceOnUse">
<stop offset="0.401042" stop-color="#0C0B0B"/>
<stop offset="1" stop-color="#BD7B4F"/>
</linearGradient>
<radialGradient id="paint1_radial_1_358" cx="0" cy="0" r="1" gradientUnits="userSpaceOnUse" gradientTransform="translate(723.5 494.5) rotate(-90) scale(211.5)">
<stop offset="0.71875" stop-color="#23211E"/>
<stop offset="1" stop-color="#23211E" stop-opacity="0"/>
</radialGradient>
</defs>
</svg>
