<svg width="598" height="433" viewBox="0 0 598 433" fill="none" xmlns="http://www.w3.org/2000/svg">
<path d="M597.199 262.258C597.199 262.258 567.356 254.591 553.392 248.568C539.43 242.544 513.965 236.52 482.206 258.699C450.445 280.874 426.625 288.268 406.64 281.698C386.653 275.125 355.987 251.306 314.373 250.758C314.373 250.758 286.169 257.603 248.114 274.578C210.058 291.552 163.784 285.803 105.196 253.222C105.196 253.222 84.9331 248.568 1.15344 278.958" stroke="url(#paint0_linear_1_412)" stroke-width="1.08533" stroke-miterlimit="10" stroke-linecap="round" stroke-linejoin="round"/>
<path d="M150.712 182.944C135.048 200.641 118.464 188.377 112.129 180.034C104.067 194.004 90.2468 191.094 78.1539 191.676C66.0609 192.258 56.2714 171.302 41.8751 169.555C30.358 168.158 31.3177 175.959 33.2373 180.034C29.9741 180.422 23.5629 179.451 24.0236 172.466C24.5994 163.734 29.2062 157.913 43.0268 157.913C50.5129 157.913 56.8473 161.988 56.8473 161.988C58.0271 158.689 62.4429 152.092 70.6678 152.092C72.7554 152.092 77.5138 152.674 79.8458 155.002M161.077 170.72C161.845 169.943 163.38 168.042 163.38 166.645C163.38 164.898 162.805 162.57 158.198 162.57C154.512 162.57 153.015 166.063 153.015 168.391C153.015 172.466 154.743 178.287 161.077 178.287C169.715 178.287 172.594 170.72 172.594 166.645C172.594 162.57 170.351 154.42 159.349 154.42C147.832 154.42 143.801 163.619 143.801 169.555C143.801 175.959 150.712 187.019 170.291 187.601C185.954 188.067 194.093 180.81 196.204 177.123C198.124 179.063 204.151 182.828 212.904 182.362C223.845 181.78 244 177.123 244 162.57C244 156.166 240.545 155.002 236.514 152.092C237.09 152.868 238.241 155.584 238.241 160.241C238.241 166.063 235.362 169.555 228.452 169.555C218.087 169.555 208.873 157.331 198.507 157.331C197.114 150.205 195.433 146.969 186.415 146.27C187.182 139.479 184.917 125.896 169.715 125.896C168.179 125.896 164.532 126.245 162.229 127.642C158.774 123.762 148.638 116 135.739 116C119.615 116 105.219 128.225 105.219 141.613C105.219 144.04 105.569 146.619 106.265 149.181M132.86 142.778C134.588 142.001 138.043 141.73 138.043 146.853C138.043 151.975 134.204 153.256 132.284 153.256C127.677 153.256 124.222 150.345 124.222 145.106C124.222 140.449 128.829 133.464 135.739 133.464C148.638 133.464 151.863 143.166 151.863 148.017C151.863 158.495 140.922 168.391 128.829 168.391C116.522 168.391 108.906 158.908 106.265 149.181M106.265 149.181C105.34 147.823 101.418 145.106 93.1261 145.106C85.0446 145.106 81.1636 150.06 79.8458 155.002M93.702 163.734C91.3985 165.48 89.0951 165.48 89.0951 161.988C89.0951 158.495 90.8227 155.002 96.0054 155.002C101.188 155.002 104.643 159.077 104.643 164.316C104.643 168.391 102.34 173.048 92.5503 173.048C82.7607 173.048 79.3056 164.898 79.3056 159.077C79.3056 157.794 79.4733 156.399 79.8458 155.002" stroke="#FFDEC9"/>
<path d="M435.021 406.357C433.631 409.486 428.647 412.297 426.329 413.311L401.989 411.437L407.639 432H201.188L206.838 411.437L182.498 413.311C180.18 412.297 175.196 409.486 173.806 406.357C173.176 404.941 170.553 397.943 167.483 388.971C165.969 386.363 161.462 380.365 155.551 377.236C148.162 373.324 139.904 352.896 139.035 346.377C138.339 341.161 140.773 321.603 142.077 312.475C144.25 297.408 150.596 264.839 153.378 258.581C147.727 253.365 141.208 246.411 142.946 243.803C149.466 231.923 171.632 198.601 197.276 175.565L238.566 156.318C229.007 147.292 226.987 140.529 228.57 133.406C230.308 125.582 239.436 74.7301 241.174 62.995C242.565 53.6068 248.708 40.2491 251.605 34.7437C262.906 16.0544 283.334 1.71143 295.938 1.71143C318.974 1.71141 340.706 29.9627 344.617 37.7861C348.529 45.6096 373.738 110.805 373.303 130.798C373.188 136.118 371.017 141.104 367.826 145.555C379.653 164.554 384.612 155.024 415.028 181.216C440.063 202.774 459.361 231.923 465.88 243.803C467.619 246.411 461.099 253.365 455.449 258.581C458.231 264.839 464.577 297.408 466.75 312.475C468.054 321.603 470.488 341.161 469.792 346.377C468.923 352.896 460.665 373.324 453.276 377.236C447.365 380.365 442.858 386.363 441.344 388.971C438.274 397.943 435.651 404.941 435.021 406.357Z" fill="#0B0A0A"/>
<path d="M374.607 318.56C372.289 326.674 367.392 345.334 366.349 355.07C365.045 367.239 359.829 368.543 357.222 382.452C355.135 393.578 365.335 404.473 370.695 408.53C371.269 409.043 372.008 409.255 372.868 409.195M394.912 306.391C396.361 306.68 400.251 308.998 400.251 312.475C400.251 315.858 398.671 331.353 396.536 344.204C395.928 347.864 395.275 351.31 394.6 354.2C391.558 367.239 395.904 363.328 392.427 381.148C389.409 396.617 378.529 408.798 372.868 409.195M372.868 409.195L401.989 411.437M428.502 292.482C445.887 306.825 452.841 329.861 453.276 342.9C453.553 351.219 446.754 373.16 441.344 388.971M395.347 303.783C397.771 301.726 402.966 299.609 408.943 300.017M429.371 310.737C421.83 303.196 414.753 300.414 408.943 300.017M408.943 300.017C410.102 299.824 412.942 298.654 415.028 295.525C417.636 291.613 420.678 292.482 422.417 292.482M401.989 411.437L426.329 413.311C428.647 412.297 433.631 409.486 435.021 406.357C435.651 404.941 438.274 397.943 441.344 388.971M401.989 411.437L407.639 432M441.344 388.971C442.858 386.363 447.365 380.365 453.276 377.236C460.665 373.324 468.923 352.896 469.792 346.377C470.488 341.161 468.054 321.603 466.75 312.475M466.75 312.475C463.997 305.232 454.493 290.309 438.498 288.571M466.75 312.475C464.577 297.408 458.231 264.839 455.449 258.581C461.099 253.365 467.619 246.411 465.88 243.803M420.678 263.362C431.834 254.379 461.107 236.643 465.88 243.803M465.88 243.803C459.361 231.923 440.063 202.774 415.028 181.216C383.734 154.268 379.388 165.134 366.784 143.837M344.617 164.265C354.034 159.774 372.955 146.793 373.303 130.798C373.738 110.805 348.529 45.6096 344.617 37.7861C340.705 29.9627 318.974 1.71141 295.938 1.71143C283.334 1.71143 262.906 16.0544 251.605 34.7437C248.708 40.2491 242.565 53.6068 241.174 62.995C239.436 74.7301 230.308 125.582 228.57 133.406C226.987 140.529 229.007 147.292 238.566 156.318M263.341 166.873C258.994 165.714 248.563 162.526 241.609 159.049C240.519 158.115 239.506 157.206 238.566 156.318M309.412 159.049C304.341 162.526 291.853 169.567 282.464 169.915C270.729 170.35 275.51 139.925 276.38 130.798C277.249 121.671 280.726 75.1647 284.203 71.253C287.68 67.3413 307.239 52.1291 307.673 43.0017C308.108 33.8744 310.716 34.7437 312.454 34.7437C314.193 34.7437 340.271 52.1291 341.575 71.253C341.575 86.0306 320.278 105.589 320.712 127.756C321.147 149.922 326.363 137.318 326.797 164.265C326.937 172.958 318.249 171.799 313.324 161.657M238.566 156.318L197.276 175.565C171.632 198.601 149.466 231.923 142.946 243.803M234.22 318.56C236.538 326.674 241.435 345.334 242.478 355.07C243.782 367.239 248.997 368.543 251.605 382.452C253.691 393.578 243.492 404.473 238.132 408.53C237.558 409.043 236.819 409.255 235.958 409.195M214.104 306.825C212.655 307.115 208.576 308.998 208.576 312.475C208.576 315.858 210.156 331.353 212.291 344.204C212.899 347.864 213.552 351.31 214.227 354.2C217.269 367.239 212.923 363.328 216.4 381.148C219.418 396.617 230.297 408.798 235.958 409.195M235.958 409.195L206.838 411.437M180.325 292.482C162.94 306.825 155.985 329.861 155.551 342.9C155.274 351.219 162.073 373.16 167.483 388.971M213.669 304.652C211.245 302.595 205.861 299.609 199.884 300.017M179.456 310.737C186.997 303.196 194.073 300.414 199.884 300.017M199.884 300.017C198.725 299.824 195.885 298.654 193.799 295.525C191.191 291.613 188.148 292.482 186.41 292.482M206.838 411.437L182.498 413.311C180.18 412.297 175.196 409.486 173.806 406.357C173.176 404.941 170.553 397.943 167.483 388.971M206.838 411.437L201.188 432M167.483 388.971C165.969 386.363 161.462 380.365 155.551 377.236C148.162 373.324 139.904 352.896 139.035 346.377C138.339 341.161 140.773 321.603 142.077 312.475M142.077 312.475C144.83 305.232 154.334 290.309 170.328 288.571M142.077 312.475C144.25 297.408 150.596 264.839 153.378 258.581C147.727 253.365 141.208 246.411 142.946 243.803M188.148 263.362C176.993 254.379 147.72 236.643 142.946 243.803" stroke="url(#paint1_linear_1_412)" stroke-width="2"/>
<path d="M361.382 295.09C364.714 293.931 371.378 289.787 371.378 282.486C371.378 275.184 371.378 269.302 371.378 267.273M372.248 297.698C373.696 299.147 375.985 302.913 373.551 306.39M379.202 302.479C383.548 297.698 380.679 290.222 383.113 288.136M382.679 315.518C383.403 316.242 385.46 317.343 387.894 315.952M399.63 318.56L394.849 311.171L395.718 281.616L394.197 279.443M385.721 283.355L381.809 275.531C380.915 274.831 379.685 273.874 378.332 272.808M394.197 279.443L386.59 268.577L383.113 266.627M394.197 279.443C392.53 274.517 389.285 263.709 389.633 259.885L382.679 253.51M383.113 266.627L381.809 261.623L377.029 256.407C376.666 256.407 375.633 255.999 373.802 254.669M383.113 266.627L377.898 263.701M373.802 254.669C372.708 253.875 371.33 252.752 369.64 251.192C368.621 250.252 367.922 249.353 367.467 248.511M373.802 254.669L377.898 263.701M377.898 263.701L368.77 258.581C368.629 258.807 368.477 259.097 368.336 259.433M382.679 253.51L379.202 250.323L368.336 242.499C368.041 242.735 367.732 243.063 367.467 243.47M382.679 253.51L377.898 245.107L368.77 235.545C367.467 236.772 365.38 240.074 367.467 243.47M367.467 243.47C366.722 244.611 366.312 246.378 367.467 248.511M367.467 248.511C366.176 249.104 364.544 252.118 368.336 259.433M368.336 259.433C367.755 260.819 367.371 262.986 368.77 264.666C370.042 266.192 374.647 269.903 378.332 272.808M375.725 277.705C376.739 277.482 378.68 276.192 378.332 272.808M396.587 345.508L373.986 317.691C367.467 314.504 354.775 306.217 356.166 298.567C355.007 293.351 351.907 281.79 348.777 277.27C347.574 275.531 349.646 272.054 350.081 271.62C353.848 272.054 361.816 276.14 363.555 289.005C363.989 289.729 365.206 291.352 366.597 292.048M247.571 294.655C244.239 293.496 237.574 289.353 237.574 282.051C237.574 274.749 237.574 268.867 237.574 266.839M236.705 297.263C235.256 298.712 232.967 302.479 235.401 305.956M229.751 302.044C225.405 297.263 228.273 289.787 225.839 287.701M226.274 315.083C225.549 315.808 223.492 316.909 221.058 315.518M209.323 318.126L214.104 310.737L213.235 281.182L214.756 279.008M223.231 282.92L227.143 275.097C228.038 274.396 229.267 273.439 230.62 272.373M214.756 279.008L222.362 268.143L225.839 266.192M214.756 279.008C216.422 274.083 219.667 263.275 219.32 259.45L226.274 253.075M225.839 266.192L227.143 261.188L231.924 255.973C232.287 255.973 233.32 255.564 235.151 254.234M225.839 266.192L231.055 263.266M235.151 254.234C236.244 253.44 237.623 252.317 239.313 250.757C240.331 249.817 241.03 248.918 241.486 248.077M235.151 254.234L231.055 263.266M231.055 263.266L240.182 258.146C240.324 258.372 240.476 258.662 240.617 258.999M226.274 253.075L229.751 249.888L240.617 242.065C240.912 242.301 241.22 242.628 241.486 243.035M226.274 253.075L231.055 244.672L240.182 235.11C241.486 236.337 243.572 239.639 241.486 243.035M241.486 243.035C242.231 244.176 242.641 245.943 241.486 248.077M241.486 248.077C242.776 248.669 244.408 251.683 240.617 258.999M240.617 258.999C241.198 260.385 241.581 262.552 240.182 264.231C238.911 265.757 234.306 269.469 230.62 272.373M233.228 277.27C232.214 277.048 230.273 275.757 230.62 272.373M212.365 345.073L234.966 317.256C241.486 314.069 254.177 305.782 252.787 298.132C253.946 292.917 257.046 281.355 260.175 276.835C261.379 275.097 259.306 271.62 258.872 271.185C255.105 271.62 247.136 275.705 245.398 288.57C244.963 289.295 243.746 290.917 242.355 291.613" stroke="#BD7B4F" stroke-width="1.5"/>
<path d="M282.464 169.915C291.853 169.567 304.341 162.526 309.412 159.049L313.324 161.657C318.249 171.799 326.937 172.958 326.797 164.265C326.363 137.318 321.147 149.922 320.712 127.756C320.278 105.589 341.575 86.0306 341.575 71.253C340.271 52.1291 314.193 34.7437 312.454 34.7437C310.716 34.7437 308.108 33.8744 307.673 43.0018C307.239 52.1291 287.68 67.3413 284.203 71.253C280.726 75.1647 277.249 121.671 276.38 130.798C275.51 139.925 270.729 170.35 282.464 169.915Z" fill="url(#paint2_linear_1_412)"/>
<path d="M496.637 56.983C484.815 70.1959 472.298 61.0396 467.517 54.8098C461.432 65.2411 451.001 63.0679 441.873 63.5025C432.746 63.9372 425.357 48.2903 414.491 46.9864C405.799 45.9433 406.523 51.7674 407.972 54.8098C405.509 55.0996 400.67 54.3752 401.018 49.1596C401.452 42.6401 404.929 38.2937 415.361 38.2937C421.011 38.2937 425.792 41.3362 425.792 41.3362C426.682 38.8732 430.015 33.9474 436.223 33.9474C437.799 33.9474 441.39 34.382 443.15 36.1205M504.461 47.8557C505.04 47.2762 506.199 45.8564 506.199 44.8132C506.199 43.5093 505.765 41.7708 502.288 41.7708C499.506 41.7708 498.376 44.3786 498.376 46.1171C498.376 49.1596 499.68 53.5059 504.461 53.5059C510.98 53.5059 513.154 47.8557 513.154 44.8132C513.154 41.7708 511.461 35.6859 503.157 35.6859C494.464 35.6859 491.422 42.554 491.422 46.9864C491.422 51.7674 496.637 60.0255 511.415 60.4601C523.237 60.8078 529.38 55.3894 530.974 52.6367C532.422 54.0855 536.972 56.8961 543.578 56.5484C551.836 56.1137 567.048 52.6367 567.048 41.7708C567.048 36.9898 564.441 36.1205 561.398 33.9474C561.833 34.5269 562.702 36.5552 562.702 40.0322C562.702 44.3786 560.529 46.9864 555.313 46.9864C547.49 46.9864 540.536 37.8591 532.712 37.8591C531.66 32.5389 530.392 30.1223 523.585 29.601C524.164 24.5303 522.455 14.3888 510.98 14.3888C509.821 14.3888 507.069 14.6496 505.33 15.6927C502.722 12.7951 495.073 7 485.337 7C473.167 7 462.301 16.1273 462.301 26.1239C462.301 27.936 462.566 29.8614 463.091 31.7742M483.164 26.9932C484.468 26.4137 487.076 26.2109 487.076 30.0357C487.076 33.8604 484.178 34.8166 482.729 34.8166C479.252 34.8166 476.644 32.6435 476.644 28.7317C476.644 25.2547 480.121 20.039 485.337 20.039C495.073 20.039 497.507 27.283 497.507 30.9049C497.507 38.7284 489.249 46.1171 480.121 46.1171C470.833 46.1171 465.084 39.037 463.091 31.7742M463.091 31.7742C462.393 30.76 459.433 28.7317 453.174 28.7317C447.074 28.7317 444.145 32.4306 443.15 36.1205M453.609 42.6401C451.87 43.944 450.132 43.944 450.132 41.3362C450.132 38.7284 451.435 36.1205 455.347 36.1205C459.259 36.1205 461.867 39.163 461.867 43.0747C461.867 46.1171 460.128 49.5942 452.739 49.5942C445.351 49.5942 442.743 43.5093 442.743 39.163C442.743 38.2053 442.869 37.1633 443.15 36.1205" stroke="#FFDEC9"/>
<circle cx="307.116" cy="279.443" r="93.4465" fill="url(#paint3_radial_1_412)"/>
<path fill-rule="evenodd" clip-rule="evenodd" d="M306.666 342.24C306.666 342.465 306.891 342.465 307.116 342.465H307.566C307.792 342.24 308.017 342.014 307.792 341.562C307.792 341.562 306.44 337.952 307.341 334.342C307.792 332.988 308.468 331.86 309.143 330.732C310.27 328.927 311.171 327.347 311.396 324.64C311.622 322.834 310.72 321.255 310.045 320.126C309.976 319.989 309.907 319.854 309.84 319.72C309.241 318.541 308.716 317.507 308.918 316.291C309.298 314.199 310.158 312.748 310.959 311.397C311.108 311.146 311.255 310.898 311.396 310.65C311.562 310.318 311.74 309.987 311.923 309.649C312.486 308.606 313.083 307.5 313.424 306.137C313.874 304.557 313.874 303.204 313.874 302.075C315.659 304.981 315.455 307.222 315.232 309.676L315.226 309.747C315.001 311.552 315.001 313.357 315.451 315.388C316.285 318.519 318.083 319.526 319.596 320.374C319.718 320.443 319.839 320.51 319.957 320.578C320.086 320.655 320.212 320.73 320.335 320.803C321.284 321.364 322.036 321.81 322.435 322.609C322.973 323.686 322.94 324.621 322.904 325.64C322.895 325.901 322.886 326.168 322.886 326.445C322.66 327.799 322.66 329.378 323.336 331.409C324.913 336.147 330.32 337.501 330.545 337.501C330.996 337.501 331.221 337.501 331.897 337.05C332.122 336.824 332.122 336.373 331.897 336.147C331.897 336.147 329.194 333.214 328.743 329.604C328.518 328.251 328.743 326.898 328.968 325.545L328.968 325.542C328.999 325.263 329.034 324.983 329.07 324.703C329.292 322.944 329.52 321.139 328.743 318.998C328.337 317.372 327.199 316.478 326.154 315.657C326.039 315.567 325.925 315.478 325.814 315.388C324.688 314.486 323.561 313.583 323.336 312.229C322.765 310.133 322.998 308.519 323.22 306.98C323.261 306.697 323.301 306.417 323.336 306.137C323.38 305.831 323.432 305.525 323.484 305.218C323.702 303.937 323.925 302.629 323.561 301.173C323.336 299.82 322.886 298.692 322.436 297.564C325.139 299.595 325.814 301.624 326.49 303.88C326.518 303.978 326.546 304.076 326.574 304.174C326.999 305.681 327.474 307.362 328.743 308.844C330.726 311.493 332.926 311.767 334.707 311.989C334.747 311.994 334.786 311.998 334.825 312.003C335.952 312.003 336.853 312.229 337.754 312.906C338.881 314.034 339.331 314.937 339.781 316.291C340.232 317.645 340.908 319.224 342.26 320.804C345.426 324.187 350.374 323.805 351.169 323.744C351.222 323.739 351.257 323.737 351.271 323.737C351.496 323.737 351.947 323.511 351.947 323.06C351.947 322.609 351.947 322.383 351.496 322.157C351.271 322.157 347.891 320.578 346.089 317.419C345.414 316.065 344.963 314.937 344.738 313.583C344.72 313.511 344.702 313.439 344.684 313.366C344.249 311.616 343.765 309.666 342.035 307.716C341.119 306.617 339.907 306.261 338.76 305.925C338.495 305.847 338.233 305.77 337.979 305.686C336.627 305.46 335.501 305.008 334.6 303.88C333.248 301.849 332.798 300.044 332.347 298.239C332.257 297.924 332.176 297.609 332.095 297.294C331.771 296.029 331.447 294.765 330.545 293.501C330.43 293.327 330.318 293.158 330.209 292.992C329.467 291.865 328.853 290.932 328.067 290.342C331.21 290.971 332.599 292.577 334.046 294.251C334.155 294.377 334.264 294.503 334.375 294.629C335.501 295.982 336.628 297.337 338.43 298.465C341.224 300.064 343.133 299.538 344.786 299.084C344.999 299.025 345.208 298.968 345.414 298.916C345.671 298.865 345.916 298.802 346.155 298.74C346.963 298.532 347.698 298.342 348.568 298.691C349.88 299.254 350.568 299.974 351.282 300.719C351.426 300.87 351.57 301.021 351.722 301.173C352.061 301.445 352.38 301.758 352.716 302.088C353.494 302.851 354.36 303.701 355.776 304.332C360.282 306.588 365.013 303.88 365.238 303.655C365.689 303.429 365.689 303.204 365.689 302.752C365.463 302.301 365.238 302.075 364.788 302.075C364.788 302.075 360.958 301.849 358.029 299.593C357.008 298.775 356.357 297.956 355.572 296.969C355.491 296.868 355.41 296.765 355.326 296.66C354.199 295.08 352.848 293.501 350.595 292.373C348.793 291.47 347.216 291.696 345.864 291.921C344.512 292.147 343.386 292.147 342.035 291.47C340.007 290.116 338.881 288.762 337.754 287.183C337.601 286.991 337.447 286.792 337.29 286.589C336.526 285.6 335.683 284.509 334.375 283.572C333.248 282.67 332.122 282.219 330.996 281.767C334.15 281.316 336.177 282.219 338.204 283.347C338.525 283.485 338.846 283.632 339.171 283.781C340.442 284.363 341.771 284.972 343.386 285.152C346.692 285.594 348.489 284.091 349.83 282.97C349.86 282.945 349.89 282.92 349.919 282.896C350.051 282.797 350.177 282.698 350.302 282.601C351.027 282.036 351.66 281.542 352.622 281.542C354.199 281.542 355.326 281.993 356.452 282.67C357.804 283.347 359.156 284.024 361.409 284.25C366.196 284.458 369.252 280.814 369.867 280.081C369.918 280.02 369.952 279.98 369.969 279.963C370.194 279.737 370.194 279.285 369.969 279.06C369.744 278.835 369.518 278.609 369.068 278.834C369.068 278.834 365.463 280.188 361.859 279.285C360.507 279.06 359.381 278.383 358.255 277.706C356.452 276.578 354.875 275.675 352.172 275.449C350.37 275.224 348.793 276.126 347.666 276.803C347.529 276.872 347.394 276.941 347.261 277.009C346.084 277.608 345.051 278.134 343.837 277.932C341.747 277.551 340.298 276.689 338.949 275.887C338.699 275.738 338.452 275.591 338.204 275.449C337.873 275.284 337.542 275.104 337.204 274.921C336.163 274.357 335.059 273.759 333.699 273.419C332.122 272.968 330.77 272.968 329.644 272.968C332.544 271.18 334.781 271.384 337.23 271.607L337.304 271.614C339.106 271.839 340.908 271.839 342.935 271.388C346.061 270.553 347.066 268.753 347.913 267.237C347.982 267.115 348.049 266.994 348.117 266.875C348.194 266.747 348.268 266.621 348.34 266.499C348.901 265.547 349.346 264.793 350.145 264.393C351.22 263.854 352.153 263.887 353.17 263.923C353.431 263.932 353.698 263.942 353.974 263.942C355.326 264.167 356.903 264.167 358.93 263.491C363.661 261.911 365.013 256.496 365.013 256.27C365.013 256.044 364.788 255.593 364.563 255.367C364.337 255.142 363.886 255.142 363.661 255.367C363.661 255.367 360.732 258.075 357.128 258.526C355.777 258.752 354.425 258.526 353.074 258.301C352.794 258.27 352.514 258.234 352.233 258.199C350.478 257.976 348.676 257.748 346.54 258.526C344.916 258.933 344.024 260.072 343.204 261.119C343.114 261.234 343.025 261.348 342.935 261.46C342.034 262.587 341.133 263.716 339.781 263.942C337.689 264.513 336.078 264.28 334.543 264.058C334.26 264.017 333.979 263.977 333.699 263.942C333.394 263.898 333.09 263.846 332.784 263.794C331.505 263.575 330.197 263.352 328.743 263.716C327.393 263.942 326.268 264.392 325.143 264.842L325.138 264.844C327.166 262.136 329.194 261.46 331.446 260.783C331.544 260.755 331.643 260.727 331.742 260.699C333.246 260.272 334.923 259.796 336.402 258.526C339.046 256.54 339.32 254.339 339.541 252.554C339.546 252.514 339.551 252.474 339.556 252.434C339.556 251.306 339.781 250.403 340.458 249.501C341.584 248.372 342.485 247.921 343.837 247.47C345.188 247.019 346.765 246.342 348.342 244.988C351.72 241.816 351.339 236.86 351.278 236.064C351.274 236.011 351.271 235.976 351.271 235.962C351.271 235.737 351.045 235.285 350.595 235.285C350.145 235.285 349.919 235.285 349.694 235.737C349.694 235.962 348.117 239.347 344.963 241.152C343.611 241.829 342.485 242.28 341.133 242.506C341.062 242.524 340.99 242.542 340.918 242.56C339.17 242.995 337.223 243.48 335.276 245.213C333.958 246.156 333.585 247.414 333.234 248.592C333.165 248.824 333.097 249.052 333.023 249.275C332.798 250.629 332.347 251.757 331.221 252.66C329.194 254.013 327.392 254.465 325.59 254.916C325.275 255.006 324.958 255.088 324.643 255.169C323.381 255.494 322.12 255.819 320.858 256.721C320.685 256.837 320.516 256.948 320.351 257.057C319.225 257.801 318.293 258.416 317.704 259.203C318.333 256.055 319.936 254.664 321.607 253.214C321.733 253.105 321.858 252.996 321.984 252.885C323.336 251.757 324.688 250.629 325.814 248.824C327.411 246.026 326.886 244.113 326.432 242.458C326.374 242.244 326.316 242.035 326.265 241.829C326.213 241.571 326.15 241.326 326.089 241.087C325.881 240.277 325.692 239.541 326.04 238.67C326.602 237.356 327.32 236.666 328.064 235.952C328.215 235.808 328.366 235.663 328.517 235.511C328.789 235.171 329.102 234.851 329.431 234.515C330.193 233.736 331.042 232.868 331.671 231.449C333.924 226.936 331.221 222.198 330.996 221.972C330.77 221.521 330.545 221.521 330.094 221.521C329.644 221.747 329.419 221.972 329.419 222.424C329.419 222.424 329.194 226.26 326.94 229.193C326.123 230.217 325.305 230.869 324.32 231.655C324.219 231.735 324.116 231.817 324.012 231.901C322.435 233.029 320.858 234.383 319.732 236.639C318.83 238.444 319.056 240.024 319.281 241.378C319.506 242.731 319.506 243.86 318.83 245.213C317.479 247.244 316.127 248.372 314.55 249.501C314.358 249.654 314.16 249.808 313.958 249.965C312.97 250.73 311.881 251.575 310.945 252.885C310.045 254.014 309.594 255.142 309.143 256.27C308.693 253.111 309.594 251.08 310.72 249.049C310.858 248.728 311.005 248.406 311.153 248.081C311.735 246.808 312.343 245.477 312.522 243.86C312.963 240.549 311.464 238.749 310.344 237.405C310.319 237.375 310.294 237.346 310.27 237.316C310.171 237.184 310.073 237.057 309.976 236.933C309.411 236.206 308.918 235.572 308.918 234.608C308.918 233.029 309.369 231.901 310.045 230.772C310.72 229.419 311.396 228.065 311.622 225.808C311.829 221.23 308.205 218.187 307.463 217.565C307.401 217.512 307.359 217.477 307.341 217.46C307.116 217.234 306.666 217.234 306.44 217.46C306.215 217.685 305.99 217.911 306.215 218.362C306.215 218.362 307.566 221.972 306.666 225.583C306.215 226.935 305.54 228.062 304.865 229.189L304.863 229.193C303.737 230.998 302.835 232.578 302.61 235.285C302.385 237.09 303.286 238.67 303.962 239.798C304.03 239.935 304.099 240.069 304.166 240.202C304.765 241.382 305.291 242.417 305.089 243.634C304.709 245.727 303.848 247.178 303.047 248.529C302.898 248.78 302.752 249.027 302.61 249.275C302.445 249.607 302.265 249.939 302.083 250.278C301.52 251.32 300.923 252.425 300.583 253.788C300.132 255.367 300.132 256.721 300.132 257.849C298.347 254.944 298.551 252.703 298.774 250.248L298.781 250.178C299.006 248.372 299.006 246.567 298.555 244.537C297.722 241.406 295.925 240.399 294.412 239.551C294.289 239.482 294.168 239.415 294.05 239.347C293.921 239.27 293.796 239.195 293.673 239.123C292.723 238.561 291.971 238.116 291.571 237.316C291.034 236.239 291.067 235.304 291.103 234.286C291.112 234.024 291.121 233.757 291.121 233.48C291.346 232.126 291.346 230.547 290.671 228.516C289.094 223.777 283.687 222.424 283.462 222.424C283.236 222.424 282.786 222.649 282.56 222.875C282.335 223.101 282.335 223.552 282.56 223.777C282.56 223.777 285.264 226.711 285.714 230.321C285.94 231.675 285.714 233.029 285.489 234.383C285.458 234.663 285.423 234.943 285.387 235.224C285.165 236.982 284.937 238.786 285.714 240.926C286.12 242.553 287.258 243.446 288.303 244.267C288.418 244.358 288.531 244.447 288.643 244.537C289.769 245.439 290.896 246.342 291.121 247.696C291.692 249.791 291.459 251.405 291.238 252.943C291.197 253.226 291.156 253.507 291.121 253.788C291.078 254.093 291.026 254.398 290.973 254.705C290.755 255.986 290.532 257.296 290.896 258.752C291.121 260.106 291.571 261.234 292.022 262.362C289.319 260.331 288.643 258.301 287.967 256.044C287.939 255.946 287.911 255.848 287.883 255.748C287.457 254.242 286.982 252.562 285.714 251.08C283.731 248.432 281.532 248.158 279.751 247.936C279.711 247.931 279.671 247.926 279.632 247.921C278.505 247.921 277.604 247.696 276.703 247.019C275.577 245.89 275.126 244.988 274.676 243.634C274.225 242.28 273.549 240.701 272.198 239.121C269.031 235.738 264.083 236.12 263.288 236.181C263.235 236.185 263.2 236.188 263.186 236.188C262.961 236.188 262.51 236.413 262.51 236.865C262.285 237.316 262.51 237.542 262.961 237.767C262.961 237.767 266.34 239.347 268.142 241.603C268.818 242.957 269.269 244.085 269.494 245.439C269.512 245.511 269.53 245.583 269.548 245.656C269.983 247.406 270.467 249.356 272.198 251.306C273.139 252.626 274.394 253 275.571 253.351C275.802 253.42 276.03 253.488 276.253 253.562C277.604 253.788 278.731 254.239 279.632 255.367C280.983 257.398 281.434 259.203 281.884 261.008C281.975 261.324 282.056 261.64 282.137 261.956C282.461 263.22 282.786 264.483 283.687 265.747C283.802 265.92 283.914 266.089 284.022 266.255C284.764 267.382 285.379 268.316 286.165 268.906C283.022 268.276 281.633 266.67 280.185 264.997C280.076 264.871 279.967 264.745 279.857 264.619C278.731 263.266 277.604 261.911 275.802 260.783C273.009 259.184 271.099 259.709 269.446 260.164C269.233 260.222 269.024 260.28 268.818 260.331C268.561 260.383 268.316 260.446 268.077 260.508C267.269 260.716 266.534 260.905 265.664 260.557C264.352 259.994 263.664 259.274 262.951 258.528C262.807 258.378 262.662 258.227 262.51 258.075C262.171 257.803 261.851 257.49 261.516 257.16C260.738 256.397 259.871 255.546 258.455 254.916C253.95 252.66 249.219 255.367 248.994 255.593C248.543 255.819 248.543 256.044 248.543 256.496C248.768 256.947 248.994 257.173 249.444 257.173C249.444 257.173 253.274 257.398 256.203 259.655C257.225 260.473 257.876 261.292 258.661 262.28C258.741 262.381 258.822 262.483 258.906 262.588C260.032 264.167 261.384 265.747 263.637 266.875C265.439 267.778 267.016 267.552 268.368 267.326C269.719 267.101 270.846 267.101 272.198 267.778C274.225 269.131 275.351 270.485 276.478 272.065C276.631 272.257 276.785 272.456 276.941 272.659C277.705 273.648 278.549 274.739 279.857 275.675C280.983 276.578 282.11 277.029 283.236 277.48C280.082 277.932 278.055 277.029 276.027 275.901C275.706 275.763 275.385 275.616 275.06 275.467C273.79 274.884 272.461 274.275 270.846 274.096C267.54 273.654 265.744 275.156 264.402 276.278C264.372 276.303 264.342 276.327 264.313 276.352C264.181 276.451 264.055 276.55 263.931 276.646C263.205 277.212 262.571 277.706 261.609 277.706C260.032 277.706 258.906 277.255 257.78 276.578C256.428 275.901 255.076 275.224 252.823 274.998C248.035 274.79 244.978 278.435 244.364 279.167C244.314 279.228 244.28 279.268 244.263 279.285C244.038 279.511 244.038 279.962 244.263 280.188C244.488 280.413 244.714 280.639 245.164 280.413C245.164 280.413 248.768 279.06 252.373 279.963C253.725 280.188 254.851 280.865 255.977 281.542C257.78 282.67 259.357 283.572 262.06 283.798C263.862 284.024 265.439 283.122 266.566 282.444C266.781 282.337 266.984 282.229 267.181 282.125C268.221 281.575 269.069 281.127 270.395 281.316C272.485 281.697 273.934 282.559 275.282 283.361C275.533 283.51 275.78 283.657 276.027 283.798C276.359 283.964 276.69 284.144 277.028 284.327C278.069 284.891 279.173 285.489 280.533 285.829C282.11 286.28 283.462 286.28 284.588 286.28C281.688 288.068 279.451 287.864 277.002 287.641L276.928 287.634C275.126 287.409 273.324 287.409 271.296 287.86C268.171 288.695 267.165 290.495 266.319 292.01C266.25 292.133 266.183 292.254 266.115 292.373C266.038 292.501 265.964 292.627 265.891 292.75C265.33 293.701 264.886 294.455 264.087 294.855C263.012 295.393 262.079 295.361 261.062 295.325C260.8 295.315 260.534 295.306 260.258 295.306C258.906 295.08 257.329 295.08 255.302 295.757C250.571 297.337 249.219 302.752 249.219 302.978C249.219 303.204 249.444 303.655 249.67 303.88C249.895 304.106 250.345 304.106 250.571 303.88C250.571 303.88 253.499 301.173 257.104 300.721C258.455 300.496 259.807 300.721 261.159 300.947C261.439 300.978 261.718 301.014 261.999 301.049C263.754 301.271 265.556 301.499 267.692 300.721C269.316 300.315 270.208 299.175 271.028 298.129C271.118 298.014 271.207 297.9 271.296 297.788C272.198 296.66 273.099 295.532 274.45 295.306C276.543 294.734 278.153 294.967 279.689 295.189C279.972 295.23 280.252 295.271 280.533 295.306C280.837 295.35 281.142 295.402 281.448 295.454C282.727 295.672 284.035 295.896 285.489 295.532C286.839 295.306 287.965 294.856 289.09 294.405L289.094 294.404C287.066 297.111 285.039 297.788 282.786 298.465C282.688 298.493 282.589 298.521 282.49 298.549C280.986 298.976 279.309 299.452 277.83 300.721C275.185 302.708 274.912 304.91 274.69 306.695C274.685 306.735 274.681 306.774 274.676 306.814C274.676 307.942 274.45 308.844 273.774 309.747C272.648 310.875 271.747 311.327 270.395 311.778C269.044 312.229 267.467 312.906 265.89 314.26C262.512 317.432 262.893 322.388 262.954 323.183C262.958 323.237 262.961 323.271 262.961 323.285C262.961 323.511 263.186 323.963 263.637 323.963C264.087 323.963 264.313 323.963 264.538 323.511C264.538 323.285 266.115 319.901 269.269 318.096C270.621 317.419 271.747 316.968 273.099 316.742C273.17 316.724 273.243 316.706 273.315 316.688C275.062 316.253 277.009 315.767 278.956 314.034C280.274 313.092 280.648 311.834 280.998 310.656C281.067 310.424 281.135 310.196 281.209 309.973C281.434 308.619 281.885 307.491 283.011 306.588C285.039 305.234 286.841 304.783 288.643 304.332C288.959 304.241 289.274 304.16 289.59 304.079C290.851 303.754 292.113 303.429 293.374 302.527C293.548 302.411 293.718 302.298 293.883 302.189C295.008 301.446 295.939 300.831 296.528 300.044C295.899 303.193 294.296 304.584 292.624 306.035C292.499 306.143 292.373 306.252 292.248 306.363C290.896 307.491 289.544 308.619 288.417 310.424C286.821 313.222 287.346 315.135 287.8 316.79C287.858 317.003 287.916 317.213 287.967 317.419C288.019 317.676 288.082 317.922 288.143 318.161C288.351 318.971 288.54 319.707 288.192 320.578C287.63 321.893 286.911 322.582 286.166 323.297C286.016 323.441 285.865 323.586 285.714 323.737C285.443 324.077 285.13 324.397 284.801 324.733C284.039 325.512 283.19 326.38 282.56 327.799C280.308 332.311 283.011 337.05 283.236 337.275C283.462 337.727 283.687 337.727 284.137 337.727C284.588 337.727 284.813 337.501 284.813 337.05C284.813 337.05 285.039 333.214 287.291 330.28C288.108 329.257 288.926 328.605 289.911 327.82C290.012 327.739 290.115 327.657 290.22 327.573C291.797 326.445 293.374 325.091 294.5 322.834C295.401 321.029 295.176 319.45 294.951 318.096C294.725 316.742 294.725 315.614 295.401 314.26C296.753 312.229 298.105 311.101 299.681 309.973C299.873 309.82 300.071 309.666 300.273 309.51C301.261 308.744 302.351 307.899 303.286 306.588C304.187 305.46 304.638 304.332 305.089 303.204C305.539 306.363 304.638 308.393 303.512 310.424C303.374 310.745 303.228 311.065 303.079 311.39C302.497 312.664 301.889 313.995 301.709 315.614C301.268 318.925 302.768 320.725 303.888 322.069C303.913 322.098 303.937 322.128 303.962 322.157C304.06 322.289 304.159 322.416 304.255 322.54C304.821 323.267 305.314 323.901 305.314 324.865C305.314 326.445 304.863 327.573 304.187 328.701L304.186 328.704C303.511 330.057 302.835 331.41 302.61 333.665C302.193 338.469 305.83 341.533 306.552 342.141C306.61 342.19 306.649 342.223 306.666 342.24ZM303.08 301.351C301.261 301.024 299.521 300.468 297.892 299.714C297.195 304.309 295.009 306.294 292.924 308.188C292.849 308.256 292.773 308.325 292.698 308.393C292.641 308.441 292.584 308.489 292.527 308.536C291.251 309.599 290.182 310.491 289.319 312.003C287.967 314.26 288.417 315.839 289.094 317.645C289.544 318.998 289.994 320.352 289.319 321.932C288.643 323.737 287.517 324.865 286.39 325.768C286.215 325.943 286.031 326.119 285.842 326.3C285.059 327.047 284.187 327.88 283.462 329.152C282.56 330.958 282.786 332.763 283.011 334.117C283.462 332.763 284.137 330.958 285.264 329.604C286.165 328.25 287.291 327.347 288.417 326.67C289.994 325.542 291.346 324.414 292.248 322.383C292.923 321.255 292.698 319.901 292.473 318.773C292.248 317.193 292.022 315.388 293.148 313.809C294.725 311.327 296.302 310.198 297.879 309.07C299.231 308.168 300.358 307.265 301.033 306.137C302.361 304.141 302.833 302.636 303.08 301.351ZM295.607 298.482C294.01 297.491 292.551 296.297 291.269 294.934C288.915 298.932 286.282 299.867 283.635 300.805C283.502 300.852 283.369 300.9 283.236 300.947C281.66 301.398 280.082 301.85 278.731 302.978C276.703 304.557 276.478 306.137 276.253 307.942C276.215 308.168 276.184 308.393 276.152 308.619C275.996 309.747 275.839 310.875 274.901 312.003C273.549 313.357 272.198 314.034 270.846 314.486C270.699 314.544 270.549 314.603 270.395 314.663C269.364 315.066 268.163 315.535 266.791 316.516C265.214 317.87 264.763 319.45 264.538 321.029C265.439 319.901 266.791 318.547 268.368 317.645C269.381 316.968 270.395 316.672 271.409 316.376C271.747 316.277 272.085 316.178 272.423 316.065C274.225 315.614 276.027 315.162 277.604 313.809C278.505 312.906 278.956 311.778 279.181 310.424C279.632 308.844 280.082 307.265 281.659 305.911C283.912 304.332 285.94 303.88 287.967 303.429C288.256 303.347 288.536 303.272 288.81 303.199C290.031 302.873 291.102 302.587 292.022 301.849C293.744 300.752 294.813 299.655 295.607 298.482ZM289.614 292.951C288.502 291.442 287.581 289.783 286.889 288.009C283.001 290.958 279.906 290.736 277.154 290.342C275.577 290.116 274 290.116 272.198 290.567C269.719 291.245 268.818 292.824 268.142 294.178C268.08 294.282 268.017 294.389 267.954 294.497C267.334 295.551 266.645 296.723 265.214 297.337C263.716 298.087 262.529 298.058 261.266 298.026C261.009 298.02 260.749 298.014 260.483 298.014C260.216 298.014 259.95 298.005 259.679 297.996C258.58 297.96 257.424 297.922 255.977 298.465C254.175 299.142 252.823 300.496 252.148 301.624C253.499 300.947 255.076 300.27 256.878 300.044C258.356 299.833 259.636 300.018 261.089 300.227C261.186 300.242 261.285 300.256 261.384 300.27C263.186 300.496 264.989 300.721 267.016 300.044C268.142 299.593 269.044 298.691 269.719 297.562C270.621 296.209 271.747 294.855 273.774 294.404C276.15 293.808 278.178 294.085 279.858 294.314C280.09 294.346 280.315 294.376 280.533 294.404C280.632 294.418 280.731 294.432 280.828 294.446C282.281 294.656 283.561 294.84 285.039 294.629C287.166 294.173 288.576 293.613 289.614 292.951ZM286.041 285.324C285.638 283.678 285.425 281.958 285.425 280.188C285.425 279.879 285.431 279.571 285.444 279.265C280.726 280.483 278.151 279.094 275.577 277.706C275.147 277.521 274.735 277.32 274.325 277.121C273.23 276.587 272.157 276.065 270.846 275.901C268.308 275.477 267.16 276.445 265.911 277.499C265.829 277.567 265.747 277.637 265.664 277.706C264.538 278.608 263.412 279.511 261.835 279.511C260.053 279.511 258.793 278.988 257.749 278.555C257.605 278.496 257.466 278.438 257.329 278.383C256.203 277.706 254.851 277.255 253.049 277.029C251.247 276.803 249.444 277.706 248.318 278.608C248.874 278.688 249.458 278.74 250.061 278.793C251.166 278.89 252.333 278.993 253.499 279.285C254.757 279.645 255.729 280.149 256.756 280.682C257.017 280.817 257.281 280.954 257.554 281.091C259.131 282.219 260.483 283.122 262.736 283.122C264.087 283.122 264.989 282.67 266.115 281.993C266.218 281.941 266.322 281.889 266.427 281.835C267.709 281.185 269.198 280.431 271.071 280.639C273.774 281.091 275.577 282.219 277.154 283.347C278.505 284.25 279.632 284.927 281.209 285.152C283.198 285.612 284.667 285.551 286.041 285.324ZM285.696 276.763C286.01 274.799 286.589 272.923 287.396 271.175C282.808 270.477 280.826 268.288 278.936 266.199C278.868 266.124 278.799 266.048 278.731 265.973C278.684 265.916 278.637 265.86 278.591 265.804C277.528 264.525 276.637 263.453 275.126 262.588C272.873 261.234 271.296 261.686 269.494 262.362C268.368 263.039 267.016 263.491 265.439 263.039C263.637 262.362 262.51 261.234 261.609 260.106C261.434 259.93 261.259 259.747 261.079 259.557C260.333 258.773 259.501 257.9 258.23 257.173C256.428 256.27 254.626 256.496 253.274 256.721C254.626 257.173 256.428 257.849 257.78 258.978C259.131 259.88 260.032 261.008 260.708 262.136C261.835 263.716 262.961 265.07 264.989 265.973C266.115 266.65 267.467 266.424 268.593 266.198C270.17 265.973 271.972 265.747 273.549 266.875C276.027 268.455 277.154 270.034 278.28 271.614C279.181 272.968 280.082 274.096 281.209 274.773C283.052 276.003 284.476 276.5 285.696 276.763ZM288.626 268.887C289.615 267.286 290.808 265.826 292.168 264.541C288.176 262.184 287.244 259.546 286.306 256.895C286.259 256.762 286.212 256.629 286.165 256.496C285.714 254.916 285.264 253.336 284.137 251.983C282.56 249.952 280.983 249.726 279.181 249.501C278.956 249.463 278.731 249.432 278.505 249.4C277.379 249.244 276.253 249.087 275.126 248.147C273.774 246.793 273.099 245.439 272.648 244.085C272.59 243.939 272.531 243.788 272.471 243.634C272.069 242.601 271.601 241.398 270.621 240.024C269.269 238.444 267.692 237.993 266.115 237.767C267.241 238.67 268.593 240.024 269.494 241.603C270.17 242.619 270.466 243.634 270.761 244.649C270.86 244.988 270.959 245.326 271.071 245.665C271.522 247.47 271.972 249.275 273.324 250.855C274.225 251.757 275.351 252.208 276.703 252.434C278.28 252.885 279.857 253.337 281.209 254.916C282.786 257.173 283.236 259.203 283.687 261.234C283.769 261.524 283.844 261.806 283.917 262.08C284.243 263.302 284.528 264.374 285.264 265.295C286.359 267.02 287.455 268.091 288.626 268.887ZM294.148 262.884C295.654 261.769 297.311 260.847 299.082 260.154C296.138 256.26 296.36 253.16 296.753 250.403C296.978 248.824 296.978 247.244 296.528 245.439C295.852 242.957 294.275 242.054 292.923 241.378C292.819 241.315 292.712 241.252 292.605 241.188C291.552 240.567 290.382 239.877 289.769 238.444C289.014 236.932 289.05 235.578 289.082 234.383C289.088 234.151 289.094 233.926 289.094 233.706C289.094 233.439 289.102 233.171 289.111 232.901C289.147 231.8 289.185 230.642 288.643 229.193C287.967 227.388 286.615 226.034 285.489 225.357C286.165 226.711 286.841 228.29 287.066 230.095C287.277 231.576 287.092 232.858 286.883 234.314C286.869 234.411 286.855 234.509 286.841 234.608C286.615 236.413 286.39 238.219 287.066 240.249C287.517 241.378 288.417 242.28 289.544 242.957C290.896 243.86 292.248 244.988 292.698 247.019C293.292 249.398 293.016 251.429 292.787 253.112C292.756 253.344 292.725 253.569 292.698 253.788C292.684 253.887 292.669 253.986 292.655 254.084C292.446 255.539 292.262 256.821 292.473 258.301C292.929 260.432 293.487 261.844 294.148 262.884ZM301.763 259.305C301.536 257.929 301.475 256.457 301.935 254.465C302.16 252.885 302.835 251.757 303.737 250.403C304.863 248.824 305.989 247.019 306.44 244.311C306.648 242.435 305.895 240.943 305.246 239.66C305.193 239.554 305.14 239.45 305.089 239.347C304.412 238.219 303.962 237.316 303.962 235.962C303.962 233.706 304.863 232.352 306.44 230.772C306.577 230.497 306.715 230.232 306.85 229.97C307.381 228.942 307.883 227.97 308.242 226.711C308.693 224.68 308.693 222.875 308.468 221.521C309.369 222.649 310.27 224.229 310.045 226.26C309.819 228.065 309.369 229.419 308.693 230.547C308.638 230.683 308.58 230.824 308.521 230.968C308.088 232.013 307.566 233.275 307.566 235.06C307.566 236.639 308.468 237.767 309.369 238.895C309.438 238.978 309.507 239.061 309.576 239.142C310.627 240.394 311.594 241.544 311.171 244.085C311.007 245.399 310.485 246.474 309.953 247.57C309.754 247.98 309.553 248.394 309.369 248.824C307.983 251.403 306.596 253.981 307.812 258.707C307.506 258.694 307.199 258.687 306.891 258.687C305.123 258.687 303.406 258.901 301.763 259.305ZM310.31 258.959C312.376 259.29 314.342 259.916 316.166 260.793C316.915 256.424 319.047 254.488 321.083 252.639C321.158 252.571 321.233 252.502 321.309 252.434C321.365 252.387 321.422 252.34 321.478 252.293C322.754 251.229 323.824 250.337 324.688 248.824C326.04 246.567 325.589 244.988 324.913 243.183C324.463 241.829 324.012 240.475 324.688 238.895C324.688 237.051 325.617 236.137 326.632 235.14C326.734 235.039 326.837 234.937 326.94 234.834C327.115 234.659 327.299 234.483 327.488 234.303C328.271 233.555 329.143 232.722 329.869 231.449C330.77 229.644 330.545 227.839 330.32 226.485C329.869 227.839 329.194 229.644 328.067 230.998C327.166 232.352 326.04 233.254 324.913 233.931C323.336 235.06 321.984 236.188 321.083 238.219C320.407 239.347 320.633 240.701 320.858 241.829C321.083 243.408 321.309 245.213 320.182 246.793C318.605 249.275 317.028 250.403 315.451 251.531C314.099 252.434 312.973 253.337 312.297 254.465C311.069 256.311 310.573 257.737 310.31 258.959ZM318.548 262.131C320.124 263.154 321.558 264.378 322.813 265.768C325.147 261.875 327.753 260.951 330.371 260.022C330.504 259.975 330.637 259.928 330.77 259.88C332.347 259.429 333.924 258.978 335.276 257.849C337.304 256.27 337.529 254.69 337.754 252.885C337.792 252.66 337.823 252.434 337.854 252.209C338.011 251.08 338.167 249.952 339.106 248.824C340.458 247.47 341.809 246.793 343.161 246.342C343.307 246.283 343.457 246.225 343.611 246.164C344.642 245.762 345.843 245.293 347.216 244.311C348.793 242.957 349.243 241.378 349.468 239.798C348.568 240.926 347.216 242.28 345.639 243.183C344.625 243.86 343.612 244.156 342.598 244.452C342.26 244.551 341.922 244.649 341.584 244.762C339.781 245.213 337.979 245.665 336.402 247.019C335.501 247.921 335.05 249.049 334.825 250.403C334.375 251.983 333.924 253.562 332.347 254.916C330.095 256.495 328.067 256.947 326.04 257.398C325.751 257.481 325.469 257.556 325.195 257.629C323.974 257.955 322.904 258.241 321.984 258.978C320.368 260.008 319.327 261.038 318.548 262.131ZM324.461 267.833C325.54 269.37 326.423 271.055 327.074 272.851C330.982 269.868 334.09 270.09 336.853 270.485C338.43 270.711 340.007 270.711 341.809 270.26C344.287 269.583 345.188 268.003 345.864 266.65C345.927 266.545 345.99 266.438 346.053 266.331C346.673 265.276 347.362 264.105 348.793 263.491C350.302 262.734 351.654 262.77 352.847 262.802C353.079 262.808 353.304 262.814 353.524 262.814C353.79 262.814 354.057 262.822 354.327 262.831C355.426 262.868 356.583 262.906 358.029 262.362C359.832 261.686 361.183 260.331 361.859 259.203C360.507 259.88 358.93 260.557 357.128 260.783C355.649 260.994 354.369 260.809 352.914 260.599C352.818 260.585 352.721 260.571 352.622 260.557C350.821 260.332 349.018 260.106 346.991 260.783C345.864 261.234 344.963 262.136 344.287 263.265C343.386 264.619 342.26 265.973 340.232 266.424C337.856 267.019 335.828 266.742 334.149 266.513C333.917 266.482 333.692 266.451 333.474 266.424C333.375 266.409 333.276 266.395 333.179 266.381C331.726 266.172 330.446 265.987 328.968 266.198C326.887 266.645 325.492 267.19 324.461 267.833ZM327.85 275.523C328.182 277.025 328.357 278.586 328.357 280.188C328.357 280.518 328.349 280.845 328.335 281.171C333.198 279.849 335.814 281.259 338.43 282.67C338.859 282.854 339.272 283.056 339.682 283.255C340.777 283.788 341.849 284.311 343.161 284.475C345.699 284.899 346.847 283.931 348.096 282.877C348.177 282.808 348.259 282.739 348.342 282.67C349.468 281.767 350.595 280.865 352.172 280.865C353.952 280.865 355.212 281.387 356.255 281.82C356.4 281.88 356.54 281.938 356.678 281.993C357.804 282.67 359.155 283.122 360.958 283.347C362.76 283.572 364.563 282.67 365.689 281.767C364.337 281.993 362.535 281.993 360.732 281.542C359.476 281.182 358.505 280.679 357.479 280.147C357.217 280.012 356.952 279.874 356.678 279.737C355.101 278.835 353.523 277.932 351.271 277.706C349.919 277.706 349.018 278.157 347.891 278.834C347.789 278.886 347.685 278.938 347.58 278.991C346.299 279.641 344.809 280.396 342.935 280.188C340.232 279.737 338.43 278.608 336.853 277.48C335.501 276.578 334.375 275.901 332.798 275.675C330.753 275.202 329.257 275.28 327.85 275.523ZM328.093 283.568C327.805 285.392 327.289 287.139 326.574 288.78C331.028 289.509 332.981 291.666 334.845 293.726C334.914 293.802 334.982 293.877 335.05 293.952C335.099 294.01 335.146 294.068 335.194 294.125C336.255 295.402 337.145 296.473 338.655 297.337C340.908 298.691 342.485 298.239 344.287 297.562C345.638 297.111 346.991 296.66 348.568 297.337C350.37 298.014 351.496 299.142 352.397 300.27C352.573 300.445 352.748 300.63 352.928 300.819C353.674 301.603 354.506 302.476 355.776 303.204C357.579 304.106 359.381 303.88 360.732 303.655C359.381 303.204 357.579 302.527 356.227 301.399C354.875 300.496 353.974 299.368 353.299 298.239C352.172 296.66 351.045 295.306 349.018 294.404C347.891 293.726 346.54 293.952 345.414 294.178C343.837 294.404 342.035 294.629 340.458 293.501C337.979 291.921 336.853 290.342 335.727 288.762C334.825 287.409 333.924 286.28 332.798 285.603C330.844 284.299 329.36 283.819 328.093 283.568ZM325.348 291.172C324.391 292.782 323.23 294.255 321.901 295.558C325.651 297.871 326.561 300.444 327.475 303.03C327.522 303.163 327.569 303.296 327.617 303.429C328.067 305.008 328.517 306.588 329.644 307.942C331.221 309.973 332.798 310.198 334.6 310.424C334.826 310.462 335.051 310.493 335.277 310.524C336.403 310.681 337.529 310.838 338.655 311.778C340.007 313.132 340.683 314.486 341.133 315.839C341.192 315.986 341.25 316.136 341.31 316.29C341.712 317.323 342.181 318.526 343.161 319.901C344.512 321.48 346.089 321.932 347.666 322.157C346.54 321.255 345.188 319.901 344.287 318.321C343.611 317.306 343.316 316.291 343.02 315.276C342.922 314.937 342.823 314.599 342.71 314.26C342.26 312.455 341.809 310.65 340.458 309.07C339.556 308.168 338.43 307.716 337.078 307.491C335.501 307.039 333.924 306.588 332.573 305.008C330.996 302.752 330.545 300.722 330.095 298.691C330.012 298.401 329.937 298.119 329.863 297.844C329.538 296.622 329.253 295.55 328.517 294.629C327.482 293 326.447 291.954 325.348 291.172ZM319.821 297.351C318.338 298.474 316.704 299.409 314.956 300.119C317.63 303.85 317.41 306.848 317.028 309.522C316.803 311.101 316.803 312.681 317.253 314.486C317.93 316.968 319.506 317.87 320.858 318.547C320.962 318.61 321.069 318.673 321.176 318.736C322.229 319.357 323.399 320.047 324.012 321.48C324.767 322.992 324.731 324.346 324.7 325.542C324.694 325.773 324.688 325.999 324.688 326.219C324.688 326.486 324.679 326.753 324.67 327.024C324.634 328.125 324.596 329.283 325.138 330.732C325.814 332.537 327.166 333.891 328.292 334.568C327.617 333.214 326.94 331.634 326.715 329.829C326.504 328.349 326.689 327.067 326.898 325.612C326.912 325.514 326.926 325.416 326.94 325.316C327.166 323.511 327.391 321.706 326.715 319.676C326.265 318.547 325.363 317.645 324.237 316.968C322.886 316.065 321.534 314.937 321.083 312.906C320.49 310.527 320.765 308.497 320.993 306.815C321.025 306.582 321.056 306.356 321.083 306.137C321.097 306.038 321.111 305.94 321.125 305.844C321.335 304.387 321.52 303.105 321.309 301.624C320.897 299.698 320.401 298.359 319.821 297.351ZM312.083 301.055C312.252 302.309 312.258 303.676 311.847 305.46C311.622 307.039 310.945 308.168 310.045 309.522C308.918 311.101 307.792 312.906 307.341 315.614C307.133 317.49 307.887 318.982 308.536 320.265C308.589 320.371 308.641 320.475 308.693 320.578C309.369 321.706 309.819 322.609 309.819 323.963C309.594 326.218 308.693 327.797 307.793 329.376C307.656 329.65 307.519 329.916 307.384 330.177C306.852 331.206 306.349 332.179 305.989 333.439C305.539 335.245 305.539 337.05 305.764 338.403C304.863 337.275 303.962 335.696 304.187 333.665C304.412 331.86 304.863 330.506 305.539 329.378C305.593 329.241 305.652 329.101 305.711 328.956C306.144 327.911 306.666 326.649 306.666 324.865C306.666 323.285 305.764 322.157 304.863 321.029C304.794 320.946 304.725 320.864 304.656 320.783C303.605 319.531 302.638 318.381 303.061 315.839C303.225 314.526 303.746 313.452 304.279 312.355C304.478 311.945 304.679 311.531 304.863 311.101C306.203 308.609 307.543 306.116 306.534 301.686C306.652 301.687 306.771 301.688 306.891 301.688C308.681 301.688 310.421 301.469 312.083 301.055Z" fill="#FFDEC9"/>
<defs>
<linearGradient id="paint0_linear_1_412" x1="0.999997" y1="267.5" x2="597" y2="264" gradientUnits="userSpaceOnUse">
<stop stop-color="#BD7B4F" stop-opacity="0"/>
<stop offset="0.15625" stop-color="#BD7B4F"/>
<stop offset="0.8125" stop-color="#BD7B4F"/>
<stop offset="1" stop-color="#BD7B4F" stop-opacity="0"/>
</linearGradient>
<linearGradient id="paint1_linear_1_412" x1="304.413" y1="205.121" x2="304.542" y2="442.431" gradientUnits="userSpaceOnUse">
<stop stop-color="#BD7B4F"/>
<stop offset="1" stop-color="#BD7B4F" stop-opacity="0"/>
</linearGradient>
<linearGradient id="paint2_linear_1_412" x1="308.129" y1="34.7214" x2="308.129" y2="170.094" gradientUnits="userSpaceOnUse">
<stop stop-color="#BD7B4F" stop-opacity="0.31"/>
<stop offset="1" stop-color="#BD7B4F" stop-opacity="0"/>
</linearGradient>
<radialGradient id="paint3_radial_1_412" cx="0" cy="0" r="1" gradientUnits="userSpaceOnUse" gradientTransform="translate(307.116 279.443) rotate(90) scale(93.4465)">
<stop stop-color="#BD7B4F" stop-opacity="0.69"/>
<stop offset="1" stop-color="#BD7B4F" stop-opacity="0"/>
</radialGradient>
</defs>
</svg>
