<svg width="643" height="642" viewBox="0 0 643 642" fill="none" xmlns="http://www.w3.org/2000/svg">
<path d="M641 320.999C641 497.177 497.956 640 321.501 640C145.045 640 2 497.177 2 320.999C2 144.821 145.045 2 321.501 2C497.956 2 641 144.821 641 320.999Z" fill="#0B0A0A" stroke="#BD7B4F" stroke-width="4" stroke-miterlimit="10" stroke-linecap="round" stroke-linejoin="round"/>
<path d="M323.5 41.0967V88.4348M323.5 88.4348C330.348 88.4348 337.112 88.7956 343.811 89.3714C350.619 89.9643 357.341 90.8492 363.97 92.0101M323.5 88.4348C316.654 88.4348 309.891 88.7932 303.191 89.3717C296.382 89.9606 289.664 90.8492 283.034 92.0101M43.0964 321.555H90.4255C90.4255 314.703 90.7841 307.941 91.365 301.241C91.9539 294.426 92.8403 287.708 94.0023 281.079C95.1787 274.355 96.6168 267.728 98.3572 261.213C100.116 254.632 102.124 248.146 104.434 241.805C106.762 235.405 109.4 229.157 112.26 223.031M599.643 272.853L552.999 281.079C551.826 274.353 550.386 267.728 548.647 261.213C546.884 254.63 544.875 248.146 542.567 241.805M274.809 45.3591L283.034 92.0101M283.034 92.0101C276.311 93.188 269.685 94.626 263.174 96.3654C256.59 98.1257 250.109 100.136 243.768 102.445M586.992 225.634L542.564 241.807M227.597 58.0127L243.767 102.444C237.367 104.774 231.119 107.417 224.998 110.273C218.837 113.151 212.832 116.304 206.977 119.691M566.337 181.326L525.323 205.009C521.92 199.127 518.274 193.409 514.388 187.867C510.49 182.309 506.374 176.919 502.019 171.732M183.3 78.6723L206.977 119.691M206.977 119.691C201.1 123.093 195.382 126.742 189.838 130.63M538.301 141.279L502.019 171.732M502.019 171.732C497.657 166.536 493.101 161.508 488.306 156.715C483.514 151.919 478.488 147.363 473.296 143.002M143.261 106.712L173.707 143.004C178.891 138.648 184.285 134.529 189.838 130.628M503.739 106.712L473.296 143.004C468.109 138.644 462.719 134.528 457.162 130.628C451.623 126.741 445.904 123.094 440.024 119.691M144.983 171.731L108.7 141.278M144.983 171.731C149.346 166.536 153.899 161.508 158.694 156.715C163.486 151.919 168.513 147.363 173.707 143.002M144.983 171.731C140.625 176.918 136.51 182.309 132.612 187.866C128.725 193.41 125.079 199.127 121.678 205.009M463.702 78.6723L440.024 119.691M440.024 119.691C434.171 116.304 428.167 113.153 422.003 110.273C415.878 107.412 409.634 104.774 403.234 102.444M80.6663 181.326L121.678 205.009M121.678 205.009C118.292 210.866 115.139 216.87 112.261 223.032M419.404 58.0127L403.234 102.444M403.234 102.444C396.892 100.135 390.41 98.1251 383.827 96.3648M60.0092 225.63L104.433 241.807M372.193 45.3591L363.97 92.0101M363.97 92.0101C370.689 93.188 377.318 94.626 383.828 96.3654M47.3594 272.853L93.9989 281.079M605 321.555C605 166.057 478.968 40 323.5 40C168.031 40 42.0001 166.057 42.0001 321.555M556.574 321.556C556.574 314.703 556.213 307.94 555.639 301.242C555.051 294.428 554.163 287.709 552.999 281.082M542.566 241.805C540.239 235.405 537.603 229.159 534.74 223.032C531.861 216.87 528.71 210.865 525.323 205.008M323.5 601.9V554.563M323.5 554.563C316.652 554.563 309.888 554.203 303.191 553.625C296.382 553.036 289.66 552.147 283.032 550.989M323.5 554.563C330.348 554.563 337.11 554.204 343.809 553.624C350.62 553.037 357.338 552.147 363.966 550.988M603.902 321.445H556.573C556.573 328.291 556.216 335.055 555.637 341.756C555.046 348.574 554.16 355.286 552.999 361.918C551.821 368.643 550.385 375.272 548.644 381.786C546.884 388.366 544.876 394.851 542.567 401.192M47.3569 370.144L94.0016 361.918M372.19 597.639L363.966 550.988M363.966 550.988C370.689 549.811 377.316 548.374 383.828 546.631C390.41 544.873 396.893 542.862 403.234 540.555M60.008 417.363L104.435 401.192M419.404 584.987L403.234 540.555M403.234 540.555C409.632 538.224 415.881 535.581 422.004 532.726C428.163 529.846 434.169 526.694 440.024 523.307M80.6637 461.674L121.678 437.986C125.08 443.871 128.725 449.589 132.612 455.131C136.51 460.685 140.625 466.08 144.98 471.268M463.701 564.325L440.024 523.307M440.024 523.307C445.902 519.907 451.617 516.254 457.162 512.367C462.717 508.472 468.109 504.352 473.293 499.994L503.739 536.284M108.701 501.717L144.98 471.268M144.98 471.268C149.343 476.46 153.899 481.491 158.694 486.281C163.486 491.077 168.513 495.631 173.706 499.995M143.261 536.284L173.706 499.994C178.891 504.352 184.281 508.47 189.839 512.367C195.379 516.255 201.096 519.902 206.977 523.307M502.018 471.268L538.302 501.718M502.018 471.268C497.655 476.46 493.101 481.491 488.306 486.281C483.514 491.077 478.488 495.631 473.293 499.995M502.018 471.268C506.374 466.08 510.492 460.686 514.388 455.131C518.274 449.589 521.923 443.871 525.323 437.986M183.298 564.325L206.977 523.307M206.977 523.307C212.831 526.694 218.835 529.847 224.998 532.726C231.122 535.588 237.367 538.223 243.766 540.554C250.109 542.861 256.59 544.874 263.175 546.631M566.334 461.674L525.323 437.986M525.323 437.986C528.709 432.131 531.862 426.128 534.739 419.964M227.597 584.987L243.767 540.555M586.991 417.368L542.567 401.192M542.567 401.192C540.24 407.593 537.602 413.838 534.74 419.965M274.808 597.64L283.032 550.989M283.032 550.989C276.311 549.811 269.681 548.374 263.174 546.631M599.641 370.144L553.001 361.918M42 321.445C42 476.943 168.031 603 323.5 603C478.968 603 605 476.943 605 321.445M90.4252 321.444C90.4252 328.292 90.7877 335.056 91.3609 341.756C91.9497 348.568 92.8382 355.286 94.0028 361.918M94.0039 361.918C95.1763 368.646 96.6144 375.271 98.3535 381.785C100.116 388.366 102.125 394.85 104.433 401.191M104.434 401.191C106.762 407.592 109.399 413.838 112.261 419.964C115.141 426.129 118.292 432.132 121.677 437.987" stroke="#BD7B4F" stroke-width="4" stroke-miterlimit="10" stroke-linecap="round" stroke-linejoin="round"/>
<path d="M112 323.5C112 440.307 206.692 535 323.5 535C440.308 535 535 440.307 535 323.5C535 206.692 440.308 112 323.5 112C206.692 112 112 206.692 112 323.5Z" fill="url(#paint0_radial_5976_6856)"/>
<defs>
<radialGradient id="paint0_radial_5976_6856" cx="0" cy="0" r="1" gradientUnits="userSpaceOnUse" gradientTransform="translate(323.5 323.5) rotate(-90) scale(211.5)">
<stop offset="0.71875" stop-color="#23211E"/>
<stop offset="1" stop-color="#23211E" stop-opacity="0"/>
</radialGradient>
</defs>
</svg>
